<svg id="Ebene_1" xmlns="http://www.w3.org/2000/svg" width="171mm" height="22mm" viewBox="0 0 484.7 62.4"><style>.st0{fill:#27426b}</style><path class="st0" d="M46.5 10.5c-1.3.9-1.9 2.6-1.9 4.7 0 1.4.4 2.6 1 3.4.6.8 1.7 1.4 3.1 1.3 2.5-.2 3.7-2.4 3.6-5.2 0-.7-.1-1.3-.3-1.9-.5-1.6-1.7-3-3.8-2.9-.7.1-1.2.3-1.7.6M48 7.2c3.8-.2 6.2 1.6 7.3 4.2.4.9.6 2 .7 3.1.1 2.6-.6 4.6-1.8 5.9-1.2 1.4-2.9 2.3-5.3 2.4-2.6.1-4.5-.7-5.8-1.9-1.4-1.3-2.1-3-2.2-5.5-.1-1.3.1-2.5.4-3.4.8-2.4 2.4-4 4.9-4.7.6 0 1.2-.1 1.8-.1M70.9 7.7c.1 1.8.3 3.5.5 5.2-.8.1-1.6.2-2.4.4-.3-.8-.5-1.7-.7-2.6-.1-.3-.2-.6-.4-.7-.4-.1-1.1.2-1.3.3-.4.2-.7.4-1 .6-.5.3-.9.7-1.4 1.1l-.3.3-.1.1v6c0 .6 0 1 .4 1.2.3.1.7.2 1.1.2.4 0 1 .1 1 .1s-.1 1.7-.2 2.5h-8c-.1-.8-.2-2.4-.2-2.4s.7-.1 1.1-.1c.6-.1 1.2-.1 1.4-.6.1-.2 0-.7 0-1v-6.2-1c-.1-.5-.7-.5-1.4-.6-.4-.1-.8-.1-1-.1.1-.8.1-1.7.2-2.5h5.4v2.2c.1 0 .2-.1.2-.2.5-.5 1.1-1 1.8-1.5s1.7-1 2.7-1c.7-.3 1.8-.1 2.6.3M90.4 15.6c-1.4.1-2.4 1.1-2.3 2.6.1 1.3 1.2 1.8 2.6 1.7 2.1-.2 3.4-1.9 3.3-4.1-1.1-.1-2.3-.3-3.6-.2m9.8 4.2c-.1.8-.2 1.6-.2 2.5h-5.5v-1.9c-.6.7-1.3 1.4-2.2 1.8-2 .8-5.1.5-6.5-.7-.9-.8-1.5-1.9-1.4-3.6.1-2.1 1.4-3.5 3.1-4.2 1.8-.8 3.8-.8 6.5-.6.1-1.2.1-2.3-.6-2.8-.8-.6-2.2-.5-3.6-.5-.4 0-.9 0-1.2.1-.2.1-.3.2-.4.4-.2.4-.3.9-.5 1.2-.8-.1-1.6-.3-2.4-.4.1-1.2.3-2.4.5-3.7 1.6-.3 3.1-.4 4.8-.5 3.5-.2 6.2.7 6.9 3.4.2.8.2 1.8.2 2.8v4.4c0 .7-.2 1.6.3 1.8.3.1.7.1 1.1.2.4.3.8.3 1.1.3M83.2 19.9c-1.1.1-3 .4-3.8-.2-.5-.3-.8-1-.8-1.7v-7.6h4.2V7.6h-4.2V4H75v3.7h-2.2c-.1.7-.2 2.5-.2 2.5l2.4.3v5.2c0 1.8-.1 3.5.4 4.7.6 1.2 1.7 1.8 3.2 2 1.5.2 3.3.1 4.9-.1l-.3-2.4M7 15.6c-1.4.1-2.4 1.1-2.3 2.6.1 1.3 1.2 1.8 2.6 1.7 2.1-.2 3.4-1.9 3.3-4.1-1.1-.1-2.3-.3-3.6-.2m9.8 4.2c-.1.8-.2 1.6-.2 2.5h-5.5v-1.9c-.6.7-1.3 1.4-2.2 1.8-2 .8-5.1.5-6.5-.7C1.5 20.8.9 19.6 1 18c.1-2.1 1.4-3.5 3.1-4.2 1.8-.8 3.8-.8 6.5-.5.1-1.2.1-2.3-.6-2.8-.7-.6-2.2-.6-3.5-.5-.4 0-.9 0-1.2.1-.2.1-.3.2-.4.4-.2.4-.3.9-.5 1.2-.8-.1-1.6-.3-2.4-.4.2-1.2.3-2.4.5-3.7 1.7-.3 3.1-.4 4.9-.5 3.5-.2 6.2.7 6.9 3.4.2.8.2 1.8.2 2.8v4.4c0 .7-.2 1.6.3 1.8.3.1.7.1 1.1.2.2.1.6.1.9.1M11.9 3.5l-.7 2.2-6.7-2.2L5.9 1zM35.8 8.3c0 1.9-.7 3.1-2.1 3.6-.7.3-1.6.2-2.6.2h-2.8V4.5h4.3c2.1.2 3.2 1.6 3.2 3.8m3.4-2.7c-.9-2.5-3.2-3.9-6.6-4H22.1l-.3 2.6s.8.1 1.3.2c.4.1 1 0 1.2.2.4.3.3 1.1.3 1.9v11.7c0 .6.1 1-.3 1.2-.1.1-.4.1-.6.1-.6.1-1.3.2-1.9.2.1.9.3 2.6.3 2.6h8.7l.3-2.6s-1.2-.1-1.8-.2c-.2 0-.4 0-.5-.1-.2-.1-.3-.2-.4-.4v-4h3.3c.6 0 1.3 0 1.9-.1 3.2-.3 5.3-1.7 6-4.6.2-1.4.2-3.3-.4-4.7M2.2 39.5s1.1 1.2 2.9 1.2c1.3 0 2.4-.8 2.4-2.1 0-3-5.5-2.2-5.5-5.5 0-1.4 1.3-2.7 3.2-2.7 1.8 0 2.7 1 2.7 1l-.4.6s-.9-.9-2.4-.9c-1.6 0-2.6 1.1-2.6 2.1C2.5 36 8 35.1 8 38.7c0 1.5-1.2 2.8-3.1 2.8-2.1 0-3.3-1.3-3.3-1.3l.6-.7zM17.4 34.2h-1v-.6h1v-2.2h.6v2.2h2v.6h-2v4.2c0 2 1.2 2.3 1.8 2.3h.4v.6h-.4c-.8 0-2.5-.3-2.5-2.8v-4.3zM28.8 41.2h.6v-7.6h-.6v7.6zm-.1-9.5h.8v-1.1h-.8v1.1zM39.2 34.2h-1v-.6h1v-.3c0-2.5 1.7-2.8 2.4-2.8h.4v.6h-.4c-.6 0-1.8.2-1.8 2.2v.4H42v.6h-2.1v7h-.6v-7.1zM50.7 34.2h-1v-.6h1v-2.2h.6v2.2h2v.6h-2v4.2c0 2 1.2 2.3 1.8 2.3h.4v.6h-.4c-.8 0-2.5-.3-2.5-2.8v-4.3zM62 33.6h.6v4.6c0 1.3.2 2.6 1.9 2.6 1.9 0 3.2-1.7 3.2-3.4v-3.7h.6v7.6h-.6V40c0-.3.1-.6.1-.6-.3.7-1.3 2.1-3.2 2.1-1.9 0-2.5-1-2.5-3v-4.9zM77.9 33.6h.6v1.3c0 .3-.1.6-.1.6.3-.7 1.3-2.1 3.3-2.1 2 0 2.5 1.2 2.5 3v4.8h-.6v-4.6c0-1.3-.2-2.6-1.9-2.6-1.5 0-2.7 1-3.1 2.4-.1.3-.1.7-.1 1v3.7h-.6v-7.5zM99.3 37.3c0-2.4-1.2-3.2-2.7-3.2-1.7 0-2.6 1.2-2.6 3.2s1.1 3.3 2.8 3.3c1.3 0 2.5-.9 2.5-3.3m-3 6.4c1.7 0 2.9-.8 2.9-2.6v-.9c0-.3.1-.6.1-.6-.5.9-1.3 1.5-2.6 1.5-2 0-3.4-1.5-3.4-3.9s1.3-3.8 3.3-3.8c2.2 0 2.7 1.5 2.7 1.5v-1.3h.6v7.5c0 2.3-1.7 3.2-3.5 3.2-.8 0-1.7-.2-2.4-.6l.3-.6c-.1.1.9.6 2 .6"/><g><path class="st0" d="M460.9 59.6h.6v-2c0-.2 0-.4.1-.6.2-.7.8-1.2 1.5-1.2.8 0 .9.6.9 1.2v2.5h.6V57c0-1-.4-1.6-1.4-1.6-.9 0-1.5.6-1.6 1v-2.5h-.6v5.7zm-4.9-2c0 1.3.9 2.2 2.2 2.2 1.1 0 1.6-.6 1.6-.6l-.3-.4s-.5.6-1.3.6c-.9 0-1.6-.7-1.6-1.7s.7-1.7 1.6-1.7c.7 0 1.2.5 1.2.5l.3-.4s-.5-.6-1.5-.6c-1.3-.1-2.2.8-2.2 2.1m-1.8 2h.6V59h-.6v.6zm-3.3-.5c-.8 0-1.4-.6-1.4-1.6s.5-1.6 1.3-1.6c.7 0 1.3.4 1.3 1.6 0 1.2-.6 1.6-1.2 1.6m-1.4 1.5l-.2.5c.4.2.9.3 1.4.3 1 0 2-.5 2-1.8v-4h-.5v.6s-.3-.7-1.4-.7c-1.1 0-1.8.8-1.8 2.1 0 1.2.7 2.1 1.8 2.1.6 0 1.1-.3 1.3-.7v.7c0 .9-.6 1.3-1.4 1.3-.6-.1-1.2-.4-1.2-.4m-5.3-1h.6v-2c0-.2 0-.4.1-.6.2-.7.8-1.2 1.5-1.2.8 0 .9.6.9 1.2v2.5h.6V57c0-1-.4-1.6-1.4-1.6-1 0-1.5.7-1.7 1V55.5h-.6v4.1zm-5-1.5c0 1.1.4 1.6 1.4 1.6.9 0 1.5-.6 1.6-1V59.6h.5v-4.1h-.6v2c0 .9-.6 1.7-1.5 1.7-.8 0-.9-.6-.9-1.2v-2.5h-.6v2.6zm-2.6 0c0 1.4 1 1.5 1.4 1.5h.2v-.5h-.2c-.3 0-.9-.1-.9-1.1v-2h1v-.5h-1v-1.2h-.6v1.2h-.5v.5h.5v2.1zm-2.8 1.5h.6V56h1.1v-.5h-1.1v-.2c0-.9.6-1 .9-1h.2v-.5h-.3c-.5 0-1.4.2-1.4 1.5v.2h-.5v.5h.5v3.6zm-2.2 0h.6v-4.1h-.6v4.1zm0-5.1h.6v-.7h-.6v.7zm-2.7 3.6c0 1.4 1 1.5 1.4 1.5h.2v-.5h-.2c-.3 0-.9-.1-.9-1.1v-2h1v-.5h-1v-1.2h-.6v1.2h-.6v.5h.5v2.1zm-4.2 1s.5.6 1.5.6c.8 0 1.4-.5 1.4-1.2 0-1.4-2.2-1.1-2.2-2 0-.5.4-.6.8-.6.7 0 1 .4 1 .4l.3-.4s-.4-.5-1.3-.5c-.7 0-1.4.4-1.4 1.1 0 1.4 2.2 1.1 2.2 2 0 .4-.4.7-.8.7-.8 0-1.2-.5-1.2-.5l-.3.4zm-3.7-1.5h2.3V57H421v.6zm-4.4.9c0-.9 1.3-.9 2-.9h.2v.2c0 .7-.5 1.5-1.3 1.5-.5 0-.9-.4-.9-.8m-.5 0c0 .8.7 1.2 1.4 1.2 1 0 1.4-.9 1.4-.9v.8h.5V57c0-1-.6-1.6-1.5-1.6s-1.5.5-1.5.5l.3.4s.5-.4 1.2-.4c.6 0 1 .3 1 1.1v.1h-.2c-.8 0-2.6 0-2.6 1.4m-2.4-.4c0 1.4 1 1.5 1.4 1.5h.2v-.5h-.2c-.3 0-.9-.1-.9-1.1v-2h1v-.5h-1v-1.2h-.6v1.2h-.6v.5h.5v2.1zm-3.2 1.5h.6v-1.7c0-.3 0-.5.1-.8.2-.6.6-1.1 1.2-1.1h.2v-.6h-.2c-.7 0-1.1.5-1.3 1.1v-1h-.6v4.1zm-5-2.1c0-.9.7-1.6 1.6-1.6.9 0 1.6.7 1.6 1.6 0 1-.7 1.7-1.6 1.7-.8 0-1.6-.7-1.6-1.7m-.5 0c0 1.3 1 2.2 2.2 2.2 1.2 0 2.2-.9 2.2-2.2 0-1.2-1-2.1-2.2-2.1-1.3 0-2.2.9-2.2 2.1m-4.2.1c0-1.2.7-1.7 1.3-1.7.8 0 1.3.7 1.3 1.7 0 1.1-.6 1.7-1.3 1.7-.8-.1-1.3-.9-1.3-1.7m-.5 3.7h.6v-2-.4s.4.8 1.4.8c1.1 0 1.9-.9 1.9-2.2 0-1.3-.7-2.2-1.8-2.2s-1.4.8-1.4.8v-.7h-.5v5.9zm-4.2-2.8c0-.9 1.3-.9 2-.9h.2v.2c0 .7-.5 1.5-1.3 1.5-.6 0-.9-.4-.9-.8m-.5 0c0 .8.7 1.2 1.4 1.2 1 0 1.4-.9 1.4-.9v.8h.5V57c0-1-.6-1.6-1.5-1.6s-1.5.5-1.5.5l.3.4s.5-.4 1.2-.4c.6 0 1 .3 1 1.1v.1h-.2c-.8 0-2.6 0-2.6 1.4m-1.8 1.1h.6V59h-.6v.6zm-5.7 0h.6l1-2.9c.1-.2.1-.4.1-.4s.1.2.1.4l1 2.9h.6l1.4-4.1h-.6l-1 3.1c-.1.2-.1.4-.1.4s-.1-.2-.1-.4l-1-3.1h-.6l-1 3.1c-.1.2-.1.4-.1.4s-.1-.2-.1-.4l-1-3.1h-.6l1.4 4.1zm-6.7 0h.6l1-2.9c.1-.2.1-.4.1-.4s.1.2.1.4l1 2.9h.6l1.4-4.1h-.6l-1 3.1c-.1.2-.1.4-.1.4s-.1-.2-.1-.4l-1-3.1h-.6l-1 3.1c-.1.2-.1.4-.1.4s-.1-.2-.1-.4l-1-3.1h-.6l1.4 4.1zm-6.7 0h.6l1-2.9c.1-.2.1-.4.1-.4s.1.2.1.4l1 2.9h.6l1.4-4.1h-.5l-1 3.1c-.1.2-.1.4-.1.4s-.1-.2-.1-.4l-1-3.1h-.6l-1 3.1c-.2.2-.2.4-.2.4s-.1-.2-.1-.4l-1-3.1h-.6l1.4 4.1zM460.8 49h.6v-2c0-.2 0-.4.1-.6.2-.7.8-1.2 1.5-1.2.8 0 .9.6.9 1.2V49h.6v-2.6c0-1-.4-1.6-1.4-1.6-.9 0-1.5.6-1.6 1v-2.5h-.6V49zm-5-2c0 1.3.9 2.2 2.2 2.2 1.1 0 1.6-.6 1.6-.6l-.3-.4s-.5.6-1.3.6c-.9 0-1.6-.7-1.6-1.7s.7-1.7 1.6-1.7c.7 0 1.2.5 1.2.5l.3-.4s-.5-.6-1.5-.6c-1.2-.1-2.2.8-2.2 2.1m-1.8 2h.6v-.7h-.6v.7zm-3.3-.5c-.8 0-1.4-.6-1.4-1.6s.5-1.6 1.3-1.6c.7 0 1.3.4 1.3 1.6.1 1.2-.5 1.6-1.2 1.6m-1.3 1.5l-.2.5c.4.2.9.3 1.4.3 1 0 2-.5 2-1.8v-4h-.6v.6s-.3-.7-1.4-.7c-1.1 0-1.8.8-1.8 2.1 0 1.2.7 2.1 1.8 2.1.6 0 1.1-.3 1.3-.7v.6c0 .9-.6 1.3-1.4 1.3-.6 0-1.1-.3-1.1-.3m-5.3-1h.6v-2c0-.2 0-.4.1-.6.2-.7.8-1.2 1.5-1.2.8 0 .9.6.9 1.2V49h.6v-2.6c0-1-.4-1.6-1.4-1.6-1 0-1.5.7-1.7 1V44.9h-.6V49zm-5-1.5c0 1.1.4 1.6 1.4 1.6.9 0 1.5-.6 1.6-1V49h.5v-4.1h-.6v2c0 .9-.6 1.7-1.5 1.7-.8 0-.9-.6-.9-1.2v-2.5h-.6v2.6zm-2.7 0c0 1.4 1 1.5 1.4 1.5h.2v-.5h-.2c-.3 0-.9-.1-.9-1.1v-2.1h1v-.5h-1v-1.2h-.6v1.2h-.6v.5h.5v2.2zm-2.7 1.5h.6v-3.6h1.1v-.5h-1.1v-.2c0-.9.6-1 .9-1h.2v-.5h-.3c-.5 0-1.4.2-1.4 1.5v.2h-.5v.5h.5V49zm-2.2 0h.6v-4.1h-.6V49zm0-5h.6v-.7h-.6v.7zm-2.7 3.5c0 1.4 1 1.5 1.4 1.5h.2v-.5h-.2c-.3 0-.9-.1-.9-1.1v-2.1h1v-.5h-1v-1.2h-.6v1.2h-.6v.5h.5v2.2zm-4.3 1s.5.6 1.5.6c.8 0 1.4-.5 1.4-1.2 0-1.4-2.2-1.1-2.2-2 0-.5.4-.6.8-.6.7 0 1 .4 1 .4l.3-.4s-.4-.5-1.3-.5c-.8 0-1.4.4-1.4 1.1 0 1.4 2.2 1.1 2.2 2 0 .4-.4.7-.8.7-.8 0-1.2-.5-1.2-.5l-.3.4zm-3.6-1.5h2.3v-.5h-2.3v.5zm-4.4.9c0-.9 1.3-.9 2-.9h.2v.2c0 .7-.5 1.5-1.3 1.5-.6 0-.9-.4-.9-.8m-.6 0c0 .8.7 1.2 1.4 1.2 1 0 1.4-.9 1.4-.9v.8h.5v-2.6c0-1-.6-1.6-1.5-1.6s-1.5.5-1.5.5l.3.4s.5-.4 1.2-.4c.6 0 1 .3 1 1.1v.1h-.2c-.8 0-2.6 0-2.6 1.4m-2.4-.4c0 1.4 1 1.5 1.4 1.5h.2v-.5h-.2c-.3 0-.9-.1-.9-1.1v-2.1h1v-.5h-1v-1.2h-.6v1.2h-.4v.5h.5v2.2zm-3.2 1.5h.6v-1.7c0-.3 0-.5.1-.8.2-.6.6-1.1 1.2-1.1h.2v-.6h-.2c-.7 0-1.1.5-1.3 1.1v-1h-.6V49zm-4.9-2.1c0-.9.7-1.6 1.6-1.6.9 0 1.6.7 1.6 1.6 0 1-.7 1.7-1.6 1.7-.9 0-1.6-.7-1.6-1.7m-.6 0c0 1.3 1 2.2 2.2 2.2 1.2 0 2.2-.9 2.2-2.2 0-1.2-1-2.1-2.2-2.1-1.2 0-2.2.9-2.2 2.1m-4.1.1c0-1.2.7-1.7 1.3-1.7.8 0 1.3.7 1.3 1.7 0 1.1-.6 1.7-1.3 1.7-.9-.1-1.3-.9-1.3-1.7m-.6 3.7h.6v-2-.4s.4.8 1.4.8c1.1 0 1.9-.9 1.9-2.2 0-1.3-.7-2.2-1.8-2.2s-1.4.8-1.4.8v-.7h-.5v5.9zm-4.1-2.8c0-.9 1.3-.9 2-.9h.2v.2c0 .7-.5 1.5-1.3 1.5-.6 0-.9-.4-.9-.8m-.6 0c0 .8.7 1.2 1.4 1.2 1 0 1.4-.9 1.4-.9v.8h.5v-2.6c0-1-.6-1.6-1.5-1.6s-1.5.5-1.5.5l.3.4s.5-.4 1.2-.4c.6 0 1 .3 1 1.1v.1h-.2c-.8 0-2.6 0-2.6 1.4M391 47c0-.6.5-1.1 1.1-1.1h1v2.3h-1c-.6 0-1.1-.5-1.1-1.2m-2.2 0c0 1.7 1.3 3 3 3v-.5c-1.4 0-2.4-1.1-2.4-2.5s1-2.5 2.4-2.5c1 0 1.4.5 1.4 1h-1.1c-1 0-1.6.7-1.6 1.6 0 .9.7 1.6 1.6 1.6h2.2v-.5h-.6v-2.6c0-.8-.5-1.6-2-1.6-1.6 0-2.9 1.4-2.9 3m-5-.1c0-.9.7-1.6 1.6-1.6.9 0 1.6.7 1.6 1.6 0 1-.7 1.7-1.6 1.7-.9 0-1.6-.7-1.6-1.7m-.6 0c0 1.3 1 2.2 2.2 2.2 1.2 0 2.2-.9 2.2-2.2 0-1.2-1-2.1-2.2-2.1-1.2 0-2.2.9-2.2 2.1M381 49h.6v-3.6h1.1v-.5h-1.1v-.2c0-.9.6-1 .9-1h.2v-.5h-.3c-.5 0-1.4.2-1.4 1.5v.2h-.5v.5h.5V49zm-5.2 0h.6v-2c0-.2 0-.4.1-.6.2-.7.8-1.2 1.5-1.2.8 0 .9.6.9 1.2V49h.6v-2.6c0-1-.4-1.6-1.4-1.6-1 0-1.5.7-1.7 1V44.9h-.6V49zm-2 0h.6v-4.1h-.6V49zm0-5h.6v-.7h-.6v.7zM458.5 38c-1.1 0-1.4-1.1-1.4-2.5s.3-2.5 1.4-2.5c1.1 0 1.4 1.1 1.4 2.5s-.3 2.5-1.4 2.5m0 .5c1.5 0 2-1.3 2-3s-.5-3-2-3-2 1.3-2 3 .5 3 2 3m-5.3-.5c-1.1 0-1.4-1.1-1.4-2.5s.3-2.5 1.4-2.5c1.1 0 1.4 1.1 1.4 2.5s-.3 2.5-1.4 2.5m0 .5c1.5 0 2-1.3 2-3s-.5-3-2-3-2 1.3-2 3 .5 3 2 3m-7.6-.5c-1.1 0-1.4-1.1-1.4-2.5s.3-2.5 1.4-2.5c1.1 0 1.4 1.1 1.4 2.5s-.3 2.5-1.4 2.5m0 .5c1.5 0 2-1.3 2-3s-.5-3-2-3-2 1.3-2 3 .5 3 2 3m-5-.5c-.9 0-1.5-1-1.5-1.8 0-.5.6-1 1.4-1 .8 0 1.3.5 1.3 1.4.1.8-.4 1.4-1.2 1.4m.1.5c1 0 1.8-.7 1.8-1.9 0-1.1-.7-1.9-1.8-1.9-.6 0-1.2.3-1.5.7.1-1.1.7-2.3 1.9-2.3.5 0 .8.2.8.2l.2-.5s-.4-.2-1.1-.2c-1.8 0-2.5 1.8-2.5 3.3.1 1.5.9 2.6 2.2 2.6m-9.2-.1h3.6v-.5h-3c0-1.5 2.9-1.8 2.9-3.8 0-.9-.7-1.6-1.8-1.6-1.2 0-1.8 1-1.8 1l.4.3s.4-.8 1.3-.8c.7 0 1.2.5 1.2 1.1 0 1.6-3 1.8-3 3.9.1.2.1.3.2.4m-4.8 0h3.6v-.5h-3c0-1.5 2.9-1.8 2.9-3.8 0-.9-.7-1.6-1.8-1.6-1.2 0-1.8 1-1.8 1l.4.3s.4-.8 1.3-.8c.7 0 1.2.5 1.2 1.1 0 1.6-3 1.8-3 3.9.2.2.2.3.2.4m-4.8 0h3.6v-.5h-3c0-1.5 2.9-1.8 2.9-3.8 0-.9-.7-1.6-1.8-1.6-1.2 0-1.8 1-1.8 1l.4.3s.4-.8 1.3-.8c.7 0 1.2.5 1.2 1.1 0 1.6-3 1.8-3 3.9.2.2.2.3.2.4m-7.2-.7s.7.8 1.8.8 1.9-.8 1.9-1.8c0-1.3-1.1-1.7-1.8-1.7l1.7-2v-.4H415v.5h2.7l-.3.3-1.4 1.7.1.3h.4c.8 0 1.5.4 1.5 1.2 0 .7-.6 1.3-1.3 1.3-.9 0-1.5-.7-1.5-.7l-.5.5zm-4.4-1.4l1.9-2.5c.2-.2.3-.4.3-.4v2.9h-2.2zm-.7.5h2.9v1.6h.6v-1.6h.8v-.5h-.9v-3.7h-.6l-2.8 3.8v.4zm-3 1.2c-1.1 0-1.4-1.1-1.4-2.5s.3-2.5 1.4-2.5c1.1 0 1.4 1.1 1.4 2.5s-.3 2.5-1.4 2.5m0 .5c1.5 0 2-1.3 2-3s-.5-3-2-3-2 1.3-2 3 .5 3 2 3m-9.2-.1h.6v-2c0-.2 0-.4.1-.6.2-.7.8-1.2 1.5-1.2.8 0 .9.6.9 1.2v2.5h.6v-2.6c0-1-.4-1.6-1.4-1.6-1 0-1.5.7-1.7 1V34.2h-.6v4.2zm-5-2c0-.9.7-1.6 1.6-1.6.9 0 1.6.7 1.6 1.6 0 1-.7 1.7-1.6 1.7-.8-.1-1.6-.8-1.6-1.7m-.5 0c0 1.3 1 2.2 2.2 2.2 1.2 0 2.2-.9 2.2-2.2 0-1.2-1-2.1-2.2-2.1-1.3-.1-2.2.8-2.2 2.1m-2.3 2h.6v-3.6h1.1v-.5h-1.1v-.2c0-.9.6-1 .9-1h.2v-.5h-.3c-.5 0-1.4.2-1.4 1.5v.2h-.5v.5h.5v3.6zm-4.5-2.5c.1-.8.7-1.3 1.4-1.3.6 0 1.1.4 1.2 1.3h-2.6zm-.6.5c0 1.3.9 2.2 2.2 2.2.9 0 1.5-.6 1.5-.6l-.3-.4s-.5.5-1.3.5c-.9 0-1.6-.6-1.6-1.6h3.2v-.3c0-1-.6-1.9-1.7-1.9-1.1-.1-2 .7-2 2.1m-1.9 1.1c0 .9.6 1 1 1h.2V38h-.1c-.2 0-.5-.1-.5-.6v-4.7h-.6v4.8zm-4.3-1.6c.1-.8.7-1.3 1.4-1.3.6 0 1.1.4 1.2 1.3h-2.6zm-.6.5c0 1.3.9 2.2 2.2 2.2.9 0 1.5-.6 1.5-.6l-.3-.4s-.5.5-1.3.5c-.9 0-1.6-.6-1.6-1.6h3.2v-.3c0-1-.6-1.9-1.7-1.9-1.1-.1-2 .7-2 2.1m-2.4 2h.6v-5.3h2.1v-.5h-4.7v.5h2.1v5.3zM480.1 22.3h.6v-2c0-.2 0-.4.1-.6.2-.7.8-1.2 1.5-1.2.8 0 .9.6.9 1.2v2.5h.6v-2.6c0-1-.4-1.6-1.4-1.6-.9 0-1.5.6-1.6 1v-2.5h-.6v5.8zm-4.9-2.1c0 1.3.9 2.2 2.2 2.2 1.1 0 1.6-.6 1.6-.6l-.3-.4s-.5.6-1.3.6c-.9 0-1.6-.7-1.6-1.7s.7-1.7 1.6-1.7c.7 0 1.2.5 1.2.5l.3-.4s-.5-.6-1.5-.6c-1.2-.1-2.2.8-2.2 2.1m-1.7 2.1h.6v-4.1h-.6v4.1zm0-5.1h.6v-.7h-.6v.7zm-3.1 5.1h.6v-1.7c0-.3 0-.5.1-.8.2-.6.6-1.1 1.2-1.1h.2v-.6h-.2c-.7 0-1.1.5-1.3 1.1v-1h-.6v4.1zm-4.1-5.1h.5v-.7h-.5v.7zm1.3 0h.5v-.7h-.5v.7zm-2.2 3.6c0 1.1.4 1.6 1.4 1.6.9 0 1.5-.6 1.6-1V22.3h.5v-4.1h-.6v2c0 .9-.6 1.7-1.5 1.7-.8 0-.9-.6-.9-1.2v-2.5h-.6v2.6zm-5.2 1.5h4.1v-.5h-3.4s.2-.2.4-.5l3-4.3v-.4h-3.9v.4H463.6s-.2.2-.4.5l-3 4.3v.5zm-6.4-4.4c0-.5.4-.9 1.2-.9.7 0 1.2.4 1.2 1 0 .7-.5 1.2-.6 1.3-.9-.4-1.8-.7-1.8-1.4m2.4 2.8c0 .7-.7 1.2-1.3 1.2-.7 0-1.4-.5-1.4-1.3 0-.7.7-1.2.8-1.3.9.4 1.9.7 1.9 1.4m-3.2-.1c0 1.1.9 1.8 2 1.8s1.9-.8 1.9-1.7c0-.6-.4-1-.8-1.2.1-.1.7-.7.7-1.6 0-.9-.7-1.5-1.8-1.5-1.2 0-1.7.7-1.7 1.5 0 .6.3.9.7 1.2-.2 0-1 .6-1 1.5m-3.3 1.3c-1.1 0-1.4-1.1-1.4-2.5s.3-2.5 1.4-2.5c1.1 0 1.4 1.1 1.4 2.5s-.3 2.5-1.4 2.5m0 .5c1.5 0 2-1.3 2-3s-.5-3-2-3-2 1.3-2 3 .5 3 2 3m-5.2-.5c-1.1 0-1.4-1.1-1.4-2.5s.3-2.5 1.4-2.5c1.1 0 1.4 1.1 1.4 2.5s-.3 2.5-1.4 2.5m0 .5c1.5 0 2-1.3 2-3s-.5-3-2-3-2 1.3-2 3 .5 3 2 3m-6.3-4.5c0-.5.4-.9 1.2-.9.7 0 1.2.4 1.2 1 0 .7-.5 1.2-.6 1.3-.9-.4-1.8-.7-1.8-1.4m2.5 2.8c0 .7-.7 1.2-1.3 1.2-.7 0-1.4-.5-1.4-1.3 0-.7.7-1.2.8-1.3.8.4 1.9.7 1.9 1.4m-3.3-.1c0 1.1.9 1.8 2 1.8s1.9-.8 1.9-1.7c0-.6-.4-1-.8-1.2.1-.1.7-.7.7-1.6 0-.9-.7-1.5-1.8-1.5-1.2 0-1.7.7-1.7 1.5 0 .6.3.9.7 1.2-.2 0-1 .6-1 1.5m-4.7 2.5h.5l.6-1.5h-.6l-.5 1.5zm-3.8-.8h3.1v-.5h-1.3v-5.3h-.5l-1.3 1.3.4.4.6-.6.3-.3v4.5h-1.3v.5zm-4.8-.7s.7.8 1.8.8 1.9-.8 1.9-1.8c0-1.3-1.1-1.7-1.8-1.7l1.7-2v-.4h-3.4v.5h2.7l-.3.3-1.4 1.7.1.3h.4c.8 0 1.5.4 1.5 1.2 0 .7-.6 1.3-1.3 1.3-.9 0-1.5-.7-1.5-.7l-.4.5zm-6.4-1.8c.1-.8.7-1.3 1.4-1.3.6 0 1.1.4 1.2 1.3h-2.6zm-.6.4c0 1.3.9 2.2 2.2 2.2.9 0 1.5-.6 1.5-.6l-.3-.4s-.5.5-1.3.5c-.9 0-1.6-.6-1.6-1.6h3.2V20c0-1-.6-1.9-1.7-1.9-1.1-.1-2 .8-2 2.1m-3.8 1.6s.5.6 1.5.6c.8 0 1.4-.5 1.4-1.2 0-1.4-2.2-1.1-2.2-2 0-.5.4-.6.8-.6.7 0 1 .4 1 .4l.3-.4s-.4-.5-1.3-.5c-.8 0-1.4.4-1.4 1.1 0 1.4 2.2 1.1 2.2 2 0 .4-.4.7-.8.7-.8 0-1.2-.5-1.2-.5l-.3.4zm-3.8 0s.5.6 1.5.6c.8 0 1.4-.5 1.4-1.2 0-1.4-2.2-1.1-2.2-2 0-.5.4-.6.8-.6.7 0 1 .4 1 .4l.3-.4s-.4-.5-1.3-.5c-.8 0-1.4.4-1.4 1.1 0 1.4 2.2 1.1 2.2 2 0 .4-.4.7-.8.7-.8 0-1.2-.5-1.2-.5l-.3.4zm-3.8-.7c0-.9 1.3-.9 2-.9h.2v.2c0 .7-.5 1.5-1.3 1.5-.6 0-.9-.4-.9-.8m-.6.1c0 .8.7 1.2 1.4 1.2 1 0 1.4-.9 1.4-.9v.8h.5v-2.6c0-1-.6-1.6-1.5-1.6s-1.5.5-1.5.5l.3.4s.5-.4 1.2-.4c.6 0 1 .3 1 1.1v.1h-.2c-.8-.1-2.6 0-2.6 1.4m-2.7 1.1h.6v-1.7c0-.3 0-.5.1-.8.2-.6.6-1.1 1.2-1.1h.2v-.6h-.2c-.7 0-1.1.5-1.3 1.1v-1h-.6v4.1zm-2.7-1.5c0 1.4 1 1.5 1.4 1.5h.2v-.5h-.2c-.3 0-.9-.1-.9-1.1v-2.1h1v-.5h-1V17h-.6v1.2h-.6v.5h.5v2.1zm-4.3 1s.5.6 1.5.6c.8 0 1.4-.5 1.4-1.2 0-1.4-2.2-1.1-2.2-2 0-.5.4-.6.8-.6.7 0 1 .4 1 .4l.3-.4s-.4-.5-1.3-.5c-.7 0-1.4.4-1.4 1.1 0 1.4 2.2 1.1 2.2 2 0 .4-.4.7-.8.7-.8 0-1.2-.5-1.2-.5l-.3.4zm-4.3.5h3.5v-.5H391.9s.2-.2.3-.4l2.3-2.9v-.4h-3.3v.5h2.5s-.2.2-.3.4l-2.3 2.9v.4zm-4.6-1.5c0 1.1.4 1.6 1.4 1.6.9 0 1.5-.6 1.6-1V22.3h.5v-4.1h-.6v2c0 .9-.6 1.7-1.5 1.7-.8 0-.9-.6-.9-1.2v-2.5h-.6v2.6zm-4.3-1c.1-.8.7-1.3 1.4-1.3.6 0 1.1.4 1.2 1.3h-2.6zm-.6.4c0 1.3.9 2.2 2.2 2.2.9 0 1.5-.6 1.5-.6l-.3-.4s-.5.5-1.3.5c-.9 0-1.6-.6-1.6-1.6h3.2V20c0-1-.6-1.9-1.7-1.9-1.1-.1-2 .8-2 2.1m-2.7 2.1h.6v-1.7c0-.3 0-.5.1-.8.2-.6.6-1.1 1.2-1.1h.2v-.6h-.2c-.7 0-1.1.5-1.3 1.1v-1h-.6v4.1zm-4.9 0h.6v-2.8h1l1.7 2.8h.7l-1.8-3 1.7-2.7h-.7l-1.6 2.5h-1v-2.5h-.6v5.7zM481.6 10.6c-.7 0-1.1-.6-1.1-1.3 0-.7.4-1.2 1-1.2s1 .3 1 1.2c.1 1-.4 1.3-.9 1.3m-1.4 1.5l-.3.8c.4.2 1 .4 1.5.4 1.1 0 2.2-.5 2.2-2v-4h-1v.4s-.3-.5-1.2-.5c-1.2 0-1.9.9-1.9 2.1 0 1.2.7 2.1 1.9 2.1.6 0 .9-.2 1.2-.6v.5c0 .8-.5 1-1.2 1-.7.1-1.2-.2-1.2-.2m-5.6-.6h1V9.6c0-.2 0-.4.1-.6.2-.5.6-.9 1.1-.9.5 0 .7.4.7.9v2.5h1V8.8c0-1.1-.5-1.6-1.5-1.6-.8 0-1.3.5-1.5.9v-.8h-1v4.2zm-5.2-1.5c0 1.2.6 1.6 1.5 1.6.7 0 1.3-.4 1.5-.9v.8h1V7.3h-1v1.9c0 .8-.4 1.4-1.2 1.4-.5 0-.7-.4-.7-.9V7.3h-1V10zm-2.9 0c0 1.4 1.2 1.6 1.7 1.6h.3v-.9h-.2c-.3 0-.8-.1-.8-.8V8.2h1v-.8h-1V6.1h-1v1.2h-.6v.8h.5V10zm-2.9 1.5h1V8.2h.9v-.8h-.9v-.2c0-.6.5-.7.8-.7h.2v-.9h-.4c-.6 0-1.7.2-1.7 1.6v.2h-.5v.8h.5v3.3zm-2.6 0h1V7.3h-1v4.2zm0-4.9h1v-1h-1v1zm-3 3.4c0 1.4 1.2 1.6 1.7 1.6h.3v-.9h-.2c-.3 0-.8-.1-.8-.8V8.2h1v-.8h-1V6.1h-1v1.2h-.6v.8h.5V10zm-5.1.8s.7.8 2 .8c1.2 0 1.9-.8 1.9-1.7 0-1.9-2.8-1.6-2.8-2.7 0-.4.4-.7.9-.7.7 0 1.3.5 1.3.5l.5-.9s-.6-.6-1.7-.6-2 .7-2 1.7c0 1.8 2.8 1.6 2.8 2.7 0 .5-.4.7-.9.7-.8 0-1.5-.6-1.5-.6l-.5.8zm-3.3-1.2h2.5v-.9h-2.5v.9zm-3.8.7c0-.6.9-.7 1.4-.7h.2v.1c0 .5-.4 1.1-.9 1.1s-.7-.2-.7-.5m-1.1 0c0 .8.7 1.3 1.4 1.3 1 0 1.3-.7 1.3-.7v.6h1V8.9c0-1.1-.6-1.7-1.7-1.7-1 0-1.6.5-1.6.5l.4.8s.6-.4 1.2-.4c.5 0 .8.2.8.8V9h-.1c-.9-.1-2.7 0-2.7 1.3M442 10c0 1.4 1.2 1.6 1.7 1.6h.3v-.9h-.2c-.3 0-.8-.1-.8-.8V8.2h1v-.8h-1V6.1h-1v1.2h-.6v.8h.5V10zm-3.5 1.5h1V9.9c0-.3 0-.5.1-.7.2-.6.7-.9 1.1-.9h.2v-1h-.2c-.6 0-1.1.5-1.3 1.1V7.3h-1v4.2zM434 9.4c0-.8.6-1.3 1.3-1.3.7 0 1.2.5 1.2 1.3s-.6 1.3-1.2 1.3c-.7 0-1.3-.5-1.3-1.3m-1 0c0 1.3 1 2.2 2.3 2.2 1.3 0 2.3-.9 2.3-2.2 0-1.3-1-2.2-2.3-2.2-1.3 0-2.3.9-2.3 2.2m-3.7-.8v-2h1c.6 0 1 .4 1 1s-.4 1-1 1h-1zm-1 2.9h1.1v-2h1.2c1.1 0 1.9-.8 1.9-1.9 0-1.2-.8-1.9-1.9-1.9h-2.3v5.8zm-5.6-4.7h.9l-.6-1.2h-1.1l.8 1.2zm-.5 3.5c0-.6.9-.7 1.4-.7h.2v.1c0 .5-.4 1.1-.9 1.1s-.7-.2-.7-.5m-1 0c0 .8.7 1.3 1.4 1.3 1 0 1.3-.7 1.3-.7v.6h1V8.9c0-1.1-.6-1.7-1.7-1.7-1 0-1.6.5-1.6.5l.4.8s.6-.4 1.2-.4c.5 0 .8.2.8.8V9h-.1c-.9-.1-2.7 0-2.7 1.3m-6.9 1.2h1V9.6c0-.2 0-.4.1-.6.2-.5.6-.9 1.1-.9.5 0 .7.4.7.9v2.5h1V8.8c0-1.1-.5-1.6-1.5-1.6-.8 0-1.3.5-1.5.9v-.8h-1v4.2zm-3.8-1.2c0-.6.9-.7 1.4-.7h.2v.1c0 .5-.4 1.1-.9 1.1s-.7-.2-.7-.5m-1.1 0c0 .8.7 1.3 1.4 1.3 1 0 1.3-.7 1.3-.7v.6h1V8.9c0-1.1-.6-1.7-1.7-1.7-1 0-1.6.5-1.6.5l.4.8s.6-.4 1.2-.4c.5 0 .8.2.8.8V9h-.1c-.9-.1-2.7 0-2.7 1.3m-4.8 1.2h1V9.6c0-.2 0-.4.1-.6.2-.5.6-.9 1.1-.9.5 0 .7.4.7.9v2.5h1V8.8c0-1.1-.5-1.6-1.5-1.6-.7 0-1.2.4-1.5.8V5.6h-1v5.9zm-4.1-2.1c0-.9.5-1.3 1.1-1.3.6 0 1 .5 1 1.3s-.5 1.3-1.1 1.3c-.6.1-1-.6-1-1.3m-1 3.8h1v-1.8-.4s.4.6 1.2.6c1.1 0 1.9-.9 1.9-2.2 0-1.3-.7-2.2-1.9-2.2-1 0-1.4.7-1.4.7v-.6h-1v5.9zm-3.8-4.3c.1-.6.5-.9 1-.9s.8.3.8.9h-1.8zm-1.2.5c0 1.2.9 2.2 2.3 2.2 1 0 1.7-.6 1.7-.6l-.4-.8s-.5.5-1.2.5c-.6 0-1.2-.4-1.3-1.1h2.9v-.4c0-1.1-.7-2-1.9-2s-2.1.9-2.1 2.2m-2.7.6c0 1.4 1.2 1.6 1.7 1.6h.3v-.9h-.2c-.3 0-.8-.1-.8-.8V8.2h1v-.8h-1V6.1h-1v1.2h-.6v.8h.5V10zm-5.1.8s.7.8 2 .8c1.2 0 1.9-.8 1.9-1.7 0-1.9-2.8-1.6-2.8-2.7 0-.4.4-.7.9-.7.7 0 1.3.5 1.3.5l.5-.9s-.6-.6-1.7-.6-2 .7-2 1.7c0 1.8 2.8 1.6 2.8 2.7 0 .5-.4.7-.8.7-.8 0-1.5-.6-1.5-.6l-.6.8zm-3.8.7h1v-1.1h-1v1.1zm-3 0h1V9.9c0-.3 0-.5.1-.7.2-.6.7-.9 1.1-.9h.2v-1h-.2c-.6 0-1.1.5-1.3 1.1V7.3h-1v4.2zm-5-.9v-4h.9c1.2 0 1.9.7 1.9 2s-.8 2-1.9 2h-.9zm-1 .9h2c1.8 0 3-1.1 3-3s-1.2-2.9-3-2.9h-2v5.9z"/></g></svg>