<svg xmlns="http://www.w3.org/2000/svg" width="168mm" height="16mm" viewBox="0 0 476.1 45"><path fill="#000000" d="M334 14.1L339.5.5h-8.4l-5.5 13.6h8.4z"/><path fill="#000000" d="M325.6 14.1L320.1.5h-8.4l13.9 34.2 4.2-10.3-4.2-10.3zM352.7 23l5.5 13.6h-8.4L344.3 23h8.4z"/><path fill="#000000" d="M344.3 2.4l4.2 10.3-4.2 10.3-5.5 13.6h-8.4l13.9-34.2zM356.7 9.3L353.4.4h2.6l2 6.2 1.9-6.2h2.5l-3.2 8.9h-2.5zM363.8 9.3V.4h2.3v8.9h-2.3zM367.6 8.2l1.4-1.7c.2.2.6.5 1 .7.4.2.8.3 1.3.3.2 0 .5 0 .7-.1.2-.1.3-.3.3-.6 0-.2-.1-.4-.4-.6-.2-.2-.6-.3-1-.4l-.5-.2c-.4-.1-.7-.3-1.1-.5-.4-.2-.7-.5-.9-.8-.2-.3-.4-.7-.4-1.2 0-.6.1-1 .4-1.5.3-.4.7-.8 1.2-1 .5-.3 1.1-.4 1.9-.4.6 0 1.1.1 1.5.2.4.1.8.3 1.1.5.3.2.5.3.6.5l-1.2 1.5c-.3-.2-.6-.4-1-.6-.3-.1-.7-.2-1-.2-.2 0-.5.1-.7.2-.2.1-.3.3-.3.5 0 .3.1.5.4.6.2.1.6.2.9.4l.4.1.9.3c.3.1.6.3.8.5.3.2.5.5.6.8.2.3.2.7.2 1.2s-.2 1-.5 1.5c-.3.4-.8.8-1.3 1-.5.2-1.2.4-1.8.4-.9 0-1.6-.1-2.2-.4-.4-.2-.9-.6-1.3-1zM376.6 5.9V.4h2.4v5.2c0 .5.1.9.3 1.2.2.3.6.5 1.1.5.5 0 .9-.2 1.1-.5.2-.3.3-.7.3-1.2V.4h2.4v5.4c0 .8-.2 1.4-.5 2-.3.6-.8 1-1.4 1.3-.6.3-1.2.4-2 .4s-1.4-.1-2-.4c-.6-.3-1-.7-1.4-1.3-.1-.5-.3-1.2-.3-1.9zM385.2 9.3l3.3-8.9h2.7l3.2 8.9h-2.6l-.6-1.8h-3l-.6 1.8h-2.4zm3.5-3.5h2l-1-3.3-1 3.3zM395.7 9.3V.4h2.3v6.9h4.2v2h-6.5zM403.6 9.3V.4h2.3v8.9h-2.3zM407.5 8.2l1.4-1.7c.2.2.6.5 1 .7.4.2.8.3 1.3.3.2 0 .5 0 .7-.1.2-.1.3-.3.3-.6 0-.2-.1-.4-.4-.6-.2-.2-.6-.3-1-.4l-.5-.2c-.4-.1-.7-.3-1.1-.5s-.7-.5-.9-.8c-.2-.3-.4-.7-.4-1.2 0-.6.1-1 .4-1.5.3-.4.7-.8 1.2-1 .5-.3 1.1-.4 1.9-.4.6 0 1.1.1 1.5.2.4.1.8.3 1.1.5.3.2.5.3.6.5l-1.2 1.5c-.3-.2-.6-.4-1-.6-.3-.1-.7-.2-1-.2-.2 0-.5.1-.7.2-.2.1-.3.3-.3.5 0 .3.1.5.4.6.2.1.6.2 1 .4l.4.1.9.3c.3.1.6.3.8.5.3.2.5.5.6.8.2.3.2.7.2 1.2s-.2 1-.5 1.5c-.3.4-.8.8-1.3 1-.5.2-1.2.4-1.8.4-.9 0-1.6-.1-2.2-.4-.4-.2-.9-.6-1.4-1zM416.8 9.3V.4h2.3v8.9h-2.3zM421.8 9.3V.4h6.4v2.1h-4.1v1.3h3.4v2h-3.4v1.5h4.4v2h-6.7zM430.4 9.3V.4h3.7c1 0 1.7.2 2.3.7s.9 1.2.9 2.2c0 .6-.1 1.1-.4 1.5-.3.4-.6.8-1 1l1.9 3.4h-2.5l-1.5-3h-1v3h-2.4v.1zm2.3-4.9h1.1c.3 0 .6-.1.8-.3.2-.2.3-.4.3-.8 0-.3-.1-.6-.3-.8-.2-.2-.5-.3-.8-.3h-1.1v2.2zM439.2 5.9V.4h2.4v5.2c0 .5.1.9.3 1.2.2.3.6.5 1.1.5.5 0 .9-.2 1.1-.5.2-.3.3-.7.3-1.2V.4h2.4v5.4c0 .8-.2 1.4-.5 2-.3.6-.8 1-1.4 1.3-.6.3-1.2.4-2 .4-.7 0-1.4-.1-2-.4-.6-.3-1-.7-1.4-1.3-.1-.5-.3-1.2-.3-1.9zM449.2 9.3V.4h2.2l3.4 5v-5h2.3v8.9h-2l-3.5-5.1v5.1h-2.4zM463.8 6.1V4.2h3.7v4c-.5.5-1.2.8-1.8 1-.7.2-1.4.3-2.1.3-1 0-1.8-.2-2.5-.6-.7-.4-1.2-.9-1.6-1.6-.4-.7-.6-1.5-.6-2.5 0-.9.2-1.7.6-2.4.4-.7.9-1.3 1.6-1.7s1.5-.6 2.4-.6c.7 0 1.4.1 2.1.4.6.2 1.2.7 1.6 1.2l-1.5 1.6c-.3-.3-.6-.5-.9-.7-.3-.2-.7-.3-1.1-.3-.5 0-.9.1-1.3.3-.4.2-.6.5-.8.9-.2.4-.3.8-.3 1.3 0 .8.2 1.4.7 1.8.4.5 1 .7 1.7.7.3 0 .6 0 .8-.1.3-.1.5-.2.8-.4v-.7h-1.5zM468.8 8.2l1.4-1.7c.2.2.6.5 1 .7.4.2.8.3 1.3.3.2 0 .5 0 .7-.1.2-.1.3-.3.3-.6 0-.2-.1-.4-.4-.6-.2-.2-.6-.3-1-.4l-.5-.2c-.4-.1-.7-.3-1.1-.5-.4-.2-.7-.5-.9-.8-.2-.3-.4-.7-.4-1.2 0-.6.1-1 .4-1.5.3-.4.7-.8 1.2-1 .5-.3 1.1-.4 1.9-.4.6 0 1.1.1 1.5.2.4.1.8.3 1.1.5.3.2.5.3.6.5l-1.2 1.5c-.3-.2-.6-.4-1-.6-.3-.1-.7-.2-1-.2-.2 0-.5.1-.7.2-.2.1-.3.3-.3.5 0 .3.1.5.4.6.2.1.6.2.9.4l.4.1.9.3c.3.1.6.3.8.5.3.2.5.5.6.8.2.3.2.7.2 1.2s-.2 1-.5 1.5c-.3.4-.8.8-1.3 1-.5.2-1.2.4-1.8.4-.9 0-1.6-.1-2.2-.4-.4-.2-.9-.6-1.3-1zM360.4 23l3.3-8.9h2.7l3.2 8.9H367l-.6-1.8h-3l-.6 1.8h-2.4zm3.5-3.6h2l-1-3.3-1 3.3zM371 23v-8.9h2.4v3.3l2.7-3.3h2.7l-2.9 3.4 3.4 5.5h-2.9l-2.2-3.6-.8 1V23H371zM379.8 23l3.3-8.9h2.7L389 23h-2.6l-.6-1.8h-3l-.6 1.8h-2.4zm3.5-3.6h2l-1-3.3-1 3.3zM390.3 23v-8.9h3.4c.9 0 1.7.2 2.5.5.7.3 1.3.8 1.7 1.5.4.7.6 1.5.6 2.6 0 1-.2 1.8-.6 2.5-.4.7-1 1.1-1.7 1.5-.7.3-1.5.5-2.5.5h-3.4V23zm2.4-2.1h1c.8 0 1.4-.2 1.8-.7.4-.4.6-1 .6-1.7s-.2-1.3-.6-1.7c-.4-.4-1-.7-1.8-.7h-1v4.8zM400.1 23v-8.9h6.4v2h-4v1.4h3.3v1.9h-3.3V21h4.3v2h-6.7zM408.6 23l.4-8.9h2.3l2.1 3.9 2.1-3.9h2.3l.4 8.9h-2.4l-.2-5.2-1.5 3h-1.3l-1.8-3-.1 5.2h-2.3zM420.3 23v-8.9h2.3V23h-2.3zM425.1 23v-8.9h6.4v2h-4v1.4h3.3v1.9h-3.3V21h4.3v2h-6.7zM.5 42.9h1.4v-2.5c0-.1 0-.3.1-.4 0-.1.1-.2.2-.3.1-.1.2-.2.3-.2.1-.1.3-.1.4-.1.2 0 .4.1.6.2.1.2.2.4.2.6v2.7h1.4V40c0-.6-.2-1.1-.5-1.4-.4-.4-.8-.6-1.3-.6-.3 0-.5 0-.8.1-.3.1-.5.2-.6.4v-2.4H.5v6.8zm8.6 0h1.4v-2.7c0-.6-.2-1.2-.5-1.5-.4-.5-1-.7-1.7-.7-.3 0-.5 0-.7.1-.2 0-.4.1-.6.1-.2.1-.3.1-.4.2-.1.1-.2.1-.3.2l.6.9c.1-.1.3-.2.5-.3.2-.1.5-.1.8-.1h.3c.1 0 .2.1.3.1l.2.2v.5h-.8c-.3 0-.6 0-.9.1-.3.1-.5.2-.7.3-.2.1-.3.3-.5.5 0 .2-.1.5-.1.7 0 .3.1.5.2.7.1.2.2.3.4.4.2.1.3.2.5.2.2.2.3.2.5.2.3 0 .6 0 .8-.1.2-.1.4-.2.6-.4l.1.4zM9 41.2c0 .1 0 .2-.1.3-.1.1-.1.2-.2.3-.1.1-.2.1-.3.2h-.3c-.5 0-.7-.2-.7-.6 0-.2.1-.4.2-.5.2-.1.4-.2.8-.2h.5v.5H9zm2.6 1.7H13v-6.7h-1.4v6.7zm2.7 0h1.4v-6.7h-1.4v6.7zm4.6-1.2c-.1-.1-.3-.2-.4-.3-.1-.1-.2-.3-.2-.4-.1-.1-.1-.3-.1-.5s0-.3.1-.5c0-.1.1-.3.2-.4.1-.1.2-.2.4-.3.1-.1.3-.1.5-.1s.3 0 .5.1c.1.1.3.2.4.3.1.1.2.3.2.4 0 .1.1.3.1.5s0 .3-.1.5c0 .1-.1.3-.2.4-.1.1-.2.2-.4.3-.1.1-.3.1-.5.1s-.4-.1-.5-.1zm-1.9-.2c.1.3.3.6.5.8.2.2.5.4.8.5.3.1.7.2 1 .2.4 0 .7-.1 1-.2.3-.1.6-.3.8-.5.2-.2.4-.5.5-.8.1-.3.2-.6.2-1 0-.3-.1-.7-.2-1-.1-.3-.3-.6-.5-.8-.2-.2-.5-.4-.8-.5-.3-.1-.6-.2-1-.2s-.7.1-1 .2c-.3.1-.6.3-.8.5-.2.2-.4.5-.5.8-.1.3-.2.6-.2 1 0 .3.1.7.2 1zm11-.3c0 .3-.1.5-.3.6-.2.1-.4.2-.6.2-.2 0-.4-.1-.5-.1-.1-.1-.2-.2-.2-.4s.1-.4.3-.5c.2-.1.4-.2.8-.2h.5v.4zm-3.3 1.2c-.1-.1-.1-.2-.2-.3-.1-.1-.2-.3-.3-.5-.1-.2-.2-.4-.2-.7-.1-.3-.1-.5-.1-.8 0-.6.1-1.1.3-1.5.2-.4.5-.7.8-1 .3-.2.7-.4 1.1-.5.4-.1.8-.2 1.2-.2.4 0 .9.1 1.2.2.4.1.7.3 1 .5.3.2.5.5.7.9.2.4.3.8.3 1.4 0 .3 0 .6-.1.9-.1.2-.1.5-.2.6-.1.2-.2.3-.3.4-.1.1-.2.1-.3.1-.2 0-.4-.2-.4-.5v-1.7c0-.6-.2-1-.5-1.3-.4-.3-.9-.5-1.5-.5-.3 0-.5 0-.8.1-.2 0-.4.1-.6.1-.2.1-.3.1-.5.2-.1.1-.2.1-.3.2l.6.9c.1-.1.3-.2.5-.3.2-.1.5-.1.8-.1.2 0 .4.1.6.1.2.1.3.3.3.5v.2H27c-.3 0-.6 0-.9.1-.3.1-.5.2-.7.3-.2.1-.3.3-.4.5.1.3 0 .6 0 .8 0 .3.1.5.2.7.1.2.2.3.4.5.2.1.3.2.5.2s.4.1.5.1c.4 0 .7 0 .9-.1.2-.1.5-.2.7-.4.1.2.3.4.5.4.2.1.4.1.7.1.2 0 .5-.1.7-.1.3-.1.5-.3.7-.5.2-.2.4-.5.5-.9.1-.4.2-.9.2-1.4 0-.6-.1-1.2-.3-1.7-.2-.5-.5-.9-.8-1.3-.4-.3-.8-.6-1.4-.8-.4-.2-1-.3-1.7-.3-.6 0-1.1.1-1.7.3-.5.2-1 .4-1.4.8-.4.3-.7.8-1 1.3-.2.5-.4 1.1-.4 1.8 0 .4 0 .7.1 1 .1.3.2.6.3.8.1.3.2.5.4.6.1.2.2.3.4.4l.7-.6zm9.5.5h1.4l2-4.7H36l-1 3-1.1-3.1h-1.6l1.9 4.8zm4.2-5.4h1.5v-1.3h-1.5v1.3zm0 5.4h1.4v-4.7h-1.4v4.7zm2.5-.6c.2.2.5.4.9.5.4.2.8.2 1.2.2.3 0 .5 0 .8-.1s.5-.2.7-.3c.2-.1.4-.3.5-.5.1-.2.2-.4.2-.7 0-.4-.1-.7-.3-.9-.2-.2-.6-.4-1-.5-.4-.1-.6-.2-.8-.2-.2-.1-.3-.2-.3-.3 0-.1 0-.2.1-.3.1-.1.3-.1.5-.1s.5 0 .7.1c.2.1.4.2.5.3l.6-1c-.3-.2-.5-.3-.8-.4-.3-.1-.6-.1-1-.1-.3 0-.5 0-.8.1-.2.1-.5.2-.6.3-.2.1-.3.3-.4.5-.1.2-.2.4-.2.6 0 .2 0 .4.1.6.1.2.2.3.3.4.1.1.3.2.5.3.2.1.4.1.5.2.2.1.4.1.5.2.1 0 .3.1.3.1.1 0 .1.1.2.1s0 .1 0 .2c0 .2-.1.3-.2.3-.1.1-.3.1-.5.1s-.5 0-.7-.1c-.3-.1-.5-.2-.6-.3l-.9.7zm5.3-1.2c0 .6.2 1.1.5 1.4.3.3.7.5 1.3.5.3 0 .5-.1.8-.2.2-.1.5-.3.6-.4v.5h1.4v-4.7h-1.4v2.5c0 .1 0 .3-.1.4 0 .1-.1.2-.2.3-.1.1-.2.2-.3.2-.1.1-.2.1-.4.1-.3 0-.4-.1-.6-.2-.1-.2-.2-.4-.2-.6v-2.7h-1.4v2.9zm8.5 1.8h1.4v-2.7c0-.6-.2-1.2-.5-1.5-.4-.5-.9-.7-1.6-.7-.3 0-.5 0-.7.1-.2 0-.4.1-.6.1-.2.1-.3.1-.4.2-.1.1-.2.1-.3.2l.6.9c.1-.1.3-.2.5-.3.2-.1.5-.1.8-.1h.3c.1 0 .2.1.3.1.1.1.2.1.2.2.1.1.1.2.1.3v.1H54c-.3 0-.6 0-.9.1-.3.1-.5.2-.7.3-.2.1-.3.3-.5.5-.1.2-.2.5-.2.7 0 .3.1.5.2.7.1.2.2.3.4.4.2.1.3.2.5.2s.4.1.5.1c.3 0 .6 0 .8-.1.2-.1.4-.2.6-.4v.6zm0-1.7c0 .1 0 .2-.1.3-.1.1-.1.2-.2.3-.1.1-.2.1-.3.2h-.3c-.5 0-.7-.2-.7-.6 0-.2.1-.4.2-.5.2-.1.4-.2.8-.2h.5v.5h.1zm2.6 1.7h1.4v-6.7h-1.4v6.7zm2.7-5.4h1.5v-1.3H60v1.3zm.1 5.4h1.4v-4.7h-1.4v4.7zm2.5-.6c.2.2.5.4.9.5.4.1.8.2 1.2.2.3 0 .5 0 .8-.1.2-.1.5-.2.7-.3.2-.1.4-.3.5-.5.1-.2.2-.4.2-.7 0-.4-.1-.7-.3-.9-.2-.2-.6-.4-1-.5-.4-.1-.6-.2-.8-.2-.2-.1-.3-.2-.3-.3 0-.1.1-.2.2-.3.1-.1.3-.1.5-.1s.5 0 .7.1c.2.1.4.2.5.3l.6-1c-.3-.2-.5-.3-.8-.4s-1-.1-1.4-.1c-.3 0-.5 0-.8.1-.2.1-.5.2-.6.3-.2.1-.3.3-.4.5-.1.2-.2.4-.2.6 0 .2 0 .4.1.6.1.2.2.3.3.4.1.1.3.2.5.3.2.1.4.1.5.2.2.1.4.1.5.2.1 0 .3.1.3.1.1 0 .1.1.2.1s0 .1 0 .2c0 .2-.1.3-.2.3-.1.1-.3.1-.5.1s-.5 0-.7-.1c-.2-.1-.5-.2-.6-.3l-.6.7zm5.2-4.8h1.5v-1.3h-1.5v1.3zm.1 5.4h1.4v-4.7h-1.4v4.7zm6.6-1.5c-.1.1-.3.2-.5.3-.2.1-.5.2-.9.2s-.7-.1-.9-.3c-.2-.2-.3-.4-.3-.7h3.3v-.2c0-.4-.1-.8-.1-1.1-.1-.3-.2-.6-.4-.8-.2-.2-.4-.4-.7-.6-.3-.1-.6-.2-1-.2s-.7.1-1 .2c-.3.1-.6.3-.8.5-.2.2-.4.5-.5.8-.1.3-.2.6-.2.9 0 .4.1.7.2 1 .1.3.3.6.5.8.2.2.5.4.8.5.3.1.7.2 1.1.2.3 0 .6 0 .8-.1.2-.1.4-.1.6-.2.2-.1.3-.1.4-.2.1-.1.2-.1.2-.2l-.6-.8zM71.8 40c0-.1 0-.2.1-.3 0-.1.1-.2.2-.3.1-.1.2-.2.3-.2.1-.1.3-.1.4-.1.2 0 .3 0 .4.1.1.1.2.1.3.2.1.1.1.2.2.3 0 .1.1.2.1.3h-2zm4.4 2.9h1.4v-2.3c0-.4.1-.7.3-.9.2-.2.5-.3.8-.3.2 0 .4 0 .5.1l.2-1.3c-.1 0-.2-.1-.3-.1h-.3c-.3 0-.6.1-.8.2-.2.1-.4.3-.5.5l-.1-.6H76v4.7h.2zm4.1-1.8c0 .6.2 1.1.5 1.4.3.3.7.5 1.3.5.3 0 .5-.1.8-.2.2-.1.5-.3.6-.4v.5h1.4v-4.7h-1.4v2.5c0 .1 0 .3-.1.4 0 .1-.1.2-.2.3-.1.1-.2.2-.3.2-.1.1-.2.1-.4.1-.3 0-.4-.1-.6-.2-.1-.2-.2-.4-.2-.6v-2.7h-1.4v2.9zm5.8 1.8h1.4v-2.5c0-.1 0-.3.1-.4 0-.1.1-.2.2-.3.1-.1.2-.2.3-.2.1-.1.3-.1.4-.1.2 0 .4.1.5.2.1.2.2.4.2.6v2.7h1.4V40c0-.6-.2-1.1-.5-1.4-.3-.3-.7-.5-1.3-.5-.3 0-.5.1-.8.2-.2.1-.5.3-.6.5v-.5H86v4.6h.1zm6 1.6c.3.2.5.3.9.4.3.1.7.1 1.1.1.7 0 1.3-.2 1.8-.6.4-.4.6-.9.6-1.7v-4.3c-.3-.1-.6-.2-.9-.2-.3-.1-.7-.1-1.1-.1-.4 0-.8.1-1.1.2-.3.1-.6.3-.9.5-.2.2-.4.5-.5.8-.1.3-.2.7-.2 1 0 .3 0 .6.1.9.1.3.2.5.4.7.2.2.4.4.7.5.3.1.6.2.9.2.5 0 .9-.1 1.2-.4v.3c0 .3-.1.6-.3.8-.2.2-.4.3-.8.3-.3 0-.5 0-.7-.1l-.6-.3-.6 1zm2.9-3.7c0 .3-.1.5-.2.7-.2.1-.4.2-.7.2-.3 0-.6-.1-.7-.3-.2-.2-.2-.5-.2-.8 0-.2 0-.3.1-.5s.1-.3.2-.4c.1-.1.2-.2.4-.3.2-.1.3-.1.5-.1h.4c.1 0 .2 0 .3.1v1.4H95zm2.5 1.5c.2.2.5.4.9.5.4.1.8.2 1.2.2.3 0 .5 0 .8-.1.3-.1.5-.2.7-.3.2-.1.4-.3.5-.5.1-.2.2-.4.2-.7 0-.4-.1-.7-.3-.9-.2-.2-.6-.4-1-.5-.4-.1-.6-.2-.8-.2-.2-.1-.3-.2-.3-.3 0-.1 0-.2.1-.3.1-.1.3-.1.5-.1s.5 0 .7.1c.2.1.4.2.5.3l.6-1c-.3-.2-.5-.3-.8-.4s-.6-.1-1.1-.1c-.3 0-.5 0-.8.1-.2.1-.5.2-.6.3-.2.1-.3.3-.4.5-.1.2-.1.4-.1.6 0 .2 0 .4.1.6.1.2.2.3.3.4.1.1.3.2.5.3.2.1.4.1.5.2.2.1.4.1.5.2.1 0 .3.1.3.1.1 0 .1.1.2.1s0 .1 0 .2c0 .2-.1.3-.2.3-.1.1-.3.1-.5.1s-.5 0-.7-.1c-.3-.1-.5-.2-.6-.3l-.9.7zm5.3-1.6h3.2v-1.4h-3.2v1.4zm7.3 2.2h1.3v-2.7c0-.6-.2-1.2-.5-1.5-.3-.4-.9-.6-1.6-.6-.3 0-.5 0-.7.1-.2 0-.4.1-.6.1s-.3.1-.4.2c-.1.1-.2.1-.3.2l.6.9c.1-.1.3-.2.5-.3.2-.1.5-.1.8-.1h.3c.1 0 .2.1.3.1l.2.2c0 .1.1.2.1.3v.1h-.8c-.3 0-.6 0-.9.1-.3.1-.5.2-.7.3-.2.1-.3.3-.5.5-.1.2-.2.5-.2.7 0 .3.1.5.2.7.1.2.2.3.4.4.2.1.3.2.5.2s.4.1.5.1c.3 0 .6 0 .8-.1s.4-.2.6-.4l.1.5zm-.1-1.7c0 .1 0 .2-.1.3-.1.1-.1.2-.2.3-.1.1-.2.1-.3.2-.1 0-.2.1-.3.1-.5 0-.7-.2-.7-.6 0-.2.1-.4.2-.5.2-.1.5-.2.8-.2h.5v.4h.1zm2.7 1.7h1.4v-1.6l.4-.4 1.2 2h1.7l-1.9-3 1.7-1.7h-1.6l-1.4 1.5v-3.5h-1.4v6.7h-.1zm8.1 0h1.4v-2.7c0-.6-.2-1.2-.5-1.5-.3-.4-.9-.6-1.6-.6-.3 0-.5 0-.7.1-.2 0-.4.1-.6.1-.2.1-.3.1-.4.2-.1.1-.2.1-.3.2l.6.9c.1-.1.3-.2.5-.3.2-.1.5-.1.8-.1h.3c.1 0 .2.1.3.1.1.1.2.1.2.2.1.1.1.2.1.3v.1h-.8c-.3 0-.6 0-.9.1-.3.1-.5.2-.7.3-.2.1-.3.3-.5.5-.1.2-.2.5-.2.7 0 .3.1.5.2.7.1.2.2.3.4.4s.3.2.5.2.4.1.5.1c.3 0 .6 0 .8-.1.2-.1.4-.2.6-.4v.5zm0-1.7c0 .1 0 .2-.1.3-.1.1-.1.2-.2.3-.1.1-.2.1-.3.2-.1 0-.2.1-.3.1-.5 0-.7-.2-.7-.6 0-.2.1-.4.2-.5.2-.1.5-.2.9-.2h.5v.4zm5.9 1.7h1.3v-6.7h-1.4v2c-.1 0-.3-.1-.4-.1h-.5c-.3 0-.6.1-.9.2-.3.1-.6.3-.8.5-.2.2-.4.5-.6.8-.2.3-.2.7-.2 1.1 0 .4.1.7.2 1 .1.3.3.5.4.8.2.2.4.4.6.5.3.1.5.2.8.2.3 0 .6-.1.8-.2.2-.1.4-.3.6-.4l.1.3zm-.1-2.2c0 .1 0 .3-.1.4 0 .1-.1.2-.2.3-.1.1-.2.2-.3.2-.1.1-.3.1-.4.1-.3 0-.6-.1-.8-.3-.2-.2-.2-.5-.2-.8 0-.4.1-.7.3-1 .2-.2.5-.4.9-.4h.4c.1 0 .2.1.3.1v1.4h.1zm6.5.7c-.1.1-.3.2-.5.3-.2.1-.5.2-.9.2s-.7-.1-.9-.3c-.2-.2-.3-.4-.3-.7h3.3v-.2c0-.4-.1-.8-.2-1.1-.1-.3-.2-.6-.4-.8-.2-.2-.4-.4-.7-.6-.3-.1-.6-.2-1-.2s-.7.1-1 .2c-.3.1-.6.3-.8.5-.2.2-.4.5-.5.8-.1.3-.2.6-.2.9 0 .4.1.7.2 1 .1.3.3.6.5.8.2.2.5.4.8.5.3.1.7.2 1.1.2.3 0 .6 0 .8-.1.2-.1.4-.1.6-.2.2-.1.3-.1.4-.2.1-.1.2-.1.2-.2l-.5-.8zm-2.6-1.4c0-.1 0-.2.1-.3 0-.1.1-.2.2-.3.1-.1.2-.2.3-.2.1-.1.3-.1.4-.1.2 0 .3 0 .4.1.1.1.2.1.3.2.1.1.1.2.2.3 0 .1.1.2.1.3h-2zm4.3 2.9h1.4v-2.5c0-.3.1-.5.3-.7.2-.2.4-.3.7-.3.2 0 .4.1.6.2.1.2.2.4.2.6v2.7h1.4v-2.5c0-.3.1-.5.3-.7.2-.2.4-.3.7-.3.2 0 .4.1.6.2.1.2.2.4.2.6v2.7h1.4V40c0-.6-.2-1-.5-1.4-.3-.3-.8-.5-1.4-.5-.3 0-.6.1-.9.2-.3.1-.5.3-.7.5l-.2-.2c-.1-.1-.2-.1-.3-.2-.1-.1-.2-.1-.4-.2-.1 0-.3-.1-.5-.1-.3 0-.6.1-.8.2-.2.1-.4.3-.6.5l-.1-.5h-1.4v4.6zm8.9-5.4h1.5v-1.3h-1.5v1.3zm0 5.4h1.4v-4.7h-1.4v4.7zm6.6-1.5c-.1.1-.3.2-.5.3-.2.1-.5.2-.9.2s-.7-.1-.9-.3c-.2-.2-.3-.4-.3-.7h3.3v-.2c0-.4 0-.8-.1-1.1-.1-.3-.2-.6-.4-.8-.2-.2-.4-.4-.7-.6-.3-.1-.6-.2-1-.2s-.7.1-1 .2c-.3.1-.6.3-.8.5-.2.2-.4.5-.5.8-.1.3-.2.6-.2.9 0 .4.1.7.2 1 .1.3.3.6.5.8.2.2.5.4.8.5.3.1.7.2 1.1.2.3 0 .6 0 .8-.1.2-.1.4-.1.6-.2.2-.1.3-.1.4-.2.1-.1.2-.1.2-.2l-.6-.8zm-2.7-1.4c0-.1 0-.2.1-.3 0-.1.1-.2.2-.3.1-.1.2-.2.3-.2.1-.1.3-.1.4-.1.2 0 .3 0 .4.1.1.1.2.1.3.2.1.1.1.2.2.3 0 .1.1.2.1.3h-2zm4.5 2.9h1.6v-1.6h-1.6v1.6zm6.3-1.6c-.1.1-.2.2-.4.3-.2.1-.4.1-.6.1-.2 0-.3 0-.5-.1-.1-.1-.3-.2-.4-.3-.1-.1-.2-.3-.2-.4-.1-.1-.1-.3-.1-.5s0-.3.1-.5.1-.3.2-.4c.1-.1.2-.2.4-.3.1-.1.3-.1.5-.1.3 0 .5 0 .6.1.2.1.3.2.4.3l.9-.9c-.2-.2-.5-.4-.8-.6-.3-.1-.7-.2-1.1-.2-.4 0-.7.1-1 .2-.3.1-.6.3-.8.5-.2.2-.4.5-.5.8-.1.3-.2.6-.2 1s.1.7.2 1c.1.3.3.6.5.8.2.2.5.4.8.5.3.1.7.2 1 .2.4 0 .8-.1 1.1-.2.3-.2.6-.3.8-.6l-.9-.7zm1.7 1.6h1.4v-2.5c0-.1 0-.3.1-.4 0-.1.1-.2.2-.3.1-.1.2-.2.3-.2.1-.1.3-.1.4-.1.2 0 .4.1.6.2.1.2.2.4.2.6v2.7h1.4V40c0-.6-.2-1.1-.5-1.4-.3-.3-.8-.5-1.3-.5-.3 0-.5 0-.8.1-.3.1-.5.2-.6.4v-2.4h-1.4v6.7zM.7 28.2h1.4v1.4h1.2v-1.4h1.4v-1.1H3.2v-1.4H2.1v1.4H.7v1.1zm5.2 1.5h2.8v1.1H10v-1.1h.6v-1.1H10v-4H8.6l-2.7 4v1.1zm1.3-1.1l1.5-2.3v2.3H7.2zm5.2 2.3h3.5v-1.2h-1v-5.1h-1.2l-1.9 1 .6 1.1 1-.6v3.5h-1.1v1.3h.1zm6.8-1.2H22v1.1h1.3v-1.1h.7v-1.1h-.6v-4H22l-2.7 4v1.1h-.1zm1.3-1.1l1.5-2.3v2.3h-1.5zm4.1 1.6c.3.2.6.4 1 .6.4.1.8.2 1.3.2.3 0 .6 0 .9-.1.3-.1.6-.2.8-.4.2-.2.4-.4.5-.7.1-.3.2-.6.2-.9 0-.5-.1-.9-.4-1.2-.3-.3-.6-.5-1.1-.6l1.3-1.5v-1h-4v1.2h2.3l-1.6 1.6.4.6c.1 0 .1-.1.3-.1h.4c.3 0 .6.1.7.3.2.2.2.4.2.6 0 .3-.1.5-.3.7-.2.2-.5.2-.8.2-.3 0-.5 0-.7-.1-.2-.1-.4-.2-.6-.4l-.8 1zm7.8 0c.3.2.5.4.9.6.3.1.8.2 1.2.2.4 0 .8-.1 1.1-.2.3-.1.6-.3.8-.5.2-.2.4-.4.4-.7.1-.3.1-.6.1-.9 0-.3-.1-.6-.2-.8-.1-.2-.3-.5-.4-.6-.2-.2-.4-.3-.7-.4-.3-.1-.5-.1-.8-.1h-.4c-.1 0-.2 0-.3.1l.2-1h2.4v-1.3h-3.4l-.5 3 .7.5c.1-.1.3-.1.4-.1.1 0 .3-.1.5-.1s.4 0 .5.1.3.1.3.2c.1.1.1.2.2.3 0 .1.1.2.1.3 0 .1 0 .2-.1.4s-.1.2-.2.3c-.1.1-.2.2-.3.2-.1.1-.3.1-.5.1-.3 0-.5-.1-.7-.1-.2-.1-.4-.2-.6-.4l-.7.9zm9.3.6c.3-.2.6-.4.8-.7.2-.3.4-.6.5-1.1.1-.4.1-.9.1-1.4 0-.5-.1-.9-.1-1.3-.1-.4-.3-.8-.5-1-.2-.3-.5-.5-.8-.7-.3-.2-.7-.2-1.1-.2-.4 0-.8.1-1.1.2-.3.2-.6.4-.8.7-.2.3-.4.6-.5 1-.1.4-.2.9-.2 1.3 0 .5.1.9.2 1.4.1.4.3.8.5 1.1.2.3.5.5.8.7.3.2.7.2 1.1.2.4 0 .8-.1 1.1-.2zm-1.6-1.3c-.1-.1-.2-.3-.3-.4-.1-.2-.1-.4-.2-.6 0-.2-.1-.5-.1-.8 0-.3 0-.5.1-.8 0-.2.1-.4.2-.6.1-.2.2-.3.3-.4.1-.1.3-.1.5-.1s.3 0 .5.1c.1.1.2.2.3.4.1.2.1.4.2.6s.1.5.1.8c0 .3 0 .6-.1.8 0 .2-.1.5-.2.6-.1.2-.2.3-.3.4-.1.1-.3.2-.5.2s-.4-.1-.5-.2zm4.5 1.4h3.5v-1.2h-1v-5.1h-1.2l-1.9 1 .6 1.1 1.1-.6v3.5h-1.1v1.3zm6.8-1.2h2.8v1.1h1.3v-1.1h.6v-1.1h-.6v-4h-1.4l-2.7 4v1.1zm1.3-1.1l1.5-2.3v2.3h-1.5zm7.9 2.2c.3-.2.6-.4.8-.7.2-.3.4-.6.5-1.1.1-.4.2-.9.2-1.4 0-.5-.1-.9-.2-1.3s-.3-.8-.5-1c-.2-.3-.5-.5-.8-.7-.3-.2-.7-.2-1.1-.2-.4 0-.8.1-1.1.2-.3.2-.6.4-.8.7-.2.3-.4.6-.5 1-.1.4-.2.9-.2 1.3 0 .5.1.9.2 1.4.1.4.3.8.5 1.1.2.3.5.5.8.7.3.2.7.2 1.1.2.5 0 .8-.1 1.1-.2zm-1.5-1.3c-.1-.1-.2-.3-.3-.4-.1-.2-.1-.4-.2-.6 0-.2-.1-.5-.1-.8 0-.3 0-.5.1-.8 0-.2.1-.4.2-.6.1-.2.2-.3.3-.4.1-.1.3-.1.5-.1s.3 0 .5.1c.1.1.2.2.3.4.1.2.1.4.2.6 0 .2.1.5.1.8 0 .3 0 .6-.1.8 0 .2-.1.5-.2.6-.1.2-.2.3-.3.4-.1.1-.3.2-.5.2s-.4-.1-.5-.2zm5.7.2h2.8v1.1h1.3v-1.1h.6v-1.1h-.6v-4h-1.4l-2.7 4v1.1zm1.2-1.1l1.5-2.3v2.3H66zm7.9 2.2c.3-.2.6-.4.8-.7.2-.3.4-.6.5-1.1.1-.4.2-.9.2-1.4 0-.5-.1-.9-.2-1.3s-.3-.8-.5-1c-.2-.3-.5-.5-.8-.7-.3-.2-.7-.2-1.1-.2-.4 0-.8.1-1.1.2-.3.2-.6.4-.8.7-.2.3-.4.6-.5 1-.1.4-.2.9-.2 1.3 0 .5.1.9.2 1.4.1.4.3.8.5 1.1.2.3.5.5.8.7.3.2.7.2 1.1.2.5 0 .8-.1 1.1-.2zm-1.5-1.3c-.1-.1-.2-.3-.3-.4-.1-.2-.1-.4-.2-.6 0-.2-.1-.5-.1-.8 0-.3 0-.5.1-.8 0-.2.1-.4.2-.6.1-.2.2-.3.3-.4.1-.1.3-.1.5-.1s.3 0 .5.1c.1.1.2.2.3.4.1.2.1.4.2.6 0 .2.1.5.1.8 0 .3 0 .6-.1.8 0 .2-.1.5-.2.6-.1.2-.2.3-.3.4-.1.1-.3.2-.5.2s-.4-.1-.5-.2z"/><g><path fill="#000000" d="M.6 18.9h4.7v-1.3H2.1v-5.3H.6v6.6zm5.6-5.4h1.5v-1.3H6.2v1.3zm.1 5.4h1.4v-4.7H6.3v4.7zm2.7 0h1.4v-2.5c0-.3.1-.5.3-.7.2-.2.4-.3.7-.3.2 0 .4.1.6.2.1.2.2.4.2.7V19h1.4v-2.5c0-.3.1-.5.2-.7.2-.2.4-.3.7-.3.2 0 .4.1.6.2.1.2.2.4.2.7v2.7h1.4v-2.9c0-.6-.2-1-.5-1.4-.3-.3-.8-.5-1.4-.5-.3 0-.6.1-.9.2-.3.1-.5.3-.7.5l-.2-.2c-.1-.1-.2-.1-.3-.2-.1-.1-.2-.1-.4-.2-.1 0-.3-.1-.5-.1-.3 0-.6.1-.8.2-.2.1-.4.3-.6.5l-.1-.5H9v4.4zm8.9 0h1.4v-2.5c0-.3.1-.5.3-.7.2-.2.4-.3.7-.3.2 0 .4.1.6.2.1.2.2.4.2.7V19h1.4v-2.5c0-.3.1-.5.3-.7.2-.2.4-.3.7-.3.2 0 .4.1.6.2.1.2.2.4.2.7v2.7h1.4v-2.9c0-.6-.2-1-.5-1.4-.3-.3-.8-.5-1.4-.5-.3 0-.6.1-.9.2-.3.1-.5.3-.7.5l-.2-.2c-.1-.1-.2-.1-.3-.2-.1-.1-.2-.1-.4-.2-.1 0-.3-.1-.5-.1-.3 0-.6.1-.8.2-.2.1-.4.3-.6.5v-.5H18v4.4h-.1zm11.5 0h1.4v-2.7c0-.6-.2-1.2-.5-1.5-.3-.4-.9-.6-1.6-.6-.3 0-.5 0-.7.1-.2 0-.4.1-.6.1-.2.1-.3.1-.5.2-.1.1-.2.1-.3.2l.6.9c.1-.1.3-.2.5-.3.2-.1.5-.1.8-.1h.3c.1 0 .2.1.3.1.1.1.2.1.2.2.1.1.1.2.1.3v.1h-.8c-.3 0-.6 0-.9.1-.3.1-.5.2-.7.3-.2.1-.3.3-.5.5-.1.2-.2.5-.2.7 0 .3.1.5.2.7.1.2.2.3.4.4.2.1.3.2.5.2s.4.1.5.1c.3 0 .6 0 .8-.1.2-.1.4-.2.6-.4l.1.5zm0-1.7c0 .1 0 .2-.1.3-.1.1-.1.2-.2.3-.1.1-.2.1-.3.2-.1 0-.2.1-.3.1-.5 0-.7-.2-.7-.6 0-.2.1-.4.2-.5.2-.1.4-.2.8-.2h.5v.4h.1zm3-.1c0 .3 0 .6.1.8l.3.6c.1.2.3.3.5.4.2.1.5.1.8.1.5 0 1-.2 1.5-.5l-.6-.9c-.1.1-.2.1-.3.2-.1 0-.2.1-.4.1s-.3-.1-.4-.2c-.1-.1-.1-.3-.1-.5v-1.9H35v-1.1h-1.2v-1.4h-1.4v1.4h-.7v1.1h.7v1.8zm3.8 1.2c.2.2.5.4.9.5.4.1.8.2 1.2.2.3 0 .5 0 .8-.1.3-.1.5-.2.7-.3.2-.1.4-.3.5-.5.1-.2.2-.4.2-.7 0-.4-.1-.7-.3-.9-.2-.2-.6-.4-1-.5-.4-.1-.6-.2-.8-.2-.2-.1-.3-.2-.3-.3 0-.1 0-.2.1-.3.1-.1.3-.1.5-.1s.5 0 .7.1c.2.1.4.2.5.3l.6-1c-.3-.2-.5-.3-.8-.4s-.6-.1-1-.1c-.3 0-.5 0-.8.1-.2.1-.5.2-.6.3-.2.1-.3.3-.4.5-.1.2-.1.4-.1.6 0 .2 0 .4.1.6.1.2.2.3.3.4.1.1.3.2.5.3.2.1.4.1.5.2.2.1.4.1.5.2.1 0 .3.1.3.1.1 0 .1.1.2.1s0 .1 0 .2c0 .2-.1.3-.2.3-.1.1-.3.1-.5.1s-.5 0-.7-.1c-.3-.1-.5-.2-.6-.3l-1 .7zm5.5-1.2c0 .3 0 .6.1.8l.3.6c.1.2.3.3.5.4.2.1.5.1.8.1.5 0 1-.2 1.5-.5l-.6-.9c-.1.1-.2.1-.3.2-.1 0-.2.1-.4.1s-.3-.1-.4-.2c-.1-.1-.1-.3-.1-.5v-1.9h1.2v-1.1h-1.2v-1.4h-1.4v1.4H41v1.1h.7v1.8zm4 1.8h1.4v-2.3c0-.4.1-.7.3-.9.2-.2.5-.3.8-.3.2 0 .4 0 .5.1l.2-1.3c-.1 0-.2-.1-.3-.1h-.3c-.3 0-.6.1-.8.2-.2.1-.4.3-.5.5l-.1-.6h-1.4v4.7h.2zm6.8 0h1.4v-2.7c0-.6-.2-1.2-.5-1.5-.4-.5-.9-.7-1.6-.7-.3 0-.5 0-.7.1-.2 0-.4.1-.6.1-.2.1-.3.1-.4.2-.1.1-.2.1-.3.2l.6.9c.1-.1.3-.2.5-.3.2-.1.5-.1.8-.1h.3c.1 0 .2.1.3.1.1.1.2.1.2.2s.1.2.1.3v.1h-.8c-.3 0-.6 0-.9.1-.3.1-.5.2-.7.3-.2.1-.3.3-.5.5-.1.2-.2.5-.2.7 0 .3.1.5.2.7.1.2.2.3.4.4.2.1.3.2.5.2s.4.1.5.1c.3 0 .6 0 .8-.1.2-.1.4-.2.6-.4v.6zm0-1.7c0 .1 0 .2-.1.3-.1.1-.1.2-.2.3-.1.1-.2.1-.3.2-.1 0-.2.1-.3.1-.5 0-.7-.2-.7-.6 0-.2.1-.4.2-.5.2-.1.4-.2.9-.2h.5v.4zm2.4 1.1c.2.2.5.4.9.5.4.2.7.2 1.2.2.3 0 .5 0 .8-.1.2-.1.5-.2.7-.3.2-.1.4-.3.5-.5v-.6c0-.4-.1-.7-.3-.9-.2-.2-.6-.4-1-.5-.4-.1-.6-.2-.8-.2-.2-.1-.3-.2-.3-.3 0-.1.1-.2.1-.3.1-.1.3-.1.5-.1s.5 0 .7.1c.2.1.4.2.5.3l.6-1c-.3-.2-.5-.3-.8-.4-.4-.2-.7-.2-1.1-.2-.3 0-.5 0-.8.1-.2.1-.5.2-.6.3-.2.1-.3.3-.4.5-.1.2-.1.4-.1.6 0 .2 0 .4.1.6.1.2.2.3.3.4.1.1.3.2.5.3.2.1.4.1.5.2.2.1.4.1.5.2.1 0 .3.1.3.1.1 0 .1.1.2.1s0 .1 0 .2c0 .2-.1.3-.2.3-.1.1-.3.1-.5.1s-.5 0-.7-.1c-.2-.1-.5-.2-.6-.3l-.7.7zm4.9 0c.2.2.5.4.9.5.4.1.8.2 1.2.2.3 0 .5 0 .8-.1.2-.1.5-.2.7-.3.2-.1.4-.3.5-.5.1-.1.1-.3.1-.6 0-.4-.1-.7-.3-.9-.2-.2-.6-.4-1-.5-.4-.1-.6-.2-.8-.2-.2-.1-.3-.2-.3-.3 0-.1.1-.2.1-.3.1-.1.3-.1.5-.1s.5 0 .7.1c.2.1.4.2.5.3l.6-1c-.3-.2-.5-.3-.8-.4-.4-.2-.8-.2-1.2-.2-.3 0-.5 0-.8.1-.2.1-.5.2-.6.3-.2.1-.3.3-.4.5-.1.2-.2.4-.2.6 0 .2 0 .4.1.6.1.2.2.3.3.4.1.1.3.2.5.3.2.1.4.1.5.2.2.1.4.1.5.2.1 0 .3.1.3.1.1 0 .1.1.2.1v.2c0 .2-.1.3-.2.3-.1.1-.3.1-.5.1s-.5 0-.7-.1c-.2-.1-.5-.2-.6-.3l-.6.7zm9.1-.9c-.1.1-.3.2-.5.3-.2.1-.5.2-.9.2s-.7-.1-.9-.3c-.2-.2-.3-.4-.3-.7h3.3v-.2c0-.4 0-.8-.1-1.1-.1-.3-.2-.6-.4-.8-.2-.2-.4-.4-.7-.6-.3-.1-.6-.2-1-.2s-.7.1-1 .2c-.3.1-.6.3-.8.5-.2.2-.4.5-.5.8-.1.3-.2.6-.2.9 0 .4.1.7.2 1 .1.3.3.6.5.8.2.2.5.4.8.5.3.1.7.2 1.1.2.3 0 .6 0 .8-.1.2-.1.4-.1.6-.2.2-.1.3-.1.4-.2.1-.1.2-.1.2-.2l-.6-.8zM66.3 16c0-.1 0-.2.1-.3 0-.1.1-.2.2-.3.1-.1.2-.2.3-.2.1-.1.3-.1.4-.1.2 0 .3 0 .4.1.1.1.2.1.3.2.1.1.1.2.2.3 0 .1.1.2.1.3h-2zm6.3 2.9h4.3v-1.3h-2.6c0-.2.1-.3.2-.4l.5-.5c.2-.2.4-.3.6-.5l.6-.6c.2-.2.4-.4.5-.7.1-.2.2-.5.2-.8 0-.2 0-.4-.1-.7-.1-.2-.2-.4-.4-.6-.2-.2-.4-.3-.7-.4-.3-.1-.6-.2-.9-.2-.3 0-.6 0-.8.1-.2.1-.5.2-.7.3-.2.1-.4.2-.5.4-.1.1-.2.3-.3.4l1.1.7c0-.1.1-.1.2-.2s.1-.2.2-.2c.1-.1.2-.1.3-.2.1 0 .2-.1.4-.1.3 0 .5.1.6.2.1.1.2.3.2.4 0 .2-.1.3-.2.5s-.3.3-.5.5-.4.3-.7.5c-.2.2-.5.4-.7.6-.2.2-.4.5-.5.7-.1.3-.2.6-.2.9v1.2h-.1zm5.7-.3c.2.1.4.2.7.3.3.1.6.1 1 .1.5 0 .9-.1 1.3-.3.4-.2.6-.4.9-.7.2-.3.4-.7.5-1.1.1-.4.2-.8.2-1.3 0-.6-.1-1.1-.2-1.5-.1-.4-.3-.8-.5-1-.2-.3-.5-.5-.8-.6-.3-.1-.6-.2-1-.2s-.7.1-1 .2c-.3.1-.5.3-.7.5-.2.2-.3.4-.4.7-.1.3-.1.6-.1.9 0 .3 0 .5.1.8s.2.5.4.7c.2.2.4.3.6.5.2.1.5.2.8.2.3 0 .5 0 .7-.1.2-.1.4-.2.5-.2 0 .4-.2.8-.4 1-.2.3-.5.4-1 .4h-.3c-.1 0-.2 0-.3-.1-.1 0-.2-.1-.3-.1-.1 0-.1-.1-.2-.1l-.5 1zm2.7-3.2c-.2.1-.4.1-.6.1-.3 0-.5-.1-.6-.3-.2-.2-.2-.4-.2-.6 0-.3.1-.5.2-.7.2-.2.4-.3.7-.3.1 0 .3 0 .4.1.1.1.2.1.3.3.1.1.2.3.2.5.1.2.1.4.1.7-.3.1-.4.2-.5.2zm3.5 3.5H88v-1.2h-1v-5.1h-1.2l-1.9 1 .6 1.1 1.1-.6v3.5h-1.1v1.3zm5.1 1.4h.9l.8-1.4v-1.6h-1.6v1.6h.6l-.7 1.4zm10.1-3.6l-.3.3c-.1.1-.2.2-.4.3-.1.1-.3.1-.5.2-.2 0-.4.1-.6.1-.3 0-.6-.1-.8-.2-.2-.1-.4-.3-.6-.4-.2-.2-.3-.4-.4-.7-.1-.3-.1-.5-.1-.8 0-.3 0-.6.1-.8.1-.3.2-.5.4-.7.2-.2.4-.3.6-.5.2-.1.5-.2.8-.2.4 0 .7.1 1 .3.3.2.5.4.7.7l1-1c-.3-.4-.7-.8-1.2-1-.5-.2-1-.3-1.6-.3-.5 0-1 .1-1.4.3-.4.2-.8.4-1.1.8-.3.3-.5.7-.7 1.1-.2.4-.3.9-.3 1.4 0 .5.1 1 .3 1.4.2.4.4.8.7 1.1.3.3.7.6 1.1.7.4.2.9.3 1.4.3.3 0 .6 0 .9-.1.3-.1.5-.2.8-.3.2-.1.5-.3.7-.4l.5-.5-1-1.1zm2.1 2.2h1.5v-2.7h2.9v2.7h1.5v-6.7h-1.5v2.6h-2.9v-2.6h-1.5v6.7zm7.4-2.2h3.2v-1.4h-3.2v1.4zm6.1-2.1c-.2-.2-.2-.3-.2-.5s.1-.4.2-.5c.2-.1.4-.2.6-.2.2 0 .4.1.6.2.2.1.2.3.2.5s-.1.4-.2.5c-.2.2-.3.3-.6.3-.2 0-.4-.1-.6-.3zm1 1.5c.1.1.2.1.3.2.1.1.2.2.2.3.1.1.1.2.1.4s0 .3-.1.4c-.1.1-.1.2-.2.3-.1.1-.2.1-.3.2h-.8c-.1 0-.2-.1-.3-.2-.1-.1-.2-.2-.2-.3-.1-.1-.1-.2-.1-.4 0-.1 0-.3.1-.4.1-.1.1-.2.2-.3.1-.1.2-.2.3-.2.1-.1.2-.1.4-.1.1 0 .2.1.4.1zm-2.6-.1c-.2.3-.3.6-.3 1 0 .2 0 .5.1.7.1.2.2.4.4.6.2.2.5.3.8.5.3.1.7.2 1.1.2.4 0 .8-.1 1.1-.2.3-.1.6-.3.8-.5.2-.2.3-.4.4-.6.1-.2.1-.5.1-.7 0-.4-.1-.8-.3-1-.2-.3-.5-.5-.8-.6.2-.1.4-.3.5-.5.2-.2.2-.5.2-.8 0-.2 0-.5-.1-.7-.1-.2-.2-.4-.4-.5-.2-.1-.4-.3-.7-.3-.3-.1-.6-.1-.9-.1-.3 0-.6 0-.9.1-.3.1-.5.2-.7.4-.2.1-.3.3-.4.5-.1.2-.2.4-.2.7 0 .3.1.6.2.8.2.2.3.4.5.5l-.5.5zm9 2.8c.3-.2.6-.4.8-.7.2-.3.4-.6.5-1.1.1-.4.1-.9.1-1.4 0-.5 0-.9-.1-1.3s-.3-.8-.5-1c-.2-.3-.5-.5-.8-.7-.3-.2-.7-.2-1.1-.2-.4 0-.8.1-1.1.2-.3.2-.6.4-.8.7-.2.3-.4.6-.5 1-.1.4-.2.9-.2 1.3 0 .5.1.9.2 1.4.1.4.3.8.5 1.1.2.3.5.5.8.7.3.2.7.2 1.1.2.4 0 .7-.1 1.1-.2zm-1.6-1.3c-.1-.1-.2-.3-.3-.4-.1-.2-.1-.4-.2-.6 0-.2-.1-.5-.1-.8 0-.3 0-.5.1-.8s.1-.4.2-.6c.1-.2.2-.3.3-.4.1-.1.3-.1.5-.1s.3 0 .5.1c.1.1.2.2.3.4.1.2.1.4.2.6s.1.5.1.8c0 .3 0 .6-.1.8 0 .2-.1.5-.2.6-.1.2-.2.3-.3.4-.1.1-.3.2-.5.2s-.4-.1-.5-.2zm7.2 1.3c.3-.2.6-.4.8-.7.2-.3.4-.6.5-1.1.1-.4.1-.9.1-1.4 0-.5 0-.9-.1-1.3s-.3-.8-.5-1c-.2-.3-.5-.5-.8-.7-.3-.2-.7-.2-1.1-.2-.4 0-.8.1-1.1.2-.3.2-.6.4-.8.7-.2.3-.4.6-.5 1-.1.4-.2.9-.2 1.3 0 .5.1.9.2 1.4.1.4.3.8.5 1.1.2.3.5.5.8.7.3.2.7.2 1.1.2.4 0 .8-.1 1.1-.2zm-1.6-1.3c-.1-.1-.2-.3-.3-.4-.1-.2-.1-.4-.2-.6 0-.2-.1-.5-.1-.8 0-.3 0-.5.1-.8s.1-.4.2-.6c.1-.2.2-.3.3-.4.1-.1.3-.1.5-.1s.3 0 .5.1c.1.1.2.2.3.4.1.2.1.4.2.6 0 .2.1.5.1.8 0 .3 0 .6-.1.8 0 .2-.1.5-.2.6-.1.2-.2.3-.3.4-.1.1-.3.2-.5.2s-.3-.1-.5-.2zm3.6.7c.3.2.5.4.9.6.3.1.8.2 1.2.2.4 0 .8-.1 1.1-.2.3-.1.6-.3.8-.5.2-.2.4-.4.4-.7.1-.3.1-.6.1-.9 0-.3-.1-.6-.2-.8-.1-.2-.2-.5-.4-.6-.2-.2-.4-.3-.7-.4-.3-.1-.5-.1-.9-.1h-.4c-.1 0-.2 0-.3.1l.2-1h2.4v-1.3h-3.4l-.6 3 .7.5c.1-.1.3-.1.4-.1.1 0 .3-.1.5-.1s.4 0 .5.1.3.1.3.2c.1.1.1.2.2.3 0 .1.1.2.1.3 0 .1 0 .2-.1.4s-.1.2-.2.3c-.1.1-.2.2-.3.2-.1.1-.3.1-.5.1-.3 0-.5-.1-.7-.1-.2-.1-.4-.2-.6-.4l-.5.9zm7.9.7h5.6v-1.3h-3.6l3.6-4.1v-1.2h-5.3v1.3h3.5l-3.7 4.1v1.2h-.1zm6.4-1.8c0 .6.2 1.1.5 1.4.3.3.7.5 1.3.5.3 0 .5-.1.8-.2.2-.1.5-.3.6-.4v.5h1.4v-4.7h-1.4v2.5c0 .1 0 .3-.1.4 0 .1-.1.2-.2.3-.1.1-.2.2-.3.2-.1.1-.2.1-.4.1-.3 0-.4-.1-.6-.2-.1-.2-.2-.4-.2-.6v-2.7h-1.4v2.9zm2.7-3.8h1.2v-1.1h-1.2v1.1zm-1.9 0h1.2v-1.1h-1.2v1.1zm5.1 5.6h1.4v-2.3c0-.4.1-.7.3-.9.2-.2.5-.3.8-.3.2 0 .4 0 .5.1l.2-1.3c-.1 0-.2-.1-.3-.1h-.3c-.3 0-.6.1-.8.2-.2.1-.4.3-.5.5l-.1-.6h-1.4v4.7h.2zm4.1-5.4h1.5v-1.3h-1.5v1.3zm0 5.4h1.4v-4.7h-1.4v4.7zm6.1-1.6c-.1.1-.2.2-.4.3-.2.1-.4.1-.6.1-.2 0-.3 0-.5-.1-.1-.1-.3-.2-.3-.3-.1-.1-.2-.3-.2-.4s-.1-.3-.1-.5 0-.3.1-.5.1-.3.2-.4l.3-.3c.1-.1.3-.1.5-.1.3 0 .5 0 .6.1.2.1.3.2.4.3l.9-.9c-.2-.2-.5-.4-.8-.6-.3-.1-.7-.2-1.1-.2-.4 0-.7.1-1 .2-.3.1-.6.3-.8.5-.2.2-.4.5-.5.8-.1.3-.2.6-.2 1s.1.7.2 1c.1.3.3.6.5.8.2.2.5.4.8.5.3.1.7.2 1 .2.4 0 .8-.1 1.1-.2.3-.2.6-.3.8-.6l-.9-.7zm1.7 1.6h1.4v-2.5c0-.1 0-.3.1-.4 0-.1.1-.2.2-.3.1-.1.2-.2.3-.2.1-.1.3-.1.4-.1.2 0 .4.1.6.2.1.2.2.4.2.6v2.7h1.4V16c0-.6-.2-1.1-.5-1.4-.3-.3-.8-.5-1.3-.5-.3 0-.5 0-.8.1-.3.1-.5.2-.6.4v-2.4h-1.4v6.7zM2.5 6.9H4L6.5.2H4.9L3.3 5.1 1.7.2H0l2.5 6.7zm4.8-5.4h1.5V.2H7.3v1.3zm0 5.4h1.4V2.2H7.3v4.7zm2.5-.6c.2.2.5.4.9.5.4.2.8.2 1.2.2.3 0 .5 0 .8-.1.2-.1.5-.2.7-.3.2-.1.4-.3.5-.5.1-.1.1-.3.1-.6 0-.4-.1-.7-.3-.9-.2-.2-.6-.4-1-.5-.4-.1-.6-.2-.8-.3-.2-.1-.3-.2-.3-.3 0-.1.1-.2.2-.3.1-.1.3-.1.5-.1s.5 0 .7.1c.2.1.4.2.5.3l.6-.9c-.3-.2-.5-.3-.8-.4-.5-.2-.8-.2-1.2-.2-.3 0-.5 0-.8.1-.2.1-.5.2-.6.3-.2.1-.3.3-.4.5-.1.2-.1.4-.1.6 0 .2 0 .4.1.6.1.2.2.3.3.4.1.1.3.2.5.3.2.1.4.1.5.2.2 0 .3 0 .5.1.1 0 .3.1.3.1.1 0 .1.1.2.1v.2c0 .2-.1.3-.2.3-.1.1-.3.1-.5.1s-.5 0-.7-.1c-.2-.1-.5-.2-.6-.4l-.8.9zm5.3-1.2c0 .6.2 1.1.5 1.4.3.3.7.5 1.2.5.3 0 .5-.1.8-.2s.5-.3.6-.4v.5h1.4V2.2h-1.4v2.5c0 .1 0 .3-.1.4 0 .1-.1.2-.2.3-.1.1-.2.2-.3.2-.1.1-.2.1-.4.1-.3 0-.4-.1-.6-.2-.1-.2-.2-.4-.2-.6V2.2H15v2.9h.1zm8.6 1.8H25V4.1c0-.6-.2-1.2-.5-1.5-.3-.4-.9-.6-1.6-.6-.3 0-.5 0-.7.1-.2 0-.4.1-.6.1-.2.1-.3.1-.4.2-.1.1-.2.1-.3.2l.6.9c.1-.1.3-.2.5-.3s.5-.1.8-.1h.3c.1 0 .2.1.3.1l.2.2c0 .1.1.2.1.3v.1h-.8c-.3 0-.6 0-.9.1-.3.1-.5.2-.7.3-.2.1-.3.3-.5.5-.1.2-.2.5-.2.7 0 .3.1.5.2.7.1.2.2.3.4.4.2.1.3.2.5.2.2.3.3.3.5.3.3 0 .6 0 .8-.1.2-.1.4-.2.6-.4l.1.4zm-.1-1.7c0 .1 0 .3-.1.4-.1.1-.1.2-.2.2-.1.1-.2.1-.3.2h-.3c-.4 0-.7-.2-.7-.6 0-.2.1-.4.2-.5.2-.1.4-.2.9-.2h.5v.5zm2.7 1.7h1.4V.2h-1.4v6.7zm2.6-5.4h1.5V.2h-1.5v1.3zm.1 5.4h1.4V2.2H29v4.7zm2.5-.6c.2.2.5.4.9.5.4.2.8.2 1.2.2.3 0 .5 0 .8-.1.2-.1.5-.2.7-.3.2-.1.4-.3.5-.5.1-.2.2-.4.2-.7 0-.4-.1-.7-.3-.9-.2-.2-.6-.4-1-.5-.4-.1-.6-.2-.8-.3-.2-.1-.3-.2-.3-.3 0-.1 0-.2.1-.3.1-.1.3-.1.5-.1s.5 0 .7.1c.2.1.4.2.5.3l.6-.9c-.3-.2-.5-.3-.8-.4s-.9-.1-1.3-.1c-.3 0-.5 0-.8.1-.2.1-.5.2-.6.3-.2.1-.3.3-.4.5-.1.2-.1.4-.1.6 0 .2 0 .4.1.6.1.2.2.3.3.4.1.1.3.2.5.3.2.1.4.1.5.2.2 0 .4 0 .5.1.1 0 .3.1.3.1.1 0 .1.1.2.1v.2c0 .2-.1.3-.2.3-.1.1-.3.1-.5.1s-.5 0-.7-.1c-.2-.1-.5-.2-.6-.4l-.7.9zm5.2-4.8h1.5V.2h-1.5v1.3zm.1 5.4h1.4V2.2h-1.4v4.7zm6.6-1.5c-.1.1-.3.2-.5.3-.2.1-.5.2-.9.2s-.7-.1-.9-.3c-.2-.2-.3-.4-.3-.7h3.3v-.2c0-.4 0-.8-.2-1.1-.1-.3-.2-.6-.4-.8-.2-.2-.4-.4-.7-.6-.3-.1-.6-.2-1-.2s-.7.1-1 .2c-.3.1-.6.3-.8.5-.2.2-.4.5-.5.8-.1.3-.2.6-.2.9 0 .4.1.7.2 1 .1.3.3.6.5.8.2.2.5.4.8.5.3.2.7.3 1.1.3.3 0 .6 0 .8-.1.2-.1.4-.1.6-.2.2-.1.3-.1.4-.2.1-.1.2-.1.2-.2l-.5-.9zM40.7 4c0-.1 0-.2.1-.3 0-.1.1-.2.2-.3.1-.1.2-.2.3-.2.1-.1.3-.1.4-.1.2 0 .3 0 .4.1.1.1.2.1.3.2.1.1.1.2.2.3 0 .1.1.2.1.3h-2zm4.4 2.9h1.4V4.5c0-.4.1-.7.3-.9.2-.2.5-.3.8-.3.2 0 .4 0 .5.1l.2-1.3c-.1 0-.2-.1-.3-.1h-.3c-.3 0-.6.1-.8.2-.2.1-.4.3-.5.5l-.1-.6h-1.4v4.8h.2zm4.1-1.8c0 .6.2 1.1.5 1.4.3.3.7.5 1.2.5.3 0 .5-.1.8-.2.3-.1.5-.3.6-.4v.5h1.4V2.2h-1.4v2.5c0 .1 0 .3-.1.4 0 .1-.1.2-.2.3-.1.1-.2.2-.3.2-.1.1-.2.1-.4.1-.3 0-.4-.1-.6-.2-.1-.2-.2-.4-.2-.6V2.2h-1.4v2.9h.1zM55 6.9h1.4V4.3c0-.1 0-.3.1-.4 0-.1.1-.2.2-.3.1-.1.2-.2.3-.2.1-.1.3-.1.4-.1.2 0 .4.1.5.2.1.2.2.4.2.6v2.7h1.4V4c0-.6-.2-1.1-.5-1.4-.3-.3-.7-.5-1.3-.5-.3 0-.5.1-.8.2-.3.1-.5.3-.6.5v-.5H55v4.6zm6 1.6c.3.2.5.3.9.4.3 0 .7.1 1.1.1.7 0 1.3-.2 1.8-.6.4-.4.6-.9.6-1.7V2.4l-.9-.3c-.4-.1-.7-.1-1.1-.1-.4 0-.8.1-1.1.2s-.6.3-.8.5c-.4.3-.5.5-.7.9-.1.3-.2.7-.2 1 0 .3 0 .6.1.9.2.3.3.5.5.7.2.2.4.4.7.5.3.1.6.2.9.2.5 0 .9-.1 1.2-.4v.3c0 .3-.1.6-.3.8-.2.2-.4.3-.8.3-.3 0-.5 0-.7-.1l-.6-.3-.6 1zm3-3.7c0 .3-.1.5-.2.7-.2.1-.4.2-.7.2-.3 0-.6-.1-.7-.3-.2-.2-.2-.5-.2-.8 0-.2 0-.3.1-.5 0-.2.1-.3.2-.4.1-.1.2-.2.4-.3.2-.1.3-.1.5-.1h.4c.1 0 .2 0 .3.1v1.4H64zm2.4 1.5c.2.2.5.4.9.5.4.2.8.2 1.2.2.3 0 .5 0 .8-.1s.5-.2.7-.3c.2-.1.4-.3.5-.5.1-.2.2-.4.2-.7 0-.4-.1-.7-.3-.9-.2-.2-.6-.4-1-.5-.4-.1-.6-.2-.8-.3-.2-.1-.3-.2-.3-.3 0-.1.1-.2.2-.3.1-.1.3-.1.5-.1s.5 0 .7.1c.2.1.4.2.5.3l.6-.9c-.3-.2-.5-.3-.8-.4-.6-.1-1-.1-1.4-.1-.3 0-.5 0-.8.1-.2.1-.5.2-.6.3-.2.1-.3.3-.4.5-.1.2-.2.4-.2.6 0 .2 0 .4.1.6.1.2.2.3.3.4.1.1.3.2.5.3.2.1.4.1.5.2.3 0 .5 0 .7.1.1 0 .3.1.3.1.1 0 .1.1.2.1v.2c0 .2-.1.3-.2.3-.1.1-.3.1-.5.1s-.5 0-.7-.1c-.2-.1-.5-.2-.6-.4l-.8.9zm5.3-1.6h3.2V3.4h-3.2v1.3zm3.8 2.2H77l.5-1.5h2.3l.5 1.5h1.6L79.5.2H78l-2.5 6.7zm2.4-2.7l.8-2.5.8 2.5h-1.6zm5 2.7h1.4V5.3l.4-.4 1.2 2h1.7l-1.9-3 1.7-1.7h-1.6l-1.4 1.5V.2H83v6.7h-.1zm8.2 0h1.4V4.1c0-.6-.2-1.2-.5-1.5-.4-.4-1-.6-1.7-.6-.3 0-.5 0-.7.1-.2 0-.4.1-.6.1-.2.1-.3.1-.5.2-.1.1-.2.1-.3.2l.6.9c.1-.1.3-.2.5-.3.2-.1.5-.1.8-.1h.3c.1 0 .2.1.3.1.1.1.2.1.2.2.1.2.1.3.1.4v.1h-.8c-.3 0-.6 0-.9.1-.3.1-.5.2-.7.3-.2.1-.3.3-.5.5 0 .2-.1.5-.1.7 0 .3.1.5.2.7.1.2.2.3.4.4.2.1.3.2.5.2.2.2.3.2.5.2.3 0 .6 0 .8-.1.2-.1.4-.2.6-.4l.1.4zM91 5.2c0 .1 0 .3-.1.4-.1.1-.1.2-.2.2-.1.1-.2.1-.3.2h-.3c-.5 0-.7-.2-.7-.6 0-.2.1-.4.2-.5.2-.1.4-.2.8-.2h.5v.5h.1zm5.9 1.7h1.3V.2h-1.4v2c-.1 0-.3-.1-.4-.1h-.5c-.3 0-.6.1-.9.2-.3.1-.6.3-.8.5-.2.2-.4.5-.6.8-.2.3-.2.7-.2 1.1 0 .4.1.7.2 1 .1.3.3.5.4.8.2.2.4.4.7.5s.5 0 .8 0c.3 0 .6-.1.8-.2.2-.1.4-.3.6-.4v.5zm-.1-2.2c0 .1 0 .3-.1.4 0 .1-.1.2-.2.3-.1.1-.2.2-.3.2-.1.1-.3.1-.4.1-.3 0-.6-.1-.8-.3-.2-.2-.2-.5-.2-.8 0-.4.1-.7.3-1 .2-.2.5-.4.9-.4h.4c.1 0 .2.1.3.1v1.4h.1zm6.5.7c-.1.1-.3.2-.5.3-.2.1-.5.2-.9.2s-.7-.1-.9-.3c-.2-.2-.3-.4-.3-.7h3.3v-.2c0-.4-.1-.8-.2-1.1s-.2-.6-.4-.8c-.2-.2-.4-.4-.7-.6-.3-.1-.6-.2-1-.2s-.7.1-1 .2c-.3.1-.6.3-.8.5-.2.2-.4.5-.5.8-.1.3-.2.6-.2.9 0 .4.1.7.2 1 .1.3.3.6.5.8.2.2.5.4.8.5.3.1.7.2 1.1.2.3 0 .6 0 .8-.1.2-.1.4-.1.6-.2.2-.1.3-.1.4-.2.1-.1.2-.1.2-.2l-.5-.8zM100.7 4c0-.1 0-.2.1-.3 0-.1.1-.2.2-.3.1-.1.2-.2.3-.2.1-.1.3-.1.4-.1.2 0 .3 0 .4.1.1.1.2.1.3.2.1.1.1.2.2.3 0 .1.1.2.1.3h-2zm4.4 2.9h1.4V4.3c0-.3.1-.5.3-.7.2-.2.4-.3.7-.3.2 0 .4.1.6.2.1.2.2.4.2.7v2.7h1.4V4.3c0-.3.1-.5.2-.7.2-.2.4-.3.7-.3.2 0 .4.1.6.2.1.2.2.4.2.7v2.7h1.4V4c0-.6-.2-1-.5-1.4-.3-.3-.8-.5-1.4-.5-.3 0-.6.1-.9.2-.3.1-.5.3-.7.5l-.2-.2c-.1-.1-.2-.1-.3-.2-.1-.1-.2-.1-.4-.2-.1 0-.3-.1-.5-.1-.3 0-.6.1-.8.2-.2.1-.4.3-.6.5l-.1-.5H105v4.6h.1zm8.8-5.4h1.5V.2h-1.5v1.3zm0 5.4h1.4V2.2h-1.4v4.7zm6.6-1.5c-.1.1-.3.2-.5.3-.2.1-.5.2-.9.2s-.7-.1-.9-.3c-.2-.2-.3-.4-.3-.7h3.3v-.2c0-.4 0-.8-.1-1.1s-.2-.6-.4-.8c-.2-.2-.4-.4-.7-.6-.3-.1-.6-.2-1-.2s-.7.1-1 .2c-.3.1-.6.3-.8.5-.2.2-.4.5-.5.8-.1.3-.2.6-.2.9 0 .4.1.7.2 1 .1.3.3.6.5.8.2.2.5.4.8.5.3.1.7.2 1.1.2.3 0 .6 0 .8-.1.2-.1.4-.1.6-.2.2-.1.3-.1.4-.2.1-.1.2-.1.2-.2l-.6-.8zM117.9 4c0-.1 0-.2.1-.3 0-.1.1-.2.2-.3.1-.1.2-.2.3-.2.1-.1.3-.1.4-.1.2 0 .3 0 .4.1.1.1.2.1.3.2.1.1.1.2.2.3 0 .1.1.2.1.3h-2zm6 1.9c.1.1.3.3.5.4.2.1.4.3.6.4.2.1.5.2.7.3.3.1.6.1.9.1.4 0 .7-.1 1-.2.3-.1.6-.2.8-.4.2-.2.4-.4.5-.7.1-.3.2-.5.2-.8 0-.3-.1-.6-.2-.9-.1-.2-.3-.4-.4-.6-.2-.2-.4-.3-.6-.4-.2-.1-.5-.2-.7-.2-.4-.1-.8-.2-1-.3-.2-.1-.4-.3-.4-.6 0-.1 0-.2.1-.2 0-.1.1-.1.2-.2s.2-.1.3-.1h.3c.2 0 .3 0 .5.1.1 0 .3.1.4.1s.2.1.3.2c.1.1.2.1.3.2l.9-1c-.1-.1-.1-.1-.3-.2-.1-.1-.3-.2-.5-.3-.2-.1-.4-.2-.7-.2-.3-.4-.6-.4-.9-.4-.4 0-.8.1-1.1.2-.3.1-.6.3-.8.4-.2.2-.4.4-.5.7-.1.2-.2.5-.2.8 0 .3 0 .5.1.7.1.2.2.4.4.5.2.2.3.3.6.4.2.1.5.2.7.3.5.1.9.3 1.1.4.2.1.4.3.4.6 0 .1 0 .2-.1.3-.1.1-.1.2-.2.2-.1.1-.2.1-.3.1-.1 0-.2.1-.3.1-.2 0-.4 0-.5-.1s-.3-.1-.5-.2c-.1-.1-.3-.2-.4-.3-.1-.1-.2-.1-.3-.2l-.9 1zm9.8-.6c-.1.1-.2.2-.4.3-.2.1-.4.1-.6.1-.2 0-.3 0-.5-.1-.1-.1-.3-.2-.3-.3-.1-.1-.2-.2-.2-.4s-.1-.3-.1-.5 0-.3.1-.5.1-.3.2-.4l.3-.3c.1-.1.3-.1.5-.1.3 0 .5 0 .6.1.2.1.3.2.4.3l.9-.9c-.2-.2-.5-.4-.8-.6-.4.1-.8 0-1.2 0-.4 0-.7.1-1 .2-.3.1-.6.3-.8.5-.2.2-.4.5-.5.8-.1.3-.2.6-.2 1s.1.7.2 1c.1.3.3.6.5.8.2.2.5.4.8.5.3.1.7.2 1 .2.4 0 .8-.1 1.1-.2.3-.2.6-.3.8-.5l-.8-1zm1.7 1.6h1.4V4.3c0-.1 0-.3.1-.4 0-.1.1-.2.2-.3.1-.1.2-.2.3-.2.1-.1.3-.1.4-.1.2 0 .4.1.6.2.1.2.2.4.2.6v2.7h1.4V4c0-.6-.2-1.1-.5-1.4-.3-.3-.8-.5-1.3-.5-.3 0-.5 0-.8.1-.3.1-.5.2-.6.4V.2h-1.4v6.7zm6.8 0h1.3l.9-2.6.9 2.6h1.3l1.6-4.7h-1.4l-.8 3-.9-3h-1.2l-.9 3-.8-3h-1.5l1.5 4.7zm10.4-1.5c-.1.1-.3.2-.5.3-.2.1-.5.2-.9.2s-.7-.1-.9-.3c-.2-.2-.3-.4-.3-.7h3.3v-.2c0-.4-.1-.8-.2-1.1-.1-.3-.2-.6-.4-.8-.2-.2-.4-.4-.7-.6-.3-.1-.6-.2-1-.2s-.7.1-1 .2c-.3.1-.6.3-.8.5-.2.2-.4.5-.5.8-.1.3-.2.6-.2.9 0 .4.1.7.2 1 .1.3.3.6.5.8.2.2.5.4.8.5.3.1.7.2 1.1.2.3 0 .6 0 .8-.1.2-.1.4-.1.6-.2.2-.1.3-.1.4-.2.1-.1.2-.1.2-.2l-.5-.8zM150 4c0-.1 0-.2.1-.3 0-.1.1-.2.2-.3.1-.1.2-.2.3-.2.1-.1.3-.1.4-.1.2 0 .3 0 .4.1.1.1.2.1.3.2.1.1.1.2.2.3 0 .1.1.2.1.3h-2zm4.3-2.5h1.5V.2h-1.5v1.3zm.1 5.4h1.4V2.2h-1.4v4.7zm2.6 0h4.1V5.7h-2.3l2.3-2.6v-1h-4v1.2h2.2L157 5.9v1zm10.8-2.5h1.2v.8l-.6.3c-.2.1-.5.1-.7.1-.3 0-.6 0-.8-.2-.2-.1-.5-.2-.6-.4-.2-.2-.3-.4-.4-.7-.1-.3-.1-.5-.1-.9 0-.3 0-.6.1-.8.1-.3.2-.5.4-.7.2-.2.4-.3.6-.5.2-.1.5-.2.8-.2.4 0 .7.1.9.2.3.2.5.4.7.6l1-1c-.3-.4-.7-.7-1.1-.9-.5-.2-1-.3-1.6-.3-.5 0-1 .1-1.4.3-.4.2-.8.4-1.1.7-.3.3-.5.7-.7 1.1-.2.4-.3.9-.3 1.4 0 .5.1 1 .2 1.4.2.4.4.8.7 1.1.3.3.7.5 1.1.7.4.2.9.3 1.5.3s1.1-.1 1.6-.2c.5-.2.9-.4 1.2-.7V3.2h-2.6v1.2zm3.8 2.5h1.4V4.3c0-.3.1-.5.3-.7.2-.2.4-.3.7-.3.2 0 .4.1.6.2.1.2.2.4.2.7v2.7h1.4V4.3c0-.3.1-.5.2-.7.2-.2.4-.3.7-.3.2 0 .4.1.6.2.1.2.2.4.2.7v2.7h1.4V4c0-.6-.2-1-.5-1.4-.3-.3-.8-.5-1.4-.5-.3 0-.6.1-.9.2-.3.1-.5.3-.7.5l-.2-.2c-.1-.1-.2-.1-.3-.2-.1-.1-.2-.1-.4-.2-.1 0-.3-.1-.5-.1-.3 0-.6.1-.8.2-.2.1-.4.3-.6.5v-.5h-1.4v4.6zm10.3-2.6c0-.3.1-.5.2-.7.2-.2.4-.3.7-.3.2 0 .3 0 .4.1l.3.3c.1.1.1.2.2.4 0 .1.1.3.1.4 0 .4-.1.7-.3 1-.2.2-.5.4-.9.4h-.4c-.1 0-.2 0-.3-.1V4.3zm-1.4 2.4c.2.1.5.2.9.2.4.1.7.1 1.1.1.4 0 .8-.1 1.2-.2.3-.1.6-.3.9-.5.2-.2.4-.5.5-.8.1-.3.2-.7.2-1.1 0-.3 0-.6-.1-.9-.1-.3-.2-.5-.4-.8-.2-.2-.4-.4-.7-.5-.3-.1-.6-.2-.9-.2-.2 0-.5 0-.7.1-.2.1-.4.2-.5.3V.2h-1.4v6.5h-.1zm5.9.2h1.5V4.1h2.9v2.7h1.5V.2h-1.5v2.6h-2.9V.2h-1.5v6.7z"/></g></svg>