<svg id="Ebene_1" xmlns="http://www.w3.org/2000/svg" width="164mm" height="11.9mm" viewBox="0 0 469.95 32.96"><path fill="#000000" d="M342.539 12.617l.005.013L347.488.424h-7.486l-4.94 12.193h7.477zM335.058 12.628l-.004.01L330.106.424h-7.486l12.434 30.697 3.747-9.25-3.743-9.243zM359.286 20.634l.001-.003 4.945 12.208h-7.486l-4.944-12.205h7.484zM351.798 2.142l3.746 9.248-3.743 9.241-.003-.006-4.948 12.214h-7.486l12.434-30.697zM362.884 8.382L359.983.386h2.314l1.798 5.563 1.678-5.563h2.266l-2.913 7.996h-2.242zM369.226 8.382V.386h2.121v7.996h-2.121zM372.666 7.399l1.283-1.546c.224.224.517.428.882.611.363.184.757.276 1.18.276.216 0 .424-.044.624-.132.199-.088.299-.255.299-.503 0-.208-.108-.382-.323-.522-.216-.14-.524-.274-.923-.401l-.444-.144a5.498 5.498 0 0 1-.977-.449 2.532 2.532 0 0 1-.803-.725c-.212-.296-.318-.659-.318-1.091 0-.495.118-.939.354-1.331.236-.391.585-.701 1.048-.929.464-.228 1.027-.342 1.691-.342.527 0 .985.06 1.373.18.387.12.709.26.965.42.255.16.443.304.563.431l-1.079 1.367a4.435 4.435 0 0 0-.875-.509 2.327 2.327 0 0 0-.935-.198c-.208 0-.406.046-.594.138-.187.092-.281.25-.281.474 0 .248.112.428.336.539.223.112.507.224.851.336l.383.12c.272.08.546.182.822.306.275.124.529.281.761.474.231.191.417.433.557.725.14.291.21.649.21 1.073 0 .488-.146.923-.437 1.307a2.914 2.914 0 0 1-1.175.899 4.03 4.03 0 0 1-1.637.324c-.799 0-1.468-.108-2.008-.324a4.412 4.412 0 0 1-1.373-.854zM380.77 5.265V.386h2.122v4.687c0 .44.102.8.306 1.079.203.28.541.419 1.013.419.471 0 .807-.142 1.007-.425.199-.284.299-.642.299-1.073V.386h2.147v4.879c0 .68-.148 1.269-.444 1.768a2.998 2.998 0 0 1-1.217 1.151c-.515.267-1.109.401-1.78.401-.672 0-1.267-.132-1.786-.396a2.93 2.93 0 0 1-1.223-1.145c-.296-.498-.444-1.091-.444-1.779zM388.443 8.382L391.38.386h2.433l2.829 7.996h-2.289l-.516-1.654h-2.673l-.528 1.654h-2.193zm3.152-3.2h1.81l-.886-2.938-.924 2.938zM397.829 8.382V.386h2.122v6.126h3.705v1.87h-5.827zM404.914 8.382V.386h2.122v7.996h-2.122zM408.475 7.399l1.283-1.546c.223.224.517.428.881.611.364.184.757.276 1.18.276.217 0 .424-.044.624-.132.2-.088.3-.255.3-.503 0-.208-.108-.382-.324-.522-.215-.14-.524-.274-.923-.401l-.444-.144a5.49 5.49 0 0 1-.976-.449 2.546 2.546 0 0 1-.804-.725c-.212-.296-.318-.659-.318-1.091 0-.495.118-.939.354-1.331.236-.391.586-.701 1.049-.929.463-.228 1.027-.342 1.69-.342.528 0 .985.06 1.373.18s.709.26.965.42c.256.16.443.304.564.431l-1.079 1.367a4.435 4.435 0 0 0-.875-.509 2.33 2.33 0 0 0-.935-.198c-.208 0-.406.046-.594.138-.188.092-.281.25-.281.474a.56.56 0 0 0 .335.539c.223.112.508.224.851.336l.384.12c.272.08.545.182.821.306.276.124.529.281.761.474.232.191.418.433.558.725.14.291.209.649.209 1.073a2.1 2.1 0 0 1-.437 1.307 2.907 2.907 0 0 1-1.175.899 4.025 4.025 0 0 1-1.636.324c-.8 0-1.469-.108-2.008-.324a4.4 4.4 0 0 1-1.373-.854zM416.747 8.382V.386h2.121v7.996h-2.121zM421.206 8.382V.386h5.755V2.22h-3.633v1.235h2.985v1.727h-2.985v1.366h3.885v1.834h-6.007zM428.974 8.382V.386h3.309c.855 0 1.543.222 2.062.665.52.443.779 1.097.779 1.96 0 .52-.115.975-.347 1.367a2.644 2.644 0 0 1-.924.935l1.715 3.069h-2.278l-1.355-2.722h-.886v2.722h-2.075zm2.075-4.388h1.03c.28 0 .508-.086.684-.258.175-.172.263-.401.263-.689 0-.304-.083-.543-.251-.719-.168-.176-.404-.264-.708-.264h-1.018v1.93zM436.875 5.265V.386h2.122v4.687c0 .44.102.8.306 1.079.203.28.541.419 1.013.419.471 0 .807-.142 1.007-.425.199-.284.299-.642.299-1.073V.386h2.146v4.879c0 .68-.148 1.269-.443 1.768a2.998 2.998 0 0 1-1.217 1.151c-.515.267-1.109.401-1.78.401-.672 0-1.267-.132-1.786-.396a2.93 2.93 0 0 1-1.223-1.145c-.296-.498-.444-1.091-.444-1.779zM445.818 8.382V.386h1.93l3.069 4.459V.386h2.098v7.996h-1.811l-3.188-4.591v4.591h-2.098zM458.849 5.457V3.815h3.285v3.608a4.407 4.407 0 0 1-1.655.881c-.623.18-1.242.27-1.858.27-.863 0-1.606-.172-2.229-.516a3.492 3.492 0 0 1-1.433-1.456c-.332-.628-.498-1.373-.498-2.236 0-.815.176-1.539.528-2.17A3.822 3.822 0 0 1 456.458.71c.627-.36 1.348-.539 2.163-.539.664 0 1.285.11 1.865.329.579.22 1.064.586 1.456 1.097l-1.379 1.391a3.649 3.649 0 0 0-.797-.611 1.979 1.979 0 0 0-.989-.24c-.456 0-.843.102-1.162.306-.32.204-.562.475-.726.815a2.597 2.597 0 0 0-.246 1.145c0 .68.196 1.225.588 1.637.391.411.911.617 1.558.617.264 0 .516-.034.755-.102.24-.068.472-.178.696-.33v-.768h-1.391zM463.321 7.399l1.283-1.546c.223.224.517.428.881.611.363.184.757.276 1.18.276.216 0 .424-.044.624-.132.2-.088.3-.255.3-.503 0-.208-.109-.382-.324-.522-.216-.14-.524-.274-.923-.401l-.444-.144a5.53 5.53 0 0 1-.977-.449 2.543 2.543 0 0 1-.803-.725c-.212-.296-.318-.659-.318-1.091 0-.495.118-.939.354-1.331.236-.391.585-.701 1.049-.929.463-.228 1.027-.342 1.69-.342.528 0 .985.06 1.373.18s.709.26.965.42c.256.16.443.304.563.431l-1.078 1.367a4.435 4.435 0 0 0-.875-.509 2.332 2.332 0 0 0-.936-.198 1.33 1.33 0 0 0-.593.138c-.188.092-.282.25-.282.474 0 .248.112.428.336.539.223.112.507.224.851.336l.383.12c.272.08.546.182.822.306.276.124.529.281.761.474.232.191.418.433.558.725.139.291.209.649.209 1.073 0 .488-.146.923-.437 1.307a2.914 2.914 0 0 1-1.175.899 4.027 4.027 0 0 1-1.637.324c-.799 0-1.468-.108-2.007-.324a4.389 4.389 0 0 1-1.373-.854zM366.24 20.618l2.937-7.996h2.434l2.829 7.996h-2.289l-.516-1.654h-2.673l-.528 1.654h-2.194zm3.153-3.2h1.81l-.886-2.938-.924 2.938zM375.747 20.618v-7.996h2.122v2.997l2.386-2.997h2.481l-2.661 3.081 3.081 4.915h-2.578l-1.954-3.237-.755.888v2.349h-2.122zM383.623 20.618l2.937-7.996h2.434l2.829 7.996h-2.289l-.516-1.654h-2.673l-.528 1.654h-2.194zm3.153-3.2h1.81l-.887-2.938-.923 2.938zM393.01 20.618v-7.996h3.069c.823 0 1.557.142 2.2.426a3.39 3.39 0 0 1 1.529 1.318c.375.596.563 1.361.563 2.296 0 .879-.188 1.613-.563 2.2a3.47 3.47 0 0 1-1.541 1.318c-.652.292-1.385.438-2.2.438h-3.057zm2.122-1.87h.863c.687 0 1.223-.198 1.607-.594.383-.396.575-.909.575-1.541 0-.639-.176-1.155-.527-1.547-.352-.391-.904-.587-1.655-.587h-.863v4.269zM401.797 20.618v-7.996h5.755v1.834h-3.633v1.235h2.985v1.727h-2.985v1.366h3.885v1.834h-6.007zM409.398 20.618l.371-7.996h2.026l1.942 3.489 1.906-3.489h2.038l.372 7.996h-2.146l-.192-4.687-1.402 2.733h-1.163l-1.558-2.733-.156 4.687h-2.038zM419.863 20.618v-7.996h2.122v7.996h-2.122zM424.203 20.618v-7.996h5.755v1.834h-3.633v1.235h2.985v1.727h-2.985v1.366h3.884v1.834h-6.006zM0 30.84h1.44v-2.52c0-.14.02-.272.06-.395a.897.897 0 0 1 .48-.55.945.945 0 0 1 .41-.085c.233 0 .42.077.56.23.14.153.21.367.21.64v2.68h1.43v-2.9c0-.627-.162-1.1-.485-1.42-.323-.32-.755-.48-1.295-.48-.26 0-.517.048-.77.145a1.475 1.475 0 0 0-.61.415v-2.43H0v6.67zm8.6 0h1.35v-2.73c0-.647-.17-1.162-.51-1.545-.34-.383-.867-.575-1.58-.575-.28 0-.528.018-.745.055a3.678 3.678 0 0 0-.585.145c-.173.06-.323.127-.45.2-.127.073-.24.147-.34.22l.59.88c.147-.1.325-.19.535-.27.21-.08.475-.12.795-.12.12 0 .233.012.34.035a.791.791 0 0 1 .285.12.582.582 0 0 1 .275.515v.1a2.147 2.147 0 0 0-.335-.03c-.17-.007-.338-.01-.505-.01-.307 0-.592.037-.855.11a2.07 2.07 0 0 0-.685.325 1.535 1.535 0 0 0-.455.535 1.57 1.57 0 0 0-.165.73c0 .28.052.513.155.7.103.187.233.335.39.445.157.11.327.188.51.235.183.047.358.07.525.07.3 0 .572-.05.815-.15.243-.1.445-.243.605-.43l.04.44zm-.04-1.69a.738.738 0 0 1-.285.6 1.045 1.045 0 0 1-.625.21c-.467 0-.7-.193-.7-.58 0-.207.083-.367.25-.48.167-.113.45-.17.85-.17a3.03 3.03 0 0 1 .51.04v.38zm2.63 1.69h1.44v-6.67h-1.44v6.67zm2.7 0h1.44v-6.67h-1.44v6.67zm4.525-1.195a.996.996 0 0 1-.355-.285 1.356 1.356 0 0 1-.215-.405 1.46 1.46 0 0 1 0-.93c.05-.15.122-.283.215-.4.093-.117.212-.21.355-.28.143-.07.305-.105.485-.105a1.06 1.06 0 0 1 .835.385c.097.117.168.25.215.4.047.15.07.305.07.465 0 .16-.023.315-.07.465-.047.15-.118.285-.215.405a1.06 1.06 0 0 1-.355.285c-.14.07-.3.105-.48.105s-.342-.035-.485-.105zm-1.85-.18c.123.303.295.568.515.795.22.227.485.407.795.54.31.133.652.2 1.025.2a2.54 2.54 0 0 0 1.02-.2 2.432 2.432 0 0 0 1.305-1.335c.123-.303.185-.628.185-.975s-.062-.672-.185-.975a2.374 2.374 0 0 0-1.305-1.33 2.59 2.59 0 0 0-1.02-.195c-.373 0-.715.065-1.025.195a2.365 2.365 0 0 0-1.31 1.33 2.568 2.568 0 0 0-.185.975c0 .347.061.672.185.975zM27.5 29.15c0 .26-.087.46-.26.6a.93.93 0 0 1-.6.21c-.22 0-.39-.05-.51-.15-.12-.1-.18-.243-.18-.43 0-.207.085-.367.255-.48.17-.113.445-.17.825-.17.12 0 .225.007.315.02.09.013.141.017.155.01v.39zm-3.23 1.22a2.267 2.267 0 0 1-.225-.28 2.801 2.801 0 0 1-.265-.485 4.167 4.167 0 0 1-.225-.675 3.476 3.476 0 0 1-.095-.84c0-.573.101-1.058.305-1.455.203-.397.466-.718.79-.965a3.153 3.153 0 0 1 1.075-.535c.393-.11.78-.165 1.16-.165.44 0 .857.055 1.25.165.393.11.738.285 1.035.525.297.24.531.548.705.925.173.377.26.828.26 1.355 0 .34-.025.633-.075.88a2.67 2.67 0 0 1-.195.62c-.08.167-.17.29-.27.37a.47.47 0 0 1-.29.12c-.233 0-.35-.163-.35-.49v-1.66c0-.567-.18-1.007-.54-1.32-.36-.313-.85-.47-1.47-.47-.287 0-.538.018-.755.055a3.89 3.89 0 0 0-.58.14 2.551 2.551 0 0 0-.795.425l.6.88c.146-.1.323-.19.53-.27.207-.08.477-.12.81-.12.22 0 .415.05.585.15.17.1.255.257.255.47v.18a1.986 1.986 0 0 0-.315-.03c-.157-.007-.312-.01-.465-.01-.307 0-.592.035-.855.105-.263.07-.49.175-.68.315-.19.14-.339.315-.445.525-.107.21-.16.452-.16.725 0 .273.052.503.155.69.103.187.233.338.39.455.156.117.326.2.51.25.183.05.358.075.525.075.373 0 .678-.048.915-.145.236-.097.458-.245.665-.445.133.207.293.355.48.445.186.09.43.135.73.135.24 0 .488-.05.745-.15.257-.1.491-.267.705-.5.213-.233.39-.543.53-.93s.21-.87.21-1.45c0-.613-.097-1.167-.29-1.66a3.388 3.388 0 0 0-.84-1.255 3.699 3.699 0 0 0-1.36-.79c-.54-.183-1.154-.275-1.84-.275-.58 0-1.14.085-1.68.255-.54.17-1.017.427-1.43.77a3.78 3.78 0 0 0-.995 1.295c-.25.52-.375 1.13-.375 1.83a4.452 4.452 0 0 0 .405 1.865c.116.25.24.462.37.635s.248.303.355.39l.81-.65zm9.5.47h1.36l2.01-4.69h-1.57l-1.07 3.08-1.11-3.08h-1.6l1.98 4.69zm4.14-5.38h1.54v-1.29h-1.54v1.29zm.05 5.38h1.44v-4.69h-1.44v4.69zm2.51-.53c.233.233.537.407.91.52.373.113.77.17 1.19.17.26 0 .515-.03.765-.09s.473-.152.67-.275a1.45 1.45 0 0 0 .47-.465c.117-.187.175-.41.175-.67 0-.387-.108-.697-.325-.93-.217-.233-.565-.417-1.045-.55a11.218 11.218 0 0 1-.84-.25c-.207-.073-.31-.187-.31-.34 0-.107.05-.192.15-.255.1-.063.26-.095.48-.095.247 0 .468.04.665.12.197.08.372.17.525.27l.61-.95c-.253-.173-.53-.305-.83-.395s-.65-.135-1.05-.135c-.28 0-.542.035-.785.105a1.98 1.98 0 0 0-.63.3 1.46 1.46 0 0 0-.415.46c-.1.177-.15.375-.15.595a1.2 1.2 0 0 0 .455.97c.137.113.293.208.47.285.177.077.355.138.535.185.22.06.402.113.545.16.143.047.255.092.335.135.08.043.135.09.165.14s.045.105.045.165c0 .153-.07.257-.21.31-.14.053-.317.08-.53.08-.233 0-.475-.047-.725-.14a1.834 1.834 0 0 1-.605-.35l-.71.92zm5.23-1.25c0 .627.157 1.1.47 1.42.313.32.74.48 1.28.48.273 0 .535-.058.785-.175.25-.117.452-.265.605-.445l.04.5h1.38v-4.69h-1.43v2.53c0 .133-.02.263-.06.39a.926.926 0 0 1-.18.33.932.932 0 0 1-.29.225.854.854 0 0 1-.39.085c-.254 0-.445-.077-.575-.23-.13-.153-.195-.363-.195-.63v-2.7H45.7v2.91zm8.59 1.78h1.35v-2.73c0-.647-.17-1.162-.51-1.545-.34-.383-.867-.575-1.58-.575-.28 0-.528.018-.745.055a3.678 3.678 0 0 0-.585.145c-.173.06-.324.127-.45.2-.127.073-.24.147-.34.22l.59.88c.147-.1.325-.19.535-.27.21-.08.475-.12.795-.12.12 0 .233.012.34.035a.799.799 0 0 1 .285.12.582.582 0 0 1 .275.515v.1a2.162 2.162 0 0 0-.335-.03c-.17-.007-.339-.01-.505-.01-.307 0-.592.037-.855.11a2.07 2.07 0 0 0-.685.325 1.535 1.535 0 0 0-.455.535 1.57 1.57 0 0 0-.165.73c0 .28.051.513.155.7.103.187.233.335.39.445.156.11.327.188.51.235.183.047.358.07.525.07.3 0 .572-.05.815-.15.243-.1.445-.243.605-.43l.04.44zm-.04-1.69a.738.738 0 0 1-.285.6 1.045 1.045 0 0 1-.625.21c-.467 0-.7-.193-.7-.58 0-.207.083-.367.25-.48.167-.113.45-.17.85-.17a3.03 3.03 0 0 1 .51.04v.38zm2.63 1.69h1.44v-6.67h-1.44v6.67zm2.69-5.38h1.54v-1.29h-1.54v1.29zm.05 5.38h1.44v-4.69h-1.44v4.69zm2.509-.53c.233.233.537.407.91.52.373.113.77.17 1.19.17.26 0 .515-.03.765-.09s.473-.152.67-.275a1.45 1.45 0 0 0 .47-.465c.117-.187.175-.41.175-.67 0-.387-.108-.697-.325-.93-.217-.233-.565-.417-1.045-.55a11.218 11.218 0 0 1-.84-.25c-.207-.073-.31-.187-.31-.34 0-.107.05-.192.15-.255.1-.063.26-.095.48-.095.247 0 .468.04.665.12.197.08.372.17.525.27l.61-.95a2.978 2.978 0 0 0-.83-.395c-.3-.09-.65-.135-1.05-.135-.28 0-.542.035-.785.105a1.98 1.98 0 0 0-.63.3 1.46 1.46 0 0 0-.415.46c-.1.177-.15.375-.15.595a1.2 1.2 0 0 0 .455.97c.137.113.293.208.47.285.177.077.355.138.535.185.22.06.402.113.545.16.143.047.255.092.335.135.08.043.135.09.165.14s.045.105.045.165c0 .153-.07.257-.21.31-.14.053-.317.08-.53.08-.233 0-.475-.047-.725-.14a1.834 1.834 0 0 1-.605-.35l-.71.92zm5.24-4.85h1.54v-1.29h-1.54v1.29zm.05 5.38h1.44v-4.69h-1.44v4.69zm6.58-1.42a3.15 3.15 0 0 1-.51.285c-.233.11-.537.165-.91.165-.38 0-.678-.095-.895-.285-.217-.19-.328-.412-.335-.665h3.34v-.24c0-.393-.05-.755-.15-1.085a2.4 2.4 0 0 0-.445-.85 2.05 2.05 0 0 0-.725-.555c-.287-.133-.62-.2-1-.2s-.72.068-1.02.205c-.3.137-.553.318-.76.545a2.361 2.361 0 0 0-.475.795c-.11.303-.165.618-.165.945 0 .373.058.715.175 1.025.117.31.287.575.51.795.223.22.495.392.815.515.32.123.68.185 1.08.185.3 0 .567-.028.8-.085.233-.057.435-.122.605-.195.17-.073.308-.148.415-.225.107-.077.187-.132.24-.165l-.59-.91zM71.349 28c0-.1.022-.202.065-.305a.935.935 0 0 1 .505-.5c.127-.057.273-.085.44-.085.167 0 .31.028.43.085a.96.96 0 0 1 .3.215.902.902 0 0 1 .24.59h-1.98zm4.36 2.84h1.44v-2.32c0-.373.105-.662.315-.865.21-.203.485-.305.825-.305.2 0 .373.023.52.07l.23-1.27a1.25 1.25 0 0 0-.265-.07 2.305 2.305 0 0 0-.325-.02c-.333 0-.605.073-.815.22-.21.147-.375.3-.495.46l-.05-.59h-1.38v4.69zm4.11-1.78c0 .627.157 1.1.47 1.42.313.32.74.48 1.28.48.273 0 .535-.058.785-.175.25-.117.452-.265.605-.445l.04.5h1.38v-4.69h-1.43v2.53c0 .133-.02.263-.06.39a.926.926 0 0 1-.18.33.932.932 0 0 1-.29.225.854.854 0 0 1-.39.085c-.253 0-.445-.077-.575-.23-.13-.153-.195-.363-.195-.63v-2.7h-1.44v2.91zm5.84 1.78h1.43v-2.52c0-.14.02-.272.06-.395a.897.897 0 0 1 .48-.55.97.97 0 0 1 .42-.085c.233 0 .415.077.545.23.13.153.195.36.195.62v2.7h1.44v-2.9c0-.627-.158-1.1-.475-1.42-.317-.32-.745-.48-1.285-.48-.273 0-.535.057-.785.17-.25.113-.452.263-.605.45l-.04-.51h-1.38v4.69zm6 1.62c.26.173.546.3.86.38.313.08.68.12 1.1.12.74 0 1.323-.185 1.75-.555.427-.37.64-.942.64-1.715V26.4c-.28-.1-.595-.183-.945-.25s-.719-.1-1.105-.1c-.407 0-.775.06-1.105.18-.33.12-.614.292-.85.515-.237.223-.42.49-.55.8-.13.31-.195.655-.195 1.035 0 .327.048.627.145.9.097.273.235.51.415.71.18.2.401.355.665.465.263.11.562.165.895.165.5 0 .9-.13 1.2-.39v.33c0 .347-.093.607-.28.78-.187.173-.444.26-.77.26a2.408 2.408 0 0 1-1.29-.36l-.58 1.02zm2.93-3.71c0 .307-.08.532-.24.675-.16.143-.387.215-.68.215-.313 0-.552-.1-.715-.3-.163-.2-.245-.47-.245-.81 0-.173.025-.338.075-.495a1.117 1.117 0 0 1 .615-.69c.153-.07.333-.105.54-.105.153 0 .276.008.37.025.093.017.186.042.28.075v1.41zm2.46 1.56c.233.233.536.407.91.52.373.113.77.17 1.19.17.26 0 .515-.03.765-.09s.473-.152.67-.275a1.45 1.45 0 0 0 .47-.465c.117-.187.175-.41.175-.67 0-.387-.108-.697-.325-.93-.217-.233-.565-.417-1.045-.55a11.075 11.075 0 0 1-.84-.25c-.207-.073-.31-.187-.31-.34 0-.107.05-.192.15-.255.1-.063.26-.095.48-.095.247 0 .468.04.665.12.197.08.372.17.525.27l.61-.95a2.978 2.978 0 0 0-.83-.395c-.3-.09-.65-.135-1.05-.135-.28 0-.542.035-.785.105-.244.07-.454.17-.63.3a1.46 1.46 0 0 0-.415.46c-.1.177-.15.375-.15.595a1.2 1.2 0 0 0 .455.97c.137.113.293.208.47.285.176.077.355.138.535.185.22.06.402.113.545.16.143.047.255.092.335.135.08.043.135.09.165.14.03.05.045.105.045.165 0 .153-.07.257-.21.31-.14.053-.317.08-.53.08-.234 0-.475-.047-.725-.14a1.834 1.834 0 0 1-.605-.35l-.71.92zm5.31-1.58h3.17v-1.37h-3.17v1.37zm7.25 2.11h1.35v-2.73c0-.647-.17-1.162-.51-1.545-.34-.383-.867-.575-1.58-.575-.28 0-.528.018-.745.055-.217.037-.412.085-.585.145s-.323.127-.45.2c-.127.073-.24.147-.34.22l.59.88c.147-.1.325-.19.535-.27.21-.08.475-.12.795-.12.12 0 .233.012.34.035a.791.791 0 0 1 .285.12.582.582 0 0 1 .275.515v.1a2.147 2.147 0 0 0-.335-.03c-.17-.007-.338-.01-.505-.01-.307 0-.592.037-.855.11a2.07 2.07 0 0 0-.685.325 1.535 1.535 0 0 0-.455.535 1.57 1.57 0 0 0-.165.73c0 .28.052.513.155.7.103.187.233.335.39.445.157.11.327.188.51.235.183.047.358.07.525.07.3 0 .572-.05.815-.15.243-.1.445-.243.605-.43l.04.44zm-.04-1.69a.738.738 0 0 1-.285.6 1.045 1.045 0 0 1-.625.21c-.467 0-.7-.193-.7-.58 0-.207.083-.367.25-.48.167-.113.45-.17.85-.17a3.03 3.03 0 0 1 .51.04v.38zm2.63 1.69h1.44v-1.55l.42-.43 1.2 1.98h1.67l-1.91-2.96 1.68-1.73h-1.63l-1.43 1.48v-3.46h-1.44v6.67zm8.19 0h1.35v-2.73c0-.647-.17-1.162-.51-1.545-.34-.383-.867-.575-1.58-.575-.28 0-.528.018-.745.055a3.678 3.678 0 0 0-.585.145c-.173.06-.323.127-.45.2-.127.073-.24.147-.34.22l.59.88c.147-.1.325-.19.535-.27.21-.08.475-.12.795-.12.12 0 .233.012.34.035a.791.791 0 0 1 .285.12.582.582 0 0 1 .275.515v.1a2.147 2.147 0 0 0-.335-.03c-.17-.007-.338-.01-.505-.01-.307 0-.592.037-.855.11a2.07 2.07 0 0 0-.685.325 1.535 1.535 0 0 0-.455.535 1.57 1.57 0 0 0-.165.73c0 .28.052.513.155.7.103.187.233.335.39.445.157.11.327.188.51.235.183.047.358.07.525.07.3 0 .572-.05.815-.15.243-.1.445-.243.605-.43l.04.44zm-.04-1.69a.738.738 0 0 1-.285.6 1.045 1.045 0 0 1-.625.21c-.467 0-.7-.193-.7-.58 0-.207.083-.367.25-.48.167-.113.45-.17.85-.17a3.03 3.03 0 0 1 .51.04v.38zm5.88 1.69h1.34v-6.67h-1.43v2.04c-.133-.047-.263-.085-.39-.115s-.303-.045-.53-.045a2.545 2.545 0 0 0-1.645.62 2.37 2.37 0 0 0-.58.785c-.15.317-.225.685-.225 1.105 0 .373.053.708.16 1.005.107.297.252.55.435.76.183.21.4.372.65.485.25.113.518.17.805.17.293 0 .555-.058.785-.175s.418-.262.565-.435l.06.47zm-.09-2.12c0 .133-.017.263-.05.39a.841.841 0 0 1-.455.555.937.937 0 0 1-.415.085c-.333 0-.583-.108-.75-.325-.167-.217-.25-.495-.25-.835 0-.387.102-.703.305-.95s.488-.37.855-.37c.173 0 .318.013.435.04.117.027.225.07.325.13v1.28zm6.53.7a3.15 3.15 0 0 1-.51.285c-.234.11-.537.165-.91.165-.38 0-.679-.095-.895-.285-.217-.19-.329-.412-.335-.665h3.34v-.24c0-.393-.05-.755-.15-1.085-.1-.33-.249-.613-.445-.85a2.059 2.059 0 0 0-.725-.555c-.287-.133-.62-.2-1-.2s-.72.068-1.02.205c-.3.137-.554.318-.76.545a2.361 2.361 0 0 0-.475.795c-.11.303-.165.618-.165.945 0 .373.058.715.175 1.025.116.31.286.575.51.795.223.22.495.392.815.515.32.123.68.185 1.08.185.3 0 .566-.028.8-.085.233-.057.435-.122.605-.195.17-.073.308-.148.415-.225.106-.077.186-.132.24-.165l-.59-.91zm-2.65-1.42c0-.1.021-.202.065-.305a.917.917 0 0 1 .19-.285.986.986 0 0 1 .315-.215 1.06 1.06 0 0 1 .44-.085c.166 0 .31.028.43.085a.96.96 0 0 1 .3.215.902.902 0 0 1 .24.59h-1.98zm4.36 2.84h1.44v-2.52c0-.3.085-.547.255-.74a.844.844 0 0 1 .665-.29c.246 0 .431.077.555.23.123.153.185.37.185.65v2.67h1.39v-2.52c0-.3.083-.547.25-.74a.84.84 0 0 1 .67-.29c.246 0 .431.077.555.23.123.153.185.37.185.65v2.67h1.44v-2.9c0-.587-.159-1.05-.475-1.39-.317-.34-.775-.51-1.375-.51-.3 0-.589.057-.865.17a1.963 1.963 0 0 0-.705.48 1.646 1.646 0 0 0-.495-.435 1.654 1.654 0 0 0-.385-.155 1.909 1.909 0 0 0-.5-.06c-.307 0-.574.06-.8.18-.227.12-.414.27-.56.45l-.05-.52h-1.38v4.69zm8.82-5.38h1.54v-1.29h-1.54v1.29zm.05 5.38h1.44v-4.69h-1.44v4.69zm6.58-1.42a3.15 3.15 0 0 1-.51.285c-.234.11-.537.165-.91.165-.38 0-.679-.095-.895-.285-.217-.19-.329-.412-.335-.665h3.34v-.24c0-.393-.05-.755-.15-1.085-.1-.33-.249-.613-.445-.85a2.059 2.059 0 0 0-.725-.555c-.287-.133-.62-.2-1-.2s-.72.068-1.02.205c-.3.137-.554.318-.76.545a2.361 2.361 0 0 0-.475.795c-.11.303-.165.618-.165.945 0 .373.058.715.175 1.025.116.31.286.575.51.795.223.22.495.392.815.515.32.123.68.185 1.08.185.3 0 .566-.028.8-.085.233-.057.435-.122.605-.195.17-.073.308-.148.415-.225.106-.077.186-.132.24-.165l-.59-.91zm-2.65-1.42c0-.1.021-.202.065-.305a.917.917 0 0 1 .19-.285.986.986 0 0 1 .315-.215 1.06 1.06 0 0 1 .44-.085c.166 0 .31.028.43.085a.96.96 0 0 1 .3.215.902.902 0 0 1 .24.59h-1.98zm4.439 2.84h1.63v-1.59h-1.63v1.59zm6.34-1.56c-.1.113-.233.218-.4.315a1.213 1.213 0 0 1-.62.145.974.974 0 0 1-.465-.11 1.167 1.167 0 0 1-.35-.285c-.096-.117-.17-.25-.22-.4s-.075-.302-.075-.455c0-.167.025-.325.075-.475a1.151 1.151 0 0 1 .57-.67c.137-.07.292-.105.465-.105.254 0 .457.047.61.14.154.093.284.2.39.32l.87-.94a2.352 2.352 0 0 0-.79-.56c-.313-.14-.683-.21-1.11-.21a2.6 2.6 0 0 0-1.015.195 2.427 2.427 0 0 0-1.325 1.33c-.126.303-.19.628-.19.975 0 .367.062.703.185 1.01a2.287 2.287 0 0 0 1.31 1.315c.31.123.655.185 1.035.185.434 0 .809-.077 1.125-.23a2.46 2.46 0 0 0 .765-.55l-.84-.94zm1.7 1.56h1.44v-2.52c0-.14.02-.272.06-.395a.897.897 0 0 1 .48-.55.945.945 0 0 1 .41-.085c.234 0 .42.077.56.23.14.153.21.367.21.64v2.68h1.43v-2.9c0-.627-.161-1.1-.485-1.42-.323-.32-.755-.48-1.295-.48-.26 0-.516.048-.77.145a1.481 1.481 0 0 0-.61.415v-2.43h-1.43v6.67zM.2 16.23h1.4v1.4h1.18v-1.4h1.41v-1.15H2.78v-1.42H1.6v1.42H.2v1.15zm5.21 1.46h2.81v1.15h1.34v-1.15h.64v-1.13h-.64v-4.02H8.13l-2.72 4.04v1.11zm1.29-1.13l1.52-2.33v2.33H6.7zm5.19 2.28h3.52v-1.23h-1.03v-5.07h-1.19l-1.87 1.03.61 1.1 1.05-.56v3.5h-1.09v1.23zm6.83-1.15h2.81v1.15h1.34v-1.15h.64v-1.13h-.64v-4.02h-1.43l-2.72 4.04v1.11zm1.29-1.13l1.52-2.33v2.33h-1.52zm4.17 1.67c.267.24.585.43.955.57.37.14.788.21 1.255.21.32 0 .628-.047.925-.14.297-.093.558-.228.785-.405.227-.177.408-.395.545-.655.137-.26.205-.557.205-.89 0-.493-.128-.903-.385-1.23-.257-.327-.635-.537-1.135-.63l1.31-1.48v-1.03h-3.96v1.25h2.35l-1.61 1.65.37.59a1.73 1.73 0 0 1 .61-.11c.34 0 .588.09.745.27.157.18.235.387.235.62 0 .3-.102.533-.305.7-.203.167-.458.25-.765.25a1.73 1.73 0 0 1-.715-.145 2.57 2.57 0 0 1-.635-.415l-.78 1.02zm7.72-.02c.253.233.55.425.89.575.34.15.75.225 1.23.225.427 0 .795-.062 1.105-.185.31-.123.567-.288.77-.495.203-.207.353-.447.45-.72a2.55 2.55 0 0 0 .145-.86c0-.307-.052-.583-.155-.83a1.807 1.807 0 0 0-.44-.635 1.931 1.931 0 0 0-.675-.405 2.505 2.505 0 0 0-.85-.14c-.127 0-.252.008-.375.025a1.147 1.147 0 0 0-.255.055l.19-1.01h2.41v-1.26h-3.4l-.55 2.96.66.49c.133-.053.273-.098.42-.135.147-.037.307-.055.48-.055.2 0 .37.03.51.09s.253.137.34.23a.962.962 0 0 1 .25.63c0 .127-.02.25-.06.37a.862.862 0 0 1-.19.32.95.95 0 0 1-.335.225 1.255 1.255 0 0 1-.485.085c-.28 0-.523-.05-.73-.15a2.36 2.36 0 0 1-.58-.4l-.77 1zm9.315.545c.31-.163.568-.392.775-.685.207-.293.36-.647.46-1.06.1-.413.15-.867.15-1.36 0-.487-.05-.933-.15-1.34a3.036 3.036 0 0 0-.455-1.04 2.122 2.122 0 0 0-.775-.67c-.313-.16-.68-.24-1.1-.24-.414 0-.775.08-1.085.24s-.57.383-.78.67c-.21.287-.367.633-.47 1.04a5.453 5.453 0 0 0-.155 1.34c0 .493.052.947.155 1.36.103.413.26.767.47 1.06.21.293.468.522.775.685.306.163.666.245 1.08.245.426 0 .795-.082 1.105-.245zm-1.57-1.225a1.186 1.186 0 0 1-.32-.435 2.434 2.434 0 0 1-.18-.645 5.406 5.406 0 0 1-.055-.8c0-.28.018-.54.055-.78.036-.24.096-.448.18-.625a1.1 1.1 0 0 1 .32-.415c.13-.1.285-.15.465-.15s.335.05.465.15c.13.1.236.238.32.415a2.4 2.4 0 0 1 .185.625 5.545 5.545 0 0 1 .005 1.58 2.434 2.434 0 0 1-.18.645c-.083.183-.19.328-.32.435a.708.708 0 0 1-.465.16.722.722 0 0 1-.475-.16zm4.515 1.31h3.52v-1.23h-1.03v-5.07h-1.19l-1.87 1.03.61 1.1 1.05-.56v3.5h-1.09v1.23zm6.83-1.15h2.81v1.15h1.34v-1.15h.64v-1.13h-.64v-4.02h-1.43l-2.72 4.04v1.11zm1.29-1.13l1.52-2.33v2.33h-1.52zm7.895 2.195c.31-.163.568-.392.775-.685.207-.293.36-.647.46-1.06.1-.413.15-.867.15-1.36 0-.487-.05-.933-.15-1.34a3.036 3.036 0 0 0-.455-1.04 2.114 2.114 0 0 0-.775-.67c-.313-.16-.68-.24-1.1-.24-.413 0-.775.08-1.085.24-.31.16-.57.383-.78.67-.21.287-.367.633-.47 1.04a5.453 5.453 0 0 0-.155 1.34c0 .493.052.947.155 1.36.103.413.26.767.47 1.06.21.293.468.522.775.685.306.163.666.245 1.08.245.426 0 .795-.082 1.105-.245zm-1.57-1.225a1.186 1.186 0 0 1-.32-.435 2.434 2.434 0 0 1-.18-.645 5.406 5.406 0 0 1-.055-.8c0-.28.018-.54.055-.78.037-.24.097-.448.18-.625a1.1 1.1 0 0 1 .32-.415.74.74 0 0 1 .465-.15c.18 0 .335.05.465.15.13.1.237.238.32.415a2.4 2.4 0 0 1 .185.625c.04.24.06.5.06.78 0 .287-.018.553-.055.8a2.434 2.434 0 0 1-.18.645c-.083.183-.19.328-.32.435a.708.708 0 0 1-.465.16.722.722 0 0 1-.475-.16zm5.695.16h2.81v1.15h1.34v-1.15h.64v-1.13h-.64v-4.02h-1.43l-2.72 4.04v1.11zm1.29-1.13l1.52-2.33v2.33h-1.52zm7.895 2.195c.31-.163.568-.392.775-.685.207-.293.36-.647.46-1.06.1-.413.15-.867.15-1.36 0-.487-.05-.933-.15-1.34a3.036 3.036 0 0 0-.455-1.04 2.114 2.114 0 0 0-.775-.67c-.313-.16-.68-.24-1.1-.24-.413 0-.775.08-1.085.24-.31.16-.57.383-.78.67-.21.287-.367.633-.47 1.04a5.453 5.453 0 0 0-.155 1.34c0 .493.052.947.155 1.36.103.413.26.767.47 1.06.21.293.468.522.775.685.306.163.666.245 1.08.245.426 0 .795-.082 1.105-.245zm-1.57-1.225a1.186 1.186 0 0 1-.32-.435 2.434 2.434 0 0 1-.18-.645 5.406 5.406 0 0 1-.055-.8c0-.28.018-.54.055-.78.037-.24.097-.448.18-.625a1.1 1.1 0 0 1 .32-.415.74.74 0 0 1 .465-.15c.18 0 .335.05.465.15.13.1.237.238.32.415a2.4 2.4 0 0 1 .185.625 5.545 5.545 0 0 1 .005 1.58 2.434 2.434 0 0 1-.18.645c-.083.183-.19.328-.32.435a.708.708 0 0 1-.465.16.722.722 0 0 1-.475-.16zM.12 6.84h4.7V5.5H1.63V.17H.12v6.67zm5.66-5.38h1.54V.17H5.78v1.29zm.05 5.38h1.44V2.15H5.83v4.69zm2.74 0h1.44V4.32c0-.3.085-.547.255-.74a.844.844 0 0 1 .665-.29c.246 0 .431.077.555.23.123.153.185.37.185.65v2.67h1.39V4.32c0-.3.083-.547.25-.74a.841.841 0 0 1 .67-.29c.246 0 .431.077.555.23.123.153.185.37.185.65v2.67h1.44v-2.9c0-.587-.159-1.05-.475-1.39-.317-.34-.775-.51-1.375-.51-.3 0-.589.057-.865.17a1.963 1.963 0 0 0-.705.48 1.584 1.584 0 0 0-.495-.435 1.654 1.654 0 0 0-.385-.155 1.909 1.909 0 0 0-.5-.06c-.307 0-.573.06-.8.18-.227.12-.414.27-.56.45l-.05-.52H8.57v4.69zm8.83 0h1.44V4.32c0-.3.085-.547.255-.74a.844.844 0 0 1 .665-.29c.246 0 .431.077.555.23.123.153.185.37.185.65v2.67h1.39V4.32c0-.3.083-.547.25-.74a.841.841 0 0 1 .67-.29c.246 0 .432.077.555.23.123.153.185.37.185.65v2.67h1.44v-2.9c0-.587-.158-1.05-.475-1.39-.317-.34-.775-.51-1.375-.51-.3 0-.588.057-.865.17a1.963 1.963 0 0 0-.705.48 1.584 1.584 0 0 0-.495-.435 1.654 1.654 0 0 0-.385-.155 1.909 1.909 0 0 0-.5-.06c-.307 0-.573.06-.8.18-.227.12-.413.27-.56.45l-.05-.52H17.4v4.69zm11.59 0h1.35V4.11c0-.647-.17-1.162-.51-1.545-.34-.383-.867-.575-1.58-.575-.28 0-.528.018-.745.055a3.678 3.678 0 0 0-.585.145c-.173.06-.323.127-.45.2-.127.073-.24.147-.34.22l.59.88c.147-.1.325-.19.535-.27.21-.08.475-.12.795-.12.12 0 .233.012.34.035a.791.791 0 0 1 .285.12.582.582 0 0 1 .275.515v.1a2.147 2.147 0 0 0-.335-.03c-.17-.007-.338-.01-.505-.01-.307 0-.592.037-.855.11a2.07 2.07 0 0 0-.685.325 1.535 1.535 0 0 0-.455.535 1.57 1.57 0 0 0-.165.73c0 .28.052.513.155.7.103.187.233.335.39.445.157.11.327.188.51.235.183.047.358.07.525.07.3 0 .572-.05.815-.15.243-.1.445-.243.605-.43l.04.44zm-.04-1.69a.738.738 0 0 1-.285.6 1.045 1.045 0 0 1-.625.21c-.467 0-.7-.193-.7-.58 0-.207.083-.367.25-.48.167-.113.45-.17.85-.17a3.03 3.03 0 0 1 .51.04v.38zm2.98-.1c0 .293.03.56.09.8s.16.445.3.615c.14.17.323.303.55.4.227.097.507.145.84.145.533 0 1.026-.18 1.48-.54l-.58-.88a1.854 1.854 0 0 1-.3.175.888.888 0 0 1-.38.075c-.194 0-.335-.062-.425-.185-.09-.123-.135-.298-.135-.525V3.28h1.21V2.15h-1.21V.73h-1.44v1.42h-.74v1.13h.74v1.77zm3.8 1.26c.233.233.536.407.91.52.373.113.77.17 1.19.17.26 0 .515-.03.765-.09s.473-.152.67-.275a1.45 1.45 0 0 0 .47-.465c.116-.187.175-.41.175-.67 0-.387-.108-.697-.325-.93-.217-.233-.565-.417-1.045-.55a11.218 11.218 0 0 1-.84-.25c-.207-.073-.31-.187-.31-.34 0-.107.05-.192.15-.255.1-.063.26-.095.48-.095.247 0 .468.04.665.12.197.08.371.17.525.27l.61-.95a2.978 2.978 0 0 0-.83-.395c-.3-.09-.65-.135-1.05-.135-.28 0-.542.035-.785.105-.243.07-.454.17-.63.3a1.46 1.46 0 0 0-.415.46c-.1.177-.15.375-.15.595a1.2 1.2 0 0 0 .455.97c.137.113.293.208.47.285.176.077.355.138.535.185.22.06.402.113.545.16.143.047.255.092.335.135.08.043.135.09.165.14.03.05.045.105.045.165 0 .153-.07.257-.21.31-.14.053-.317.08-.53.08-.233 0-.475-.047-.725-.14a1.834 1.834 0 0 1-.605-.35l-.71.92zm5.5-1.26c0 .293.03.56.09.8s.16.445.3.615.323.303.55.4c.227.097.507.145.84.145.533 0 1.027-.18 1.48-.54l-.58-.88a1.854 1.854 0 0 1-.3.175.888.888 0 0 1-.38.075c-.194 0-.335-.062-.425-.185-.09-.123-.135-.298-.135-.525V3.28h1.21V2.15h-1.21V.73h-1.44v1.42h-.74v1.13h.74v1.77zm4.03 1.79h1.44V4.52c0-.373.105-.662.315-.865.21-.203.485-.305.825-.305.2 0 .373.023.52.07l.23-1.27a1.25 1.25 0 0 0-.265-.07A2.315 2.315 0 0 0 48 2.06c-.334 0-.605.073-.815.22-.21.147-.375.3-.495.46l-.05-.59h-1.38v4.69zm6.79 0h1.35V4.11c0-.647-.17-1.162-.51-1.545-.34-.383-.867-.575-1.58-.575-.28 0-.528.018-.745.055a3.678 3.678 0 0 0-.585.145c-.173.06-.323.127-.45.2-.127.073-.24.147-.34.22l.59.88c.147-.1.325-.19.535-.27.21-.08.475-.12.795-.12.12 0 .233.012.34.035a.791.791 0 0 1 .285.12.582.582 0 0 1 .275.515v.1a2.147 2.147 0 0 0-.335-.03c-.17-.007-.338-.01-.505-.01-.307 0-.592.037-.855.11a2.07 2.07 0 0 0-.685.325 1.535 1.535 0 0 0-.455.535 1.57 1.57 0 0 0-.165.73c0 .28.052.513.155.7.103.187.233.335.39.445.157.11.327.188.51.235.183.047.358.07.525.07.3 0 .572-.05.815-.15.243-.1.445-.243.605-.43l.04.44zm-.04-1.69a.738.738 0 0 1-.285.6 1.045 1.045 0 0 1-.625.21c-.467 0-.7-.193-.7-.58 0-.207.083-.367.25-.48.167-.113.45-.17.85-.17a3.03 3.03 0 0 1 .51.04v.38zm2.4 1.16c.233.233.537.407.91.52.373.113.77.17 1.19.17.26 0 .515-.03.765-.09s.473-.152.67-.275a1.45 1.45 0 0 0 .47-.465c.117-.187.175-.41.175-.67 0-.387-.108-.697-.325-.93-.217-.233-.565-.417-1.045-.55a11.218 11.218 0 0 1-.84-.25c-.207-.073-.31-.187-.31-.34 0-.107.05-.192.15-.255.1-.063.26-.095.48-.095.247 0 .468.04.665.12.197.08.372.17.525.27l.61-.95c-.253-.173-.53-.305-.83-.395s-.65-.135-1.05-.135c-.28 0-.542.035-.785.105a1.98 1.98 0 0 0-.63.3 1.46 1.46 0 0 0-.415.46c-.1.177-.15.375-.15.595a1.2 1.2 0 0 0 .455.97c.137.113.293.208.47.285.176.077.355.138.535.185.22.06.402.113.545.16.143.047.255.092.335.135.08.043.135.09.165.14.03.05.045.105.045.165 0 .153-.07.257-.21.31-.14.053-.317.08-.53.08-.233 0-.475-.047-.725-.14a1.834 1.834 0 0 1-.605-.35l-.71.92zm4.97 0c.233.233.537.407.91.52.373.113.77.17 1.19.17.26 0 .515-.03.765-.09s.473-.152.67-.275a1.45 1.45 0 0 0 .47-.465c.117-.187.175-.41.175-.67 0-.387-.108-.697-.325-.93-.217-.233-.565-.417-1.045-.55a10.936 10.936 0 0 1-.84-.25c-.207-.073-.31-.187-.31-.34 0-.107.05-.192.15-.255.1-.063.26-.095.48-.095.247 0 .468.04.665.12.197.08.372.17.525.27l.61-.95c-.253-.173-.53-.305-.83-.395s-.65-.135-1.05-.135c-.28 0-.542.035-.785.105-.243.07-.454.17-.63.3a1.46 1.46 0 0 0-.415.46c-.1.177-.15.375-.15.595 0 .213.041.4.125.56.083.16.193.297.33.41.137.113.293.208.47.285.176.077.355.138.535.185.22.06.402.113.545.16.143.047.255.092.335.135.08.043.135.09.165.14s.045.105.045.165c0 .153-.07.257-.21.31-.14.053-.317.08-.53.08-.234 0-.475-.047-.725-.14a1.834 1.834 0 0 1-.605-.35l-.71.92zm9.09-.89a3.15 3.15 0 0 1-.51.285c-.233.11-.537.165-.91.165-.38 0-.678-.095-.895-.285-.217-.19-.328-.412-.335-.665h3.34v-.24c0-.393-.05-.755-.15-1.085a2.4 2.4 0 0 0-.445-.85 2.05 2.05 0 0 0-.725-.555c-.287-.133-.62-.2-1-.2s-.72.068-1.02.205c-.3.137-.553.318-.76.545a2.361 2.361 0 0 0-.475.795c-.11.303-.165.618-.165.945 0 .373.058.715.175 1.025.117.31.287.575.51.795.223.22.495.392.815.515.32.123.68.185 1.08.185.3 0 .567-.028.8-.085.233-.057.435-.122.605-.195.17-.073.308-.148.415-.225.107-.077.187-.132.24-.165l-.59-.91zM65.82 4c0-.1.022-.202.065-.305a.935.935 0 0 1 .505-.5c.127-.057.273-.085.44-.085.167 0 .31.028.43.085a.96.96 0 0 1 .3.215.902.902 0 0 1 .24.59h-1.98zm6.329 2.84h4.29V5.56h-2.63c0-.153.065-.303.195-.45a3.79 3.79 0 0 1 .485-.45c.193-.153.402-.315.625-.485.223-.17.432-.355.625-.555.193-.2.353-.42.48-.66.127-.24.19-.51.19-.81a1.73 1.73 0 0 0-.13-.66 1.619 1.619 0 0 0-.395-.57 2.007 2.007 0 0 0-.665-.405 2.604 2.604 0 0 0-.94-.155 3.04 3.04 0 0 0-.83.105c-.247.07-.465.163-.655.28-.19.117-.353.248-.49.395a2.566 2.566 0 0 0-.335.44l1.05.73c.047-.067.102-.142.165-.225a1.252 1.252 0 0 1 .54-.405 1.05 1.05 0 0 1 .395-.07c.293 0 .503.07.63.21.127.14.19.29.19.45 0 .167-.068.328-.205.485a3.807 3.807 0 0 1-.515.48c-.207.163-.432.337-.675.52a5.32 5.32 0 0 0-.675.605c-.207.22-.378.463-.515.73a1.942 1.942 0 0 0-.205.9v.85zm5.73-.24c.153.087.376.175.67.265.294.09.62.135.98.135.493 0 .916-.092 1.27-.275a2.42 2.42 0 0 0 .865-.74c.223-.31.388-.67.495-1.08.107-.41.16-.842.16-1.295 0-.58-.062-1.077-.185-1.49-.123-.413-.292-.75-.505-1.01a1.904 1.904 0 0 0-.765-.57 2.524 2.524 0 0 0-.955-.18c-.36 0-.678.06-.955.18a2.03 2.03 0 0 0-.7.49c-.19.207-.335.447-.435.72a2.51 2.51 0 0 0-.015 1.665c.09.25.218.47.385.66.167.19.372.342.615.455.243.113.521.17.835.17.287 0 .531-.038.735-.115.203-.077.372-.158.505-.245-.033.413-.158.755-.375 1.025-.217.27-.542.405-.975.405-.113 0-.227-.012-.34-.035a3.56 3.56 0 0 1-.32-.08 2.49 2.49 0 0 1-.44-.175l-.55 1.12zm2.615-3.185c-.15.07-.358.105-.625.105a.794.794 0 0 1-.625-.265.937.937 0 0 1-.235-.645c0-.3.083-.542.25-.725.166-.183.39-.275.67-.275.14 0 .268.027.385.08.117.053.22.142.31.265.09.123.16.285.21.485.05.2.075.443.075.73a2.424 2.424 0 0 1-.415.245zm3.585 3.425h3.52V5.61h-1.03V.54h-1.19l-1.87 1.03.61 1.1 1.05-.56v3.5h-1.09v1.23zm5.11 1.43h.87l.84-1.44V5.24h-1.65v1.6h.57l-.63 1.43zm10.1-3.6c-.1.113-.203.225-.31.335a1.827 1.827 0 0 1-.835.49c-.177.05-.385.075-.625.075a1.802 1.802 0 0 1-1.39-.6 1.969 1.969 0 0 1-.385-.66 2.432 2.432 0 0 1-.135-.82c0-.287.045-.558.135-.815A2.06 2.06 0 0 1 96.129 2c.167-.193.37-.345.61-.455.24-.11.51-.165.81-.165.38 0 .707.085.98.255.273.17.51.395.71.675l1.03-.99a3.05 3.05 0 0 0-1.155-.98C98.651.113 98.109 0 97.489 0c-.513 0-.982.092-1.405.275a3.304 3.304 0 0 0-1.09.75c-.303.317-.538.69-.705 1.12-.167.43-.25.892-.25 1.385 0 .507.083.972.25 1.395.167.423.402.79.705 1.1.303.31.665.552 1.085.725.42.173.883.26 1.39.26.307 0 .602-.037.885-.11a3.589 3.589 0 0 0 1.455-.745c.2-.17.37-.352.51-.545l-1.03-.94zm2.02 2.17h1.51V4.1h2.89v2.74h1.51V.17h-1.51v2.56h-2.89V.17h-1.51v6.67zm7.4-2.11h3.17V3.36h-3.17v1.37zm6.145-2.11c-.157-.153-.235-.32-.235-.5 0-.22.078-.398.235-.535a.858.858 0 0 1 .585-.205c.24 0 .435.067.585.2.15.133.225.307.225.52a.719.719 0 0 1-.23.52 1.395 1.395 0 0 1-.58.34 1.44 1.44 0 0 1-.585-.34zm.95 1.505c.123.057.235.128.335.215.1.087.18.185.24.295s.09.232.09.365c0 .153-.03.283-.09.39a.792.792 0 0 1-.24.265c-.1.07-.212.122-.335.155a1.407 1.407 0 0 1-.74 0 1.003 1.003 0 0 1-.33-.155.81.81 0 0 1-.235-.265.786.786 0 0 1-.09-.39c0-.133.028-.255.085-.365a1.03 1.03 0 0 1 .23-.295 1.35 1.35 0 0 1 .325-.215c.12-.057.247-.102.38-.135.127.033.252.078.375.135zm-2.53-.105c-.203.28-.305.623-.305 1.03a1.81 1.81 0 0 0 .59 1.325c.2.183.455.333.765.45s.682.175 1.115.175c.427 0 .797-.062 1.11-.185.313-.123.57-.28.77-.47a1.858 1.858 0 0 0 .59-1.315c0-.407-.1-.75-.3-1.03a1.96 1.96 0 0 0-.81-.65c.2-.12.38-.293.54-.52.16-.227.24-.493.24-.8 0-.24-.048-.462-.145-.665a1.538 1.538 0 0 0-.42-.53 1.978 1.978 0 0 0-.675-.35 3.026 3.026 0 0 0-.9-.125c-.32 0-.612.043-.875.13a2.142 2.142 0 0 0-.675.355 1.519 1.519 0 0 0-.58 1.205c0 .3.077.565.23.795.153.23.33.405.53.525-.327.153-.592.37-.795.65zm8.92 2.735c.31-.163.568-.392.775-.685.207-.293.36-.647.46-1.06.1-.413.15-.867.15-1.36 0-.487-.05-.933-.15-1.34a3.036 3.036 0 0 0-.455-1.04c-.203-.287-.462-.51-.775-.67s-.68-.24-1.1-.24c-.413 0-.775.08-1.085.24s-.57.383-.78.67c-.21.287-.367.633-.47 1.04a5.453 5.453 0 0 0-.155 1.34c0 .493.052.947.155 1.36.103.413.26.767.47 1.06.21.293.468.522.775.685a2.27 2.27 0 0 0 1.08.245c.427 0 .795-.082 1.105-.245zm-1.57-1.225a1.186 1.186 0 0 1-.32-.435 2.434 2.434 0 0 1-.18-.645 5.406 5.406 0 0 1-.055-.8c0-.28.018-.54.055-.78.037-.24.097-.448.18-.625a1.1 1.1 0 0 1 .32-.415.74.74 0 0 1 .465-.15c.18 0 .335.05.465.15.13.1.237.238.32.415a2.4 2.4 0 0 1 .185.625c.04.24.06.5.06.78 0 .287-.018.553-.055.8a2.434 2.434 0 0 1-.18.645c-.083.183-.19.328-.32.435a.708.708 0 0 1-.465.16.722.722 0 0 1-.475-.16zm7.22 1.225c.31-.163.568-.392.775-.685.207-.293.36-.647.46-1.06.1-.413.15-.867.15-1.36 0-.487-.05-.933-.15-1.34a3.036 3.036 0 0 0-.455-1.04 2.114 2.114 0 0 0-.775-.67c-.313-.16-.68-.24-1.1-.24-.413 0-.775.08-1.085.24-.31.16-.57.383-.78.67-.21.287-.367.633-.47 1.04a5.453 5.453 0 0 0-.155 1.34c0 .493.052.947.155 1.36.103.413.26.767.47 1.06.21.293.468.522.775.685a2.27 2.27 0 0 0 1.08.245c.427 0 .795-.082 1.105-.245zm-1.57-1.225a1.186 1.186 0 0 1-.32-.435 2.434 2.434 0 0 1-.18-.645 5.406 5.406 0 0 1-.055-.8c0-.28.018-.54.055-.78.037-.24.097-.448.18-.625a1.1 1.1 0 0 1 .32-.415.74.74 0 0 1 .465-.15c.18 0 .335.05.465.15.13.1.237.238.32.415a2.4 2.4 0 0 1 .185.625c.04.24.06.5.06.78 0 .287-.018.553-.055.8a2.434 2.434 0 0 1-.18.645c-.083.183-.19.328-.32.435a.708.708 0 0 1-.465.16.722.722 0 0 1-.475-.16zm3.555.68c.253.233.55.425.89.575.34.15.75.225 1.23.225.427 0 .795-.062 1.105-.185s.567-.288.77-.495c.203-.207.353-.447.45-.72a2.55 2.55 0 0 0 .145-.86c0-.307-.052-.583-.155-.83a1.807 1.807 0 0 0-.44-.635 1.931 1.931 0 0 0-.675-.405 2.505 2.505 0 0 0-.85-.14c-.127 0-.252.008-.375.025a1.147 1.147 0 0 0-.255.055l.19-1.01h2.41V.55h-3.4l-.55 2.96.66.49c.133-.053.273-.098.42-.135.147-.037.307-.055.48-.055.2 0 .37.03.51.09s.253.137.34.23a.962.962 0 0 1 .25.63c0 .127-.02.25-.06.37a.862.862 0 0 1-.19.32.95.95 0 0 1-.335.225 1.255 1.255 0 0 1-.485.085c-.28 0-.523-.05-.73-.15a2.36 2.36 0 0 1-.58-.4l-.77 1zm7.89.63h5.57V5.52h-3.65l3.58-4.11V.17h-5.33V1.5h3.48l-3.65 4.11v1.23zm6.45-1.78c0 .627.157 1.1.47 1.42.313.32.74.48 1.28.48.273 0 .535-.058.785-.175.25-.117.452-.265.605-.445l.04.5h1.38V2.15h-1.43v2.53c0 .133-.02.263-.06.39a.926.926 0 0 1-.18.33.932.932 0 0 1-.29.225.854.854 0 0 1-.39.085c-.253 0-.445-.077-.575-.23-.13-.153-.195-.363-.195-.63v-2.7h-1.44v2.91zm2.66-3.76h1.23V.16h-1.23V1.3zm-1.93 0h1.23V.16h-1.23V1.3zm5.1 5.54h1.44V4.52c0-.373.105-.662.315-.865.21-.203.485-.305.825-.305.2 0 .373.023.52.07l.23-1.27a1.25 1.25 0 0 0-.265-.07 2.305 2.305 0 0 0-.325-.02c-.333 0-.605.073-.815.22-.21.147-.375.3-.495.46l-.05-.59h-1.38v4.69zm4.12-5.38h1.54V.17h-1.54v1.29zm.05 5.38h1.44V2.15h-1.44v4.69zm6.11-1.56c-.1.113-.234.218-.4.315a1.218 1.218 0 0 1-.62.145.968.968 0 0 1-.465-.11 1.143 1.143 0 0 1-.35-.285 1.227 1.227 0 0 1-.22-.4 1.49 1.49 0 0 1 0-.93 1.128 1.128 0 0 1 .57-.67c.136-.07.291-.105.465-.105.253 0 .456.047.61.14.153.093.283.2.39.32l.87-.94a2.372 2.372 0 0 0-.79-.56c-.314-.14-.684-.21-1.11-.21-.367 0-.705.065-1.015.195a2.417 2.417 0 0 0-1.325 1.33c-.127.303-.19.628-.19.975 0 .367.061.703.185 1.01a2.287 2.287 0 0 0 1.31 1.315c.31.123.655.185 1.035.185.433 0 .808-.077 1.125-.23.316-.153.571-.337.765-.55l-.84-.94zm1.7 1.56h1.44V4.32c0-.14.02-.272.06-.395a.897.897 0 0 1 .48-.55.942.942 0 0 1 .41-.085c.233 0 .42.077.56.23.14.153.21.367.21.64v2.68h1.43v-2.9c0-.627-.162-1.1-.485-1.42-.324-.32-.755-.48-1.295-.48-.26 0-.517.048-.77.145a1.468 1.468 0 0 0-.61.415V.17h-1.43v6.67z"/></svg>