<?xml version="1.0" standalone="no"?>
<!DOCTYPE svg PUBLIC "-//W3C//DTD SVG 20010904//EN"
 "http://www.w3.org/TR/2001/REC-SVG-20010904/DTD/svg10.dtd">
<svg version="1.0" xmlns="http://www.w3.org/2000/svg"
 width="900.000000pt" height="900.000000pt" viewBox="0 0 900.000000 900.000000"
 preserveAspectRatio="xMidYMid meet">
<metadata>
Created by potrace 1.14, written by Peter Selinger 2001-2017
</metadata>
<g transform="translate(0.000000,900.000000) scale(0.100000,-0.100000)"
fill="#000000" stroke="none">
<path d="M19 7953 c11 -27 348 -860 751 -1853 402 -993 997 -2463 1323 -3267
326 -805 594 -1463 597 -1463 3 0 186 448 407 996 l403 996 -372 917 c-204
504 -627 1546 -939 2316 l-567 1400 -811 3 -811 2 19 -47z"/>
<path d="M3751 7978 c-5 -13 -243 -602 -530 -1310 -287 -707 -521 -1291 -521
-1297 0 -8 233 -10 806 -9 l806 3 403 995 c221 547 461 1140 533 1318 l130
322 -809 0 -809 0 -9 -22z"/>
<path d="M5898 6612 c-351 -867 -1384 -3421 -2065 -5102 l-209 -515 805 -3
c443 -1 808 1 811 5 4 5 245 596 536 1315 291 719 532 1308 535 1308 3 0 26
-51 51 -112 259 -648 1012 -2505 1018 -2511 3 -4 369 -6 812 -5 l806 3 -533
1315 -533 1315 -806 3 c-523 1 -806 6 -806 12 0 5 180 455 400 999 l400 989
-403 996 c-221 547 -404 996 -407 996 -3 0 -188 -454 -412 -1008z"/>
</g>
</svg>
