<svg xmlns="http://www.w3.org/2000/svg" viewBox="0 0 311.7326 398.92345"><defs><style>.cls-1{stroke-dasharray:0 0 0 0 2.88 1.44 .24 1.44}.cls-1,.cls-2,.cls-3,.cls-4,.cls-5,.cls-6,.cls-7{fill:none;stroke-linecap:round;stroke-linejoin:round}.cls-1,.cls-3,.cls-7{stroke:#194164;stroke-width:.28346px}.cls-2{stroke:#646464}.cls-2,.cls-4,.cls-6{stroke-width:.14173px}.cls-3,.cls-4{stroke-dasharray:0 0 1.44 1.44}.cls-4,.cls-6{stroke:#969696}.cls-5{stroke:#000;stroke-width:.288px}.cls-8{fill:#fff}.cls-8,.cls-9{fill-rule:evenodd}</style></defs><g id="Plan"><path class="cls-7" d="M117.742 267.022v5.04"/><path class="cls-5" d="M118.462 266.302v5.76"/><path class="cls-7" d="M116.542 268.462v3.6M117.742 267.022v5.04"/><path class="cls-5" d="M117.742 272.062h.72"/><path class="cls-7" d="M116.542 272.062h1.2M118.462 266.302v5.76M116.542 268.462v3.6"/><path class="cls-6" d="M130.942 60.622h59.28v3.6h-59.28z"/><path class="cls-7" d="M108.382 90.382h17.52v69.12h-17.52zM123.742 107.902h2.16M123.742 124.942h2.16M123.742 141.982h2.16M123.742 158.782h2.16M102.142 159.502h16.32v.48h-16.32zM117.982 159.982h.48v17.04h-.48zM102.622 176.542h15.36v.48h-15.36zM102.622 159.982h15.36v.72h-15.36zM102.142 159.982h.48v17.04h-.48z"/><path class="cls-8" d="M113.602 157.963h8.93c.26 0 .519-.05.759-.148a2.01 2.01 0 0 0 1.072-1.076c.101-.24.152-.499.152-.758v-11.198c0-.13-.012-.26-.039-.387a1.848 1.848 0 0 0-.113-.372 2.019 2.019 0 0 0-.73-.89 1.982 1.982 0 0 0-1.1-.335h-8.931a1.977 1.977 0 0 0-1.985 1.984v11.198c0 .26.053.518.151.758a1.994 1.994 0 0 0 1.075 1.075c.24.099.497.15.759.15"/><path class="cls-7" d="M113.602 157.963h8.93c.26 0 .519-.05.759-.148a2.01 2.01 0 0 0 1.072-1.076c.101-.24.152-.499.152-.758v-11.198c0-.13-.012-.26-.039-.387a1.848 1.848 0 0 0-.113-.372 2.019 2.019 0 0 0-.73-.89 1.982 1.982 0 0 0-1.1-.335h-8.931a1.977 1.977 0 0 0-1.985 1.984v11.198c0 .26.053.518.151.758a1.994 1.994 0 0 0 1.075 1.075c.24.099.497.15.759.15"/><path class="cls-8" d="M116.062 150.382c0-.659-.543-1.2-1.2-1.2s-1.2.541-1.2 1.2.542 1.2 1.2 1.2 1.2-.542 1.2-1.2"/><path class="cls-7" d="M116.062 150.382c0-.659-.543-1.2-1.2-1.2s-1.2.541-1.2 1.2.542 1.2 1.2 1.2 1.2-.542 1.2-1.2"/><path class="cls-8" d="M109.822 108.382v15.84h14.64v-15.84h-14.64"/><path class="cls-7" d="M109.822 108.382h14.64v15.84h-14.64z"/><path class="cls-8" d="M122.542 112.342c0-1.514-1.246-2.76-2.76-2.76s-2.76 1.246-2.76 2.76 1.245 2.76 2.76 2.76 2.76-1.246 2.76-2.76"/><path class="cls-7" d="M122.542 112.342c0-1.514-1.246-2.76-2.76-2.76s-2.76 1.246-2.76 2.76 1.245 2.76 2.76 2.76 2.76-1.246 2.76-2.76"/><path class="cls-8" d="M115.342 111.382c0-1.251-1.03-2.28-2.28-2.28s-2.28 1.029-2.28 2.28 1.03 2.28 2.28 2.28 2.28-1.03 2.28-2.28"/><path class="cls-7" d="M115.342 111.382c0-1.251-1.03-2.28-2.28-2.28s-2.28 1.029-2.28 2.28 1.03 2.28 2.28 2.28 2.28-1.03 2.28-2.28"/><path class="cls-8" d="M122.062 119.902c0-1.185-1.03-2.16-2.28-2.16s-2.28.975-2.28 2.16 1.03 2.16 2.28 2.16 2.28-.975 2.28-2.16"/><path class="cls-7" d="M122.062 119.902c0-1.185-1.03-2.16-2.28-2.16s-2.28.975-2.28 2.16 1.03 2.16 2.28 2.16 2.28-.975 2.28-2.16"/><path class="cls-8" d="M116.302 119.662c0-1.58-1.301-2.88-2.88-2.88s-2.88 1.3-2.88 2.88 1.3 2.88 2.88 2.88 2.88-1.3 2.88-2.88"/><path class="cls-7" d="M116.302 119.662c0-1.58-1.301-2.88-2.88-2.88s-2.88 1.3-2.88 2.88 1.3 2.88 2.88 2.88 2.88-1.3 2.88-2.88M123.742 90.862h2.16M102.142 89.662h16.32v.72h-16.32zM117.982 72.622h.48v17.04h-.48zM102.622 72.622h15.36v.72h-15.36zM102.622 89.182h15.36v.48h-15.36zM117.982 71.662h.48v.96h-.48zM102.142 72.622h.48v17.04h-.48zM100.942 177.022h17.52v.48h-17.52zM100.222 158.542h7.68"/><path class="cls-5" d="M100.222 159.262h8.16"/><path class="cls-7" d="M100.222 157.102h6.24M100.222 158.542h7.68M100.222 159.262h8.16M100.222 157.102h6.24"/><path class="cls-5" d="M100.222 158.542v.72"/><path class="cls-7" d="M100.222 157.102v1.44M107.902 158.542v-67.44"/><path class="cls-5" d="M108.382 159.262v-68.88"/><path class="cls-7" d="M106.462 157.102v-64.56M107.902 158.542v-67.44M108.382 159.262v-68.88M106.462 157.102v-64.56M107.902 91.102h-7.68"/><path class="cls-5" d="M108.382 90.382h-8.16"/><path class="cls-7" d="M106.462 92.542h-6.24M107.902 91.102h-7.68"/><path class="cls-5" d="M100.222 91.102v-.72"/><path class="cls-7" d="M100.222 92.542v-1.44M108.382 90.382h-8.16M106.462 92.542h-6.24"/><path class="cls-1" d="M118.462 90.382v69.12"/><path class="cls-7" d="M118.462 159.022v.48M100.942 212.542h17.52v.48h-17.52zM117.982 213.022h.48v17.04h-.48zM102.622 229.582h15.36v.48h-15.36zM102.622 213.022h15.36v.48h-15.36zM102.142 213.022h.48v17.04h-.48zM117.982 230.062h.48v17.04h-.48zM102.622 230.062h15.36v.48h-15.36zM102.622 246.382h15.36v.72h-15.36zM102.142 230.062h.48v17.04h-.48zM117.982 247.102h.48v17.04h-.48zM102.622 263.422h15.36v.72h-15.36zM102.622 247.102h15.36v.48h-15.36zM102.142 247.102h.48v17.04h-.48zM117.982 264.142h.48v2.16h-.48z"/><path class="cls-8" d="M114.142 263.422v2.64h-10.08v-2.64h10.08"/><path class="cls-7" d="M104.062 263.422h10.08v2.64h-10.08zM114.382 263.422z"/><path class="cls-4" d="M104.782 263.422v-8.64M104.782 254.782l1.68.24 1.68.48 1.44.72 1.2 1.2 1.2 1.2.72 1.44.48 1.68.24 1.68"/><path class="cls-7" d="M210.622 256.702h39.36"/><path class="cls-5" d="M210.622 255.982h40.08"/><path class="cls-7" d="M210.622 258.142h37.92M210.622 256.702h39.36M210.622 255.982h40.08M210.622 258.142h37.92"/><path class="cls-5" d="M210.622 256.702v-.72"/><path class="cls-7" d="M210.622 258.142v-1.44M249.982 260.542h18.48"/><path class="cls-5" d="M250.702 259.822h17.04"/><path class="cls-7" d="M248.542 261.982h21.12M249.982 260.542h18.48M250.702 259.822h17.04M248.542 261.982h21.12M268.462 256.702h28.08"/><path class="cls-5" d="M267.742 255.982h28.8"/><path class="cls-7" d="M269.662 258.142h26.88M268.462 256.702h28.08"/><path class="cls-5" d="M296.542 256.702v-.72"/><path class="cls-7" d="M296.542 258.142v-1.44M267.742 255.982h28.8M269.662 258.142h26.88"/><path class="cls-8" d="M241.457 240.744a3.861 3.861 0 0 0-4.277 0 7.924 7.924 0 0 0-2.894 6.197l.254 9.031h9.557l.252-9.029a7.92 7.92 0 0 0-2.892-6.199"/><path class="cls-7" d="M241.457 240.744a3.861 3.861 0 0 0-4.277 0 7.924 7.924 0 0 0-2.894 6.197l.254 9.031h9.557l.252-9.029a7.92 7.92 0 0 0-2.892-6.199"/><path class="cls-8" d="M239.319 250.86a3.834 3.834 0 0 0 3.967-3.79 6.847 6.847 0 0 0-2.499-5.41 2.732 2.732 0 0 0-2.937 0 6.847 6.847 0 0 0-2.499 5.41 3.834 3.834 0 0 0 3.967 3.79"/><path class="cls-7" d="M239.319 250.86a3.834 3.834 0 0 0 3.967-3.79 6.847 6.847 0 0 0-2.499-5.41 2.732 2.732 0 0 0-2.937 0 6.847 6.847 0 0 0-2.499 5.41 3.834 3.834 0 0 0 3.967 3.79"/><path class="cls-8" d="M296.294 255.547v-47.99l-.03-.08-.034-.076-.06-.06-.06-.06-.077-.031-.08-.034H275.377l-.08.034-.076.03-.06.06-.06.06-.033.078-.032.079V255.63l.032.08.033.076.06.06.06.06.077.034.08.031H295.91l.044-.007.04-.01.039-.014.038-.017.034-.024.036-.021.029-.032.03-.028.023-.036.024-.034.016-.038.015-.039.01-.043.006-.04v-.042"/><path class="cls-7" d="M296.294 255.547v-47.99l-.03-.08-.034-.076-.06-.06-.06-.06-.077-.031-.08-.034H275.377l-.08.034-.076.03-.06.06-.06.06-.033.078-.032.079V255.63l.032.08.033.076.06.06.06.06.077.034.08.031H295.91l.044-.007.04-.01.039-.014.038-.017.034-.024.036-.021.029-.032.03-.028.023-.036.024-.034.016-.038.015-.039.01-.043.006-.04v-.042"/><path class="cls-8" d="M294.168 250.303v-37.418a3.497 3.497 0 0 0-.26-1.3 3.545 3.545 0 0 0-.313-.589 3.495 3.495 0 0 0-.939-.938 3.383 3.383 0 0 0-1.891-.574h-10.2c-.446 0-.89.089-1.303.26-.413.17-.787.42-1.102.736a3.409 3.409 0 0 0-.998 2.405v37.418a3.486 3.486 0 0 0 .26 1.3c.085.208.19.404.313.59a3.499 3.499 0 0 0 .939.938 3.386 3.386 0 0 0 1.89.573h10.2a3.428 3.428 0 0 0 1.304-.259 3.389 3.389 0 0 0 1.527-1.253c.122-.185.227-.381.314-.588a3.5 3.5 0 0 0 .26-1.3"/><path class="cls-7" d="M294.168 250.303v-37.418a3.497 3.497 0 0 0-.26-1.3 3.545 3.545 0 0 0-.313-.589 3.495 3.495 0 0 0-.939-.938 3.383 3.383 0 0 0-1.891-.574h-10.2c-.446 0-.89.089-1.303.26-.413.17-.787.42-1.102.736a3.409 3.409 0 0 0-.998 2.405v37.418a3.486 3.486 0 0 0 .26 1.3c.085.208.19.404.313.59a3.499 3.499 0 0 0 .939.938 3.386 3.386 0 0 0 1.89.573h10.2a3.428 3.428 0 0 0 1.304-.259 3.389 3.389 0 0 0 1.527-1.253c.122-.185.227-.381.314-.588a3.5 3.5 0 0 0 .26-1.3"/><path class="cls-8" d="M266.943 255.972v-12.048a1.132 1.132 0 0 0-1.133-1.133h-13.325c-.149 0-.295.03-.432.087a1.13 1.13 0 0 0-.7 1.046v12.048h15.59"/><path class="cls-7" d="M266.943 255.972v-12.048a1.132 1.132 0 0 0-1.133-1.133h-13.325c-.149 0-.295.03-.432.087a1.13 1.13 0 0 0-.7 1.046v12.048h15.59M250.702 255.982v3.84M250.702 259.822h17.04M267.742 259.822v-3.84M268.462 260.542v-3.84"/><path class="cls-5" d="M267.742 259.822v-3.84"/><path class="cls-7" d="M269.662 261.982v-3.84M268.462 260.542v-3.84M267.742 259.822v-3.84M269.662 261.982v-3.84M249.982 256.702v3.84"/><path class="cls-5" d="M250.702 255.982v3.84"/><path class="cls-7" d="M248.542 258.142v3.84M249.982 256.702v3.84M250.702 255.982v3.84M248.542 258.142v3.84"/><path class="cls-5" d="M250.702 255.982h17.04"/><path class="cls-8" d="M100.222 217.102h-7.2v54.72h7.2v-54.72"/><path class="cls-6" d="M100.462 220.462l-3.36-3.36M100.462 224.542l-7.2-7.2M100.462 228.382l-7.2-7.2M100.462 232.462l-7.2-7.2M100.462 236.542l-7.2-7.2M100.462 240.382l-7.2-7.2M100.462 244.462l-7.2-7.2M100.462 248.542l-7.2-7.2M100.462 252.382l-7.2-7.2M100.462 256.462l-7.2-7.2M100.462 260.542l-7.2-7.2M100.462 264.622l-7.2-7.2M100.462 268.462l-7.2-7.2M99.502 271.822l-6.24-6.48M95.662 271.822l-2.4-2.4M99.982 271.822l.48-.48M95.902 271.822l4.56-4.32M93.262 270.622l7.2-7.2M93.262 266.542l7.2-7.2M93.262 262.462l7.2-7.2M93.262 258.622l7.2-7.2M93.262 254.542l7.2-7.2M93.262 250.462l7.2-7.2M93.262 246.622l7.2-7.2M93.262 242.542l7.2-7.2M93.262 238.462l7.2-7.2M93.262 234.622l7.2-7.2M93.262 230.542l7.2-7.2M93.262 226.462l7.2-7.2M93.262 222.382l5.28-5.28M93.262 218.542l1.2-1.44"/><path class="cls-8" d="M100.222 217.102h-7.2v54.72h7.2v-54.72"/><path class="cls-6" d="M100.462 220.462l-3.36-3.36M100.462 224.542l-7.2-7.2M100.462 228.382l-7.2-7.2M100.462 232.462l-7.2-7.2M100.462 236.542l-7.2-7.2M100.462 240.382l-7.2-7.2M100.462 244.462l-7.2-7.2M100.462 248.542l-7.2-7.2M100.462 252.382l-7.2-7.2M100.462 256.462l-7.2-7.2M100.462 260.542l-7.2-7.2M100.462 264.622l-7.2-7.2M100.462 268.462l-7.2-7.2M99.502 271.822l-6.24-6.48M95.662 271.822l-2.4-2.4M99.982 271.822l.48-.48M95.902 271.822l4.56-4.32M93.262 270.622l7.2-7.2M93.262 266.542l7.2-7.2M93.262 262.462l7.2-7.2M93.262 258.622l7.2-7.2M93.262 254.542l7.2-7.2M93.262 250.462l7.2-7.2M93.262 246.622l7.2-7.2M93.262 242.542l7.2-7.2M93.262 238.462l7.2-7.2M93.262 234.622l7.2-7.2M93.262 230.542l7.2-7.2M93.262 226.462l7.2-7.2M93.262 222.382l5.28-5.28M93.262 218.542l1.2-1.44"/><path class="cls-8" d="M100.222 66.382l-7.2 5.28v105.6h7.2V66.382"/><path class="cls-6" d="M100.462 68.062l-1.2-.96M100.462 72.142l-3.36-3.36M100.462 76.222l-5.76-5.76M100.462 80.062l-7.2-7.2M100.462 84.142l-7.2-7.2M100.462 88.222l-7.2-7.2M100.462 92.062l-7.2-7.2M100.462 96.142l-7.2-7.2M100.462 100.222l-7.2-7.2M100.462 104.062l-7.2-7.2M100.462 108.142l-7.2-7.2M100.462 112.222l-7.2-7.2M100.462 116.302l-7.2-7.2M100.462 120.142l-7.2-7.2M100.462 124.222l-7.2-7.2M100.462 128.302l-7.2-7.2M100.462 132.142l-7.2-7.2M100.462 136.222l-7.2-7.2M100.462 140.302l-7.2-7.2M100.462 144.382l-7.2-7.2M100.462 148.222l-7.2-7.2M100.462 152.302l-7.2-7.2M100.462 156.382l-7.2-7.2M100.462 160.222l-7.2-7.2M100.462 164.302l-7.2-7.2M100.462 168.382l-7.2-7.2M100.462 172.222l-7.2-7.2M100.462 176.302l-7.2-7.2M97.342 177.262l-4.08-4.08M98.302 177.262l2.16-2.16M94.222 177.262l6.24-6M93.262 174.382l7.2-7.2M93.262 170.302l7.2-7.2M93.262 166.462l7.2-7.2M93.262 162.382l7.2-7.2M93.262 158.302l7.2-7.2M93.262 154.222l7.2-7.2M93.262 150.382l7.2-7.2M93.262 146.302l7.2-7.2M93.262 142.222l7.2-7.2M93.262 138.382l7.2-7.2M93.262 134.302l7.2-7.2M93.262 130.222l7.2-7.2M93.262 126.382l7.2-7.2M93.262 122.302l7.2-7.2M93.262 118.222l7.2-7.2M93.262 114.142l7.2-7.2M93.262 110.302l7.2-7.2M93.262 106.222l7.2-7.2M93.262 102.142l7.2-7.2M93.262 98.302l7.2-7.2M93.262 94.222l7.2-7.2M93.262 90.142l7.2-7.2M93.262 86.302l7.2-7.2M93.262 82.222l7.2-7.2M93.262 78.142l7.2-7.2M93.262 74.062l7.2-7.2"/><path class="cls-8" d="M100.222 66.382l-7.2 5.28v105.6h7.2V66.382"/><path class="cls-6" d="M100.462 68.062l-1.2-.96M100.462 72.142l-3.36-3.36M100.462 76.222l-5.76-5.76M100.462 80.062l-7.2-7.2M100.462 84.142l-7.2-7.2M100.462 88.222l-7.2-7.2M100.462 92.062l-7.2-7.2M100.462 96.142l-7.2-7.2M100.462 100.222l-7.2-7.2M100.462 104.062l-7.2-7.2M100.462 108.142l-7.2-7.2M100.462 112.222l-7.2-7.2M100.462 116.302l-7.2-7.2M100.462 120.142l-7.2-7.2M100.462 124.222l-7.2-7.2M100.462 128.302l-7.2-7.2M100.462 132.142l-7.2-7.2M100.462 136.222l-7.2-7.2M100.462 140.302l-7.2-7.2M100.462 144.382l-7.2-7.2M100.462 148.222l-7.2-7.2M100.462 152.302l-7.2-7.2M100.462 156.382l-7.2-7.2M100.462 160.222l-7.2-7.2M100.462 164.302l-7.2-7.2M100.462 168.382l-7.2-7.2M100.462 172.222l-7.2-7.2M100.462 176.302l-7.2-7.2M97.342 177.262l-4.08-4.08M98.302 177.262l2.16-2.16M94.222 177.262l6.24-6M93.262 174.382l7.2-7.2M93.262 170.302l7.2-7.2M93.262 166.462l7.2-7.2M93.262 162.382l7.2-7.2M93.262 158.302l7.2-7.2M93.262 154.222l7.2-7.2M93.262 150.382l7.2-7.2M93.262 146.302l7.2-7.2M93.262 142.222l7.2-7.2M93.262 138.382l7.2-7.2M93.262 134.302l7.2-7.2M93.262 130.222l7.2-7.2M93.262 126.382l7.2-7.2M93.262 122.302l7.2-7.2M93.262 118.222l7.2-7.2M93.262 114.142l7.2-7.2M93.262 110.302l7.2-7.2M93.262 106.222l7.2-7.2M93.262 102.142l7.2-7.2M93.262 98.302l7.2-7.2M93.262 94.222l7.2-7.2M93.262 90.142l7.2-7.2M93.262 86.302l7.2-7.2M93.262 82.222l7.2-7.2M93.262 78.142l7.2-7.2M93.262 74.062l7.2-7.2"/><path class="cls-8" d="M100.222 212.782h-4.08l4.08 4.32v-4.32"/><path class="cls-6" d="M100.462 216.382l-3.84-3.6M99.502 216.142l.96-.96M97.582 214.222l1.2-1.44"/><path class="cls-8" d="M100.222 212.782h-4.08l4.08 4.32v-4.32"/><path class="cls-6" d="M100.462 216.382l-3.84-3.6M99.502 216.142l.96-.96M97.582 214.222l1.2-1.44"/><path class="cls-7" d="M99.022 207.022h1.68v5.76h-1.68zM99.022 177.262h1.68v2.4h-1.68zM99.022 179.662h1.68v27.36h-1.68zM99.022 207.022v-27.36"/><path class="cls-1" d="M93.022 207.262v-27.84"/><path class="cls-7" d="M93.022 179.902v-.48"/><path class="cls-8" d="M93.022 212.782v-5.52h6v5.52"/><path class="cls-6" d="M99.262 211.102l-4.08-3.84M96.622 212.782l-3.36-3.6M98.782 212.782l.48-.24M94.942 212.782l4.32-4.32M93.262 210.382l3.12-3.12"/><path class="cls-8" d="M93.022 177.262v2.16h6v-2.16"/><path class="cls-6" d="M99.262 179.182l-1.92-1.92M95.422 179.422l-2.16-2.16M96.142 179.422l2.16-2.16M93.262 178.462l.96-1.2M100.704 206.933c14.928 0 27.214-12.283 27.214-27.214M100.702 179.662h27.12"/><path class="cls-8" d="M.622 219.022l5.52-6.96H.622v6.96"/><path class="cls-6" d="M5.182 213.502l-1.44-1.44M3.502 215.662l-2.64-2.64M1.582 217.822l-.72-.72M.862 218.782l1.2-1.44M.862 214.702l2.4-2.64"/><path class="cls-8" d="M.622 219.022l5.52-6.96H.622v6.96"/><path class="cls-6" d="M5.182 213.502l-1.44-1.44M3.502 215.662l-2.64-2.64M1.582 217.822l-.72-.72M.862 218.782l1.2-1.44M.862 214.702l2.4-2.64"/><path class="cls-8" d="M7.822 179.662v-108l-7.2-5.28v113.28h7.2"/><path class="cls-6" d="M8.062 71.902l-.96-.96M8.062 75.982l-7.2-7.2M8.062 79.822l-7.2-7.2M8.062 83.902l-7.2-7.2M8.062 87.982l-7.2-7.2M8.062 92.062l-7.2-7.2M8.062 95.902l-7.2-7.2M8.062 99.982l-7.2-7.2M8.062 104.062l-7.2-7.2M8.062 107.902l-7.2-7.2M8.062 111.982l-7.2-7.2M8.062 116.062l-7.2-7.2M8.062 119.902l-7.2-7.2M8.062 123.982l-7.2-7.2M8.062 128.062l-7.2-7.2M8.062 132.142l-7.2-7.2M8.062 135.982l-7.2-7.2M8.062 140.062l-7.2-7.2M8.062 144.142l-7.2-7.2M8.062 147.982l-7.2-7.2M8.062 152.062l-7.2-7.2M8.062 156.142l-7.2-7.2M8.062 159.982l-7.2-7.2M8.062 164.062l-7.2-7.2M8.062 168.142l-7.2-7.2M8.062 172.222l-7.2-7.2M8.062 176.062l-7.2-7.2M7.342 179.662l-6.48-6.72M3.502 179.662l-2.64-2.64M7.582 179.662l.48-.24M3.742 179.662l4.32-4.32M.862 178.702l7.2-7.2M.862 174.622l7.2-7.2M.862 170.542l7.2-7.2M.862 166.462l7.2-7.2M.862 162.622l7.2-7.2M.862 158.542l7.2-7.2M.862 154.462l7.2-7.2M.862 150.622l7.2-7.2M.862 146.542l7.2-7.2M.862 142.462l7.2-7.2M.862 138.382l7.2-7.2M.862 134.542l7.2-7.2M.862 130.462l7.2-7.2M.862 126.382l7.2-7.2M.862 122.542l7.2-7.2M.862 118.462l7.2-7.2M.862 114.382l7.2-7.2M.862 110.542l7.2-7.2M.862 106.462l7.2-7.2M.862 102.382l7.2-7.2M.862 98.302l7.2-7.2M.862 94.462l7.2-7.2M.862 90.382l7.2-7.2M.862 86.302l7.2-7.2M.862 82.462l7.2-7.2M.862 78.382l6.72-6.96M.862 74.302l4.56-4.56M.862 70.462l2.16-2.4"/><path class="cls-8" d="M7.822 179.662v-108l-7.2-5.28v113.28h7.2"/><path class="cls-6" d="M8.062 71.902l-.96-.96M8.062 75.982l-7.2-7.2M8.062 79.822l-7.2-7.2M8.062 83.902l-7.2-7.2M8.062 87.982l-7.2-7.2M8.062 92.062l-7.2-7.2M8.062 95.902l-7.2-7.2M8.062 99.982l-7.2-7.2M8.062 104.062l-7.2-7.2M8.062 107.902l-7.2-7.2M8.062 111.982l-7.2-7.2M8.062 116.062l-7.2-7.2M8.062 119.902l-7.2-7.2M8.062 123.982l-7.2-7.2M8.062 128.062l-7.2-7.2M8.062 132.142l-7.2-7.2M8.062 135.982l-7.2-7.2M8.062 140.062l-7.2-7.2M8.062 144.142l-7.2-7.2M8.062 147.982l-7.2-7.2M8.062 152.062l-7.2-7.2M8.062 156.142l-7.2-7.2M8.062 159.982l-7.2-7.2M8.062 164.062l-7.2-7.2M8.062 168.142l-7.2-7.2M8.062 172.222l-7.2-7.2M8.062 176.062l-7.2-7.2M7.342 179.662l-6.48-6.72M3.502 179.662l-2.64-2.64M7.582 179.662l.48-.24M3.742 179.662l4.32-4.32M.862 178.702l7.2-7.2M.862 174.622l7.2-7.2M.862 170.542l7.2-7.2M.862 166.462l7.2-7.2M.862 162.622l7.2-7.2M.862 158.542l7.2-7.2M.862 154.462l7.2-7.2M.862 150.622l7.2-7.2M.862 146.542l7.2-7.2M.862 142.462l7.2-7.2M.862 138.382l7.2-7.2M.862 134.542l7.2-7.2M.862 130.462l7.2-7.2M.862 126.382l7.2-7.2M.862 122.542l7.2-7.2M.862 118.462l7.2-7.2M.862 114.382l7.2-7.2M.862 110.542l7.2-7.2M.862 106.462l7.2-7.2M.862 102.382l7.2-7.2M.862 98.302l7.2-7.2M.862 94.462l7.2-7.2M.862 90.382l7.2-7.2M.862 86.302l7.2-7.2M.862 82.462l7.2-7.2M.862 78.382l6.72-6.96M.862 74.302l4.56-4.56M.862 70.462l2.16-2.4"/><path class="cls-7" d="M.142 179.662h1.68v2.64H.142zM.142 209.422h1.68v2.64H.142zM.142 182.302h1.68v27.12H.142zM1.822 182.302v27.12"/><path class="cls-1" d="M7.822 182.062v27.6"/><path class="cls-7" d="M7.822 209.182v.48"/><path class="cls-8" d="M7.822 179.662v2.4h-6v-2.4h-1.2"/><path class="cls-6" d="M8.062 180.142l-.72-.48M5.902 182.062l-2.4-2.4M5.182 182.062l2.4-2.4M2.062 181.342l1.68-1.68"/><path class="cls-8" d="M7.756 212.035v-2.265H1.803v2.265H.669"/><path class="cls-6" d="M7.822 212.062l-2.4-2.4M3.742 212.062l-1.68-1.92M7.342 212.062l.72-.48M3.262 212.062l2.4-2.4"/><path class="cls-9" d="M129.262 382.222v14.88h-18.24v-14.88h18.24"/><path class="cls-8" d="M129.262 397.102v-3.6h-18.24v3.6h18.24"/><path class="cls-6" d="M111.262 395.662l1.44 1.44M113.182 393.502l3.6 3.6M117.022 393.502l3.6 3.6M121.102 393.502l3.6 3.6M125.182 393.502l3.6 3.6M129.022 393.502l.48.24"/><path class="cls-8" d="M129.262 393.502v-.48h-18.24v.48h18.24M129.262 393.022v-5.76h-18.24v5.76h18.24"/><path class="cls-6" d="M111.262 387.262v5.76M112.462 387.262v5.76M113.902 387.262v5.76M115.342 387.262v5.76M116.782 387.262v5.76M118.222 387.262v5.76M119.662 387.262v5.76M121.102 387.262v5.76M122.542 387.262v5.76M123.982 387.262v5.76M125.422 387.262v5.76M126.862 387.262v5.76M128.062 387.262v5.76"/><path class="cls-8" d="M129.262 387.262v-5.04h-18.24v5.04h18.24"/><path class="cls-6" d="M111.262 383.662l3.6 3.6M113.902 382.222l5.04 5.04M117.742 382.222l5.04 5.04M121.822 382.222l5.04 5.04M125.902 382.222l3.6 3.6M129.262 387.262h-18.24M129.262 393.022h-18.24"/><path class="cls-7" d="M129.262 397.102h-18.24M129.262 382.222h-18.24"/><path class="cls-9" d="M232.462 382.222v14.88h-40.32v-14.88h40.32"/><path class="cls-8" d="M232.462 397.102v-3.6h-40.32v3.6h40.32"/><path class="cls-6" d="M192.382 396.622l.48.48M193.342 393.502l3.6 3.6M197.182 393.502l3.6 3.6M201.262 393.502l3.6 3.6M205.342 393.502l3.6 3.6M209.182 393.502l3.6 3.6M213.262 393.502l3.6 3.6M217.342 393.502l3.6 3.6M221.182 393.502l3.6 3.6M225.262 393.502l3.6 3.6M229.342 393.502l3.36 3.36"/><path class="cls-8" d="M232.462 393.502v-.48h-40.32v.48h40.32M232.462 393.022v-5.76h-40.32v5.76h40.32"/><path class="cls-6" d="M193.342 387.262v5.76M194.782 387.262v5.76M196.222 387.262v5.76M197.662 387.262v5.76M199.102 387.262v5.76M200.542 387.262v5.76M201.742 387.262v5.76M203.182 387.262v5.76M204.622 387.262v5.76M206.062 387.262v5.76M207.502 387.262v5.76M208.942 387.262v5.76M210.382 387.262v5.76M211.822 387.262v5.76M213.262 387.262v5.76M214.702 387.262v5.76M216.142 387.262v5.76M217.342 387.262v5.76M218.782 387.262v5.76M220.222 387.262v5.76M221.662 387.262v5.76M223.102 387.262v5.76M224.542 387.262v5.76M225.982 387.262v5.76M227.422 387.262v5.76M228.862 387.262v5.76M230.302 387.262v5.76M231.742 387.262v5.76"/><path class="cls-8" d="M232.462 387.262v-5.04h-40.32v5.04h40.32"/><path class="cls-6" d="M192.382 384.622l2.64 2.64M194.062 382.222l5.04 5.04M197.902 382.222l5.04 5.04M201.982 382.222l5.04 5.04M206.062 382.222l5.04 5.04M209.902 382.222l5.04 5.04M213.982 382.222l5.04 5.04M218.062 382.222l5.04 5.04M222.142 382.222l5.04 5.04M225.982 382.222l5.04 5.04M230.062 382.222l2.64 2.4M232.462 387.262h-40.32M232.462 393.022h-40.32"/><path class="cls-7" d="M232.462 397.102h-40.32M232.462 382.222h-40.32"/><path class="cls-9" d="M273.262 397.102h38.16l-14.88-14.88h-23.28v14.88"/><path class="cls-8" d="M273.262 397.102h38.16l-3.6-3.6h-34.56v3.6"/><path class="cls-6" d="M273.502 393.502l3.6 3.6M277.342 393.502l3.6 3.6M281.422 393.502l3.6 3.6M285.502 393.502l3.6 3.6M289.342 393.502l3.6 3.6M293.422 393.502l3.6 3.6M297.502 393.502l3.6 3.6M301.582 393.502l3.6 3.6M305.422 393.502l3.6 3.6"/><path class="cls-8" d="M273.262 393.502h34.56l-.48-.48h-34.08v.48M273.262 393.022h34.08l-5.76-5.76h-28.32v5.76"/><path class="cls-6" d="M274.222 387.262v5.76M275.662 387.262v5.76M276.862 387.262v5.76M278.302 387.262v5.76M279.742 387.262v5.76M281.182 387.262v5.76M282.622 387.262v5.76M284.062 387.262v5.76M285.502 387.262v5.76M286.942 387.262v5.76M288.382 387.262v5.76M289.822 387.262v5.76M291.262 387.262v5.76M292.462 387.262v5.76M293.902 387.262v5.76M295.342 387.262v5.76M296.782 387.262v5.76M298.222 387.262v5.76M299.662 387.262v5.76M301.102 387.262v5.76M302.542 387.982v5.04M303.982 389.422v3.6M305.422 390.862v2.16M306.862 392.302v.72"/><path class="cls-8" d="M273.262 387.262h28.32l-5.04-5.04h-23.28v5.04"/><path class="cls-6" d="M273.502 385.342l1.68 1.92M274.222 382.222l5.04 5.04M278.062 382.222l5.04 5.04M282.142 382.222l5.04 5.04M286.222 382.222l5.04 5.04M290.302 382.222l5.04 5.04M294.142 382.222l5.04 5.04M301.582 387.262h-28.32M307.342 393.022h-34.08"/><path class="cls-7" d="M311.422 397.102h-38.16M296.542 382.222h-23.28M190.222 389.662v7.44h3.36v1.68h-66v-1.68h3.36v-7.44"/><path class="cls-1" d="M192.142 382.222h-62.88"/><path class="cls-7" d="M129.262 387.262h62.88v2.4h-62.88zM188.542 389.662v-2.4M132.862 389.662v-2.4M192.142 387.262v2.4M173.182 387.262v2.4M188.542 387.262v2.4M169.102 387.262v2.4M173.182 387.262v2.4M152.302 387.262v2.4M169.102 387.262v2.4M148.222 387.262v2.4M152.302 387.262v2.4M132.862 387.262v2.4M148.222 387.262v2.4M129.262 387.262v2.4"/><path class="cls-8" d="M192.123 393.027h-1.844v-3.401h1.844"/><path class="cls-6" d="M190.462 389.662v3.36M191.902 389.662v3.36M192.123 393.027h-1.844v-3.401h1.844"/><path class="cls-8" d="M192.142 397.102h-1.92v-3.6h1.92"/><path class="cls-6" d="M190.462 394.702l1.92 1.92"/><path class="cls-7" d="M190.222 393.502v-3.84"/><path class="cls-8" d="M129.192 393.027h1.843v-3.401h-1.843"/><path class="cls-6" d="M129.502 389.662v3.36M130.942 389.662v3.36M129.192 393.027h1.843v-3.401h-1.843"/><path class="cls-8" d="M129.262 397.102h1.68v-3.6h-1.68"/><path class="cls-6" d="M129.502 393.742l1.68 1.68"/><path class="cls-7" d="M130.942 393.502v-3.84M271.342 389.662v7.44h3.36v1.68h-43.92v-1.68h3.36v-7.44"/><path class="cls-1" d="M273.262 382.222h-40.8"/><path class="cls-7" d="M232.942 382.222h-.48M232.462 387.262h40.8v2.4h-40.8zM269.422 389.662v-2.4M236.062 389.662v-2.4M273.262 387.262v2.4M254.782 387.262v2.4M269.422 387.262v2.4M250.702 387.262v2.4M254.782 387.262v2.4M236.062 387.262v2.4M250.702 387.262v2.4M232.462 387.262v2.4"/><path class="cls-8" d="M273.192 393.027h-1.843v-3.401h1.843"/><path class="cls-6" d="M272.782 389.662v3.36M273.192 393.027h-1.843v-3.401h1.843"/><path class="cls-8" d="M273.262 397.102h-1.92v-3.6h1.92"/><path class="cls-6" d="M271.582 395.662l1.44 1.44"/><path class="cls-7" d="M271.342 393.502v-3.84"/><path class="cls-8" d="M232.373 393.027h1.843v-3.401h-1.843"/><path class="cls-6" d="M232.942 389.662v3.36M232.373 393.027h1.843v-3.401h-1.843"/><path class="cls-8" d="M232.462 397.102h1.68v-3.6h-1.68"/><path class="cls-6" d="M232.702 396.862l.24.24M233.422 393.502l.96.96"/><path class="cls-7" d="M234.142 393.502v-3.84"/><path class="cls-9" d="M296.542 71.662l14.88-14.88h-34.56v14.88h19.68"/><path class="cls-8" d="M307.822 60.142l3.6-3.36h-34.56v3.36h30.96"/><path class="cls-6" d="M277.342 56.782l3.36 3.36M281.422 56.782l3.36 3.36M285.502 56.782l3.36 3.36M289.582 56.782l3.36 3.36M293.422 56.782l3.36 3.36M297.502 56.782l3.36 3.36M301.582 56.782l3.36 3.36M305.422 56.782l2.88 2.88M309.502 56.782l.96.96"/><path class="cls-8" d="M307.342 60.862l.48-.72h-30.96v.72h30.48M301.582 66.382l5.76-5.52h-30.48v5.52h24.72"/><path class="cls-6" d="M306.862 61.582v-.72M305.422 63.022v-2.16M303.982 64.222v-3.36M302.542 65.662v-4.8M301.102 66.382v-5.52M299.662 66.382v-5.52M298.222 66.382v-5.52M296.782 66.382v-5.52M295.342 66.382v-5.52M293.902 66.382v-5.52M292.462 66.382v-5.52M291.262 66.382v-5.52M289.822 66.382v-5.52M288.382 66.382v-5.52M286.942 66.382v-5.52M285.502 66.382v-5.52M284.062 66.382v-5.52M282.622 66.382v-5.52M281.182 66.382v-5.52M279.742 66.382v-5.52M278.302 66.382v-5.52"/><path class="cls-8" d="M296.542 71.662l5.04-5.28h-24.72v5.28h19.68"/><path class="cls-6" d="M277.102 68.302l3.12 3.36M279.022 66.382l5.28 5.28M283.102 66.382l5.28 5.28M286.942 66.382l5.28 5.28M291.022 66.382l5.28 5.28M295.102 66.382l3.36 3.36M299.182 66.382l1.2 1.44M276.862 66.382h24.72M276.862 60.862h30.48"/><path class="cls-7" d="M276.862 56.782h34.56M276.862 71.662h19.68"/><path class="cls-9" d="M192.142 71.662v-14.88h43.92v14.88h-43.92"/><path class="cls-8" d="M192.142 56.782v3.36h43.92v-3.36h-43.92"/><path class="cls-6" d="M192.382 59.902l.24.24M193.342 56.782l3.36 3.36M197.182 56.782l3.36 3.36M201.262 56.782l3.36 3.36M205.342 56.782l3.36 3.36M209.182 56.782l3.36 3.36M213.262 56.782l3.36 3.36M217.342 56.782l3.36 3.36M221.422 56.782l3.36 3.36M225.262 56.782l3.36 3.36M229.342 56.782l3.36 3.36M233.422 56.782l2.88 2.88"/><path class="cls-8" d="M192.142 60.142v.72h43.92v-.72h-43.92M192.142 60.862v5.52h43.92v-5.52h-43.92"/><path class="cls-6" d="M235.822 66.382v-5.52M234.382 66.382v-5.52M232.942 66.382v-5.52M231.742 66.382v-5.52M230.302 66.382v-5.52M228.862 66.382v-5.52M227.422 66.382v-5.52M225.982 66.382v-5.52M224.542 66.382v-5.52M223.102 66.382v-5.52M221.662 66.382v-5.52M220.222 66.382v-5.52M218.782 66.382v-5.52M217.342 66.382v-5.52M216.142 66.382v-5.52M214.702 66.382v-5.52M213.262 66.382v-5.52M211.822 66.382v-5.52M210.382 66.382v-5.52M208.942 66.382v-5.52M207.502 66.382v-5.52M206.062 66.382v-5.52M204.622 66.382v-5.52M203.182 66.382v-5.52M201.742 66.382v-5.52M200.542 66.382v-5.52M199.102 66.382v-5.52M197.662 66.382v-5.52M196.222 66.382v-5.52M194.782 66.382v-5.52M193.342 66.382v-5.52"/><path class="cls-8" d="M192.142 66.382v5.28h43.92v-5.28h-43.92"/><path class="cls-6" d="M192.382 67.822l3.84 3.84M194.782 66.382l5.28 5.28M198.862 66.382l5.28 5.28M202.942 66.382l5.28 5.28M206.782 66.382l5.28 5.28M210.862 66.382l5.28 5.28M214.942 66.382l5.28 5.28M218.782 66.382l5.28 5.28M222.862 66.382l5.28 5.28M226.942 66.382l5.28 5.28M231.022 66.382l5.28 5.28M234.862 66.382l1.44 1.2M192.142 66.382h43.92M192.142 60.862h43.92"/><path class="cls-7" d="M192.142 56.782h43.92M192.142 71.662h43.92"/><path class="cls-9" d="M129.262 56.782h-29.04v14.88h29.04v-14.88"/><path class="cls-8" d="M129.262 56.782h-29.04v3.36h29.04v-3.36"/><path class="cls-6" d="M100.942 56.782l3.36 3.36M105.022 56.782l3.36 3.36M109.102 56.782l3.36 3.36M113.182 56.782l3.36 3.36M117.022 56.782l3.36 3.36M121.102 56.782l3.36 3.36M125.182 56.782l3.36 3.36M129.022 56.782l.48.24"/><path class="cls-8" d="M129.262 60.142h-29.04v.72h29.04v-.72M129.262 60.862h-29.04v5.52h29.04v-5.52"/><path class="cls-6" d="M128.062 66.382v-5.52M126.862 66.382v-5.52M125.422 66.382v-5.52M123.982 66.382v-5.52M122.542 66.382v-5.52M121.102 66.382v-5.52M119.662 66.382v-5.52M118.222 66.382v-5.52M116.782 66.382v-5.52M115.342 66.382v-5.52M113.902 66.382v-5.52M112.462 66.382v-5.52M111.262 66.382v-5.52M109.822 66.382v-5.52M108.382 66.382v-5.52M106.942 66.382v-5.52M105.502 66.382v-5.52M104.062 66.382v-5.52M102.622 66.382v-5.52M101.182 66.382v-5.52"/><path class="cls-8" d="M129.262 66.382h-29.04v5.28h29.04v-5.28"/><path class="cls-6" d="M100.462 68.062l3.36 3.6M102.622 66.382l5.28 5.28M106.702 66.382l5.28 5.28M110.542 66.382l5.28 5.28M114.622 66.382l5.28 5.28M118.702 66.382l5.28 5.28M122.782 66.382l5.28 5.28M126.622 66.382l2.88 2.64M100.222 66.382h29.04M100.222 60.862h29.04"/><path class="cls-7" d="M100.222 56.782h29.04M100.222 71.662h29.04M100.222 66.382"/><path class="cls-1" d="M129.262 71.662h62.88"/><path class="cls-7" d="M129.262 64.222h62.88v2.16h-62.88zM132.862 64.222v2.16M188.542 64.222v2.16M129.262 66.382v-2.16M148.222 66.382v-2.16M132.862 66.382v-2.16M152.302 66.382v-2.16M148.222 66.382v-2.16M169.102 66.382v-2.16M152.302 66.382v-2.16M173.182 66.382v-2.16M169.102 66.382v-2.16M188.542 66.382v-2.16M173.182 66.382v-2.16M192.142 66.382v-2.16M193.582 56.782v-1.68M193.582 55.102h-66M127.582 55.102v1.2"/><path class="cls-8" d="M129.192 60.807h1.843v3.402h-1.843"/><path class="cls-6" d="M130.942 64.222v-3.36M129.502 64.222v-3.36M129.192 60.807h1.843v3.402h-1.843"/><path class="cls-8" d="M129.262 56.782h1.68v3.36h-1.68"/><path class="cls-6" d="M129.502 57.022l1.68 1.68"/><path class="cls-7" d="M130.942 60.142v4.08"/><path class="cls-8" d="M192.123 60.807h-1.844v3.402h1.844"/><path class="cls-6" d="M191.902 64.222v-3.36M190.462 64.222v-3.36M192.123 60.807h-1.844v3.402h1.844"/><path class="cls-8" d="M192.142 56.782h-1.92v3.36h1.92"/><path class="cls-6" d="M190.462 57.982l1.92 1.92"/><path class="cls-7" d="M190.222 60.142v4.08M237.982 64.222v-7.44h-3.6v-1.68h44.16v1.68h-3.6v7.44"/><path class="cls-1" d="M236.062 71.662h40.8"/><path class="cls-7" d="M276.382 71.662h.48M236.062 64.222h40.8v2.16h-40.8zM239.662 64.222v2.16M273.262 64.222v2.16M236.062 66.382v-2.16M254.302 66.382v-2.16M239.662 66.382v-2.16M258.622 66.382v-2.16M254.302 66.382v-2.16M273.262 66.382v-2.16M258.622 66.382v-2.16M276.862 66.382v-2.16"/><path class="cls-8" d="M236.06 60.807h1.84v3.402h-1.84"/><path class="cls-6" d="M237.262 64.222v-3.36M236.06 60.807h1.84v3.402h-1.84"/><path class="cls-8" d="M236.062 56.782h1.92v3.36h-1.92"/><path class="cls-6" d="M236.302 59.662l.48.48M237.262 56.782l.96.72"/><path class="cls-7" d="M237.982 60.142v4.08"/><path class="cls-8" d="M276.879 60.807h-1.844v3.402h1.844"/><path class="cls-6" d="M276.862 64.222v-3.36M275.662 64.222v-3.36M276.879 60.807h-1.844v3.402h1.844"/><path class="cls-8" d="M276.862 56.782h-1.92v3.36h1.92"/><path class="cls-6" d="M275.182 58.462l1.68 1.68"/><path class="cls-7" d="M274.942 60.142v4.08"/><path class="cls-8" d="M211.102 211.582h-4.32v-114h4.32v114"/><path class="cls-6" d="M207.022 99.502l1.92-1.92M207.022 103.822l4.32-4.32M207.022 107.902l4.32-4.32M207.022 112.222l4.32-4.32M207.022 116.542l4.32-4.32M207.022 120.862l4.32-4.32M207.022 124.942l4.32-4.32M207.022 129.262l4.32-4.32M207.022 133.582l4.32-4.32M207.022 137.662l4.32-4.32M207.022 141.982l4.32-4.32M207.022 146.302l4.32-4.32M207.022 150.622l4.32-4.32M207.022 154.702l4.32-4.32M207.022 159.022l4.32-4.32M207.022 163.342l4.32-4.32M207.022 167.422l4.32-4.32M207.022 171.742l4.32-4.32M207.022 176.062l4.32-4.32M207.022 180.382l4.32-4.32M207.022 184.462l4.32-4.32M207.022 188.782l4.32-4.32M207.022 193.102l4.32-4.32M207.022 197.182l4.32-4.32M207.022 201.502l4.32-4.32M207.022 205.822l4.32-4.32M207.022 209.902l4.32-4.32M209.662 211.582l1.68-1.68"/><path class="cls-8" d="M206.782 211.582h4.32v-114h-4.32v114"/><path class="cls-6" d="M207.022 99.502l1.92-1.92M207.022 103.822l4.32-4.32M207.022 107.902l4.32-4.32M207.022 112.222l4.32-4.32M207.022 116.542l4.32-4.32M207.022 120.862l4.32-4.32M207.022 124.942l4.32-4.32M207.022 129.262l4.32-4.32M207.022 133.582l4.32-4.32M207.022 137.662l4.32-4.32M207.022 141.982l4.32-4.32M207.022 146.302l4.32-4.32M207.022 150.622l4.32-4.32M207.022 154.702l4.32-4.32M207.022 159.022l4.32-4.32M207.022 163.342l4.32-4.32M207.022 167.422l4.32-4.32M207.022 171.742l4.32-4.32M207.022 176.062l4.32-4.32M207.022 180.382l4.32-4.32M207.022 184.462l4.32-4.32M207.022 188.782l4.32-4.32M207.022 193.102l4.32-4.32M207.022 197.182l4.32-4.32M207.022 201.502l4.32-4.32M207.022 205.822l4.32-4.32M207.022 209.902l4.32-4.32M209.662 211.582l1.68-1.68"/><path class="cls-8" d="M211.102 356.062h-4.32v-119.28h4.32v119.28"/><path class="cls-6" d="M207.022 239.662l2.88-2.88M207.022 243.982l4.32-4.32M207.022 248.302l4.32-4.32M207.022 252.622l4.32-4.32M207.022 256.702l4.32-4.32M207.022 261.022l4.32-4.32M207.022 265.342l4.32-4.32M207.022 269.422l4.32-4.32M207.022 273.742l4.32-4.32M207.022 278.062l4.32-4.32M207.022 282.382l4.32-4.32M207.022 286.462l4.32-4.32M207.022 290.782l4.32-4.32M207.022 295.102l4.32-4.32M207.022 299.182l4.32-4.32M207.022 303.502l4.32-4.32M207.022 307.822l4.32-4.32M207.022 311.902l4.32-4.32M207.022 316.222l4.32-4.32M207.022 320.542l4.32-4.32M207.022 324.862l4.32-4.32M207.022 328.942l4.32-4.32M207.022 333.262l4.32-4.32M207.022 337.582l4.32-4.32M207.022 341.662l4.32-4.32M207.022 345.982l4.32-4.32M207.022 350.302l4.32-4.32M207.022 354.622l4.32-4.32M209.662 356.062l1.68-1.68"/><path class="cls-8" d="M206.782 356.062h4.32v-119.28h-4.32v119.28"/><path class="cls-6" d="M207.022 239.662l2.88-2.88M207.022 243.982l4.32-4.32M207.022 248.302l4.32-4.32M207.022 252.622l4.32-4.32M207.022 256.702l4.32-4.32M207.022 261.022l4.32-4.32M207.022 265.342l4.32-4.32M207.022 269.422l4.32-4.32M207.022 273.742l4.32-4.32M207.022 278.062l4.32-4.32M207.022 282.382l4.32-4.32M207.022 286.462l4.32-4.32M207.022 290.782l4.32-4.32M207.022 295.102l4.32-4.32M207.022 299.182l4.32-4.32M207.022 303.502l4.32-4.32M207.022 307.822l4.32-4.32M207.022 311.902l4.32-4.32M207.022 316.222l4.32-4.32M207.022 320.542l4.32-4.32M207.022 324.862l4.32-4.32M207.022 328.942l4.32-4.32M207.022 333.262l4.32-4.32M207.022 337.582l4.32-4.32M207.022 341.662l4.32-4.32M207.022 345.982l4.32-4.32M207.022 350.302l4.32-4.32M207.022 354.622l4.32-4.32M209.662 356.062l1.68-1.68"/><path class="cls-7" d="M211.102 380.542h-4.32M211.102 357.982h-4.32"/><path class="cls-6" d="M211.114 380.556c12.439 0 22.677-10.238 22.677-22.677M211.102 357.982h22.8"/><path class="cls-7" d="M211.102 95.902h-4.32M211.102 73.342h-4.32"/><path class="cls-6" d="M233.791 95.956c0-12.44-10.238-22.677-22.677-22.677M211.102 95.902h22.8"/><path class="cls-1" d="M211.102 236.782v-25.2M206.782 236.782v-25.2"/><path class="cls-7" d="M211.102 235.342h-4.32M211.102 212.782h-4.32"/><path class="cls-6" d="M211.114 235.42c12.439 0 22.677-10.235 22.677-22.677M211.102 212.782h22.8"/><path class="cls-8" d="M40.702 219.022l6.96-9.36h-6.96v9.36"/><path class="cls-6" d="M46.702 211.102l-1.2-1.44M45.022 213.262l-3.6-3.6M43.342 215.662l-2.4-2.64M41.662 217.822l-.72-.72M40.942 218.782l.96-1.2M40.942 214.702l4.8-5.04M40.942 210.622l.96-.96"/><path class="cls-8" d="M40.702 219.022l6.96-9.36h-6.96v9.36"/><path class="cls-6" d="M46.702 211.102l-1.2-1.44M45.022 213.262l-3.6-3.6M43.342 215.662l-2.4-2.64M41.662 217.822l-.72-.72M40.942 218.782l.96-1.2M40.942 214.702l4.8-5.04M40.942 210.622l.96-.96"/><path class="cls-8" d="M8.302 209.662h-.48l-7.2 9.36h7.68v-9.36"/><path class="cls-6" d="M8.542 212.782l-1.68-1.68M8.542 216.622l-3.36-3.36M6.622 219.022l-3.36-3.36M2.782 219.022l-1.2-1.2M8.302 219.022h.24M4.462 219.022l4.08-4.08M1.822 217.582l6.72-6.48"/><path class="cls-8" d="M8.302 209.662h-.48l-7.2 9.36h7.68v-9.36"/><path class="cls-6" d="M8.542 212.782l-1.68-1.68M8.542 216.622l-3.36-3.36M6.622 219.022l-3.36-3.36M2.782 219.022l-1.2-1.2M8.302 219.022h.24M4.462 219.022l4.08-4.08M1.822 217.582l6.72-6.48"/><path class="cls-7" d="M8.302 218.062h2.64v1.68h-2.64zM38.062 218.062h2.64v1.68h-2.64z"/><path class="cls-7" d="M10.942 218.062h27.12v1.68h-27.12zM10.942 218.062h27.12"/><path class="cls-1" d="M10.462 209.662h27.84"/><path class="cls-7" d="M37.822 209.662h.48"/><path class="cls-8" d="M8.302 209.662h2.16v8.4h-2.16"/><path class="cls-6" d="M10.702 210.862l-1.2-1.2M10.702 214.942l-2.16-2.16M9.742 218.062l-1.2-1.44M9.262 218.062l1.44-1.2M8.542 214.942l2.16-2.16M8.542 211.102l1.2-1.44"/><path class="cls-8" d="M40.702 209.662h-2.4v8.4h2.4"/><path class="cls-6" d="M40.942 213.022l-2.4-2.4M40.942 217.102l-2.4-2.4M38.542 217.102l2.4-2.4M38.542 213.022l2.4-2.4"/><path class="cls-9" d="M296.542 382.222l14.88 14.88V56.782l-14.88 14.88v310.56"/><path class="cls-8" d="M307.822 393.502l3.6 3.6V56.782l-3.6 3.36v333.36"/><path class="cls-6" d="M308.062 392.062l3.6 3.6M308.062 387.982l3.6 3.6M308.062 383.902l3.6 3.6M308.062 379.822l3.6 3.6M308.062 375.982l3.6 3.6M308.062 371.902l3.6 3.6M308.062 367.822l3.6 3.6M308.062 363.982l3.6 3.6M308.062 359.902l3.6 3.6M308.062 355.822l3.6 3.6M308.062 351.982l3.6 3.6M308.062 347.902l3.6 3.6M308.062 343.822l3.6 3.6M308.062 339.742l3.6 3.6M308.062 335.902l3.6 3.6M308.062 331.822l3.6 3.6M308.062 327.742l3.6 3.6M308.062 323.902l3.6 3.6M308.062 319.822l3.6 3.6M308.062 315.742l3.6 3.6M308.062 311.662l3.6 3.6M308.062 307.822l3.6 3.6M308.062 303.742l3.6 3.6M308.062 299.662l3.6 3.6M308.062 295.822l3.6 3.6M308.062 291.742l3.6 3.6M308.062 287.662l3.6 3.6M308.062 283.822l3.6 3.6M308.062 279.742l3.6 3.6M308.062 275.662l3.6 3.6M308.062 271.582l3.6 3.6M308.062 267.742l3.6 3.6M308.062 263.662l3.6 3.6M308.062 259.582l3.6 3.6M308.062 255.742l3.6 3.6M308.062 251.662l3.6 3.6M308.062 247.582l3.6 3.6M308.062 243.742l3.6 3.6M308.062 239.662l3.6 3.6M308.062 235.582l3.6 3.6M308.062 231.502l3.6 3.6M308.062 227.662l3.6 3.6M308.062 223.582l3.6 3.6M308.062 219.502l3.6 3.6M308.062 215.662l3.6 3.6M308.062 211.582l3.6 3.6M308.062 207.502l3.6 3.6M308.062 203.422l3.6 3.6M308.062 199.582l3.6 3.6M308.062 195.502l3.6 3.6M308.062 191.422l3.6 3.6M308.062 187.582l3.6 3.6M308.062 183.502l3.6 3.6M308.062 179.422l3.6 3.6M308.062 175.582l3.6 3.6M308.062 171.502l3.6 3.6M308.062 167.422l3.6 3.6M308.062 163.342l3.6 3.6M308.062 159.502l3.6 3.6M308.062 155.422l3.6 3.6M308.062 151.342l3.6 3.6M308.062 147.502l3.6 3.6M308.062 143.422l3.6 3.6M308.062 139.342l3.6 3.6M308.062 135.502l3.6 3.6M308.062 131.422l3.6 3.6M308.062 127.342l3.6 3.6M308.062 123.262l3.6 3.6M308.062 119.422l3.6 3.6M308.062 115.342l3.6 3.6M308.062 111.262l3.6 3.6M308.062 107.422l3.6 3.6M308.062 103.342l3.6 3.6M308.062 99.262l3.6 3.6M308.062 95.182l3.6 3.6M308.062 91.342l3.6 3.6M308.062 87.262l3.6 3.6M308.062 83.182l3.6 3.6M308.062 79.342l3.6 3.6M308.062 75.262l3.6 3.6M308.062 71.182l3.6 3.6M308.062 67.342l3.6 3.6M308.062 63.262l3.6 3.6M308.302 59.662l3.36 3.12M310.462 57.742l1.2.96"/><path class="cls-8" d="M307.342 393.022l.48.48V60.142l-.48.72v332.16M301.582 387.262l5.76 5.76V60.862l-5.76 5.52v320.88"/><path class="cls-6" d="M307.102 392.782h.48M305.662 391.342h1.92M304.462 389.902h3.12M303.022 388.462h4.56M301.822 387.022h5.76M301.822 385.582h5.76M301.822 384.142h5.76M301.822 382.702h5.76M301.822 381.502h5.76M301.822 380.062h5.76M301.822 378.622h5.76M301.822 377.182h5.76M301.822 375.742h5.76M301.822 374.302h5.76M301.822 372.862h5.76M301.822 371.422h5.76M301.822 369.982h5.76M301.822 368.542h5.76M301.822 367.342h5.76M301.822 365.902h5.76M301.822 364.462h5.76M301.822 363.022h5.76M301.822 361.582h5.76M301.822 360.142h5.76M301.822 358.702h5.76M301.822 357.262h5.76M301.822 355.822h5.76M301.822 354.382h5.76M301.822 352.942h5.76M301.822 351.742h5.76M301.822 350.302h5.76M301.822 348.862h5.76M301.822 347.422h5.76M301.822 345.982h5.76M301.822 344.542h5.76M301.822 343.102h5.76M301.822 341.662h5.76M301.822 340.222h5.76M301.822 338.782h5.76M301.822 337.582h5.76M301.822 336.142h5.76M301.822 334.702h5.76M301.822 333.262h5.76M301.822 331.822h5.76M301.822 330.382h5.76M301.822 328.942h5.76M301.822 327.502h5.76M301.822 326.062h5.76M301.822 324.622h5.76M301.822 323.182h5.76M301.822 321.982h5.76M301.822 320.542h5.76M301.822 319.102h5.76M301.822 317.662h5.76M301.822 316.222h5.76M301.822 314.782h5.76M301.822 313.342h5.76M301.822 311.902h5.76M301.822 310.462h5.76M301.822 309.022h5.76M301.822 307.582h5.76M301.822 306.382h5.76M301.822 304.942h5.76M301.822 303.502h5.76M301.822 302.062h5.76M301.822 300.622h5.76M301.822 299.182h5.76M301.822 297.742h5.76M301.822 296.302h5.76M301.822 294.862h5.76M301.822 293.422h5.76M301.822 292.222h5.76M301.822 290.782h5.76M301.822 289.342h5.76M301.822 287.902h5.76M301.822 286.462h5.76M301.822 285.022h5.76M301.822 283.582h5.76M301.822 282.142h5.76M301.822 280.702h5.76M301.822 279.262h5.76M301.822 277.822h5.76M301.822 276.622h5.76M301.822 275.182h5.76M301.822 273.742h5.76M301.822 272.302h5.76M301.822 270.862h5.76M301.822 269.422h5.76M301.822 267.982h5.76M301.822 266.542h5.76M301.822 265.102h5.76M301.822 263.662h5.76M301.822 262.462h5.76M301.822 261.022h5.76M301.822 259.582h5.76M301.822 258.142h5.76M301.822 256.702h5.76M301.822 255.262h5.76M301.822 253.822h5.76M301.822 252.382h5.76M301.822 250.942h5.76M301.822 249.502h5.76M301.822 248.062h5.76M301.822 246.862h5.76M301.822 245.422h5.76M301.822 243.982h5.76M301.822 242.542h5.76M301.822 241.102h5.76M301.822 239.662h5.76M301.822 238.222h5.76M301.822 236.782h5.76M301.822 235.342h5.76M301.822 233.902h5.76M301.822 232.702h5.76M301.822 231.262h5.76M301.822 229.822h5.76M301.822 228.382h5.76M301.822 226.942h5.76M301.822 225.502h5.76M301.822 224.062h5.76M301.822 222.622h5.76M301.822 221.182h5.76M301.822 219.742h5.76M301.822 218.302h5.76M301.822 217.102h5.76M301.822 215.662h5.76M301.822 214.222h5.76M301.822 212.782h5.76M301.822 211.342h5.76M301.822 209.902h5.76M301.822 208.462h5.76M301.822 207.022h5.76M301.822 205.582h5.76M301.822 204.142h5.76M301.822 202.702h5.76M301.822 201.502h5.76M301.822 200.062h5.76M301.822 198.622h5.76M301.822 197.182h5.76M301.822 195.742h5.76M301.822 194.302h5.76M301.822 192.862h5.76M301.822 191.422h5.76M301.822 189.982h5.76M301.822 188.542h5.76M301.822 187.342h5.76M301.822 185.902h5.76M301.822 184.462h5.76M301.822 183.022h5.76M301.822 181.582h5.76M301.822 180.142h5.76M301.822 178.702h5.76M301.822 177.262h5.76M301.822 175.822h5.76M301.822 174.382h5.76M301.822 172.942h5.76M301.822 171.742h5.76M301.822 170.302h5.76M301.822 168.862h5.76M301.822 167.422h5.76M301.822 165.982h5.76M301.822 164.542h5.76M301.822 163.102h5.76M301.822 161.662h5.76M301.822 160.222h5.76M301.822 158.782h5.76M301.822 157.582h5.76M301.822 156.142h5.76M301.822 154.702h5.76M301.822 153.262h5.76M301.822 151.822h5.76M301.822 150.382h5.76M301.822 148.942h5.76M301.822 147.502h5.76M301.822 146.062h5.76M301.822 144.622h5.76M301.822 143.182h5.76M301.822 141.982h5.76M301.822 140.542h5.76M301.822 139.102h5.76M301.822 137.662h5.76M301.822 136.222h5.76M301.822 134.782h5.76M301.822 133.342h5.76M301.822 131.902h5.76M301.822 130.462h5.76M301.822 129.022h5.76M301.822 127.582h5.76M301.822 126.382h5.76M301.822 124.942h5.76M301.822 123.502h5.76M301.822 122.062h5.76M301.822 120.622h5.76M301.822 119.182h5.76M301.822 117.742h5.76M301.822 116.302h5.76M301.822 114.862h5.76M301.822 113.422h5.76M301.822 112.222h5.76M301.822 110.782h5.76M301.822 109.342h5.76M301.822 107.902h5.76M301.822 106.462h5.76M301.822 105.022h5.76M301.822 103.582h5.76M301.822 102.142h5.76M301.822 100.702h5.76M301.822 99.262h5.76M301.822 97.822h5.76M301.822 96.622h5.76M301.822 95.182h5.76M301.822 93.742h5.76M301.822 92.302h5.76M301.822 90.862h5.76M301.822 89.422h5.76M301.822 87.982h5.76M301.822 86.542h5.76M301.822 85.102h5.76M301.822 83.662h5.76M301.822 82.462h5.76M301.822 81.022h5.76M301.822 79.582h5.76M301.822 78.142h5.76M301.822 76.702h5.76M301.822 75.262h5.76M301.822 73.822h5.76M301.822 72.382h5.76M301.822 70.942h5.76M301.822 69.502h5.76M301.822 68.062h5.76M301.822 66.862h5.76M302.782 65.422h4.8M304.222 63.982h3.36M305.662 62.542h1.92M307.342 61.102h.24"/><path class="cls-8" d="M296.542 382.222l5.04 5.04V66.382l-5.04 5.28v310.56"/><path class="cls-6" d="M296.782 380.782l5.04 5.04M296.782 376.702l5.04 5.04M296.782 372.622l5.04 5.04M296.782 368.542l5.04 5.04M296.782 364.702l5.04 5.04M296.782 360.622l5.04 5.04M296.782 356.542l5.04 5.04M296.782 352.702l5.04 5.04M296.782 348.622l5.04 5.04M296.782 344.542l5.04 5.04M296.782 340.702l5.04 5.04M296.782 336.622l5.04 5.04M296.782 332.542l5.04 5.04M296.782 328.462l5.04 5.04M296.782 324.622l5.04 5.04M296.782 320.542l5.04 5.04M296.782 316.462l5.04 5.04M296.782 312.622l5.04 5.04M296.782 308.542l5.04 5.04M296.782 304.462l5.04 5.04M296.782 300.382l5.04 5.04M296.782 296.542l5.04 5.04M296.782 292.462l5.04 5.04M296.782 288.382l5.04 5.04M296.782 284.542l5.04 5.04M296.782 280.462l5.04 5.04M296.782 276.382l5.04 5.04M296.782 272.542l5.04 5.04M296.782 268.462l5.04 5.04M296.782 264.382l5.04 5.04M296.782 260.302l5.04 5.04M296.782 256.462l5.04 5.04M296.782 252.382l5.04 5.04M296.782 248.302l5.04 5.04M296.782 244.462l5.04 5.04M296.782 240.382l5.04 5.04M296.782 236.302l5.04 5.04M296.782 232.462l5.04 5.04M296.782 228.382l5.04 5.04M296.782 224.302l5.04 5.04M296.782 220.222l5.04 5.04M296.782 216.382l5.04 5.04M296.782 212.302l5.04 5.04M296.782 208.222l5.04 5.04M296.782 204.382l5.04 5.04M296.782 200.302l5.04 5.04M296.782 196.222l5.04 5.04M296.782 192.142l5.04 5.04M296.782 188.302l5.04 5.04M296.782 184.222l5.04 5.04M296.782 180.142l5.04 5.04M296.782 176.302l5.04 5.04M296.782 172.222l5.04 5.04M296.782 168.142l5.04 5.04M296.782 164.302l5.04 5.04M296.782 160.222l5.04 5.04M296.782 156.142l5.04 5.04M296.782 152.062l5.04 5.04M296.782 148.222l5.04 5.04M296.782 144.142l5.04 5.04M296.782 140.062l5.04 5.04M296.782 136.222l5.04 5.04M296.782 132.142l5.04 5.04M296.782 128.062l5.04 5.04M296.782 124.222l5.04 5.04M296.782 120.142l5.04 5.04M296.782 116.062l5.04 5.04M296.782 111.982l5.04 5.04M296.782 108.142l5.04 5.04M296.782 104.062l5.04 5.04M296.782 99.982l5.04 5.04M296.782 96.142l5.04 5.04M296.782 92.062l5.04 5.04M296.782 87.982l5.04 5.04M296.782 83.902l5.04 5.04M296.782 80.062l5.04 5.04M296.782 75.982l5.04 5.04M296.782 71.902l5.04 5.04M298.462 69.742l3.36 3.36M300.382 67.822l1.44 1.2M301.582 66.382v320.88M307.342 60.862v332.16"/><path class="cls-7" d="M311.422 56.782v340.32M296.542 71.662v310.56M50.542 224.542h29.76v39.84h-29.76zM48.862 215.662h35.28M67.102 218.782h-13.92M79.822 221.662h-13.92"/><path class="cls-8" d="M47.662 209.662l-6.96 9.36v60.24l6.96-7.44v-62.16"/><path class="cls-6" d="M47.902 212.062l-1.2-.96M47.902 215.902l-2.88-2.64M47.902 219.982l-4.56-4.32M47.902 224.062l-6.24-6.24M47.902 227.902l-6.96-6.96M47.902 231.982l-6.96-6.96M47.902 236.062l-6.96-6.96M47.902 240.142l-6.96-6.96M47.902 243.982l-6.96-6.96M47.902 248.062l-6.96-6.96M47.902 252.142l-6.96-6.96M47.902 255.982l-6.96-6.96M47.902 260.062l-6.96-6.96M47.902 264.142l-6.96-6.96M47.902 267.982l-6.96-6.96M47.662 272.062l-6.72-6.96M45.742 273.982l-4.8-4.8M43.822 276.142l-2.88-2.88M41.902 278.062l-.96-.96M40.942 278.782l6.48-6.48M40.942 274.702l6.96-6.96M40.942 270.862l6.96-6.96M40.942 266.782l6.96-6.96M40.942 262.702l6.96-6.96M40.942 258.862l6.96-6.96M40.942 254.782l6.96-6.96M40.942 250.702l6.96-6.96M40.942 246.862l6.96-6.96M40.942 242.782l6.96-6.96M40.942 238.702l6.96-6.96M40.942 234.622l6.96-6.96M40.942 230.782l6.96-6.96M40.942 226.702l6.96-6.96M40.942 222.622l6.96-6.96M41.902 217.582l6-5.76"/><path class="cls-8" d="M47.662 209.662l-6.96 9.36v60.24l6.96-7.44v-62.16"/><path class="cls-6" d="M47.902 212.062l-1.2-.96M47.902 215.902l-2.88-2.64M47.902 219.982l-4.56-4.32M47.902 224.062l-6.24-6.24M47.902 227.902l-6.96-6.96M47.902 231.982l-6.96-6.96M47.902 236.062l-6.96-6.96M47.902 240.142l-6.96-6.96M47.902 243.982l-6.96-6.96M47.902 248.062l-6.96-6.96M47.902 252.142l-6.96-6.96M47.902 255.982l-6.96-6.96M47.902 260.062l-6.96-6.96M47.902 264.142l-6.96-6.96M47.902 267.982l-6.96-6.96M47.662 272.062l-6.72-6.96M45.742 273.982l-4.8-4.8M43.822 276.142l-2.88-2.88M41.902 278.062l-.96-.96M40.942 278.782l6.48-6.48M40.942 274.702l6.96-6.96M40.942 270.862l6.96-6.96M40.942 266.782l6.96-6.96M40.942 262.702l6.96-6.96M40.942 258.862l6.96-6.96M40.942 254.782l6.96-6.96M40.942 250.702l6.96-6.96M40.942 246.862l6.96-6.96M40.942 242.782l6.96-6.96M40.942 238.702l6.96-6.96M40.942 234.622l6.96-6.96M40.942 230.782l6.96-6.96M40.942 226.702l6.96-6.96M40.942 222.622l6.96-6.96M41.902 217.582l6-5.76"/><path class="cls-9" d="M93.022 71.662l7.2-5.28v-9.6h-66.48v14.88h59.28"/><path class="cls-8" d="M33.742 56.782v3.36h66.48v-3.36h-66.48"/><path class="cls-6" d="M33.982 57.742l2.4 2.4M36.862 56.782l3.36 3.36M40.942 56.782l3.36 3.36M45.022 56.782l3.36 3.36M48.862 56.782l3.36 3.36M52.942 56.782l3.36 3.36M57.022 56.782l3.36 3.36M60.862 56.782l3.36 3.36M64.942 56.782l3.36 3.36M69.022 56.782l3.36 3.36M73.102 56.782l3.36 3.36M76.942 56.782l3.36 3.36M81.022 56.782l3.36 3.36M85.102 56.782l3.36 3.36M88.942 56.782l3.36 3.36M93.022 56.782l3.36 3.36M97.102 56.782l3.36 3.36"/><path class="cls-8" d="M33.742 60.142v.72h66.48v-.72h-66.48M33.742 60.862v5.52h66.48v-5.52h-66.48"/><path class="cls-6" d="M99.742 66.382v-5.52M98.302 66.382v-5.52M96.862 66.382v-5.52M95.662 66.382v-5.52M94.222 66.382v-5.52M92.782 66.382v-5.52M91.342 66.382v-5.52M89.902 66.382v-5.52M88.462 66.382v-5.52M87.022 66.382v-5.52M85.582 66.382v-5.52M84.142 66.382v-5.52M82.702 66.382v-5.52M81.502 66.382v-5.52M80.062 66.382v-5.52M78.622 66.382v-5.52M77.182 66.382v-5.52M75.742 66.382v-5.52M74.302 66.382v-5.52M72.862 66.382v-5.52M71.422 66.382v-5.52M69.982 66.382v-5.52M68.542 66.382v-5.52M67.102 66.382v-5.52M65.902 66.382v-5.52M64.462 66.382v-5.52M63.022 66.382v-5.52M61.582 66.382v-5.52M60.142 66.382v-5.52M58.702 66.382v-5.52M57.262 66.382v-5.52M55.822 66.382v-5.52M54.382 66.382v-5.52M52.942 66.382v-5.52M51.742 66.382v-5.52M50.302 66.382v-5.52M48.862 66.382v-5.52M47.422 66.382v-5.52M45.982 66.382v-5.52M44.542 66.382v-5.52M43.102 66.382v-5.52M41.662 66.382v-5.52M40.222 66.382v-5.52M38.782 66.382v-5.52M37.342 66.382v-5.52M36.142 66.382v-5.52M34.702 66.382v-5.52"/><path class="cls-8" d="M93.022 71.662l7.2-5.28h-66.48v5.28h59.28"/><path class="cls-6" d="M99.262 67.102l-.72-.72M97.102 68.782l-2.4-2.4M94.702 70.462l-4.08-4.08M91.822 71.662l-5.28-5.28M87.982 71.662l-5.28-5.28M83.902 71.662l-5.28-5.28M79.822 71.662l-5.28-5.28M75.742 71.662l-5.28-5.28M71.902 71.662l-5.28-5.28M67.822 71.662l-5.28-5.28M63.742 71.662l-5.28-5.28M59.902 71.662l-5.28-5.28M55.822 71.662l-5.28-5.28M51.742 71.662l-5.28-5.28M47.902 71.662l-5.28-5.28M43.822 71.662l-5.28-5.28M39.742 71.662l-5.28-5.28M35.662 71.662l-1.68-1.92M91.582 71.662l5.28-5.28M87.502 71.662l5.28-5.28M83.662 71.662l5.28-5.28M79.582 71.662l5.28-5.28M75.502 71.662l5.28-5.28M71.662 71.662l5.28-5.28M67.582 71.662l5.28-5.28M63.502 71.662l5.28-5.28M59.662 71.662l5.28-5.28M55.582 71.662l5.28-5.28M51.502 71.662l5.28-5.28M47.422 71.662l5.28-5.28M43.582 71.662l5.28-5.28M39.502 71.662l5.28-5.28M35.422 71.662l5.28-5.28M33.982 69.262l2.88-2.88M33.742 66.382h66.48M33.742 60.862h59.28"/><path class="cls-7" d="M33.742 56.782h66.48M33.742 71.662h59.28"/><path class="cls-9" d="M.622 66.382l7.2 5.28h7.2v-14.88H.622v9.6"/><path class="cls-8" d="M.622 56.782v3.36h14.4v-3.36H.622"/><path class="cls-6" d="M.862 56.782l3.36 3.36M4.942 56.782l3.36 3.36M8.782 56.782l3.36 3.36M12.862 56.782l2.4 2.4"/><path class="cls-8" d="M.622 60.142v.72h14.4v-.72H.622M.622 60.862v5.52h14.4v-5.52H.622"/><path class="cls-6" d="M14.782 66.382v-5.52M13.342 66.382v-5.52M11.902 66.382v-5.52M10.462 66.382v-5.52M9.022 66.382v-5.52M7.582 66.382v-5.52M6.382 66.382v-5.52M4.942 66.382v-5.52M3.502 66.382v-5.52M2.062 66.382v-5.52"/><path class="cls-8" d="M.622 66.382l7.2 5.28h7.2v-5.28H.622"/><path class="cls-6" d="M15.262 67.102l-.72-.72M15.262 71.182l-4.8-4.8M11.662 71.662l-5.28-5.28M7.102 70.942l-4.8-4.56M11.422 71.662l3.84-3.6M7.582 71.422l5.04-5.04M5.422 69.742l3.36-3.36M3.022 68.062l1.68-1.68M.622 66.382h14.4M.622 60.862h14.4"/><path class="cls-7" d="M.622 56.782h14.4M7.822 71.662h7.2M100.222 56.782"/><path class="cls-6" d="M93.022 60.862h7.2"/><path class="cls-7" d="M15.022 66.382v6h18.72v-6M16.702 64.222v-7.44h-3.36v-1.68h21.84v1.68h-3.36v7.44M15.022 64.222h18.72v2.16h-18.72zM18.622 64.222v2.16M29.902 64.222v2.16M15.022 66.382v-2.16M29.902 66.382v-2.16M18.622 66.382v-2.16M33.742 66.382v-2.16M16.702 60.142h7.68"/><path class="cls-8" d="M14.956 60.807h1.842v3.402h-1.842"/><path class="cls-6" d="M16.222 64.222v-3.36M14.956 60.807h1.842v3.402h-1.842"/><path class="cls-8" d="M15.022 56.782h1.68v3.36h-1.68"/><path class="cls-6" d="M15.262 59.182l.96.96"/><path class="cls-7" d="M16.702 60.142v4.08M31.822 60.142h-7.44"/><path class="cls-8" d="M33.665 60.807h-1.843v3.402h1.843"/><path class="cls-6" d="M33.262 64.222v-3.36M33.665 60.807h-1.843v3.402h1.843"/><path class="cls-8" d="M33.742 56.782h-1.92v3.36h1.92"/><path class="cls-6" d="M32.062 59.902l.24.24M33.022 56.782l.96.96"/><path class="cls-7" d="M31.822 60.142v4.08"/><path class="cls-8" d="M47.662 271.822l-6.96 7.44h70.32l7.2-7.44h-70.56"/><path class="cls-6" d="M117.022 273.262l-1.44-1.44M115.102 275.182l-3.36-3.36M113.182 277.342l-5.52-5.52M111.022 279.262l-7.44-7.44M106.942 279.262l-7.44-7.44M103.102 279.262l-7.44-7.44M99.022 279.262l-7.44-7.44M94.942 279.262l-7.44-7.44M91.102 279.262l-7.44-7.44M87.022 279.262l-7.44-7.44M82.942 279.262l-7.44-7.44M79.102 279.262l-7.44-7.44M75.022 279.262l-7.44-7.44M70.942 279.262l-7.44-7.44M66.862 279.262l-7.44-7.44M63.022 279.262l-7.44-7.44M58.942 279.262l-7.44-7.44M54.862 279.262l-7.2-7.2M51.022 279.262l-5.28-5.28M46.942 279.262l-3.12-3.12M42.862 279.262l-.96-1.2M108.622 279.262l7.44-7.44M104.542 279.262l7.44-7.44M100.462 279.262l7.44-7.44M96.382 279.262l7.44-7.44M92.542 279.262l7.44-7.44M88.462 279.262l7.44-7.44M84.382 279.262l7.44-7.44M80.542 279.262l7.44-7.44M76.462 279.262l7.44-7.44M72.382 279.262l7.44-7.44M68.542 279.262l7.44-7.44M64.462 279.262l7.44-7.44M60.382 279.262l7.44-7.44M56.302 279.262l7.44-7.44M52.462 279.262l7.44-7.44M48.382 279.262l7.44-7.44M44.302 279.262l7.44-7.44M47.422 272.302l.48-.48"/><path class="cls-8" d="M47.662 271.822l-6.96 7.44h70.32l7.2-7.44h-70.56"/><path class="cls-6" d="M117.022 273.262l-1.44-1.44M115.102 275.182l-3.36-3.36M113.182 277.342l-5.52-5.52M111.022 279.262l-7.44-7.44M106.942 279.262l-7.44-7.44M103.102 279.262l-7.44-7.44M99.022 279.262l-7.44-7.44M94.942 279.262l-7.44-7.44M91.102 279.262l-7.44-7.44M87.022 279.262l-7.44-7.44M82.942 279.262l-7.44-7.44M79.102 279.262l-7.44-7.44M75.022 279.262l-7.44-7.44M70.942 279.262l-7.44-7.44M66.862 279.262l-7.44-7.44M63.022 279.262l-7.44-7.44M58.942 279.262l-7.44-7.44M54.862 279.262l-7.2-7.2M51.022 279.262l-5.28-5.28M46.942 279.262l-3.12-3.12M42.862 279.262l-.96-1.2M108.622 279.262l7.44-7.44M104.542 279.262l7.44-7.44M100.462 279.262l7.44-7.44M96.382 279.262l7.44-7.44M92.542 279.262l7.44-7.44M88.462 279.262l7.44-7.44M84.382 279.262l7.44-7.44M80.542 279.262l7.44-7.44M76.462 279.262l7.44-7.44M72.382 279.262l7.44-7.44M68.542 279.262l7.44-7.44M64.462 279.262l7.44-7.44M60.382 279.262l7.44-7.44M56.302 279.262l7.44-7.44M52.462 279.262l7.44-7.44M48.382 279.262l7.44-7.44M44.302 279.262l7.44-7.44M47.422 272.302l.48-.48"/><path class="cls-8" d="M118.222 271.822l-7.2 7.44v108h7.2v-115.44"/><path class="cls-6" d="M118.462 274.462l-1.44-1.2M118.462 278.542l-3.36-3.36M118.462 282.622l-5.28-5.28M118.462 286.462l-7.2-7.2M118.462 290.542l-7.2-7.2M118.462 294.622l-7.2-7.2M118.462 298.462l-7.2-7.2M118.462 302.542l-7.2-7.2M118.462 306.622l-7.2-7.2M118.462 310.702l-7.2-7.2M118.462 314.542l-7.2-7.2M118.462 318.622l-7.2-7.2M118.462 322.702l-7.2-7.2M118.462 326.542l-7.2-7.2M118.462 330.622l-7.2-7.2M118.462 334.702l-7.2-7.2M118.462 338.542l-7.2-7.2M118.462 342.622l-7.2-7.2M118.462 346.702l-7.2-7.2M118.462 350.782l-7.2-7.2M118.462 354.622l-7.2-7.2M118.462 358.702l-7.2-7.2M118.462 362.782l-7.2-7.2M118.462 366.622l-7.2-7.2M118.462 370.702l-7.2-7.2M118.462 374.782l-7.2-7.2M118.462 378.622l-7.2-7.2M118.462 382.702l-7.2-7.2M118.462 386.782l-7.2-7.2M114.862 387.262l-3.6-3.6M116.782 387.262l1.68-1.68M112.702 387.262l5.76-5.52M111.262 384.862l7.2-7.2M111.262 380.782l7.2-7.2M111.262 376.942l7.2-7.2M111.262 372.862l7.2-7.2M111.262 368.782l7.2-7.2M111.262 364.942l7.2-7.2M111.262 360.862l7.2-7.2M111.262 356.782l7.2-7.2M111.262 352.702l7.2-7.2M111.262 348.862l7.2-7.2M111.262 344.782l7.2-7.2M111.262 340.702l7.2-7.2M111.262 336.862l7.2-7.2M111.262 332.782l7.2-7.2M111.262 328.702l7.2-7.2M111.262 324.862l7.2-7.2M111.262 320.782l7.2-7.2M111.262 316.702l7.2-7.2M111.262 312.622l7.2-7.2M111.262 308.782l7.2-7.2M111.262 304.702l7.2-7.2M111.262 300.622l7.2-7.2M111.262 296.782l7.2-7.2M111.262 292.702l7.2-7.2M111.262 288.622l7.2-7.2M111.262 284.542l7.2-7.2M111.262 280.702l7.2-7.2"/><path class="cls-8" d="M118.222 271.822l-7.2 7.44v108h7.2v-115.44"/><path class="cls-6" d="M118.462 274.462l-1.44-1.2M118.462 278.542l-3.36-3.36M118.462 282.622l-5.28-5.28M118.462 286.462l-7.2-7.2M118.462 290.542l-7.2-7.2M118.462 294.622l-7.2-7.2M118.462 298.462l-7.2-7.2M118.462 302.542l-7.2-7.2M118.462 306.622l-7.2-7.2M118.462 310.702l-7.2-7.2M118.462 314.542l-7.2-7.2M118.462 318.622l-7.2-7.2M118.462 322.702l-7.2-7.2M118.462 326.542l-7.2-7.2M118.462 330.622l-7.2-7.2M118.462 334.702l-7.2-7.2M118.462 338.542l-7.2-7.2M118.462 342.622l-7.2-7.2M118.462 346.702l-7.2-7.2M118.462 350.782l-7.2-7.2M118.462 354.622l-7.2-7.2M118.462 358.702l-7.2-7.2M118.462 362.782l-7.2-7.2M118.462 366.622l-7.2-7.2M118.462 370.702l-7.2-7.2M118.462 374.782l-7.2-7.2M118.462 378.622l-7.2-7.2M118.462 382.702l-7.2-7.2M118.462 386.782l-7.2-7.2M114.862 387.262l-3.6-3.6M116.782 387.262l1.68-1.68M112.702 387.262l5.76-5.52M111.262 384.862l7.2-7.2M111.262 380.782l7.2-7.2M111.262 376.942l7.2-7.2M111.262 372.862l7.2-7.2M111.262 368.782l7.2-7.2M111.262 364.942l7.2-7.2M111.262 360.862l7.2-7.2M111.262 356.782l7.2-7.2M111.262 352.702l7.2-7.2M111.262 348.862l7.2-7.2M111.262 344.782l7.2-7.2M111.262 340.702l7.2-7.2M111.262 336.862l7.2-7.2M111.262 332.782l7.2-7.2M111.262 328.702l7.2-7.2M111.262 324.862l7.2-7.2M111.262 320.782l7.2-7.2M111.262 316.702l7.2-7.2M111.262 312.622l7.2-7.2M111.262 308.782l7.2-7.2M111.262 304.702l7.2-7.2M111.262 300.622l7.2-7.2M111.262 296.782l7.2-7.2M111.262 292.702l7.2-7.2M111.262 288.622l7.2-7.2M111.262 284.542l7.2-7.2M111.262 280.702l7.2-7.2"/><path class="cls-7" d="M93.022 110.782h-34.08M93.022 118.462h-34.08M93.022 126.142h-34.08M93.022 133.822h-34.08M93.022 141.502h-34.08M93.022 149.182h-34.08M93.022 156.862h-34.08M93.022 164.302h-34.08M7.822 164.302h33.84M7.822 156.862h33.84M7.822 149.182h33.84M7.822 141.502h33.84M7.822 133.822h33.84M7.822 126.142h33.84M7.822 118.462h33.84M7.822 110.782h33.84M93.022 129.982l-35.52 7.92M43.102 106.942h14.4v61.2h-14.4z"/><path class="cls-7" d="M41.662 105.502h17.28v64.08h-17.28zM80.062 114.862h-7.92M75.982 110.782l4.08 4.08M72.142 114.862l3.84-4.08M80.062 137.662h-7.92M75.982 133.822l4.08 3.84M72.142 137.662l3.84-3.84M20.782 160.462h7.92M24.622 164.302l-3.84-3.84M28.702 160.462l-4.08 3.84M118.462 212.542v-35.04M118.462 177.982v-.48"/><path class="cls-8" d="M296.542 263.902h-85.44v4.32h85.44v-4.32"/><path class="cls-6" d="M211.342 265.102l1.2-1.2M212.542 268.222l4.32-4.32M216.622 268.222l4.32-4.32M220.942 268.222l4.32-4.32M225.262 268.222l4.32-4.32M229.342 268.222l4.32-4.32M233.662 268.222l4.32-4.32M237.982 268.222l4.32-4.32M242.302 268.222l4.32-4.32M246.382 268.222l4.32-4.32M250.702 268.222l4.32-4.32M255.022 268.222l4.32-4.32M259.102 268.222l4.32-4.32M263.422 268.222l4.32-4.32M267.742 268.222l4.32-4.32M272.062 268.222l4.32-4.32M276.142 268.222l4.32-4.32M280.462 268.222l4.32-4.32M284.782 268.222l4.32-4.32M288.862 268.222l4.32-4.32M293.182 268.222l3.6-3.36"/><path class="cls-8" d="M296.542 263.902h-85.44v4.32h85.44v-4.32"/><path class="cls-6" d="M211.342 265.102l1.2-1.2M212.542 268.222l4.32-4.32M216.622 268.222l4.32-4.32M220.942 268.222l4.32-4.32M225.262 268.222l4.32-4.32M229.342 268.222l4.32-4.32M233.662 268.222l4.32-4.32M237.982 268.222l4.32-4.32M242.302 268.222l4.32-4.32M246.382 268.222l4.32-4.32M250.702 268.222l4.32-4.32M255.022 268.222l4.32-4.32M259.102 268.222l4.32-4.32M263.422 268.222l4.32-4.32M267.742 268.222l4.32-4.32M272.062 268.222l4.32-4.32M276.142 268.222l4.32-4.32M280.462 268.222l4.32-4.32M284.782 268.222l4.32-4.32M288.862 268.222l4.32-4.32M293.182 268.222l3.6-3.36"/><path class="cls-8" d="M296.542 202.222h-85.44v5.04h85.44v-5.04"/><path class="cls-6" d="M211.342 205.582l3.36-3.36M213.982 207.262l5.04-5.04M218.062 207.262l5.04-5.04M222.382 207.262l5.04-5.04M226.702 207.262l5.04-5.04M231.022 207.262l5.04-5.04M235.102 207.262l5.04-5.04M239.422 207.262l5.04-5.04M243.742 207.262l5.04-5.04M247.822 207.262l5.04-5.04M252.142 207.262l5.04-5.04M256.462 207.262l5.04-5.04M260.542 207.262l5.04-5.04M264.862 207.262l5.04-5.04M269.182 207.262l5.04-5.04M273.502 207.262l5.04-5.04M277.582 207.262l5.04-5.04M281.902 207.262l5.04-5.04M286.222 207.262l5.04-5.04M290.302 207.262l5.04-5.04M294.622 207.262l2.16-1.92"/><path class="cls-8" d="M296.542 202.222h-85.44v5.04h85.44v-5.04"/><path class="cls-6" d="M211.342 205.582l3.36-3.36M213.982 207.262l5.04-5.04M218.062 207.262l5.04-5.04M222.382 207.262l5.04-5.04M226.702 207.262l5.04-5.04M231.022 207.262l5.04-5.04M235.102 207.262l5.04-5.04M239.422 207.262l5.04-5.04M243.742 207.262l5.04-5.04M247.822 207.262l5.04-5.04M252.142 207.262l5.04-5.04M256.462 207.262l5.04-5.04M260.542 207.262l5.04-5.04M264.862 207.262l5.04-5.04M269.182 207.262l5.04-5.04M273.502 207.262l5.04-5.04M277.582 207.262l5.04-5.04M281.902 207.262l5.04-5.04M286.222 207.262l5.04-5.04M290.302 207.262l5.04-5.04M294.622 207.262l2.16-1.92"/><path class="cls-8" d="M100.222 217.102l-7.2-7.44h-9.6v7.44h16.8"/><path class="cls-6" d="M97.102 217.102l-7.44-7.44M93.022 217.102l-7.44-7.44M88.942 217.102l-5.28-5.52M85.102 217.102l-1.44-1.44M98.542 217.102l.96-.96M94.462 217.102l3.12-2.88M90.622 217.102l4.8-5.04M86.542 217.102l6.96-6.96M83.662 216.142l6.24-6.48M83.662 212.062l2.16-2.4"/><path class="cls-8" d="M100.222 217.102l-7.2-7.44h-9.6v7.44h16.8"/><path class="cls-6" d="M97.102 217.102l-7.44-7.44M93.022 217.102l-7.44-7.44M88.942 217.102l-5.28-5.52M85.102 217.102l-1.44-1.44M98.542 217.102l.96-.96M94.462 217.102l3.12-2.88M90.622 217.102l4.8-5.04M86.542 217.102l6.96-6.96M83.662 216.142l6.24-6.48M83.662 212.062l2.16-2.4"/><path class="cls-7" d="M50.782 215.662h29.52"/><path class="cls-1" d="M50.782 209.662h29.52"/><path class="cls-7" d="M79.822 209.662h.48"/><path class="cls-8" d="M47.662 209.662h3.12v6h-3.12"/><path class="cls-6" d="M51.022 211.102l-1.44-1.44M51.022 215.182l-3.12-3.12M47.902 215.662l3.12-3.12M47.902 211.822l1.92-2.16"/><path class="cls-8" d="M83.422 209.662h-3.12v6h3.12"/><path class="cls-6" d="M83.662 211.582l-2.16-1.92M83.662 215.662l-3.12-3.12M80.542 215.182l3.12-3.12M80.542 211.102l1.44-1.44"/><path class="cls-7" d="M100.222 271.822v-54.72M93.022 271.822v-54.72M93.022 271.822v-54.72M100.222 271.822v-54.72M100.222 177.262v-105.6M93.022 177.262v-105.6M93.022 177.262v-105.6M100.222 177.262v-105.6M100.222 217.102v-4.32M100.222 217.102v-4.32M100.222 71.662v-5.28M93.022 207.262h6M93.022 179.422h6M93.022 207.262h6M93.022 212.782v-5.52M93.022 179.422h6M93.022 177.262v2.16M100.222 212.782h-1.2M100.222 177.262h-1.2M93.022 212.782v-5.52M93.022 177.262v2.16M99.022 207.262v5.52M99.022 179.422v-2.16M.622 212.062v6.96M.622 212.062v6.96M.622 71.662v108M7.822 71.662v108M7.822 71.662v108M.622 71.662v108M.622 66.382v5.28M7.822 179.662v2.4h-6v-2.4h-1.2M7.756 209.77H1.803v2.265H.669M129.262 393.502h-18.24M129.262 397.102h-18.24M129.262 382.222h-18.24M129.262 387.262h-18.24M232.462 393.502h-40.32M232.462 397.102h-40.32M232.462 382.222h-40.32M232.462 387.262h-40.32M307.822 393.502h-34.56M311.422 397.102h-38.16M296.542 382.222h-23.28M301.582 387.262h-28.32M190.222 397.102h3.36M130.942 397.102h-3.36M192.142 387.262v-5.04M192.142 397.102h-1.92v-3.6h1.92M129.262 387.262v-5.04M129.262 397.102h1.68v-3.6h-1.68M271.342 397.102h3.36M234.142 397.102h-3.36M273.262 387.262v-5.04M273.262 397.102h-1.92v-3.6h1.92M232.462 387.262v-5.04M232.462 397.102h1.68v-3.6h-1.68M276.862 60.142h30.96M276.862 56.782h34.56M276.862 71.662h19.68M276.862 66.382h24.72M192.142 60.142h43.92M192.142 56.782h43.92M192.142 71.662h43.92M192.142 66.382h43.92M100.222 60.142h29.04M100.222 56.782h29.04M100.222 71.662h29.04M100.222 66.382h29.04M100.222 66.382v5.28M129.262 66.382v5.28M129.262 56.782h1.68v3.36h-1.68M192.142 66.382v5.28M192.142 56.782h-1.92v3.36h1.92M237.982 56.782h-3.6M274.942 56.782h3.6M236.062 66.382v5.28M236.062 56.782h1.92v3.36h-1.92M276.862 66.382v5.28M276.862 56.782h-1.92v3.36h1.92M211.102 71.662h-4.32M211.102 202.222V97.582M211.102 211.582v-4.32M206.782 211.582v-114M206.782 211.582v-114M211.102 202.222V97.582M211.102 211.582v-4.32M211.102 263.902v-27.12M211.102 356.062v-87.84M206.782 356.062v-119.28M206.782 356.062v-119.28M211.102 263.902v-27.12M211.102 356.062v-87.84M211.102 382.222h-4.32M211.102 382.222h-4.32M211.102 356.062h-4.32M211.102 97.582h-4.32M211.102 71.662h-4.32M211.102 236.782h-4.32M211.102 211.582h-4.32M40.702 209.662h6.96M40.702 209.662h6.96M.622 219.022h7.68M7.822 209.662h.48M7.822 209.662h.48M.622 219.022h7.68M10.462 209.662v8.4M38.302 209.662v8.4M10.462 209.662v8.4M8.302 209.662h2.16M38.302 209.662v8.4M40.702 209.662h-2.4M8.302 219.022v-.96M40.702 219.022v-.96M8.302 209.662h2.16M40.702 209.662h-2.4M10.462 218.062h-2.16M38.302 218.062h2.4M307.822 60.142v333.36M311.422 56.782v340.32M296.542 71.662v310.56M301.582 66.382v320.88M47.662 271.822v-54.72M40.702 279.262v-60.24M40.702 279.262v-60.24M47.662 271.822v-54.72M33.742 60.142h59.28M33.742 56.782h66.48M33.742 71.662h59.28M33.742 66.382h66.48M.622 60.142h14.4M.622 56.782h14.4M7.822 71.662h7.2M.622 66.382h14.4M93.022 60.142h7.2M16.702 56.782h-3.36M31.822 56.782h3.36M15.022 66.382v5.28M15.022 56.782h1.68v3.36h-1.68M33.742 66.382v5.28M33.742 56.782h-1.92v3.36h1.92M93.022 271.822h-45.36M118.222 271.822h-18M111.022 279.262h-70.32M111.022 279.262h-70.32M93.022 271.822h-45.36M118.222 271.822h-18M118.222 387.262v-115.44M111.022 387.262v-108M111.022 387.262v-108M118.222 387.262v-115.44M118.222 387.262h-7.2M211.102 268.222h85.44M211.102 263.902h85.44M296.542 268.222v-4.32M211.102 263.902h85.44M211.102 268.222h85.44M211.102 207.262h85.44M211.102 202.222h85.44M296.542 207.262v-5.04M211.102 202.222h85.44M211.102 207.262h85.44M83.422 217.102h9.6M83.422 209.662h9.6M83.422 209.662h9.6M83.422 217.102h9.6M50.782 209.662v6M80.302 209.662v6M50.782 209.662v6M47.662 209.662h3.12M80.302 209.662v6M83.422 209.662h-3.12M47.662 217.102v-1.44M83.422 217.102v-1.44M47.662 209.662h3.12M83.422 209.662h-3.12M50.782 215.662h-3.12M80.302 215.662h3.12"/><path class="cls-6" d="M256.512 66.5c0 .62.031 1.24.094 1.859a18.745 18.745 0 0 0 .73 3.648 18.977 18.977 0 0 0 7.625 10.275 18.975 18.975 0 0 0 10.543 3.209M275.422 85.582v-19.2M256.462 66.382v1.44M256.462 69.262l-.24.96M256.222 70.222l-.24.48M255.742 71.902l-.72 1.92M254.782 74.542l-.48.96M254.302 75.502l-.24.24M253.342 76.942l-1.2 1.68M251.422 79.342l-.48.48M250.942 79.822l-.48.48M249.502 81.262l-1.44.96M247.102 82.702l-.72.48M246.382 83.182l-.48.24M244.702 84.142l-1.68.48M241.822 84.862l-.72.24M241.102 85.102h-.72M239.422 85.342l-1.92.24"/><path class="cls-4" d="M237.502 85.582v-19.2"/><path class="cls-6" d="M237.502 66.862v-.48M190.704 367.231c-11.04 0-20.126 9.087-20.126 20.127M190.702 367.342v19.92"/><path class="cls-4" d="M150.382 367.342l4.08.24 3.6 1.2 3.6 1.92 3.12 2.4 2.4 3.12 1.92 3.36 1.2 3.84.24 3.84M150.382 367.342v19.92"/><path class="cls-6" d="M252.783 387.245a19.01 19.01 0 0 1 .823-5.508 18.898 18.898 0 0 1 1.428-3.437c.293-.55.612-1.082.957-1.598a19.32 19.32 0 0 1 1.112-1.498 19.507 19.507 0 0 1 2.633-2.633c.48-.393.979-.763 1.497-1.108a18.855 18.855 0 0 1 5.035-2.388 19.258 19.258 0 0 1 3.648-.73c.617-.06 1.238-.091 1.86-.091M271.822 368.302v18.96M252.862 387.262l-.24-1.44M252.382 384.382v-.72M252.382 383.662l-.24-.72M251.902 381.742l-.48-1.68M250.702 378.862l-.24-.48M250.462 378.382l-.48-.72M249.262 376.462l-.72-1.2M247.102 373.822l-.48-.48M245.902 372.622l-1.68-1.2M243.262 370.702l-.48-.24M242.782 370.462l-.72-.24M241.102 369.742l-1.92-.72M237.982 368.782l-.48-.24M237.502 368.542h-.96"/><path class="cls-4" d="M233.902 368.302v18.96"/><path class="cls-6" d="M233.902 386.782v.48M130.61 86.602c11.04 0 20.127-9.085 20.127-20.126M130.702 86.542v-20.16"/><path class="cls-6" d="M170.782 86.542l-3.84-.24-3.84-1.2-3.36-1.92-3.12-2.4-2.4-3.12-1.92-3.6-1.2-3.6-.48-4.08M170.782 86.542v-20.16"/><path class="cls-7" d="M100.222 267.022h17.52"/><path class="cls-5" d="M100.222 266.302h18.24"/><path class="cls-7" d="M100.222 268.462h16.32M100.222 267.022h17.52M100.222 266.302h18.24M100.222 268.462h16.32"/><path class="cls-5" d="M100.222 267.022v-.72"/><path class="cls-7" d="M100.222 268.462v-1.44M201.262 56.782l-3.6-54.96h-73.92l-3.36 54.96"/><path class="cls-7" d="M202.942 56.782l-3.6-56.64h-77.28l-3.36 56.64"/><path class="cls-3" d="M143.902 237.742v.72M143.902 238.462l-.24.72M143.662 239.182l-.24.96M143.422 240.142v.24M142.702 241.822v.24M141.742 243.022l-.48.72M141.262 243.742l-.48.48M140.782 244.222l-.72.48M140.062 244.702l-.48.24M138.382 245.662h-.24M136.702 245.902l-.48.24M136.222 246.142h-.96M135.262 246.142h-.72M134.542 246.142l-.48-.24M132.622 245.662h-.24M130.942 244.942l-.24-.24M130.702 244.702l-.72-.48M129.982 244.222l-.72-.48M129.262 243.742l-.48-.48M128.062 242.062l-.24-.24M127.342 240.382l-.24-.24M127.102 240.142v-.96M127.102 239.182l-.24-.72M126.862 238.462v-.72M126.862 236.302l.24-.24M127.342 234.622l.24-.24M127.582 234.382l.24-.72M127.822 233.662l.48-.72M128.302 232.942l.48-.72M129.742 231.262l.24-.24M131.182 230.302l.24-.24M131.422 230.062l.72-.24M132.142 229.822l.72-.24M132.862 229.582l.72-.24M133.582 229.342h.24M135.262 229.102h.24M136.942 229.342l.96.24M137.902 229.582l.72.24M138.622 229.822l.72.24M139.342 230.062l.24.24M140.782 231.022l.24.24M141.982 232.222l.48.72M142.462 232.942l.48.72M142.942 233.662l.24.72M143.182 234.382l.24.24M143.662 236.062v.24"/></g><g id="Mbel"><path class="cls-2" d="M161.578 99.114h22.56v51.12h-22.56zM194.136 148.853v-12.756M185.631 148.853h8.505M194.136 136.097h-8.505M194.136 131.13v-12.756M185.631 131.13h8.505M194.136 118.374h-8.505M194.136 113.407v-12.756M185.631 113.407h8.505M194.136 100.651h-8.505M151.616 148.853v-12.756M160.121 148.853h-8.505M151.616 136.097h8.505M151.616 131.13v-12.756M160.121 131.13h-8.505M151.616 118.374h8.505M151.616 113.407v-12.756M160.121 113.407h-8.505M151.616 100.651h8.505M212.698 119.754h56.64v45.36h-56.64zM212.698 185.034h56.64v15.6h-56.64zM194.698 282.954h10.8v56.64h-10.8zM155.098 297.114h14.16v28.32h-14.16zM124.121 284.62h18.708c.055 0 .11.005.166.017.055.01.108.026.158.048.053.021.101.048.149.077a.906.906 0 0 1 .233.235.864.864 0 0 1 .127.307c.012.055.017.11.017.166v24.945a.84.84 0 0 1-.25.6.858.858 0 0 1-.6.25h-18.708V284.62M120.435 280.084h22.394c.055 0 .11.005.166.017a.886.886 0 0 1 .434.233c.041.038.077.081.106.127a.887.887 0 0 1 .127.307c.012.055.017.11.017.166v2.834a.843.843 0 0 1-.25.602.858.858 0 0 1-.6.25h-22.394a.852.852 0 0 1-.6-.25.858.858 0 0 1-.25-.602v-2.834a.84.84 0 0 1 .25-.6.848.848 0 0 1 .6-.25M124.121 311.265h-3.686a.852.852 0 0 0-.6.25.858.858 0 0 0-.25.6v24.945a.843.843 0 0 0 .25.602.851.851 0 0 0 .6.247h3.686M126.298 337.914v-53.28"/><path class="cls-2" d="M124.121 337.91h18.708c.055 0 .11-.005.166-.015a.866.866 0 0 0 .158-.05.73.73 0 0 0 .276-.183.865.865 0 0 0 .233-.437.774.774 0 0 0 .017-.165v-24.946a.774.774 0 0 0-.017-.165.781.781 0 0 0-.127-.305.608.608 0 0 0-.106-.13.886.886 0 0 0-.434-.233.774.774 0 0 0-.166-.016h-18.708v26.645"/><path class="cls-2" d="M120.435 342.446h22.394c.055 0 .11-.005.166-.017a.886.886 0 0 0 .307-.127.661.661 0 0 0 .127-.106.886.886 0 0 0 .233-.434.775.775 0 0 0 .017-.166v-2.834a.76.76 0 0 0-.017-.166.773.773 0 0 0-.127-.307.9.9 0 0 0-.233-.235.886.886 0 0 0-.307-.128.968.968 0 0 0-.166-.016h-22.394a.848.848 0 0 0-.785.526.842.842 0 0 0-.065.326v2.834a.84.84 0 0 0 .25.6.848.848 0 0 0 .6.25M124.121 311.265h-3.686a.851.851 0 0 1-.85-.85V285.47a.851.851 0 0 1 .85-.85h3.686M156.485 272.975a79.139 79.139 0 0 1 .59-11.966c.12-.95.8-1.738 1.721-1.995 3.101-.868 6.38-.868 9.48 0a2.38 2.38 0 0 1 1.721 1.995c.5 3.97.696 7.968.59 11.966v.08l-.076.016c-.672.166-1.359.262-2.05.288-3.28.13-6.566.13-9.85 0a10.188 10.188 0 0 1-2.049-.288l-.074-.017-.003-.079"/><path class="cls-2" d="M156.024 271.926a2.407 2.407 0 0 1-.64-.775 8.834 8.834 0 0 1-1.001-4.397c.07-2.052.319-4.092.746-6.098a16.298 16.298 0 0 1 1.481-4.126 2.89 2.89 0 0 1 1.908-1.483 22.15 22.15 0 0 1 10.037 0 2.9 2.9 0 0 1 1.91 1.483 16.292 16.292 0 0 1 1.479 4.126c.427 2.006.679 4.046.748 6.098a8.862 8.862 0 0 1-1.003 4.397c-.156.3-.374.564-.64.775M267.658 335.034h7.68v11.28h-7.68zM275.338 317.994h19.92v45.36h-19.92zM212.458 269.514h28.56v56.64h-28.56zM249.898 269.514h45.36v15.6h-45.36z"/></g><g id="Text"><path d="M142.055 195.416h-.67v-5.333h.67v2.454l2.072-2.454h.807l-2.222 2.638 2.222 2.695h-.855l-2.024-2.463v2.463zM149.073 193.585c0 1.08-.831 1.919-1.887 1.919-1.095 0-1.863-.8-1.863-1.935 0-1.143.768-1.927 1.888-1.927 1.087 0 1.862.807 1.862 1.943zm-3.126-.008c0 .815.504 1.367 1.255 1.367.727 0 1.248-.568 1.248-1.367 0-.824-.496-1.376-1.24-1.376-.76 0-1.263.552-1.263 1.376zM153.086 194.96c-.416.376-.825.544-1.36.544-1.055 0-1.807-.8-1.807-1.92 0-1.143.76-1.942 1.839-1.942.528 0 .96.176 1.343.552l-.391.391c-.28-.256-.592-.384-.936-.384-.727 0-1.231.56-1.231 1.36 0 .815.504 1.383 1.223 1.383.36 0 .648-.12.944-.4l.376.416zM154.628 192.241c.335-.415.67-.6 1.111-.6.32 0 .655.129.855.337.2.2.288.488.288.96v2.478h-.608v-2.447c0-.503-.248-.784-.687-.784a.94.94 0 0 0-.72.328c-.184.208-.24.392-.24.744v2.159h-.608v-5.333h.609v2.158zM158.61 193.769c.031.311.088.471.24.671.24.328.591.504.99.504.457 0 .888-.248 1.104-.632l.536.2c-.303.616-.935.992-1.64.992-1.094 0-1.878-.8-1.878-1.92 0-1.135.775-1.942 1.855-1.942 1.071 0 1.871.807 1.871 1.887 0 .048 0 .152-.008.24h-3.07zm2.43-.448c-.024-.288-.08-.448-.207-.632a1.268 1.268 0 0 0-1.016-.504c-.408 0-.775.193-.991.512-.112.176-.16.328-.208.624h2.422zM163.362 191.73v.52c.32-.432.64-.608 1.096-.608.336 0 .64.112.855.304.233.224.313.48.313.983v2.487h-.609v-2.35c0-.329-.04-.505-.135-.633-.112-.152-.329-.248-.576-.248a.916.916 0 0 0-.704.312c-.176.192-.24.368-.24.672v2.247h-.607v-3.686h.607zM166.907 196.687l-.44-.136.671-1.943.577.184-.808 1.895zM172.042 192.441h2.102v.576h-2.102v1.823h2.102v.576h-2.774v-5.333h2.774v.575h-2.102v1.783zM177.07 192.737v-.04c0-.344-.28-.56-.704-.56-.408 0-.664.208-.664.528s.16.44.823.624c.472.128.72.248.896.424.184.184.296.447.296.72 0 .639-.528 1.07-1.311 1.07-.84 0-1.312-.391-1.376-1.135h.6c.04.416.312.64.776.64.415 0 .687-.216.687-.544 0-.32-.208-.48-.84-.64-.8-.215-1.159-.55-1.159-1.11 0-.64.52-1.072 1.295-1.072.785 0 1.256.4 1.287 1.095h-.607zM180.613 192.737v-.04c0-.344-.28-.56-.703-.56-.408 0-.664.208-.664.528s.16.44.823.624c.473.128.72.248.896.424.184.184.295.447.295.72 0 .639-.527 1.07-1.31 1.07-.84 0-1.312-.391-1.376-1.135h.6c.04.416.312.64.776.64.415 0 .687-.216.687-.544 0-.32-.208-.48-.84-.64-.8-.215-1.159-.55-1.159-1.11 0-.64.52-1.072 1.295-1.072.785 0 1.256.4 1.287 1.095h-.607zM182.755 193.769c.032.311.088.471.24.671.24.328.592.504.991.504.456 0 .888-.248 1.104-.632l.536.2c-.304.616-.936.992-1.64.992-1.095 0-1.879-.8-1.879-1.92 0-1.135.777-1.942 1.856-1.942 1.07 0 1.87.807 1.87 1.887 0 .048 0 .152-.008.24h-3.07zm2.431-.448c-.024-.288-.08-.448-.208-.632a1.268 1.268 0 0 0-1.015-.504c-.409 0-.776.193-.992.512-.112.176-.16.328-.208.624h2.423zM187.509 191.73v.52c.319-.432.638-.608 1.094-.608.336 0 .64.112.856.304.232.224.312.48.312.983v2.487h-.608v-2.35c0-.329-.04-.505-.136-.633-.112-.152-.328-.248-.575-.248a.916.916 0 0 0-.704.312c-.176.192-.24.368-.24.672v2.247h-.608v-3.686h.609zM191.052 196.687l-.44-.136.672-1.943.576.184-.808 1.895zM146.869 199.083h.696l-1.632 5.333h-.591l-1.175-4.19-1.184 4.19h-.592l-1.63-5.333h.711l1.215 4.086 1.184-4.086h.632l1.142 4.101 1.224-4.101zM151.676 202.585c0 1.08-.83 1.919-1.886 1.919-1.096 0-1.864-.8-1.864-1.935 0-1.143.768-1.927 1.888-1.927 1.087 0 1.862.807 1.862 1.943zm-3.125-.008c0 .815.503 1.367 1.254 1.367.728 0 1.248-.568 1.248-1.367 0-.824-.496-1.376-1.239-1.376-.76 0-1.263.552-1.263 1.376zM153.39 201.241c.335-.415.671-.6 1.112-.6.319 0 .655.129.855.337.2.2.287.488.287.96v2.478h-.607v-2.447c0-.503-.248-.784-.688-.784a.94.94 0 0 0-.72.328c-.183.208-.24.392-.24.744v2.159h-.607v-5.333h.607v2.158zM157.594 200.73v.52c.32-.432.641-.608 1.096-.608.336 0 .64.112.856.304.232.224.312.48.312.983v2.487h-.608v-2.35c0-.329-.04-.505-.136-.633-.111-.152-.328-.248-.575-.248a.916.916 0 0 0-.704.312c-.176.192-.24.368-.24.672v2.247h-.608v-3.686h.607zM161.585 202.769c.032.311.089.471.24.671.24.328.592.504.991.504.456 0 .888-.248 1.104-.632l.536.2c-.304.616-.936.992-1.64.992-1.095 0-1.879-.8-1.879-1.92 0-1.135.777-1.942 1.856-1.942 1.071 0 1.87.807 1.87 1.887 0 .048 0 .152-.008.24h-3.07zm2.431-.448c-.024-.288-.08-.448-.208-.632a1.268 1.268 0 0 0-1.015-.504c-.408 0-.776.193-.992.512-.112.176-.16.328-.208.624h2.423zM166.339 200.73v.52c.319-.432.638-.608 1.094-.608.336 0 .64.112.856.304.232.224.312.48.312.983v2.487h-.608v-2.35c0-.329-.04-.505-.136-.633-.112-.152-.328-.248-.575-.248a.916.916 0 0 0-.704.312c-.176.192-.24.368-.24.672v2.247h-.608v-3.686h.609zM141.296 208.738v-.575h3.022l-1.566 1.99c.926 0 1.583.664 1.583 1.607 0 1-.752 1.744-1.768 1.744-.839 0-1.438-.472-1.623-1.28l.576-.104c.144.512.52.8 1.016.8.647 0 1.159-.488 1.159-1.111 0-.64-.48-1.088-1.176-1.088-.248 0-.407.048-.64.184l-.263-.232 1.543-1.935h-1.863zM148.178 210.865c.264.264.4.616.4 1.032 0 .943-.695 1.614-1.671 1.614-.967 0-1.647-.647-1.647-1.559 0-.423.144-.807.4-1.07.168-.177.304-.257.624-.36-.28-.096-.4-.177-.544-.352a1.228 1.228 0 0 1-.272-.784c0-.76.624-1.32 1.471-1.32.84 0 1.447.552 1.447 1.312 0 .304-.103.591-.295.816-.144.16-.256.232-.528.327.304.096.447.168.615.344zm-2.286 1.023c0 .568.455 1.032 1.024 1.032.567 0 1.023-.464 1.023-1.032 0-.56-.456-1.03-1.008-1.03a1.03 1.03 0 0 0-1.039 1.03zm.184-2.494c0 .456.376.816.848.816.456 0 .863-.376.863-.808 0-.416-.392-.776-.848-.776-.512 0-.863.32-.863.768zM150.478 213.072a.406.406 0 0 1-.415.408.403.403 0 0 1-.416-.416c0-.24.176-.416.416-.416s.415.176.415.424zM151.409 212.217v-.497l2.75-3.71v3.63h.624v.577h-.623v1.199h-.616v-1.2h-2.135zm2.135-2.615l-1.495 2.039h1.495v-2.04zM158.009 209.73v.511c.28-.423.591-.6 1.047-.6.504 0 .824.217.992.672.272-.471.616-.671 1.168-.671.423 0 .743.136.935.391.176.232.224.44.224 1.024v2.359h-.608V211.2c0-.448-.016-.552-.104-.704-.112-.192-.352-.312-.64-.312-.535 0-.83.36-.83 1.016v2.215h-.61v-2.207c0-.36-.03-.544-.118-.703-.105-.208-.329-.32-.6-.32-.536 0-.856.383-.856 1.023v2.207h-.608v-3.686h.608zM165.6 210.913v.408h-1.95l1.183-1.615c.336-.456.407-.592.407-.768 0-.256-.216-.44-.527-.44-.352 0-.496.177-.504.592h-.44c.024-.647.36-.991.976-.991.56 0 .951.335.951.807 0 .272-.103.52-.384.88l-.847 1.127h1.135z"/><g><path d="M249.588 301.253v.576h-3.814l3.014-4.758h-2.678v-.575h3.79l-3.014 4.757h2.702zM251.429 297.112c0 .215-.177.383-.393.383s-.383-.168-.383-.391.168-.392.392-.392c.216 0 .384.176.384.4zm-.088 4.717h-.608v-3.686h.608v3.686zM253.302 298.143v.512c.28-.424.59-.6 1.047-.6.504 0 .823.216.991.672.273-.472.616-.672 1.168-.672.424 0 .743.136.936.392.175.232.223.44.223 1.023v2.36h-.607v-2.216c0-.448-.017-.551-.105-.704-.111-.191-.351-.311-.64-.311-.535 0-.83.36-.83 1.015v2.215h-.609v-2.207c0-.36-.031-.544-.119-.703-.104-.208-.328-.32-.6-.32-.536 0-.855.384-.855 1.023v2.207h-.608v-3.686h.608zM259.622 298.143v.512c.28-.424.592-.6 1.048-.6.504 0 .823.216.991.672.273-.472.617-.672 1.168-.672.424 0 .743.136.936.392.176.232.224.44.224 1.023v2.36h-.608v-2.216c0-.448-.017-.551-.104-.704-.112-.191-.352-.311-.64-.311-.535 0-.831.36-.831 1.015v2.215h-.609v-2.207c0-.36-.03-.544-.119-.703-.104-.208-.328-.32-.6-.32-.535 0-.856.384-.856 1.023v2.207h-.607v-3.686h.607zM265.72 300.182c.032.311.089.472.24.672.24.328.592.504.991.504.456 0 .888-.248 1.104-.632l.536.2c-.304.615-.936.991-1.64.991-1.094 0-1.879-.8-1.879-1.919 0-1.135.777-1.943 1.856-1.943 1.071 0 1.871.808 1.871 1.888 0 .047 0 .151-.009.239h-3.07zm2.432-.447c-.025-.289-.08-.449-.208-.632a1.268 1.268 0 0 0-1.016-.504c-.408 0-.775.192-.991.512-.113.175-.16.328-.208.624h2.423zM270.474 298.143v.624c.111-.264.191-.376.335-.487.184-.145.44-.225.704-.225h.143v.616c-.063-.008-.127-.008-.167-.008a.944.944 0 0 0-.8.423c-.16.233-.215.448-.215.872v1.871h-.609v-3.686h.609zM246.558 307.247v-.607l1.806-1.184v5.373h-.631v-4.366l-1.175.784zM252.791 310.245v.584h-2.99l1.855-2.654c.536-.776.656-1.016.656-1.336 0-.464-.368-.79-.888-.79-.36 0-.655.167-.775.446-.065.153-.088.273-.096.552h-.6c.032-1.016.568-1.575 1.519-1.575.872 0 1.48.544 1.48 1.32 0 .447-.16.84-.608 1.462l-1.432 1.991h1.88zM254.862 310.486a.406.406 0 0 1-.415.407.403.403 0 0 1-.417-.415c0-.24.176-.416.417-.416.239 0 .415.176.415.424zM255.792 309.63v-.496l2.751-3.71v3.63h.623v.576h-.623v1.2h-.616v-1.2h-2.135zm2.135-2.615l-1.495 2.039h1.495v-2.04zM262.392 307.143v.512c.28-.424.592-.6 1.048-.6.504 0 .823.216.99.672.273-.472.617-.672 1.169-.672.424 0 .743.136.935.392.176.232.224.44.224 1.023v2.36h-.607v-2.216c0-.448-.017-.551-.105-.704-.111-.191-.351-.311-.64-.311-.535 0-.83.36-.83 1.015v2.215h-.609v-2.207c0-.36-.031-.544-.12-.703-.104-.208-.327-.32-.599-.32-.536 0-.856.384-.856 1.023v2.207h-.608v-3.686h.608zM269.984 308.326v.409h-1.952l1.184-1.616c.336-.456.407-.591.407-.767 0-.256-.216-.44-.527-.44-.352 0-.496.176-.504.591h-.44c.024-.647.36-.991.976-.991.56 0 .951.336.951.808 0 .271-.103.52-.383.88l-.848 1.126h1.136z"/></g><g><path d="M243.031 101.739v.575h-3.814l3.015-4.757h-2.679v-.576h3.79l-3.014 4.758h2.702zM244.872 97.597c0 .216-.176.384-.392.384s-.384-.168-.384-.392.168-.392.392-.392c.216 0 .384.176.384.4zm-.088 4.717h-.608v-3.686h.608v3.686zM246.745 98.628v.512c.28-.424.591-.6 1.047-.6.504 0 .823.216.991.672.273-.472.617-.672 1.168-.672.424 0 .744.136.936.392.176.232.224.44.224 1.023v2.36h-.608v-2.216c0-.447-.016-.551-.104-.703-.112-.192-.352-.312-.64-.312-.535 0-.831.36-.831 1.015v2.215h-.608v-2.207c0-.36-.032-.543-.12-.703-.104-.208-.328-.32-.6-.32-.535 0-.855.384-.855 1.023v2.207h-.608v-3.686h.608zM253.066 98.628v.512c.28-.424.591-.6 1.048-.6.503 0 .823.216.99.672.273-.472.617-.672 1.169-.672.424 0 .743.136.935.392.176.232.224.44.224 1.023v2.36h-.608v-2.216c0-.447-.016-.551-.104-.703-.111-.192-.352-.312-.64-.312-.535 0-.83.36-.83 1.015v2.215h-.61v-2.207c0-.36-.03-.543-.118-.703-.105-.208-.328-.32-.6-.32-.536 0-.856.384-.856 1.023v2.207h-.608v-3.686h.608zM259.163 100.667c.033.312.09.472.24.672.24.328.592.504.992.504.456 0 .887-.249 1.103-.632l.536.2c-.303.615-.935.991-1.64.991-1.094 0-1.878-.8-1.878-1.919 0-1.135.776-1.943 1.855-1.943 1.072 0 1.871.808 1.871 1.887 0 .048 0 .152-.008.24h-3.07zm2.432-.448c-.024-.288-.08-.447-.208-.631a1.268 1.268 0 0 0-1.016-.504c-.408 0-.775.192-.99.511-.113.177-.161.329-.209.624h2.423zM263.917 98.628v.624c.112-.264.192-.376.335-.488.185-.144.44-.224.704-.224h.144v.616c-.064-.008-.128-.008-.168-.008a.945.945 0 0 0-.799.424c-.16.231-.216.447-.216.871v1.871h-.608v-3.686h.608zM240.001 107.732v-.607l1.807-1.184v5.373h-.632v-4.366l-1.175.784zM243.207 110.115v-.496l2.751-3.71v3.63h.623v.576h-.623v1.2h-.616v-1.2h-2.135zm2.135-2.615l-1.495 2.04h1.495v-2.04zM248.39 110.97a.406.406 0 0 1-.415.408.403.403 0 0 1-.416-.415c0-.24.176-.416.416-.416s.415.175.415.423zM252.692 109.707c0 .6-.113.968-.376 1.247-.28.296-.703.448-1.207.448-.52 0-.952-.16-1.232-.464-.28-.296-.351-.6-.351-1.407v-1.759c0-.696.08-1.023.319-1.311.264-.32.704-.496 1.248-.496.487 0 .887.136 1.183.4.303.28.416.6.416 1.223v2.12zm-2.535-.136c0 .616.024.728.2.928.168.192.456.311.76.311.328 0 .631-.135.783-.351.12-.176.168-.4.168-.792v-2.039c0-.415-.072-.623-.272-.815a1 1 0 0 0-.68-.248c-.343 0-.64.136-.79.383-.137.192-.169.376-.169.84v1.783zM256.02 107.628v.512c.281-.424.593-.6 1.049-.6.503 0 .823.216.99.672.273-.472.617-.672 1.169-.672.424 0 .743.136.935.392.176.232.224.44.224 1.023v2.36h-.607v-2.216c0-.447-.017-.551-.105-.703-.111-.192-.352-.312-.64-.312-.535 0-.83.36-.83 1.015v2.215h-.61v-2.207c0-.36-.03-.543-.118-.703-.105-.208-.328-.32-.6-.32-.536 0-.856.384-.856 1.023v2.207h-.608v-3.686h.608zM263.613 108.812v.407h-1.952l1.184-1.615c.336-.455.407-.592.407-.767 0-.256-.216-.44-.527-.44-.352 0-.496.176-.504.592h-.44c.024-.648.36-.992.976-.992.56 0 .951.336.951.807 0 .272-.103.52-.384.88l-.847 1.128h1.136z"/></g><g><path d="M246.394 218.356c1.087 0 1.703.512 1.703 1.415 0 .344-.105.648-.304.872-.128.152-.256.232-.544.344.296.063.44.12.608.248.288.232.44.591.44 1.023 0 .496-.217.927-.576 1.16-.312.2-.655.271-1.327.271h-1.503v-5.333h1.503zm-.832 2.399l.68-.008c.423 0 .68-.056.872-.208a.937.937 0 0 0 .327-.736c0-.343-.168-.648-.424-.767-.192-.096-.415-.128-.903-.128h-.552v1.847zm0 2.39h.672c.56 0 .775-.04 1.007-.176.256-.143.384-.399.384-.751 0-.64-.376-.92-1.223-.92h-.84v1.847zM252.284 220.003h.608v3.686h-.608v-.711c-.368.551-.784.8-1.343.8-1.016 0-1.736-.8-1.736-1.92 0-1.127.737-1.943 1.751-1.943.56 0 .968.216 1.328.696v-.608zm-2.135.896a1.686 1.686 0 0 0-.304.975c0 .784.512 1.375 1.184 1.375.695 0 1.263-.647 1.263-1.439 0-.8-.512-1.351-1.248-1.351-.4 0-.68.136-.895.44zM257.064 218.356h.607v5.333h-.607v-.632c-.368.504-.76.72-1.32.72-1.015 0-1.735-.791-1.735-1.911s.736-1.95 1.735-1.95c.544 0 .96.199 1.32.647v-2.207zm-2.415 3.518c0 .808.488 1.375 1.183 1.375.712 0 1.232-.591 1.232-1.39 0-.832-.489-1.4-1.192-1.4-.727 0-1.223.576-1.223 1.415zM247.185 227.964h-1.719v1.431c.272-.104.512-.152.783-.152.936 0 1.64.736 1.64 1.735 0 1.024-.752 1.767-1.799 1.767-.752 0-1.32-.392-1.592-1.095l.576-.216c.128.232.184.327.272.408.168.167.464.271.76.271.64 0 1.128-.495 1.128-1.15 0-.68-.48-1.136-1.184-1.136-.416 0-.84.192-1.184.543v-3.014h2.319v.608zM249.75 232.345a.406.406 0 0 1-.416.408.403.403 0 0 1-.416-.415c0-.24.176-.416.416-.416s.415.175.415.423zM254.051 231.082c0 .6-.112.968-.376 1.247-.28.296-.703.448-1.207.448-.52 0-.951-.16-1.231-.464-.28-.296-.352-.6-.352-1.407v-1.759c0-.696.08-1.023.32-1.311.263-.32.703-.496 1.247-.496.488 0 .887.136 1.183.4.304.28.416.6.416 1.223v2.12zm-2.534-.136c0 .616.023.728.199.928.168.192.456.311.76.311.328 0 .632-.135.783-.351.12-.176.168-.4.168-.792v-2.039c0-.415-.071-.623-.272-.815a1 1 0 0 0-.68-.248c-.343 0-.639.136-.79.383-.137.192-.168.376-.168.84v1.783zM257.38 229.003v.512c.28-.424.592-.6 1.048-.6.504 0 .823.216.991.672.273-.472.616-.672 1.168-.672.424 0 .743.136.936.392.175.232.223.44.223 1.023v2.36h-.607v-2.216c0-.447-.017-.551-.105-.703-.11-.192-.351-.312-.64-.312-.534 0-.83.36-.83 1.015v2.215h-.609v-2.207c0-.36-.03-.543-.119-.703-.104-.208-.328-.32-.6-.32-.536 0-.856.384-.856 1.023v2.207h-.607v-3.686h.607zM264.972 230.187v.407h-1.951l1.183-1.615c.336-.455.408-.592.408-.767 0-.256-.216-.44-.528-.44-.351 0-.496.176-.504.591h-.44c.024-.647.36-.99.976-.99.56 0 .952.335.952.806 0 .272-.104.52-.384.88l-.848 1.128h1.136z"/></g><g><path d="M64.114 246.241v.608h-2.55v-5.333h.672v4.725h1.878zM65.763 242.132c0 .215-.177.383-.393.383s-.383-.168-.383-.392c0-.223.168-.391.392-.391.216 0 .384.175.384.4zm-.088 4.717h-.608v-3.686h.608v3.686zM67.727 246.849h-.608v-3.15h-.504v-.536h.504v-.496c0-.727.376-1.159 1.016-1.159.031 0 .104 0 .167.008v.543c-.44.049-.56.177-.575.608v.496h.575v.535h-.575v3.15zM70.11 246.097c.01.184.057.224.28.224h.281v.528h-.568c-.432-.008-.6-.168-.6-.576v-2.575h-.512v-.535h.512v-1.16h.608v1.16h.56v.535h-.56v2.4z"/></g><g><path d="M131.816 8.857c1.087 0 1.703.511 1.703 1.415 0 .343-.104.648-.303.871-.128.152-.256.232-.544.344.296.064.44.12.607.248.288.232.44.592.44 1.024 0 .495-.216.927-.576 1.159-.311.2-.655.272-1.327.272h-1.503V8.857h1.503zm-.832 2.398l.68-.008c.424 0 .68-.056.872-.208a.937.937 0 0 0 .327-.735c0-.344-.168-.648-.424-.768-.191-.096-.415-.128-.903-.128h-.552v1.847zm0 2.39h.672c.56 0 .775-.039 1.008-.175.256-.144.384-.4.384-.752 0-.64-.376-.919-1.224-.919h-.84v1.847zM137.707 10.504h.607v3.686h-.607v-.712c-.368.552-.784.8-1.344.8-1.016 0-1.735-.8-1.735-1.92 0-1.127.736-1.942 1.75-1.942.561 0 .968.216 1.329.696v-.608zm-2.136.895a1.686 1.686 0 0 0-.304.976c0 .783.512 1.375 1.184 1.375.695 0 1.264-.648 1.264-1.44 0-.799-.512-1.35-1.248-1.35-.4 0-.68.135-.896.44zM139.673 14.19V8.857h.608v5.333h-.608zM142.238 14.19h-.607V8.857h.607v3.262l1.472-1.615h.767l-1.647 1.799 1.64 1.887h-.76l-1.472-1.647v1.647zM148.667 12.359c0 1.08-.831 1.919-1.887 1.919-1.096 0-1.863-.8-1.863-1.935 0-1.144.767-1.927 1.887-1.927 1.087 0 1.863.807 1.863 1.943zm-3.126-.008c0 .815.504 1.367 1.255 1.367.727 0 1.248-.568 1.248-1.367 0-.824-.496-1.376-1.24-1.376-.76 0-1.263.552-1.263 1.376zM150.38 10.504v.52c.32-.432.64-.608 1.095-.608.336 0 .64.112.856.303.232.225.312.48.312.984v2.487h-.608v-2.35c0-.329-.04-.505-.136-.633-.112-.152-.328-.248-.575-.248a.916.916 0 0 0-.704.312c-.176.192-.24.368-.24.672v2.247h-.608v-3.686h.609zM131.257 20.072c.223-.08.327-.104.52-.104.887 0 1.574.695 1.574 1.599 0 .943-.775 1.718-1.718 1.718-.953 0-1.688-.751-1.688-1.718 0-.392.104-.688.408-1.176l1.527-2.454h.744l-1.367 2.135zm-.68 1.495c0 .623.472 1.119 1.071 1.119s1.08-.488 1.08-1.095c0-.6-.472-1.08-1.064-1.08-.608 0-1.087.464-1.087 1.056zM135.19 22.846a.406.406 0 0 1-.415.408.403.403 0 0 1-.416-.416c0-.24.176-.416.416-.416s.415.176.415.424zM139.492 21.583c0 .6-.112.967-.376 1.247-.28.296-.703.448-1.207.448-.52 0-.951-.16-1.232-.464-.28-.296-.351-.6-.351-1.408v-1.758c0-.696.08-1.024.32-1.312.263-.32.703-.495 1.246-.495.489 0 .888.136 1.184.4.304.28.416.599.416 1.223v2.119zm-2.534-.136c0 .615.023.727.199.927.168.192.456.312.76.312.328 0 .632-.136.783-.352.12-.176.168-.4.168-.791v-2.04c0-.415-.071-.623-.272-.815a1 1 0 0 0-.68-.248c-.343 0-.639.136-.791.384-.136.192-.167.376-.167.84v1.782zM142.82 19.504v.511c.28-.423.592-.6 1.048-.6.504 0 .823.217.991.672.273-.472.616-.671 1.168-.671.424 0 .743.135.936.391.175.232.223.44.223 1.024v2.359h-.607v-2.215c0-.448-.017-.552-.105-.704-.111-.192-.351-.312-.64-.312-.534 0-.83.36-.83 1.016v2.215h-.609v-2.207c0-.36-.031-.544-.119-.703-.104-.208-.328-.32-.6-.32-.536 0-.856.383-.856 1.023v2.207h-.607v-3.686h.607zM150.413 20.687v.408h-1.951l1.183-1.615c.336-.456.407-.592.407-.768 0-.256-.215-.44-.527-.44-.351 0-.496.176-.504.592h-.44c.024-.647.36-.991.976-.991.56 0 .952.335.952.807 0 .272-.104.52-.384.88l-.848 1.127h1.136z"/></g></g></svg>