<svg xmlns="http://www.w3.org/2000/svg" viewBox="0 0 368.92346 398.92345"><defs><style>.cls-1{stroke-dasharray:0 0 0 0 2.88 1.44 .24 1.44}.cls-1,.cls-2,.cls-3,.cls-4,.cls-5,.cls-6{fill:none}.cls-1,.cls-2,.cls-6{stroke:#194164;stroke-width:.28346px}.cls-1,.cls-3,.cls-4,.cls-5,.cls-6{stroke-linecap:round;stroke-linejoin:round}.cls-2{stroke-miterlimit:10}.cls-7,.cls-8{fill:#fff}.cls-3{stroke-dasharray:0 0 1.44 1.44}.cls-3,.cls-5{stroke:#969696;stroke-width:.14173px}.cls-4{stroke:#000;stroke-width:.288px}.cls-8,.cls-9{fill-rule:evenodd}</style></defs><g id="Plan"><path class="cls-5" d="M19.582 60.622h59.28v3.6h-59.28z"/><path class="cls-6" d="M249.502 157.342h17.04v.48h-17.04zM249.502 141.982h.48v15.36h-.48zM265.822 141.982h.72v15.36h-.72zM247.582 157.342h1.92v.48h-1.92zM249.502 141.502h17.04v.48h-17.04z"/><path class="cls-6" d="M266.542 157.342h1.68v.48h-1.68z"/><path class="cls-8" d="M245.537 121.031a3.859 3.859 0 0 0 0 4.276 7.917 7.917 0 0 0 6.197 2.894l9.03-.254v-9.556l-9.028-.254a7.921 7.921 0 0 0-6.2 2.894"/><path class="cls-6" d="M245.537 121.031a3.859 3.859 0 0 0 0 4.276 7.917 7.917 0 0 0 6.197 2.894l9.03-.254v-9.556l-9.028-.254a7.921 7.921 0 0 0-6.2 2.894"/><path class="cls-8" d="M255.653 123.17a3.829 3.829 0 0 0-3.79-3.967 6.849 6.849 0 0 0-5.41 2.498 2.73 2.73 0 0 0 0 2.936 6.85 6.85 0 0 0 5.41 2.5 3.829 3.829 0 0 0 3.79-3.968"/><path class="cls-6" d="M255.653 123.17a3.829 3.829 0 0 0-3.79-3.967 6.849 6.849 0 0 0-5.41 2.498 2.73 2.73 0 0 0 0 2.936 6.85 6.85 0 0 0 5.41 2.5 3.829 3.829 0 0 0 3.79-3.968"/><path class="cls-8" d="M260.34 71.862h-47.99l-.077.033-.08.032-.06.06-.06.06-.03.077-.034.079V92.78l.034.078.03.078.06.06.06.06.08.032.077.033H260.424l.08-.033.076-.032.06-.06.06-.06.034-.078.031-.078V72.203l-.031-.079-.034-.078-.06-.06-.06-.06-.077-.031-.079-.033h-.084"/><path class="cls-6" d="M260.34 71.862h-47.99l-.077.033-.08.032-.06.06-.06.06-.03.077-.034.079V92.78l.034.078.03.078.06.06.06.06.08.032.077.033H260.424l.08-.033.076-.032.06-.06.06-.06.034-.078.031-.078V72.203l-.031-.079-.034-.078-.06-.06-.06-.06-.077-.031-.079-.033h-.084"/><path class="cls-8" d="M255.096 73.99h-37.418a3.396 3.396 0 0 0-2.405.996 3.415 3.415 0 0 0-.996 2.406v10.2a3.412 3.412 0 0 0 .996 2.406 3.412 3.412 0 0 0 2.405.996h37.418a3.395 3.395 0 0 0 2.405-.996c.317-.316.566-.691.737-1.104.173-.413.259-.855.259-1.302v-10.2c0-.447-.086-.89-.26-1.302a3.386 3.386 0 0 0-1.84-1.84 3.395 3.395 0 0 0-1.3-.26"/><path class="cls-6" d="M255.096 73.99h-37.418a3.396 3.396 0 0 0-2.405.996 3.415 3.415 0 0 0-.996 2.406v10.2a3.412 3.412 0 0 0 .996 2.406 3.412 3.412 0 0 0 2.405.996h37.418a3.395 3.395 0 0 0 2.405-.996c.317-.316.566-.691.737-1.104.173-.413.259-.855.259-1.302v-10.2c0-.447-.086-.89-.26-1.302a3.386 3.386 0 0 0-1.84-1.84 3.395 3.395 0 0 0-1.3-.26M261.502 136.222v-20.88"/><path class="cls-4" d="M260.782 136.222v-21.6"/><path class="cls-6" d="M262.942 136.222v-19.44M261.502 136.222v-20.88M260.782 136.222v-21.6M262.942 136.222v-19.44M265.342 115.342v-18.48"/><path class="cls-4" d="M264.622 114.622v-17.04"/><path class="cls-6" d="M266.782 116.782v-21.12M265.342 115.342v-18.48M264.622 114.622v-17.04M266.782 116.782v-21.12M261.502 96.862v-25.2"/><path class="cls-4" d="M260.782 97.582v-25.92"/><path class="cls-6" d="M262.942 95.662v-24M261.502 96.862v-25.2M260.782 97.582v-25.92M262.942 95.662v-24"/><path class="cls-8" d="M260.765 98.38h-12.048a1.132 1.132 0 0 0-1.133 1.134v13.322a1.15 1.15 0 0 0 .331.802c.106.105.23.189.37.246.137.057.283.086.432.086h12.048V98.38"/><path class="cls-6" d="M260.765 98.38h-12.048a1.132 1.132 0 0 0-1.133 1.134v13.322a1.15 1.15 0 0 0 .331.802c.106.105.23.189.37.246.137.057.283.086.432.086h12.048V98.38M260.782 114.622h3.84M264.622 114.622v-17.04M264.622 97.582h-3.84M265.342 96.862h-3.84"/><path class="cls-4" d="M264.622 97.582h-3.84"/><path class="cls-6" d="M266.782 95.662h-3.84M265.342 96.862h-3.84M264.622 97.582h-3.84M266.782 95.662h-3.84M261.502 115.342h3.84"/><path class="cls-4" d="M260.782 114.622h3.84"/><path class="cls-6" d="M262.942 116.782h3.84M261.502 115.342h3.84M260.782 114.622h3.84M262.942 116.782h3.84"/><path class="cls-4" d="M260.782 114.622v-17.04"/><path class="cls-9" d="M239.182 71.662v-14.88h29.52v14.88h-29.52"/><path class="cls-8" d="M239.182 56.782v3.36h29.52v-3.36h-29.52"/><path class="cls-5" d="M239.422 58.222l1.92 1.92M241.822 56.782l3.36 3.36M245.902 56.782l3.36 3.36M249.982 56.782l3.36 3.36M254.062 56.782l3.36 3.36M257.902 56.782l3.36 3.36M261.982 56.782l3.36 3.36M266.062 56.782l2.88 2.88"/><path class="cls-8" d="M239.182 60.142v.72h29.52v-.72h-29.52M239.182 60.862v5.52h29.52v-5.52h-29.52"/><path class="cls-5" d="M267.982 66.382v-5.52M266.542 66.382v-5.52M265.102 66.382v-5.52M263.662 66.382v-5.52M262.222 66.382v-5.52M261.022 66.382v-5.52M259.582 66.382v-5.52M258.142 66.382v-5.52M256.702 66.382v-5.52M255.262 66.382v-5.52M253.822 66.382v-5.52M252.382 66.382v-5.52M250.942 66.382v-5.52M249.502 66.382v-5.52M248.062 66.382v-5.52M246.622 66.382v-5.52M245.422 66.382v-5.52M243.982 66.382v-5.52M242.542 66.382v-5.52M241.102 66.382v-5.52M239.662 66.382v-5.52"/><path class="cls-8" d="M239.182 66.382v5.28h29.52v-5.28h-29.52"/><path class="cls-5" d="M239.422 70.222l1.44 1.44M239.422 66.382l5.28 5.28M243.502 66.382l5.28 5.28M247.582 66.382l5.28 5.28M251.422 66.382l5.28 5.28M255.502 66.382l5.28 5.28M259.582 66.382l5.28 5.28M263.662 66.382l5.28 5.28M267.502 66.382l1.44 1.2M239.182 66.382h29.52M239.182 60.862h29.52"/><path class="cls-6" d="M239.182 56.782h29.52M239.182 71.662h29.52"/><path class="cls-9" d="M172.702 71.662v-14.88h47.76v14.88h-47.76"/><path class="cls-8" d="M172.702 56.782v3.36h47.76v-3.36h-47.76"/><path class="cls-5" d="M172.942 59.902l.24.24M173.902 56.782l3.36 3.36M177.742 56.782l3.36 3.36M181.822 56.782l3.36 3.36M185.902 56.782l3.36 3.36M189.742 56.782l3.36 3.36M193.822 56.782l3.36 3.36M197.902 56.782l3.36 3.36M201.742 56.782l3.36 3.36M205.822 56.782l3.36 3.36M209.902 56.782l3.36 3.36M213.982 56.782l3.36 3.36M217.822 56.782l2.88 2.64"/><path class="cls-8" d="M172.702 60.142v.72h47.76v-.72h-47.76M172.702 60.862v5.52h47.76v-5.52h-47.76"/><path class="cls-5" d="M219.742 66.382v-5.52M218.302 66.382v-5.52M216.862 66.382v-5.52M215.662 66.382v-5.52M214.222 66.382v-5.52M212.782 66.382v-5.52M211.342 66.382v-5.52M209.902 66.382v-5.52M208.462 66.382v-5.52M207.022 66.382v-5.52M205.582 66.382v-5.52M204.142 66.382v-5.52M202.702 66.382v-5.52M201.262 66.382v-5.52M200.062 66.382v-5.52M198.622 66.382v-5.52M197.182 66.382v-5.52M195.742 66.382v-5.52M194.302 66.382v-5.52M192.862 66.382v-5.52M191.422 66.382v-5.52M189.982 66.382v-5.52M188.542 66.382v-5.52M187.102 66.382v-5.52M185.902 66.382v-5.52M184.462 66.382v-5.52M183.022 66.382v-5.52M181.582 66.382v-5.52M180.142 66.382v-5.52M178.702 66.382v-5.52M177.262 66.382v-5.52M175.822 66.382v-5.52M174.382 66.382v-5.52M172.942 66.382v-5.52"/><path class="cls-8" d="M172.702 66.382v5.28h47.76v-5.28h-47.76"/><path class="cls-5" d="M172.942 67.822l3.6 3.84M175.342 66.382l5.28 5.28M179.422 66.382l5.28 5.28M183.502 66.382l5.28 5.28M187.342 66.382l5.28 5.28M191.422 66.382l5.28 5.28M195.502 66.382l5.28 5.28M199.342 66.382l5.28 5.28M203.422 66.382l5.28 5.28M207.502 66.382l5.28 5.28M211.342 66.382l5.28 5.28M215.422 66.382l5.28 5.04M219.502 66.382l1.2 1.2M172.702 66.382h47.76M172.702 60.862h47.76"/><path class="cls-6" d="M172.702 56.782h47.76M172.702 71.662h47.76"/><path class="cls-9" d="M80.542 71.662v-14.88h51.36v14.88h-51.36"/><path class="cls-8" d="M80.542 56.782v3.36h51.36v-3.36h-51.36"/><path class="cls-5" d="M80.782 59.902l.24.24M81.502 56.782l3.36 3.36M85.582 56.782l3.36 3.36M89.662 56.782l3.36 3.36M93.502 56.782l3.36 3.36M97.582 56.782l3.36 3.36M101.662 56.782l3.36 3.36M105.742 56.782l3.36 3.36M109.582 56.782l3.36 3.36M113.662 56.782l3.36 3.36M117.742 56.782l3.36 3.36M121.582 56.782l3.36 3.36M125.662 56.782l3.36 3.36M129.742 56.782l2.4 2.4"/><path class="cls-8" d="M80.542 60.142v.72h51.36v-.72h-51.36M80.542 60.862v5.52h51.36v-5.52h-51.36"/><path class="cls-5" d="M131.902 66.382v-5.52M130.462 66.382v-5.52M129.022 66.382v-5.52M127.582 66.382v-5.52M126.142 66.382v-5.52M124.942 66.382v-5.52M123.502 66.382v-5.52M122.062 66.382v-5.52M120.622 66.382v-5.52M119.182 66.382v-5.52M117.742 66.382v-5.52M116.302 66.382v-5.52M114.862 66.382v-5.52M113.422 66.382v-5.52M111.982 66.382v-5.52M110.782 66.382v-5.52M109.342 66.382v-5.52M107.902 66.382v-5.52M106.462 66.382v-5.52M105.022 66.382v-5.52M103.582 66.382v-5.52M102.142 66.382v-5.52M100.702 66.382v-5.52M99.262 66.382v-5.52M97.822 66.382v-5.52M96.382 66.382v-5.52M95.182 66.382v-5.52M93.742 66.382v-5.52M92.302 66.382v-5.52M90.862 66.382v-5.52M89.422 66.382v-5.52M87.982 66.382v-5.52M86.542 66.382v-5.52M85.102 66.382v-5.52M83.662 66.382v-5.52M82.222 66.382v-5.52M81.022 66.382v-5.52"/><path class="cls-8" d="M80.542 66.382v5.28h51.36v-5.28h-51.36"/><path class="cls-5" d="M80.782 67.822l3.6 3.84M83.182 66.382l5.28 5.28M87.262 66.382l5.28 5.28M91.102 66.382l5.28 5.28M95.182 66.382l5.28 5.28M99.262 66.382l5.28 5.28M103.102 66.382l5.28 5.28M107.182 66.382l5.28 5.28M111.262 66.382l5.28 5.28M115.342 66.382l5.28 5.28M119.182 66.382l5.28 5.28M123.262 66.382l5.28 5.28M127.342 66.382l4.8 4.8M131.182 66.382l.96.72M80.542 66.382h51.36M80.542 60.862h51.36"/><path class="cls-6" d="M80.542 56.782h51.36M80.542 71.662h51.36"/><path class="cls-9" d="M.142 71.662v-14.88h17.52v14.88H.142"/><path class="cls-8" d="M.142 56.782v3.36h17.52v-3.36H.142"/><path class="cls-5" d="M.382 59.662l.48.48M1.342 56.782l3.36 3.36M5.422 56.782l3.36 3.36M9.502 56.782l3.36 3.36M13.342 56.782l3.36 3.36M17.422 56.782l.48.24"/><path class="cls-8" d="M.142 60.142v.72h17.52v-.72H.142M.142 60.862v5.52h17.52v-5.52H.142"/><path class="cls-5" d="M17.182 66.382v-5.52M15.742 66.382v-5.52M14.302 66.382v-5.52M12.862 66.382v-5.52M11.422 66.382v-5.52M9.982 66.382v-5.52M8.542 66.382v-5.52M7.102 66.382v-5.52M5.902 66.382v-5.52M4.462 66.382v-5.52M3.022 66.382v-5.52M1.582 66.382v-5.52"/><path class="cls-8" d="M.142 66.382v5.28h17.52v-5.28H.142"/><path class="cls-5" d="M.382 67.582l3.84 4.08M3.022 66.382l5.28 5.28M7.102 66.382l5.28 5.28M10.942 66.382l5.28 5.28M15.022 66.382l2.88 2.88M.142 66.382h17.52M.142 60.862h17.52"/><path class="cls-6" d="M.142 56.782h17.52M.142 71.662h17.52"/><path class="cls-1" d="M17.662 71.662h62.88"/><path class="cls-6" d="M17.662 64.222h62.88v2.16h-62.88zM21.262 64.222v2.16M76.942 64.222v2.16M17.662 66.382v-2.16M36.622 66.382v-2.16M21.262 66.382v-2.16M40.702 66.382v-2.16M36.622 66.382v-2.16M57.502 66.382v-2.16M40.702 66.382v-2.16M61.822 66.382v-2.16M57.502 66.382v-2.16M76.942 66.382v-2.16M61.822 66.382v-2.16M80.542 66.382v-2.16M82.222 56.782v-1.68"/><path class="cls-1" d="M82.222 55.102h-66"/><path class="cls-6" d="M16.222 55.102v1.2"/><path class="cls-8" d="M17.695 60.807h1.842v3.402h-1.842"/><path class="cls-5" d="M18.622 64.222v-3.36M17.695 60.807h1.842v3.402h-1.842"/><path class="cls-8" d="M17.662 56.782h1.92v3.36h-1.92"/><path class="cls-5" d="M17.902 57.022l1.92 1.92"/><path class="cls-6" d="M19.582 60.142v4.08"/><path class="cls-8" d="M80.623 60.807H78.78v3.402h1.843"/><path class="cls-5" d="M79.582 64.222v-3.36M80.623 60.807H78.78v3.402h1.843"/><path class="cls-8" d="M80.542 56.782h-1.68v3.36h1.68"/><path class="cls-5" d="M79.102 58.222l1.68 1.68"/><path class="cls-6" d="M78.862 60.142v4.08M133.822 64.222v-7.44h-3.36v-1.68h43.92v1.68h-3.36v7.44"/><path class="cls-1" d="M131.902 71.662h40.8"/><path class="cls-6" d="M172.222 71.662h.48M131.902 64.222h40.8v2.16h-40.8zM135.502 64.222v2.16M169.102 64.222v2.16M131.902 66.382v-2.16M150.382 66.382v-2.16M135.502 66.382v-2.16M154.462 66.382v-2.16M150.382 66.382v-2.16M169.102 66.382v-2.16M154.462 66.382v-2.16M172.702 66.382v-2.16"/><path class="cls-8" d="M131.93 60.807h1.844v3.402h-1.843"/><path class="cls-5" d="M133.342 64.222v-3.36M131.93 60.807h1.844v3.402h-1.843"/><path class="cls-8" d="M131.902 56.782h1.92v3.36h-1.92"/><path class="cls-5" d="M132.142 59.182l.96.96M133.582 56.782l.48.24"/><path class="cls-6" d="M133.822 60.142v4.08"/><path class="cls-8" d="M172.75 60.807h-1.843v3.402h1.843"/><path class="cls-5" d="M171.502 64.222v-3.36M172.75 60.807h-1.843v3.402h1.843"/><path class="cls-8" d="M172.702 56.782h-1.68v3.36h1.68"/><path class="cls-5" d="M171.262 58.222l1.68 1.68"/><path class="cls-6" d="M171.022 60.142v4.08M220.462 66.382v5.28h18.72v-5.28M222.142 64.222v-7.44h-3.36v-1.68h21.84v1.68h-3.36v7.44M222.142 56.782h15.12M220.462 64.222h18.72v2.16h-18.72zM224.062 64.222v2.16M235.342 64.222v2.16M220.462 66.382v-2.16M235.342 66.382v-2.16M224.062 66.382v-2.16M239.182 66.382v-2.16M222.142 60.142h7.68"/><path class="cls-8" d="M220.37 60.807h1.844v3.402h-1.843"/><path class="cls-5" d="M221.182 64.222v-3.36M220.37 60.807h1.844v3.402h-1.843"/><path class="cls-8" d="M220.462 56.782h1.68v3.36h-1.68"/><path class="cls-5" d="M220.702 59.422l.48.72M221.902 56.782l.48.48"/><path class="cls-6" d="M222.142 60.142v4.08M237.262 60.142h-7.44"/><path class="cls-8" d="M239.08 60.807h-1.842v3.402h1.843"/><path class="cls-5" d="M238.222 64.222v-3.36M239.08 60.807h-1.842v3.402h1.843"/><path class="cls-8" d="M239.182 56.782h-1.92v3.36h1.92"/><path class="cls-5" d="M237.982 56.782l1.44 1.44"/><path class="cls-6" d="M237.262 60.142v4.08"/><path class="cls-8" d="M368.302 217.102h-7.2v54.72l7.2 7.44v-62.16"/><path class="cls-5" d="M368.542 219.262l-2.4-2.16M368.542 223.342l-6.48-6.24M368.542 227.422l-7.2-7.2M368.542 231.262l-7.2-7.2M368.542 235.342l-7.2-7.2M368.542 239.422l-7.2-7.2M368.542 243.502l-7.2-7.2M368.542 247.342l-7.2-7.2M368.542 251.422l-7.2-7.2M368.542 255.502l-7.2-7.2M368.542 259.342l-7.2-7.2M368.542 263.422l-7.2-7.2M368.542 267.502l-7.2-7.2M368.542 271.342l-7.2-7.2M368.542 275.422l-7.2-7.2M367.102 277.822l1.44-1.44M365.182 275.902l3.36-3.36M363.022 273.742l5.52-5.28M361.342 271.582l7.2-7.2M361.342 267.742l7.2-7.2M361.342 263.662l7.2-7.2M361.342 259.582l7.2-7.2M361.342 255.742l7.2-7.2M361.342 251.662l7.2-7.2M361.342 247.582l7.2-7.2M361.342 243.502l7.2-7.2M361.342 239.662l7.2-7.2M361.342 235.582l7.2-7.2M361.342 231.502l7.2-7.2M361.342 227.662l7.2-7.2M361.342 223.582l6.24-6.48M361.342 219.502l2.4-2.4"/><path class="cls-8" d="M368.302 217.102h-7.2v54.72l7.2 7.44v-62.16"/><path class="cls-5" d="M368.542 219.262l-2.4-2.16M368.542 223.342l-6.48-6.24M368.542 227.422l-7.2-7.2M368.542 231.262l-7.2-7.2M368.542 235.342l-7.2-7.2M368.542 239.422l-7.2-7.2M368.542 243.502l-7.2-7.2M368.542 247.342l-7.2-7.2M368.542 251.422l-7.2-7.2M368.542 255.502l-7.2-7.2M368.542 259.342l-7.2-7.2M368.542 263.422l-7.2-7.2M368.542 267.502l-7.2-7.2M368.542 271.342l-7.2-7.2M368.542 275.422l-7.2-7.2M367.102 277.822l1.44-1.44M365.182 275.902l3.36-3.36M363.022 273.742l5.52-5.28M361.342 271.582l7.2-7.2M361.342 267.742l7.2-7.2M361.342 263.662l7.2-7.2M361.342 259.582l7.2-7.2M361.342 255.742l7.2-7.2M361.342 251.662l7.2-7.2M361.342 247.582l7.2-7.2M361.342 243.502l7.2-7.2M361.342 239.662l7.2-7.2M361.342 235.582l7.2-7.2M361.342 231.502l7.2-7.2M361.342 227.662l7.2-7.2M361.342 223.582l6.24-6.48M361.342 219.502l2.4-2.4"/><path class="cls-8" d="M368.302 66.382l-7.2 5.28v105.6h7.2V66.382"/><path class="cls-5" d="M368.542 67.102l-.48-.48M368.542 70.942l-2.88-2.64M368.542 75.022l-5.04-5.04M368.542 79.102l-7.2-7.2M368.542 82.942l-7.2-7.2M368.542 87.022l-7.2-7.2M368.542 91.102l-7.2-7.2M368.542 95.182l-7.2-7.2M368.542 99.022l-7.2-7.2M368.542 103.102l-7.2-7.2M368.542 107.182l-7.2-7.2M368.542 111.022l-7.2-7.2M368.542 115.102l-7.2-7.2M368.542 119.182l-7.2-7.2M368.542 123.022l-7.2-7.2M368.542 127.102l-7.2-7.2M368.542 131.182l-7.2-7.2M368.542 135.262l-7.2-7.2M368.542 139.102l-7.2-7.2M368.542 143.182l-7.2-7.2M368.542 147.262l-7.2-7.2M368.542 151.102l-7.2-7.2M368.542 155.182l-7.2-7.2M368.542 159.262l-7.2-7.2M368.542 163.342l-7.2-7.2M368.542 167.182l-7.2-7.2M368.542 171.262l-7.2-7.2M368.542 175.342l-7.2-7.2M366.382 177.262l-5.04-5.28M362.302 177.262l-.96-1.2M367.342 177.262l1.2-.96M363.502 177.262l5.04-5.04M361.342 175.582l7.2-7.2M361.342 171.502l7.2-7.2M361.342 167.422l7.2-7.2M361.342 163.342l7.2-7.2M361.342 159.502l7.2-7.2M361.342 155.422l7.2-7.2M361.342 151.342l7.2-7.2M361.342 147.502l7.2-7.2M361.342 143.422l7.2-7.2M361.342 139.342l7.2-7.2M361.342 135.262l7.2-7.2M361.342 131.422l7.2-7.2M361.342 127.342l7.2-7.2M361.342 123.262l7.2-7.2M361.342 119.422l7.2-7.2M361.342 115.342l7.2-7.2M361.342 111.262l7.2-7.2M361.342 107.422l7.2-7.2M361.342 103.342l7.2-7.2M361.342 99.262l7.2-7.2M361.342 95.182l7.2-7.2M361.342 91.342l7.2-7.2M361.342 87.262l7.2-7.2M361.342 83.182l7.2-7.2M361.342 79.342l7.2-7.2M361.342 75.262l7.2-7.2"/><path class="cls-8" d="M368.302 66.382l-7.2 5.28v105.6h7.2V66.382"/><path class="cls-5" d="M368.542 67.102l-.48-.48M368.542 70.942l-2.88-2.64M368.542 75.022l-5.04-5.04M368.542 79.102l-7.2-7.2M368.542 82.942l-7.2-7.2M368.542 87.022l-7.2-7.2M368.542 91.102l-7.2-7.2M368.542 95.182l-7.2-7.2M368.542 99.022l-7.2-7.2M368.542 103.102l-7.2-7.2M368.542 107.182l-7.2-7.2M368.542 111.022l-7.2-7.2M368.542 115.102l-7.2-7.2M368.542 119.182l-7.2-7.2M368.542 123.022l-7.2-7.2M368.542 127.102l-7.2-7.2M368.542 131.182l-7.2-7.2M368.542 135.262l-7.2-7.2M368.542 139.102l-7.2-7.2M368.542 143.182l-7.2-7.2M368.542 147.262l-7.2-7.2M368.542 151.102l-7.2-7.2M368.542 155.182l-7.2-7.2M368.542 159.262l-7.2-7.2M368.542 163.342l-7.2-7.2M368.542 167.182l-7.2-7.2M368.542 171.262l-7.2-7.2M368.542 175.342l-7.2-7.2M366.382 177.262l-5.04-5.28M362.302 177.262l-.96-1.2M367.342 177.262l1.2-.96M363.502 177.262l5.04-5.04M361.342 175.582l7.2-7.2M361.342 171.502l7.2-7.2M361.342 167.422l7.2-7.2M361.342 163.342l7.2-7.2M361.342 159.502l7.2-7.2M361.342 155.422l7.2-7.2M361.342 151.342l7.2-7.2M361.342 147.502l7.2-7.2M361.342 143.422l7.2-7.2M361.342 139.342l7.2-7.2M361.342 135.262l7.2-7.2M361.342 131.422l7.2-7.2M361.342 127.342l7.2-7.2M361.342 123.262l7.2-7.2M361.342 119.422l7.2-7.2M361.342 115.342l7.2-7.2M361.342 111.262l7.2-7.2M361.342 107.422l7.2-7.2M361.342 103.342l7.2-7.2M361.342 99.262l7.2-7.2M361.342 95.182l7.2-7.2M361.342 91.342l7.2-7.2M361.342 87.262l7.2-7.2M361.342 83.182l7.2-7.2M361.342 79.342l7.2-7.2M361.342 75.262l7.2-7.2"/><path class="cls-8" d="M368.302 212.782h-4.08l4.08 4.32v-4.32"/><path class="cls-5" d="M368.542 215.422l-2.64-2.64M368.062 216.622l.48-.24M366.142 214.702l1.92-1.92"/><path class="cls-8" d="M368.302 212.782h-4.08l4.08 4.32v-4.32"/><path class="cls-5" d="M368.542 215.422l-2.64-2.64M368.062 216.622l.48-.24M366.142 214.702l1.92-1.92"/><path class="cls-6" d="M367.102 207.022h1.68v5.76h-1.68zM367.102 177.262h1.68v2.4h-1.68zM367.102 179.662h1.68v27.36h-1.68zM367.102 207.022v-27.36"/><path class="cls-1" d="M361.102 207.262v-27.84"/><path class="cls-6" d="M361.102 179.902v-.48"/><path class="cls-8" d="M361.102 212.782v-5.52h6v5.52"/><path class="cls-5" d="M367.342 210.142l-2.88-2.88M365.902 212.782l-4.56-4.56M361.822 212.782l-.48-.72M363.982 212.782l3.36-3.12M361.342 211.582l4.08-4.32M361.342 207.502l.24-.24"/><path class="cls-8" d="M361.102 177.262v2.16h6v-2.16"/><path class="cls-5" d="M367.342 177.982l-.96-.72M364.462 179.422l-2.16-2.16M365.182 179.422l2.16-1.92M361.342 179.422l2.16-2.16"/><path class="cls-8" d="M268.702 219.022l5.28-6.96h-5.28v6.96"/><path class="cls-5" d="M273.502 212.782l-.48-.72M271.822 214.942l-2.88-2.88M270.142 217.342l-1.2-1.44M268.942 215.662l3.6-3.6"/><path class="cls-8" d="M268.702 219.022l5.28-6.96h-5.28v6.96"/><path class="cls-5" d="M273.502 212.782l-.48-.72M271.822 214.942l-2.88-2.88M270.142 217.342l-1.2-1.44M268.942 215.662l3.6-3.6"/><path class="cls-8" d="M275.902 179.662v-108l-7.2-5.28v113.28h7.2"/><path class="cls-5" d="M276.142 74.782l-7.2-7.2M276.142 78.862l-7.2-7.2M276.142 82.942l-7.2-7.2M276.142 86.782l-7.2-7.2M276.142 90.862l-7.2-7.2M276.142 94.942l-7.2-7.2M276.142 98.782l-7.2-7.2M276.142 102.862l-7.2-7.2M276.142 106.942l-7.2-7.2M276.142 111.022l-7.2-7.2M276.142 114.862l-7.2-7.2M276.142 118.942l-7.2-7.2M276.142 123.022l-7.2-7.2M276.142 126.862l-7.2-7.2M276.142 130.942l-7.2-7.2M276.142 135.022l-7.2-7.2M276.142 138.862l-7.2-7.2M276.142 142.942l-7.2-7.2M276.142 147.022l-7.2-7.2M276.142 151.102l-7.2-7.2M276.142 154.942l-7.2-7.2M276.142 159.022l-7.2-7.2M276.142 163.102l-7.2-7.2M276.142 166.942l-7.2-7.2M276.142 171.022l-7.2-7.2M276.142 175.102l-7.2-7.2M276.142 178.942l-7.2-7.2M272.542 179.662l-3.6-3.84M272.782 179.662l3.36-3.12M268.942 179.662l7.2-7.2M268.942 175.582l7.2-7.2M268.942 171.742l7.2-7.2M268.942 167.662l7.2-7.2M268.942 163.582l7.2-7.2M268.942 159.742l7.2-7.2M268.942 155.662l7.2-7.2M268.942 151.582l7.2-7.2M268.942 147.502l7.2-7.2M268.942 143.662l7.2-7.2M268.942 139.582l7.2-7.2M268.942 135.502l7.2-7.2M268.942 131.662l7.2-7.2M268.942 127.582l7.2-7.2M268.942 123.502l7.2-7.2M268.942 119.422l7.2-7.2M268.942 115.582l7.2-7.2M268.942 111.502l7.2-7.2M268.942 107.422l7.2-7.2M268.942 103.582l7.2-7.2M268.942 99.502l7.2-7.2M268.942 95.422l7.2-7.2M268.942 91.582l7.2-7.2M268.942 87.502l7.2-7.2M268.942 83.422l7.2-7.2M268.942 79.342l7.2-7.2M268.942 75.502l5.04-5.28M268.942 71.422l2.88-2.88M268.942 67.342l.48-.48"/><path class="cls-8" d="M275.902 179.662v-108l-7.2-5.28v113.28h7.2"/><path class="cls-5" d="M276.142 74.782l-7.2-7.2M276.142 78.862l-7.2-7.2M276.142 82.942l-7.2-7.2M276.142 86.782l-7.2-7.2M276.142 90.862l-7.2-7.2M276.142 94.942l-7.2-7.2M276.142 98.782l-7.2-7.2M276.142 102.862l-7.2-7.2M276.142 106.942l-7.2-7.2M276.142 111.022l-7.2-7.2M276.142 114.862l-7.2-7.2M276.142 118.942l-7.2-7.2M276.142 123.022l-7.2-7.2M276.142 126.862l-7.2-7.2M276.142 130.942l-7.2-7.2M276.142 135.022l-7.2-7.2M276.142 138.862l-7.2-7.2M276.142 142.942l-7.2-7.2M276.142 147.022l-7.2-7.2M276.142 151.102l-7.2-7.2M276.142 154.942l-7.2-7.2M276.142 159.022l-7.2-7.2M276.142 163.102l-7.2-7.2M276.142 166.942l-7.2-7.2M276.142 171.022l-7.2-7.2M276.142 175.102l-7.2-7.2M276.142 178.942l-7.2-7.2M272.542 179.662l-3.6-3.84M272.782 179.662l3.36-3.12M268.942 179.662l7.2-7.2M268.942 175.582l7.2-7.2M268.942 171.742l7.2-7.2M268.942 167.662l7.2-7.2M268.942 163.582l7.2-7.2M268.942 159.742l7.2-7.2M268.942 155.662l7.2-7.2M268.942 151.582l7.2-7.2M268.942 147.502l7.2-7.2M268.942 143.662l7.2-7.2M268.942 139.582l7.2-7.2M268.942 135.502l7.2-7.2M268.942 131.662l7.2-7.2M268.942 127.582l7.2-7.2M268.942 123.502l7.2-7.2M268.942 119.422l7.2-7.2M268.942 115.582l7.2-7.2M268.942 111.502l7.2-7.2M268.942 107.422l7.2-7.2M268.942 103.582l7.2-7.2M268.942 99.502l7.2-7.2M268.942 95.422l7.2-7.2M268.942 91.582l7.2-7.2M268.942 87.502l7.2-7.2M268.942 83.422l7.2-7.2M268.942 79.342l7.2-7.2M268.942 75.502l5.04-5.28M268.942 71.422l2.88-2.88M268.942 67.342l.48-.48"/><path class="cls-6" d="M268.222 179.662h1.68v2.64h-1.68zM268.222 209.422h1.68v2.64h-1.68zM268.222 182.302h1.68v27.12h-1.68zM269.902 182.302v27.12"/><path class="cls-1" d="M275.902 182.062v27.6"/><path class="cls-6" d="M275.902 209.182v.48"/><path class="cls-8" d="M275.902 179.662v2.4h-6v-2.4h-1.2"/><path class="cls-5" d="M274.942 182.062l-2.4-2.4M271.102 182.062l-.96-.96M274.462 182.062l1.68-1.68M270.382 182.062l2.4-2.4M268.942 179.662"/><path class="cls-8" d="M275.818 212.035v-2.265h-5.955v2.265h-1.132"/><path class="cls-5" d="M276.142 211.102l-1.68-1.44M273.022 212.062l-2.4-2.4M272.542 212.062l2.4-2.4M270.142 210.622l.72-.96M268.164 182.273c-14.93 0-27.213 12.283-27.213 27.214M268.222 209.422h-27.36"/><path class="cls-9" d="M28.702 382.222v14.88H.142v-14.88h28.56"/><path class="cls-8" d="M28.702 397.102v-3.6H.142v3.6h28.56"/><path class="cls-5" d="M.382 396.382l.72.72M1.342 393.502l3.6 3.6M5.422 393.502l3.6 3.6M9.502 393.502l3.6 3.6M13.342 393.502l3.6 3.6M17.422 393.502l3.6 3.6M21.502 393.502l3.6 3.6M25.342 393.502l3.6 3.36"/><path class="cls-8" d="M28.702 393.502v-.48H.142v.48h28.56M28.702 393.022v-5.76H.142v5.76h28.56"/><path class="cls-5" d="M1.582 387.262v5.76M3.022 387.262v5.76M4.462 387.262v5.76M5.902 387.262v5.76M7.102 387.262v5.76M8.542 387.262v5.76M9.982 387.262v5.76M11.422 387.262v5.76M12.862 387.262v5.76M14.302 387.262v5.76M15.742 387.262v5.76M17.182 387.262v5.76M18.622 387.262v5.76M20.062 387.262v5.76M21.262 387.262v5.76M22.702 387.262v5.76M24.142 387.262v5.76M25.582 387.262v5.76M27.022 387.262v5.76M28.462 387.262v5.76"/><path class="cls-8" d="M28.702 387.262v-5.04H.142v5.04h28.56"/><path class="cls-5" d="M.382 384.382l2.88 2.88M2.062 382.222l5.04 5.04M6.142 382.222l5.04 5.04M10.222 382.222l5.04 5.04M14.062 382.222l5.04 5.04M18.142 382.222l5.04 5.04M22.222 382.222l5.04 5.04M26.302 382.222l2.64 2.64M28.702 387.262H.142M28.702 393.022H.142"/><path class="cls-6" d="M28.702 397.102H.142M28.702 382.222H.142"/><path class="cls-9" d="M103.102 382.222v14.88h-33.6v-14.88h33.6"/><path class="cls-8" d="M103.102 397.102v-3.6h-33.6v3.6h33.6"/><path class="cls-5" d="M69.742 393.502l3.36 3.6M73.582 393.502l3.6 3.6M77.662 393.502l3.6 3.6M81.502 393.502l3.6 3.6M85.582 393.502l3.6 3.6M89.662 393.502l3.6 3.6M93.502 393.502l3.6 3.6M97.582 393.502l3.6 3.6M101.662 393.502l1.68 1.68"/><path class="cls-8" d="M103.102 393.502v-.48h-33.6v.48h33.6M103.102 393.022v-5.76h-33.6v5.76h33.6"/><path class="cls-5" d="M70.942 387.262v5.76M72.382 387.262v5.76M73.822 387.262v5.76M75.262 387.262v5.76M76.702 387.262v5.76M78.142 387.262v5.76M79.582 387.262v5.76M81.022 387.262v5.76M82.222 387.262v5.76M83.662 387.262v5.76M85.102 387.262v5.76M86.542 387.262v5.76M87.982 387.262v5.76M89.422 387.262v5.76M90.862 387.262v5.76M92.302 387.262v5.76M93.742 387.262v5.76M95.182 387.262v5.76M96.382 387.262v5.76M97.822 387.262v5.76M99.262 387.262v5.76M100.702 387.262v5.76M102.142 387.262v5.76"/><path class="cls-8" d="M103.102 387.262v-5.04h-33.6v5.04h33.6"/><path class="cls-5" d="M69.742 385.582l1.68 1.68M70.222 382.222l5.04 5.04M74.302 382.222l5.04 5.04M78.382 382.222l5.04 5.04M82.222 382.222l5.04 5.04M86.302 382.222l5.04 5.04M90.382 382.222l5.04 5.04M94.222 382.222l5.04 5.04M98.302 382.222l5.04 4.8M102.382 382.222l.96.96M103.102 387.262h-33.6M103.102 393.022h-33.6"/><path class="cls-6" d="M103.102 397.102h-33.6M103.102 382.222h-33.6M67.822 389.662v7.44h3.36v1.68h-43.92v-1.68h3.36v-7.44"/><path class="cls-1" d="M69.502 382.222h-40.8"/><path class="cls-6" d="M29.182 382.222h-.48M28.702 387.262h40.8v2.4h-40.8zM65.902 389.662v-2.4M32.542 389.662v-2.4M69.502 387.262v2.4M51.262 387.262v2.4M65.902 387.262v2.4M47.182 387.262v2.4M51.262 387.262v2.4M32.542 387.262v2.4M47.182 387.262v2.4M28.702 387.262v2.4"/><path class="cls-8" d="M69.568 393.027h-1.842v-3.401h1.842"/><path class="cls-5" d="M68.062 389.662v3.36M69.502 389.662v3.36M69.568 393.027h-1.842v-3.401h1.842"/><path class="cls-8" d="M69.502 397.102h-1.68v-3.6h1.68"/><path class="cls-5" d="M68.062 395.902l.96 1.2M69.502 393.502h.24"/><path class="cls-6" d="M67.822 393.502v-3.84"/><path class="cls-8" d="M28.75 393.027h1.842v-3.401H28.75"/><path class="cls-5" d="M29.902 389.662v3.36M28.75 393.027h1.842v-3.401H28.75"/><path class="cls-8" d="M28.702 397.102h1.92v-3.6h-1.92"/><path class="cls-5" d="M28.942 396.862v.24M29.422 393.502l1.44 1.2"/><path class="cls-6" d="M30.622 393.502v-3.84M88.222 90.382h17.28v69.12h-17.28zM90.382 107.902h-2.16M90.382 124.942h-2.16M90.382 141.982h-2.16M90.382 158.782h-2.16M95.422 159.502h16.56v.48h-16.56zM95.422 159.982h.72v17.04h-.72zM96.142 176.542h15.12v.48h-15.12zM96.142 159.982h15.12v.72h-15.12zM111.262 159.982h.72v17.04h-.72z"/><path class="cls-8" d="M100.467 157.963h-8.93c-.26 0-.52-.05-.76-.148a2.01 2.01 0 0 1-1.072-1.076c-.1-.24-.151-.499-.151-.758v-11.198c0-.26.05-.518.15-.76a1.993 1.993 0 0 1 1.831-1.225h8.932a1.98 1.98 0 0 1 1.401.582c.185.185.331.403.432.644.099.24.151.499.151.76v11.197c0 .26-.052.518-.15.758-.102.24-.248.461-.433.644a1.96 1.96 0 0 1-1.401.58"/><path class="cls-6" d="M100.467 157.963h-8.93c-.26 0-.52-.05-.76-.148a2.01 2.01 0 0 1-1.072-1.076c-.1-.24-.151-.499-.151-.758v-11.198c0-.26.05-.518.15-.76a1.993 1.993 0 0 1 1.831-1.225h8.932a1.98 1.98 0 0 1 1.401.582c.185.185.331.403.432.644.099.24.151.499.151.76v11.197c0 .26-.052.518-.15.758-.102.24-.248.461-.433.644a1.96 1.96 0 0 1-1.401.58"/><path class="cls-8" d="M100.222 150.382c0-.659-.487-1.2-1.08-1.2-.593 0-1.08.541-1.08 1.2s.487 1.2 1.08 1.2c.593 0 1.08-.542 1.08-1.2"/><path class="cls-6" d="M100.222 150.382c0-.659-.487-1.2-1.08-1.2-.593 0-1.08.541-1.08 1.2s.487 1.2 1.08 1.2c.593 0 1.08-.542 1.08-1.2"/><path class="cls-7" d="M89.662 108.382h14.4v15.84h-14.4z"/><path class="cls-6" d="M89.662 108.382h14.4v15.84h-14.4z"/><path class="cls-8" d="M97.102 112.342c0-1.514-1.246-2.76-2.76-2.76s-2.76 1.246-2.76 2.76 1.245 2.76 2.76 2.76 2.76-1.246 2.76-2.76"/><path class="cls-6" d="M97.102 112.342c0-1.514-1.246-2.76-2.76-2.76s-2.76 1.246-2.76 2.76 1.245 2.76 2.76 2.76 2.76-1.246 2.76-2.76"/><path class="cls-8" d="M103.342 111.382c0-1.251-1.03-2.28-2.28-2.28s-2.28 1.029-2.28 2.28 1.03 2.28 2.28 2.28 2.28-1.03 2.28-2.28"/><path class="cls-6" d="M103.342 111.382c0-1.251-1.03-2.28-2.28-2.28s-2.28 1.029-2.28 2.28 1.03 2.28 2.28 2.28 2.28-1.03 2.28-2.28"/><path class="cls-8" d="M96.382 119.902c0-1.185-.975-2.16-2.16-2.16s-2.16.975-2.16 2.16.974 2.16 2.16 2.16 2.16-.975 2.16-2.16"/><path class="cls-6" d="M96.382 119.902c0-1.185-.975-2.16-2.16-2.16s-2.16.975-2.16 2.16.974 2.16 2.16 2.16 2.16-.975 2.16-2.16"/><path class="cls-8" d="M103.582 119.662c0-1.58-1.301-2.88-2.88-2.88s-2.88 1.3-2.88 2.88 1.3 2.88 2.88 2.88 2.88-1.3 2.88-2.88"/><path class="cls-6" d="M103.582 119.662c0-1.58-1.301-2.88-2.88-2.88s-2.88 1.3-2.88 2.88 1.3 2.88 2.88 2.88 2.88-1.3 2.88-2.88M90.382 90.862h-2.16M95.422 89.662h16.56v.72h-16.56zM95.422 72.622h.72v17.04h-.72zM96.142 72.622h15.12v.72h-15.12zM96.142 89.182h15.12v.48h-15.12zM95.422 71.662h.72v.96h-.72zM111.262 72.622h.72v17.04h-.72zM95.422 177.022h17.76v.48h-17.76zM113.902 158.542h-7.68"/><path class="cls-4" d="M113.902 159.262h-8.4"/><path class="cls-6" d="M113.902 157.102h-6.24M113.902 158.542h-7.68M113.902 159.262h-8.4M113.902 157.102h-6.24"/><path class="cls-4" d="M113.902 158.542v.72"/><path class="cls-6" d="M113.902 157.102v1.44M106.222 158.542v-67.44"/><path class="cls-4" d="M105.502 159.262v-68.88"/><path class="cls-6" d="M107.662 157.102v-64.56M106.222 158.542v-67.44M105.502 159.262v-68.88M107.662 157.102v-64.56M106.222 91.102h7.68"/><path class="cls-4" d="M105.502 90.382h8.4"/><path class="cls-6" d="M107.662 92.542h6.24M106.222 91.102h7.68"/><path class="cls-4" d="M113.902 91.102v-.72"/><path class="cls-6" d="M113.902 92.542v-1.44M105.502 90.382h8.4M107.662 92.542h6.24"/><path class="cls-1" d="M95.422 90.382v69.12"/><path class="cls-6" d="M95.422 159.022v.48"/><path class="cls-8" d="M308.782 219.022l6.96-9.36h-6.96v9.36"/><path class="cls-5" d="M315.262 210.382l-.72-.72M313.582 212.542l-2.88-2.88M311.902 214.942l-2.88-3.12M310.222 217.342l-1.2-1.44M309.022 215.662l6-6M309.022 211.822l1.92-2.16"/><path class="cls-8" d="M308.782 219.022l6.96-9.36h-6.96v9.36"/><path class="cls-5" d="M315.262 210.382l-.72-.72M313.582 212.542l-2.88-2.88M311.902 214.942l-2.88-3.12M310.222 217.342l-1.2-1.44M309.022 215.662l6-6M309.022 211.822l1.92-2.16"/><path class="cls-8" d="M276.382 209.662h-.48l-7.2 9.36h7.68v-9.36"/><path class="cls-5" d="M276.622 211.582l-1.2-1.2M276.622 215.662l-2.88-2.88M275.902 219.022l-4.08-4.08M271.822 219.022l-1.68-1.68M273.502 219.022l3.12-2.88M269.662 219.022l6.96-6.96"/><path class="cls-8" d="M276.382 209.662h-.48l-7.2 9.36h7.68v-9.36"/><path class="cls-5" d="M276.622 211.582l-1.2-1.2M276.622 215.662l-2.88-2.88M275.902 219.022l-4.08-4.08M271.822 219.022l-1.68-1.68M273.502 219.022l3.12-2.88M269.662 219.022l6.96-6.96"/><path class="cls-6" d="M276.382 218.062h2.64v1.68h-2.64zM306.142 218.062h2.64v1.68h-2.64zM279.022 218.062h27.12v1.68h-27.12zM279.022 218.062h27.12"/><path class="cls-1" d="M278.542 209.662h27.84"/><path class="cls-6" d="M305.902 209.662h.48"/><path class="cls-8" d="M276.382 209.662h2.16v8.4h-2.16"/><path class="cls-5" d="M278.782 209.662h-.24M278.782 213.742l-2.16-2.16M278.782 217.822l-2.16-2.16M278.542 218.062l.24-.24M276.622 216.142l2.16-2.16M276.622 212.062l2.16-2.16"/><path class="cls-8" d="M308.782 209.662h-2.4v8.4h2.4"/><path class="cls-5" d="M309.022 211.822l-2.4-2.16M309.022 215.902l-2.4-2.4M307.102 218.062l-.48-.48M306.622 218.062l2.4-2.4M306.622 214.222l2.4-2.4M306.622 210.142l.24-.48"/><path class="cls-6" d="M318.622 224.542h29.76v39.84h-29.76zM316.702 215.662h35.52M335.182 218.782h-13.92M347.902 221.662h-13.92"/><path class="cls-8" d="M315.742 209.662l-6.96 9.36v60.24l6.96-7.44v-62.16"/><path class="cls-5" d="M315.982 210.862l-.72-.48M315.982 214.942l-2.4-2.4M315.982 218.782l-4.08-3.84M315.982 222.862l-5.76-5.52M315.982 226.942l-6.96-6.96M315.982 231.022l-6.96-6.96M315.982 234.862l-6.96-6.96M315.982 238.942l-6.96-6.96M315.982 243.022l-6.96-6.96M315.982 246.862l-6.96-6.96M315.982 250.942l-6.96-6.96M315.982 255.022l-6.96-6.96M315.982 259.102l-6.96-6.96M315.982 262.942l-6.96-6.96M315.982 267.022l-6.96-6.96M315.982 271.102l-6.96-6.96M314.302 273.502l-5.28-5.52M312.382 275.662l-3.36-3.6M310.462 277.582l-1.44-1.44M309.022 275.902l6.96-6.96M309.022 271.822l6.96-6.96M309.022 267.982l6.96-6.96M309.022 263.902l6.96-6.96M309.022 259.822l6.96-6.96M309.022 255.742l6.96-6.96M309.022 251.902l6.96-6.96M309.022 247.822l6.96-6.96M309.022 243.742l6.96-6.96M309.022 239.902l6.96-6.96M309.022 235.822l6.96-6.96M309.022 231.742l6.96-6.96M309.022 227.902l6.96-6.96M309.022 223.822l6.96-6.96M309.022 219.742l6.96-6.96"/><path class="cls-8" d="M315.742 209.662l-6.96 9.36v60.24l6.96-7.44v-62.16"/><path class="cls-5" d="M315.982 210.862l-.72-.48M315.982 214.942l-2.4-2.4M315.982 218.782l-4.08-3.84M315.982 222.862l-5.76-5.52M315.982 226.942l-6.96-6.96M315.982 231.022l-6.96-6.96M315.982 234.862l-6.96-6.96M315.982 238.942l-6.96-6.96M315.982 243.022l-6.96-6.96M315.982 246.862l-6.96-6.96M315.982 250.942l-6.96-6.96M315.982 255.022l-6.96-6.96M315.982 259.102l-6.96-6.96M315.982 262.942l-6.96-6.96M315.982 267.022l-6.96-6.96M315.982 271.102l-6.96-6.96M314.302 273.502l-5.28-5.52M312.382 275.662l-3.36-3.6M310.462 277.582l-1.44-1.44M309.022 275.902l6.96-6.96M309.022 271.822l6.96-6.96M309.022 267.982l6.96-6.96M309.022 263.902l6.96-6.96M309.022 259.822l6.96-6.96M309.022 255.742l6.96-6.96M309.022 251.902l6.96-6.96M309.022 247.822l6.96-6.96M309.022 243.742l6.96-6.96M309.022 239.902l6.96-6.96M309.022 235.822l6.96-6.96M309.022 231.742l6.96-6.96M309.022 227.902l6.96-6.96M309.022 223.822l6.96-6.96M309.022 219.742l6.96-6.96"/><path class="cls-9" d="M301.822 71.662h59.28l7.2-5.28v-9.6h-66.48v14.88"/><path class="cls-8" d="M301.822 56.782v3.36h66.48v-3.36h-66.48"/><path class="cls-5" d="M302.062 56.782l3.36 3.36M306.142 56.782l3.36 3.36M309.982 56.782l3.36 3.36M314.062 56.782l3.36 3.36M318.142 56.782l3.36 3.36M322.222 56.782l3.36 3.36M326.062 56.782l3.36 3.36M330.142 56.782l3.36 3.36M334.222 56.782l3.36 3.36M338.062 56.782l3.36 3.36M342.142 56.782l3.36 3.36M346.222 56.782l3.36 3.36M350.062 56.782l3.36 3.36M354.142 56.782l3.36 3.36M358.222 56.782l3.36 3.36M362.302 56.782l3.36 3.36M366.142 56.782l2.4 2.16"/><path class="cls-8" d="M301.822 60.142v.72h66.48v-.72h-66.48M301.822 60.862v5.52h66.48v-5.52h-66.48"/><path class="cls-5" d="M367.102 66.382v-5.52M365.902 66.382v-5.52M364.462 66.382v-5.52M363.022 66.382v-5.52M361.582 66.382v-5.52M360.142 66.382v-5.52M358.702 66.382v-5.52M357.262 66.382v-5.52M355.822 66.382v-5.52M354.382 66.382v-5.52M352.942 66.382v-5.52M351.502 66.382v-5.52M350.302 66.382v-5.52M348.862 66.382v-5.52M347.422 66.382v-5.52M345.982 66.382v-5.52M344.542 66.382v-5.52M343.102 66.382v-5.52M341.662 66.382v-5.52M340.222 66.382v-5.52M338.782 66.382v-5.52M337.342 66.382v-5.52M336.142 66.382v-5.52M334.702 66.382v-5.52M333.262 66.382v-5.52M331.822 66.382v-5.52M330.382 66.382v-5.52M328.942 66.382v-5.52M327.502 66.382v-5.52M326.062 66.382v-5.52M324.622 66.382v-5.52M323.182 66.382v-5.52M321.742 66.382v-5.52M320.542 66.382v-5.52M319.102 66.382v-5.52M317.662 66.382v-5.52M316.222 66.382v-5.52M314.782 66.382v-5.52M313.342 66.382v-5.52M311.902 66.382v-5.52M310.462 66.382v-5.52M309.022 66.382v-5.52M307.582 66.382v-5.52M306.142 66.382v-5.52M304.942 66.382v-5.52M303.502 66.382v-5.52M302.062 66.382v-5.52"/><path class="cls-8" d="M301.822 71.662h59.28l7.2-5.28h-66.48v5.28"/><path class="cls-5" d="M368.062 66.622l-.24-.24M365.662 68.302l-1.92-1.92M363.502 69.982l-3.84-3.6M361.102 71.662l-5.28-5.28M357.022 71.662l-5.28-5.28M352.942 71.662l-5.28-5.28M349.102 71.662l-5.28-5.28M345.022 71.662l-5.28-5.28M340.942 71.662l-5.28-5.28M337.102 71.662l-5.28-5.28M333.022 71.662l-5.28-5.28M328.942 71.662l-5.28-5.28M324.862 71.662l-5.28-5.28M321.022 71.662l-5.28-5.28M316.942 71.662l-5.28-5.28M312.862 71.662l-5.28-5.28M309.022 71.662l-5.28-5.28M304.942 71.662l-2.88-2.88M360.862 71.662l5.28-5.28M356.782 71.662l5.28-5.28M352.702 71.662l5.28-5.28M348.862 71.662l5.28-5.28M344.782 71.662l5.28-5.28M340.702 71.662l5.28-5.28M336.862 71.662l5.28-5.28M332.782 71.662l5.28-5.28M328.702 71.662l5.28-5.28M324.622 71.662l5.28-5.28M320.782 71.662l5.28-5.28M316.702 71.662l5.28-5.28M312.622 71.662l5.28-5.28M308.782 71.662l5.28-5.28M304.702 71.662l5.28-5.28M302.062 70.462l3.84-4.08M301.822 66.382h66.48M301.822 60.862h66.48"/><path class="cls-6" d="M301.822 56.782h66.48M301.822 71.662h59.28"/><path class="cls-9" d="M268.702 66.382l7.2 5.28h7.2v-14.88h-14.4v9.6"/><path class="cls-8" d="M268.702 56.782v3.36h14.4v-3.36h-14.4"/><path class="cls-5" d="M268.942 59.662l.48.48M269.902 56.782l3.36 3.36M273.982 56.782l3.36 3.36M278.062 56.782l3.36 3.36M282.142 56.782l1.2 1.2"/><path class="cls-8" d="M268.702 60.142v.72h14.4v-.72h-14.4M268.702 60.862v5.52h14.4v-5.52h-14.4"/><path class="cls-5" d="M282.142 66.382v-5.52M280.702 66.382v-5.52M279.262 66.382v-5.52M277.822 66.382v-5.52M276.382 66.382v-5.52M275.182 66.382v-5.52M273.742 66.382v-5.52M272.302 66.382v-5.52M270.862 66.382v-5.52M269.422 66.382v-5.52"/><path class="cls-8" d="M268.702 66.382l7.2 5.28h7.2v-5.28h-14.4"/><path class="cls-5" d="M283.342 69.982l-3.84-3.6M280.942 71.662l-5.28-5.28M276.862 71.662l-5.28-5.28M280.702 71.662l2.64-2.64M276.622 71.662l5.28-5.28M273.982 70.222l3.84-3.84M271.822 68.542l2.16-2.16M269.422 66.862l.48-.48M268.702 66.382h14.4M268.702 60.862h14.4"/><path class="cls-6" d="M268.702 56.782h14.4M275.902 71.662h7.2M283.102 66.382v6h18.72v-6M284.782 64.222v-7.44h-3.36v-1.68h21.84v1.68h-3.36v7.44M283.102 64.222h18.72v2.16h-18.72zM286.702 64.222v2.16M297.982 64.222v2.16M283.102 66.382v-2.16M297.982 66.382v-2.16M286.702 66.382v-2.16M301.822 66.382v-2.16M284.782 60.142h7.68"/><path class="cls-8" d="M283.018 60.807h1.843v3.402h-1.843"/><path class="cls-5" d="M283.582 64.222v-3.36M283.018 60.807h1.843v3.402h-1.843"/><path class="cls-8" d="M283.102 56.782h1.68v3.36h-1.68"/><path class="cls-5" d="M283.342 57.982l1.68 1.68"/><path class="cls-6" d="M284.782 60.142v4.08M299.902 60.142h-7.44"/><path class="cls-8" d="M301.726 60.807h-1.843v3.402h1.843"/><path class="cls-5" d="M300.622 64.222v-3.36M301.726 60.807h-1.843v3.402h1.843"/><path class="cls-8" d="M301.822 56.782h-1.92v3.36h1.92"/><path class="cls-5" d="M300.142 58.702l1.2 1.44"/><path class="cls-6" d="M299.902 60.142v4.08"/><path class="cls-8" d="M315.742 271.822l-6.96 7.44h59.52l-7.2-7.44h-45.36"/><path class="cls-5" d="M368.302 279.262l-7.44-7.44M364.222 279.262l-7.44-7.44M360.142 279.262l-7.44-7.44M356.062 279.262l-7.44-7.44M352.222 279.262l-7.44-7.44M348.142 279.262l-7.44-7.44M344.062 279.262l-7.44-7.44M340.222 279.262l-7.44-7.44M336.142 279.262l-7.44-7.44M332.062 279.262l-7.44-7.44M328.222 279.262l-7.44-7.44M324.142 279.262l-7.44-7.44M320.062 279.262l-5.76-5.76M315.982 279.262l-3.6-3.6M312.142 279.262l-1.68-1.68M365.662 279.262l1.44-1.44M361.582 279.262l3.6-3.36M357.742 279.262l5.28-5.52M353.662 279.262l7.44-7.44M349.582 279.262l7.44-7.44M345.502 279.262l7.44-7.44M341.662 279.262l7.44-7.44M337.582 279.262l7.44-7.44M333.502 279.262l7.44-7.44M329.662 279.262l7.44-7.44M325.582 279.262l7.44-7.44M321.502 279.262l7.44-7.44M317.662 279.262l7.44-7.44M313.582 279.262l7.44-7.44M309.502 279.262l7.44-7.44"/><path class="cls-8" d="M315.742 271.822l-6.96 7.44h59.52l-7.2-7.44h-45.36"/><path class="cls-5" d="M368.302 279.262l-7.44-7.44M364.222 279.262l-7.44-7.44M360.142 279.262l-7.44-7.44M356.062 279.262l-7.44-7.44M352.222 279.262l-7.44-7.44M348.142 279.262l-7.44-7.44M344.062 279.262l-7.44-7.44M340.222 279.262l-7.44-7.44M336.142 279.262l-7.44-7.44M332.062 279.262l-7.44-7.44M328.222 279.262l-7.44-7.44M324.142 279.262l-7.44-7.44M320.062 279.262l-5.76-5.76M315.982 279.262l-3.6-3.6M312.142 279.262l-1.68-1.68M365.662 279.262l1.44-1.44M361.582 279.262l3.6-3.36M357.742 279.262l5.28-5.52M353.662 279.262l7.44-7.44M349.582 279.262l7.44-7.44M345.502 279.262l7.44-7.44M341.662 279.262l7.44-7.44M337.582 279.262l7.44-7.44M333.502 279.262l7.44-7.44M329.662 279.262l7.44-7.44M325.582 279.262l7.44-7.44M321.502 279.262l7.44-7.44M317.662 279.262l7.44-7.44M313.582 279.262l7.44-7.44M309.502 279.262l7.44-7.44"/><path class="cls-6" d="M361.102 110.782h-34.08M361.102 118.462h-34.08M361.102 126.142h-34.08M361.102 133.822h-34.08M361.102 141.502h-34.08M361.102 149.182h-34.08M361.102 156.862h-34.08M361.102 164.302h-34.08M275.902 164.302h33.84M275.902 156.862h33.84M275.902 149.182h33.84M275.902 141.502h33.84M275.902 133.822h33.84M275.902 126.142h33.84M275.902 118.462h33.84M275.902 110.782h33.84M361.102 129.982l-35.52 7.92M311.182 106.942h14.4v61.2h-14.4z"/><path class="cls-6" d="M309.742 105.502h17.28v64.08h-17.28zM348.142 114.862h-7.92M344.062 110.782l4.08 4.08M340.222 114.862l3.84-4.08M348.142 137.662h-7.92M344.062 133.822l4.08 3.84M340.222 137.662l3.84-3.84M288.862 160.462h7.92M292.702 164.302l-3.84-3.84M296.782 160.462l-4.08 3.84"/><path class="cls-8" d="M207.022 172.942l5.04 4.32v-105.6h-5.04v101.28"/><path class="cls-5" d="M207.262 74.062l2.4-2.4M207.262 78.382l5.04-5.04M207.262 82.702l5.04-5.04M207.262 86.782l5.04-5.04M207.262 91.102l5.04-5.04M207.262 95.422l5.04-5.04M207.262 99.502l5.04-5.04M207.262 103.822l5.04-5.04M207.262 108.142l5.04-5.04M207.262 112.222l5.04-5.04M207.262 116.542l5.04-5.04M207.262 120.862l5.04-5.04M207.262 125.182l5.04-5.04M207.262 129.262l5.04-5.04M207.262 133.582l5.04-5.04M207.262 137.902l5.04-5.04M207.262 141.982l5.04-5.04M207.262 146.302l5.04-5.04M207.262 150.622l5.04-5.04M207.262 154.942l5.04-5.04M207.262 159.022l5.04-5.04M207.262 163.342l5.04-5.04M207.262 167.662l5.04-5.04M207.262 171.742l5.04-5.04M208.942 174.382l3.36-3.36M211.102 176.302l1.2-.96"/><path class="cls-8" d="M207.022 172.942l5.04 4.32v-105.6h-5.04v101.28"/><path class="cls-5" d="M207.262 74.062l2.4-2.4M207.262 78.382l5.04-5.04M207.262 82.702l5.04-5.04M207.262 86.782l5.04-5.04M207.262 91.102l5.04-5.04M207.262 95.422l5.04-5.04M207.262 99.502l5.04-5.04M207.262 103.822l5.04-5.04M207.262 108.142l5.04-5.04M207.262 112.222l5.04-5.04M207.262 116.542l5.04-5.04M207.262 120.862l5.04-5.04M207.262 125.182l5.04-5.04M207.262 129.262l5.04-5.04M207.262 133.582l5.04-5.04M207.262 137.902l5.04-5.04M207.262 141.982l5.04-5.04M207.262 146.302l5.04-5.04M207.262 150.622l5.04-5.04M207.262 154.942l5.04-5.04M207.262 159.022l5.04-5.04M207.262 163.342l5.04-5.04M207.262 167.662l5.04-5.04M207.262 171.742l5.04-5.04M208.942 174.382l3.36-3.36M211.102 176.302l1.2-.96"/><path class="cls-8" d="M268.702 212.062h-172.8l7.2 6.96h165.6v-6.96"/><path class="cls-5" d="M268.942 215.902l-4.08-3.84M267.982 219.022l-6.96-6.96M263.902 219.022l-6.96-6.96M259.822 219.022l-6.96-6.96M255.742 219.022l-6.96-6.96M251.902 219.022l-6.96-6.96M247.822 219.022l-6.96-6.96M243.742 219.022l-6.96-6.96M239.902 219.022l-6.96-6.96M235.822 219.022l-6.96-6.96M231.742 219.022l-6.96-6.96M227.902 219.022l-6.96-6.96M223.822 219.022l-6.96-6.96M219.742 219.022l-6.96-6.96M215.662 219.022l-6.96-6.96M211.822 219.022l-6.96-6.96M207.742 219.022l-6.96-6.96M203.662 219.022l-6.96-6.96M199.822 219.022l-6.96-6.96M195.742 219.022l-6.96-6.96M191.662 219.022l-6.96-6.96M187.822 219.022l-6.96-6.96M183.742 219.022l-6.96-6.96M179.662 219.022l-6.96-6.96M175.582 219.022l-6.96-6.96M171.742 219.022l-6.96-6.96M167.662 219.022l-6.96-6.96M163.582 219.022l-6.96-6.96M159.742 219.022l-6.96-6.96M155.662 219.022l-6.96-6.96M151.582 219.022l-6.96-6.96M147.502 219.022l-6.96-6.96M143.662 219.022l-6.96-6.96M139.582 219.022l-6.96-6.96M135.502 219.022l-6.96-6.96M131.662 219.022l-6.96-6.96M127.582 219.022l-6.96-6.96M123.502 219.022l-6.96-6.96M119.662 219.022l-6.96-6.96M115.582 219.022l-6.96-6.96M111.502 219.022l-6.96-6.96M107.422 219.022l-6.96-6.96M103.582 219.022l-6.96-6.96M265.582 219.022l3.36-3.36M261.502 219.022l6.96-6.96M257.422 219.022l6.96-6.96M253.582 219.022l6.96-6.96M249.502 219.022l6.96-6.96M245.422 219.022l6.96-6.96M241.582 219.022l6.96-6.96M237.502 219.022l6.96-6.96M233.422 219.022l6.96-6.96M229.582 219.022l6.96-6.96M225.502 219.022l6.96-6.96M221.422 219.022l6.96-6.96M217.342 219.022l6.96-6.96M213.502 219.022l6.96-6.96M209.422 219.022l6.96-6.96M205.342 219.022l6.96-6.96M201.502 219.022l6.96-6.96M197.422 219.022l6.96-6.96M193.342 219.022l6.96-6.96M189.502 219.022l6.96-6.96M185.422 219.022l6.96-6.96M181.342 219.022l6.96-6.96M177.262 219.022l6.96-6.96M173.422 219.022l6.96-6.96M169.342 219.022l6.96-6.96M165.262 219.022l6.96-6.96M161.422 219.022l6.96-6.96M157.342 219.022l6.96-6.96M153.262 219.022l6.96-6.96M149.182 219.022l6.96-6.96M145.342 219.022l6.96-6.96M141.262 219.022l6.96-6.96M137.182 219.022l6.96-6.96M133.342 219.022l6.96-6.96M129.262 219.022l6.96-6.96M125.182 219.022l6.96-6.96M121.342 219.022l6.96-6.96M117.262 219.022l6.96-6.96M113.182 219.022l6.96-6.96M109.102 219.022l6.96-6.96M105.262 219.022l6.96-6.96M102.142 218.062l6-6M100.222 216.142l3.84-4.08M98.062 213.982l2.16-1.92M96.142 212.062"/><path class="cls-8" d="M268.702 212.062h-172.8l7.2 6.96h165.6v-6.96"/><path class="cls-5" d="M268.942 215.902l-4.08-3.84M267.982 219.022l-6.96-6.96M263.902 219.022l-6.96-6.96M259.822 219.022l-6.96-6.96M255.742 219.022l-6.96-6.96M251.902 219.022l-6.96-6.96M247.822 219.022l-6.96-6.96M243.742 219.022l-6.96-6.96M239.902 219.022l-6.96-6.96M235.822 219.022l-6.96-6.96M231.742 219.022l-6.96-6.96M227.902 219.022l-6.96-6.96M223.822 219.022l-6.96-6.96M219.742 219.022l-6.96-6.96M215.662 219.022l-6.96-6.96M211.822 219.022l-6.96-6.96M207.742 219.022l-6.96-6.96M203.662 219.022l-6.96-6.96M199.822 219.022l-6.96-6.96M195.742 219.022l-6.96-6.96M191.662 219.022l-6.96-6.96M187.822 219.022l-6.96-6.96M183.742 219.022l-6.96-6.96M179.662 219.022l-6.96-6.96M175.582 219.022l-6.96-6.96M171.742 219.022l-6.96-6.96M167.662 219.022l-6.96-6.96M163.582 219.022l-6.96-6.96M159.742 219.022l-6.96-6.96M155.662 219.022l-6.96-6.96M151.582 219.022l-6.96-6.96M147.502 219.022l-6.96-6.96M143.662 219.022l-6.96-6.96M139.582 219.022l-6.96-6.96M135.502 219.022l-6.96-6.96M131.662 219.022l-6.96-6.96M127.582 219.022l-6.96-6.96M123.502 219.022l-6.96-6.96M119.662 219.022l-6.96-6.96M115.582 219.022l-6.96-6.96M111.502 219.022l-6.96-6.96M107.422 219.022l-6.96-6.96M103.582 219.022l-6.96-6.96M265.582 219.022l3.36-3.36M261.502 219.022l6.96-6.96M257.422 219.022l6.96-6.96M253.582 219.022l6.96-6.96M249.502 219.022l6.96-6.96M245.422 219.022l6.96-6.96M241.582 219.022l6.96-6.96M237.502 219.022l6.96-6.96M233.422 219.022l6.96-6.96M229.582 219.022l6.96-6.96M225.502 219.022l6.96-6.96M221.422 219.022l6.96-6.96M217.342 219.022l6.96-6.96M213.502 219.022l6.96-6.96M209.422 219.022l6.96-6.96M205.342 219.022l6.96-6.96M201.502 219.022l6.96-6.96M197.422 219.022l6.96-6.96M193.342 219.022l6.96-6.96M189.502 219.022l6.96-6.96M185.422 219.022l6.96-6.96M181.342 219.022l6.96-6.96M177.262 219.022l6.96-6.96M173.422 219.022l6.96-6.96M169.342 219.022l6.96-6.96M165.262 219.022l6.96-6.96M161.422 219.022l6.96-6.96M157.342 219.022l6.96-6.96M153.262 219.022l6.96-6.96M149.182 219.022l6.96-6.96M145.342 219.022l6.96-6.96M141.262 219.022l6.96-6.96M137.182 219.022l6.96-6.96M133.342 219.022l6.96-6.96M129.262 219.022l6.96-6.96M125.182 219.022l6.96-6.96M121.342 219.022l6.96-6.96M117.262 219.022l6.96-6.96M113.182 219.022l6.96-6.96M109.102 219.022l6.96-6.96M105.262 219.022l6.96-6.96M102.142 218.062l6-6M100.222 216.142l3.84-4.08M98.062 213.982l2.16-1.92M96.142 212.062"/><path class="cls-8" d="M268.702 136.222h-25.68l4.08 4.32h21.6v-4.32"/><path class="cls-5" d="M244.942 138.142l2.16-1.92M247.102 140.302l4.08-4.08M251.182 140.542l4.32-4.32M255.502 140.542l4.32-4.32M259.582 140.542l4.32-4.32M263.902 140.542l4.32-4.32M268.222 140.542l.72-.72"/><path class="cls-8" d="M268.702 136.222h-25.68l4.08 4.32h21.6v-4.32"/><path class="cls-5" d="M244.942 138.142l2.16-1.92M247.102 140.302l4.08-4.08M251.182 140.542l4.32-4.32M255.502 140.542l4.32-4.32M259.582 140.542l4.32-4.32M263.902 140.542l4.32-4.32M268.222 140.542l.72-.72"/><path class="cls-8" d="M212.062 177.262l-5.04-4.32v4.32h5.04"/><path class="cls-5" d="M207.262 176.062l1.68-1.68M210.142 177.262l.96-.96"/><path class="cls-8" d="M212.062 177.262l-5.04-4.32v4.32h5.04"/><path class="cls-5" d="M207.262 176.062l1.68-1.68M210.142 177.262l.96-.96"/><path class="cls-8" d="M180.382 172.942h-62.16l-4.32 4.32h66.48v-4.32"/><path class="cls-5" d="M116.782 177.262l4.32-4.32M120.862 177.262l4.32-4.32M125.182 177.262l4.32-4.32M129.502 177.262l4.32-4.32M133.822 177.262l4.32-4.32M137.902 177.262l4.32-4.32M142.222 177.262l4.32-4.32M146.542 177.262l4.32-4.32M150.622 177.262l4.32-4.32M154.942 177.262l4.32-4.32M159.262 177.262l4.32-4.32M163.582 177.262l4.32-4.32M167.662 177.262l4.32-4.32M171.982 177.262l4.32-4.32M176.302 177.262l4.32-4.32M180.382 177.262h.24"/><path class="cls-8" d="M180.382 172.942h-62.16l-4.32 4.32h66.48v-4.32"/><path class="cls-5" d="M116.782 177.262l4.32-4.32M120.862 177.262l4.32-4.32M125.182 177.262l4.32-4.32M129.502 177.262l4.32-4.32M133.822 177.262l4.32-4.32M137.902 177.262l4.32-4.32M142.222 177.262l4.32-4.32M146.542 177.262l4.32-4.32M150.622 177.262l4.32-4.32M154.942 177.262l4.32-4.32M159.262 177.262l4.32-4.32M163.582 177.262l4.32-4.32M167.662 177.262l4.32-4.32M171.982 177.262l4.32-4.32M176.302 177.262l4.32-4.32M180.382 177.262h.24"/><path class="cls-1" d="M180.382 177.262h26.64M180.382 172.942h26.64"/><path class="cls-6" d="M182.302 177.262v-4.32M205.102 177.262v-4.32"/><path class="cls-5" d="M205.066 150.24c-12.442 0-22.678 10.236-22.678 22.678M205.102 172.942v-22.8"/><path class="cls-8" d="M113.902 177.262l4.32-4.32V71.662h-4.32v105.6"/><path class="cls-5" d="M114.142 73.822l1.92-2.16M114.142 77.902l4.32-4.32M114.142 82.222l4.32-4.32M114.142 86.542l4.32-4.32M114.142 90.622l4.32-4.32M114.142 94.942l4.32-4.32M114.142 99.262l4.32-4.32M114.142 103.342l4.32-4.32M114.142 107.662l4.32-4.32M114.142 111.982l4.32-4.32M114.142 116.302l4.32-4.32M114.142 120.382l4.32-4.32M114.142 124.702l4.32-4.32M114.142 129.022l4.32-4.32M114.142 133.102l4.32-4.32M114.142 137.422l4.32-4.32M114.142 141.742l4.32-4.32M114.142 146.062l4.32-4.32M114.142 150.142l4.32-4.32M114.142 154.462l4.32-4.32M114.142 158.782l4.32-4.32M114.142 162.862l4.32-4.32M114.142 167.182l4.32-4.32M114.142 171.502l4.32-4.32M114.142 175.822l4.32-4.32"/><path class="cls-8" d="M113.902 177.262l4.32-4.32V71.662h-4.32v105.6"/><path class="cls-5" d="M114.142 73.822l1.92-2.16M114.142 77.902l4.32-4.32M114.142 82.222l4.32-4.32M114.142 86.542l4.32-4.32M114.142 90.622l4.32-4.32M114.142 94.942l4.32-4.32M114.142 99.262l4.32-4.32M114.142 103.342l4.32-4.32M114.142 107.662l4.32-4.32M114.142 111.982l4.32-4.32M114.142 116.302l4.32-4.32M114.142 120.382l4.32-4.32M114.142 124.702l4.32-4.32M114.142 129.022l4.32-4.32M114.142 133.102l4.32-4.32M114.142 137.422l4.32-4.32M114.142 141.742l4.32-4.32M114.142 146.062l4.32-4.32M114.142 150.142l4.32-4.32M114.142 154.462l4.32-4.32M114.142 158.782l4.32-4.32M114.142 162.862l4.32-4.32M114.142 167.182l4.32-4.32M114.142 171.502l4.32-4.32M114.142 175.822l4.32-4.32"/><path class="cls-1" d="M95.422 212.062v-34.56"/><path class="cls-6" d="M95.422 177.982v-.48"/><path class="cls-8" d="M103.102 219.022l-7.2-6.96v175.2h7.2v-168.24"/><path class="cls-5" d="M103.342 222.622l-7.2-7.2M103.342 226.702l-7.2-7.2M103.342 230.782l-7.2-7.2M103.342 234.862l-7.2-7.2M103.342 238.702l-7.2-7.2M103.342 242.782l-7.2-7.2M103.342 246.862l-7.2-7.2M103.342 250.702l-7.2-7.2M103.342 254.782l-7.2-7.2M103.342 258.862l-7.2-7.2M103.342 262.942l-7.2-7.2M103.342 266.782l-7.2-7.2M103.342 270.862l-7.2-7.2M103.342 274.942l-7.2-7.2M103.342 278.782l-7.2-7.2M103.342 282.862l-7.2-7.2M103.342 286.942l-7.2-7.2M103.342 290.782l-7.2-7.2M103.342 294.862l-7.2-7.2M103.342 298.942l-7.2-7.2M103.342 303.022l-7.2-7.2M103.342 306.862l-7.2-7.2M103.342 310.942l-7.2-7.2M103.342 315.022l-7.2-7.2M103.342 318.862l-7.2-7.2M103.342 322.942l-7.2-7.2M103.342 327.022l-7.2-7.2M103.342 330.862l-7.2-7.2M103.342 334.942l-7.2-7.2M103.342 339.022l-7.2-7.2M103.342 343.102l-7.2-7.2M103.342 346.942l-7.2-7.2M103.342 351.022l-7.2-7.2M103.342 355.102l-7.2-7.2M103.342 358.942l-7.2-7.2M103.342 363.022l-7.2-7.2M103.342 367.102l-7.2-7.2M103.342 370.942l-7.2-7.2M103.342 375.022l-7.2-7.2M103.342 379.102l-7.2-7.2M103.342 383.182l-7.2-7.2M103.342 387.022l-7.2-7.2M99.262 387.262l-3.12-3.36M101.422 387.262l1.92-1.92M97.342 387.262l6-6M96.142 384.622l7.2-7.2M96.142 380.542l7.2-7.2M96.142 376.462l7.2-7.2M96.142 372.622l7.2-7.2M96.142 368.542l7.2-7.2M96.142 364.462l7.2-7.2M96.142 360.382l7.2-7.2M96.142 356.542l7.2-7.2M96.142 352.462l7.2-7.2M96.142 348.382l7.2-7.2M96.142 344.542l7.2-7.2M96.142 340.462l7.2-7.2M96.142 336.382l7.2-7.2M96.142 332.542l7.2-7.2M96.142 328.462l7.2-7.2M96.142 324.382l7.2-7.2M96.142 320.302l7.2-7.2M96.142 316.462l7.2-7.2M96.142 312.382l7.2-7.2M96.142 308.302l7.2-7.2M96.142 304.462l7.2-7.2M96.142 300.382l7.2-7.2M96.142 296.302l7.2-7.2M96.142 292.222l7.2-7.2M96.142 288.382l7.2-7.2M96.142 284.302l7.2-7.2M96.142 280.222l7.2-7.2M96.142 276.382l7.2-7.2M96.142 272.302l7.2-7.2M96.142 268.222l7.2-7.2M96.142 264.382l7.2-7.2M96.142 260.302l7.2-7.2M96.142 256.222l7.2-7.2M96.142 252.142l7.2-7.2M96.142 248.302l7.2-7.2M96.142 244.222l7.2-7.2M96.142 240.142l7.2-7.2M96.142 236.302l7.2-7.2M96.142 232.222l7.2-7.2M96.142 228.142l7.2-7.2M96.142 224.302l6-6.24M96.142 220.222l4.08-4.08M96.142 216.142l1.92-2.16M96.142 212.062"/><path class="cls-8" d="M103.102 219.022l-7.2-6.96v175.2h7.2v-168.24"/><path class="cls-5" d="M103.342 222.622l-7.2-7.2M103.342 226.702l-7.2-7.2M103.342 230.782l-7.2-7.2M103.342 234.862l-7.2-7.2M103.342 238.702l-7.2-7.2M103.342 242.782l-7.2-7.2M103.342 246.862l-7.2-7.2M103.342 250.702l-7.2-7.2M103.342 254.782l-7.2-7.2M103.342 258.862l-7.2-7.2M103.342 262.942l-7.2-7.2M103.342 266.782l-7.2-7.2M103.342 270.862l-7.2-7.2M103.342 274.942l-7.2-7.2M103.342 278.782l-7.2-7.2M103.342 282.862l-7.2-7.2M103.342 286.942l-7.2-7.2M103.342 290.782l-7.2-7.2M103.342 294.862l-7.2-7.2M103.342 298.942l-7.2-7.2M103.342 303.022l-7.2-7.2M103.342 306.862l-7.2-7.2M103.342 310.942l-7.2-7.2M103.342 315.022l-7.2-7.2M103.342 318.862l-7.2-7.2M103.342 322.942l-7.2-7.2M103.342 327.022l-7.2-7.2M103.342 330.862l-7.2-7.2M103.342 334.942l-7.2-7.2M103.342 339.022l-7.2-7.2M103.342 343.102l-7.2-7.2M103.342 346.942l-7.2-7.2M103.342 351.022l-7.2-7.2M103.342 355.102l-7.2-7.2M103.342 358.942l-7.2-7.2M103.342 363.022l-7.2-7.2M103.342 367.102l-7.2-7.2M103.342 370.942l-7.2-7.2M103.342 375.022l-7.2-7.2M103.342 379.102l-7.2-7.2M103.342 383.182l-7.2-7.2M103.342 387.022l-7.2-7.2M99.262 387.262l-3.12-3.36M101.422 387.262l1.92-1.92M97.342 387.262l6-6M96.142 384.622l7.2-7.2M96.142 380.542l7.2-7.2M96.142 376.462l7.2-7.2M96.142 372.622l7.2-7.2M96.142 368.542l7.2-7.2M96.142 364.462l7.2-7.2M96.142 360.382l7.2-7.2M96.142 356.542l7.2-7.2M96.142 352.462l7.2-7.2M96.142 348.382l7.2-7.2M96.142 344.542l7.2-7.2M96.142 340.462l7.2-7.2M96.142 336.382l7.2-7.2M96.142 332.542l7.2-7.2M96.142 328.462l7.2-7.2M96.142 324.382l7.2-7.2M96.142 320.302l7.2-7.2M96.142 316.462l7.2-7.2M96.142 312.382l7.2-7.2M96.142 308.302l7.2-7.2M96.142 304.462l7.2-7.2M96.142 300.382l7.2-7.2M96.142 296.302l7.2-7.2M96.142 292.222l7.2-7.2M96.142 288.382l7.2-7.2M96.142 284.302l7.2-7.2M96.142 280.222l7.2-7.2M96.142 276.382l7.2-7.2M96.142 272.302l7.2-7.2M96.142 268.222l7.2-7.2M96.142 264.382l7.2-7.2M96.142 260.302l7.2-7.2M96.142 256.222l7.2-7.2M96.142 252.142l7.2-7.2M96.142 248.302l7.2-7.2M96.142 244.222l7.2-7.2M96.142 240.142l7.2-7.2M96.142 236.302l7.2-7.2M96.142 232.222l7.2-7.2M96.142 228.142l7.2-7.2M96.142 224.302l6-6.24M96.142 220.222l4.08-4.08M96.142 216.142l1.92-2.16M96.142 212.062"/><path class="cls-8" d="M7.102 387.262H.142V66.382h6.96v320.88"/><path class="cls-5" d="M7.342 66.622l-.24-.24M7.342 70.702l-4.32-4.32M7.342 74.542l-6.96-6.96M7.342 78.622l-6.96-6.96M7.342 82.702l-6.96-6.96M7.342 86.542l-6.96-6.96M7.342 90.622l-6.96-6.96M7.342 94.702l-6.96-6.96M7.342 98.782l-6.96-6.96M7.342 102.622l-6.96-6.96M7.342 106.702l-6.96-6.96M7.342 110.782l-6.96-6.96M7.342 114.622l-6.96-6.96M7.342 118.702l-6.96-6.96M7.342 122.782l-6.96-6.96M7.342 126.622l-6.96-6.96M7.342 130.702l-6.96-6.96M7.342 134.782l-6.96-6.96M7.342 138.862l-6.96-6.96M7.342 142.702l-6.96-6.96M7.342 146.782l-6.96-6.96M7.342 150.862l-6.96-6.96M7.342 154.702l-6.96-6.96M7.342 158.782l-6.96-6.96M7.342 162.862l-6.96-6.96M7.342 166.942l-6.96-6.96M7.342 170.782l-6.96-6.96M7.342 174.862l-6.96-6.96M7.342 178.942l-6.96-6.96M7.342 182.782l-6.96-6.96M7.342 186.862l-6.96-6.96M7.342 190.942l-6.96-6.96M7.342 194.782l-6.96-6.96M7.342 198.862l-6.96-6.96M7.342 202.942l-6.96-6.96M7.342 207.022l-6.96-6.96M7.342 210.862l-6.96-6.96M7.342 214.942l-6.96-6.96M7.342 219.022l-6.96-6.96M7.342 222.862l-6.96-6.96M7.342 226.942l-6.96-6.96M7.342 231.022l-6.96-6.96M7.342 234.862l-6.96-6.96M7.342 238.942l-6.96-6.96M7.342 243.022l-6.96-6.96M7.342 247.102l-6.96-6.96M7.342 250.942l-6.96-6.96M7.342 255.022l-6.96-6.96M7.342 259.102l-6.96-6.96M7.342 262.942l-6.96-6.96M7.342 267.022l-6.96-6.96M7.342 271.102l-6.96-6.96M7.342 274.942l-6.96-6.96M7.342 279.022l-6.96-6.96M7.342 283.102l-6.96-6.96M7.342 287.182l-6.96-6.96M7.342 291.022l-6.96-6.96M7.342 295.102l-6.96-6.96M7.342 299.182l-6.96-6.96M7.342 303.022l-6.96-6.96M7.342 307.102l-6.96-6.96M7.342 311.182l-6.96-6.96M7.342 315.262l-6.96-6.96M7.342 319.102l-6.96-6.96M7.342 323.182l-6.96-6.96M7.342 327.262l-6.96-6.96M7.342 331.102l-6.96-6.96M7.342 335.182l-6.96-6.96M7.342 339.262l-6.96-6.96M7.342 343.102l-6.96-6.96M7.342 347.182l-6.96-6.96M7.342 351.262l-6.96-6.96M7.342 355.342l-6.96-6.96M7.342 359.182l-6.96-6.96M7.342 363.262l-6.96-6.96M7.342 367.342l-6.96-6.96M7.342 371.182l-6.96-6.96M7.342 375.262l-6.96-6.96M7.342 379.342l-6.96-6.96M7.342 383.182l-6.96-6.96M7.102 387.262l-6.72-6.96M3.262 387.262l-2.88-2.88M5.182 387.262l2.16-2.16M1.102 387.262l6.24-6.24M.382 384.142l6.96-6.96M.382 380.062l6.96-6.96M.382 375.982l6.96-6.96M.382 372.142l6.96-6.96M.382 368.062l6.96-6.96M.382 363.982l6.96-6.96M.382 360.142l6.96-6.96M.382 356.062l6.96-6.96M.382 351.982l6.96-6.96M.382 347.902l6.96-6.96M.382 344.062l6.96-6.96M.382 339.982l6.96-6.96M.382 335.902l6.96-6.96M.382 332.062l6.96-6.96M.382 327.982l6.96-6.96M.382 323.902l6.96-6.96M.382 320.062l6.96-6.96M.382 315.982l6.96-6.96M.382 311.902l6.96-6.96M.382 307.822l6.96-6.96M.382 303.982l6.96-6.96M.382 299.902l6.96-6.96M.382 295.822l6.96-6.96M.382 291.982l6.96-6.96M.382 287.902l6.96-6.96M.382 283.822l6.96-6.96M.382 279.742l6.96-6.96M.382 275.902l6.96-6.96M.382 271.822l6.96-6.96M.382 267.742l6.96-6.96M.382 263.902l6.96-6.96M.382 259.822l6.96-6.96M.382 255.742l6.96-6.96M.382 251.902l6.96-6.96M.382 247.822l6.96-6.96M.382 243.742l6.96-6.96M.382 239.662l6.96-6.96M.382 235.822l6.96-6.96M.382 231.742l6.96-6.96M.382 227.662l6.96-6.96M.382 223.822l6.96-6.96M.382 219.742l6.96-6.96M.382 215.662l6.96-6.96M.382 211.822l6.96-6.96M.382 207.742l6.96-6.96M.382 203.662l6.96-6.96M.382 199.582l6.96-6.96M.382 195.742l6.96-6.96M.382 191.662l6.96-6.96M.382 187.582l6.96-6.96M.382 183.742l6.96-6.96M.382 179.662l6.96-6.96M.382 175.582l6.96-6.96M.382 171.742l6.96-6.96M.382 167.662l6.96-6.96M.382 163.582l6.96-6.96M.382 159.502l6.96-6.96M.382 155.662l6.96-6.96M.382 151.582l6.96-6.96M.382 147.502l6.96-6.96M.382 143.662l6.96-6.96M.382 139.582l6.96-6.96M.382 135.502l6.96-6.96M.382 131.422l6.96-6.96M.382 127.582l6.96-6.96M.382 123.502l6.96-6.96M.382 119.422l6.96-6.96M.382 115.582l6.96-6.96M.382 111.502l6.96-6.96M.382 107.422l6.96-6.96M.382 103.582l6.96-6.96M.382 99.502l6.96-6.96M.382 95.422l6.96-6.96M.382 91.342l6.96-6.96M.382 87.502l6.96-6.96M.382 83.422l6.96-6.96M.382 79.342l6.96-6.96M.382 75.502l6.96-6.96M.382 71.422l4.8-5.04M.382 67.342l.96-.96"/><path class="cls-8" d="M.142 387.262h6.96V66.382H.142v320.88"/><path class="cls-5" d="M7.342 66.622l-.24-.24M7.342 70.702l-4.32-4.32M7.342 74.542l-6.96-6.96M7.342 78.622l-6.96-6.96M7.342 82.702l-6.96-6.96M7.342 86.542l-6.96-6.96M7.342 90.622l-6.96-6.96M7.342 94.702l-6.96-6.96M7.342 98.782l-6.96-6.96M7.342 102.622l-6.96-6.96M7.342 106.702l-6.96-6.96M7.342 110.782l-6.96-6.96M7.342 114.622l-6.96-6.96M7.342 118.702l-6.96-6.96M7.342 122.782l-6.96-6.96M7.342 126.622l-6.96-6.96M7.342 130.702l-6.96-6.96M7.342 134.782l-6.96-6.96M7.342 138.862l-6.96-6.96M7.342 142.702l-6.96-6.96M7.342 146.782l-6.96-6.96M7.342 150.862l-6.96-6.96M7.342 154.702l-6.96-6.96M7.342 158.782l-6.96-6.96M7.342 162.862l-6.96-6.96M7.342 166.942l-6.96-6.96M7.342 170.782l-6.96-6.96M7.342 174.862l-6.96-6.96M7.342 178.942l-6.96-6.96M7.342 182.782l-6.96-6.96M7.342 186.862l-6.96-6.96M7.342 190.942l-6.96-6.96M7.342 194.782l-6.96-6.96M7.342 198.862l-6.96-6.96M7.342 202.942l-6.96-6.96M7.342 207.022l-6.96-6.96M7.342 210.862l-6.96-6.96M7.342 214.942l-6.96-6.96M7.342 219.022l-6.96-6.96M7.342 222.862l-6.96-6.96M7.342 226.942l-6.96-6.96M7.342 231.022l-6.96-6.96M7.342 234.862l-6.96-6.96M7.342 238.942l-6.96-6.96M7.342 243.022l-6.96-6.96M7.342 247.102l-6.96-6.96M7.342 250.942l-6.96-6.96M7.342 255.022l-6.96-6.96M7.342 259.102l-6.96-6.96M7.342 262.942l-6.96-6.96M7.342 267.022l-6.96-6.96M7.342 271.102l-6.96-6.96M7.342 274.942l-6.96-6.96M7.342 279.022l-6.96-6.96M7.342 283.102l-6.96-6.96M7.342 287.182l-6.96-6.96M7.342 291.022l-6.96-6.96M7.342 295.102l-6.96-6.96M7.342 299.182l-6.96-6.96M7.342 303.022l-6.96-6.96M7.342 307.102l-6.96-6.96M7.342 311.182l-6.96-6.96M7.342 315.262l-6.96-6.96M7.342 319.102l-6.96-6.96M7.342 323.182l-6.96-6.96M7.342 327.262l-6.96-6.96M7.342 331.102l-6.96-6.96M7.342 335.182l-6.96-6.96M7.342 339.262l-6.96-6.96M7.342 343.102l-6.96-6.96M7.342 347.182l-6.96-6.96M7.342 351.262l-6.96-6.96M7.342 355.342l-6.96-6.96M7.342 359.182l-6.96-6.96M7.342 363.262l-6.96-6.96M7.342 367.342l-6.96-6.96M7.342 371.182l-6.96-6.96M7.342 375.262l-6.96-6.96M7.342 379.342l-6.96-6.96M7.342 383.182l-6.96-6.96M7.102 387.262l-6.72-6.96M3.262 387.262l-2.88-2.88M5.182 387.262l2.16-2.16M1.102 387.262l6.24-6.24M.382 384.142l6.96-6.96M.382 380.062l6.96-6.96M.382 375.982l6.96-6.96M.382 372.142l6.96-6.96M.382 368.062l6.96-6.96M.382 363.982l6.96-6.96M.382 360.142l6.96-6.96M.382 356.062l6.96-6.96M.382 351.982l6.96-6.96M.382 347.902l6.96-6.96M.382 344.062l6.96-6.96M.382 339.982l6.96-6.96M.382 335.902l6.96-6.96M.382 332.062l6.96-6.96M.382 327.982l6.96-6.96M.382 323.902l6.96-6.96M.382 320.062l6.96-6.96M.382 315.982l6.96-6.96M.382 311.902l6.96-6.96M.382 307.822l6.96-6.96M.382 303.982l6.96-6.96M.382 299.902l6.96-6.96M.382 295.822l6.96-6.96M.382 291.982l6.96-6.96M.382 287.902l6.96-6.96M.382 283.822l6.96-6.96M.382 279.742l6.96-6.96M.382 275.902l6.96-6.96M.382 271.822l6.96-6.96M.382 267.742l6.96-6.96M.382 263.902l6.96-6.96M.382 259.822l6.96-6.96M.382 255.742l6.96-6.96M.382 251.902l6.96-6.96M.382 247.822l6.96-6.96M.382 243.742l6.96-6.96M.382 239.662l6.96-6.96M.382 235.822l6.96-6.96M.382 231.742l6.96-6.96M.382 227.662l6.96-6.96M.382 223.822l6.96-6.96M.382 219.742l6.96-6.96M.382 215.662l6.96-6.96M.382 211.822l6.96-6.96M.382 207.742l6.96-6.96M.382 203.662l6.96-6.96M.382 199.582l6.96-6.96M.382 195.742l6.96-6.96M.382 191.662l6.96-6.96M.382 187.582l6.96-6.96M.382 183.742l6.96-6.96M.382 179.662l6.96-6.96M.382 175.582l6.96-6.96M.382 171.742l6.96-6.96M.382 167.662l6.96-6.96M.382 163.582l6.96-6.96M.382 159.502l6.96-6.96M.382 155.662l6.96-6.96M.382 151.582l6.96-6.96M.382 147.502l6.96-6.96M.382 143.662l6.96-6.96M.382 139.582l6.96-6.96M.382 135.502l6.96-6.96M.382 131.422l6.96-6.96M.382 127.582l6.96-6.96M.382 123.502l6.96-6.96M.382 119.422l6.96-6.96M.382 115.582l6.96-6.96M.382 111.502l6.96-6.96M.382 107.422l6.96-6.96M.382 103.582l6.96-6.96M.382 99.502l6.96-6.96M.382 95.422l6.96-6.96M.382 91.342l6.96-6.96M.382 87.502l6.96-6.96M.382 83.422l6.96-6.96M.382 79.342l6.96-6.96M.382 75.502l6.96-6.96M.382 71.422l4.8-5.04M.382 67.342l.96-.96"/><path class="cls-8" d="M95.902 251.902v-4.32h-23.28v4.32h23.28"/><path class="cls-5" d="M72.862 250.942l3.36-3.36M75.982 251.902l4.32-4.32M80.302 251.902l4.32-4.32M84.622 251.902l4.32-4.32M88.942 251.902l4.32-4.32M93.022 251.902l3.12-2.88"/><path class="cls-8" d="M95.902 251.902v-4.32h-23.28v4.32h23.28"/><path class="cls-5" d="M72.862 250.942l3.36-3.36M75.982 251.902l4.32-4.32M80.302 251.902l4.32-4.32M84.622 251.902l4.32-4.32M88.942 251.902l4.32-4.32M93.022 251.902l3.12-2.88"/><path class="cls-8" d="M30.382 247.582H7.102v4.32h23.28v-4.32"/><path class="cls-5" d="M7.342 248.542l.72-.96M8.062 251.902l4.32-4.32M12.382 251.902l4.32-4.32M16.462 251.902l4.32-4.32M20.782 251.902l4.32-4.32M25.102 251.902l4.32-4.32M29.422 251.902l1.2-1.2"/><path class="cls-8" d="M30.382 247.582H7.102v4.32h23.28v-4.32"/><path class="cls-5" d="M7.342 248.542l.72-.96M8.062 251.902l4.32-4.32M12.382 251.902l4.32-4.32M16.462 251.902l4.32-4.32M20.782 251.902l4.32-4.32M25.102 251.902l4.32-4.32M29.422 251.902l1.2-1.2"/><path class="cls-1" d="M30.382 251.902h42.24"/><path class="cls-6" d="M72.142 251.902h.48"/><path class="cls-1" d="M30.382 247.582h42.24"/><path class="cls-6" d="M72.142 247.582h.48M31.822 251.902v-4.32M71.422 251.902v-4.32"/><path class="cls-5" d="M31.726 271.704c10.885 0 19.842-8.957 19.842-19.843M51.568 251.86c0 10.887 8.958 19.844 19.843 19.844M31.822 251.902v19.92M71.422 251.902v19.92"/><path class="cls-8" d="M247.102 157.582l-4.08-4.32v4.32h4.08"/><path class="cls-5" d="M243.262 157.102l1.68-1.92M246.862 157.582l.24-.24"/><path class="cls-8" d="M247.102 157.582l-4.08-4.32v4.32h4.08"/><path class="cls-5" d="M243.262 157.102l1.68-1.92M246.862 157.582l.24-.24"/><path class="cls-8" d="M216.382 153.262h-4.32v4.32h4.32v-4.32"/><path class="cls-5" d="M212.302 153.982l.72-.72M212.782 157.582l3.84-3.6"/><path class="cls-8" d="M216.382 153.262h-4.32v4.32h4.32v-4.32"/><path class="cls-5" d="M212.302 153.982l.72-.72M212.782 157.582l3.84-3.6"/><path class="cls-1" d="M216.382 157.582h26.64M216.382 153.262h26.64"/><path class="cls-6" d="M218.302 157.582v-4.32M240.862 157.582v-4.32"/><path class="cls-5" d="M240.927 153.216c0-12.44-10.236-22.677-22.678-22.677M218.302 153.262v-22.8"/><path class="cls-8" d="M247.102 140.542l-4.08-4.32v17.04l4.08 4.32v-17.04"/><path class="cls-5" d="M243.262 140.062l1.68-1.92M243.262 144.382l3.84-4.08M243.262 148.702l4.08-4.08M243.262 152.782l4.08-4.08M244.942 155.182l2.4-2.16M247.102 157.342h.24"/><path class="cls-8" d="M247.102 140.542l-4.08-4.32v17.04l4.08 4.32v-17.04"/><path class="cls-5" d="M243.262 140.062l1.68-1.92M243.262 144.382l3.84-4.08M243.262 148.702l4.08-4.08M243.262 152.782l4.08-4.08M244.942 155.182l2.4-2.16M247.102 157.342h.24"/><path class="cls-7" d="M265.822 143.422h2.64v9.84h-2.64z"/><path class="cls-6" d="M265.822 143.422h2.64v9.84h-2.64zM265.822 143.182v10.32-10.32z"/><path class="cls-5" d="M265.822 144.142h-8.64"/><path class="cls-3" d="M265.822 152.542h-1.68l-1.68-.48-1.44-.96-1.2-.96-1.2-1.2-.72-1.44-.48-1.68-.24-1.68"/><path class="cls-1" d="M113.902 212.062v-34.56"/><path class="cls-6" d="M113.902 177.982v-.48"/><path class="cls-8" d="M368.302 217.102l-7.2-7.44h-9.6v7.44h16.8"/><path class="cls-5" d="M366.142 217.102l-7.44-7.44M362.062 217.102l-7.44-7.44M358.222 217.102l-6.48-6.48M354.142 217.102l-2.4-2.64M367.582 217.102l.48-.48M363.742 217.102l2.4-2.4M359.662 217.102l4.56-4.56M355.582 217.102l6.48-6.48M351.742 217.102l7.44-7.44M351.742 213.022l3.36-3.36"/><path class="cls-8" d="M368.302 217.102l-7.2-7.44h-9.6v7.44h16.8"/><path class="cls-5" d="M366.142 217.102l-7.44-7.44M362.062 217.102l-7.44-7.44M358.222 217.102l-6.48-6.48M354.142 217.102l-2.4-2.64M367.582 217.102l.48-.48M363.742 217.102l2.4-2.4M359.662 217.102l4.56-4.56M355.582 217.102l6.48-6.48M351.742 217.102l7.44-7.44M351.742 213.022l3.36-3.36"/><path class="cls-6" d="M318.862 215.662h29.52"/><path class="cls-1" d="M318.862 209.662h29.52"/><path class="cls-6" d="M347.902 209.662h.48"/><path class="cls-8" d="M315.742 209.662h3.12v6h-3.12"/><path class="cls-5" d="M319.102 209.902l-.48-.24M319.102 213.982l-3.12-3.12M316.702 215.662l-.72-.72M316.942 215.662l2.16-1.92M315.982 212.782l3.12-3.12"/><path class="cls-8" d="M351.502 209.662h-3.12v6h3.12"/><path class="cls-5" d="M351.742 210.622l-.96-.96M351.742 214.462l-3.12-3.12M348.622 215.662v-.24M349.102 215.662l2.64-2.64M348.622 212.302l2.4-2.64M19.582 60.622h59.28v3.6h-59.28z"/><path class="cls-6" d="M89.902 56.782l-3.36-54.96h-74.16l-3.36 54.96"/><path class="cls-6" d="M91.582 56.782l-3.6-56.64h-77.04l-3.6 56.64"/><path class="cls-5" d="M152.34 66.476c0 .622-.031 1.241-.093 1.86a18.35 18.35 0 0 1-.274 1.842c-.122.61-.274 1.211-.454 1.806a19.002 19.002 0 0 1-1.428 3.438 18.885 18.885 0 0 1-3.319 4.476 19.07 19.07 0 0 1-11.56 5.48c-.62.06-1.24.092-1.86.093M133.342 85.582v-19.2M152.302 66.382l.24 1.44M152.542 69.262l.24.96M152.782 70.222l.24.48M153.262 71.902l.48 1.92M154.222 74.782l.48.72M154.702 75.502l.24.48M155.662 76.942l.96 1.68M157.342 79.342l.48.48M157.822 79.822l.48.48M159.262 81.262l1.44.96M161.662 82.702l.72.48M162.382 83.182l.48.24M164.062 83.902l1.68.72M166.942 84.862l.72.24M167.662 85.102h.72M169.582 85.342l1.68.24M171.262 85.582v-19.2M171.262 66.862v-.48M49.16 387.355a19.116 19.116 0 0 0-.37-3.7 19.134 19.134 0 0 0-1.084-3.56 19.307 19.307 0 0 0-1.757-3.283 19.042 19.042 0 0 0-3.744-4.128 18.826 18.826 0 0 0-3.095-2.069c-.548-.292-1.11-.559-1.684-.799a19.67 19.67 0 0 0-1.753-.629 19.481 19.481 0 0 0-1.807-.453 18.35 18.35 0 0 0-1.842-.274 18.51 18.51 0 0 0-1.86-.093M30.142 368.302v18.96M49.102 387.262l.24-1.44M49.582 384.382v-.72M49.582 383.662l.24-.72M50.062 381.742l.48-1.68M51.262 378.862l.24-.48M51.502 378.382l.48-.72M52.702 376.462l.72-1.2M54.622 373.822l.96-.72M56.782 372.142l.72-.48M57.502 371.662l.48-.24M59.182 370.702l1.68-.96M61.822 369.502l.72-.24M62.542 369.262l.72-.24M64.462 368.782l1.92-.24M68.062 368.302v18.96M68.062 386.782v.48M59.08 66.479c.002 11.04 9.089 20.125 20.13 20.123M79.102 86.542v-20.16"/><path class="cls-5" d="M59.182 66.382l-.48 4.08-1.2 3.6-1.92 3.6-2.4 3.12-3.12 2.4-3.36 1.92-3.84 1.2-3.84.24M39.022 86.542v-20.16"/><path class="cls-6" d="M245.902 185.902v.96M245.902 186.862l-.24.72M245.662 187.582l-.24.96M245.422 188.542v.24M244.702 189.982v.24M243.742 191.422l-.48.48M243.262 191.902l-.48.72M242.782 192.622l-.72.48M242.062 193.102l-.48.24M240.382 193.822l-.24.24M238.702 194.302h-.48M238.222 194.302l-.96.24M237.262 194.542l-.72-.24M236.542 194.302h-.48M234.622 194.062l-.24-.24M232.942 193.342l-.24-.24M232.702 193.102l-.72-.48M231.982 192.622l-.72-.72M231.262 191.902l-.48-.48M230.062 190.222l-.24-.24M229.342 188.782l-.24-.24M229.102 188.542v-.96M229.102 187.582l-.24-.72M228.862 186.862v-.96M228.862 184.702l.24-.48M229.342 183.022l.24-.24M229.582 182.782l.24-.72M229.822 182.062l.48-.72M230.302 181.342l.48-.72M231.742 179.422h.24M233.182 178.462h.24M233.422 178.462l.72-.48M234.142 177.982l.72-.24M234.862 177.742l.72-.24M235.582 177.502h.24M237.262 177.502h.24M238.942 177.502l.96.24M239.902 177.742l.72.24M240.622 177.982l.72.48M241.342 178.462l.24.24M242.782 179.422l.24.24M243.982 180.622l.48.72M244.462 181.342l.48.72M244.942 182.062l.24.72M245.182 182.782l.24.24M245.662 184.462v.24"/><g><path class="cls-2" d="M239.182 60.142h29.52M239.182 56.782h29.52M239.182 71.662h29.52M239.182 66.382h29.52M172.702 60.142h47.76M172.702 56.782h47.76M172.702 71.662h47.76M172.702 66.382h47.76M80.542 60.142h51.36M80.542 56.782h51.36M80.542 71.662h51.36M80.542 66.382h51.36M.142 60.142h17.52M.142 56.782h17.52M.142 71.662h17.52M.142 66.382h17.52M17.662 66.382v5.28M17.662 56.782h1.92v3.36h-1.92M80.542 66.382v5.28M80.542 56.782h-1.68v3.36h1.68M133.822 56.782h-3.36M171.022 56.782h3.36M131.902 66.382v5.28M131.902 56.782h1.92v3.36h-1.92M172.702 66.382v5.28M172.702 56.782h-1.68v3.36h1.68M222.142 56.782h-3.36M237.262 56.782h3.36M220.462 66.382v5.28M220.462 56.782h1.68v3.36h-1.68M239.182 66.382v5.28M239.182 56.782h-1.92v3.36h1.92M368.302 279.262v-62.16M361.102 271.822v-54.72M361.102 271.822v-54.72M368.302 279.262v-62.16M368.302 177.262v-105.6M361.102 177.262v-105.6M361.102 177.262v-105.6M368.302 177.262v-105.6M368.302 217.102v-4.32M368.302 217.102v-4.32M368.302 71.662v-5.28M361.102 207.262h6M361.102 179.422h6M361.102 207.262h6M361.102 212.782v-5.52M361.102 179.422h6M361.102 177.262v2.16M368.302 212.782h-1.2M368.302 177.262h-1.2M361.102 212.782v-5.52M361.102 177.262v2.16M367.102 207.262v5.52M367.102 179.422v-2.16M268.702 71.662v108M275.902 71.662v108M275.902 71.662v108M268.702 71.662v108M268.702 66.382v5.28M275.902 179.662v2.4h-6v-2.4h-1.2M275.818 209.77h-5.955v2.265h-1.132M28.702 393.502H.142M28.702 397.102H.142M28.702 382.222H.142M28.702 387.262H.142M103.102 393.502h-33.6M103.102 397.102h-33.6M103.102 382.222h-33.6M103.102 387.262h-33.6M67.822 397.102h3.36M30.622 397.102h-3.36M69.502 387.262v-5.04M69.502 397.102h-1.68v-3.6h1.68M28.702 387.262v-5.04M28.702 397.102h1.92v-3.6h-1.92M308.782 209.662h6.96M308.782 209.662h6.96M268.702 219.022h7.68M275.902 209.662h.48M275.902 209.662h.48M268.702 219.022h7.68M278.542 209.662v8.4M306.382 209.662v8.4M278.542 209.662v8.4M276.382 209.662h2.16M306.382 209.662v8.4M308.782 209.662h-2.4M276.382 219.022v-.96M308.782 219.022v-.96M276.382 209.662h2.16M308.782 209.662h-2.4M278.542 218.062h-2.16M306.382 218.062h2.4M315.742 271.822v-54.72M308.782 279.262v-60.24M308.782 279.262v-60.24M315.742 271.822v-54.72M301.822 60.142h66.48M301.822 56.782h66.48M301.822 71.662h59.28M301.822 66.382h66.48M268.702 60.142h14.4M268.702 56.782h14.4M275.902 71.662h7.2M268.702 66.382h14.4M284.782 56.782h-3.36M299.902 56.782h3.36M283.102 66.382v5.28M283.102 56.782h1.68v3.36h-1.68M301.822 66.382v5.28M301.822 56.782h-1.92v3.36h1.92M361.102 271.822h-45.36M368.302 279.262h-59.52M368.302 279.262h-59.52M361.102 271.822h-45.36M207.022 71.662v101.28M212.062 157.582v19.68M212.062 71.662v81.6M212.062 157.582v19.68M207.022 71.662v101.28M212.062 71.662v81.6M207.022 71.662h5.04M103.102 219.022h165.6M95.902 212.062h172.8M95.902 212.062h172.8M103.102 219.022h165.6M247.102 140.542h21.6M243.022 136.222h25.68M268.702 140.542v-4.32M243.022 136.222h25.68M247.102 140.542h21.6M207.022 177.262h5.04M207.022 177.262h5.04M113.902 177.262h66.48M118.222 172.942h62.16M118.222 172.942h62.16M113.902 177.262h66.48M180.382 177.262v-4.32M207.022 177.262v-4.32M113.902 71.662v105.6M118.222 71.662v101.28M118.222 71.662v101.28M113.902 71.662v105.6M113.902 71.662h4.32M103.102 387.262v-168.24M95.902 247.582v-35.52M95.902 387.262v-135.36M95.902 247.582v-35.52M103.102 387.262v-168.24M95.902 387.262v-135.36M103.102 387.262h-7.2M95.902 251.902v-4.32M7.102 247.582v-181.2M7.102 387.262v-135.36M.142 387.262V66.382M7.102 66.382H.142M.142 387.262V66.382M7.102 247.582v-181.2M7.102 387.262v-135.36M7.102 387.262H.142M7.102 251.902v-4.32M72.622 251.902h23.28M72.622 247.582h23.28M72.622 247.582h23.28M72.622 251.902h23.28M7.102 251.902h23.28M7.102 247.582h23.28M7.102 247.582h23.28M7.102 251.902h23.28M7.102 247.582v4.32M95.902 247.582v4.32M30.382 251.902v-4.32M72.622 251.902v-4.32M243.022 157.582h4.08M243.022 157.582h4.08M212.062 157.582h4.32M212.062 153.262h4.32M212.062 153.262h4.32M212.062 157.582h4.32M216.382 157.582v-4.32M243.022 157.582v-4.32M247.102 157.582v-17.04M243.022 153.262v-17.04M243.022 153.262v-17.04M247.102 157.582v-17.04M351.502 217.102h9.6M351.502 209.662h9.6M351.502 209.662h9.6M351.502 217.102h9.6M318.862 209.662v6M348.382 209.662v6M318.862 209.662v6M315.742 209.662h3.12M348.382 209.662v6M351.502 209.662h-3.12M315.742 217.102v-1.44M351.502 217.102v-1.44M315.742 209.662h3.12M351.502 209.662h-3.12M318.862 215.662h-3.12M348.382 215.662h3.12"/></g></g><g id="Mbel"><path class="cls-5" d="M9.037 181.35h10.8v56.64h-10.8zM73.513 223.926c3.955.593 7.86 1.48 11.683 2.662a2.381 2.381 0 0 1 1.666 2.042 17.584 17.584 0 0 1-1.647 9.334 2.377 2.377 0 0 1-2.263 1.348 79.526 79.526 0 0 1-11.887-1.495l-.077-.017-.005-.076a10.282 10.282 0 0 1 .072-2.07c.442-3.254 1.013-6.489 1.712-9.698.146-.676.36-1.336.638-1.97l.031-.07.077.01"/><path class="cls-5" d="M74.627 223.655c.254-.223.552-.394.876-.497a8.846 8.846 0 0 1 4.502-.22 35.026 35.026 0 0 1 5.875 1.792 16.351 16.351 0 0 1 3.807 2.174 2.895 2.895 0 0 1 1.128 2.139 22.088 22.088 0 0 1-1.743 9.883 2.895 2.895 0 0 1-1.79 1.625c-1.402.439-2.854.689-4.32.739a34.717 34.717 0 0 1-6.135-.322 8.843 8.843 0 0 1-4.156-1.75 2.413 2.413 0 0 1-.653-.765M120.157 156.39h56.64v15.6h-56.64zM120.157 90.87h56.64v45.36h-56.64zM45.277 321.03h14.16v28.32h-14.16zM90.447 361.77h-18.71a.925.925 0 0 1-.324-.065.777.777 0 0 1-.146-.079.799.799 0 0 1-.236-.235.86.86 0 0 1-.127-.305.783.783 0 0 1-.017-.168v-24.943a.76.76 0 0 1 .017-.166.771.771 0 0 1 .127-.307.802.802 0 0 1 .235-.235.78.78 0 0 1 .305-.127.968.968 0 0 1 .166-.017h18.71v26.647"/><path class="cls-5" d="M94.131 366.306H71.737a.967.967 0 0 1-.166-.017.78.78 0 0 1-.305-.127.799.799 0 0 1-.235-.235.859.859 0 0 1-.127-.307.762.762 0 0 1-.017-.166v-2.834c0-.056.005-.11.017-.166a.771.771 0 0 1 .127-.307.894.894 0 0 1 .236-.235.939.939 0 0 1 .304-.125.776.776 0 0 1 .166-.017H94.13a.843.843 0 0 1 .603.25.847.847 0 0 1 .25.6v2.834a.857.857 0 0 1-.852.852M90.447 335.123h3.684a.843.843 0 0 0 .327-.065.857.857 0 0 0 .526-.785v-24.945a.857.857 0 0 0-.852-.85h-3.685M88.237 308.55v53.28"/><path class="cls-5" d="M90.447 308.478h-18.71a.774.774 0 0 0-.166.017.782.782 0 0 0-.305.127.8.8 0 0 0-.235.235.777.777 0 0 0-.127.305.776.776 0 0 0-.017.166v24.945a.843.843 0 0 0 .526.785.84.84 0 0 0 .324.065h18.71v-26.645"/><path class="cls-5" d="M94.131 303.942H71.737a.927.927 0 0 0-.324.065.78.78 0 0 0-.146.079.803.803 0 0 0-.236.235.86.86 0 0 0-.127.305.783.783 0 0 0-.017.168v2.834a.84.84 0 0 0 .25.6.858.858 0 0 0 .6.25H94.13a.843.843 0 0 0 .603-.25.858.858 0 0 0 .25-.6v-2.834a.858.858 0 0 0-.852-.852M90.447 335.123h3.684a.858.858 0 0 1 .852.852v24.943a.857.857 0 0 1-.852.852h-3.684M9.037 306.87h10.8v56.64h-10.8zM30.397 99.75h22.56v51.12h-22.56zM62.951 149.367v-12.756M54.447 149.367h8.504M62.951 136.611h-8.504M62.951 131.644v-12.756M54.447 131.644h8.504M62.951 118.888h-8.504M62.951 113.921v-12.757M54.447 113.921h8.504M62.951 101.164h-8.504M20.431 149.367v-12.756M28.935 149.367h-8.504M20.431 136.611h8.504M20.431 131.644v-12.756M28.935 131.644h-8.504M20.431 118.888h8.504M20.431 113.921v-12.757M28.935 113.921h-8.504M20.431 101.164h8.504"/></g><g id="Text"><path d="M221.082 106.483c1.087 0 1.703.512 1.703 1.415 0 .344-.104.648-.303.872-.128.152-.256.232-.544.344.296.063.44.12.607.248.288.231.44.591.44 1.023 0 .496-.216.927-.576 1.16-.311.2-.655.271-1.327.271h-1.503v-5.333h1.503zm-.832 2.399l.68-.008c.424 0 .68-.056.872-.208a.937.937 0 0 0 .327-.736c0-.343-.168-.648-.424-.767-.191-.096-.415-.128-.903-.128h-.552v1.847zm0 2.39h.672c.56 0 .775-.04 1.008-.176.256-.143.384-.399.384-.751 0-.64-.376-.92-1.224-.92h-.84v1.847zM226.973 108.13h.607v3.686h-.607v-.711c-.368.551-.784.799-1.344.799-1.015 0-1.735-.8-1.735-1.919 0-1.127.736-1.943 1.75-1.943.561 0 .969.216 1.329.696v-.608zm-2.136.896a1.686 1.686 0 0 0-.304.975c0 .784.512 1.375 1.184 1.375.695 0 1.264-.647 1.264-1.439 0-.8-.512-1.351-1.248-1.351-.4 0-.68.136-.896.44zM231.752 106.483h.608v5.333h-.608v-.632c-.368.504-.76.72-1.32.72-1.015 0-1.735-.791-1.735-1.911s.737-1.95 1.736-1.95c.544 0 .96.199 1.32.647v-2.207zm-2.415 3.518c0 .808.488 1.375 1.184 1.375.712 0 1.231-.591 1.231-1.39 0-.832-.488-1.4-1.191-1.4-.728 0-1.224.576-1.224 1.415zM219.227 119.617v-.496l2.75-3.71v3.63h.624v.576h-.623v1.2h-.616v-1.2h-2.135zm2.135-2.615l-1.496 2.04h1.496v-2.04zM224.41 120.472a.406.406 0 0 1-.416.408.403.403 0 0 1-.416-.415c0-.24.176-.416.416-.416s.415.175.415.423zM225.34 119.617v-.496l2.751-3.71v3.63h.623v.576h-.623v1.2h-.616v-1.2h-2.135zm2.135-2.615l-1.495 2.04h1.495v-2.04zM231.94 117.13v.512c.28-.424.591-.6 1.048-.6.503 0 .823.216.99.672.273-.472.617-.672 1.169-.672.424 0 .743.136.935.392.176.232.224.44.224 1.023v2.36h-.608V118.6c0-.447-.016-.551-.104-.703-.111-.192-.352-.312-.64-.312-.535 0-.83.36-.83 1.015v2.215h-.61v-2.207c0-.36-.03-.543-.118-.703-.105-.208-.328-.32-.6-.32-.536 0-.856.383-.856 1.023v2.207h-.608v-3.686h.608zM239.531 118.314v.407h-1.95l1.183-1.615c.336-.455.407-.592.407-.767 0-.256-.216-.44-.527-.44-.352 0-.496.176-.504.591h-.44c.024-.647.36-.99.976-.99.56 0 .951.335.951.806 0 .272-.103.52-.384.88l-.847 1.128h1.135z"/><g><path d="M19.228 8.051c1.087 0 1.703.512 1.703 1.415 0 .344-.105.648-.304.872-.128.151-.256.232-.544.343.296.064.44.12.608.248.288.232.44.592.44 1.024 0 .495-.217.927-.576 1.159-.312.2-.655.272-1.327.272h-1.503V8.051h1.503zm-.832 2.398l.68-.007c.423 0 .68-.057.871-.208a.937.937 0 0 0 .328-.736c0-.343-.168-.648-.424-.767-.192-.097-.415-.128-.904-.128h-.551v1.846zm0 2.391h.672c.56 0 .775-.04 1.007-.176.256-.143.384-.4.384-.751 0-.64-.376-.92-1.223-.92h-.84v1.847zM25.118 9.698h.608v3.686h-.608v-.711c-.368.55-.784.799-1.343.799-1.016 0-1.736-.8-1.736-1.919 0-1.127.737-1.943 1.751-1.943.56 0 .968.216 1.328.696v-.608zm-2.135.895a1.686 1.686 0 0 0-.304.976c0 .784.512 1.375 1.184 1.375.695 0 1.263-.647 1.263-1.439 0-.8-.512-1.351-1.248-1.351-.4 0-.68.136-.895.44zM27.084 13.384V8.051h.609v5.333h-.609zM29.65 13.384h-.608V8.051h.608v3.262l1.471-1.615h.768l-1.648 1.8 1.64 1.886h-.76l-1.471-1.647v1.647zM36.078 11.553c0 1.08-.83 1.919-1.886 1.919-1.096 0-1.864-.8-1.864-1.935 0-1.143.768-1.927 1.888-1.927 1.087 0 1.862.808 1.862 1.943zm-3.126-.008c0 .816.504 1.367 1.255 1.367.728 0 1.248-.568 1.248-1.367 0-.824-.496-1.375-1.239-1.375-.76 0-1.264.551-1.264 1.375zM37.792 9.698v.52c.32-.432.639-.608 1.095-.608.336 0 .64.112.855.304.233.224.313.48.313.983v2.487h-.608v-2.35c0-.329-.04-.504-.136-.632-.113-.152-.328-.248-.575-.248a.916.916 0 0 0-.705.312c-.175.191-.239.367-.239.671v2.247h-.608V9.698h.608zM18.668 19.266c.224-.08.327-.104.52-.104.887 0 1.575.696 1.575 1.599 0 .943-.775 1.719-1.719 1.719-.952 0-1.687-.752-1.687-1.719 0-.392.103-.688.408-1.175l1.526-2.455h.744l-1.367 2.135zm-.68 1.495c0 .624.472 1.12 1.072 1.12s1.079-.488 1.079-1.096c0-.6-.472-1.08-1.064-1.08-.607 0-1.086.464-1.086 1.056zM22.602 22.04a.406.406 0 0 1-.415.408.403.403 0 0 1-.416-.416c0-.24.176-.416.416-.416.239 0 .415.176.415.424zM26.904 20.777c0 .6-.113.967-.376 1.247-.28.296-.704.448-1.207.448-.52 0-.952-.16-1.232-.464-.28-.296-.351-.6-.351-1.407v-1.759c0-.696.08-1.023.319-1.312.264-.32.704-.495 1.247-.495.488 0 .888.136 1.184.4.303.28.416.6.416 1.223v2.119zm-2.535-.136c0 .616.024.727.2.928.168.191.456.311.76.311.327 0 .631-.136.783-.351.12-.176.168-.4.168-.792v-2.039c0-.416-.072-.624-.272-.815a1 1 0 0 0-.68-.249c-.343 0-.64.137-.792.384-.135.192-.167.376-.167.84v1.783zM30.232 18.698v.512c.28-.424.591-.6 1.048-.6.503 0 .823.216.99.671.273-.471.617-.67 1.169-.67.424 0 .743.135.935.39.176.233.224.44.224 1.024v2.359h-.608v-2.215c0-.448-.016-.552-.104-.703-.111-.192-.352-.312-.64-.312-.535 0-.83.36-.83 1.015v2.215h-.61v-2.207c0-.36-.03-.543-.118-.703-.105-.208-.328-.32-.6-.32-.536 0-.856.383-.856 1.023v2.207h-.608v-3.686h.608zM37.824 19.882v.407h-1.95l1.183-1.615c.336-.456.407-.592.407-.768 0-.255-.216-.44-.527-.44-.352 0-.496.177-.504.592h-.44c.024-.647.36-.99.976-.99.56 0 .951.335.951.806 0 .272-.103.52-.384.88l-.847 1.128h1.135z"/></g><g><path d="M32.238 193.179h-.67v-5.333h.67v2.455l2.071-2.455h.808l-2.223 2.639 2.223 2.694h-.856l-2.023-2.463v2.463zM39.256 191.348c0 1.08-.831 1.919-1.887 1.919-1.096 0-1.863-.8-1.863-1.935 0-1.143.767-1.927 1.887-1.927 1.087 0 1.863.808 1.863 1.943zm-3.126-.008c0 .815.504 1.367 1.254 1.367.728 0 1.249-.568 1.249-1.367 0-.824-.497-1.375-1.24-1.375-.76 0-1.263.551-1.263 1.375zM43.268 192.723c-.416.376-.824.544-1.36.544-1.055 0-1.807-.8-1.807-1.92 0-1.143.76-1.942 1.84-1.942.527 0 .96.176 1.343.552l-.392.391c-.28-.255-.591-.383-.935-.383-.728 0-1.232.56-1.232 1.359 0 .815.504 1.383 1.224 1.383.36 0 .647-.12.943-.4l.376.416zM44.81 190.005c.335-.416.671-.6 1.112-.6.319 0 .655.128.855.336.2.2.287.488.287.96v2.478h-.607v-2.447c0-.503-.248-.784-.688-.784a.94.94 0 0 0-.72.329c-.183.208-.239.391-.239.743v2.159h-.608v-5.333h.608v2.159zM48.793 191.532c.031.311.088.472.239.671.24.328.592.504.991.504.456 0 .888-.248 1.104-.632l.536.2c-.304.616-.936.992-1.64.992-1.095 0-1.879-.8-1.879-1.92 0-1.134.776-1.942 1.856-1.942 1.071 0 1.87.808 1.87 1.887 0 .048 0 .152-.007.24h-3.07zm2.43-.448c-.024-.288-.08-.448-.208-.632a1.268 1.268 0 0 0-1.015-.504c-.408 0-.776.193-.991.512-.113.176-.16.328-.208.624h2.421zM53.545 189.493v.52c.32-.432.64-.608 1.095-.608.336 0 .64.112.856.304.232.224.312.48.312.983v2.487H55.2v-2.35c0-.329-.04-.505-.136-.633-.111-.151-.328-.248-.575-.248a.916.916 0 0 0-.704.312c-.176.192-.24.368-.24.672v2.247h-.608v-3.686h.608zM57.09 194.45l-.44-.136.671-1.943.576.184-.807 1.895zM62.224 190.204h2.103v.576h-2.103v1.823h2.103v.576h-2.775v-5.333h2.775v.576h-2.103v1.782zM67.252 190.5v-.04c0-.344-.28-.56-.703-.56-.409 0-.664.209-.664.528s.16.44.823.624c.471.128.72.248.895.424.185.184.296.448.296.72 0 .64-.527 1.07-1.31 1.07-.84 0-1.312-.39-1.376-1.134h.6c.04.415.312.64.776.64.415 0 .687-.217.687-.545 0-.32-.208-.48-.84-.64-.8-.215-1.159-.55-1.159-1.11 0-.64.52-1.072 1.295-1.072.784 0 1.256.4 1.287 1.095h-.607zM70.796 190.5v-.04c0-.344-.28-.56-.703-.56-.409 0-.665.209-.665.528s.16.44.824.624c.472.128.72.248.895.424.185.184.296.448.296.72 0 .64-.527 1.07-1.31 1.07-.84 0-1.312-.39-1.376-1.134h.6c.04.415.312.64.776.64.415 0 .687-.217.687-.545 0-.32-.208-.48-.84-.64-.8-.215-1.159-.55-1.159-1.11 0-.64.52-1.072 1.295-1.072.784 0 1.256.4 1.287 1.095h-.607zM72.937 191.532c.032.311.09.472.24.671.24.328.592.504.992.504.456 0 .887-.248 1.103-.632l.536.2c-.303.616-.935.992-1.64.992-1.094 0-1.878-.8-1.878-1.92 0-1.134.776-1.942 1.855-1.942 1.072 0 1.871.808 1.871 1.887 0 .048 0 .152-.008.24h-3.07zm2.432-.448c-.025-.288-.08-.448-.208-.632a1.268 1.268 0 0 0-1.016-.504c-.408 0-.775.193-.991.512-.112.176-.16.328-.208.624h2.423zM77.691 189.493v.52c.32-.432.639-.608 1.095-.608.336 0 .64.112.855.304.233.224.313.48.313.983v2.487h-.609v-2.35c0-.329-.04-.505-.135-.633-.113-.151-.328-.248-.575-.248a.916.916 0 0 0-.705.312c-.175.192-.239.368-.239.672v2.247h-.608v-3.686h.608zM34.237 201.595v.584h-2.99l1.855-2.654c.535-.776.656-1.016.656-1.336 0-.464-.369-.791-.888-.791-.36 0-.655.168-.776.447-.064.152-.087.272-.095.552h-.6c.031-1.015.568-1.575 1.519-1.575.872 0 1.48.543 1.48 1.32 0 .447-.161.839-.608 1.462l-1.432 1.991h1.879zM35.681 198.597v-.608l1.807-1.183v5.373h-.632v-4.366l-1.175.784zM40.056 201.835a.406.406 0 0 1-.415.408.403.403 0 0 1-.416-.416c0-.24.176-.416.416-.416s.415.176.415.424zM41.426 197.502v-.576h3.022l-1.566 1.99c.926 0 1.583.664 1.583 1.608 0 1-.752 1.743-1.768 1.743-.839 0-1.438-.472-1.623-1.28l.576-.103c.144.511.52.8 1.016.8.647 0 1.159-.488 1.159-1.112 0-.64-.48-1.087-1.176-1.087-.248 0-.407.047-.64.183l-.263-.232 1.543-1.934h-1.863zM47.761 198.493v.512c.28-.424.591-.6 1.047-.6.504 0 .824.216.992.671.272-.471.616-.671 1.168-.671.423 0 .743.136.935.392.176.232.224.44.224 1.023v2.359h-.608v-2.215c0-.448-.016-.552-.104-.704-.112-.191-.352-.312-.64-.312-.535 0-.83.36-.83 1.016v2.215h-.61v-2.207c0-.36-.03-.544-.118-.703-.105-.208-.329-.32-.6-.32-.536 0-.856.383-.856 1.023v2.207h-.608v-3.686h.608zM55.352 199.676v.408h-1.95l1.183-1.615c.336-.456.407-.592.407-.768 0-.255-.216-.44-.527-.44-.352 0-.497.177-.504.592h-.44c.024-.647.36-.991.976-.991.56 0 .951.335.951.807 0 .272-.104.52-.384.88l-.847 1.127h1.135z"/></g><g><path d="M42.51 283.947h.697l-1.632 5.333h-.592l-1.175-4.189-1.183 4.19h-.592l-1.63-5.334h.711l1.215 4.086 1.183-4.086h.632l1.143 4.102 1.223-4.102zM47.318 287.45c0 1.079-.831 1.918-1.887 1.918-1.095 0-1.863-.799-1.863-1.935 0-1.143.768-1.926 1.888-1.926 1.087 0 1.862.807 1.862 1.942zm-3.126-.008c0 .815.504 1.367 1.255 1.367.728 0 1.248-.568 1.248-1.367 0-.824-.496-1.376-1.24-1.376-.759 0-1.263.552-1.263 1.376zM49.031 286.106c.336-.415.672-.6 1.112-.6.32 0 .656.128.856.337.199.2.287.487.287.959v2.478h-.608v-2.446c0-.504-.248-.784-.687-.784a.94.94 0 0 0-.72.328c-.183.208-.24.392-.24.744v2.158h-.607v-5.333h.607v2.16zM53.236 285.594v.52c.32-.432.64-.607 1.096-.607.336 0 .64.111.855.303.233.224.313.48.313.984v2.486h-.609v-2.35c0-.328-.04-.504-.135-.632-.112-.152-.329-.248-.576-.248a.916.916 0 0 0-.704.312c-.175.192-.24.368-.24.672v2.246h-.607v-3.686h.607zM57.226 287.634c.033.311.09.471.24.67.24.329.592.505.992.505.456 0 .887-.248 1.103-.632l.536.2c-.303.615-.935.991-1.64.991-1.094 0-1.878-.799-1.878-1.919 0-1.135.776-1.942 1.855-1.942 1.072 0 1.871.807 1.871 1.887 0 .048 0 .152-.008.24h-3.07zm2.432-.448c-.024-.288-.08-.448-.208-.632a1.268 1.268 0 0 0-1.016-.504c-.408 0-.775.192-.99.512-.113.176-.161.328-.209.624h2.423zM61.98 285.594v.52c.32-.432.639-.607 1.095-.607.336 0 .64.111.855.303.233.224.313.48.313.984v2.486h-.609v-2.35c0-.328-.04-.504-.135-.632-.113-.152-.328-.248-.575-.248a.916.916 0 0 0-.705.312c-.175.192-.239.368-.239.672v2.246h-.608v-3.686h.608zM37.25 294.698v-.607l1.806-1.184v5.374h-.631v-4.366l-1.175.783zM40.456 297.081v-.496l2.75-3.71v3.631h.624v.575h-.623v1.2h-.616v-1.2h-2.135zm2.135-2.614l-1.496 2.04h1.496v-2.04zM45.638 297.937a.406.406 0 0 1-.415.407.403.403 0 0 1-.416-.415c0-.24.176-.416.416-.416s.415.176.415.424zM49.368 293.555h-1.719v1.432c.272-.104.512-.153.783-.153.936 0 1.64.737 1.64 1.736 0 1.023-.752 1.766-1.799 1.766-.752 0-1.32-.391-1.592-1.096l.577-.214c.127.231.183.327.271.407.168.168.464.272.76.272.64 0 1.127-.496 1.127-1.152 0-.68-.48-1.135-1.183-1.135-.416 0-.84.192-1.183.543v-3.014h2.318v.608zM53.322 294.594v.512c.28-.424.59-.6 1.047-.6.504 0 .823.217.991.672.273-.472.616-.672 1.168-.672.424 0 .743.137.936.393.175.231.223.44.223 1.023v2.359h-.607v-2.215c0-.449-.017-.552-.105-.704-.111-.192-.351-.312-.64-.312-.534 0-.83.36-.83 1.016v2.215h-.609v-2.208c0-.359-.031-.543-.119-.703-.104-.208-.328-.32-.6-.32-.536 0-.855.384-.855 1.023v2.208h-.608v-3.687h.608zM60.913 295.778v.408h-1.951l1.183-1.615c.336-.456.407-.592.407-.768 0-.256-.215-.44-.527-.44-.351 0-.496.176-.504.592h-.44c.024-.648.36-.991.976-.991.56 0 .952.335.952.807 0 .272-.104.52-.384.88l-.848 1.127h1.136z"/></g><g><path d="M331.126 247.587v.608h-2.55v-5.333h.671v4.725h1.88zM332.775 243.477c0 .216-.177.384-.393.384s-.384-.168-.384-.392.168-.392.393-.392c.216 0 .384.176.384.4zm-.088 4.718h-.609v-3.686h.609v3.686zM334.738 248.195h-.607v-3.15h-.504v-.536h.504v-.496c0-.728.376-1.16 1.016-1.16.031 0 .103 0 .167.009v.543c-.44.048-.56.176-.576.608v.496h.576v.535h-.576v3.15zM337.122 247.443c.01.184.057.224.28.224h.28v.528h-.568c-.431-.008-.6-.168-.6-.576v-2.575h-.51v-.535h.51v-1.16h.608v1.16h.56v.535h-.56v2.4z"/></g><g><path d="M136.59 191.451h2.103v.577h-2.103v1.822h2.103v.576h-2.775v-5.333h2.775v.576h-2.103v1.782zM140.491 190.74v.52c.32-.432.64-.608 1.095-.608.336 0 .64.112.856.304.232.224.312.48.312.983v2.487h-.608v-2.35c0-.329-.04-.505-.136-.632-.112-.152-.328-.248-.575-.248a.916.916 0 0 0-.704.312c-.176.191-.24.367-.24.671v2.247h-.608v-3.686h.608zM144.752 193.675c.009.183.057.223.28.223h.28v.528h-.568c-.431-.008-.6-.168-.6-.576v-2.574h-.511v-.536h.512v-1.16h.607v1.16h.56v.536h-.56v2.399zM146.97 190.74v.623c.112-.263.192-.375.336-.487.184-.144.44-.224.704-.224h.144v.616c-.064-.008-.128-.008-.168-.008a.945.945 0 0 0-.8.423c-.16.232-.216.448-.216.872v1.871h-.607v-3.686h.607zM149.386 192.779c.031.312.088.472.24.671.24.329.591.504.99.504.456 0 .888-.248 1.104-.632l.536.2c-.304.616-.935.992-1.64.992-1.094 0-1.878-.8-1.878-1.92 0-1.134.775-1.942 1.855-1.942 1.071 0 1.871.808 1.871 1.887 0 .048 0 .152-.008.24h-3.07zm2.43-.448c-.024-.288-.08-.447-.207-.632a1.268 1.268 0 0 0-1.016-.503c-.408 0-.775.192-.991.511-.113.177-.16.328-.208.624h2.422zm-.176-3.182l-.936 1.055h-.44l.665-1.055h.71zM153.93 192.779c.033.312.09.472.241.671.24.329.592.504.991.504.456 0 .888-.248 1.104-.632l.536.2c-.304.616-.936.992-1.64.992-1.094 0-1.879-.8-1.879-1.92 0-1.134.777-1.942 1.856-1.942 1.071 0 1.871.808 1.871 1.887 0 .048 0 .152-.009.24h-3.07zm2.433-.448c-.025-.288-.08-.447-.208-.632a1.268 1.268 0 0 0-1.016-.503c-.408 0-.775.192-.991.511-.113.177-.16.328-.208.624h2.423zM137.717 201.291c-.224.08-.327.104-.512.104-.895 0-1.59-.703-1.59-1.615 0-.952.76-1.703 1.726-1.703.96 0 1.68.727 1.68 1.68 0 .407-.105.719-.368 1.158l-1.536 2.511h-.743l1.343-2.135zm-1.47-1.535c0 .6.463 1.08 1.063 1.08.615 0 1.079-.464 1.079-1.072 0-.616-.464-1.095-1.048-1.095-.607 0-1.095.48-1.095 1.087zM140.337 203.082a.406.406 0 0 1-.415.408.403.403 0 0 1-.416-.416c0-.24.176-.416.416-.416s.415.176.415.424zM141.291 199.844v-.607l1.807-1.184v5.373h-.632v-4.366l-1.175.784zM147.316 199.74v.512c.279-.424.59-.6 1.047-.6.503 0 .823.216.99.671.273-.471.617-.67 1.169-.67.424 0 .743.135.935.39.176.233.224.44.224 1.024v2.359h-.608v-2.215c0-.448-.016-.552-.104-.703-.111-.192-.352-.312-.64-.312-.535 0-.83.36-.83 1.015v2.215h-.61v-2.207c0-.36-.03-.543-.118-.703-.105-.208-.328-.32-.6-.32-.536 0-.855.383-.855 1.023v2.207h-.609v-3.686h.609zM154.906 200.924v.407h-1.95l1.183-1.615c.336-.456.407-.592.407-.768 0-.255-.216-.44-.527-.44-.352 0-.496.177-.504.592h-.44c.024-.647.36-.99.976-.99.56 0 .951.335.951.806 0 .272-.103.52-.384.88l-.847 1.128h1.135z"/></g><g><path d="M145.222 113.376v.575h-3.814l3.015-4.757h-2.68v-.576h3.79l-3.013 4.758h2.702zM147.063 109.234c0 .216-.177.384-.392.384s-.384-.168-.384-.392.168-.392.392-.392c.216 0 .384.176.384.4zm-.088 4.717h-.608v-3.686h.608v3.686zM148.936 110.265v.512c.28-.424.591-.6 1.047-.6.504 0 .823.216.991.672.273-.472.617-.672 1.168-.672.424 0 .743.136.936.392.176.232.223.44.223 1.023v2.36h-.607v-2.215c0-.448-.017-.552-.104-.704-.112-.192-.352-.312-.64-.312-.535 0-.831.36-.831 1.016v2.214h-.609v-2.207c0-.359-.03-.543-.119-.703-.104-.208-.328-.32-.6-.32-.535 0-.855.384-.855 1.023v2.207h-.608v-3.686h.608zM155.257 110.265v.512c.28-.424.591-.6 1.047-.6.504 0 .824.216.992.672.272-.472.616-.672 1.168-.672.423 0 .743.136.935.392.176.232.224.44.224 1.023v2.36h-.608v-2.215c0-.448-.016-.552-.104-.704-.111-.192-.352-.312-.64-.312-.535 0-.83.36-.83 1.016v2.214h-.61v-2.207c0-.359-.03-.543-.118-.703-.105-.208-.328-.32-.6-.32-.536 0-.856.384-.856 1.023v2.207h-.608v-3.686h.608zM161.354 112.304c.032.312.09.472.24.672.24.328.592.504.992.504.456 0 .887-.248 1.103-.632l.536.2c-.303.615-.935.991-1.64.991-1.094 0-1.878-.799-1.878-1.919 0-1.135.776-1.943 1.855-1.943 1.072 0 1.871.808 1.871 1.888 0 .048 0 .152-.008.24h-3.07zm2.432-.447c-.025-.288-.08-.448-.208-.632a1.268 1.268 0 0 0-1.016-.504c-.408 0-.775.192-.991.512-.112.176-.16.328-.208.624h2.423zM166.108 110.265v.624c.111-.264.192-.376.335-.487.185-.144.44-.225.704-.225h.144v.616c-.064-.008-.128-.008-.168-.008a.945.945 0 0 0-.8.424c-.16.232-.215.447-.215.871v1.871h-.608v-3.686h.608zM142.192 119.37v-.608l1.807-1.184v5.373h-.632v-4.365l-1.175.783zM145.706 119.37v-.608l1.806-1.184v5.373h-.631v-4.365l-1.175.783zM150.08 122.608a.406.406 0 0 1-.414.407.403.403 0 0 1-.416-.415c0-.24.176-.416.416-.416.239 0 .415.176.415.424zM151.45 118.274v-.576h3.022l-1.566 1.991c.927 0 1.583.664 1.583 1.607 0 1-.752 1.743-1.768 1.743-.838 0-1.438-.471-1.623-1.279l.577-.104c.143.512.52.8 1.015.8.648 0 1.16-.488 1.16-1.112 0-.64-.48-1.087-1.176-1.087-.249 0-.408.048-.64.184l-.264-.232 1.543-1.935h-1.863zM157.786 119.265v.512c.28-.424.59-.6 1.047-.6.504 0 .823.216.991.672.272-.472.616-.672 1.168-.672.424 0 .743.136.935.392.176.232.224.44.224 1.023v2.36h-.607v-2.215c0-.448-.017-.552-.105-.704-.111-.192-.351-.312-.64-.312-.535 0-.83.36-.83 1.016v2.214h-.609v-2.207c0-.359-.031-.543-.119-.703-.105-.208-.328-.32-.6-.32-.536 0-.855.384-.855 1.023v2.207h-.609v-3.686h.609zM165.378 120.449v.408h-1.952l1.184-1.616c.336-.455.407-.591.407-.767 0-.256-.216-.44-.527-.44-.352 0-.496.176-.504.592h-.44c.024-.648.36-.992.976-.992.56 0 .951.336.951.808 0 .272-.103.52-.383.88l-.848 1.127h1.136z"/></g></g></svg>