<svg xmlns="http://www.w3.org/2000/svg" viewBox="0 0 290.85261 384.76345"><defs><style>.cls-1{stroke-dasharray:0 0 0 0 2.88 1.44 .24 1.44}.cls-1,.cls-2,.cls-3,.cls-4,.cls-5,.cls-6,.cls-7{fill:none;stroke-linecap:round;stroke-linejoin:round}.cls-1,.cls-7{stroke:#194164;stroke-width:.28346px}.cls-2{stroke:#646464}.cls-2,.cls-6{stroke-width:.14173px}.cls-8,.cls-9{fill:#fff}.cls-3,.cls-5{stroke-dasharray:0 0 1.44 1.44;stroke-width:.14173px}.cls-3,.cls-5,.cls-6{stroke:#969696}.cls-4{stroke:#000;stroke-width:.288px}.cls-5{stroke-dashoffset:.72px}.cls-10,.cls-9{fill-rule:evenodd}</style></defs><g id="Plan"><path class="cls-6" d="M108.142 334.702h59.04v3.6h-59.04z"/><path class="cls-7" d="M123.982 203.182v14.64M124.702 203.182v14.64M123.982 217.822h.72M124.702 203.182v14.64M123.982 203.182v14.64M123.982 203.182h.72M23.182 221.662H7.342M88.462 221.662h-64.56"/><path class="cls-4" d="M88.462 222.382H7.342"/><path class="cls-7" d="M21.742 220.222h-14.4M88.462 220.222h-64.56M23.182 221.662H7.342M88.462 221.662h-64.56M88.462 222.382H7.342M21.742 220.222h-14.4M88.462 220.222h-64.56"/><path class="cls-4" d="M88.462 221.662v.72"/><path class="cls-7" d="M88.462 220.222v1.44"/><path class="cls-4" d="M7.342 222.382v-.72"/><path class="cls-7" d="M7.342 221.662v-1.44M23.182 164.302v57.36"/><path class="cls-4" d="M23.902 164.302v55.92"/><path class="cls-7" d="M21.742 164.302v55.92M23.182 164.302v57.36M23.902 164.302v55.92M21.742 164.302v55.92"/><path class="cls-4" d="M23.182 164.302h.72"/><path class="cls-7" d="M21.742 164.302h1.44"/><path class="cls-4" d="M23.902 220.222v1.44"/><path class="cls-9" d="M272.542 162.142h-7.2v54.72h7.2v-54.72"/><path class="cls-6" d="M272.782 165.262l-3.36-3.12M272.782 169.342l-7.2-7.2M272.782 173.422l-7.2-7.2M272.782 177.502l-7.2-7.2M272.782 181.342l-7.2-7.2M272.782 185.422l-7.2-7.2M272.782 189.502l-7.2-7.2M272.782 193.342l-7.2-7.2M272.782 197.422l-7.2-7.2M272.782 201.502l-7.2-7.2M272.782 205.342l-7.2-7.2M272.782 209.422l-7.2-7.2M272.782 213.502l-7.2-7.2M272.062 216.862l-6.48-6.48M267.982 216.862l-2.4-2.64M272.542 216.862l.24-.24M268.462 216.862l4.32-4.32M265.582 215.902l7.2-7.2M265.582 211.822l7.2-7.2M265.582 207.742l7.2-7.2M265.582 203.902l7.2-7.2M265.582 199.822l7.2-7.2M265.582 195.742l7.2-7.2M265.582 191.662l7.2-7.2M265.582 187.822l7.2-7.2M265.582 183.742l7.2-7.2M265.582 179.662l7.2-7.2M265.582 175.822l7.2-7.2M265.582 171.742l7.2-7.2M265.582 167.662l5.52-5.52M265.582 163.822l1.44-1.68"/><path class="cls-9" d="M272.542 162.142h-7.2v54.72h7.2v-54.72"/><path class="cls-6" d="M272.782 165.262l-3.36-3.12M272.782 169.342l-7.2-7.2M272.782 173.422l-7.2-7.2M272.782 177.502l-7.2-7.2M272.782 181.342l-7.2-7.2M272.782 185.422l-7.2-7.2M272.782 189.502l-7.2-7.2M272.782 193.342l-7.2-7.2M272.782 197.422l-7.2-7.2M272.782 201.502l-7.2-7.2M272.782 205.342l-7.2-7.2M272.782 209.422l-7.2-7.2M272.782 213.502l-7.2-7.2M272.062 216.862l-6.48-6.48M267.982 216.862l-2.4-2.64M272.542 216.862l.24-.24M268.462 216.862l4.32-4.32M265.582 215.902l7.2-7.2M265.582 211.822l7.2-7.2M265.582 207.742l7.2-7.2M265.582 203.902l7.2-7.2M265.582 199.822l7.2-7.2M265.582 195.742l7.2-7.2M265.582 191.662l7.2-7.2M265.582 187.822l7.2-7.2M265.582 183.742l7.2-7.2M265.582 179.662l7.2-7.2M265.582 175.822l7.2-7.2M265.582 171.742l7.2-7.2M265.582 167.662l5.52-5.52M265.582 163.822l1.44-1.68"/><path class="cls-9" d="M272.542 11.662l-7.2 5.04v105.6h7.2V11.662"/><path class="cls-6" d="M272.782 13.102l-.96-.96M272.782 16.942l-3.36-3.12M272.782 21.022l-5.76-5.52M272.782 25.102l-7.2-7.2M272.782 29.182l-7.2-7.2M272.782 33.022l-7.2-7.2M272.782 37.102l-7.2-7.2M272.782 41.182l-7.2-7.2M272.782 45.022l-7.2-7.2M272.782 49.102l-7.2-7.2M272.782 53.182l-7.2-7.2M272.782 57.022l-7.2-7.2M272.782 61.102l-7.2-7.2M272.782 65.182l-7.2-7.2M272.782 69.262l-7.2-7.2M272.782 73.102l-7.2-7.2M272.782 77.182l-7.2-7.2M272.782 81.262l-7.2-7.2M272.782 85.102l-7.2-7.2M272.782 89.182l-7.2-7.2M272.782 93.262l-7.2-7.2M272.782 97.102l-7.2-7.2M272.782 101.182l-7.2-7.2M272.782 105.262l-7.2-7.2M272.782 109.342l-7.2-7.2M272.782 113.182l-7.2-7.2M272.782 117.262l-7.2-7.2M272.782 121.342l-7.2-7.2M269.662 122.302l-4.08-4.32M265.582 122.302v-.24M270.862 122.302l1.92-1.92M266.782 122.302l6-5.76M265.582 119.662l7.2-7.2M265.582 115.582l7.2-7.2M265.582 111.502l7.2-7.2M265.582 107.662l7.2-7.2M265.582 103.582l7.2-7.2M265.582 99.502l7.2-7.2M265.582 95.662l7.2-7.2M265.582 91.582l7.2-7.2M265.582 87.502l7.2-7.2M265.582 83.422l7.2-7.2M265.582 79.582l7.2-7.2M265.582 75.502l7.2-7.2M265.582 71.422l7.2-7.2M265.582 67.582l7.2-7.2M265.582 63.502l7.2-7.2M265.582 59.422l7.2-7.2M265.582 55.582l7.2-7.2M265.582 51.502l7.2-7.2M265.582 47.422l7.2-7.2M265.582 43.342l7.2-7.2M265.582 39.502l7.2-7.2M265.582 35.422l7.2-7.2M265.582 31.342l7.2-7.2M265.582 27.502l7.2-7.2M265.582 23.422l7.2-7.2M265.582 19.342l7.2-7.2"/><path class="cls-9" d="M272.542 11.662l-7.2 5.04v105.6h7.2V11.662"/><path class="cls-6" d="M272.782 13.102l-.96-.96M272.782 16.942l-3.36-3.12M272.782 21.022l-5.76-5.52M272.782 25.102l-7.2-7.2M272.782 29.182l-7.2-7.2M272.782 33.022l-7.2-7.2M272.782 37.102l-7.2-7.2M272.782 41.182l-7.2-7.2M272.782 45.022l-7.2-7.2M272.782 49.102l-7.2-7.2M272.782 53.182l-7.2-7.2M272.782 57.022l-7.2-7.2M272.782 61.102l-7.2-7.2M272.782 65.182l-7.2-7.2M272.782 69.262l-7.2-7.2M272.782 73.102l-7.2-7.2M272.782 77.182l-7.2-7.2M272.782 81.262l-7.2-7.2M272.782 85.102l-7.2-7.2M272.782 89.182l-7.2-7.2M272.782 93.262l-7.2-7.2M272.782 97.102l-7.2-7.2M272.782 101.182l-7.2-7.2M272.782 105.262l-7.2-7.2M272.782 109.342l-7.2-7.2M272.782 113.182l-7.2-7.2M272.782 117.262l-7.2-7.2M272.782 121.342l-7.2-7.2M269.662 122.302l-4.08-4.32M265.582 122.302v-.24M270.862 122.302l1.92-1.92M266.782 122.302l6-5.76M265.582 119.662l7.2-7.2M265.582 115.582l7.2-7.2M265.582 111.502l7.2-7.2M265.582 107.662l7.2-7.2M265.582 103.582l7.2-7.2M265.582 99.502l7.2-7.2M265.582 95.662l7.2-7.2M265.582 91.582l7.2-7.2M265.582 87.502l7.2-7.2M265.582 83.422l7.2-7.2M265.582 79.582l7.2-7.2M265.582 75.502l7.2-7.2M265.582 71.422l7.2-7.2M265.582 67.582l7.2-7.2M265.582 63.502l7.2-7.2M265.582 59.422l7.2-7.2M265.582 55.582l7.2-7.2M265.582 51.502l7.2-7.2M265.582 47.422l7.2-7.2M265.582 43.342l7.2-7.2M265.582 39.502l7.2-7.2M265.582 35.422l7.2-7.2M265.582 31.342l7.2-7.2M265.582 27.502l7.2-7.2M265.582 23.422l7.2-7.2M265.582 19.342l7.2-7.2"/><path class="cls-9" d="M272.542 158.062h-4.08l4.08 4.08v-4.08"/><path class="cls-6" d="M272.782 161.422l-3.36-3.36M271.822 161.422l.96-.96M269.902 159.262l1.2-1.2"/><path class="cls-9" d="M272.542 158.062h-4.08l4.08 4.08v-4.08"/><path class="cls-6" d="M272.782 161.422l-3.36-3.36M271.822 161.422l.96-.96M269.902 159.262l1.2-1.2"/><path class="cls-7" d="M271.342 152.062h1.68v6h-1.68zM271.342 122.302h1.68v2.4h-1.68z"/><path class="cls-7" d="M271.342 124.702h1.68v27.36h-1.68zM271.342 152.062v-27.36"/><path class="cls-1" d="M265.342 152.302v-27.84"/><path class="cls-7" d="M265.342 124.942v-.48"/><path class="cls-9" d="M265.342 158.062v-5.76h6v5.76"/><path class="cls-6" d="M271.582 156.142l-4.08-3.84M269.422 158.062l-3.84-3.84M271.102 158.062l.48-.24M267.022 158.062l4.56-4.32M265.582 155.662l3.36-3.36"/><path class="cls-9" d="M265.342 122.302v2.16h6v-2.16"/><path class="cls-6" d="M271.582 123.982l-1.92-1.68M267.742 124.462l-2.16-2.16M268.702 124.462l2.16-2.16M265.582 123.742l1.2-1.44"/><path class="cls-9" d="M172.942 157.102h7.2v-2.16l-7.2 9.36v-7.2"/><path class="cls-6" d="M180.142 157.102l-.72-.96M177.502 158.542l-1.2-1.44M175.822 160.702l-2.64-2.64M174.142 163.102l-.96-1.2M173.182 163.822l1.2-1.2M179.902 157.102l.48-.48M173.182 159.982l2.64-2.88"/><path class="cls-9" d="M180.142 157.102h-7.2v7.2l7.2-9.36v2.16"/><path class="cls-6" d="M180.142 157.102l-.72-.96M177.502 158.542l-1.2-1.44M175.822 160.702l-2.64-2.64M174.142 163.102l-.96-1.2M173.182 163.822l1.2-1.2M179.902 157.102l.48-.48M173.182 159.982l2.64-2.88"/><path class="cls-9" d="M180.142 124.702v-108l-7.2-5.04v113.04h7.2"/><path class="cls-6" d="M180.382 16.942l-.48-.48M180.382 20.782l-7.2-7.2M180.382 24.862l-7.2-7.2M180.382 28.942l-7.2-7.2M180.382 32.782l-7.2-7.2M180.382 36.862l-7.2-7.2M180.382 40.942l-7.2-7.2M180.382 44.782l-7.2-7.2M180.382 48.862l-7.2-7.2M180.382 52.942l-7.2-7.2M180.382 57.022l-7.2-7.2M180.382 60.862l-7.2-7.2M180.382 64.942l-7.2-7.2M180.382 69.022l-7.2-7.2M180.382 72.862l-7.2-7.2M180.382 76.942l-7.2-7.2M180.382 81.022l-7.2-7.2M180.382 85.102l-7.2-7.2M180.382 88.942l-7.2-7.2M180.382 93.022l-7.2-7.2M180.382 97.102l-7.2-7.2M180.382 100.942l-7.2-7.2M180.382 105.022l-7.2-7.2M180.382 109.102l-7.2-7.2M180.382 112.942l-7.2-7.2M180.382 117.022l-7.2-7.2M180.382 121.102l-7.2-7.2M179.902 124.702l-6.72-6.72M175.822 124.702l-2.64-2.88M180.142 124.702h.24M176.302 124.702l4.08-4.08M173.182 123.742l7.2-7.2M173.182 119.902l7.2-7.2M173.182 115.822l7.2-7.2M173.182 111.742l7.2-7.2M173.182 107.902l7.2-7.2M173.182 103.822l7.2-7.2M173.182 99.742l7.2-7.2M173.182 95.662l7.2-7.2M173.182 91.822l7.2-7.2M173.182 87.742l7.2-7.2M173.182 83.662l7.2-7.2M173.182 79.822l7.2-7.2M173.182 75.742l7.2-7.2M173.182 71.662l7.2-7.2M173.182 67.822l7.2-7.2M173.182 63.742l7.2-7.2M173.182 59.662l7.2-7.2M173.182 55.582l7.2-7.2M173.182 51.742l7.2-7.2M173.182 47.662l7.2-7.2M173.182 43.582l7.2-7.2M173.182 39.742l7.2-7.2M173.182 35.662l7.2-7.2M173.182 31.582l7.2-7.2M173.182 27.502l7.2-7.2M173.182 23.662l6.96-7.2M173.182 19.582l4.56-4.56M173.182 15.502l2.16-2.16"/><path class="cls-9" d="M180.142 124.702v-108l-7.2-5.04v113.04h7.2"/><path class="cls-6" d="M180.382 16.942l-.48-.48M180.382 20.782l-7.2-7.2M180.382 24.862l-7.2-7.2M180.382 28.942l-7.2-7.2M180.382 32.782l-7.2-7.2M180.382 36.862l-7.2-7.2M180.382 40.942l-7.2-7.2M180.382 44.782l-7.2-7.2M180.382 48.862l-7.2-7.2M180.382 52.942l-7.2-7.2M180.382 57.022l-7.2-7.2M180.382 60.862l-7.2-7.2M180.382 64.942l-7.2-7.2M180.382 69.022l-7.2-7.2M180.382 72.862l-7.2-7.2M180.382 76.942l-7.2-7.2M180.382 81.022l-7.2-7.2M180.382 85.102l-7.2-7.2M180.382 88.942l-7.2-7.2M180.382 93.022l-7.2-7.2M180.382 97.102l-7.2-7.2M180.382 100.942l-7.2-7.2M180.382 105.022l-7.2-7.2M180.382 109.102l-7.2-7.2M180.382 112.942l-7.2-7.2M180.382 117.022l-7.2-7.2M180.382 121.102l-7.2-7.2M179.902 124.702l-6.72-6.72M175.822 124.702l-2.64-2.88M180.142 124.702h.24M176.302 124.702l4.08-4.08M173.182 123.742l7.2-7.2M173.182 119.902l7.2-7.2M173.182 115.822l7.2-7.2M173.182 111.742l7.2-7.2M173.182 107.902l7.2-7.2M173.182 103.822l7.2-7.2M173.182 99.742l7.2-7.2M173.182 95.662l7.2-7.2M173.182 91.822l7.2-7.2M173.182 87.742l7.2-7.2M173.182 83.662l7.2-7.2M173.182 79.822l7.2-7.2M173.182 75.742l7.2-7.2M173.182 71.662l7.2-7.2M173.182 67.822l7.2-7.2M173.182 63.742l7.2-7.2M173.182 59.662l7.2-7.2M173.182 55.582l7.2-7.2M173.182 51.742l7.2-7.2M173.182 47.662l7.2-7.2M173.182 43.582l7.2-7.2M173.182 39.742l7.2-7.2M173.182 35.662l7.2-7.2M173.182 31.582l7.2-7.2M173.182 27.502l7.2-7.2M173.182 23.662l6.96-7.2M173.182 19.582l4.56-4.56M173.182 15.502l2.16-2.16"/><path class="cls-7" d="M172.462 124.702h1.68v2.64h-1.68zM172.462 154.462h1.68v2.64h-1.68zM172.462 127.342h1.68v27.12h-1.68zM174.142 127.342v27.12"/><path class="cls-1" d="M180.142 127.102v27.84"/><path class="cls-7" d="M180.142 154.462v.48"/><path class="cls-9" d="M180.142 124.702v2.4h-6v-2.4h-1.2"/><path class="cls-6" d="M180.382 125.182l-.48-.48M178.222 127.102l-2.4-2.4M177.742 127.102l2.4-2.4M174.382 126.622l1.92-1.92"/><path class="cls-9" d="M180.058 157.123v-2.268h-5.955v2.268h-1.132"/><path class="cls-6" d="M180.142 157.102l-2.16-2.16M176.302 157.102l-1.92-1.92M179.902 157.102l.48-.48M175.822 157.102l2.16-2.16"/><path class="cls-9" d="M73.294 197.734a3.866 3.866 0 0 1 4.274 0 7.921 7.921 0 0 1 2.895 6.199l-.255 9.031h-9.554l-.255-9.031a7.917 7.917 0 0 1 2.895-6.2"/><path class="cls-7" d="M73.294 197.734a3.866 3.866 0 0 1 4.274 0 7.921 7.921 0 0 1 2.895 6.199l-.255 9.031h-9.554l-.255-9.031a7.917 7.917 0 0 1 2.895-6.2"/><path class="cls-9" d="M75.43 207.852a3.834 3.834 0 0 1-3.967-3.79 6.85 6.85 0 0 1 2.5-5.41 2.728 2.728 0 0 1 2.936 0 6.847 6.847 0 0 1 2.498 5.41 3.833 3.833 0 0 1-3.967 3.79"/><path class="cls-7" d="M75.43 207.852a3.834 3.834 0 0 1-3.967-3.79 6.85 6.85 0 0 1 2.5-5.41 2.728 2.728 0 0 1 2.936 0 6.847 6.847 0 0 1 2.498 5.41 3.833 3.833 0 0 1-3.967 3.79"/><path class="cls-9" d="M24.142 164.542v48.48h22.56v-48.48h-22.56"/><path class="cls-7" d="M24.142 164.542h22.56v48.48h-22.56zM24.142 210.862h22.56M88.462 213.742h-19.44"/><path class="cls-4" d="M88.462 213.022h-19.44"/><path class="cls-7" d="M88.462 215.182h-19.44M88.462 213.742h-19.44M88.462 213.022h-19.44M88.462 215.182h-19.44"/><path class="cls-4" d="M88.462 213.742v-.72"/><path class="cls-7" d="M88.462 215.182v-1.44M69.022 213.742h-1.44"/><path class="cls-4" d="M69.022 213.022h-2.16"/><path class="cls-7" d="M69.022 213.742h-1.44M69.022 213.022h-2.16M67.582 217.582h-18.24"/><path class="cls-4" d="M66.862 216.862h-17.04"/><path class="cls-7" d="M69.022 219.022h-21.12M67.582 217.582h-18.24M66.862 216.862h-17.04M69.022 219.022h-21.12M49.342 213.742h-1.44"/><path class="cls-4" d="M49.822 213.022h-1.92"/><path class="cls-7" d="M49.342 213.742h-1.44M49.822 213.022h-1.92M47.902 213.742h-24"/><path class="cls-4" d="M47.902 213.022h-24"/><path class="cls-7" d="M47.902 215.182h-24M47.902 213.742h-24"/><path class="cls-4" d="M23.902 213.742v-.72"/><path class="cls-7" d="M23.902 215.182v-1.44M47.902 213.022h-24M47.902 215.182h-24"/><path class="cls-9" d="M50.64 212.964v-12.048c0-.149.031-.297.087-.434a1.152 1.152 0 0 1 .614-.615c.137-.055.286-.084.434-.084h13.323c.149 0 .295.03.434.084a1.152 1.152 0 0 1 .612.615c.058.137.087.285.087.434v12.048H50.64"/><path class="cls-7" d="M50.64 212.964v-12.048c0-.149.031-.297.087-.434a1.152 1.152 0 0 1 .614-.615c.137-.055.286-.084.434-.084h13.323c.149 0 .295.03.434.084a1.152 1.152 0 0 1 .612.615c.058.137.087.285.087.434v12.048H50.64M66.862 213.022v3.84M66.862 216.862h-17.04M49.822 216.862v-3.84M49.342 217.582v-3.84"/><path class="cls-4" d="M49.822 216.862v-3.84"/><path class="cls-7" d="M47.902 219.022v-3.84M49.342 217.582v-3.84M49.822 216.862v-3.84M47.902 219.022v-3.84M67.582 213.742v3.84"/><path class="cls-4" d="M66.862 213.022v3.84"/><path class="cls-7" d="M69.022 215.182v3.84M67.582 213.742v3.84M66.862 213.022v3.84M69.022 215.182v3.84"/><path class="cls-4" d="M66.862 213.022h-17.04"/><path class="cls-9" d="M73.294 197.734a3.866 3.866 0 0 1 4.274 0 7.921 7.921 0 0 1 2.895 6.199l-.255 9.031h-9.554l-.255-9.031a7.917 7.917 0 0 1 2.895-6.2"/><path class="cls-7" d="M73.294 197.734a3.866 3.866 0 0 1 4.274 0 7.921 7.921 0 0 1 2.895 6.199l-.255 9.031h-9.554l-.255-9.031a7.917 7.917 0 0 1 2.895-6.2"/><path class="cls-9" d="M75.43 207.852a3.834 3.834 0 0 1-3.967-3.79 6.85 6.85 0 0 1 2.5-5.41 2.728 2.728 0 0 1 2.936 0 6.847 6.847 0 0 1 2.498 5.41 3.833 3.833 0 0 1-3.967 3.79"/><path class="cls-7" d="M75.43 207.852a3.834 3.834 0 0 1-3.967-3.79 6.85 6.85 0 0 1 2.5-5.41 2.728 2.728 0 0 1 2.936 0 6.847 6.847 0 0 1 2.498 5.41 3.833 3.833 0 0 1-3.967 3.79"/><path class="cls-9" d="M24.142 164.542v48.48h22.56v-48.48h-22.56"/><path class="cls-7" d="M24.142 164.542h22.56v48.48h-22.56zM24.142 210.862h22.56M88.462 213.742h-19.44"/><path class="cls-4" d="M88.462 213.022h-19.44"/><path class="cls-7" d="M88.462 215.182h-19.44M88.462 213.742h-19.44M88.462 213.022h-19.44M88.462 215.182h-19.44"/><path class="cls-4" d="M88.462 213.742v-.72"/><path class="cls-7" d="M88.462 215.182v-1.44M69.022 213.742h-1.44"/><path class="cls-4" d="M69.022 213.022h-2.16"/><path class="cls-7" d="M69.022 213.742h-1.44M69.022 213.022h-2.16M67.582 217.582h-18.24"/><path class="cls-4" d="M66.862 216.862h-17.04"/><path class="cls-7" d="M69.022 219.022h-21.12M67.582 217.582h-18.24M66.862 216.862h-17.04M69.022 219.022h-21.12M49.342 213.742h-1.44"/><path class="cls-4" d="M49.822 213.022h-1.92"/><path class="cls-7" d="M49.342 213.742h-1.44M49.822 213.022h-1.92M47.902 213.742h-24"/><path class="cls-4" d="M47.902 213.022h-24"/><path class="cls-7" d="M47.902 215.182h-24M47.902 213.742h-24"/><path class="cls-4" d="M23.902 213.742v-.72"/><path class="cls-7" d="M23.902 215.182v-1.44M47.902 213.022h-24M47.902 215.182h-24"/><path class="cls-9" d="M50.64 212.964v-12.048c0-.149.031-.297.087-.434a1.152 1.152 0 0 1 .614-.615c.137-.055.286-.084.434-.084h13.323c.149 0 .295.03.434.084a1.152 1.152 0 0 1 .612.615c.058.137.087.285.087.434v12.048H50.64"/><path class="cls-7" d="M50.64 212.964v-12.048c0-.149.031-.297.087-.434a1.152 1.152 0 0 1 .614-.615c.137-.055.286-.084.434-.084h13.323c.149 0 .295.03.434.084a1.152 1.152 0 0 1 .612.615c.058.137.087.285.087.434v12.048H50.64M66.862 213.022v3.84M66.862 216.862h-17.04M49.822 216.862v-3.84M49.342 217.582v-3.84"/><path class="cls-4" d="M49.822 216.862v-3.84"/><path class="cls-7" d="M47.902 219.022v-3.84M49.342 217.582v-3.84M49.822 216.862v-3.84M47.902 219.022v-3.84M67.582 213.742v3.84"/><path class="cls-4" d="M66.862 213.022v3.84"/><path class="cls-7" d="M69.022 215.182v3.84M67.582 213.742v3.84M66.862 213.022v3.84M69.022 215.182v3.84"/><path class="cls-4" d="M66.862 213.022h-17.04"/><path class="cls-7" d="M7.582 249.742h17.52v77.52H7.582zM22.942 326.302h2.16M22.942 317.662h2.16M22.942 300.622h2.16M22.942 283.582h2.16M22.942 266.782h2.16M7.582 249.022h17.52v.72H7.582zM24.622 231.982h.48v17.04h-.48zM9.262 248.542h15.36v.48H9.262zM9.262 223.582h15.36v.48H9.262zM24.622 222.382h.48v1.2h-.48zM8.782 223.582h.48v8.4h-.48zM8.782 231.982h.48v17.04h-.48z"/><path class="cls-9" d="M12.78 267.603h8.928c.262 0 .519.05.76.148a2.01 2.01 0 0 1 1.074 1.076c.1.24.15.499.15.758v11.198c0 .26-.05.519-.15.759a1.965 1.965 0 0 1-1.073 1.073c-.242.1-.5.15-.76.15H12.78c-.13 0-.26-.011-.386-.035a2.045 2.045 0 0 1-.715-.298 1.974 1.974 0 0 1-.884-1.649v-11.198a2.018 2.018 0 0 1 .334-1.102 1.97 1.97 0 0 1 .55-.547c.108-.072.22-.134.34-.185.123-.048.245-.086.375-.112.127-.024.257-.036.386-.036"/><path class="cls-7" d="M12.78 267.603h8.928c.262 0 .519.05.76.148a2.01 2.01 0 0 1 1.074 1.076c.1.24.15.499.15.758v11.198c0 .26-.05.519-.15.759a1.965 1.965 0 0 1-1.073 1.073c-.242.1-.5.15-.76.15H12.78c-.13 0-.26-.011-.386-.035a2.045 2.045 0 0 1-.715-.298 1.974 1.974 0 0 1-.884-1.649v-11.198a2.018 2.018 0 0 1 .334-1.102 1.97 1.97 0 0 1 .55-.547c.108-.072.22-.134.34-.185.123-.048.245-.086.375-.112.127-.024.257-.036.386-.036"/><path class="cls-9" d="M15.262 275.182c0-.658-.543-1.2-1.2-1.2s-1.2.542-1.2 1.2.542 1.2 1.2 1.2 1.2-.543 1.2-1.2"/><path class="cls-7" d="M15.262 275.182c0-.658-.543-1.2-1.2-1.2s-1.2.542-1.2 1.2.542 1.2 1.2 1.2 1.2-.543 1.2-1.2"/><path class="cls-8" d="M9.022 301.342h14.64v15.84H9.022z"/><path class="cls-7" d="M9.022 301.342h14.64v15.84H9.022z"/><path class="cls-9" d="M21.742 313.222c0-1.515-1.246-2.76-2.76-2.76s-2.76 1.245-2.76 2.76 1.245 2.76 2.76 2.76 2.76-1.246 2.76-2.76"/><path class="cls-7" d="M21.742 313.222c0-1.515-1.246-2.76-2.76-2.76s-2.76 1.245-2.76 2.76 1.245 2.76 2.76 2.76 2.76-1.246 2.76-2.76"/><path class="cls-9" d="M14.302 314.182c0-1.25-.975-2.28-2.16-2.28s-2.16 1.03-2.16 2.28.974 2.28 2.16 2.28 2.16-1.03 2.16-2.28"/><path class="cls-7" d="M14.302 314.182c0-1.25-.975-2.28-2.16-2.28s-2.16 1.03-2.16 2.28.974 2.28 2.16 2.28 2.16-1.03 2.16-2.28"/><path class="cls-9" d="M21.262 305.662c0-1.186-1.03-2.16-2.28-2.16s-2.28.974-2.28 2.16 1.03 2.16 2.28 2.16 2.28-.975 2.28-2.16"/><path class="cls-7" d="M21.262 305.662c0-1.186-1.03-2.16-2.28-2.16s-2.28.974-2.28 2.16 1.03 2.16 2.28 2.16 2.28-.975 2.28-2.16"/><path class="cls-9" d="M15.262 305.902c0-1.58-1.246-2.88-2.76-2.88s-2.76 1.3-2.76 2.88 1.245 2.88 2.76 2.88 2.76-1.301 2.76-2.88"/><path class="cls-7" d="M15.262 305.902c0-1.58-1.246-2.88-2.76-2.88s-2.76 1.3-2.76 2.88 1.245 2.88 2.76 2.88 2.76-1.301 2.76-2.88"/><path class="cls-1" d="M17.662 222.382v104.88"/><path class="cls-7" d="M9.262 231.502h15.36v.48H9.262zM9.262 231.982h15.36v.72H9.262zM24.622 223.582h.48v8.4h-.48z"/><path class="cls-10" d="M25.102 327.262v14.88H.142v-14.88h24.96"/><path class="cls-9" d="M25.102 342.142v-3.36H.142v3.36h24.96"/><path class="cls-6" d="M.382 341.902v.24M1.102 338.782l3.36 3.36M5.182 338.782l3.36 3.36M9.022 338.782l3.36 3.36M13.102 338.782l3.36 3.36M17.182 338.782l3.36 3.36M21.262 338.782l3.36 3.36M25.102 338.782h.24"/><path class="cls-9" d="M25.102 338.782v-.72H.142v.72h24.96"/><path class="cls-9" d="M25.102 338.062v-5.52H.142v5.52h24.96"/><path class="cls-6" d="M1.582 332.542v5.52M3.022 332.542v5.52M4.462 332.542v5.52M5.902 332.542v5.52M7.342 332.542v5.52M8.782 332.542v5.52M9.982 332.542v5.52M11.422 332.542v5.52M12.862 332.542v5.52M14.302 332.542v5.52M15.742 332.542v5.52M17.182 332.542v5.52M18.622 332.542v5.52M20.062 332.542v5.52M21.502 332.542v5.52M22.942 332.542v5.52M24.382 332.542v5.52"/><path class="cls-9" d="M25.102 332.542v-5.28H.142v5.28h24.96"/><path class="cls-6" d="M.382 329.902l2.4 2.64M1.582 327.262l5.28 5.28M5.662 327.262l5.28 5.28M9.742 327.262l5.28 5.28M13.582 327.262l5.28 5.28M17.662 327.262l5.28 5.28M21.742 327.262l3.6 3.6M25.102 332.542H.142M25.102 338.062H.142"/><path class="cls-7" d="M25.102 342.142H.142M25.102 327.262H.142"/><path class="cls-10" d="M106.222 327.262v14.88h-40.32v-14.88h40.32"/><path class="cls-9" d="M106.222 342.142v-3.36h-40.32v3.36h40.32"/><path class="cls-6" d="M66.142 339.502l2.4 2.64M69.262 338.782l3.36 3.36M73.342 338.782l3.36 3.36M77.182 338.782l3.36 3.36M81.262 338.782l3.36 3.36M85.342 338.782l3.36 3.36M89.182 338.782l3.36 3.36M93.262 338.782l3.36 3.36M97.342 338.782l3.36 3.36M101.422 338.782l3.36 3.36M105.262 338.782l1.2.96"/><path class="cls-9" d="M106.222 338.782v-.72h-40.32v.72h40.32"/><path class="cls-9" d="M106.222 338.062v-5.52h-40.32v5.52h40.32"/><path class="cls-6" d="M66.862 332.542v5.52M68.302 332.542v5.52M69.502 332.542v5.52M70.942 332.542v5.52M72.382 332.542v5.52M73.822 332.542v5.52M75.262 332.542v5.52M76.702 332.542v5.52M78.142 332.542v5.52M79.582 332.542v5.52M81.022 332.542v5.52M82.462 332.542v5.52M83.902 332.542v5.52M85.102 332.542v5.52M86.542 332.542v5.52M87.982 332.542v5.52M89.422 332.542v5.52M90.862 332.542v5.52M92.302 332.542v5.52M93.742 332.542v5.52M95.182 332.542v5.52M96.622 332.542v5.52M98.062 332.542v5.52M99.262 332.542v5.52M100.702 332.542v5.52M102.142 332.542v5.52M103.582 332.542v5.52M105.022 332.542v5.52"/><path class="cls-9" d="M106.222 332.542v-5.28h-40.32v5.28h40.32"/><path class="cls-6" d="M66.142 331.582l.96.96M66.142 327.502l4.8 5.04M69.742 327.262l5.28 5.28M73.822 327.262l5.28 5.28M77.662 327.262l5.28 5.28M81.742 327.262l5.28 5.28M85.822 327.262l5.28 5.28M89.902 327.262l5.28 5.28M93.742 327.262l5.28 5.28M97.822 327.262l5.28 5.28M101.902 327.262l4.56 4.56M105.742 327.262l.72.48M106.222 332.542h-40.32M106.222 338.062h-40.32"/><path class="cls-7" d="M106.222 342.142h-40.32M106.222 327.262h-40.32"/><path class="cls-10" d="M216.622 327.262v14.88h-47.52v-14.88h47.52"/><path class="cls-9" d="M216.622 342.142v-3.36h-47.52v3.36h47.52"/><path class="cls-6" d="M169.582 338.782l3.36 3.36M173.422 338.782l3.36 3.36M177.502 338.782l3.36 3.36M181.582 338.782l3.36 3.36M185.422 338.782l3.36 3.36M189.502 338.782l3.36 3.36M193.582 338.782l3.36 3.36M197.422 338.782l3.36 3.36M201.502 338.782l3.36 3.36M205.582 338.782l3.36 3.36M209.662 338.782l3.36 3.36M213.502 338.782l3.36 3.12"/><path class="cls-9" d="M216.622 338.782v-.72h-47.52v.72h47.52"/><path class="cls-9" d="M216.622 338.062v-5.52h-47.52v5.52h47.52"/><path class="cls-6" d="M170.302 332.542v5.52M171.742 332.542v5.52M173.182 332.542v5.52M174.382 332.542v5.52M175.822 332.542v5.52M177.262 332.542v5.52M178.702 332.542v5.52M180.142 332.542v5.52M181.582 332.542v5.52M183.022 332.542v5.52M184.462 332.542v5.52M185.902 332.542v5.52M187.342 332.542v5.52M188.782 332.542v5.52M189.982 332.542v5.52M191.422 332.542v5.52M192.862 332.542v5.52M194.302 332.542v5.52M195.742 332.542v5.52M197.182 332.542v5.52M198.622 332.542v5.52M200.062 332.542v5.52M201.502 332.542v5.52M202.942 332.542v5.52M204.382 332.542v5.52M205.582 332.542v5.52M207.022 332.542v5.52M208.462 332.542v5.52M209.902 332.542v5.52M211.342 332.542v5.52M212.782 332.542v5.52M214.222 332.542v5.52M215.662 332.542v5.52"/><path class="cls-9" d="M216.622 332.542v-5.28h-47.52v5.28h47.52"/><path class="cls-6" d="M169.342 330.622l1.92 1.92M170.062 327.262l5.28 5.28M173.902 327.262l5.28 5.28M177.982 327.262l5.28 5.28M182.062 327.262l5.28 5.28M185.902 327.262l5.28 5.28M189.982 327.262l5.28 5.28M194.062 327.262l5.28 5.28M198.142 327.262l5.28 5.28M201.982 327.262l5.28 5.28M206.062 327.262l5.28 5.28M210.142 327.262l5.28 5.28M213.982 327.262l2.88 2.64M216.622 332.542h-47.52M216.622 338.062h-47.52"/><path class="cls-7" d="M216.622 342.142h-47.52M216.622 327.262h-47.52"/><path class="cls-10" d="M290.542 327.262v14.88h-32.88v-14.88h32.88"/><path class="cls-9" d="M290.542 342.142v-3.36h-32.88v3.36h32.88"/><path class="cls-6" d="M257.902 338.782l3.12 3.36M261.742 338.782l3.36 3.36M265.582 338.782l3.36 3.36M269.662 338.782l3.36 3.36M273.742 338.782l3.36 3.36M277.822 338.782l3.36 3.36M281.662 338.782l3.36 3.36M285.742 338.782l3.36 3.36M289.822 338.782l.96.96"/><path class="cls-9" d="M290.542 338.782v-.72h-32.88v.72h32.88"/><path class="cls-9" d="M290.542 338.062v-5.52h-32.88v5.52h32.88"/><path class="cls-6" d="M258.142 332.542v5.52M259.582 332.542v5.52M261.022 332.542v5.52M262.462 332.542v5.52M263.902 332.542v5.52M265.102 332.542v5.52M266.542 332.542v5.52M267.982 332.542v5.52M269.422 332.542v5.52M270.862 332.542v5.52M272.302 332.542v5.52M273.742 332.542v5.52M275.182 332.542v5.52M276.622 332.542v5.52M278.062 332.542v5.52M279.262 332.542v5.52M280.702 332.542v5.52M282.142 332.542v5.52M283.582 332.542v5.52M285.022 332.542v5.52M286.462 332.542v5.52M287.902 332.542v5.52M289.342 332.542v5.52"/><path class="cls-9" d="M290.542 332.542v-5.28h-32.88v5.28h32.88"/><path class="cls-6" d="M257.902 330.862l1.44 1.68M258.142 327.262l5.28 5.28M262.222 327.262l5.28 5.28M266.302 327.262l5.28 5.28M270.142 327.262l5.28 5.28M274.222 327.262l5.28 5.28M278.302 327.262l5.28 5.28M282.142 327.262l5.28 5.28M286.222 327.262l4.56 4.32M290.302 327.262l.48.48M290.542 332.542h-32.88M290.542 338.062h-32.88"/><path class="cls-7" d="M290.542 342.142h-32.88M290.542 327.262h-32.88M63.982 334.702v7.44h3.6v1.68h-43.92v-1.68h3.36v-7.44"/><path class="cls-1" d="M65.902 327.262h-40.8"/><path class="cls-7" d="M25.582 327.262h-.48M25.102 332.542h40.8v2.16h-40.8zM62.302 334.702v-2.16M28.702 334.702v-2.16M65.902 332.542v2.16M47.662 332.542v2.16M62.302 332.542v2.16M43.582 332.542v2.16M47.662 332.542v2.16M28.702 332.542v2.16M43.582 332.542v2.16M25.102 332.542v2.16"/><path class="cls-9" d="M65.935 338.112h-1.843v-3.4h1.843"/><path class="cls-6" d="M65.422 334.702v3.36M65.935 338.112h-1.843v-3.4h1.843"/><path class="cls-9" d="M65.902 342.142h-1.92v-3.36h1.92"/><path class="cls-6" d="M64.222 341.662l.48.48M65.182 338.782l.96.72"/><path class="cls-7" d="M63.982 338.782v-4.08"/><path class="cls-9" d="M25.116 338.112h1.84v-3.4h-1.84"/><path class="cls-6" d="M25.582 334.702v3.36M27.022 334.702v3.36M25.116 338.112h1.84v-3.4h-1.84"/><path class="cls-9" d="M25.102 342.142h1.92v-3.36h-1.92"/><path class="cls-6" d="M25.342 338.782l1.92 1.92"/><path class="cls-7" d="M27.022 338.782v-4.08"/><path class="cls-1" d="M169.102 327.262h-62.88"/><path class="cls-7" d="M106.222 332.542h62.88v2.16h-62.88zM165.502 334.702v-2.16M109.822 334.702v-2.16M169.102 332.542v2.16M150.142 332.542v2.16M165.502 332.542v2.16M146.062 332.542v2.16M150.142 332.542v2.16M129.262 332.542v2.16M146.062 332.542v2.16M125.182 332.542v2.16M129.262 332.542v2.16M109.822 332.542v2.16M125.182 332.542v2.16M106.222 332.542v2.16M104.542 342.142v1.68"/><path class="cls-1" d="M104.542 343.822h66.24"/><path class="cls-7" d="M170.782 343.822v-.96"/><path class="cls-9" d="M169.116 338.112h-1.843v-3.4h1.843"/><path class="cls-6" d="M167.422 334.702v3.36M168.862 334.702v3.36M169.116 338.112h-1.843v-3.4h1.843"/><path class="cls-9" d="M169.102 342.142h-1.92v-3.36h1.92"/><path class="cls-6" d="M167.422 340.702l1.44 1.44"/><path class="cls-7" d="M167.182 338.782v-4.08"/><path class="cls-9" d="M106.186 338.112h1.843v-3.4h-1.843"/><path class="cls-6" d="M106.462 334.702v3.36M107.902 334.702v3.36M106.186 338.112h1.843v-3.4h-1.843"/><path class="cls-9" d="M106.222 342.142h1.92v-3.36h-1.92"/><path class="cls-6" d="M106.462 339.742l1.92 1.92"/><path class="cls-7" d="M108.142 338.782v-4.08M255.742 334.702v7.44h3.36v1.68h-43.92v-1.68h3.36v-7.44"/><path class="cls-1" d="M257.662 327.262h-41.04"/><path class="cls-7" d="M217.102 327.262h-.48M216.622 332.542h41.04v2.16h-41.04zM253.822 334.702v-2.16M220.462 334.702v-2.16M257.662 332.542v2.16M239.182 332.542v2.16M253.822 332.542v2.16M235.102 332.542v2.16M239.182 332.542v2.16M220.462 332.542v2.16M235.102 332.542v2.16M216.622 332.542v2.16"/><path class="cls-9" d="M257.556 338.112h-1.843v-3.4h1.843"/><path class="cls-6" d="M256.702 334.702v3.36M257.556 338.112h-1.843v-3.4h1.843"/><path class="cls-9" d="M257.662 342.142h-1.92v-3.36h1.92"/><path class="cls-6" d="M255.982 340.942l.96 1.2M257.662 338.782h.24"/><path class="cls-7" d="M255.742 338.782v-4.08"/><path class="cls-9" d="M216.737 338.112h1.843v-3.4h-1.843"/><path class="cls-6" d="M217.102 334.702v3.36M218.542 334.702v3.36M216.737 338.112h1.843v-3.4h-1.843"/><path class="cls-9" d="M216.622 342.142h1.92v-3.36h-1.92"/><path class="cls-6" d="M216.862 341.902v.24M217.582 338.782l1.2 1.2"/><path class="cls-7" d="M218.542 338.782v-4.08"/><path class="cls-9" d="M213.022 164.302l6.96-9.36h-6.96v9.36"/><path class="cls-6" d="M219.262 156.142l-1.2-1.2M217.582 158.302l-3.36-3.36M215.902 160.702l-2.64-2.64M214.222 162.862l-.96-.96M213.262 163.822l.96-.96M213.262 159.982l4.8-5.04M213.262 155.902l.96-.96"/><path class="cls-9" d="M213.022 164.302l6.96-9.36h-6.96v9.36"/><path class="cls-6" d="M219.262 156.142l-1.2-1.2M217.582 158.302l-3.36-3.36M215.902 160.702l-2.64-2.64M214.222 162.862l-.96-.96M213.262 163.822l.96-.96M213.262 159.982l4.8-5.04M213.262 155.902l.96-.96"/><path class="cls-9" d="M172.942 164.302l7.2-9.36h.48v9.36h-7.68"/><path class="cls-6" d="M180.862 157.582l-1.44-1.44M180.862 161.662l-3.36-3.12M179.422 164.302l-3.6-3.6M175.342 164.302l-1.2-1.2M180.622 164.302h.24M176.782 164.302l4.08-4.08M174.382 162.622l6.48-6.48"/><path class="cls-9" d="M180.142 154.942l-7.2 9.36h7.68v-9.36h-.48"/><path class="cls-6" d="M180.862 157.582l-1.44-1.44M180.862 161.662l-3.36-3.12M179.422 164.302l-3.6-3.6M175.342 164.302l-1.2-1.2M180.622 164.302h.24M176.782 164.302l4.08-4.08M174.382 162.622l6.48-6.48"/><path class="cls-7" d="M180.622 163.102h2.64v1.68h-2.64zM210.382 163.102h2.64v1.68h-2.64zM183.262 163.102h27.12v1.68h-27.12zM183.262 163.102h27.12"/><path class="cls-1" d="M182.782 154.942h27.84"/><path class="cls-7" d="M210.142 154.942h.48"/><path class="cls-9" d="M180.622 154.942h2.16v8.16h-2.16"/><path class="cls-6" d="M183.022 155.662l-.96-.72M183.022 159.742l-2.16-2.16M182.302 163.102l-1.44-1.44M181.822 163.102l1.2-.96M180.862 160.222l2.16-2.16M180.862 156.142l1.2-1.2"/><path class="cls-9" d="M213.022 154.942h-2.4v8.16h2.4"/><path class="cls-6" d="M213.262 158.062l-2.4-2.4M213.262 161.902l-2.4-2.4M210.862 162.382l2.4-2.4M210.862 158.302l2.4-2.4M183.147 164.775c0 14.928 12.285 27.213 27.213 27.213M210.382 164.782v27.12"/><path class="cls-7" d="M222.862 169.822h29.76v39.6h-29.76zM220.942 160.702h35.52M239.422 163.822h-13.92M252.142 166.702h-13.92"/><path class="cls-9" d="M219.982 154.942l-6.96 9.36v60l6.96-7.44v-61.92"/><path class="cls-6" d="M220.222 156.862l-.96-.72M220.222 160.942l-2.64-2.64M220.222 165.022l-4.32-4.32M220.222 168.862l-6-6M220.222 172.942l-6.96-6.96M220.222 177.022l-6.96-6.96M220.222 180.862l-6.96-6.96M220.222 184.942l-6.96-6.96M220.222 189.022l-6.96-6.96M220.222 192.862l-6.96-6.96M220.222 196.942l-6.96-6.96M220.222 201.022l-6.96-6.96M220.222 205.102l-6.96-6.96M220.222 208.942l-6.96-6.96M220.222 213.022l-6.96-6.96M219.982 216.862l-6.72-6.72M218.062 219.022l-4.8-5.04M216.142 221.182l-2.88-3.12M214.222 223.102l-.96-.96M213.262 224.062l3.6-3.6M213.262 219.982l6.96-6.96M213.262 216.142l6.96-6.96M213.262 212.062l6.96-6.96M213.262 207.982l6.96-6.96M213.262 203.902l6.96-6.96M213.262 200.062l6.96-6.96M213.262 195.982l6.96-6.96M213.262 191.902l6.96-6.96M213.262 188.062l6.96-6.96M213.262 183.982l6.96-6.96M213.262 179.902l6.96-6.96M213.262 176.062l6.96-6.96M213.262 171.982l6.96-6.96M213.262 167.902l6.96-6.96M214.222 162.862l6-6"/><path class="cls-9" d="M219.982 154.942l-6.96 9.36v60l6.96-7.44v-61.92"/><path class="cls-6" d="M220.222 156.862l-.96-.72M220.222 160.942l-2.64-2.64M220.222 165.022l-4.32-4.32M220.222 168.862l-6-6M220.222 172.942l-6.96-6.96M220.222 177.022l-6.96-6.96M220.222 180.862l-6.96-6.96M220.222 184.942l-6.96-6.96M220.222 189.022l-6.96-6.96M220.222 192.862l-6.96-6.96M220.222 196.942l-6.96-6.96M220.222 201.022l-6.96-6.96M220.222 205.102l-6.96-6.96M220.222 208.942l-6.96-6.96M220.222 213.022l-6.96-6.96M219.982 216.862l-6.72-6.72M218.062 219.022l-4.8-5.04M216.142 221.182l-2.88-3.12M214.222 223.102l-.96-.96M213.262 224.062l3.6-3.6M213.262 219.982l6.96-6.96M213.262 216.142l6.96-6.96M213.262 212.062l6.96-6.96M213.262 207.982l6.96-6.96M213.262 203.902l6.96-6.96M213.262 200.062l6.96-6.96M213.262 195.982l6.96-6.96M213.262 191.902l6.96-6.96M213.262 188.062l6.96-6.96M213.262 183.982l6.96-6.96M213.262 179.902l6.96-6.96M213.262 176.062l6.96-6.96M213.262 171.982l6.96-6.96M213.262 167.902l6.96-6.96M214.222 162.862l6-6"/><path class="cls-10" d="M206.062 16.702h59.28l7.2-5.04v-9.84h-66.48v14.88"/><path class="cls-9" d="M206.062 1.822v3.6h66.48v-3.6h-66.48"/><path class="cls-6" d="M206.302 2.782l2.64 2.64M209.422 1.822l3.6 3.6M213.262 1.822l3.6 3.6M217.342 1.822l3.6 3.6M221.422 1.822l3.6 3.6M225.262 1.822l3.6 3.6M229.342 1.822l3.6 3.6M233.422 1.822l3.6 3.6M237.502 1.822l3.6 3.6M241.342 1.822l3.6 3.6M245.422 1.822l3.6 3.6M249.502 1.822l3.6 3.6M253.342 1.822l3.6 3.6M257.422 1.822l3.6 3.6M261.502 1.822l3.6 3.6M265.582 1.822l3.6 3.6M269.422 1.822l3.36 3.12"/><path class="cls-9" d="M206.062 5.422v.48h66.48v-.48h-66.48M206.062 5.902v5.76h66.48v-5.76h-66.48"/><path class="cls-6" d="M272.302 11.662v-5.76M270.862 11.662v-5.76M269.422 11.662v-5.76M267.982 11.662v-5.76M266.542 11.662v-5.76M265.102 11.662v-5.76M263.902 11.662v-5.76M262.462 11.662v-5.76M261.022 11.662v-5.76M259.582 11.662v-5.76M258.142 11.662v-5.76M256.702 11.662v-5.76M255.262 11.662v-5.76M253.822 11.662v-5.76M252.382 11.662v-5.76M250.942 11.662v-5.76M249.502 11.662v-5.76M248.302 11.662v-5.76M246.862 11.662v-5.76M245.422 11.662v-5.76M243.982 11.662v-5.76M242.542 11.662v-5.76M241.102 11.662v-5.76M239.662 11.662v-5.76M238.222 11.662v-5.76M236.782 11.662v-5.76M235.342 11.662v-5.76M234.142 11.662v-5.76M232.702 11.662v-5.76M231.262 11.662v-5.76M229.822 11.662v-5.76M228.382 11.662v-5.76M226.942 11.662v-5.76M225.502 11.662v-5.76M224.062 11.662v-5.76M222.622 11.662v-5.76M221.182 11.662v-5.76M219.742 11.662v-5.76M218.542 11.662v-5.76M217.102 11.662v-5.76M215.662 11.662v-5.76M214.222 11.662v-5.76M212.782 11.662v-5.76M211.342 11.662v-5.76M209.902 11.662v-5.76M208.462 11.662v-5.76M207.022 11.662v-5.76"/><path class="cls-9" d="M206.062 16.702h59.28l7.2-5.04h-66.48v5.04"/><path class="cls-6" d="M271.822 12.142l-.48-.48M269.422 13.822l-2.16-2.16M267.022 15.502l-3.84-3.84M264.382 16.702l-5.04-5.04M260.302 16.702l-5.04-5.04M256.222 16.702l-5.04-5.04M252.382 16.702l-5.04-5.04M248.302 16.702l-5.04-5.04M244.222 16.702l-5.04-5.04M240.142 16.702l-5.04-5.04M236.302 16.702l-5.04-5.04M232.222 16.702l-5.04-5.04M228.142 16.702l-5.04-5.04M224.302 16.702l-5.04-5.04M220.222 16.702l-5.04-5.04M216.142 16.702l-5.04-5.04M212.302 16.702l-5.04-5.04M208.222 16.702l-1.92-1.92M264.142 16.702l5.04-5.04M260.062 16.702l5.04-5.04M256.222 16.702l5.04-5.04M252.142 16.702l5.04-5.04M248.062 16.702l5.04-5.04M244.222 16.702l5.04-5.04M240.142 16.702l5.04-5.04M236.062 16.702l5.04-5.04M231.982 16.702l5.04-5.04M228.142 16.702l5.04-5.04M224.062 16.702l5.04-5.04M219.982 16.702l5.04-5.04M216.142 16.702l5.04-5.04M212.062 16.702l5.04-5.04M207.982 16.702l5.04-5.04M206.302 14.542l2.64-2.88M206.062 11.662h66.48M206.062 5.902h66.48"/><path class="cls-7" d="M206.062 1.822h66.48M206.062 16.702h59.28"/><path class="cls-10" d="M172.942 11.662l7.2 5.04h7.2V1.822h-14.4v9.84"/><path class="cls-9" d="M172.942 1.822v3.6h14.4v-3.6h-14.4"/><path class="cls-6" d="M173.182 1.822l3.6 3.6M177.262 1.822l3.6 3.6M181.342 1.822l3.6 3.6M185.182 1.822l2.4 2.16"/><path class="cls-9" d="M172.942 5.422v.48h14.4v-.48h-14.4M172.942 5.902v5.76h14.4v-5.76h-14.4"/><path class="cls-6" d="M187.342 11.662v-5.76M185.902 11.662v-5.76M184.462 11.662v-5.76M183.022 11.662v-5.76M181.582 11.662v-5.76M180.142 11.662v-5.76M178.702 11.662v-5.76M177.262 11.662v-5.76M175.822 11.662v-5.76M174.382 11.662v-5.76M173.182 11.662v-5.76"/><path class="cls-9" d="M172.942 11.662l7.2 5.04h7.2v-5.04h-14.4"/><path class="cls-6" d="M187.582 11.902l-.48-.24M187.582 15.982l-4.56-4.32M184.222 16.702l-5.04-5.04M179.902 16.462l-4.8-4.8M183.982 16.702l3.6-3.6M180.142 16.462l4.8-4.8M177.742 15.022l3.36-3.36M175.342 13.342l1.68-1.68M172.942 11.662h14.4M172.942 5.902h14.4"/><path class="cls-7" d="M172.942 1.822h14.4M180.142 16.702h7.2M187.342 11.662v5.76h18.72v-5.76M189.022 9.262v-7.44h-3.36V.142h21.84v1.68h-3.36v7.44M187.342 9.262h18.72v2.4h-18.72zM190.942 9.262v2.4M202.222 9.262v2.4M187.342 11.662v-2.4M202.222 11.662v-2.4M190.942 11.662v-2.4M206.062 11.662v-2.4M189.022 5.422h7.68"/><path class="cls-9" d="M187.258 5.893h1.843v3.401h-1.843"/><path class="cls-6" d="M188.782 9.262v-3.36M187.258 5.893h1.843v3.401h-1.843"/><path class="cls-9" d="M187.342 1.822h1.68v3.6h-1.68"/><path class="cls-6" d="M187.582 3.982l1.2 1.44"/><path class="cls-7" d="M189.022 5.422v3.84M204.142 5.422h-7.44"/><path class="cls-9" d="M205.966 5.893h-1.843v3.401h1.843"/><path class="cls-6" d="M205.582 9.262v-3.36M204.382 9.262v-3.36M205.966 5.893h-1.843v3.401h1.843"/><path class="cls-9" d="M206.062 1.822h-1.92v3.6h1.92"/><path class="cls-6" d="M204.382 4.702l.48.72M205.342 1.822l.96.96"/><path class="cls-7" d="M204.142 5.422v3.84"/><path class="cls-9" d="M219.982 216.862l-6.96 7.44h70.32l7.2-7.44h-70.56"/><path class="cls-6" d="M289.342 218.062l-1.2-1.2M287.422 220.222l-3.36-3.36M285.502 222.142l-5.52-5.28M283.582 224.302l-7.44-7.44M279.502 224.302l-7.44-7.44M275.422 224.302l-7.44-7.44M271.582 224.302l-7.44-7.44M267.502 224.302l-7.44-7.44M263.422 224.302l-7.44-7.44M259.342 224.302l-7.44-7.44M255.502 224.302l-7.44-7.44M251.422 224.302l-7.44-7.44M247.342 224.302l-7.44-7.44M243.502 224.302l-7.44-7.44M239.422 224.302l-7.44-7.44M235.342 224.302l-7.44-7.44M231.262 224.302l-7.44-7.44M227.422 224.302l-7.44-7.44M223.342 224.302l-5.28-5.28M219.262 224.302l-3.12-3.12M215.422 224.302l-1.2-1.2M280.942 224.302l7.44-7.44M277.102 224.302l7.44-7.44M273.022 224.302l7.44-7.44M268.942 224.302l7.44-7.44M265.102 224.302l7.44-7.44M261.022 224.302l7.44-7.44M256.942 224.302l7.44-7.44M252.862 224.302l7.44-7.44M249.022 224.302l7.44-7.44M244.942 224.302l7.44-7.44M240.862 224.302l7.44-7.44M237.022 224.302l7.44-7.44M232.942 224.302l7.44-7.44M228.862 224.302l7.44-7.44M225.022 224.302l7.44-7.44M220.942 224.302l7.44-7.44M216.862 224.302l7.44-7.44M216.862 220.462l3.36-3.6"/><path class="cls-9" d="M219.982 216.862l-6.96 7.44h70.32l7.2-7.44h-70.56"/><path class="cls-6" d="M289.342 218.062l-1.2-1.2M287.422 220.222l-3.36-3.36M285.502 222.142l-5.52-5.28M283.582 224.302l-7.44-7.44M279.502 224.302l-7.44-7.44M275.422 224.302l-7.44-7.44M271.582 224.302l-7.44-7.44M267.502 224.302l-7.44-7.44M263.422 224.302l-7.44-7.44M259.342 224.302l-7.44-7.44M255.502 224.302l-7.44-7.44M251.422 224.302l-7.44-7.44M247.342 224.302l-7.44-7.44M243.502 224.302l-7.44-7.44M239.422 224.302l-7.44-7.44M235.342 224.302l-7.44-7.44M231.262 224.302l-7.44-7.44M227.422 224.302l-7.44-7.44M223.342 224.302l-5.28-5.28M219.262 224.302l-3.12-3.12M215.422 224.302l-1.2-1.2M280.942 224.302l7.44-7.44M277.102 224.302l7.44-7.44M273.022 224.302l7.44-7.44M268.942 224.302l7.44-7.44M265.102 224.302l7.44-7.44M261.022 224.302l7.44-7.44M256.942 224.302l7.44-7.44M252.862 224.302l7.44-7.44M249.022 224.302l7.44-7.44M244.942 224.302l7.44-7.44M240.862 224.302l7.44-7.44M237.022 224.302l7.44-7.44M232.942 224.302l7.44-7.44M228.862 224.302l7.44-7.44M225.022 224.302l7.44-7.44M220.942 224.302l7.44-7.44M216.862 224.302l7.44-7.44M216.862 220.462l3.36-3.6"/><path class="cls-7" d="M265.342 55.822h-34.08M265.342 63.502h-34.08M265.342 71.182h-34.08M265.342 78.862h-34.08M265.342 86.542h-34.08M265.342 94.222h-34.08M265.342 101.902h-34.08M265.342 109.582h-34.08M180.142 109.582h33.84M180.142 101.902h33.84M180.142 94.222h33.84M180.142 86.542h33.84M180.142 78.862h33.84M180.142 71.182h33.84M180.142 63.502h33.84M180.142 55.822h33.84M265.342 75.022l-35.52 7.92M215.422 51.982h14.4v61.44h-14.4z"/><path class="cls-7" d="M213.982 50.782h17.28v64.08h-17.28zM252.382 59.902h-7.92M248.302 55.822l4.08 4.08M244.462 59.902l3.84-4.08M252.382 82.942h-7.92M248.302 78.862l4.08 4.08M244.462 82.942l3.84-4.08M193.102 105.502h7.92M196.942 109.582l-3.84-4.08M201.022 105.502l-4.08 4.08"/><path class="cls-9" d="M178.702 203.182l-4.32-3.6v101.76h4.32v-98.16"/><path class="cls-6" d="M174.622 200.302l.24-.48M174.622 204.382l2.64-2.64M174.622 208.702l4.32-4.32M174.622 213.022l4.32-4.32M174.622 217.102l4.32-4.32M174.622 221.422l4.32-4.32M174.622 225.742l4.32-4.32M174.622 230.062l4.32-4.32M174.622 234.142l4.32-4.32M174.622 238.462l4.32-4.32M174.622 242.782l4.32-4.32M174.622 246.862l4.32-4.32M174.622 251.182l4.32-4.32M174.622 255.502l4.32-4.32M174.622 259.822l4.32-4.32M174.622 263.902l4.32-4.32M174.622 268.222l4.32-4.32M174.622 272.542l4.32-4.32M174.622 276.622l4.32-4.32M174.622 280.942l4.32-4.32M174.622 285.262l4.32-4.32M174.622 289.582l4.32-4.32M174.622 293.662l4.32-4.32M174.622 297.982l4.32-4.32M175.342 301.342l3.6-3.36"/><path class="cls-9" d="M178.702 203.182l-4.32-3.6v101.76h4.32v-98.16"/><path class="cls-6" d="M174.622 200.302l.24-.48M174.622 204.382l2.64-2.64M174.622 208.702l4.32-4.32M174.622 213.022l4.32-4.32M174.622 217.102l4.32-4.32M174.622 221.422l4.32-4.32M174.622 225.742l4.32-4.32M174.622 230.062l4.32-4.32M174.622 234.142l4.32-4.32M174.622 238.462l4.32-4.32M174.622 242.782l4.32-4.32M174.622 246.862l4.32-4.32M174.622 251.182l4.32-4.32M174.622 255.502l4.32-4.32M174.622 259.822l4.32-4.32M174.622 263.902l4.32-4.32M174.622 268.222l4.32-4.32M174.622 272.542l4.32-4.32M174.622 276.622l4.32-4.32M174.622 280.942l4.32-4.32M174.622 285.262l4.32-4.32M174.622 289.582l4.32-4.32M174.622 293.662l4.32-4.32M174.622 297.982l4.32-4.32M175.342 301.342l3.6-3.36"/><path class="cls-7" d="M178.702 325.582h-4.32M178.702 303.022h-4.32"/><path class="cls-6" d="M178.61 325.642c12.442 0 22.678-10.239 22.678-22.678M178.702 303.022h22.56"/><path class="cls-9" d="M174.142 157.102h-174l7.2 7.2h166.8v-7.2"/><path class="cls-6" d="M174.382 159.262l-2.16-2.16M174.382 163.102l-6.24-6M171.262 164.302l-7.2-7.2M167.422 164.302l-7.2-7.2M163.342 164.302l-7.2-7.2M159.262 164.302l-7.2-7.2M155.422 164.302l-7.2-7.2M151.342 164.302l-7.2-7.2M147.262 164.302l-7.2-7.2M143.422 164.302l-7.2-7.2M139.342 164.302l-7.2-7.2M135.262 164.302l-7.2-7.2M131.182 164.302l-7.2-7.2M127.342 164.302l-7.2-7.2M123.262 164.302l-7.2-7.2M119.182 164.302l-7.2-7.2M115.342 164.302l-7.2-7.2M111.262 164.302l-7.2-7.2M107.182 164.302l-7.2-7.2M103.342 164.302l-7.2-7.2M99.262 164.302l-7.2-7.2M95.182 164.302l-7.2-7.2M91.102 164.302l-7.2-7.2M87.262 164.302l-7.2-7.2M83.182 164.302l-7.2-7.2M79.102 164.302l-7.2-7.2M75.262 164.302l-7.2-7.2M71.182 164.302l-7.2-7.2M67.102 164.302l-7.2-7.2M63.262 164.302l-7.2-7.2M59.182 164.302l-7.2-7.2M55.102 164.302l-7.2-7.2M51.022 164.302l-7.2-7.2M47.182 164.302l-7.2-7.2M43.102 164.302l-7.2-7.2M39.022 164.302l-7.2-7.2M35.182 164.302l-7.2-7.2M31.102 164.302l-7.2-7.2M27.022 164.302l-7.2-7.2M22.942 164.302l-7.2-7.2M19.102 164.302l-7.2-7.2M15.022 164.302l-7.2-7.2M10.942 164.302l-7.2-7.2M172.702 164.302l1.68-1.68M168.622 164.302l5.76-5.52M164.542 164.302l7.2-7.2M160.702 164.302l7.2-7.2M156.622 164.302l7.2-7.2M152.542 164.302l7.2-7.2M148.702 164.302l7.2-7.2M144.622 164.302l7.2-7.2M140.542 164.302l7.2-7.2M136.702 164.302l7.2-7.2M132.622 164.302l7.2-7.2M128.542 164.302l7.2-7.2M124.462 164.302l7.2-7.2M120.622 164.302l7.2-7.2M116.542 164.302l7.2-7.2M112.462 164.302l7.2-7.2M108.622 164.302l7.2-7.2M104.542 164.302l7.2-7.2M100.462 164.302l7.2-7.2M96.622 164.302l7.2-7.2M92.542 164.302l7.2-7.2M88.462 164.302l7.2-7.2M84.382 164.302l7.2-7.2M80.542 164.302l7.2-7.2M76.462 164.302l7.2-7.2M72.382 164.302l7.2-7.2M68.542 164.302l7.2-7.2M64.462 164.302l7.2-7.2M60.382 164.302l7.2-7.2M56.302 164.302l7.2-7.2M52.462 164.302l7.2-7.2M48.382 164.302l7.2-7.2M44.302 164.302l7.2-7.2M40.462 164.302l7.2-7.2M36.382 164.302l7.2-7.2M32.302 164.302l7.2-7.2M28.462 164.302l7.2-7.2M24.382 164.302l7.2-7.2M20.302 164.302l7.2-7.2M16.222 164.302l7.2-7.2M12.382 164.302l7.2-7.2M8.302 164.302l7.2-7.2M5.902 162.622l5.52-5.52M3.982 160.702l3.6-3.6M1.822 158.782l1.68-1.68"/><path class="cls-9" d="M174.142 157.102h-174l7.2 7.2h166.8v-7.2"/><path class="cls-6" d="M174.382 159.262l-2.16-2.16M174.382 163.102l-6.24-6M171.262 164.302l-7.2-7.2M167.422 164.302l-7.2-7.2M163.342 164.302l-7.2-7.2M159.262 164.302l-7.2-7.2M155.422 164.302l-7.2-7.2M151.342 164.302l-7.2-7.2M147.262 164.302l-7.2-7.2M143.422 164.302l-7.2-7.2M139.342 164.302l-7.2-7.2M135.262 164.302l-7.2-7.2M131.182 164.302l-7.2-7.2M127.342 164.302l-7.2-7.2M123.262 164.302l-7.2-7.2M119.182 164.302l-7.2-7.2M115.342 164.302l-7.2-7.2M111.262 164.302l-7.2-7.2M107.182 164.302l-7.2-7.2M103.342 164.302l-7.2-7.2M99.262 164.302l-7.2-7.2M95.182 164.302l-7.2-7.2M91.102 164.302l-7.2-7.2M87.262 164.302l-7.2-7.2M83.182 164.302l-7.2-7.2M79.102 164.302l-7.2-7.2M75.262 164.302l-7.2-7.2M71.182 164.302l-7.2-7.2M67.102 164.302l-7.2-7.2M63.262 164.302l-7.2-7.2M59.182 164.302l-7.2-7.2M55.102 164.302l-7.2-7.2M51.022 164.302l-7.2-7.2M47.182 164.302l-7.2-7.2M43.102 164.302l-7.2-7.2M39.022 164.302l-7.2-7.2M35.182 164.302l-7.2-7.2M31.102 164.302l-7.2-7.2M27.022 164.302l-7.2-7.2M22.942 164.302l-7.2-7.2M19.102 164.302l-7.2-7.2M15.022 164.302l-7.2-7.2M10.942 164.302l-7.2-7.2M172.702 164.302l1.68-1.68M168.622 164.302l5.76-5.52M164.542 164.302l7.2-7.2M160.702 164.302l7.2-7.2M156.622 164.302l7.2-7.2M152.542 164.302l7.2-7.2M148.702 164.302l7.2-7.2M144.622 164.302l7.2-7.2M140.542 164.302l7.2-7.2M136.702 164.302l7.2-7.2M132.622 164.302l7.2-7.2M128.542 164.302l7.2-7.2M124.462 164.302l7.2-7.2M120.622 164.302l7.2-7.2M116.542 164.302l7.2-7.2M112.462 164.302l7.2-7.2M108.622 164.302l7.2-7.2M104.542 164.302l7.2-7.2M100.462 164.302l7.2-7.2M96.622 164.302l7.2-7.2M92.542 164.302l7.2-7.2M88.462 164.302l7.2-7.2M84.382 164.302l7.2-7.2M80.542 164.302l7.2-7.2M76.462 164.302l7.2-7.2M72.382 164.302l7.2-7.2M68.542 164.302l7.2-7.2M64.462 164.302l7.2-7.2M60.382 164.302l7.2-7.2M56.302 164.302l7.2-7.2M52.462 164.302l7.2-7.2M48.382 164.302l7.2-7.2M44.302 164.302l7.2-7.2M40.462 164.302l7.2-7.2M36.382 164.302l7.2-7.2M32.302 164.302l7.2-7.2M28.462 164.302l7.2-7.2M24.382 164.302l7.2-7.2M20.302 164.302l7.2-7.2M16.222 164.302l7.2-7.2M12.382 164.302l7.2-7.2M8.302 164.302l7.2-7.2M5.902 162.622l5.52-5.52M3.982 160.702l3.6-3.6M1.822 158.782l1.68-1.68"/><path class="cls-9" d="M7.342 164.302l-7.2-7.2v175.44h7.2v-168.24"/><path class="cls-6" d="M7.582 164.782l-7.2-7.2M7.582 168.862l-7.2-7.2M7.582 172.702l-7.2-7.2M7.582 176.782l-7.2-7.2M7.582 180.862l-7.2-7.2M7.582 184.702l-7.2-7.2M7.582 188.782l-7.2-7.2M7.582 192.862l-7.2-7.2M7.582 196.702l-7.2-7.2M7.582 200.782l-7.2-7.2M7.582 204.862l-7.2-7.2M7.582 208.942l-7.2-7.2M7.582 212.782l-7.2-7.2M7.582 216.862l-7.2-7.2M7.582 220.942l-7.2-7.2M7.582 224.782l-7.2-7.2M7.582 228.862l-7.2-7.2M7.582 232.942l-7.2-7.2M7.582 236.782l-7.2-7.2M7.582 240.862l-7.2-7.2M7.582 244.942l-7.2-7.2M7.582 249.022l-7.2-7.2M7.582 252.862l-7.2-7.2M7.582 256.942l-7.2-7.2M7.582 261.022l-7.2-7.2M7.582 264.862l-7.2-7.2M7.582 268.942l-7.2-7.2M7.582 273.022l-7.2-7.2M7.582 277.102l-7.2-7.2M7.582 280.942l-7.2-7.2M7.582 285.022l-7.2-7.2M7.582 289.102l-7.2-7.2M7.582 292.942l-7.2-7.2M7.582 297.022l-7.2-7.2M7.582 301.102l-7.2-7.2M7.582 304.942l-7.2-7.2M7.582 309.022l-7.2-7.2M7.582 313.102l-7.2-7.2M7.582 317.182l-7.2-7.2M7.582 321.022l-7.2-7.2M7.582 325.102l-7.2-7.2M7.582 329.182l-7.2-7.2M6.862 332.542l-6.48-6.72M2.782 332.542l-2.4-2.64M4.462 332.542l3.12-3.12M.382 332.542l7.2-6.96M.382 328.702l7.2-7.2M.382 324.622l7.2-7.2M.382 320.782l7.2-7.2M.382 316.702l7.2-7.2M.382 312.622l7.2-7.2M.382 308.542l7.2-7.2M.382 304.702l7.2-7.2M.382 300.622l7.2-7.2M.382 296.542l7.2-7.2M.382 292.702l7.2-7.2M.382 288.622l7.2-7.2M.382 284.542l7.2-7.2M.382 280.702l7.2-7.2M.382 276.622l7.2-7.2M.382 272.542l7.2-7.2M.382 268.462l7.2-7.2M.382 264.622l7.2-7.2M.382 260.542l7.2-7.2M.382 256.462l7.2-7.2M.382 252.622l7.2-7.2M.382 248.542l7.2-7.2M.382 244.462l7.2-7.2M.382 240.622l7.2-7.2M.382 236.542l7.2-7.2M.382 232.462l7.2-7.2M.382 228.382l7.2-7.2M.382 224.542l7.2-7.2M.382 220.462l7.2-7.2M.382 216.382l7.2-7.2M.382 212.542l7.2-7.2M.382 208.462l7.2-7.2M.382 204.382l7.2-7.2M.382 200.302l7.2-7.2M.382 196.462l7.2-7.2M.382 192.382l7.2-7.2M.382 188.302l7.2-7.2M.382 184.462l7.2-7.2M.382 180.382l7.2-7.2M.382 176.302l7.2-7.2M.382 172.462l7.2-7.2M.382 168.382l5.52-5.76M.382 164.302l3.6-3.6M.382 160.222l1.44-1.44"/><path class="cls-9" d="M7.342 164.302l-7.2-7.2v175.44h7.2v-168.24"/><path class="cls-6" d="M7.582 164.782l-7.2-7.2M7.582 168.862l-7.2-7.2M7.582 172.702l-7.2-7.2M7.582 176.782l-7.2-7.2M7.582 180.862l-7.2-7.2M7.582 184.702l-7.2-7.2M7.582 188.782l-7.2-7.2M7.582 192.862l-7.2-7.2M7.582 196.702l-7.2-7.2M7.582 200.782l-7.2-7.2M7.582 204.862l-7.2-7.2M7.582 208.942l-7.2-7.2M7.582 212.782l-7.2-7.2M7.582 216.862l-7.2-7.2M7.582 220.942l-7.2-7.2M7.582 224.782l-7.2-7.2M7.582 228.862l-7.2-7.2M7.582 232.942l-7.2-7.2M7.582 236.782l-7.2-7.2M7.582 240.862l-7.2-7.2M7.582 244.942l-7.2-7.2M7.582 249.022l-7.2-7.2M7.582 252.862l-7.2-7.2M7.582 256.942l-7.2-7.2M7.582 261.022l-7.2-7.2M7.582 264.862l-7.2-7.2M7.582 268.942l-7.2-7.2M7.582 273.022l-7.2-7.2M7.582 277.102l-7.2-7.2M7.582 280.942l-7.2-7.2M7.582 285.022l-7.2-7.2M7.582 289.102l-7.2-7.2M7.582 292.942l-7.2-7.2M7.582 297.022l-7.2-7.2M7.582 301.102l-7.2-7.2M7.582 304.942l-7.2-7.2M7.582 309.022l-7.2-7.2M7.582 313.102l-7.2-7.2M7.582 317.182l-7.2-7.2M7.582 321.022l-7.2-7.2M7.582 325.102l-7.2-7.2M7.582 329.182l-7.2-7.2M6.862 332.542l-6.48-6.72M2.782 332.542l-2.4-2.64M4.462 332.542l3.12-3.12M.382 332.542l7.2-6.96M.382 328.702l7.2-7.2M.382 324.622l7.2-7.2M.382 320.782l7.2-7.2M.382 316.702l7.2-7.2M.382 312.622l7.2-7.2M.382 308.542l7.2-7.2M.382 304.702l7.2-7.2M.382 300.622l7.2-7.2M.382 296.542l7.2-7.2M.382 292.702l7.2-7.2M.382 288.622l7.2-7.2M.382 284.542l7.2-7.2M.382 280.702l7.2-7.2M.382 276.622l7.2-7.2M.382 272.542l7.2-7.2M.382 268.462l7.2-7.2M.382 264.622l7.2-7.2M.382 260.542l7.2-7.2M.382 256.462l7.2-7.2M.382 252.622l7.2-7.2M.382 248.542l7.2-7.2M.382 244.462l7.2-7.2M.382 240.622l7.2-7.2M.382 236.542l7.2-7.2M.382 232.462l7.2-7.2M.382 228.382l7.2-7.2M.382 224.542l7.2-7.2M.382 220.462l7.2-7.2M.382 216.382l7.2-7.2M.382 212.542l7.2-7.2M.382 208.462l7.2-7.2M.382 204.382l7.2-7.2M.382 200.302l7.2-7.2M.382 196.462l7.2-7.2M.382 192.382l7.2-7.2M.382 188.302l7.2-7.2M.382 184.462l7.2-7.2M.382 180.382l7.2-7.2M.382 176.302l7.2-7.2M.382 172.462l7.2-7.2M.382 168.382l5.52-5.76M.382 164.302l3.6-3.6M.382 160.222l1.44-1.44"/><path class="cls-9" d="M92.782 168.382h-4.32v-4.08h4.32v4.08"/><path class="cls-6" d="M88.702 167.182l2.64-2.88M91.582 168.382l1.44-1.2"/><path class="cls-9" d="M88.462 168.382h4.32v-4.08h-4.32v4.08"/><path class="cls-6" d="M88.702 167.182l2.64-2.88M91.582 168.382l1.44-1.2"/><path class="cls-9" d="M92.782 222.142h-4.32v-28.56h4.32v28.56"/><path class="cls-6" d="M88.702 196.942l3.12-3.36M88.702 201.022l4.32-4.32M88.702 205.342l4.32-4.32M88.702 209.662l4.32-4.32M88.702 213.982l4.32-4.32M88.702 218.062l4.32-4.32M88.942 222.142l4.08-4.08"/><path class="cls-9" d="M88.462 222.142h4.32v-28.56h-4.32v28.56"/><path class="cls-6" d="M88.702 196.942l3.12-3.36M88.702 201.022l4.32-4.32M88.702 205.342l4.32-4.32M88.702 209.662l4.32-4.32M88.702 213.982l4.32-4.32M88.702 218.062l4.32-4.32M88.942 222.142l4.08-4.08"/><path class="cls-1" d="M92.782 193.582v-25.2M88.462 193.582v-25.2"/><path class="cls-7" d="M92.782 192.382h-4.32M92.782 169.822h-4.32"/><path class="cls-6" d="M65.794 169.735c0 12.44 10.236 22.678 22.675 22.678M88.462 169.822h-22.56"/><path class="cls-9" d="M119.902 217.822l-3.6 4.32h58.08v-4.32h-54.48"/><path class="cls-6" d="M118.462 222.142l4.32-4.32M122.782 222.142l4.32-4.32M127.102 222.142l4.32-4.32M131.422 222.142l4.32-4.32M135.502 222.142l4.32-4.32M139.822 222.142l4.32-4.32M144.142 222.142l4.32-4.32M148.222 222.142l4.32-4.32M152.542 222.142l4.32-4.32M156.862 222.142l4.32-4.32M161.182 222.142l4.32-4.32M165.262 222.142l4.32-4.32M169.582 222.142l4.32-4.32M173.902 222.142l.72-.72"/><path class="cls-9" d="M119.902 217.822l-3.6 4.32h58.08v-4.32h-54.48"/><path class="cls-6" d="M118.462 222.142l4.32-4.32M122.782 222.142l4.32-4.32M127.102 222.142l4.32-4.32M131.422 222.142l4.32-4.32M135.502 222.142l4.32-4.32M139.822 222.142l4.32-4.32M144.142 222.142l4.32-4.32M148.222 222.142l4.32-4.32M152.542 222.142l4.32-4.32M156.862 222.142l4.32-4.32M161.182 222.142l4.32-4.32M165.262 222.142l4.32-4.32M169.582 222.142l4.32-4.32M173.902 222.142l.72-.72"/><path class="cls-9" d="M174.382 199.582l4.32 3.6h34.32v-3.6h-38.64"/><path class="cls-6" d="M174.862 199.822l.24-.24M177.262 201.742l2.16-2.16M180.142 203.182l3.6-3.6M184.222 203.182l3.6-3.6M188.542 203.182l3.6-3.6M192.862 203.182l3.6-3.6M196.942 203.182l3.6-3.6M201.262 203.182l3.6-3.6M205.582 203.182l3.6-3.6M209.902 203.182l3.36-3.36"/><path class="cls-9" d="M174.382 199.582l4.32 3.6h34.32v-3.6h-38.64"/><path class="cls-6" d="M174.862 199.822l.24-.24M177.262 201.742l2.16-2.16M180.142 203.182l3.6-3.6M184.222 203.182l3.6-3.6M188.542 203.182l3.6-3.6M192.862 203.182l3.6-3.6M196.942 203.182l3.6-3.6M201.262 203.182l3.6-3.6M205.582 203.182l3.6-3.6M209.902 203.182l3.36-3.36"/><path class="cls-7" d="M180.142 224.062h15.6v.72h-15.6zM180.142 207.742h.48v16.32h-.48zM180.142 207.262h31.2v.48h-31.2zM195.742 224.062h15.6v.72h-15.6zM210.862 207.742h.48v16.32h-.48zM211.342 224.062h1.2v.72h-1.2zM178.942 224.062h1.2v.72h-1.2z"/><path class="cls-9" d="M125.662 199.582h-9.36l3.6 3.6h5.76v-3.6"/><path class="cls-6" d="M118.222 201.262l1.68-1.68M120.622 203.182l3.6-3.6M124.702 203.182l1.2-.96"/><path class="cls-9" d="M125.662 199.582h-9.36l3.6 3.6h5.76v-3.6"/><path class="cls-6" d="M118.222 201.262l1.68-1.68M120.622 203.182l3.6-3.6M124.702 203.182l1.2-.96"/><path class="cls-9" d="M174.382 203.182v-3.6h-11.76v3.6h11.76"/><path class="cls-6" d="M163.102 203.182l3.6-3.6M167.182 203.182l3.6-3.6M171.502 203.182l3.12-2.88"/><path class="cls-9" d="M174.382 203.182v-3.6h-11.76v3.6h11.76"/><path class="cls-6" d="M163.102 203.182l3.6-3.6M167.182 203.182l3.6-3.6M171.502 203.182l3.12-2.88"/><path class="cls-9" d="M116.302 222.142l3.6-4.32v-14.64l-3.6-3.6v22.56"/><path class="cls-6" d="M116.542 202.942l1.68-1.68M116.542 207.262l3.6-3.6M116.542 211.582l3.6-3.6M116.542 215.902l3.6-3.6M116.542 219.982l3.6-3.6"/><path class="cls-9" d="M116.302 222.142l3.6-4.32v-14.64l-3.6-3.6v22.56"/><path class="cls-6" d="M116.542 202.942l1.68-1.68M116.542 207.262l3.6-3.6M116.542 211.582l3.6-3.6M116.542 215.902l3.6-3.6M116.542 219.982l3.6-3.6"/><path class="cls-7" d="M144.142 199.102h17.04v.72h-17.04zM160.702 199.822h.48v15.36h-.48zM144.142 199.822h.48v15.36h-.48zM161.182 199.102h1.2v.72h-1.2z"/><path class="cls-7" d="M144.142 215.182h17.04v.48h-17.04zM127.102 199.102h17.04v.72h-17.04zM143.662 199.822h.48v15.36h-.48zM127.102 199.822h.72v15.36h-.72z"/><path class="cls-7" d="M127.102 215.182h17.04v.48h-17.04zM126.142 199.102h.96v.72h-.96z"/><path class="cls-8" d="M125.182 203.662h2.64v10.08h-2.64z"/><path class="cls-7" d="M125.182 203.662h2.64v10.08h-2.64zM127.822 203.422v10.56-10.56z"/><path class="cls-5" d="M127.822 213.022h8.64"/><path class="cls-3" d="M127.822 204.382l1.68.24 1.68.48 1.44.72 1.2 1.2 1.2 1.2.72 1.44.48 1.68.24 1.68"/><path class="cls-9" d="M272.542 162.142l-7.2-7.2h-9.6v7.2h16.8"/><path class="cls-6" d="M269.422 162.142l-7.2-7.2M265.342 162.142l-7.2-7.2M261.502 162.142l-5.52-5.52M257.422 162.142l-1.44-1.44M271.102 162.142l.72-.72M267.022 162.142l2.88-2.88M262.942 162.142l4.8-4.8M259.102 162.142l6.72-6.72M255.982 161.182l6.24-6.24M255.982 157.342l2.16-2.4"/><path class="cls-9" d="M272.542 162.142l-7.2-7.2h-9.6v7.2h16.8"/><path class="cls-6" d="M269.422 162.142l-7.2-7.2M265.342 162.142l-7.2-7.2M261.502 162.142l-5.52-5.52M257.422 162.142l-1.44-1.44M271.102 162.142l.72-.72M267.022 162.142l2.88-2.88M262.942 162.142l4.8-4.8M259.102 162.142l6.72-6.72M255.982 161.182l6.24-6.24M255.982 157.342l2.16-2.4"/><path class="cls-7" d="M223.102 160.702h29.52"/><path class="cls-1" d="M223.102 154.942h29.52"/><path class="cls-7" d="M252.142 154.942h.48"/><path class="cls-9" d="M219.982 154.942h3.12v5.76h-3.12"/><path class="cls-6" d="M223.342 155.902l-1.2-.96M223.342 159.982l-3.12-3.12M220.462 160.702l2.88-2.88M220.222 156.862l1.92-1.92"/><path class="cls-9" d="M255.742 154.942h-3.12v5.76h3.12"/><path class="cls-6" d="M255.982 156.622l-1.68-1.68M255.982 160.702l-3.12-3.12M252.862 160.462l3.12-3.12M252.862 156.382l1.44-1.44"/><path class="cls-7" d="M89.902 342.142l7.2 40.8h81.12l7.2-40.8"/><path class="cls-7" d="M88.222 342.142l7.44 42.48h83.76l7.68-42.48"/><path class="cls-6" d="M45.526 332.44c0-.62.03-1.24.093-1.86.06-.616.152-1.23.274-1.84.122-.61.274-1.212.454-1.807a19.5 19.5 0 0 1 .628-1.752c.24-.576.504-1.138.8-1.685.292-.55.612-1.082.957-1.598a19.18 19.18 0 0 1 2.362-2.878c.441-.44.9-.857 1.382-1.253a18.89 18.89 0 0 1 3.094-2.069 18.908 18.908 0 0 1 8.945-2.25M64.462 313.342v19.2M45.502 332.542v-1.44M45.502 329.662l-.24-.96M45.262 328.702l-.24-.48M44.782 327.022l-.72-1.92M43.822 324.382l-.48-.96M43.342 323.422l-.24-.24M42.382 321.982l-1.2-1.68M40.462 319.582l-.48-.48M39.982 319.102l-.48-.48M38.542 317.662l-1.44-.96M36.142 316.222l-.72-.48M35.422 315.742l-.48-.24M33.742 315.022l-1.68-.72M30.862 314.062l-.72-.24M30.142 313.822h-.72M28.462 313.582l-1.92-.24"/><path class="cls-3" d="M26.542 313.342v19.2"/><path class="cls-6" d="M26.542 332.062v.48M237.103 332.44c0-.62-.03-1.24-.093-1.86a19.13 19.13 0 0 0-1.359-5.4 19.267 19.267 0 0 0-1.757-3.283 19.3 19.3 0 0 0-1.11-1.494 19.499 19.499 0 0 0-2.633-2.633 19.805 19.805 0 0 0-1.498-1.111 18.893 18.893 0 0 0-3.28-1.754c-.577-.24-1.16-.45-1.755-.632a19.123 19.123 0 0 0-5.508-.82M218.062 313.342v19.2M237.022 332.542l.24-1.44M237.262 329.662l.24-.96M237.502 328.702l.24-.48M237.982 327.022l.48-1.92M238.942 324.142l.48-.72M239.422 323.422l.24-.48M240.382 321.982l.96-1.68M242.302 319.582l.48-.48M242.782 319.102l.48-.48M243.982 317.662l1.68-.96M246.622 315.982l.48-.24M247.102 315.742l.72-.48M248.782 314.782l1.92-.48M251.902 314.062l.48-.24M252.382 313.822h.96M254.782 313.582l1.2-.24"/><path class="cls-3" d="M255.982 313.342v19.2"/><path class="cls-6" d="M255.982 332.062v.48M127.73 332.44c-.002-11.04-9.088-20.123-20.128-20.123M107.662 312.382v20.16"/><path class="cls-3" d="M127.822 332.542l.24-4.08 1.2-3.84 1.92-3.36 2.4-3.12 3.12-2.4 3.36-1.92 3.84-1.2 3.84-.24M147.742 312.382v20.16"/><path class="cls-7" d="M141.502 182.062v.72M141.502 182.782l-.24.72M141.262 183.502l-.24.96M141.022 184.462v.24M140.542 186.142l-.24.24M139.582 187.342l-.48.72M139.102 188.062l-.72.48M138.382 188.542l-.72.48M137.662 189.022l-.24.24M135.982 189.982h-.24M134.302 190.222l-.48.24M133.822 190.462h-.96M132.862 190.462h-.72M132.142 190.462l-.48-.24M130.222 189.982h-.24M128.782 189.262l-.48-.24M128.302 189.022l-.72-.48M127.582 188.542l-.72-.48M126.862 188.062l-.24-.48M125.662 186.382l-.24-.24M124.942 184.702v-.24M124.942 184.462l-.24-.96M124.702 183.502l-.24-.72M124.462 182.782v-.72M124.702 180.622v-.24M124.942 178.942l.24-.24M125.182 178.702l.24-.72M125.422 177.982l.48-.72M125.902 177.262l.48-.72M127.342 175.582l.24-.24M128.782 174.622l.24-.24M129.022 174.382l.72-.24M129.742 174.142l.72-.24M130.462 173.902l.96-.24M132.862 173.422h.24M134.542 173.662l.96.24M135.502 173.902l.72.24M136.222 174.142l.72.24M136.942 174.382l.24.24M138.382 175.342l.24.24M139.582 176.542l.48.72M140.062 177.262l.48.72M140.542 177.982l.24.72M140.782 178.702l.24.48M141.262 180.382v.24"/><path class="cls-9" d="M290.542 216.862l-7.2 7.44v108.24h7.2v-115.68"/><path class="cls-6" d="M290.782 219.502l-1.44-1.44M290.782 223.342l-3.36-3.12M290.782 227.422l-5.28-5.28M290.782 231.502l-7.2-7.2M290.782 235.582l-7.2-7.2M290.782 239.422l-7.2-7.2M290.782 243.502l-7.2-7.2M290.782 247.582l-7.2-7.2M290.782 251.422l-7.2-7.2M290.782 255.502l-7.2-7.2M290.782 259.582l-7.2-7.2M290.782 263.422l-7.2-7.2M290.782 267.502l-7.2-7.2M290.782 271.582l-7.2-7.2M290.782 275.662l-7.2-7.2M290.782 279.502l-7.2-7.2M290.782 283.582l-7.2-7.2M290.782 287.662l-7.2-7.2M290.782 291.502l-7.2-7.2M290.782 295.582l-7.2-7.2M290.782 299.662l-7.2-7.2M290.782 303.742l-7.2-7.2M290.782 307.582l-7.2-7.2M290.782 311.662l-7.2-7.2M290.782 315.742l-7.2-7.2M290.782 319.582l-7.2-7.2M290.782 323.662l-7.2-7.2M290.782 327.742l-7.2-7.2M290.782 331.582l-7.2-7.2M287.422 332.542l-3.84-4.08M289.102 332.542l1.68-1.68M285.022 332.542l5.76-5.52M283.582 330.142l7.2-7.2M283.582 326.062l7.2-7.2M283.582 321.982l7.2-7.2M283.582 318.142l7.2-7.2M283.582 314.062l7.2-7.2M283.582 309.982l7.2-7.2M283.582 306.142l7.2-7.2M283.582 302.062l7.2-7.2M283.582 297.982l7.2-7.2M283.582 294.142l7.2-7.2M283.582 290.062l7.2-7.2M283.582 285.982l7.2-7.2M283.582 281.902l7.2-7.2M283.582 278.062l7.2-7.2M283.582 273.982l7.2-7.2M283.582 269.902l7.2-7.2M283.582 266.062l7.2-7.2M283.582 261.982l7.2-7.2M283.582 257.902l7.2-7.2M283.582 254.062l7.2-7.2M283.582 249.982l7.2-7.2M283.582 245.902l7.2-7.2M283.582 241.822l7.2-7.2M283.582 237.982l7.2-7.2M283.582 233.902l7.2-7.2M283.582 229.822l7.2-7.2M283.582 225.982l7.2-7.2"/><path class="cls-9" d="M290.542 216.862l-7.2 7.44v108.24h7.2v-115.68"/><path class="cls-6" d="M290.782 219.502l-1.44-1.44M290.782 223.342l-3.36-3.12M290.782 227.422l-5.28-5.28M290.782 231.502l-7.2-7.2M290.782 235.582l-7.2-7.2M290.782 239.422l-7.2-7.2M290.782 243.502l-7.2-7.2M290.782 247.582l-7.2-7.2M290.782 251.422l-7.2-7.2M290.782 255.502l-7.2-7.2M290.782 259.582l-7.2-7.2M290.782 263.422l-7.2-7.2M290.782 267.502l-7.2-7.2M290.782 271.582l-7.2-7.2M290.782 275.662l-7.2-7.2M290.782 279.502l-7.2-7.2M290.782 283.582l-7.2-7.2M290.782 287.662l-7.2-7.2M290.782 291.502l-7.2-7.2M290.782 295.582l-7.2-7.2M290.782 299.662l-7.2-7.2M290.782 303.742l-7.2-7.2M290.782 307.582l-7.2-7.2M290.782 311.662l-7.2-7.2M290.782 315.742l-7.2-7.2M290.782 319.582l-7.2-7.2M290.782 323.662l-7.2-7.2M290.782 327.742l-7.2-7.2M290.782 331.582l-7.2-7.2M287.422 332.542l-3.84-4.08M289.102 332.542l1.68-1.68M285.022 332.542l5.76-5.52M283.582 330.142l7.2-7.2M283.582 326.062l7.2-7.2M283.582 321.982l7.2-7.2M283.582 318.142l7.2-7.2M283.582 314.062l7.2-7.2M283.582 309.982l7.2-7.2M283.582 306.142l7.2-7.2M283.582 302.062l7.2-7.2M283.582 297.982l7.2-7.2M283.582 294.142l7.2-7.2M283.582 290.062l7.2-7.2M283.582 285.982l7.2-7.2M283.582 281.902l7.2-7.2M283.582 278.062l7.2-7.2M283.582 273.982l7.2-7.2M283.582 269.902l7.2-7.2M283.582 266.062l7.2-7.2M283.582 261.982l7.2-7.2M283.582 257.902l7.2-7.2M283.582 254.062l7.2-7.2M283.582 249.982l7.2-7.2M283.582 245.902l7.2-7.2M283.582 241.822l7.2-7.2M283.582 237.982l7.2-7.2M283.582 233.902l7.2-7.2M283.582 229.822l7.2-7.2M283.582 225.982l7.2-7.2"/><path class="cls-9" d="M35.422 172.942h27.12v18.24h-27.12v-18.24"/><g><path class="cls-7" d="M272.542 216.862v-54.72M265.342 216.862v-54.72M265.342 216.862v-54.72M272.542 216.862v-54.72M272.542 122.302v-105.6M265.342 122.302v-105.6M265.342 122.302v-105.6M272.542 122.302v-105.6M272.542 162.142v-4.08M272.542 162.142v-4.08M272.542 16.702v-5.04M265.342 152.302h6M265.342 124.462h6M265.342 152.302h6M265.342 158.062v-5.76M265.342 124.462h6M265.342 122.302v2.16M272.542 158.062h-1.2M272.542 122.302h-1.2M265.342 158.062v-5.76M265.342 122.302v2.16M271.342 152.302v5.76M271.342 124.462v-2.16M172.942 157.102v7.2M180.142 157.102v-2.16M180.142 157.102v-2.16M172.942 157.102v7.2M172.942 16.702v108M180.142 16.702v108M180.142 16.702v108M172.942 16.702v108M172.942 11.662v5.04M180.142 124.702v2.4h-6v-2.4h-1.2M180.058 154.855h-5.955v2.268h-1.132M25.102 338.782H.142M25.102 342.142H.142M25.102 327.262H.142M25.102 332.542H.142M106.222 338.782h-40.32M106.222 342.142h-40.32M106.222 327.262h-40.32M106.222 332.542h-40.32M216.622 338.782h-47.52M216.622 342.142h-47.52M216.622 327.262h-47.52M216.622 332.542h-47.52M290.542 338.782h-32.88M290.542 342.142h-32.88M290.542 327.262h-32.88M290.542 332.542h-32.88M63.982 342.142h3.6M27.022 342.142h-3.36M65.902 332.542v-5.28M65.902 342.142h-1.92v-3.36h1.92M25.102 332.542v-5.28M25.102 342.142h1.92v-3.36h-1.92M169.102 332.542v-5.28M169.102 342.142h-1.92v-3.36h1.92M106.222 332.542v-5.28M106.222 342.142h1.92v-3.36h-1.92M255.742 342.142h3.36M218.542 342.142h-3.36M257.662 332.542v-5.28M257.662 342.142h-1.92v-3.36h1.92M216.622 332.542v-5.28M216.622 342.142h1.92v-3.36h-1.92M213.022 154.942h6.96M213.022 154.942h6.96M172.942 164.302h7.68M180.142 154.942h.48M180.142 154.942h.48M172.942 164.302h7.68M182.782 154.942v8.16M210.622 154.942v8.16M182.782 154.942v8.16M180.622 154.942h2.16M210.622 154.942v8.16M213.022 154.942h-2.4M180.622 164.302v-1.2M213.022 164.302v-1.2M180.622 154.942h2.16M213.022 154.942h-2.4M182.782 163.102h-2.16M210.622 163.102h2.4M219.982 216.862v-54.72M213.022 224.302v-60M213.022 224.302v-60M219.982 216.862v-54.72M206.062 5.422h66.48M206.062 1.822h66.48M206.062 16.702h59.28M206.062 11.662h66.48M172.942 5.422h14.4M172.942 1.822h14.4M180.142 16.702h7.2M172.942 11.662h14.4M189.022 1.822h-3.36M204.142 1.822h3.36M187.342 11.662v5.04M187.342 1.822h1.68v3.6h-1.68M206.062 11.662v5.04M206.062 1.822h-1.92v3.6h1.92M265.342 216.862h-45.36M290.542 216.862h-18M283.342 224.302h-70.32M283.342 224.302h-70.32M265.342 216.862h-45.36M290.542 216.862h-18M178.702 301.342v-98.16M174.382 217.822v-14.64M174.382 301.342v-79.2M174.382 217.822v-14.64M178.702 301.342v-98.16M174.382 301.342v-79.2M178.702 327.262h-4.32M178.702 327.262h-4.32M178.702 301.342h-4.32M7.342 164.302h166.8M.142 157.102h174M.142 157.102h174M7.342 164.302h166.8M7.342 220.222v-55.92M7.342 332.542v-110.16M.142 332.542v-175.44M.142 332.542v-175.44M7.342 220.222v-55.92M7.342 332.542v-110.16M7.342 332.542h-7.2M7.342 222.382v-.72M7.342 221.662v-1.44M92.782 168.382v-4.08M88.462 168.382v-4.08M92.782 164.302h-4.32M88.462 168.382v-4.08M92.782 168.382v-4.08M92.782 222.142v-28.56M88.462 222.142v-28.56M88.462 222.142v-28.56M92.782 222.142v-28.56M92.782 222.142h-4.32M92.782 193.582h-4.32M92.782 168.382h-4.32M174.382 217.822h-54.48M174.382 222.142h-58.08M174.382 222.142h-58.08M174.382 217.822h-54.48M213.022 199.582h-38.64M213.022 203.182h-34.32M213.022 203.182h-34.32M213.022 199.582h-38.64M213.022 199.582v3.6M119.902 203.182h5.76M116.302 199.582h9.36M125.662 203.182v-3.6M116.302 199.582h9.36M119.902 203.182h5.76M162.622 203.182h11.76M162.622 199.582h11.76M162.622 199.582h11.76M162.622 203.182h11.76M162.622 203.182v-3.6M116.302 199.582v22.56M119.902 203.182v14.64M119.902 203.182v14.64M116.302 199.582v22.56M255.742 162.142h9.6M255.742 154.942h9.6M255.742 154.942h9.6M255.742 162.142h9.6M223.102 154.942v5.76M252.622 154.942v5.76M223.102 154.942v5.76M219.982 154.942h3.12M252.622 154.942v5.76M255.742 154.942h-3.12M219.982 162.142v-1.44M255.742 162.142v-1.44M219.982 154.942h3.12M255.742 154.942h-3.12M223.102 160.702h-3.12M252.622 160.702h3.12M290.542 332.542v-115.68M283.342 332.542v-108.24M283.342 332.542v-108.24M290.542 332.542v-115.68M290.542 332.542h-7.2"/></g></g><g id="Mbel"><path class="cls-2" d="M82.4 284.215l6.247-6.247-8.016-8.018-6.25 6.25M54.005 296.573l-6.247 6.25m0 0l8.018 8.016 6.247-6.248M74.38 304.591l6.25 6.248 8.017-8.016-6.248-6.25M62.023 276.2l-6.247-6.25-8.018 8.018m0 0l6.247 6.247"/><path class="cls-2" d="M82.462 290.302c0-7.77-6.391-14.16-14.16-14.16s-14.16 6.39-14.16 14.16 6.39 14.16 14.16 14.16 14.16-6.391 14.16-14.16M225.022 261.262h56.88v45.36h-56.88zM225.022 225.742h56.88v15.6h-56.88zM123.262 249.022h14.16v28.32h-14.16zM168.408 236.491h-18.71a.777.777 0 0 0-.166.017.884.884 0 0 0-.434.233.883.883 0 0 0-.25.6v24.946c0 .055.005.11.017.165a.772.772 0 0 0 .127.307.888.888 0 0 0 .233.236c.048.028.096.055.149.076.05.022.103.039.158.048.055.012.11.017.166.017h18.71v-26.645"/><path class="cls-2" d="M172.092 231.955h-22.394a.866.866 0 0 0-.6.25.691.691 0 0 0-.106.13.778.778 0 0 0-.127.304.783.783 0 0 0-.017.168v2.835c0 .055.005.11.017.165a.777.777 0 0 0 .127.305.69.69 0 0 0 .106.13.88.88 0 0 0 .6.25h22.394a.852.852 0 0 0 .785-.526.84.84 0 0 0 .065-.324v-2.835a.843.843 0 0 0-.25-.602.851.851 0 0 0-.6-.25M168.408 263.136h3.684a.953.953 0 0 1 .326.065.896.896 0 0 1 .382.314c.029.046.055.096.077.147.022.05.038.105.048.16a.746.746 0 0 1 .017.166v24.943a.842.842 0 0 1-.25.603.822.822 0 0 1-.273.185.899.899 0 0 1-.327.064h-3.684M166.222 289.822v-53.28"/><path class="cls-2" d="M168.408 289.783h-18.71a.864.864 0 0 1-.6-.25.889.889 0 0 1-.185-.275.771.771 0 0 1-.048-.161.746.746 0 0 1-.017-.166v-24.943c0-.057.005-.113.017-.165a.86.86 0 0 1 .833-.686h18.71v26.646"/><path class="cls-2" d="M172.092 294.317h-22.394a.967.967 0 0 1-.166-.014.869.869 0 0 1-.158-.05.728.728 0 0 1-.276-.183.887.887 0 0 1-.185-.276.771.771 0 0 1-.048-.161.776.776 0 0 1-.017-.166v-2.834c0-.055.005-.11.017-.166a.772.772 0 0 1 .127-.307.888.888 0 0 1 .233-.235.87.87 0 0 1 .149-.077.866.866 0 0 1 .158-.05.964.964 0 0 1 .166-.015h22.394a.852.852 0 0 1 .785.524.842.842 0 0 1 .065.326v2.834a.843.843 0 0 1-.25.603.851.851 0 0 1-.6.247M168.408 263.136h3.684a.852.852 0 0 0 .785-.523.851.851 0 0 0 .065-.326V237.34a.84.84 0 0 0-.25-.6.851.851 0 0 0-.6-.25h-3.684"/></g><g id="Text"><path d="M51.226 239.514h-.671v-5.333h.67v2.455l2.072-2.455h.808l-2.223 2.639 2.223 2.694h-.856l-2.023-2.463v2.463zM58.243 237.683c0 1.08-.83 1.92-1.886 1.92-1.096 0-1.864-.8-1.864-1.936 0-1.143.768-1.927 1.888-1.927 1.087 0 1.862.808 1.862 1.943zm-3.126-.007c0 .815.504 1.367 1.255 1.367.728 0 1.248-.568 1.248-1.367 0-.824-.496-1.376-1.239-1.376-.76 0-1.264.552-1.264 1.376zM62.256 239.059c-.416.375-.824.543-1.36.543-1.055 0-1.807-.799-1.807-1.919 0-1.143.76-1.943 1.839-1.943.528 0 .96.176 1.344.552l-.392.392c-.28-.256-.592-.384-.935-.384-.728 0-1.232.56-1.232 1.36 0 .815.504 1.383 1.224 1.383.36 0 .647-.12.943-.4l.376.416zM63.798 236.34c.335-.415.671-.6 1.111-.6.32 0 .656.128.856.336.2.2.287.488.287.96v2.478h-.607v-2.446c0-.504-.248-.784-.688-.784a.94.94 0 0 0-.72.328c-.183.208-.239.392-.239.744v2.158h-.608v-5.333h.608v2.16zM67.78 237.867c.032.312.088.472.24.672.24.328.592.504.991.504.456 0 .888-.248 1.103-.632l.537.2c-.304.615-.936.991-1.64.991-1.095 0-1.879-.8-1.879-1.919 0-1.135.775-1.943 1.856-1.943 1.07 0 1.87.808 1.87 1.888 0 .048 0 .152-.007.24h-3.07zm2.43-.447c-.023-.288-.079-.448-.207-.632a1.268 1.268 0 0 0-1.015-.504c-.409 0-.776.192-.992.512-.112.176-.16.328-.208.624h2.422zM72.532 235.828v.52c.32-.432.641-.608 1.096-.608.336 0 .64.112.856.304.232.224.312.48.312.984v2.486h-.608v-2.35c0-.328-.04-.504-.136-.632-.111-.152-.328-.248-.575-.248a.916.916 0 0 0-.704.312c-.176.192-.24.368-.24.672v2.246h-.608v-3.686h.607zM76.077 240.786l-.44-.136.672-1.943.576.184-.808 1.895zM81.212 236.54h2.103v.576h-2.103v1.823h2.103v.575H80.54v-5.333h2.775v.576h-2.103v1.783zM86.24 236.836v-.04c0-.344-.28-.56-.704-.56-.408 0-.664.208-.664.528s.16.44.824.623c.471.128.72.248.895.424.185.184.296.448.296.72 0 .64-.527 1.071-1.31 1.071-.84 0-1.312-.391-1.377-1.135h.6c.04.416.313.64.776.64.415 0 .688-.216.688-.544 0-.32-.208-.48-.84-.64-.8-.216-1.16-.551-1.16-1.111 0-.64.52-1.072 1.296-1.072.784 0 1.256.4 1.287 1.096h-.608zM89.783 236.836v-.04c0-.344-.279-.56-.703-.56-.408 0-.664.208-.664.528s.16.44.823.623c.473.128.72.248.896.424.185.184.296.448.296.72 0 .64-.527 1.071-1.31 1.071-.84 0-1.312-.391-1.377-1.135h.6c.04.416.312.64.776.64.415 0 .688-.216.688-.544 0-.32-.208-.48-.84-.64-.8-.216-1.16-.551-1.16-1.111 0-.64.52-1.072 1.296-1.072.784 0 1.256.4 1.287 1.096h-.608zM91.925 237.867c.032.312.089.472.24.672.24.328.592.504.991.504.457 0 .888-.248 1.104-.632l.536.2c-.304.615-.935.991-1.64.991-1.094 0-1.878-.8-1.878-1.919 0-1.135.776-1.943 1.855-1.943 1.071 0 1.871.808 1.871 1.888 0 .048 0 .152-.009.24h-3.07zm2.432-.447c-.025-.288-.08-.448-.208-.632a1.268 1.268 0 0 0-1.016-.504c-.408 0-.775.192-.991.512-.112.176-.16.328-.208.624h2.423zM96.679 235.828v.52c.32-.432.639-.608 1.095-.608.336 0 .64.112.855.304.233.224.313.48.313.984v2.486h-.609v-2.35c0-.328-.04-.504-.136-.632-.112-.152-.328-.248-.575-.248a.916.916 0 0 0-.704.312c-.176.192-.24.368-.24.672v2.246h-.607v-3.686h.608zM100.223 240.786l-.44-.136.671-1.943.577.184-.808 1.895zM56.04 243.181h.696l-1.632 5.333h-.592l-1.175-4.19-1.183 4.19h-.592l-1.631-5.333h.712l1.215 4.086 1.183-4.086h.632l1.143 4.102 1.223-4.102zM60.847 246.683c0 1.08-.831 1.92-1.887 1.92-1.096 0-1.863-.8-1.863-1.936 0-1.143.767-1.927 1.888-1.927 1.087 0 1.862.808 1.862 1.943zm-3.126-.007c0 .815.504 1.367 1.255 1.367.727 0 1.248-.568 1.248-1.367 0-.824-.496-1.376-1.24-1.376-.76 0-1.263.552-1.263 1.376zM62.56 245.34c.336-.415.672-.6 1.112-.6.32 0 .655.128.856.336.199.2.287.488.287.96v2.478h-.608v-2.446c0-.504-.248-.784-.687-.784a.94.94 0 0 0-.72.328c-.184.208-.24.392-.24.744v2.158h-.608v-5.333h.608v2.16zM66.765 244.828v.52c.32-.432.64-.608 1.096-.608.336 0 .64.112.855.304.232.224.313.48.313.984v2.486h-.609v-2.35c0-.328-.04-.504-.136-.632-.11-.152-.328-.248-.575-.248a.916.916 0 0 0-.704.312c-.176.192-.24.368-.24.672v2.246h-.608v-3.686h.608zM70.755 246.867c.032.312.089.472.24.672.24.328.592.504.992.504.456 0 .887-.248 1.103-.632l.536.2c-.304.615-.935.991-1.64.991-1.094 0-1.878-.8-1.878-1.919 0-1.135.776-1.943 1.855-1.943 1.071 0 1.871.808 1.871 1.888 0 .048 0 .152-.009.24h-3.07zm2.432-.447c-.025-.288-.08-.448-.208-.632a1.268 1.268 0 0 0-1.016-.504c-.408 0-.775.192-.991.512-.112.176-.16.328-.208.624h2.423zM75.509 244.828v.52c.32-.432.639-.608 1.095-.608.336 0 .64.112.855.304.233.224.313.48.313.984v2.486h-.609v-2.35c0-.328-.04-.504-.135-.632-.113-.152-.329-.248-.576-.248a.916.916 0 0 0-.704.312c-.176.192-.239.368-.239.672v2.246h-.608v-3.686h.608zM53.225 256.93v.584h-2.99l1.855-2.654c.535-.776.655-1.016.655-1.335 0-.464-.368-.792-.887-.792-.36 0-.656.168-.776.448-.064.152-.088.272-.095.552h-.6c.031-1.016.567-1.576 1.518-1.576.873 0 1.48.544 1.48 1.32 0 .448-.16.84-.607 1.463l-1.432 1.99h1.879zM57.295 256.93v.584h-2.99l1.855-2.654c.536-.776.656-1.016.656-1.335 0-.464-.369-.792-.888-.792-.36 0-.655.168-.775.448-.065.152-.088.272-.096.552h-.6c.032-1.016.568-1.576 1.519-1.576.872 0 1.48.544 1.48 1.32 0 .448-.16.84-.608 1.463l-1.432 1.99h1.88zM59.366 257.17a.406.406 0 0 1-.415.408.403.403 0 0 1-.416-.415c0-.24.176-.416.416-.416s.415.176.415.424zM60.297 256.315v-.496l2.751-3.71v3.63h.623v.576h-.623v1.2h-.616v-1.2h-2.135zm2.135-2.615l-1.495 2.04h1.495v-2.04zM66.898 253.828v.512c.279-.424.59-.6 1.047-.6.503 0 .823.216.99.672.273-.472.617-.672 1.169-.672.424 0 .743.136.935.392.176.232.224.44.224 1.023v2.36h-.608V255.3c0-.448-.016-.552-.104-.704-.111-.192-.352-.312-.64-.312-.535 0-.83.36-.83 1.016v2.214h-.61v-2.207c0-.359-.03-.543-.118-.703-.105-.208-.328-.32-.6-.32-.536 0-.855.384-.855 1.023v2.207h-.609v-3.686h.609zM74.489 255.012v.408h-1.952l1.184-1.616c.336-.455.407-.591.407-.767 0-.256-.216-.44-.527-.44-.352 0-.496.176-.504.592h-.44c.024-.648.36-.992.976-.992.56 0 .951.336.951.808 0 .272-.103.52-.384.88l-.847 1.127h1.135z"/><g><path d="M153.253 176.904h2.102v.576h-2.102v1.823h2.102v.576h-2.774v-5.333h2.774v.575h-2.102v1.783zM157.154 176.193v.52c.32-.433.639-.608 1.095-.608.336 0 .64.112.855.303.233.225.313.48.313.984v2.487h-.609v-2.351c0-.328-.04-.504-.135-.632-.113-.152-.329-.248-.576-.248a.916.916 0 0 0-.704.312c-.175.192-.239.368-.239.672v2.247h-.608v-3.686h.608zM161.415 179.127c.009.184.056.224.28.224h.28v.528h-.568c-.432-.008-.6-.168-.6-.576v-2.575h-.511v-.535h.511v-1.16h.608v1.16h.56v.535h-.56v2.4zM163.633 176.193v.623c.112-.264.192-.375.335-.487.185-.144.44-.224.705-.224h.143v.615c-.063-.007-.128-.007-.168-.007a.945.945 0 0 0-.799.423c-.16.232-.216.448-.216.872v1.87h-.608v-3.685h.608zM166.049 178.232c.03.311.087.471.239.671.24.328.592.504.991.504.456 0 .888-.248 1.104-.632l.536.2c-.304.616-.936.992-1.64.992-1.095 0-1.879-.8-1.879-1.92 0-1.135.776-1.942 1.856-1.942 1.07 0 1.87.807 1.87 1.887 0 .048 0 .152-.007.24h-3.07zm2.43-.448c-.024-.288-.08-.448-.208-.632a1.268 1.268 0 0 0-1.015-.504c-.409 0-.776.193-.992.512-.112.176-.16.328-.208.624h2.422zm-.177-3.183l-.935 1.056h-.44l.665-1.056h.71zM170.593 178.232c.033.311.09.471.24.671.24.328.593.504.992.504.456 0 .888-.248 1.103-.632l.537.2c-.304.616-.936.992-1.64.992-1.095 0-1.879-.8-1.879-1.92 0-1.135.776-1.942 1.855-1.942 1.072 0 1.872.807 1.872 1.887 0 .048 0 .152-.01.24h-3.07zm2.432-.448c-.024-.288-.08-.448-.208-.632a1.268 1.268 0 0 0-1.016-.504c-.408 0-.775.193-.99.512-.113.176-.16.328-.209.624h2.423zM153.589 185.76c.223-.08.327-.104.52-.104.887 0 1.574.696 1.574 1.6 0 .943-.775 1.718-1.718 1.718-.953 0-1.688-.751-1.688-1.718 0-.392.104-.688.408-1.176l1.527-2.454h.744l-1.367 2.134zm-.68 1.496c0 .623.472 1.119 1.071 1.119s1.08-.488 1.08-1.095c0-.6-.472-1.08-1.064-1.08-.608 0-1.087.464-1.087 1.056zM157.522 188.535a.406.406 0 0 1-.415.408.403.403 0 0 1-.416-.416c0-.24.176-.416.416-.416s.415.176.415.424zM159.855 185.76c.224-.08.327-.104.52-.104.887 0 1.575.696 1.575 1.6 0 .943-.775 1.718-1.72 1.718-.951 0-1.686-.751-1.686-1.718 0-.392.103-.688.407-1.176l1.527-2.454h.744l-1.367 2.134zm-.68 1.496c0 .623.472 1.119 1.072 1.119s1.079-.488 1.079-1.095c0-.6-.472-1.08-1.064-1.08-.607 0-1.086.464-1.086 1.056zM165.16 185.193v.511c.28-.424.59-.6 1.047-.6.504 0 .823.217.991.672.272-.472.616-.671 1.168-.671.424 0 .743.135.935.391.176.232.224.44.224 1.024v2.359h-.607v-2.215c0-.448-.017-.552-.105-.704-.111-.192-.351-.312-.64-.312-.535 0-.83.36-.83 1.016v2.215h-.609v-2.207c0-.36-.031-.544-.119-.704-.105-.208-.328-.32-.6-.32-.536 0-.855.384-.855 1.024v2.207h-.608v-3.686h.608zM172.75 186.376v.408h-1.95l1.183-1.615c.336-.456.407-.592.407-.768 0-.256-.215-.44-.527-.44-.352 0-.496.176-.504.592h-.44c.024-.648.36-.991.976-.991.56 0 .951.335.951.807 0 .272-.103.52-.383.88l-.848 1.127h1.136z"/></g><g><path d="M190.24 276.627v.575h-3.814l3.014-4.757h-2.679v-.576h3.79l-3.013 4.758h2.702zM192.08 272.485c0 .216-.176.384-.392.384s-.384-.168-.384-.392.168-.392.393-.392c.216 0 .384.176.384.4zm-.087 4.717h-.608v-3.686h.608v3.686zM193.954 273.516v.512c.28-.424.59-.6 1.047-.6.504 0 .823.216.99.672.273-.472.617-.672 1.169-.672.424 0 .743.136.935.392.176.232.224.44.224 1.023v2.36h-.607v-2.215c0-.448-.017-.552-.105-.704-.111-.192-.351-.312-.64-.312-.535 0-.83.36-.83 1.016v2.214h-.609v-2.207c0-.359-.031-.543-.12-.703-.104-.208-.327-.32-.599-.32-.536 0-.855.384-.855 1.023v2.207h-.609v-3.686h.609zM200.274 273.516v.512c.28-.424.592-.6 1.048-.6.504 0 .823.216.991.672.273-.472.616-.672 1.168-.672.424 0 .743.136.936.392.176.232.223.44.223 1.023v2.36h-.607v-2.215c0-.448-.017-.552-.105-.704-.11-.192-.351-.312-.64-.312-.534 0-.83.36-.83 1.016v2.214h-.609v-2.207c0-.359-.03-.543-.119-.703-.104-.208-.328-.32-.6-.32-.536 0-.856.384-.856 1.023v2.207h-.607v-3.686h.607zM206.371 275.555c.033.312.09.472.24.672.24.328.592.504.992.504.456 0 .887-.248 1.103-.632l.536.2c-.303.615-.935.991-1.64.991-1.094 0-1.878-.8-1.878-1.919 0-1.135.776-1.943 1.855-1.943 1.072 0 1.871.808 1.871 1.888 0 .047 0 .152-.008.24h-3.07zm2.432-.447c-.024-.288-.08-.448-.208-.632a1.268 1.268 0 0 0-1.016-.504c-.408 0-.775.192-.99.512-.113.176-.161.328-.209.624h2.423zM211.125 273.516v.624c.112-.264.192-.376.335-.487.185-.144.44-.225.704-.225h.144v.616c-.064-.008-.128-.008-.168-.008a.945.945 0 0 0-.799.424c-.16.232-.216.447-.216.871v1.871h-.608v-3.686h.608zM187.21 282.62v-.607l1.806-1.184v5.373h-.632v-4.365l-1.174.783zM190.416 285.003v-.496l2.75-3.71v3.63h.624v.576h-.623v1.2h-.616v-1.2h-2.135zm2.135-2.615l-1.496 2.04h1.496v-2.04zM195.598 285.859a.406.406 0 0 1-.415.407.403.403 0 0 1-.416-.415c0-.24.176-.416.416-.416s.415.176.415.424zM199.653 285.619v.583h-2.99l1.855-2.654c.535-.776.656-1.016.656-1.335 0-.464-.369-.792-.888-.792-.36 0-.655.168-.776.448-.064.152-.087.272-.095.552h-.6c.031-1.016.568-1.576 1.519-1.576.872 0 1.48.544 1.48 1.32 0 .448-.16.84-.608 1.463l-1.432 1.99h1.88zM203.231 282.516v.512c.28-.424.591-.6 1.047-.6.504 0 .823.216.991.672.273-.472.616-.672 1.168-.672.424 0 .743.136.935.392.176.232.224.44.224 1.023v2.36h-.607v-2.215c0-.448-.017-.552-.105-.704-.111-.192-.352-.312-.64-.312-.535 0-.83.36-.83 1.016v2.214h-.609v-2.207c0-.359-.03-.543-.119-.703-.104-.208-.328-.32-.6-.32-.535 0-.855.384-.855 1.023v2.207h-.608v-3.686h.608zM210.822 283.7v.408h-1.952l1.184-1.616c.336-.455.407-.591.407-.767 0-.256-.216-.44-.527-.44-.352 0-.496.176-.504.592h-.44c.024-.648.36-.992.976-.992.56 0 .951.336.951.808 0 .272-.103.52-.384.88l-.847 1.127h1.136z"/></g><g><path d="M235.204 192.351v.608h-2.55v-5.333h.671v4.725h1.88zM236.853 188.241c0 .216-.177.384-.393.384s-.384-.168-.384-.392c0-.223.168-.391.393-.391.216 0 .384.175.384.4zm-.088 4.718h-.609v-3.686h.609v3.686zM238.817 192.959h-.608v-3.15h-.504v-.536h.504v-.496c0-.727.376-1.16 1.016-1.16.031 0 .103 0 .167.009v.543c-.44.049-.56.176-.575.608v.496h.575v.535h-.575v3.15zM241.2 192.207c.01.184.057.224.28.224h.281v.528h-.568c-.432-.008-.6-.168-.6-.576v-2.575h-.512v-.535h.512v-1.16h.607v1.16h.561v.535h-.56v2.4z"/></g><g><path d="M37.34 175.55h1.415c1.607 0 2.574.976 2.574 2.583 0 .903-.296 1.647-.84 2.135-.462.416-1.079.616-1.854.616H37.34v-5.333zm.671 4.758h.24c.904 0 1.287-.096 1.671-.4.48-.384.72-.976.72-1.767 0-1.287-.688-2.023-1.911-2.023h-.72v4.19zM45.305 177.197v2.36c0 .503-.096.783-.368 1.03-.272.249-.648.384-1.064.384-.415 0-.799-.144-1.063-.391-.247-.24-.367-.576-.367-1.024v-2.359h.607v2.343c0 .52.336.888.823.888a.876.876 0 0 0 .657-.28c.12-.144.159-.296.159-.592v-2.359h.616zM48.357 178.205v-.04c0-.344-.28-.56-.703-.56-.409 0-.665.208-.665.528s.16.44.824.624c.471.127.72.248.895.423.185.184.296.448.296.72 0 .64-.527 1.071-1.31 1.071-.84 0-1.312-.391-1.376-1.135h.6c.04.416.312.64.776.64.415 0 .687-.216.687-.544 0-.32-.208-.48-.84-.64-.8-.216-1.159-.551-1.159-1.111 0-.64.52-1.071 1.295-1.071.784 0 1.256.4 1.287 1.095h-.607zM53.018 180.428c-.416.375-.824.543-1.36.543-1.055 0-1.807-.799-1.807-1.919 0-1.143.76-1.942 1.839-1.942.528 0 .96.175 1.343.551l-.391.392c-.28-.256-.592-.384-.936-.384-.727 0-1.231.56-1.231 1.36 0 .815.504 1.383 1.223 1.383.36 0 .648-.12.944-.4l.376.416zM54.56 177.71c.335-.416.67-.6 1.111-.6.32 0 .655.128.856.336.199.2.287.487.287.959v2.479h-.608v-2.447c0-.504-.248-.784-.687-.784a.94.94 0 0 0-.72.328c-.184.208-.24.392-.24.744v2.159h-.608v-5.333h.609v2.158zM58.542 179.237c.031.311.088.471.24.67.24.329.591.505.99.505.457 0 .888-.248 1.104-.632l.536.2c-.303.615-.935.991-1.64.991-1.094 0-1.878-.799-1.878-1.919 0-1.135.775-1.942 1.855-1.942 1.072 0 1.871.807 1.871 1.887 0 .048 0 .152-.007.24h-3.07zm2.43-.448c-.024-.288-.08-.448-.207-.632a1.268 1.268 0 0 0-1.016-.504c-.408 0-.775.192-.991.512-.112.176-.16.328-.208.624h2.422zM37.251 185.206v-.575h3.023l-1.567 1.99c.927 0 1.583.664 1.583 1.607 0 1-.752 1.743-1.767 1.743-.84 0-1.439-.471-1.623-1.279l.576-.104c.143.512.52.8 1.015.8.648 0 1.16-.488 1.16-1.111 0-.64-.48-1.088-1.176-1.088-.248 0-.407.048-.64.184l-.264-.232 1.543-1.935h-1.863zM42.176 189.54a.406.406 0 0 1-.415.407.403.403 0 0 1-.416-.415c0-.24.176-.416.416-.416s.415.176.415.424zM46.171 187.333c.264.264.4.615.4 1.031 0 .944-.696 1.615-1.671 1.615-.967 0-1.647-.647-1.647-1.559 0-.423.144-.807.4-1.071.168-.176.303-.256.624-.36-.28-.096-.4-.176-.544-.352a1.228 1.228 0 0 1-.272-.783c0-.76.623-1.32 1.47-1.32.84 0 1.448.552 1.448 1.312 0 .304-.103.591-.296.815-.143.16-.256.232-.527.328.304.096.447.168.615.344zm-2.286 1.023c0 .568.455 1.032 1.023 1.032.568 0 1.024-.464 1.024-1.032 0-.56-.456-1.031-1.008-1.031a1.03 1.03 0 0 0-1.039 1.031zm.184-2.494c0 .456.376.815.847.815.456 0 .864-.376.864-.807 0-.416-.392-.776-.848-.776-.512 0-.863.32-.863.768zM49.83 186.197v.512c.279-.424.59-.6 1.046-.6.504 0 .823.216.991.672.273-.472.617-.671 1.168-.671.424 0 .744.135.936.391.176.232.224.44.224 1.024v2.359h-.608v-2.215c0-.448-.016-.552-.104-.704-.112-.192-.352-.312-.64-.312-.535 0-.831.36-.831 1.016v2.215h-.608v-2.208c0-.359-.032-.543-.12-.703-.104-.208-.328-.32-.6-.32-.535 0-.855.384-.855 1.024v2.207h-.608v-3.687h.608zM57.42 187.381v.408H55.47l1.184-1.615c.336-.456.407-.592.407-.768 0-.256-.216-.44-.528-.44-.351 0-.496.176-.503.592h-.44c.024-.648.36-.991.976-.991.56 0 .95.335.95.807 0 .272-.103.52-.383.88l-.848 1.127h1.136z"/></g><g><path d="M101.953 364.988c1.087 0 1.703.511 1.703 1.415 0 .343-.105.647-.304.87-.128.153-.256.233-.544.344.296.065.44.12.608.248.288.233.44.592.44 1.024 0 .496-.217.928-.576 1.16-.312.2-.655.272-1.327.272h-1.503v-5.333h1.503zm-.832 2.398l.68-.008c.423 0 .68-.056.872-.208a.937.937 0 0 0 .327-.735c0-.344-.168-.649-.424-.768-.192-.096-.415-.128-.903-.128h-.552v1.847zm0 2.39h.672c.56 0 .775-.04 1.008-.175.255-.144.383-.4.383-.752 0-.64-.376-.92-1.223-.92h-.84v1.848zM107.843 366.634h.608v3.687h-.608v-.712c-.368.551-.784.8-1.343.8-1.016 0-1.736-.8-1.736-1.92 0-1.127.737-1.943 1.751-1.943.56 0 .968.216 1.328.696v-.608zm-2.135.896a1.689 1.689 0 0 0-.304.975c0 .784.512 1.375 1.184 1.375.695 0 1.263-.647 1.263-1.438 0-.8-.511-1.352-1.248-1.352-.4 0-.68.136-.895.44zM109.81 370.32v-5.332h.608v5.333h-.609zM112.375 370.32h-.608v-5.332h.608v3.261l1.471-1.615h.768l-1.647 1.8 1.64 1.887h-.76l-1.472-1.648v1.648zM118.803 368.49c0 1.079-.83 1.918-1.886 1.918-1.096 0-1.864-.8-1.864-1.935 0-1.143.768-1.927 1.888-1.927 1.087 0 1.862.808 1.862 1.943zm-3.126-.008c0 .815.504 1.367 1.255 1.367.728 0 1.248-.569 1.248-1.367 0-.825-.496-1.376-1.239-1.376-.76 0-1.264.551-1.264 1.376zM120.517 366.634v.52c.32-.432.639-.608 1.095-.608.336 0 .64.112.856.304.232.224.312.48.312.983v2.488h-.608v-2.351c0-.328-.04-.504-.136-.632-.112-.152-.328-.248-.575-.248a.916.916 0 0 0-.704.312c-.176.192-.24.368-.24.671v2.248h-.608v-3.687h.608zM102.744 374.595h-1.719v1.432c.272-.105.512-.153.783-.153.936 0 1.64.736 1.64 1.736 0 1.023-.752 1.766-1.799 1.766-.752 0-1.32-.391-1.592-1.096l.577-.215c.127.232.183.328.271.408.168.168.464.271.76.271.64 0 1.128-.495 1.128-1.151 0-.68-.48-1.135-1.184-1.135-.416 0-.84.192-1.183.543v-3.013h2.318v.607zM105.308 378.977a.406.406 0 0 1-.415.407.403.403 0 0 1-.416-.415c0-.24.176-.416.416-.416s.415.176.415.424zM109.61 377.713c0 .6-.112.968-.376 1.247-.28.296-.703.448-1.207.448-.52 0-.951-.16-1.231-.463-.28-.296-.352-.6-.352-1.408v-1.758c0-.697.08-1.024.32-1.312.263-.32.704-.496 1.247-.496.488 0 .887.137 1.183.4.304.28.416.6.416 1.223v2.12zm-2.534-.136c0 .616.023.728.2.928.167.192.455.312.759.312.328 0 .632-.136.783-.352.12-.176.168-.4.168-.792v-2.039c0-.415-.071-.623-.271-.815a1 1 0 0 0-.68-.248c-.344 0-.64.136-.791.383-.137.193-.168.376-.168.84v1.783zM112.94 375.634v.512c.28-.424.591-.6 1.047-.6.504 0 .823.216.991.672.273-.472.616-.672 1.168-.672.424 0 .743.136.936.392.176.232.223.44.223 1.023v2.36h-.607v-2.215c0-.449-.017-.552-.105-.704-.11-.192-.351-.312-.64-.312-.534 0-.83.36-.83 1.016v2.215h-.609v-2.207c0-.36-.03-.544-.119-.704-.104-.208-.328-.32-.6-.32-.535 0-.856.384-.856 1.024v2.207h-.607v-3.687h.607zM120.531 376.818v.408h-1.951l1.183-1.615c.336-.456.408-.592.408-.768 0-.256-.216-.44-.528-.44-.351 0-.496.176-.504.591h-.44c.024-.647.36-.99.977-.99.56 0 .95.335.95.807 0 .271-.103.52-.383.88l-.848 1.127h1.136z"/></g></g></svg>