<svg xmlns="http://www.w3.org/2000/svg" viewBox="0 0 311.73262 384.86173"><defs><style>.cls-1,.cls-10,.cls-11,.cls-12,.cls-13,.cls-14,.cls-15,.cls-16,.cls-2,.cls-3,.cls-4,.cls-5,.cls-6,.cls-7,.cls-8,.cls-9{fill:none;stroke-linecap:round;stroke-linejoin:round}.cls-1,.cls-10,.cls-11,.cls-12,.cls-13,.cls-15,.cls-16,.cls-2,.cls-3,.cls-4,.cls-6,.cls-7,.cls-8,.cls-9{stroke-width:.14173px}.cls-1,.cls-10,.cls-13,.cls-14,.cls-15,.cls-3,.cls-6{stroke:#194164}.cls-1,.cls-6{stroke-dasharray:0 0 0 0 2.88 1.44 .24 1.44}.cls-2{stroke:#646464}.cls-3{stroke-dashoffset:.96px}.cls-10,.cls-11,.cls-15,.cls-16,.cls-3,.cls-4,.cls-7,.cls-8,.cls-9{stroke-dasharray:0 0 1.44 1.44}.cls-17,.cls-18{fill:#fff}.cls-11,.cls-12,.cls-16,.cls-4,.cls-7,.cls-8,.cls-9{stroke:#969696}.cls-5{stroke:#000;stroke-width:.288px}.cls-6{stroke-dashoffset:1.92px}.cls-7{stroke-dashoffset:2.66376px}.cls-8{stroke-dashoffset:2.5133px}.cls-15,.cls-9{stroke-dashoffset:.72px}.cls-18,.cls-19{fill-rule:evenodd}.cls-10{stroke-dashoffset:.24px}.cls-11{stroke-dashoffset:.98955px}.cls-14{stroke-width:.28346px}.cls-16{stroke-dashoffset:1.2px}</style></defs><g id="Plan"><path class="cls-13" d="M8.711 156.551h35.52M26.951 159.671h-13.92M39.671 162.551h-13.68"/><path class="cls-12" d="M220.631 334.871h59.28v3.36h-59.28z"/><path class="cls-13" d="M190.871 176.231h-34.08M190.871 168.791h-34.08M190.871 161.111h-34.08M190.871 153.431h-34.08M58.631 153.431h34.08M58.631 161.111h34.08M58.631 168.791h34.08M58.631 176.231h34.08M117.152 215.591l-8.16-35.52M92.711 148.151h64.08v33.36h-64.08zM75.67 176.337l3.84-3.84h-7.68l3.84 3.84zM151.511 181.511v34.08M143.831 181.511v34.08M136.151 181.511v34.08M128.471 181.511v34.08M121.031 181.511v34.08M113.351 181.511v34.08M105.671 181.511v34.08M97.991 181.511v34.08"/><path class="cls-13" d="M94.151 149.591h61.2v30.48h-61.2zM151.472 198.55l-3.84 3.84v-7.68l3.84 3.84zM113.312 198.55l-3.84 3.84v-7.68l3.84 3.84zM173.83 153.427l-3.84 3.6h7.68l-3.84-3.6z"/><path class="cls-18" d="M61.51 212.95v-65.04h-1.44v66.24h129.36v-66.24h-1.44v65.04H61.51"/><path class="cls-13" d="M61.51 212.95v-65.04h-1.44v66.24h129.36v-66.24h-1.44v65.04H61.51z"/><path class="cls-18" d="M190.87 215.59l6.96 7.2H58.63v-7.2h132.24"/><path class="cls-12" d="M58.391 215.831l.24-.24M58.391 219.671l4.32-4.08M59.591 222.791l7.2-7.2M63.431 222.791l7.2-7.2M67.511 222.791l7.2-7.2M71.591 222.791l7.2-7.2M75.431 222.791l7.2-7.2M79.511 222.791l7.2-7.2M83.591 222.791l7.2-7.2M87.431 222.791l7.2-7.2M91.511 222.791l7.2-7.2M95.591 222.791l7.2-7.2M99.671 222.791l7.2-7.2M103.511 222.791l7.2-7.2M107.591 222.791l7.2-7.2M111.671 222.791l7.2-7.2M115.511 222.791l7.2-7.2M119.591 222.791l7.2-7.2M123.671 222.791l7.2-7.2M127.511 222.791l7.2-7.2M131.591 222.791l7.2-7.2M135.671 222.791l7.2-7.2M139.751 222.791l7.2-7.2M143.591 222.791l7.2-7.2M147.671 222.791l7.2-7.2M151.751 222.791l7.2-7.2M155.591 222.791l7.2-7.2M159.671 222.791l7.2-7.2M163.751 222.791l7.2-7.2M167.831 222.791l7.2-7.2M171.671 222.791l7.2-7.2M175.751 222.791l7.2-7.2M179.831 222.791l7.2-7.2M183.671 222.791l7.2-7.2M187.751 222.791l5.04-5.04M191.831 222.791l2.88-3.12M195.671 222.791l1.2-.96M58.631 222.791l-.24-.24M62.711 222.791l-4.32-4.32M66.791 222.791l-7.2-7.2M70.871 222.791l-7.2-7.2M74.711 222.791l-7.2-7.2M78.791 222.791l-7.2-7.2M82.871 222.791l-7.2-7.2M86.711 222.791l-7.2-7.2M90.791 222.791l-7.2-7.2M94.871 222.791l-7.2-7.2M98.711 222.791l-7.2-7.2M102.791 222.791l-7.2-7.2M106.871 222.791l-7.2-7.2M110.951 222.791l-7.2-7.2M114.791 222.791l-7.2-7.2M118.871 222.791l-7.2-7.2M122.951 222.791l-7.2-7.2M126.791 222.791l-7.2-7.2M130.871 222.791l-7.2-7.2M134.951 222.791l-7.2-7.2M139.031 222.791l-7.2-7.2M142.871 222.791l-7.2-7.2M146.951 222.791l-7.2-7.2M151.031 222.791l-7.2-7.2M154.871 222.791l-7.2-7.2M158.951 222.791l-7.2-7.2M163.031 222.791l-7.2-7.2M166.871 222.791l-7.2-7.2M170.951 222.791l-7.2-7.2M175.031 222.791l-7.2-7.2M179.111 222.791l-7.2-7.2M182.951 222.791l-7.2-7.2M187.031 222.791l-7.2-7.2M191.111 222.791l-7.2-7.2M194.951 222.791l-7.2-7.2"/><path class="cls-18" d="M190.87 215.59l6.96 7.2H58.63v-7.2h132.24"/><path class="cls-12" d="M58.391 215.831l.24-.24M58.391 219.671l4.32-4.08M59.591 222.791l7.2-7.2M63.431 222.791l7.2-7.2M67.511 222.791l7.2-7.2M71.591 222.791l7.2-7.2M75.431 222.791l7.2-7.2M79.511 222.791l7.2-7.2M83.591 222.791l7.2-7.2M87.431 222.791l7.2-7.2M91.511 222.791l7.2-7.2M95.591 222.791l7.2-7.2M99.671 222.791l7.2-7.2M103.511 222.791l7.2-7.2M107.591 222.791l7.2-7.2M111.671 222.791l7.2-7.2M115.511 222.791l7.2-7.2M119.591 222.791l7.2-7.2M123.671 222.791l7.2-7.2M127.511 222.791l7.2-7.2M131.591 222.791l7.2-7.2M135.671 222.791l7.2-7.2M139.751 222.791l7.2-7.2M143.591 222.791l7.2-7.2M147.671 222.791l7.2-7.2M151.751 222.791l7.2-7.2M155.591 222.791l7.2-7.2M159.671 222.791l7.2-7.2M163.751 222.791l7.2-7.2M167.831 222.791l7.2-7.2M171.671 222.791l7.2-7.2M175.751 222.791l7.2-7.2M179.831 222.791l7.2-7.2M183.671 222.791l7.2-7.2M187.751 222.791l5.04-5.04M191.831 222.791l2.88-3.12M195.671 222.791l1.2-.96M58.631 222.791l-.24-.24M62.711 222.791l-4.32-4.32M66.791 222.791l-7.2-7.2M70.871 222.791l-7.2-7.2M74.711 222.791l-7.2-7.2M78.791 222.791l-7.2-7.2M82.871 222.791l-7.2-7.2M86.711 222.791l-7.2-7.2M90.791 222.791l-7.2-7.2M94.871 222.791l-7.2-7.2M98.711 222.791l-7.2-7.2M102.791 222.791l-7.2-7.2M106.871 222.791l-7.2-7.2M110.951 222.791l-7.2-7.2M114.791 222.791l-7.2-7.2M118.871 222.791l-7.2-7.2M122.951 222.791l-7.2-7.2M126.791 222.791l-7.2-7.2M130.871 222.791l-7.2-7.2M134.951 222.791l-7.2-7.2M139.031 222.791l-7.2-7.2M142.871 222.791l-7.2-7.2M146.951 222.791l-7.2-7.2M151.031 222.791l-7.2-7.2M154.871 222.791l-7.2-7.2M158.951 222.791l-7.2-7.2M163.031 222.791l-7.2-7.2M166.871 222.791l-7.2-7.2M170.951 222.791l-7.2-7.2M175.031 222.791l-7.2-7.2M179.111 222.791l-7.2-7.2M182.951 222.791l-7.2-7.2M187.031 222.791l-7.2-7.2M191.111 222.791l-7.2-7.2M194.951 222.791l-7.2-7.2"/><path class="cls-18" d="M242.71 107.11h5.04V16.63h-5.04v90.48"/><path class="cls-12" d="M247.511 20.471l-3.84-3.84M247.511 24.791l-5.04-5.04M247.511 29.111l-5.04-5.04M247.511 33.191l-5.04-5.04M247.511 37.511l-5.04-5.04M247.511 41.831l-5.04-5.04M247.511 45.911l-5.04-5.04M247.511 50.231l-5.04-5.04M247.511 54.551l-5.04-5.04M247.511 58.871l-5.04-5.04M247.511 62.951l-5.04-5.04M247.511 67.271l-5.04-5.04M247.511 71.591l-5.04-5.04M247.511 75.671l-5.04-5.04M247.511 79.991l-5.04-5.04M247.511 84.311l-5.04-5.04M247.511 88.631l-5.04-5.04M247.511 92.711l-5.04-5.04M247.511 97.031l-5.04-5.04M247.511 101.351l-5.04-5.04M247.511 105.431l-5.04-5.04M244.871 107.111l-2.4-2.4"/><path class="cls-18" d="M247.75 107.11h-5.04V16.63h5.04v90.48"/><path class="cls-12" d="M247.511 20.471l-3.84-3.84M247.511 24.791l-5.04-5.04M247.511 29.111l-5.04-5.04M247.511 33.191l-5.04-5.04M247.511 37.511l-5.04-5.04M247.511 41.831l-5.04-5.04M247.511 45.911l-5.04-5.04M247.511 50.231l-5.04-5.04M247.511 54.551l-5.04-5.04M247.511 58.871l-5.04-5.04M247.511 62.951l-5.04-5.04M247.511 67.271l-5.04-5.04M247.511 71.591l-5.04-5.04M247.511 75.671l-5.04-5.04M247.511 79.991l-5.04-5.04M247.511 84.311l-5.04-5.04M247.511 88.631l-5.04-5.04M247.511 92.711l-5.04-5.04M247.511 97.031l-5.04-5.04M247.511 101.351l-5.04-5.04M247.511 105.431l-5.04-5.04M244.871 107.111l-2.4-2.4"/><path class="cls-13" d="M248.231 100.151h26.16v1.2h-26.16zM249.671 98.711h.72v1.44h-.72zM249.671 101.351h.72v1.44h-.72zM254.231 95.111h9.84M260.71 97.27l3.36-2.16-3.36-1.92"/><path class="cls-15" d="M270.071 100.151h25.92"/><path class="cls-13" d="M295.991 100.151v.72"/><path class="cls-15" d="M295.991 101.351h-25.92"/><path class="cls-13" d="M270.071 101.351v-.72M271.271 98.711v1.44M271.991 99.431v-.72M271.991 98.711h-.72M271.991 102.791v-1.44M271.271 102.071v.72M271.271 102.791h.72"/><path class="cls-1" d="M273.911 102.311h-26.16M247.751 107.111h26.16"/><path class="cls-13" d="M216.311 100.151h25.92v1.2h-25.92zM240.311 98.711h.72v1.44h-.72zM240.311 101.351h.72v1.44h-.72zM236.471 95.111h-10.08M229.99 93.19l-3.6 1.92 3.6 2.16"/><path class="cls-15" d="M220.631 100.151h-25.92"/><path class="cls-13" d="M194.711 100.151v.72"/><path class="cls-15" d="M194.711 101.351h25.92"/><path class="cls-13" d="M220.631 101.351v-.72M219.191 98.711v1.44M218.471 99.431v-.72M218.471 98.711h.72M218.471 102.791v-1.44M219.191 102.071v.72M219.191 102.791h-.72"/><path class="cls-1" d="M216.791 102.311h25.92M242.711 107.111h-25.92"/><path class="cls-18" d="M216.79 107.11h-18.96v-4.8h18.96v4.8"/><path class="cls-12" d="M216.551 104.231l-1.92-1.92M215.111 107.111l-4.8-4.8M211.031 107.111l-4.8-4.8M206.711 107.111l-4.8-4.8M202.391 107.111l-4.8-4.8M198.311 107.111l-.72-.48"/><path class="cls-18" d="M216.79 107.11h-18.96v-4.8h18.96v4.8"/><path class="cls-12" d="M216.551 104.231l-1.92-1.92M215.111 107.111l-4.8-4.8M211.031 107.111l-4.8-4.8M206.711 107.111l-4.8-4.8M202.391 107.111l-4.8-4.8M198.311 107.111l-.72-.48"/><path class="cls-18" d="M273.91 102.31v4.8h30.48v-4.8h-30.48"/><path class="cls-12" d="M304.151 102.551l-.24-.24M304.151 106.871l-4.56-4.56M300.311 107.111l-4.8-4.8M295.991 107.111l-4.8-4.8M291.671 107.111l-4.8-4.8M287.351 107.111l-4.8-4.8M283.271 107.111l-4.8-4.8M278.951 107.111l-4.8-4.8M274.631 107.111l-.96-.96"/><path class="cls-18" d="M273.91 107.11v-4.8h30.48v4.8h-30.48"/><path class="cls-12" d="M304.151 102.551l-.24-.24M304.151 106.871l-4.56-4.56M300.311 107.111l-4.8-4.8M295.991 107.111l-4.8-4.8M291.671 107.111l-4.8-4.8M287.351 107.111l-4.8-4.8M283.271 107.111l-4.8-4.8M278.951 107.111l-4.8-4.8M274.631 107.111l-.96-.96"/><path class="cls-13" d="M206.231 166.871h17.52v67.92h-17.52z"/><path class="cls-17" d="M207.671 175.991h14.64v15.84h-14.64z"/><path class="cls-13" d="M207.671 175.991h14.64v15.84h-14.64z"/><path class="cls-18" d="M214.63 187.87c0-1.514 1.302-2.76 2.88-2.76s2.88 1.246 2.88 2.76c0 1.515-1.3 2.76-2.88 2.76s-2.88-1.245-2.88-2.76"/><path class="cls-13" d="M214.63 187.87c0-1.514 1.302-2.76 2.88-2.76s2.88 1.246 2.88 2.76c0 1.515-1.3 2.76-2.88 2.76s-2.88-1.245-2.88-2.76"/><path class="cls-18" d="M208.63 188.83c0-1.25.975-2.28 2.16-2.28s2.16 1.03 2.16 2.28-.974 2.28-2.16 2.28-2.16-1.029-2.16-2.28"/><path class="cls-13" d="M208.63 188.83c0-1.25.975-2.28 2.16-2.28s2.16 1.03 2.16 2.28-.974 2.28-2.16 2.28-2.16-1.029-2.16-2.28"/><path class="cls-18" d="M215.35 180.31c0-1.185.975-2.16 2.16-2.16s2.16.975 2.16 2.16-.974 2.16-2.16 2.16-2.16-.974-2.16-2.16"/><path class="cls-13" d="M215.35 180.31c0-1.185.975-2.16 2.16-2.16s2.16.975 2.16 2.16-.974 2.16-2.16 2.16-2.16-.974-2.16-2.16"/><path class="cls-18" d="M208.39 180.55c0-1.578 1.246-2.88 2.76-2.88s2.76 1.302 2.76 2.88-1.245 2.88-2.76 2.88-2.76-1.3-2.76-2.88"/><path class="cls-13" d="M208.39 180.55c0-1.578 1.246-2.88 2.76-2.88s2.76 1.302 2.76 2.88-1.245 2.88-2.76 2.88-2.76-1.3-2.76-2.88M221.351 175.271h2.4M221.351 192.311h2.4M221.351 209.351h2.4M221.351 234.071h2.4M199.751 234.791h16.56v.48h-16.56zM215.831 235.271h.48v17.04h-.48z"/><path class="cls-13" d="M200.471 251.831h15.36v.48h-15.36zM200.471 235.271h15.36v.48h-15.36zM199.751 235.271h.72v17.04h-.72z"/><path class="cls-18" d="M211.35 225.45h8.928a1.942 1.942 0 0 0 .76-.151 1.978 1.978 0 0 0 1.073-1.073 1.942 1.942 0 0 0 .151-.76v-11.197a1.975 1.975 0 0 0-.58-1.404 2.042 2.042 0 0 0-.643-.43 2.019 2.019 0 0 0-.76-.15h-8.929c-.262 0-.518.052-.76.15-.24.101-.46.248-.644.43a1.974 1.974 0 0 0-.58 1.404v11.196a1.942 1.942 0 0 0 .15.761 1.981 1.981 0 0 0 1.447 1.186c.128.026.257.038.387.038"/><path class="cls-13" d="M211.35 225.45h8.928a1.942 1.942 0 0 0 .76-.151 1.978 1.978 0 0 0 1.073-1.073 1.942 1.942 0 0 0 .151-.76v-11.197a1.975 1.975 0 0 0-.58-1.404 2.042 2.042 0 0 0-.643-.43 2.019 2.019 0 0 0-.76-.15h-8.929c-.262 0-.518.052-.76.15-.24.101-.46.248-.644.43a1.974 1.974 0 0 0-.58 1.404v11.196a1.942 1.942 0 0 0 .15.761 1.981 1.981 0 0 0 1.447 1.186c.128.026.257.038.387.038"/><path class="cls-18" d="M211.51 217.87c0-.592.488-1.08 1.08-1.08s1.08.488 1.08 1.08-.486 1.08-1.08 1.08-1.08-.486-1.08-1.08"/><path class="cls-13" d="M211.51 217.87c0-.592.488-1.08 1.08-1.08s1.08.488 1.08 1.08-.486 1.08-1.08 1.08-1.08-.486-1.08-1.08M221.351 167.591h2.4M199.751 166.391h16.56v.48h-16.56zM215.831 149.351h.48v17.04h-.48z"/><path class="cls-13" d="M200.471 149.351h15.36v.72h-15.36zM200.471 165.911h15.36v.48h-15.36zM215.831 148.391h.48v.96h-.48zM199.751 149.351h.72v17.04h-.72zM197.831 233.831h7.68"/><path class="cls-5" d="M197.831 234.551h8.4"/><path class="cls-13" d="M197.831 232.391h6.24M197.831 233.831h7.68M197.831 234.551h8.4M197.831 232.391h6.24"/><path class="cls-5" d="M197.831 233.831v.72"/><path class="cls-13" d="M197.831 232.391v1.44M205.511 233.831v-65.76"/><path class="cls-5" d="M206.231 234.551v-67.2"/><path class="cls-13" d="M204.071 232.391v-62.88M205.511 233.831v-65.76M206.231 234.551v-67.2M204.071 232.391v-62.88M205.511 168.071h-7.68"/><path class="cls-5" d="M206.231 167.351h-8.4"/><path class="cls-13" d="M204.071 169.511h-6.24M205.511 168.071h-7.68"/><path class="cls-5" d="M197.831 168.071v-.72"/><path class="cls-13" d="M197.831 169.511v-1.44M206.231 167.351h-8.4M204.071 169.511h-6.24M215.831 252.311h.48v17.04h-.48z"/><path class="cls-13" d="M200.471 268.631h15.36v.72h-15.36zM200.471 252.311h15.36v.48h-15.36zM199.751 252.311h.72v17.04h-.72zM215.831 269.351h.48v17.04h-.48z"/><path class="cls-13" d="M200.471 285.671h15.36v.72h-15.36zM200.471 269.351h15.36v.48h-15.36zM199.751 269.351h.72v17.04h-.72zM215.831 286.391h.48v.96h-.48zM221.351 226.391h2.4"/><path class="cls-1" d="M216.311 234.791v-67.92"/><path class="cls-13" d="M215.591 143.111h-17.76"/><path class="cls-5" d="M216.311 142.391h-18.48"/><path class="cls-13" d="M214.151 144.551h-16.32M215.591 143.111h-17.76"/><path class="cls-5" d="M197.831 143.111v-.72"/><path class="cls-13" d="M197.831 144.551v-1.44M216.311 142.391h-18.48M214.151 144.551h-16.32M215.591 147.671v-4.56"/><path class="cls-5" d="M216.311 148.391v-6"/><path class="cls-13" d="M214.151 146.231v-1.68M215.591 147.671v-4.56M216.311 148.391v-6M214.151 146.231v-1.68"/><path class="cls-17" d="M202.391 142.391h9.84v2.4h-9.84z"/><path class="cls-13" d="M202.391 142.391h9.84v2.4h-9.84z"/><path class="cls-17" d="M202.151 142.151h10.56v.24h-10.56z"/><path class="cls-13" d="M202.151 142.151h10.56v.24h-10.56z"/><path class="cls-9" d="M203.111 142.151v-8.4"/><path class="cls-4" d="M211.75 142.15l-.24-1.68-.48-1.44-.72-1.68-1.2-1.2-1.2-.96-1.44-.96-1.68-.48h-1.68"/><path class="cls-13" d="M197.831 147.671h17.76"/><path class="cls-5" d="M197.831 148.391h18.48"/><path class="cls-13" d="M197.831 146.231h16.32M197.831 147.671h17.76M197.831 148.391h18.48M197.831 146.231h16.32"/><path class="cls-5" d="M197.831 147.671v.72"/><path class="cls-13" d="M197.831 146.231v1.44"/><path class="cls-17" d="M248.231 17.111h48.24v50.64h-48.24z"/><path class="cls-13" d="M248.231 17.111h48.24v50.64h-48.24z"/><path class="cls-18" d="M278.183 54.58a3.867 3.867 0 0 0 0 4.275 7.922 7.922 0 0 0 6.2 2.894l7.187-.253V51.94l-7.188-.254a7.921 7.921 0 0 0-6.2 2.894"/><path class="cls-13" d="M278.183 54.58a3.867 3.867 0 0 0 0 4.275 7.922 7.922 0 0 0 6.2 2.894l7.187-.253V51.94l-7.188-.254a7.921 7.921 0 0 0-6.2 2.894"/><path class="cls-18" d="M288.301 56.718a3.837 3.837 0 0 0-1.058-2.783 3.836 3.836 0 0 0-2.731-1.185 6.857 6.857 0 0 0-5.412 2.5 2.73 2.73 0 0 0 0 2.936 6.857 6.857 0 0 0 5.412 2.5 3.836 3.836 0 0 0 2.73-1.186 3.838 3.838 0 0 0 1.06-2.782"/><path class="cls-13" d="M288.301 56.718a3.837 3.837 0 0 0-1.058-2.783 3.836 3.836 0 0 0-2.731-1.185 6.857 6.857 0 0 0-5.412 2.5 2.73 2.73 0 0 0 0 2.936 6.857 6.857 0 0 0 5.412 2.5 3.836 3.836 0 0 0 2.73-1.186 3.838 3.838 0 0 0 1.06-2.782"/><path class="cls-18" d="M291.67 51.91h4.8v9.6h-4.8v-9.6"/><path class="cls-13" d="M291.671 51.911h4.8v9.6h-4.8zM248.231 19.031h48.24M297.191 102.311v-13.68"/><path class="cls-5" d="M296.471 102.311v-14.4"/><path class="cls-13" d="M298.631 102.311v-12.24M297.191 102.311v-13.68M296.471 102.311v-14.4M298.631 102.311v-12.24"/><path class="cls-5" d="M297.191 102.311h-.72"/><path class="cls-13" d="M298.631 102.311h-1.44M301.031 88.631v-18.48"/><path class="cls-5" d="M300.311 87.911v-17.04"/><path class="cls-13" d="M302.471 90.071v-21.36M301.031 88.631v-18.48M300.311 87.911v-17.04M302.471 90.071v-21.36M297.191 70.151v-53.52"/><path class="cls-5" d="M296.471 70.871v-54.24"/><path class="cls-13" d="M298.631 68.711v-52.08M297.191 70.151v-53.52"/><path class="cls-5" d="M297.191 16.631h-.72"/><path class="cls-13" d="M298.631 16.631h-1.44M296.471 70.871v-54.24M298.631 68.711v-52.08"/><path class="cls-18" d="M296.53 71.613h-12.047a1.145 1.145 0 0 0-.802.332 1.123 1.123 0 0 0-.331.802V86.07a1.137 1.137 0 0 0 .698 1.047 1.168 1.168 0 0 0 .435.087h12.048v-15.59"/><path class="cls-13" d="M296.53 71.613h-12.047a1.145 1.145 0 0 0-.802.332 1.123 1.123 0 0 0-.331.802V86.07a1.137 1.137 0 0 0 .698 1.047 1.168 1.168 0 0 0 .435.087h12.048v-15.59"/><path class="cls-10" d="M296.471 87.911h3.84"/><path class="cls-3" d="M300.311 87.911v-17.04"/><path class="cls-10" d="M300.311 70.871h-3.84"/><path class="cls-13" d="M301.031 70.151h-3.84"/><path class="cls-5" d="M300.311 70.871h-3.84"/><path class="cls-13" d="M302.471 68.711h-3.84M301.031 70.151h-3.84M300.311 70.871h-3.84M302.471 68.711h-3.84M297.191 88.631h3.84"/><path class="cls-5" d="M296.471 87.911h3.84"/><path class="cls-13" d="M298.631 90.071h3.84M297.191 88.631h3.84M296.471 87.911h3.84M298.631 90.071h3.84"/><path class="cls-5" d="M296.471 87.911v-17.04"/><path class="cls-19" d="M281.83 327.43v14.64h29.76v-14.64h-29.76"/><path class="cls-18" d="M281.83 342.07v-3.36h29.76v3.36h-29.76"/><path class="cls-12" d="M311.351 339.671l-2.4 2.4M308.471 338.711l-3.36 3.36M304.391 338.711l-3.36 3.36M300.311 338.711l-3.36 3.36M296.231 338.711l-3.36 3.36M292.391 338.711l-3.36 3.36M288.311 338.711l-3.36 3.36M284.231 338.711l-2.64 2.64"/><path class="cls-18" d="M281.83 338.71v-.48h29.76v.48h-29.76"/><path class="cls-18" d="M281.83 338.23v-5.76h29.76v5.76h-29.76"/><path class="cls-12" d="M310.151 332.471v5.76M308.711 332.471v5.76M307.271 332.471v5.76M305.831 332.471v5.76M304.391 332.471v5.76M302.951 332.471v5.76M301.751 332.471v5.76M300.311 332.471v5.76M298.871 332.471v5.76M297.431 332.471v5.76M295.991 332.471v5.76M294.551 332.471v5.76M293.111 332.471v5.76M291.671 332.471v5.76M290.231 332.471v5.76M288.791 332.471v5.76M287.351 332.471v5.76M286.151 332.471v5.76M284.711 332.471v5.76M283.271 332.471v5.76M281.831 332.471v5.76"/><path class="cls-18" d="M281.83 332.47v-5.04h29.76v5.04h-29.76"/><path class="cls-12" d="M311.351 331.511l-.72.96M311.351 327.671l-4.8 4.8M307.511 327.431l-5.04 5.04M303.671 327.431l-5.04 5.04M299.591 327.431l-5.04 5.04M295.511 327.431l-5.04 5.04M291.671 327.431l-5.04 5.04M287.591 327.431l-5.04 5.04M283.511 327.431l-1.92 1.92M281.831 332.471h29.76M281.831 338.231h29.76"/><path class="cls-13" d="M281.831 342.071h29.76M281.831 327.431h29.76"/><path class="cls-19" d="M167.59 327.43v14.64h51.36v-14.64h-51.36"/><path class="cls-18" d="M167.59 342.07v-3.36h51.36v3.36h-51.36"/><path class="cls-12" d="M218.711 340.151l-1.92 1.92M216.071 338.711l-3.36 3.36M212.231 338.711l-3.36 3.36M208.151 338.711l-3.36 3.36M204.071 338.711l-3.36 3.36M200.231 338.711l-3.36 3.36M196.151 338.711l-3.36 3.36M192.071 338.711l-3.36 3.36M187.991 338.711l-3.36 3.36M184.151 338.711l-3.36 3.36M180.071 338.711l-3.36 3.36M175.991 338.711l-3.36 3.36M172.151 338.711l-3.36 3.36M168.071 338.711l-.72.48"/><path class="cls-18" d="M167.59 338.71v-.48h51.36v.48h-51.36"/><path class="cls-18" d="M167.59 338.23v-5.76h51.36v5.76h-51.36"/><path class="cls-12" d="M217.991 332.471v5.76M216.551 332.471v5.76M215.111 332.471v5.76M213.671 332.471v5.76M212.231 332.471v5.76M211.031 332.471v5.76M209.591 332.471v5.76M208.151 332.471v5.76M206.711 332.471v5.76M205.271 332.471v5.76M203.831 332.471v5.76M202.391 332.471v5.76M200.951 332.471v5.76M199.511 332.471v5.76M198.071 332.471v5.76M196.871 332.471v5.76M195.431 332.471v5.76M193.991 332.471v5.76M192.551 332.471v5.76M191.111 332.471v5.76M189.671 332.471v5.76M188.231 332.471v5.76M186.791 332.471v5.76M185.351 332.471v5.76M183.911 332.471v5.76M182.471 332.471v5.76M181.271 332.471v5.76M179.831 332.471v5.76M178.391 332.471v5.76M176.951 332.471v5.76M175.511 332.471v5.76M174.071 332.471v5.76M172.631 332.471v5.76M171.191 332.471v5.76M169.751 332.471v5.76M168.311 332.471v5.76"/><path class="cls-18" d="M167.59 332.47v-5.04h51.36v5.04h-51.36"/><path class="cls-12" d="M218.711 331.991l-.24.48M218.711 327.911l-4.32 4.56M215.351 327.431l-5.04 5.04M211.511 327.431l-5.04 5.04M207.431 327.431l-5.04 5.04M203.351 327.431l-5.04 5.04M199.271 327.431l-5.04 5.04M195.431 327.431l-5.04 5.04M191.351 327.431l-5.04 5.04M187.271 327.431l-5.04 5.04M183.431 327.431l-5.04 5.04M179.351 327.431l-5.04 5.04M175.271 327.431l-5.04 5.04M171.431 327.431l-4.08 3.84M167.591 332.471h51.36M167.591 338.231h51.36"/><path class="cls-13" d="M167.591 342.071h51.36M167.591 327.431h51.36"/><path class="cls-19" d="M95.59 327.43v14.64h31.2v-14.64h-31.2"/><path class="cls-18" d="M95.59 342.07v-3.36h31.2v3.36h-31.2"/><path class="cls-12" d="M126.551 339.911l-1.92 2.16M123.911 338.711l-3.36 3.36M119.831 338.711l-3.36 3.36M115.991 338.711l-3.36 3.36M111.911 338.711l-3.36 3.36M107.831 338.711l-3.36 3.36M103.991 338.711l-3.36 3.36M99.911 338.711l-3.36 3.36M95.831 338.711l-.48.48"/><path class="cls-18" d="M95.59 338.71v-.48h31.2v.48h-31.2"/><path class="cls-18" d="M95.59 338.23v-5.76h31.2v5.76h-31.2"/><path class="cls-12" d="M125.831 332.471v5.76M124.391 332.471v5.76M122.951 332.471v5.76M121.751 332.471v5.76M120.311 332.471v5.76M118.871 332.471v5.76M117.431 332.471v5.76M115.991 332.471v5.76M114.551 332.471v5.76M113.111 332.471v5.76M111.671 332.471v5.76M110.231 332.471v5.76M108.791 332.471v5.76M107.351 332.471v5.76M106.151 332.471v5.76M104.711 332.471v5.76M103.271 332.471v5.76M101.831 332.471v5.76M100.391 332.471v5.76M98.951 332.471v5.76M97.511 332.471v5.76M96.071 332.471v5.76"/><path class="cls-18" d="M95.59 332.47v-5.04h31.2v5.04h-31.2"/><path class="cls-12" d="M126.551 331.991l-.48.48M126.551 327.911l-4.32 4.56M123.191 327.431l-5.04 5.04M119.111 327.431l-5.04 5.04M115.271 327.431l-5.04 5.04M111.191 327.431l-5.04 5.04M107.111 327.431l-5.04 5.04M103.271 327.431l-5.04 5.04M99.191 327.431l-3.84 3.6M95.591 332.471h31.2M95.591 338.231h31.2"/><path class="cls-13" d="M95.591 342.071h31.2M95.591 327.431h31.2"/><path class="cls-1" d="M218.951 327.431h62.88"/><path class="cls-13" d="M218.951 332.471h62.88v2.4h-62.88zM222.551 334.871v-2.4M277.991 334.871v-2.4M218.951 332.471v2.4M237.671 332.471v2.4M222.551 332.471v2.4M241.991 332.471v2.4M237.671 332.471v2.4M258.791 332.471v2.4M241.991 332.471v2.4M262.871 332.471v2.4M258.791 332.471v2.4M277.991 332.471v2.4M262.871 332.471v2.4M281.831 332.471v2.4M283.271 342.071v1.92"/><path class="cls-6" d="M283.271 343.991h-66"/><path class="cls-13" d="M217.271 343.991v-.96"/><path class="cls-18" d="M218.862 338.197h1.84v-3.4h-1.84"/><path class="cls-12" d="M219.431 334.871v3.36M218.862 338.197h1.84v-3.4h-1.84"/><path class="cls-18" d="M218.95 342.07h1.68v-3.36h-1.68"/><path class="cls-12" d="M220.151 338.711l-1.44 1.44"/><path class="cls-18" d="M281.79 338.197h-1.843v-3.4h1.843"/><path class="cls-12" d="M280.391 334.871v3.36M281.79 338.197h-1.843v-3.4h1.843"/><path class="cls-18" d="M281.83 342.07h-1.92v-3.36h1.92"/><path class="cls-12" d="M281.591 341.351l-.72.72M280.391 338.711l-.72.48"/><path class="cls-13" d="M128.47 334.87v7.2h-3.36v1.92h43.92v-1.92h-3.36v-7.2"/><path class="cls-1" d="M126.791 327.431h40.8"/><path class="cls-13" d="M167.111 327.431h.48M126.791 332.471h40.8v2.4h-40.8zM130.391 334.871v-2.4M163.751 334.871v-2.4M126.791 332.471v2.4M145.031 332.471v2.4M130.391 332.471v2.4M149.111 332.471v2.4M145.031 332.471v2.4M163.751 332.471v2.4M149.111 332.471v2.4M167.591 332.471v2.4"/><path class="cls-18" d="M126.736 338.197h1.843v-3.4h-1.843"/><path class="cls-12" d="M127.271 334.871v3.36M126.736 338.197h1.843v-3.4h-1.843"/><path class="cls-18" d="M126.79 342.07h1.68v-3.36h-1.68"/><path class="cls-12" d="M127.991 338.711l-1.44 1.2"/><path class="cls-18" d="M167.555 338.197h-1.843v-3.4h1.843"/><path class="cls-12" d="M167.111 334.871v3.36M165.671 334.871v3.36M167.555 338.197h-1.843v-3.4h1.843"/><path class="cls-18" d="M167.59 342.07h-1.92v-3.36h1.92"/><path class="cls-12" d="M167.351 339.191l-1.92 1.92"/><path class="cls-18" d="M95.59 222.79h7.2v109.68h-7.2V222.79"/><path class="cls-12" d="M95.351 222.791h.24M95.351 226.871l4.32-4.08M95.351 230.951l7.2-7.2M95.351 234.791l7.2-7.2M95.351 238.871l7.2-7.2M95.351 242.951l7.2-7.2M95.351 247.031l7.2-7.2M95.351 250.871l7.2-7.2M95.351 254.951l7.2-7.2M95.351 259.031l7.2-7.2M95.351 262.871l7.2-7.2M95.351 266.951l7.2-7.2M95.351 271.031l7.2-7.2M95.351 275.111l7.2-7.2M95.351 278.951l7.2-7.2M95.351 283.031l7.2-7.2M95.351 287.111l7.2-7.2M95.351 290.951l7.2-7.2M95.351 295.031l7.2-7.2M95.351 299.111l7.2-7.2M95.351 302.951l7.2-7.2M95.351 307.031l7.2-7.2M95.351 311.111l7.2-7.2M95.351 315.191l7.2-7.2M95.351 319.031l7.2-7.2M95.351 323.111l7.2-7.2M95.351 327.191l7.2-7.2M95.351 331.031l7.2-7.2M98.231 332.471l4.32-4.56M102.071 332.471l.48-.48M96.311 332.471l-.96-.72M100.391 332.471l-5.04-4.8M102.551 330.791l-7.2-7.2M102.551 326.951l-7.2-7.2M102.551 322.871l-7.2-7.2M102.551 318.791l-7.2-7.2M102.551 314.711l-7.2-7.2M102.551 310.871l-7.2-7.2M102.551 306.791l-7.2-7.2M102.551 302.711l-7.2-7.2M102.551 298.871l-7.2-7.2M102.551 294.791l-7.2-7.2M102.551 290.711l-7.2-7.2M102.551 286.871l-7.2-7.2M102.551 282.791l-7.2-7.2M102.551 278.711l-7.2-7.2M102.551 274.631l-7.2-7.2M102.551 270.791l-7.2-7.2M102.551 266.711l-7.2-7.2M102.551 262.631l-7.2-7.2M102.551 258.791l-7.2-7.2M102.551 254.711l-7.2-7.2M102.551 250.631l-7.2-7.2M102.551 246.791l-7.2-7.2M102.551 242.711l-7.2-7.2M102.551 238.631l-7.2-7.2M102.551 234.551l-7.2-7.2M102.551 230.711l-7.2-7.2M102.551 226.631l-3.84-3.84"/><path class="cls-18" d="M95.59 222.79h7.2v109.68h-7.2V222.79"/><path class="cls-12" d="M95.351 222.791h.24M95.351 226.871l4.32-4.08M95.351 230.951l7.2-7.2M95.351 234.791l7.2-7.2M95.351 238.871l7.2-7.2M95.351 242.951l7.2-7.2M95.351 247.031l7.2-7.2M95.351 250.871l7.2-7.2M95.351 254.951l7.2-7.2M95.351 259.031l7.2-7.2M95.351 262.871l7.2-7.2M95.351 266.951l7.2-7.2M95.351 271.031l7.2-7.2M95.351 275.111l7.2-7.2M95.351 278.951l7.2-7.2M95.351 283.031l7.2-7.2M95.351 287.111l7.2-7.2M95.351 290.951l7.2-7.2M95.351 295.031l7.2-7.2M95.351 299.111l7.2-7.2M95.351 302.951l7.2-7.2M95.351 307.031l7.2-7.2M95.351 311.111l7.2-7.2M95.351 315.191l7.2-7.2M95.351 319.031l7.2-7.2M95.351 323.111l7.2-7.2M95.351 327.191l7.2-7.2M95.351 331.031l7.2-7.2M98.231 332.471l4.32-4.56M102.071 332.471l.48-.48M96.311 332.471l-.96-.72M100.391 332.471l-5.04-4.8M102.551 330.791l-7.2-7.2M102.551 326.951l-7.2-7.2M102.551 322.871l-7.2-7.2M102.551 318.791l-7.2-7.2M102.551 314.711l-7.2-7.2M102.551 310.871l-7.2-7.2M102.551 306.791l-7.2-7.2M102.551 302.711l-7.2-7.2M102.551 298.871l-7.2-7.2M102.551 294.791l-7.2-7.2M102.551 290.711l-7.2-7.2M102.551 286.871l-7.2-7.2M102.551 282.791l-7.2-7.2M102.551 278.711l-7.2-7.2M102.551 274.631l-7.2-7.2M102.551 270.791l-7.2-7.2M102.551 266.711l-7.2-7.2M102.551 262.631l-7.2-7.2M102.551 258.791l-7.2-7.2M102.551 254.711l-7.2-7.2M102.551 250.631l-7.2-7.2M102.551 246.791l-7.2-7.2M102.551 242.711l-7.2-7.2M102.551 238.631l-7.2-7.2M102.551 234.551l-7.2-7.2M102.551 230.711l-7.2-7.2M102.551 226.631l-3.84-3.84"/><path class="cls-18" d="M197.83 222.79l-6.96-7.2v-72.96h6.96v80.16"/><path class="cls-12" d="M190.631 143.591l1.2-.96M190.631 147.671l5.04-5.04M190.631 151.751l6.96-6.96M190.631 155.591l6.96-6.96M190.631 159.671l6.96-6.96M190.631 163.751l6.96-6.96M190.631 167.591l6.96-6.96M190.631 171.671l6.96-6.96M190.631 175.751l6.96-6.96M190.631 179.831l6.96-6.96M190.631 183.671l6.96-6.96M190.631 187.751l6.96-6.96M190.631 191.831l6.96-6.96M190.631 195.671l6.96-6.96M190.631 199.751l6.96-6.96M190.631 203.831l6.96-6.96M190.631 207.671l6.96-6.96M190.631 211.751l6.96-6.96M190.871 215.591l6.72-6.72M192.791 217.751l4.8-4.8M194.711 219.671l2.88-2.88M196.871 221.831l.72-.96M197.591 221.351l-6.96-6.96M197.591 217.511l-6.96-6.96M197.591 213.431l-6.96-6.96M197.591 209.351l-6.96-6.96M197.591 205.511l-6.96-6.96M197.591 201.431l-6.96-6.96M197.591 197.351l-6.96-6.96M197.591 193.271l-6.96-6.96M197.591 189.431l-6.96-6.96M197.591 185.351l-6.96-6.96M197.591 181.271l-6.96-6.96M197.591 177.431l-6.96-6.96M197.591 173.351l-6.96-6.96M197.591 169.271l-6.96-6.96M197.591 165.431l-6.96-6.96M197.591 161.351l-6.96-6.96M197.591 157.271l-6.96-6.96M197.591 153.191l-6.96-6.96M197.591 149.351l-6.48-6.72M197.591 145.271l-2.64-2.64"/><path class="cls-18" d="M197.83 222.79l-6.96-7.2v-72.96h6.96v80.16"/><path class="cls-12" d="M190.631 143.591l1.2-.96M190.631 147.671l5.04-5.04M190.631 151.751l6.96-6.96M190.631 155.591l6.96-6.96M190.631 159.671l6.96-6.96M190.631 163.751l6.96-6.96M190.631 167.591l6.96-6.96M190.631 171.671l6.96-6.96M190.631 175.751l6.96-6.96M190.631 179.831l6.96-6.96M190.631 183.671l6.96-6.96M190.631 187.751l6.96-6.96M190.631 191.831l6.96-6.96M190.631 195.671l6.96-6.96M190.631 199.751l6.96-6.96M190.631 203.831l6.96-6.96M190.631 207.671l6.96-6.96M190.631 211.751l6.96-6.96M190.871 215.591l6.72-6.72M192.791 217.751l4.8-4.8M194.711 219.671l2.88-2.88M196.871 221.831l.72-.96M197.591 221.351l-6.96-6.96M197.591 217.511l-6.96-6.96M197.591 213.431l-6.96-6.96M197.591 209.351l-6.96-6.96M197.591 205.511l-6.96-6.96M197.591 201.431l-6.96-6.96M197.591 197.351l-6.96-6.96M197.591 193.271l-6.96-6.96M197.591 189.431l-6.96-6.96M197.591 185.351l-6.96-6.96M197.591 181.271l-6.96-6.96M197.591 177.431l-6.96-6.96M197.591 173.351l-6.96-6.96M197.591 169.271l-6.96-6.96M197.591 165.431l-6.96-6.96M197.591 161.351l-6.96-6.96M197.591 157.271l-6.96-6.96M197.591 153.191l-6.96-6.96M197.591 149.351l-6.48-6.72M197.591 145.271l-2.64-2.64"/><path class="cls-18" d="M197.83 107.11h-4.8l4.8-4.8v4.8"/><path class="cls-12" d="M195.191 107.111l2.4-2.4M195.671 107.111l-1.44-1.44M197.591 105.191l-1.44-1.44"/><path class="cls-18" d="M197.83 107.11h-4.8l4.8-4.8v4.8"/><path class="cls-12" d="M195.191 107.111l2.4-2.4M195.671 107.111l-1.44-1.44M197.591 105.191l-1.44-1.44"/><path class="cls-13" d="M196.871 107.111h1.68v2.4h-1.68zM196.871 136.871h1.68v5.76h-1.68z"/><path class="cls-13" d="M196.871 109.511h1.68v27.36h-1.68zM196.871 109.511v27.36"/><path class="cls-1" d="M190.871 109.271v27.84"/><path class="cls-13" d="M190.871 136.631v.48"/><path class="cls-18" d="M190.87 107.11v2.16h6v-2.16"/><path class="cls-12" d="M190.631 107.591l.48-.48M193.031 109.271l2.16-2.16M193.751 109.271l-2.16-2.16M196.631 108.311l-.96-1.2"/><path class="cls-18" d="M190.87 142.63v-5.52h6v5.52"/><path class="cls-12" d="M190.631 139.511l2.64-2.4M191.831 142.631l4.8-5.04M195.671 142.631l.96-.96M191.111 142.631l-.48-.24M194.951 142.631l-4.32-4.32M196.631 140.231l-3.12-3.12M225.664 109.584c0 14.928-12.283 27.212-27.212 27.212M198.551 109.511h27.12"/><path class="cls-18" d="M.55 102.31l4.8 4.8H.55v-4.8"/><path class="cls-12" d="M.311 105.431l1.68-1.44M2.711 107.111l1.2-1.2M3.191 107.111l-2.88-2.88"/><path class="cls-18" d="M.55 102.31l4.8 4.8H.55v-4.8"/><path class="cls-12" d="M.311 105.431l1.68-1.44M2.711 107.111l1.2-1.2M3.191 107.111l-2.88-2.88"/><path class="cls-18" d="M7.75 142.63v70.08l-7.2 10.08v-80.16h7.2"/><path class="cls-12" d="M.311 145.511l3.12-2.88M.311 149.591l6.96-6.96M.311 153.671l7.2-7.2M.311 157.511l7.2-7.2M.311 161.591l7.2-7.2M.311 165.671l7.2-7.2M.311 169.511l7.2-7.2M.311 173.591l7.2-7.2M.311 177.671l7.2-7.2M.311 181.511l7.2-7.2M.311 185.591l7.2-7.2M.311 189.671l7.2-7.2M.311 193.751l7.2-7.2M.311 197.591l7.2-7.2M.311 201.671l7.2-7.2M.311 205.751l7.2-7.2M.311 209.591l7.2-7.2M.311 213.671l7.2-7.2M.311 217.751l7.2-7.2M.311 221.591l2.88-2.64M1.271 221.591l-.96-.96M2.951 219.191l-2.64-2.64M4.631 216.791l-4.32-4.32M6.311 214.391l-6-5.76M7.511 211.751l-7.2-7.2M7.511 207.671l-7.2-7.2M7.511 203.831l-7.2-7.2M7.511 199.751l-7.2-7.2M7.511 195.671l-7.2-7.2M7.511 191.831l-7.2-7.2M7.511 187.751l-7.2-7.2M7.511 183.671l-7.2-7.2M7.511 179.591l-7.2-7.2M7.511 175.751l-7.2-7.2M7.511 171.671l-7.2-7.2M7.511 167.591l-7.2-7.2M7.511 163.751l-7.2-7.2M7.511 159.671l-7.2-7.2M7.511 155.591l-7.2-7.2M7.511 151.751l-7.2-7.2M7.511 147.671l-4.8-5.04M7.511 143.591l-.96-.96"/><path class="cls-18" d="M7.75 142.63v70.08l-7.2 10.08v-80.16h7.2"/><path class="cls-12" d="M.311 145.511l3.12-2.88M.311 149.591l6.96-6.96M.311 153.671l7.2-7.2M.311 157.511l7.2-7.2M.311 161.591l7.2-7.2M.311 165.671l7.2-7.2M.311 169.511l7.2-7.2M.311 173.591l7.2-7.2M.311 177.671l7.2-7.2M.311 181.511l7.2-7.2M.311 185.591l7.2-7.2M.311 189.671l7.2-7.2M.311 193.751l7.2-7.2M.311 197.591l7.2-7.2M.311 201.671l7.2-7.2M.311 205.751l7.2-7.2M.311 209.591l7.2-7.2M.311 213.671l7.2-7.2M.311 217.751l7.2-7.2M.311 221.591l2.88-2.64M1.271 221.591l-.96-.96M2.951 219.191l-2.64-2.64M4.631 216.791l-4.32-4.32M6.311 214.391l-6-5.76M7.511 211.751l-7.2-7.2M7.511 207.671l-7.2-7.2M7.511 203.831l-7.2-7.2M7.511 199.751l-7.2-7.2M7.511 195.671l-7.2-7.2M7.511 191.831l-7.2-7.2M7.511 187.751l-7.2-7.2M7.511 183.671l-7.2-7.2M7.511 179.591l-7.2-7.2M7.511 175.751l-7.2-7.2M7.511 171.671l-7.2-7.2M7.511 167.591l-7.2-7.2M7.511 163.751l-7.2-7.2M7.511 159.671l-7.2-7.2M7.511 155.591l-7.2-7.2M7.511 151.751l-7.2-7.2M7.511 147.671l-4.8-5.04M7.511 143.591l-.96-.96"/><path class="cls-13" d="M.071 136.871h1.68v5.76H.071zM.071 107.111h1.68v2.4H.071z"/><path class="cls-13" d="M.071 109.511h1.68v27.36H.071zM1.751 136.871v-27.36"/><path class="cls-1" d="M7.751 137.111v-27.84"/><path class="cls-13" d="M7.751 109.751v-.48"/><path class="cls-18" d="M7.75 142.63v-5.52h-6v5.52"/><path class="cls-12" d="M1.511 140.231l3.36-3.12M3.431 142.631l4.08-4.32M7.271 142.631l.24-.24M2.711 142.631l-1.2-.96M6.551 142.631l-5.04-5.04M7.511 139.511l-2.4-2.4"/><path class="cls-18" d="M7.75 107.11v2.16h-6v-2.16"/><path class="cls-12" d="M1.511 108.311l1.2-1.2M4.631 109.271l2.16-2.16M5.351 109.271l-2.16-2.16M7.511 107.591l-.24-.48"/><path class="cls-18" d="M53.11 157.99l5.52-10.08v74.88l-5.52-10.08v-54.72"/><path class="cls-12" d="M54.071 156.071l4.32-4.56M52.871 161.111l5.52-5.52M52.871 165.191l5.52-5.52M52.871 169.031l5.52-5.52M52.871 173.111l5.52-5.52M52.871 177.191l5.52-5.52M52.871 181.271l5.52-5.52M52.871 185.111l5.52-5.52M52.871 189.191l5.52-5.52M52.871 193.271l5.52-5.52M52.871 197.111l5.52-5.52M52.871 201.191l5.52-5.52M52.871 205.271l5.52-5.52M52.871 209.351l5.52-5.52M53.111 212.951l5.28-5.28M54.551 215.591l3.84-3.84M55.991 218.231l2.4-2.4M57.431 220.871l.96-1.2M58.391 222.551l-.24-.24M58.391 218.471l-5.04-5.04M58.391 214.631l-5.52-5.52M58.391 210.551l-5.52-5.52M58.391 206.471l-5.52-5.52M58.391 202.631l-5.52-5.52M58.391 198.551l-5.52-5.52M58.391 194.471l-5.52-5.52M58.391 190.391l-5.52-5.52M58.391 186.551l-5.52-5.52M58.391 182.471l-5.52-5.52M58.391 178.391l-5.52-5.52M58.391 174.551l-5.52-5.52M58.391 170.471l-5.52-5.52M58.391 166.391l-5.52-5.52M58.391 162.311l-5.04-5.04M58.391 158.471l-3.6-3.84M58.391 154.391l-2.16-2.4M58.391 150.311l-.72-.72"/><path class="cls-18" d="M53.11 157.99l5.52-10.08v74.88l-5.52-10.08v-54.72"/><path class="cls-12" d="M54.071 156.071l4.32-4.56M52.871 161.111l5.52-5.52M52.871 165.191l5.52-5.52M52.871 169.031l5.52-5.52M52.871 173.111l5.52-5.52M52.871 177.191l5.52-5.52M52.871 181.271l5.52-5.52M52.871 185.111l5.52-5.52M52.871 189.191l5.52-5.52M52.871 193.271l5.52-5.52M52.871 197.111l5.52-5.52M52.871 201.191l5.52-5.52M52.871 205.271l5.52-5.52M52.871 209.351l5.52-5.52M53.111 212.951l5.28-5.28M54.551 215.591l3.84-3.84M55.991 218.231l2.4-2.4M57.431 220.871l.96-1.2M58.391 222.551l-.24-.24M58.391 218.471l-5.04-5.04M58.391 214.631l-5.52-5.52M58.391 210.551l-5.52-5.52M58.391 206.471l-5.52-5.52M58.391 202.631l-5.52-5.52M58.391 198.551l-5.52-5.52M58.391 194.471l-5.52-5.52M58.391 190.391l-5.52-5.52M58.391 186.551l-5.52-5.52M58.391 182.471l-5.52-5.52M58.391 178.391l-5.52-5.52M58.391 174.551l-5.52-5.52M58.391 170.471l-5.52-5.52M58.391 166.391l-5.52-5.52M58.391 162.311l-5.04-5.04M58.391 158.471l-3.6-3.84M58.391 154.391l-2.16-2.4M58.391 150.311l-.72-.72"/><path class="cls-18" d="M197.83 102.31l-6.96 6.96H7.75l-7.2-6.96h197.28"/><path class="cls-12" d="M1.991 103.751l1.68-1.44M4.151 105.911l3.36-3.6M6.071 107.831l5.52-5.52M8.711 109.271l6.96-6.96M12.551 109.271l6.96-6.96M16.631 109.271l6.96-6.96M20.711 109.271l6.96-6.96M24.791 109.271l6.96-6.96M28.631 109.271l6.96-6.96M32.711 109.271l6.96-6.96M36.791 109.271l6.96-6.96M40.631 109.271l6.96-6.96M44.711 109.271l6.96-6.96M48.791 109.271l6.96-6.96M52.631 109.271l6.96-6.96M56.711 109.271l6.96-6.96M60.791 109.271l6.96-6.96M64.871 109.271l6.96-6.96M68.711 109.271l6.96-6.96M72.791 109.271l6.96-6.96M76.871 109.271l6.96-6.96M80.711 109.271l6.96-6.96M84.791 109.271l6.96-6.96M88.871 109.271l6.96-6.96M92.711 109.271l6.96-6.96M96.791 109.271l6.96-6.96M100.871 109.271l6.96-6.96M104.951 109.271l6.96-6.96M108.791 109.271l6.96-6.96M112.871 109.271l6.96-6.96M116.951 109.271l6.96-6.96M120.791 109.271l6.96-6.96M124.871 109.271l6.96-6.96M128.951 109.271l6.96-6.96M133.031 109.271l6.96-6.96M136.871 109.271l6.96-6.96M140.951 109.271l6.96-6.96M145.031 109.271l6.96-6.96M148.871 109.271l6.96-6.96M152.951 109.271l6.96-6.96M157.031 109.271l6.96-6.96M160.871 109.271l6.96-6.96M164.951 109.271l6.96-6.96M169.031 109.271l6.96-6.96M173.111 109.271l6.96-6.96M176.951 109.271l6.96-6.96M181.031 109.271l6.96-6.96M185.111 109.271l6.96-6.96M188.951 109.271l6.96-6.96M9.431 109.271l-6.96-6.96M13.271 109.271l-6.96-6.96M17.351 109.271l-6.96-6.96M21.431 109.271l-6.96-6.96M25.511 109.271l-6.96-6.96M29.351 109.271l-6.96-6.96M33.431 109.271l-6.96-6.96M37.511 109.271l-6.96-6.96M41.351 109.271l-6.96-6.96M45.431 109.271l-6.96-6.96M49.511 109.271l-6.96-6.96M53.351 109.271l-6.96-6.96M57.431 109.271l-6.96-6.96M61.511 109.271l-6.96-6.96M65.591 109.271l-6.96-6.96M69.431 109.271l-6.96-6.96M73.511 109.271l-6.96-6.96M77.591 109.271l-6.96-6.96M81.431 109.271l-6.96-6.96M85.511 109.271l-6.96-6.96M89.591 109.271l-6.96-6.96M93.431 109.271l-6.96-6.96M97.511 109.271l-6.96-6.96M101.591 109.271l-6.96-6.96M105.671 109.271l-6.96-6.96M109.511 109.271l-6.96-6.96M113.591 109.271l-6.96-6.96M117.671 109.271l-6.96-6.96M121.511 109.271l-6.96-6.96M125.591 109.271l-6.96-6.96M129.671 109.271l-6.96-6.96M133.751 109.271l-6.96-6.96M137.591 109.271l-6.96-6.96M141.671 109.271l-6.96-6.96M145.751 109.271l-6.96-6.96M149.591 109.271l-6.96-6.96M153.671 109.271l-6.96-6.96M157.751 109.271l-6.96-6.96M161.591 109.271l-6.96-6.96M165.671 109.271l-6.96-6.96M169.751 109.271l-6.96-6.96M173.831 109.271l-6.96-6.96M177.671 109.271l-6.96-6.96M181.751 109.271l-6.96-6.96M185.831 109.271l-6.96-6.96M189.671 109.271l-6.96-6.96M192.311 107.831l-5.52-5.52M194.231 105.671l-3.36-3.36M196.151 103.751l-1.44-1.44"/><path class="cls-18" d="M197.83 102.31l-6.96 6.96H7.75l-7.2-6.96h197.28"/><path class="cls-12" d="M1.991 103.751l1.68-1.44M4.151 105.911l3.36-3.6M6.071 107.831l5.52-5.52M8.711 109.271l6.96-6.96M12.551 109.271l6.96-6.96M16.631 109.271l6.96-6.96M20.711 109.271l6.96-6.96M24.791 109.271l6.96-6.96M28.631 109.271l6.96-6.96M32.711 109.271l6.96-6.96M36.791 109.271l6.96-6.96M40.631 109.271l6.96-6.96M44.711 109.271l6.96-6.96M48.791 109.271l6.96-6.96M52.631 109.271l6.96-6.96M56.711 109.271l6.96-6.96M60.791 109.271l6.96-6.96M64.871 109.271l6.96-6.96M68.711 109.271l6.96-6.96M72.791 109.271l6.96-6.96M76.871 109.271l6.96-6.96M80.711 109.271l6.96-6.96M84.791 109.271l6.96-6.96M88.871 109.271l6.96-6.96M92.711 109.271l6.96-6.96M96.791 109.271l6.96-6.96M100.871 109.271l6.96-6.96M104.951 109.271l6.96-6.96M108.791 109.271l6.96-6.96M112.871 109.271l6.96-6.96M116.951 109.271l6.96-6.96M120.791 109.271l6.96-6.96M124.871 109.271l6.96-6.96M128.951 109.271l6.96-6.96M133.031 109.271l6.96-6.96M136.871 109.271l6.96-6.96M140.951 109.271l6.96-6.96M145.031 109.271l6.96-6.96M148.871 109.271l6.96-6.96M152.951 109.271l6.96-6.96M157.031 109.271l6.96-6.96M160.871 109.271l6.96-6.96M164.951 109.271l6.96-6.96M169.031 109.271l6.96-6.96M173.111 109.271l6.96-6.96M176.951 109.271l6.96-6.96M181.031 109.271l6.96-6.96M185.111 109.271l6.96-6.96M188.951 109.271l6.96-6.96M9.431 109.271l-6.96-6.96M13.271 109.271l-6.96-6.96M17.351 109.271l-6.96-6.96M21.431 109.271l-6.96-6.96M25.511 109.271l-6.96-6.96M29.351 109.271l-6.96-6.96M33.431 109.271l-6.96-6.96M37.511 109.271l-6.96-6.96M41.351 109.271l-6.96-6.96M45.431 109.271l-6.96-6.96M49.511 109.271l-6.96-6.96M53.351 109.271l-6.96-6.96M57.431 109.271l-6.96-6.96M61.511 109.271l-6.96-6.96M65.591 109.271l-6.96-6.96M69.431 109.271l-6.96-6.96M73.511 109.271l-6.96-6.96M77.591 109.271l-6.96-6.96M81.431 109.271l-6.96-6.96M85.511 109.271l-6.96-6.96M89.591 109.271l-6.96-6.96M93.431 109.271l-6.96-6.96M97.511 109.271l-6.96-6.96M101.591 109.271l-6.96-6.96M105.671 109.271l-6.96-6.96M109.511 109.271l-6.96-6.96M113.591 109.271l-6.96-6.96M117.671 109.271l-6.96-6.96M121.511 109.271l-6.96-6.96M125.591 109.271l-6.96-6.96M129.671 109.271l-6.96-6.96M133.751 109.271l-6.96-6.96M137.591 109.271l-6.96-6.96M141.671 109.271l-6.96-6.96M145.751 109.271l-6.96-6.96M149.591 109.271l-6.96-6.96M153.671 109.271l-6.96-6.96M157.751 109.271l-6.96-6.96M161.591 109.271l-6.96-6.96M165.671 109.271l-6.96-6.96M169.751 109.271l-6.96-6.96M173.831 109.271l-6.96-6.96M177.671 109.271l-6.96-6.96M181.751 109.271l-6.96-6.96M185.831 109.271l-6.96-6.96M189.671 109.271l-6.96-6.96M192.311 107.831l-5.52-5.52M194.231 105.671l-3.36-3.36M196.151 103.751l-1.44-1.44"/><path class="cls-18" d="M.55 222.79l7.2-10.08h45.36l5.52 10.08H.55"/><path class="cls-12" d="M3.191 218.951l6.24-6.24M3.431 222.791l10.08-10.08M7.271 222.791l10.08-10.08M11.351 222.791l10.08-10.08M15.431 222.791l10.08-10.08M19.511 222.791l10.08-10.08M23.351 222.791l10.08-10.08M27.431 222.791l10.08-10.08M31.511 222.791l10.08-10.08M35.351 222.791l10.08-10.08M39.431 222.791l10.08-10.08M43.511 222.791l9.6-9.84M47.351 222.791l7.2-7.2M51.431 222.791l4.56-4.56M55.511 222.791l1.92-1.92M2.711 222.791l-1.44-1.2M6.551 222.791l-3.6-3.6M10.631 222.791l-6-6M14.711 222.791l-8.4-8.4M18.551 222.791l-10.08-10.08M22.631 222.791l-10.08-10.08M26.711 222.791l-10.08-10.08M30.791 222.791l-10.08-10.08M34.631 222.791l-10.08-10.08M38.711 222.791l-10.08-10.08M42.791 222.791l-10.08-10.08M46.631 222.791l-10.08-10.08M50.711 222.791l-10.08-10.08M54.791 222.791l-10.08-10.08M58.151 222.311l-9.6-9.6M53.351 213.431l-.72-.72"/><path class="cls-18" d="M.55 222.79l7.2-10.08h45.36l5.52 10.08H.55"/><path class="cls-12" d="M3.191 218.951l6.24-6.24M3.431 222.791l10.08-10.08M7.271 222.791l10.08-10.08M11.351 222.791l10.08-10.08M15.431 222.791l10.08-10.08M19.511 222.791l10.08-10.08M23.351 222.791l10.08-10.08M27.431 222.791l10.08-10.08M31.511 222.791l10.08-10.08M35.351 222.791l10.08-10.08M39.431 222.791l10.08-10.08M43.511 222.791l9.6-9.84M47.351 222.791l7.2-7.2M51.431 222.791l4.56-4.56M55.511 222.791l1.92-1.92M2.711 222.791l-1.44-1.2M6.551 222.791l-3.6-3.6M10.631 222.791l-6-6M14.711 222.791l-8.4-8.4M18.551 222.791l-10.08-10.08M22.631 222.791l-10.08-10.08M26.711 222.791l-10.08-10.08M30.791 222.791l-10.08-10.08M34.631 222.791l-10.08-10.08M38.711 222.791l-10.08-10.08M42.791 222.791l-10.08-10.08M46.631 222.791l-10.08-10.08M50.711 222.791l-10.08-10.08M54.791 222.791l-10.08-10.08M58.151 222.311l-9.6-9.6M53.351 213.431l-.72-.72"/><path class="cls-18" d="M43.51 147.91h15.12l-5.52 10.08h-9.6v-10.08"/><path class="cls-12" d="M43.271 150.791l2.88-2.88M43.271 154.631l6.96-6.72M43.991 157.991l10.08-10.08M48.071 157.991l10.08-10.08M52.151 157.991l1.92-1.92M46.151 157.991l-2.88-2.64M49.991 157.991l-6.72-6.72M53.351 157.271l-9.36-9.36M54.791 154.631l-6.72-6.72M56.231 151.991l-4.32-4.08M57.671 149.591l-1.68-1.68"/><path class="cls-18" d="M43.51 147.91h15.12l-5.52 10.08h-9.6v-10.08"/><path class="cls-12" d="M43.271 150.791l2.88-2.88M43.271 154.631l6.96-6.72M43.991 157.991l10.08-10.08M48.071 157.991l10.08-10.08M52.151 157.991l1.92-1.92M46.151 157.991l-2.88-2.64M49.991 157.991l-6.72-6.72M53.351 157.271l-9.36-9.36M54.791 154.631l-6.72-6.72M56.231 151.991l-4.32-4.08M57.671 149.591l-1.68-1.68"/><path class="cls-13" d="M40.391 156.551h-29.52"/><path class="cls-1" d="M40.391 147.911h-29.52"/><path class="cls-13" d="M11.351 147.911h-.48"/><path class="cls-18" d="M43.51 147.91h-3.12v8.64h3.12"/><path class="cls-12" d="M40.151 149.831l1.92-1.92M40.151 153.911l3.12-3.12M41.591 156.551l1.68-1.92M40.631 156.551l-.48-.24M43.271 155.351l-3.12-3.12M43.271 151.271l-3.12-3.12"/><path class="cls-18" d="M7.75 147.91h3.12v8.64H7.75"/><path class="cls-12" d="M7.511 150.311l2.64-2.4M7.511 154.391l3.12-3.12M9.431 156.551l1.2-1.2M8.471 156.551l-.96-.96M10.631 154.871l-3.12-3.12M10.631 150.791l-2.64-2.88"/><path class="cls-13" d="M298.15 342.07l-7.44 40.8h-80.88l-7.2-40.8"/><path class="cls-13" d="M299.83 342.07l-7.68 42.72h-83.76l-7.44-42.72"/><path class="cls-18" d="M197.83 288.07l-4.08 4.8v-70.08h4.08v65.28"/><path class="cls-12" d="M197.591 225.671l-2.64-2.88M197.591 229.751l-4.08-4.08M197.591 234.071l-4.08-4.08M197.591 238.391l-4.08-4.08M197.591 242.711l-4.08-4.08M197.591 246.791l-4.08-4.08M197.591 251.111l-4.08-4.08M197.591 255.431l-4.08-4.08M197.591 259.511l-4.08-4.08M197.591 263.831l-4.08-4.08M197.591 268.151l-4.08-4.08M197.591 272.471l-4.08-4.08M197.591 276.551l-4.08-4.08M197.591 280.871l-4.08-4.08M197.591 285.191l-4.08-4.08M197.111 288.791l-3.6-3.6M195.191 290.951l-1.68-1.44"/><path class="cls-18" d="M197.83 288.07l-4.08 4.8v-70.08h4.08v65.28"/><path class="cls-12" d="M197.591 225.671l-2.64-2.88M197.591 229.751l-4.08-4.08M197.591 234.071l-4.08-4.08M197.591 238.391l-4.08-4.08M197.591 242.711l-4.08-4.08M197.591 246.791l-4.08-4.08M197.591 251.111l-4.08-4.08M197.591 255.431l-4.08-4.08M197.591 259.511l-4.08-4.08M197.591 263.831l-4.08-4.08M197.591 268.151l-4.08-4.08M197.591 272.471l-4.08-4.08M197.591 276.551l-4.08-4.08M197.591 280.871l-4.08-4.08M197.591 285.191l-4.08-4.08M197.111 288.791l-3.6-3.6M195.191 290.951l-1.68-1.44"/><path class="cls-13" d="M191.591 292.631h1.2v34.56h-1.2zM190.151 325.271h1.44v.72h-1.44zM192.791 325.271h1.44v.72h-1.44zM186.551 317.111v-10.08M188.71 310.63l-2.16-3.6-2.16 3.6"/><path class="cls-15" d="M192.791 262.151v34.56"/><path class="cls-13" d="M192.791 296.711h-.72"/><path class="cls-15" d="M191.591 296.711v-34.56"/><path class="cls-13" d="M191.591 262.151h.72M190.151 295.511h1.44M190.871 294.791h-.72M190.151 294.791v.72M194.231 294.791h-1.44M193.511 295.511h.72M194.231 295.511v-.72"/><path class="cls-18" d="M215.83 292.87h-22.08l4.08-4.8h18v4.8"/><path class="cls-12" d="M215.591 290.471l-2.16-2.4M213.911 292.871l-4.8-4.8M209.831 292.871l-4.8-4.8M205.511 292.871l-4.8-4.8M201.191 292.871l-4.08-4.08M196.871 292.871l-1.68-1.92"/><path class="cls-18" d="M215.83 292.87h-22.08l4.08-4.8h18v4.8"/><path class="cls-12" d="M215.591 290.471l-2.16-2.4M213.911 292.871l-4.8-4.8M209.831 292.871l-4.8-4.8M205.511 292.871l-4.8-4.8M201.191 292.871l-4.08-4.08M196.871 292.871l-1.68-1.92"/><path class="cls-18" d="M102.79 222.79l-4.32-1.44v2.88l4.32-1.44"/><path class="cls-12" d="M98.231 223.991l2.16-1.92M99.671 223.751l-1.44-1.44"/><path class="cls-19" d="M126.79 16.63V1.99h-31.2v14.64h31.2"/><path class="cls-18" d="M126.79 1.99v3.36h-31.2V1.99h31.2"/><path class="cls-12" d="M126.551 3.191l-1.92 2.16M123.911 1.991l-3.36 3.36M119.831 1.991l-3.36 3.36M115.991 1.991l-3.36 3.36M111.911 1.991l-3.36 3.36M107.831 1.991l-3.36 3.36M103.991 1.991l-3.36 3.36M99.911 1.991l-3.36 3.36M95.831 1.991l-.48.48"/><path class="cls-18" d="M126.79 5.35v.72h-31.2v-.72h31.2M126.79 6.07v5.52h-31.2V6.07h31.2"/><path class="cls-12" d="M96.071 11.591v-5.52M97.511 11.591v-5.52M98.951 11.591v-5.52M100.391 11.591v-5.52M101.831 11.591v-5.52M103.271 11.591v-5.52M104.711 11.591v-5.52M106.151 11.591v-5.52M107.351 11.591v-5.52M108.791 11.591v-5.52M110.231 11.591v-5.52M111.671 11.591v-5.52M113.111 11.591v-5.52M114.551 11.591v-5.52M115.991 11.591v-5.52M117.431 11.591v-5.52M118.871 11.591v-5.52M120.311 11.591v-5.52M121.751 11.591v-5.52M122.951 11.591v-5.52M124.391 11.591v-5.52M125.831 11.591v-5.52"/><path class="cls-18" d="M126.79 11.59v5.04h-31.2v-5.04h31.2"/><path class="cls-12" d="M126.551 15.191l-1.2 1.44M126.311 11.591l-5.04 5.04M122.471 11.591l-5.04 5.04M118.391 11.591l-5.04 5.04M114.311 11.591l-5.04 5.04M110.231 11.591l-5.04 5.04M106.391 11.591l-5.04 5.04M102.311 11.591l-5.04 5.04M98.231 11.591l-2.88 2.88M126.791 11.591h-31.2M126.791 6.071h-31.2"/><path class="cls-13" d="M126.791 1.991h-31.2M126.791 16.631h-31.2"/><path class="cls-19" d="M259.51 16.63V1.99h-69.84v14.64h69.84"/><path class="cls-18" d="M259.51 1.99v3.36h-69.84V1.99h69.84"/><path class="cls-12" d="M259.271 2.951l-2.4 2.4M256.151 1.991l-3.36 3.36M252.311 1.991l-3.36 3.36M248.231 1.991l-3.36 3.36M244.151 1.991l-3.36 3.36M240.311 1.991l-3.36 3.36M236.231 1.991l-3.36 3.36M232.151 1.991l-3.36 3.36M228.071 1.991l-3.36 3.36M224.231 1.991l-3.36 3.36M220.151 1.991l-3.36 3.36M216.071 1.991l-3.36 3.36M212.231 1.991l-3.36 3.36M208.151 1.991l-3.36 3.36M204.071 1.991l-3.36 3.36M199.991 1.991l-3.36 3.36M196.151 1.991l-3.36 3.36M192.071 1.991l-2.64 2.64"/><path class="cls-18" d="M259.51 5.35v.72h-69.84v-.72h69.84M259.51 6.07v5.52h-69.84V6.07h69.84"/><path class="cls-12" d="M189.671 11.591v-5.52M191.111 11.591v-5.52M192.551 11.591v-5.52M193.991 11.591v-5.52M195.431 11.591v-5.52M196.871 11.591v-5.52M198.071 11.591v-5.52M199.511 11.591v-5.52M200.951 11.591v-5.52M202.391 11.591v-5.52M203.831 11.591v-5.52M205.271 11.591v-5.52M206.711 11.591v-5.52M208.151 11.591v-5.52M209.591 11.591v-5.52M211.031 11.591v-5.52M212.231 11.591v-5.52M213.671 11.591v-5.52M215.111 11.591v-5.52M216.551 11.591v-5.52M217.991 11.591v-5.52M219.431 11.591v-5.52M220.871 11.591v-5.52M222.311 11.591v-5.52M223.751 11.591v-5.52M225.191 11.591v-5.52M226.631 11.591v-5.52M227.831 11.591v-5.52M229.271 11.591v-5.52M230.711 11.591v-5.52M232.151 11.591v-5.52M233.591 11.591v-5.52M235.031 11.591v-5.52M236.471 11.591v-5.52M237.911 11.591v-5.52M239.351 11.591v-5.52M240.791 11.591v-5.52M242.231 11.591v-5.52M243.431 11.591v-5.52M244.871 11.591v-5.52M246.311 11.591v-5.52M247.751 11.591v-5.52M249.191 11.591v-5.52M250.631 11.591v-5.52M252.071 11.591v-5.52M253.511 11.591v-5.52M254.951 11.591v-5.52M256.391 11.591v-5.52M257.591 11.591v-5.52M259.031 11.591v-5.52"/><path class="cls-18" d="M259.51 11.59v5.04h-69.84v-5.04h69.84"/><path class="cls-12" d="M259.271 14.951l-1.68 1.68M258.551 11.591l-5.04 5.04M254.711 11.591l-5.04 5.04M250.631 11.591l-5.04 5.04M246.551 11.591l-5.04 5.04M242.711 11.591l-5.04 5.04M238.631 11.591l-5.04 5.04M234.551 11.591l-5.04 5.04M230.711 11.591l-5.04 5.04M226.631 11.591l-5.04 5.04M222.551 11.591l-5.04 5.04M218.471 11.591l-5.04 5.04M214.631 11.591l-5.04 5.04M210.551 11.591l-5.04 5.04M206.471 11.591l-5.04 5.04M202.631 11.591l-5.04 5.04M198.551 11.591l-5.04 5.04M194.471 11.591l-5.04 5.04M190.391 11.591l-.96.96M259.511 11.591h-69.84M259.511 6.071h-69.84"/><path class="cls-13" d="M259.511 1.991h-69.84M259.511 16.631h-69.84"/><path class="cls-19" d="M311.59 16.63V1.99h-33.6v14.64h33.6"/><path class="cls-18" d="M311.59 1.99v3.36h-33.6V1.99h33.6"/><path class="cls-12" d="M311.351 2.951l-2.4 2.4M308.231 1.991l-3.36 3.36M304.391 1.991l-3.36 3.36M300.311 1.991l-3.36 3.36M296.231 1.991l-3.36 3.36M292.391 1.991l-3.36 3.36M288.311 1.991l-3.36 3.36M284.231 1.991l-3.36 3.36M280.391 1.991l-2.64 2.4"/><path class="cls-18" d="M311.59 5.35v.72h-33.6v-.72h33.6M311.59 6.07v5.52h-33.6V6.07h33.6"/><path class="cls-12" d="M278.951 11.591v-5.52M280.391 11.591v-5.52M281.831 11.591v-5.52M283.271 11.591v-5.52M284.711 11.591v-5.52M286.151 11.591v-5.52M287.351 11.591v-5.52M288.791 11.591v-5.52M290.231 11.591v-5.52M291.671 11.591v-5.52M293.111 11.591v-5.52M294.551 11.591v-5.52M295.991 11.591v-5.52M297.431 11.591v-5.52M298.871 11.591v-5.52M300.311 11.591v-5.52M301.751 11.591v-5.52M302.951 11.591v-5.52M304.391 11.591v-5.52M305.831 11.591v-5.52M307.271 11.591v-5.52M308.711 11.591v-5.52M310.151 11.591v-5.52"/><path class="cls-18" d="M311.59 11.59v5.04h-33.6v-5.04h33.6"/><path class="cls-12" d="M311.351 14.951l-1.68 1.68M310.871 11.591l-5.04 5.04M306.791 11.591l-5.04 5.04M302.711 11.591l-5.04 5.04M298.631 11.591l-5.04 5.04M294.791 11.591l-5.04 5.04M290.711 11.591l-5.04 5.04M286.631 11.591l-5.04 5.04M282.791 11.591l-5.04 4.8M278.711 11.591l-.96.72M311.591 11.591h-33.6M311.591 6.071h-33.6"/><path class="cls-13" d="M311.591 1.991h-33.6M311.591 16.631h-33.6M277.99 11.59v5.04h-18.48v-5.04M276.31 9.43V1.99h3.36V.07h-21.84v1.92h3.36v7.44M276.311 1.991h-15.12"/><path class="cls-13" d="M259.511 9.431h18.48v2.16h-18.48zM274.391 9.431v2.16M263.111 9.431v2.16M277.991 11.591v-2.16M263.111 11.591v-2.16M274.391 11.591v-2.16M259.511 11.591v-2.16M276.311 5.351h-7.44"/><path class="cls-18" d="M278.106 5.978h-1.843v3.401h1.843"/><path class="cls-12" d="M277.511 9.431v-3.36M278.106 5.978h-1.843v3.401h1.843"/><path class="cls-18" d="M277.99 1.99h-1.68v3.36h1.68"/><path class="cls-12" d="M277.751 4.391l-.72.96M276.311 1.991h-.24"/><path class="cls-13" d="M261.191 5.351h7.68"/><path class="cls-18" d="M259.396 5.978h1.843v3.401h-1.843"/><path class="cls-12" d="M260.471 9.431v-3.36M259.396 5.978h1.843v3.401h-1.843"/><path class="cls-18" d="M259.51 1.99h1.68v3.36h-1.68"/><path class="cls-12" d="M260.951 5.111v.24M260.231 1.991l-.96.96"/><path class="cls-13" d="M187.75 9.43V1.99h3.36V.07h-66v1.92h3.36v7.44"/><path class="cls-1" d="M189.671 16.631h-62.88"/><path class="cls-13" d="M126.791 9.431h62.88v2.16h-62.88zM186.071 9.431v2.16M130.391 9.431v2.16M189.671 11.591v-2.16M170.711 11.591v-2.16M186.071 11.591v-2.16M166.631 11.591v-2.16M170.711 11.591v-2.16M149.831 11.591v-2.16M166.631 11.591v-2.16M145.751 11.591v-2.16M149.831 11.591v-2.16M130.391 11.591v-2.16M145.751 11.591v-2.16M126.791 11.591v-2.16"/><path class="cls-18" d="M189.664 5.978h-1.841v3.401h1.84"/><path class="cls-12" d="M188.231 9.431v-3.36M189.664 5.978h-1.841v3.401h1.84"/><path class="cls-18" d="M189.67 1.99h-1.92v3.36h1.92"/><path class="cls-12" d="M189.431 4.631l-.72.72M187.991 1.991l-.48.48"/><path class="cls-18" d="M126.736 5.978h1.843v3.401h-1.843"/><path class="cls-12" d="M127.271 9.431v-3.36M126.736 5.978h1.843v3.401h-1.843"/><path class="cls-18" d="M126.79 1.99h1.68v3.36h-1.68"/><path class="cls-12" d="M127.991 1.991l-1.44 1.2M148.278 11.647c0 11.04-9.084 20.126-20.126 20.126M128.231 31.751v-20.16"/><path class="cls-4" d="M148.39 11.59l.24 4.08 1.2 3.6 1.92 3.6 2.4 3.12 3.12 2.4 3.36 1.92 3.84.96 3.84.48"/><path class="cls-9" d="M168.311 31.751v-20.16"/><path class="cls-12" d="M147.145 332.528c0-.621-.03-1.24-.093-1.86a19.133 19.133 0 0 0-1.359-5.4 19.27 19.27 0 0 0-1.757-3.283 19.287 19.287 0 0 0-2.364-2.877c-.439-.44-.9-.857-1.38-1.25-.48-.397-.979-.766-1.495-1.112a19.971 19.971 0 0 0-1.598-.96 19.264 19.264 0 0 0-3.44-1.426 18.554 18.554 0 0 0-3.647-.73 18.489 18.489 0 0 0-1.86-.093M128.231 313.511v18.96M147.191 332.471v-1.44M147.431 329.591v-.72M147.431 328.871l.24-.72"/><path class="cls-7" d="M147.911 326.951l.72-1.68"/><path class="cls-12" d="M149.111 324.071l.24-.48M149.351 323.591l.48-.72"/><path class="cls-8" d="M150.311 321.911l1.2-1.44"/><path class="cls-12" d="M152.471 319.271l.24-.24M152.711 319.031l.96-.72M154.631 317.351l.96-.72"/><path class="cls-16" d="M155.591 316.631l1.68-.96"/><path class="cls-12" d="M157.271 315.671l.96-.48M159.671 314.711l.96-.24"/><path class="cls-11" d="M160.631 314.471l1.92-.48"/><path class="cls-12" d="M162.551 313.991l1.44-.48M165.431 313.511h.72"/><path class="cls-4" d="M166.151 313.511v18.96"/><path class="cls-12" d="M166.151 331.991v.48M220.278 312.517c11.042 0 20.126 9.084 20.126 20.124M220.391 312.551v20.16"/><path class="cls-4" d="M260.47 312.55l-3.84.24-3.84 1.2-3.36 1.92-3.12 2.4-2.4 3.12-1.92 3.6-1.2 3.6-.48 4.08"/><path class="cls-9" d="M260.471 312.551v20.16"/><path class="cls-13" d="M273.671 126.071v.96M273.671 127.031v.72M273.671 127.751l.24.96M273.911 128.711l.24.24M274.631 130.151l.24.24M275.591 131.591l.48.48M276.071 132.071l.72.72M276.791 132.791l.48.48M277.271 133.271l.48.24M278.951 133.991l.24.24M280.631 134.471l.72.24M281.351 134.711h.72M282.071 134.711h.72M282.791 134.711l.72-.24M284.711 134.231l.48-.24M286.391 133.511l.48-.24M286.871 133.271l.48-.48M287.351 132.791l.72-.72M288.071 132.071l.48-.48M289.271 130.631l.24-.24M289.991 128.951l.24-.24M290.231 128.711l.24-.96M290.471 127.751v-.72M290.471 127.031v-.72M290.471 124.871v-.24M289.991 123.191v-.24M289.991 122.951l-.48-.72M289.511 122.231l-.48-.72M289.031 121.511l-.48-.72M287.591 119.831l-.24-.24M286.151 118.871v-.24M286.151 118.631l-.72-.24M285.431 118.391l-.96-.48M284.471 117.911h-.72M283.751 117.911h-.24M282.071 117.671h-.24M280.391 117.911h-.72M279.671 117.911l-.96.48M278.711 118.391l-.72.24M277.991 118.631l-.24.24M276.551 119.591v.24M275.351 120.791l-.24.72M275.111 121.511l-.48.72M274.631 122.231l-.48.72M274.151 122.951v.24M273.671 124.631v.24"/><path class="cls-18" d="M304.39 332.47h7.2V11.59h-7.2v320.88"/><path class="cls-12" d="M304.151 13.991l2.64-2.4M304.151 18.071l6.72-6.48M304.151 22.151l7.2-7.2M304.151 25.991l7.2-7.2M304.151 30.071l7.2-7.2M304.151 34.151l7.2-7.2M304.151 38.231l7.2-7.2M304.151 42.071l7.2-7.2M304.151 46.151l7.2-7.2M304.151 50.231l7.2-7.2M304.151 54.071l7.2-7.2M304.151 58.151l7.2-7.2M304.151 62.231l7.2-7.2M304.151 66.311l7.2-7.2M304.151 70.151l7.2-7.2M304.151 74.231l7.2-7.2M304.151 78.311l7.2-7.2M304.151 82.151l7.2-7.2M304.151 86.231l7.2-7.2M304.151 90.311l7.2-7.2M304.151 94.151l7.2-7.2M304.151 98.231l7.2-7.2M304.151 102.311l7.2-7.2M304.151 106.391l7.2-7.2M304.151 110.231l7.2-7.2M304.151 114.311l7.2-7.2M304.151 118.391l7.2-7.2M304.151 122.231l7.2-7.2M304.151 126.311l7.2-7.2M304.151 130.391l7.2-7.2M304.151 134.231l7.2-7.2M304.151 138.311l7.2-7.2M304.151 142.391l7.2-7.2M304.151 146.471l7.2-7.2M304.151 150.311l7.2-7.2M304.151 154.391l7.2-7.2M304.151 158.471l7.2-7.2M304.151 162.311l7.2-7.2M304.151 166.391l7.2-7.2M304.151 170.471l7.2-7.2M304.151 174.311l7.2-7.2M304.151 178.391l7.2-7.2M304.151 182.471l7.2-7.2M304.151 186.551l7.2-7.2M304.151 190.391l7.2-7.2M304.151 194.471l7.2-7.2M304.151 198.551l7.2-7.2M304.151 202.391l7.2-7.2M304.151 206.471l7.2-7.2M304.151 210.551l7.2-7.2M304.151 214.631l7.2-7.2M304.151 218.471l7.2-7.2M304.151 222.551l7.2-7.2M304.151 226.631l7.2-7.2M304.151 230.471l7.2-7.2M304.151 234.551l7.2-7.2M304.151 238.631l7.2-7.2M304.151 242.471l7.2-7.2M304.151 246.551l7.2-7.2M304.151 250.631l7.2-7.2M304.151 254.711l7.2-7.2M304.151 258.551l7.2-7.2M304.151 262.631l7.2-7.2M304.151 266.711l7.2-7.2M304.151 270.551l7.2-7.2M304.151 274.631l7.2-7.2M304.151 278.711l7.2-7.2M304.151 282.551l7.2-7.2M304.151 286.631l7.2-7.2M304.151 290.711l7.2-7.2M304.151 294.791l7.2-7.2M304.151 298.631l7.2-7.2M304.151 302.711l7.2-7.2M304.151 306.791l7.2-7.2M304.151 310.631l7.2-7.2M304.151 314.711l7.2-7.2M304.151 318.791l7.2-7.2M304.151 322.871l7.2-7.2M304.151 326.711l7.2-7.2M304.151 330.791l7.2-7.2M306.551 332.471l4.8-4.8M310.631 332.471l.72-.96M304.631 332.471l-.48-.48M308.711 332.471l-4.56-4.56M311.351 331.271l-7.2-7.2M311.351 327.191l-7.2-7.2M311.351 323.111l-7.2-7.2M311.351 319.271l-7.2-7.2M311.351 315.191l-7.2-7.2M311.351 311.111l-7.2-7.2M311.351 307.031l-7.2-7.2M311.351 303.191l-7.2-7.2M311.351 299.111l-7.2-7.2M311.351 295.031l-7.2-7.2M311.351 291.191l-7.2-7.2M311.351 287.111l-7.2-7.2M311.351 283.031l-7.2-7.2M311.351 279.191l-7.2-7.2M311.351 275.111l-7.2-7.2M311.351 271.031l-7.2-7.2M311.351 266.951l-7.2-7.2M311.351 263.111l-7.2-7.2M311.351 259.031l-7.2-7.2M311.351 254.951l-7.2-7.2M311.351 251.111l-7.2-7.2M311.351 247.031l-7.2-7.2M311.351 242.951l-7.2-7.2M311.351 239.111l-7.2-7.2M311.351 235.031l-7.2-7.2M311.351 230.951l-7.2-7.2M311.351 226.871l-7.2-7.2M311.351 223.031l-7.2-7.2M311.351 218.951l-7.2-7.2M311.351 214.871l-7.2-7.2M311.351 211.031l-7.2-7.2M311.351 206.951l-7.2-7.2M311.351 202.871l-7.2-7.2M311.351 199.031l-7.2-7.2M311.351 194.951l-7.2-7.2M311.351 190.871l-7.2-7.2M311.351 186.791l-7.2-7.2M311.351 182.951l-7.2-7.2M311.351 178.871l-7.2-7.2M311.351 174.791l-7.2-7.2M311.351 170.951l-7.2-7.2M311.351 166.871l-7.2-7.2M311.351 162.791l-7.2-7.2M311.351 158.711l-7.2-7.2M311.351 154.871l-7.2-7.2M311.351 150.791l-7.2-7.2M311.351 146.711l-7.2-7.2M311.351 142.871l-7.2-7.2M311.351 138.791l-7.2-7.2M311.351 134.711l-7.2-7.2M311.351 130.871l-7.2-7.2M311.351 126.791l-7.2-7.2M311.351 122.711l-7.2-7.2M311.351 118.631l-7.2-7.2M311.351 114.791l-7.2-7.2M311.351 110.711l-7.2-7.2M311.351 106.631l-7.2-7.2M311.351 102.791l-7.2-7.2M311.351 98.711l-7.2-7.2M311.351 94.631l-7.2-7.2M311.351 90.791l-7.2-7.2M311.351 86.711l-7.2-7.2M311.351 82.631l-7.2-7.2M311.351 78.551l-7.2-7.2M311.351 74.711l-7.2-7.2M311.351 70.631l-7.2-7.2M311.351 66.551l-7.2-7.2M311.351 62.711l-7.2-7.2M311.351 58.631l-7.2-7.2M311.351 54.551l-7.2-7.2M311.351 50.471l-7.2-7.2M311.351 46.631l-7.2-7.2M311.351 42.551l-7.2-7.2M311.351 38.471l-7.2-7.2M311.351 34.631l-7.2-7.2M311.351 30.551l-7.2-7.2M311.351 26.471l-7.2-7.2M311.351 22.631l-7.2-7.2M311.351 18.551l-6.72-6.96M311.351 14.471l-2.88-2.88"/><path class="cls-18" d="M311.59 332.47h-7.2V11.59h7.2v320.88"/><path class="cls-12" d="M304.151 13.991l2.64-2.4M304.151 18.071l6.72-6.48M304.151 22.151l7.2-7.2M304.151 25.991l7.2-7.2M304.151 30.071l7.2-7.2M304.151 34.151l7.2-7.2M304.151 38.231l7.2-7.2M304.151 42.071l7.2-7.2M304.151 46.151l7.2-7.2M304.151 50.231l7.2-7.2M304.151 54.071l7.2-7.2M304.151 58.151l7.2-7.2M304.151 62.231l7.2-7.2M304.151 66.311l7.2-7.2M304.151 70.151l7.2-7.2M304.151 74.231l7.2-7.2M304.151 78.311l7.2-7.2M304.151 82.151l7.2-7.2M304.151 86.231l7.2-7.2M304.151 90.311l7.2-7.2M304.151 94.151l7.2-7.2M304.151 98.231l7.2-7.2M304.151 102.311l7.2-7.2M304.151 106.391l7.2-7.2M304.151 110.231l7.2-7.2M304.151 114.311l7.2-7.2M304.151 118.391l7.2-7.2M304.151 122.231l7.2-7.2M304.151 126.311l7.2-7.2M304.151 130.391l7.2-7.2M304.151 134.231l7.2-7.2M304.151 138.311l7.2-7.2M304.151 142.391l7.2-7.2M304.151 146.471l7.2-7.2M304.151 150.311l7.2-7.2M304.151 154.391l7.2-7.2M304.151 158.471l7.2-7.2M304.151 162.311l7.2-7.2M304.151 166.391l7.2-7.2M304.151 170.471l7.2-7.2M304.151 174.311l7.2-7.2M304.151 178.391l7.2-7.2M304.151 182.471l7.2-7.2M304.151 186.551l7.2-7.2M304.151 190.391l7.2-7.2M304.151 194.471l7.2-7.2M304.151 198.551l7.2-7.2M304.151 202.391l7.2-7.2M304.151 206.471l7.2-7.2M304.151 210.551l7.2-7.2M304.151 214.631l7.2-7.2M304.151 218.471l7.2-7.2M304.151 222.551l7.2-7.2M304.151 226.631l7.2-7.2M304.151 230.471l7.2-7.2M304.151 234.551l7.2-7.2M304.151 238.631l7.2-7.2M304.151 242.471l7.2-7.2M304.151 246.551l7.2-7.2M304.151 250.631l7.2-7.2M304.151 254.711l7.2-7.2M304.151 258.551l7.2-7.2M304.151 262.631l7.2-7.2M304.151 266.711l7.2-7.2M304.151 270.551l7.2-7.2M304.151 274.631l7.2-7.2M304.151 278.711l7.2-7.2M304.151 282.551l7.2-7.2M304.151 286.631l7.2-7.2M304.151 290.711l7.2-7.2M304.151 294.791l7.2-7.2M304.151 298.631l7.2-7.2M304.151 302.711l7.2-7.2M304.151 306.791l7.2-7.2M304.151 310.631l7.2-7.2M304.151 314.711l7.2-7.2M304.151 318.791l7.2-7.2M304.151 322.871l7.2-7.2M304.151 326.711l7.2-7.2M304.151 330.791l7.2-7.2M306.551 332.471l4.8-4.8M310.631 332.471l.72-.96M304.631 332.471l-.48-.48M308.711 332.471l-4.56-4.56M311.351 331.271l-7.2-7.2M311.351 327.191l-7.2-7.2M311.351 323.111l-7.2-7.2M311.351 319.271l-7.2-7.2M311.351 315.191l-7.2-7.2M311.351 311.111l-7.2-7.2M311.351 307.031l-7.2-7.2M311.351 303.191l-7.2-7.2M311.351 299.111l-7.2-7.2M311.351 295.031l-7.2-7.2M311.351 291.191l-7.2-7.2M311.351 287.111l-7.2-7.2M311.351 283.031l-7.2-7.2M311.351 279.191l-7.2-7.2M311.351 275.111l-7.2-7.2M311.351 271.031l-7.2-7.2M311.351 266.951l-7.2-7.2M311.351 263.111l-7.2-7.2M311.351 259.031l-7.2-7.2M311.351 254.951l-7.2-7.2M311.351 251.111l-7.2-7.2M311.351 247.031l-7.2-7.2M311.351 242.951l-7.2-7.2M311.351 239.111l-7.2-7.2M311.351 235.031l-7.2-7.2M311.351 230.951l-7.2-7.2M311.351 226.871l-7.2-7.2M311.351 223.031l-7.2-7.2M311.351 218.951l-7.2-7.2M311.351 214.871l-7.2-7.2M311.351 211.031l-7.2-7.2M311.351 206.951l-7.2-7.2M311.351 202.871l-7.2-7.2M311.351 199.031l-7.2-7.2M311.351 194.951l-7.2-7.2M311.351 190.871l-7.2-7.2M311.351 186.791l-7.2-7.2M311.351 182.951l-7.2-7.2M311.351 178.871l-7.2-7.2M311.351 174.791l-7.2-7.2M311.351 170.951l-7.2-7.2M311.351 166.871l-7.2-7.2M311.351 162.791l-7.2-7.2M311.351 158.711l-7.2-7.2M311.351 154.871l-7.2-7.2M311.351 150.791l-7.2-7.2M311.351 146.711l-7.2-7.2M311.351 142.871l-7.2-7.2M311.351 138.791l-7.2-7.2M311.351 134.711l-7.2-7.2M311.351 130.871l-7.2-7.2M311.351 126.791l-7.2-7.2M311.351 122.711l-7.2-7.2M311.351 118.631l-7.2-7.2M311.351 114.791l-7.2-7.2M311.351 110.711l-7.2-7.2M311.351 106.631l-7.2-7.2M311.351 102.791l-7.2-7.2M311.351 98.711l-7.2-7.2M311.351 94.631l-7.2-7.2M311.351 90.791l-7.2-7.2M311.351 86.711l-7.2-7.2M311.351 82.631l-7.2-7.2M311.351 78.551l-7.2-7.2M311.351 74.711l-7.2-7.2M311.351 70.631l-7.2-7.2M311.351 66.551l-7.2-7.2M311.351 62.711l-7.2-7.2M311.351 58.631l-7.2-7.2M311.351 54.551l-7.2-7.2M311.351 50.471l-7.2-7.2M311.351 46.631l-7.2-7.2M311.351 42.551l-7.2-7.2M311.351 38.471l-7.2-7.2M311.351 34.631l-7.2-7.2M311.351 30.551l-7.2-7.2M311.351 26.471l-7.2-7.2M311.351 22.631l-7.2-7.2M311.351 18.551l-6.72-6.96M311.351 14.471l-2.88-2.88"/><path class="cls-18" d="M102.79 11.59v90.72h-7.2V11.59h7.2"/><path class="cls-12" d="M95.351 14.471l2.88-2.88M95.351 18.311l6.96-6.72M95.351 22.391l7.2-7.2M95.351 26.471l7.2-7.2M95.351 30.551l7.2-7.2M95.351 34.391l7.2-7.2M95.351 38.471l7.2-7.2M95.351 42.551l7.2-7.2M95.351 46.391l7.2-7.2M95.351 50.471l7.2-7.2M95.351 54.551l7.2-7.2M95.351 58.631l7.2-7.2M95.351 62.471l7.2-7.2M95.351 66.551l7.2-7.2M95.351 70.631l7.2-7.2M95.351 74.471l7.2-7.2M95.351 78.551l7.2-7.2M95.351 82.631l7.2-7.2M95.351 86.471l7.2-7.2M95.351 90.551l7.2-7.2M95.351 94.631l7.2-7.2M95.351 98.711l7.2-7.2M95.831 102.311l6.72-6.96M99.671 102.311l2.88-2.88M98.711 102.311l-3.36-3.12M102.551 102.311l-7.2-7.2M102.551 98.231l-7.2-7.2M102.551 94.391l-7.2-7.2M102.551 90.311l-7.2-7.2M102.551 86.231l-7.2-7.2M102.551 82.391l-7.2-7.2M102.551 78.311l-7.2-7.2M102.551 74.231l-7.2-7.2M102.551 70.391l-7.2-7.2M102.551 66.311l-7.2-7.2M102.551 62.231l-7.2-7.2M102.551 58.151l-7.2-7.2M102.551 54.311l-7.2-7.2M102.551 50.231l-7.2-7.2M102.551 46.151l-7.2-7.2M102.551 42.311l-7.2-7.2M102.551 38.231l-7.2-7.2M102.551 34.151l-7.2-7.2M102.551 30.311l-7.2-7.2M102.551 26.231l-7.2-7.2M102.551 22.151l-7.2-7.2M102.551 18.071l-6.48-6.48M102.551 14.231l-2.4-2.64"/><path class="cls-18" d="M102.79 11.59v90.72h-7.2V11.59h7.2"/><path class="cls-12" d="M95.351 14.471l2.88-2.88M95.351 18.311l6.96-6.72M95.351 22.391l7.2-7.2M95.351 26.471l7.2-7.2M95.351 30.551l7.2-7.2M95.351 34.391l7.2-7.2M95.351 38.471l7.2-7.2M95.351 42.551l7.2-7.2M95.351 46.391l7.2-7.2M95.351 50.471l7.2-7.2M95.351 54.551l7.2-7.2M95.351 58.631l7.2-7.2M95.351 62.471l7.2-7.2M95.351 66.551l7.2-7.2M95.351 70.631l7.2-7.2M95.351 74.471l7.2-7.2M95.351 78.551l7.2-7.2M95.351 82.631l7.2-7.2M95.351 86.471l7.2-7.2M95.351 90.551l7.2-7.2M95.351 94.631l7.2-7.2M95.351 98.711l7.2-7.2M95.831 102.311l6.72-6.96M99.671 102.311l2.88-2.88M98.711 102.311l-3.36-3.12M102.551 102.311l-7.2-7.2M102.551 98.231l-7.2-7.2M102.551 94.391l-7.2-7.2M102.551 90.311l-7.2-7.2M102.551 86.231l-7.2-7.2M102.551 82.391l-7.2-7.2M102.551 78.311l-7.2-7.2M102.551 74.231l-7.2-7.2M102.551 70.391l-7.2-7.2M102.551 66.311l-7.2-7.2M102.551 62.231l-7.2-7.2M102.551 58.151l-7.2-7.2M102.551 54.311l-7.2-7.2M102.551 50.231l-7.2-7.2M102.551 46.151l-7.2-7.2M102.551 42.311l-7.2-7.2M102.551 38.231l-7.2-7.2M102.551 34.151l-7.2-7.2M102.551 30.311l-7.2-7.2M102.551 26.231l-7.2-7.2M102.551 22.151l-7.2-7.2M102.551 18.071l-6.48-6.48M102.551 14.231l-2.4-2.64"/><path class="cls-14" d="M10.631 165.671h29.76v39.6h-29.76zM58.631 215.591h132.24M102.791 222.791h95.04M58.631 222.791h36.96M102.791 222.791h95.04M58.631 215.591h132.24M58.631 222.791h36.96M242.711 107.111v-90.48M247.751 107.111v-90.48M242.711 16.631h5.04M247.751 107.111v-90.48M242.711 107.111v-90.48M242.711 107.111h5.04M197.831 102.311h18.96M197.831 107.111h18.96M216.791 102.311v4.8M197.831 107.111h18.96M197.831 102.311h18.96M197.831 102.311v4.8M273.911 102.311h30.48M273.911 107.111h30.48M304.391 102.311v4.8M273.911 107.111h30.48M273.911 102.311h30.48M273.911 102.311v4.8M281.831 338.711h29.76M281.831 342.071h29.76M281.831 327.431h29.76M281.831 332.471h29.76M167.591 338.711h51.36M167.591 342.071h51.36M167.591 327.431h51.36M167.591 332.471h51.36M95.591 338.711h31.2M95.591 342.071h31.2M95.591 327.431h31.2M95.591 332.471h31.2M218.951 332.471v-5.04M218.95 342.07h1.68v-3.36h-1.68M220.631 338.711v-3.84M281.831 332.471v-5.04M281.83 342.07h-1.92v-3.36h1.92M279.911 338.711v-3.84M128.471 342.071h-3.36M165.671 342.071h3.36M126.791 332.471v-5.04M126.79 342.07h1.68v-3.36h-1.68M128.471 338.711v-3.84M167.591 332.471v-5.04M167.59 342.07h-1.92v-3.36h1.92M165.671 338.711v-3.84M95.591 332.471v-109.68M102.791 332.471v-109.68M102.791 332.471v-109.68M95.591 332.471v-109.68M95.591 332.471h7.2M197.831 142.631v80.16M190.871 142.631v72.96M190.871 142.631v72.96M197.831 142.631v80.16M197.831 102.311v4.8M190.871 109.271h6M190.871 137.111h6M190.871 109.271h6M190.871 107.111v2.16M190.871 137.111h6M190.871 142.631v-5.52M197.831 107.111h-.96M197.831 142.631h-.96M190.871 107.111v2.16M190.871 142.631v-5.52M196.871 109.271v-2.16M196.871 137.111v5.52M.551 107.111v-4.8M.551 107.111v-4.8M.551 222.791v-80.16M7.751 147.911v-5.28M7.751 212.711v-54.72M7.751 147.911v-5.28M.551 222.791v-80.16M7.751 212.711v-54.72M7.751 137.111h-6M7.751 109.271h-6M7.751 137.111h-6M7.751 142.631v-5.52M7.751 109.271h-6M7.751 107.111v2.16M.551 142.631h1.2M.551 107.111h1.2M7.751 142.631v-5.52M7.751 107.111v2.16M1.751 137.111v5.52M1.751 109.271v-2.16M53.111 212.711v-54.72M58.631 215.591v-67.68M58.631 215.591v-67.68M53.111 212.711v-54.72M102.791 102.311h95.04M.551 102.311h95.04M7.751 109.271h183.12M7.751 109.271h183.12M102.791 102.311h95.04M.551 102.311h95.04M58.631 222.791H.551M53.111 212.711H7.751M53.111 212.711H7.751M58.631 222.791H.551M53.111 157.991h-9.6M58.631 147.911h-15.12M58.631 147.911h-15.12M53.111 157.991h-9.6M40.391 147.911v8.64M10.871 147.911v8.64M40.391 147.911v8.64M43.511 147.911h-3.12M10.871 147.911v8.64M7.751 147.911h3.12M43.511 157.991v-1.44M7.751 157.991v-1.44M43.511 147.911h-3.12M7.751 147.911h3.12M40.391 156.551h3.12M10.871 156.551h-3.12M197.831 222.791v65.28M193.751 222.791v70.08M193.751 222.791v70.08M197.831 222.791v65.28M197.831 222.791h-4.08M197.831 288.071h18M193.751 292.871h22.08M215.831 288.071v4.8M193.751 292.871h22.08M197.831 288.071h18M126.791 5.351h-31.2M126.791 1.991h-31.2M126.791 16.631h-31.2M126.791 11.591h-31.2M259.511 5.351h-69.84M259.511 1.991h-69.84M259.511 16.631h-69.84M259.511 11.591h-69.84M311.591 5.351h-33.6M311.591 1.991h-33.6M311.591 16.631h-33.6M311.591 11.591h-33.6M276.311 1.991h3.36M261.191 1.991h-3.36M277.991 11.591v5.04M277.99 1.99h-1.68v3.36h1.68M276.311 5.351v4.08M259.511 11.591v5.04M259.51 1.99h1.68v3.36h-1.68M261.191 5.351v4.08M187.751 1.991h3.36M128.471 1.991h-3.36M189.671 11.591v5.04M189.67 1.99h-1.92v3.36h1.92M187.751 5.351v4.08M126.791 11.591v5.04M126.79 1.99h1.68v3.36h-1.68M128.471 5.351v4.08M304.391 332.471V11.591M311.591 332.471V11.591M304.391 11.591h7.2M311.591 332.471V11.591M304.391 332.471V11.591M304.391 332.471h7.2M95.591 102.311v-90.72M102.791 102.311v-90.72M95.591 11.591h7.2M102.791 102.311v-90.72M95.591 102.311v-90.72"/></g><g id="Mbel"><path class="cls-2" d="M104.231 223.991h56.88v28.56h-56.88zM104.231 269.591h15.6v56.64h-15.6zM259.031 175.271h22.8v51.12h-22.8zM249.193 224.968v-12.756M257.696 224.968h-8.503M249.193 212.212h8.503M249.193 207.244v-12.756M257.696 207.244h-8.503M249.193 194.488h8.503M249.193 189.522v-12.756M257.696 189.522h-8.503M249.193 176.766h8.503M291.712 224.968v-12.756M283.208 224.968h8.504M291.712 212.212h-8.504M291.712 207.244v-12.756M283.208 207.244h8.504M291.712 194.488h-8.504M291.712 189.522v-12.756M283.208 189.522h8.504M291.712 176.766h-8.504M253.511 271.991h14.16v28.32h-14.16zM298.515 312.774h-18.71a.964.964 0 0 1-.165-.014.784.784 0 0 1-.305-.127.8.8 0 0 1-.235-.236.864.864 0 0 1-.128-.307.761.761 0 0 1-.016-.166V286.98c0-.055.004-.11.016-.166a.782.782 0 0 1 .127-.305.695.695 0 0 1 .106-.13.694.694 0 0 1 .13-.105.781.781 0 0 1 .305-.127.776.776 0 0 1 .165-.017h18.71v26.645"/><path class="cls-2" d="M302.2 317.31h-22.395a.776.776 0 0 1-.165-.017.94.94 0 0 1-.305-.125.704.704 0 0 1-.13-.108.763.763 0 0 1-.105-.127.773.773 0 0 1-.127-.307.776.776 0 0 1-.017-.166v-2.834a.76.76 0 0 1 .016-.166.773.773 0 0 1 .128-.307.803.803 0 0 1 .235-.235.783.783 0 0 1 .305-.127.968.968 0 0 1 .165-.017H302.2a.856.856 0 0 1 .85.852v2.835a.843.843 0 0 1-.525.785.842.842 0 0 1-.325.064M298.515 286.13h3.685a.842.842 0 0 0 .601-.25.853.853 0 0 0 .25-.6v-24.946a.86.86 0 0 0-.065-.326.855.855 0 0 0-.786-.523h-3.685M296.231 259.511v53.28"/><path class="cls-2" d="M298.515 259.484h-18.71a.776.776 0 0 0-.165.017.94.94 0 0 0-.305.125.704.704 0 0 0-.13.108.764.764 0 0 0-.105.127.772.772 0 0 0-.127.307.776.776 0 0 0-.017.166v24.946c0 .055.004.11.016.165a.885.885 0 0 0 .233.434.61.61 0 0 0 .13.106.78.78 0 0 0 .305.127c.055.012.11.017.165.017h18.71v-26.645"/><path class="cls-2" d="M302.2 254.948h-22.395a.774.774 0 0 0-.165.017.78.78 0 0 0-.305.127.693.693 0 0 0-.13.106.883.883 0 0 0-.233.434.777.777 0 0 0-.016.166v2.834c0 .058.004.113.016.168a.864.864 0 0 0 .833.684H302.2a.841.841 0 0 0 .601-.25.853.853 0 0 0 .25-.602v-2.834a.849.849 0 0 0-.851-.85M298.515 286.13h3.685a.841.841 0 0 1 .601.249.854.854 0 0 1 .25.6v24.945a.852.852 0 0 1-.526.788.886.886 0 0 1-.325.062h-3.685M104.231 43.991h45.36v56.64h-45.36zM190.391 18.071h51.12v15.6h-51.12z"/></g><g id="Text"><path d="M232.779 147.48h-.67v-5.332h.67v2.454l2.071-2.454h.808l-2.223 2.638 2.223 2.695h-.856l-2.023-2.463v2.463zM239.797 145.65c0 1.08-.832 1.919-1.887 1.919-1.096 0-1.863-.8-1.863-1.936 0-1.143.767-1.926 1.887-1.926 1.087 0 1.863.807 1.863 1.943zm-3.126-.008c0 .815.503 1.367 1.254 1.367.728 0 1.248-.568 1.248-1.367 0-.824-.496-1.376-1.239-1.376-.76 0-1.263.552-1.263 1.376zM243.81 147.025c-.417.376-.825.544-1.36.544-1.056 0-1.808-.8-1.808-1.92 0-1.143.76-1.942 1.84-1.942.527 0 .96.175 1.343.551l-.392.392c-.28-.256-.592-.384-.935-.384-.728 0-1.232.56-1.232 1.36 0 .815.504 1.383 1.224 1.383.36 0 .647-.12.943-.4l.376.416zM245.351 144.306c.335-.415.671-.6 1.112-.6.319 0 .655.129.855.337.2.2.287.487.287.96v2.478h-.607v-2.447c0-.504-.248-.784-.688-.784a.94.94 0 0 0-.72.328c-.183.208-.239.392-.239.744v2.159h-.608v-5.333h.608v2.158zM249.334 145.834c.03.311.088.471.239.671.24.328.592.504.991.504.456 0 .888-.248 1.104-.632l.536.2c-.304.616-.936.992-1.64.992-1.095 0-1.879-.8-1.879-1.92 0-1.135.776-1.942 1.856-1.942 1.071 0 1.87.807 1.87 1.887 0 .048 0 .152-.007.24h-3.07zm2.43-.448c-.024-.288-.08-.448-.208-.632a1.268 1.268 0 0 0-1.015-.504c-.409 0-.776.193-.992.512-.112.176-.16.328-.208.624h2.422zM254.086 143.795v.52c.32-.433.64-.608 1.095-.608.336 0 .64.112.856.303.232.225.312.48.312.984v2.487h-.608v-2.351c0-.328-.04-.504-.136-.632-.111-.152-.328-.248-.575-.248a.916.916 0 0 0-.704.312c-.176.192-.24.368-.24.672v2.247h-.608v-3.686h.608zM257.63 148.752l-.44-.136.672-1.943.576.184-.807 1.895zM262.765 144.506h2.103v.576h-2.103v1.823h2.103v.576h-2.775v-5.333h2.775v.575h-2.103v1.783zM267.793 144.802v-.04c0-.344-.28-.56-.703-.56-.409 0-.665.208-.665.528s.16.44.824.624c.471.128.72.248.895.423.185.185.296.448.296.72 0 .64-.527 1.072-1.31 1.072-.84 0-1.312-.392-1.376-1.136h.6c.04.416.312.64.776.64.415 0 .687-.216.687-.544 0-.32-.208-.48-.84-.64-.8-.216-1.159-.551-1.159-1.111 0-.64.52-1.071 1.295-1.071.784 0 1.256.4 1.287 1.095h-.607zM271.337 144.802v-.04c0-.344-.28-.56-.704-.56-.408 0-.664.208-.664.528s.16.44.824.624c.472.128.72.248.895.423.185.185.296.448.296.72 0 .64-.527 1.072-1.31 1.072-.84 0-1.312-.392-1.376-1.136h.6c.04.416.312.64.775.64.416 0 .688-.216.688-.544 0-.32-.208-.48-.84-.64-.8-.216-1.159-.551-1.159-1.111 0-.64.52-1.071 1.295-1.071.784 0 1.256.4 1.287 1.095h-.607zM273.478 145.834c.032.311.09.471.24.671.24.328.592.504.992.504.456 0 .887-.248 1.103-.632l.536.2c-.303.616-.935.992-1.64.992-1.094 0-1.878-.8-1.878-1.92 0-1.135.776-1.942 1.855-1.942 1.071 0 1.871.807 1.871 1.887 0 .048 0 .152-.009.24h-3.07zm2.432-.448c-.025-.288-.08-.448-.208-.632a1.268 1.268 0 0 0-1.016-.504c-.408 0-.775.193-.991.512-.112.176-.16.328-.208.624h2.423zM278.232 143.795v.52c.32-.433.639-.608 1.095-.608.336 0 .64.112.855.303.233.225.313.48.313.984v2.487h-.609v-2.351c0-.328-.04-.504-.135-.632-.113-.152-.328-.248-.576-.248a.916.916 0 0 0-.704.312c-.175.192-.239.368-.239.672v2.247h-.608v-3.686h.608zM281.776 148.752l-.44-.136.671-1.943.577.184-.808 1.895zM237.592 151.148h.697l-1.632 5.333h-.592l-1.175-4.19-1.183 4.19h-.592l-1.631-5.333h.712l1.215 4.086 1.183-4.086h.632l1.143 4.101 1.223-4.101zM242.4 154.65c0 1.08-.831 1.919-1.887 1.919-1.095 0-1.863-.8-1.863-1.936 0-1.143.768-1.926 1.888-1.926 1.087 0 1.862.807 1.862 1.943zm-3.126-.008c0 .815.504 1.367 1.255 1.367.727 0 1.248-.568 1.248-1.367 0-.824-.496-1.376-1.24-1.376-.759 0-1.263.552-1.263 1.376zM244.113 153.306c.336-.415.672-.6 1.112-.6.32 0 .656.129.856.337.199.2.287.487.287.96v2.478h-.608v-2.447c0-.504-.248-.784-.687-.784a.94.94 0 0 0-.72.328c-.183.208-.24.392-.24.744v2.159h-.607v-5.333h.607v2.158zM248.318 152.795v.52c.32-.433.64-.608 1.096-.608.336 0 .64.112.855.303.233.225.313.48.313.984v2.487h-.609v-2.351c0-.328-.04-.504-.135-.632-.112-.152-.329-.248-.576-.248a.916.916 0 0 0-.704.312c-.176.192-.24.368-.24.672v2.247h-.607v-3.686h.607zM252.308 154.834c.032.311.09.471.24.671.24.328.592.504.992.504.456 0 .887-.248 1.103-.632l.536.2c-.303.616-.935.992-1.64.992-1.094 0-1.878-.8-1.878-1.92 0-1.135.776-1.942 1.855-1.942 1.072 0 1.871.807 1.871 1.887 0 .048 0 .152-.008.24h-3.07zm2.432-.448c-.025-.288-.08-.448-.208-.632a1.268 1.268 0 0 0-1.016-.504c-.408 0-.775.193-.99.512-.113.176-.161.328-.209.624h2.423zM257.062 152.795v.52c.32-.433.639-.608 1.095-.608.336 0 .64.112.855.303.233.225.313.48.313.984v2.487h-.609v-2.351c0-.328-.04-.504-.135-.632-.113-.152-.328-.248-.575-.248a.916.916 0 0 0-.705.312c-.175.192-.239.368-.239.672v2.247h-.608v-3.686h.608zM234.778 164.897v.584h-2.99l1.855-2.655c.535-.776.655-1.015.655-1.335 0-.464-.368-.792-.887-.792-.36 0-.655.168-.776.448-.064.152-.087.272-.095.552h-.6c.031-1.016.567-1.575 1.519-1.575.872 0 1.48.543 1.48 1.319 0 .448-.161.84-.608 1.463l-1.432 1.991h1.879zM238.758 162.93c.265.264.4.616.4 1.032 0 .943-.695 1.614-1.67 1.614-.968 0-1.648-.647-1.648-1.559 0-.423.144-.807.4-1.071.168-.176.304-.256.624-.36-.28-.096-.4-.176-.544-.351a1.228 1.228 0 0 1-.272-.784c0-.76.624-1.32 1.471-1.32.84 0 1.447.552 1.447 1.312 0 .304-.103.591-.295.815-.144.16-.256.232-.528.328.304.096.447.168.615.344zm-2.286 1.023c0 .568.455 1.032 1.024 1.032.567 0 1.023-.464 1.023-1.032 0-.56-.456-1.031-1.008-1.031a1.03 1.03 0 0 0-1.039 1.031zm.184-2.494c0 .456.376.816.848.816.456 0 .863-.376.863-.808 0-.416-.392-.776-.848-.776-.512 0-.863.32-.863.768zM241.06 165.137a.406.406 0 0 1-.416.408.403.403 0 0 1-.416-.416c0-.24.176-.416.416-.416s.415.176.415.424zM243.392 162.362c.224-.08.327-.104.52-.104.887 0 1.575.696 1.575 1.6 0 .943-.775 1.718-1.72 1.718-.95 0-1.686-.751-1.686-1.718 0-.392.103-.688.407-1.176l1.527-2.454h.744l-1.367 2.134zm-.68 1.496c0 .623.472 1.119 1.072 1.119s1.079-.488 1.079-1.096c0-.6-.472-1.08-1.064-1.08-.607 0-1.086.465-1.086 1.057zM248.695 161.795v.511c.28-.424.592-.6 1.048-.6.504 0 .823.217.991.672.272-.472.616-.671 1.168-.671.424 0 .743.135.936.391.175.232.223.44.223 1.024v2.359h-.607v-2.215c0-.448-.017-.552-.105-.704-.111-.192-.351-.312-.64-.312-.535 0-.83.36-.83 1.016v2.215h-.609v-2.207c0-.36-.031-.544-.119-.704-.104-.208-.328-.32-.6-.32-.536 0-.856.384-.856 1.024v2.207h-.607v-3.686h.607zM256.287 162.978v.408h-1.951l1.183-1.615c.336-.456.407-.592.407-.768 0-.256-.215-.44-.527-.44-.351 0-.496.176-.504.592h-.44c.024-.648.36-.991.976-.991.56 0 .951.335.951.807 0 .272-.103.52-.383.88l-.848 1.127h1.136z"/><g><path d="M218.917 363.302c1.087 0 1.703.512 1.703 1.415 0 .344-.105.648-.304.872-.128.152-.256.232-.544.343.296.065.44.12.608.248.288.233.439.592.439 1.024 0 .496-.216.927-.575 1.159-.312.2-.655.272-1.327.272h-1.503v-5.333h1.503zm-.832 2.399l.68-.008c.423 0 .679-.057.871-.208a.937.937 0 0 0 .328-.735c0-.344-.168-.649-.424-.768-.192-.097-.415-.128-.904-.128h-.551v1.847zm0 2.39h.672c.56 0 .775-.04 1.007-.175.256-.144.384-.4.384-.752 0-.64-.376-.92-1.224-.92h-.84v1.847zM224.807 364.949h.608v3.686h-.608v-.712c-.368.552-.784.8-1.343.8-1.016 0-1.736-.8-1.736-1.919 0-1.128.737-1.943 1.751-1.943.56 0 .968.216 1.328.696v-.608zm-2.135.895a1.689 1.689 0 0 0-.304.976c0 .784.512 1.375 1.183 1.375.696 0 1.264-.647 1.264-1.439 0-.8-.512-1.351-1.248-1.351-.4 0-.68.136-.895.44zM226.773 368.635v-5.333h.609v5.333h-.609zM229.339 368.635h-.608v-5.333h.608v3.262l1.471-1.615h.768l-1.648 1.8 1.64 1.886h-.76l-1.471-1.647v1.647zM235.767 366.804c0 1.08-.83 1.92-1.886 1.92-1.096 0-1.864-.8-1.864-1.936 0-1.143.768-1.927 1.888-1.927 1.087 0 1.862.808 1.862 1.943zm-3.126-.007c0 .815.504 1.367 1.255 1.367.728 0 1.248-.569 1.248-1.367 0-.825-.496-1.376-1.24-1.376-.759 0-1.263.551-1.263 1.376zM237.481 364.949v.52c.32-.432.639-.608 1.095-.608.336 0 .64.112.855.304.233.224.313.48.313.983v2.487h-.609v-2.35c0-.328-.04-.504-.135-.632-.113-.152-.328-.248-.576-.248a.916.916 0 0 0-.704.311c-.175.193-.239.369-.239.672v2.247h-.608v-3.686h.608zM219.708 372.91h-1.72v1.431c.272-.104.513-.152.784-.152.936 0 1.64.735 1.64 1.735 0 1.024-.752 1.767-1.8 1.767-.751 0-1.318-.392-1.59-1.096l.575-.215c.128.232.184.328.272.408.168.168.464.271.76.271.64 0 1.127-.495 1.127-1.151 0-.68-.48-1.135-1.183-1.135-.416 0-.84.192-1.184.543v-3.014h2.319v.608zM222.272 377.292a.406.406 0 0 1-.415.407.403.403 0 0 1-.416-.415c0-.24.176-.416.416-.416s.415.176.415.424zM226.574 376.028c0 .6-.112.968-.376 1.247-.28.296-.703.448-1.207.448-.52 0-.951-.16-1.232-.464-.28-.295-.351-.6-.351-1.407v-1.759c0-.696.08-1.023.32-1.311.263-.32.703-.496 1.247-.496.488 0 .887.137 1.183.4.304.28.416.6.416 1.223v2.119zm-2.534-.136c0 .615.023.728.199.928.168.191.456.311.76.311.328 0 .632-.135.783-.351.12-.176.168-.4.168-.792v-2.04c0-.414-.071-.622-.272-.815a1 1 0 0 0-.68-.248c-.343 0-.639.137-.79.384-.137.193-.168.376-.168.84v1.783zM229.903 373.949v.512c.28-.424.592-.6 1.048-.6.504 0 .823.216.991.672.273-.472.616-.672 1.168-.672.424 0 .743.136.936.392.175.232.223.44.223 1.023v2.36h-.607v-2.215c0-.449-.017-.552-.105-.705-.111-.19-.351-.311-.64-.311-.535 0-.83.36-.83 1.016v2.214h-.609v-2.207c0-.359-.031-.544-.119-.703-.104-.208-.328-.32-.6-.32-.536 0-.856.384-.856 1.023v2.207h-.607v-3.686h.607zM237.495 375.132v.409h-1.951l1.183-1.616c.336-.456.407-.591.407-.767 0-.256-.215-.44-.527-.44-.351 0-.496.176-.504.591h-.44c.024-.647.36-.991.976-.991.56 0 .952.336.952.808 0 .271-.104.52-.384.88l-.848 1.126h1.136z"/></g><g><path d="M160.692 78.821v.576h-3.814l3.014-4.757h-2.678v-.576h3.79l-3.015 4.757h2.703zM162.533 74.68c0 .216-.177.384-.393.384s-.383-.168-.383-.392.167-.392.392-.392c.216 0 .384.176.384.4zm-.089 4.717h-.607v-3.686h.607v3.686zM164.405 75.711v.512c.28-.424.592-.6 1.048-.6.504 0 .823.216.991.672.272-.472.616-.672 1.168-.672.424 0 .743.136.936.392.175.232.223.44.223 1.023v2.36h-.607v-2.216c0-.447-.017-.551-.105-.703-.111-.192-.351-.312-.64-.312-.535 0-.83.36-.83 1.015v2.215h-.609V77.19c0-.36-.031-.543-.119-.703-.104-.208-.328-.32-.6-.32-.536 0-.856.383-.856 1.023v2.207h-.607v-3.686h.607zM170.727 75.711v.512c.28-.424.591-.6 1.047-.6.504 0 .823.216.991.672.273-.472.617-.672 1.168-.672.424 0 .743.136.936.392.176.232.223.44.223 1.023v2.36h-.607v-2.216c0-.447-.017-.551-.104-.703-.112-.192-.352-.312-.64-.312-.535 0-.831.36-.831 1.015v2.215h-.609V77.19c0-.36-.03-.543-.119-.703-.104-.208-.328-.32-.6-.32-.535 0-.855.383-.855 1.023v2.207h-.608v-3.686h.608zM176.825 77.75c.031.312.088.472.24.672.24.328.59.503.99.503.456 0 .888-.248 1.104-.631l.536.2c-.304.615-.936.991-1.64.991-1.094 0-1.879-.8-1.879-1.919 0-1.135.776-1.943 1.856-1.943 1.071 0 1.871.808 1.871 1.887 0 .048 0 .152-.008.24h-3.07zm2.43-.448c-.024-.288-.08-.447-.207-.631a1.268 1.268 0 0 0-1.016-.504c-.408 0-.775.192-.991.511-.113.177-.16.328-.208.624h2.422zM181.577 75.711v.624c.112-.264.192-.376.336-.488.184-.144.44-.224.704-.224h.143v.616c-.063-.008-.128-.008-.168-.008a.945.945 0 0 0-.798.423c-.16.232-.217.448-.217.872v1.871h-.608v-3.686h.608zM157.662 84.815v-.607l1.806-1.184v5.373h-.631v-4.366l-1.175.784zM163.656 83.672h-1.719v1.431c.272-.104.512-.152.783-.152.936 0 1.64.736 1.64 1.735 0 1.024-.752 1.767-1.799 1.767-.752 0-1.32-.392-1.592-1.095l.577-.216c.127.232.183.327.271.407.168.168.464.272.76.272.64 0 1.127-.495 1.127-1.15 0-.68-.48-1.136-1.183-1.136-.416 0-.84.192-1.183.543v-3.014h2.318v.608zM166.22 88.053a.406.406 0 0 1-.415.408.403.403 0 0 1-.416-.415c0-.24.176-.416.416-.416s.415.175.415.423zM167.175 84.815v-.607l1.807-1.184v5.373h-.632v-4.366l-1.175.784zM173.198 84.711v.512c.28-.424.592-.6 1.048-.6.504 0 .823.216.991.672.272-.472.616-.672 1.168-.672.424 0 .743.136.935.392.176.232.224.44.224 1.023v2.36h-.607v-2.216c0-.447-.017-.551-.105-.703-.111-.192-.351-.312-.64-.312-.535 0-.83.36-.83 1.015v2.215h-.609V86.19c0-.36-.031-.543-.119-.703-.105-.208-.328-.32-.6-.32-.536 0-.856.383-.856 1.023v2.207h-.608v-3.686h.608zM180.79 85.895v.407h-1.951l1.183-1.615c.336-.455.407-.592.407-.767 0-.256-.215-.44-.527-.44-.352 0-.496.176-.504.591h-.44c.024-.647.36-.99.976-.99.56 0 .951.335.951.806 0 .272-.103.52-.383.88l-.848 1.128h1.136z"/></g><g><path d="M141.138 283.223v.576h-3.815l3.015-4.757h-2.679v-.576h3.79l-3.014 4.757h2.703zM142.979 279.082c0 .216-.177.383-.393.383s-.384-.167-.384-.392c0-.223.168-.391.393-.391.216 0 .384.176.384.4zm-.09 4.717h-.607v-3.686h.608v3.686zM144.85 280.113v.512c.281-.424.593-.6 1.049-.6.504 0 .823.216.99.671.273-.471.617-.671 1.169-.671.424 0 .743.136.935.392.176.232.224.44.224 1.023v2.359h-.607v-2.215c0-.448-.017-.552-.105-.703-.111-.192-.352-.312-.64-.312-.535 0-.83.36-.83 1.015v2.215h-.61v-2.207c0-.36-.03-.544-.118-.703-.105-.208-.328-.32-.6-.32-.536 0-.856.383-.856 1.023v2.207h-.608v-3.686h.608zM151.173 280.113v.512c.28-.424.59-.6 1.047-.6.504 0 .823.216.991.671.273-.471.616-.671 1.168-.671.424 0 .743.136.936.392.175.232.223.44.223 1.023v2.359h-.607v-2.215c0-.448-.017-.552-.105-.703-.111-.192-.351-.312-.64-.312-.534 0-.83.36-.83 1.015v2.215h-.609v-2.207c0-.36-.031-.544-.119-.703-.104-.208-.328-.32-.6-.32-.536 0-.855.383-.855 1.023v2.207h-.608v-3.686h.608zM157.27 282.152c.032.312.089.472.24.671.24.329.592.504.991.504.456 0 .888-.248 1.104-.632l.536.2c-.304.616-.936.992-1.64.992-1.095 0-1.879-.8-1.879-1.92 0-1.134.776-1.942 1.856-1.942 1.071 0 1.87.808 1.87 1.887 0 .048 0 .152-.007.24h-3.07zm2.43-.448c-.023-.288-.079-.447-.207-.632a1.268 1.268 0 0 0-1.015-.503c-.408 0-.776.192-.992.511-.112.177-.16.328-.208.624h2.422zM162.023 280.113v.623c.112-.263.192-.375.336-.487.184-.144.44-.224.704-.224h.143v.616c-.063-.008-.128-.008-.168-.008a.945.945 0 0 0-.799.423c-.16.232-.216.448-.216.872v1.871h-.608v-3.686h.608zM138.108 289.217v-.607l1.806-1.184v5.373h-.632v-4.366l-1.174.784zM141.621 289.217v-.607l1.807-1.184v5.373h-.632v-4.366l-1.175.784zM145.996 292.455a.406.406 0 0 1-.415.408.403.403 0 0 1-.416-.416c0-.24.176-.416.416-.416s.415.176.415.424zM148.796 290.664c-.224.08-.327.104-.512.104-.895 0-1.59-.703-1.59-1.615 0-.952.76-1.703 1.726-1.703.96 0 1.68.727 1.68 1.68 0 .407-.105.719-.368 1.158l-1.536 2.511h-.743l1.343-2.135zm-1.47-1.535c0 .6.463 1.08 1.063 1.08.615 0 1.079-.464 1.079-1.072 0-.616-.464-1.095-1.048-1.095-.607 0-1.095.48-1.095 1.087zM153.31 289.113v.512c.279-.424.59-.6 1.047-.6.504 0 .823.216.99.671.273-.471.617-.671 1.169-.671.424 0 .743.136.935.392.176.232.224.44.224 1.023v2.359h-.607v-2.215c0-.448-.017-.552-.105-.703-.111-.192-.352-.312-.64-.312-.535 0-.83.36-.83 1.015v2.215h-.609v-2.207c0-.36-.031-.544-.12-.703-.104-.208-.327-.32-.599-.32-.536 0-.855.383-.855 1.023v2.207h-.609v-3.686h.609zM160.9 290.297v.407h-1.95l1.183-1.615c.336-.456.407-.592.407-.768 0-.255-.216-.44-.527-.44-.352 0-.496.177-.504.592h-.44c.024-.647.36-.99.976-.99.56 0 .951.335.951.806 0 .272-.103.52-.384.88l-.847 1.128h1.136z"/></g><g><path d="M256.175 28.567h1.415c1.607 0 2.575.976 2.575 2.583 0 .903-.296 1.647-.84 2.134-.463.416-1.08.616-1.855.616h-1.295v-5.333zm.671 4.757h.24c.904 0 1.288-.096 1.671-.4.48-.383.72-.975.72-1.767 0-1.287-.687-2.023-1.91-2.023h-.72v4.19zM264.14 30.214v2.359c0 .503-.095.783-.368 1.031-.271.248-.647.384-1.063.384-.415 0-.8-.144-1.064-.392-.247-.24-.367-.575-.367-1.023v-2.359h.607v2.343c0 .52.336.887.824.887a.876.876 0 0 0 .656-.28c.12-.143.16-.295.16-.591v-2.359h.615zM267.192 31.221v-.04c0-.343-.28-.56-.703-.56-.408 0-.664.209-.664.529s.16.44.823.623c.472.128.72.248.896.424.184.184.296.448.296.72 0 .64-.528 1.07-1.311 1.07-.84 0-1.312-.39-1.376-1.134h.6c.04.415.312.64.776.64.415 0 .687-.216.687-.545 0-.32-.208-.48-.84-.64-.8-.215-1.159-.55-1.159-1.11 0-.64.52-1.072 1.295-1.072.785 0 1.256.4 1.287 1.095h-.607zM271.853 33.444c-.416.376-.824.544-1.36.544-1.055 0-1.807-.8-1.807-1.919 0-1.144.76-1.943 1.84-1.943.527 0 .959.176 1.343.552l-.392.391c-.28-.255-.592-.383-.935-.383-.728 0-1.232.56-1.232 1.36 0 .815.504 1.382 1.224 1.382.36 0 .647-.12.943-.4l.376.417zM273.395 30.726c.335-.416.671-.6 1.112-.6.319 0 .655.128.855.336.2.2.287.488.287.96V33.9h-.607v-2.447c0-.503-.248-.783-.688-.783a.94.94 0 0 0-.72.328c-.183.208-.239.391-.239.743v2.16h-.608v-5.334h.608v2.159zM277.378 32.253c.03.312.087.472.239.671.24.329.592.504.991.504.456 0 .888-.248 1.104-.631l.536.2c-.304.615-.936.991-1.64.991-1.095 0-1.879-.8-1.879-1.919 0-1.135.776-1.943 1.856-1.943 1.07 0 1.87.808 1.87 1.887 0 .048 0 .152-.007.24h-3.07zm2.43-.448c-.024-.288-.08-.447-.208-.632a1.268 1.268 0 0 0-1.015-.503c-.409 0-.776.192-.992.511-.112.177-.16.328-.208.624h2.422zM258.47 38.174h-1.72v1.432c.272-.104.512-.152.784-.152.935 0 1.64.736 1.64 1.735 0 1.024-.752 1.767-1.8 1.767-.751 0-1.319-.392-1.591-1.095l.576-.216c.128.232.184.327.272.407.167.168.463.272.76.272.639 0 1.127-.495 1.127-1.151 0-.68-.48-1.135-1.183-1.135-.416 0-.84.192-1.184.543v-3.014h2.318v.607zM261.034 42.556a.406.406 0 0 1-.415.408.403.403 0 0 1-.416-.416c0-.24.176-.416.416-.416s.415.176.415.424zM265.336 41.293c0 .6-.113.967-.376 1.247-.28.296-.703.448-1.207.448-.52 0-.952-.16-1.232-.464-.28-.296-.351-.6-.351-1.407v-1.759c0-.696.08-1.023.319-1.311.264-.32.704-.496 1.248-.496.487 0 .887.136 1.183.4.303.28.416.6.416 1.223v2.12zm-2.535-.136c0 .616.024.727.2.928.168.192.456.311.76.311.328 0 .631-.136.783-.351.12-.176.168-.4.168-.792v-2.039c0-.416-.072-.624-.272-.815a1 1 0 0 0-.68-.248c-.343 0-.64.136-.79.383-.137.192-.169.376-.169.84v1.783zM268.665 39.214v.512c.28-.424.592-.6 1.048-.6.503 0 .823.216.99.672.273-.472.617-.672 1.169-.672.424 0 .743.136.935.392.176.232.224.44.224 1.023v2.36h-.607v-2.216c0-.448-.017-.552-.105-.703-.111-.192-.352-.312-.64-.312-.535 0-.83.36-.83 1.015V42.9h-.61v-2.207c0-.36-.03-.543-.118-.703-.105-.208-.328-.32-.6-.32-.536 0-.856.383-.856 1.023V42.9h-.608v-3.686h.608zM276.257 40.398v.407h-1.952l1.184-1.615c.336-.455.407-.592.407-.767 0-.256-.216-.44-.527-.44-.352 0-.496.176-.504.591h-.44c.024-.647.36-.99.976-.99.56 0 .951.335.951.806 0 .272-.103.52-.384.88l-.847 1.128h1.136z"/></g><g><path d="M23.94 188.66v.607h-2.55v-5.333h.67v4.726h1.88zM25.588 184.55c0 .216-.177.384-.393.384s-.384-.168-.384-.392.168-.392.393-.392c.216 0 .384.176.384.4zm-.088 4.717h-.609v-3.686h.609v3.686zM27.551 189.267h-.607v-3.15h-.504v-.536h.504v-.495c0-.728.376-1.16 1.016-1.16.03 0 .103 0 .167.008v.544c-.44.048-.56.176-.576.608v.495h.576v.536h-.576v3.15zM29.935 188.516c.009.183.057.223.28.223h.28v.528h-.568c-.431-.008-.6-.168-.6-.575v-2.575h-.51v-.536h.51v-1.159h.608v1.16h.56v.535h-.56v2.399z"/></g></g></svg>