<svg xmlns="http://www.w3.org/2000/svg" viewBox="0 0 311.73262 384.86173"><defs><style>.cls-1,.cls-10,.cls-11,.cls-12,.cls-13,.cls-14,.cls-15,.cls-16,.cls-2,.cls-3,.cls-4,.cls-5,.cls-6,.cls-7,.cls-8,.cls-9{fill:none;stroke-linecap:round;stroke-linejoin:round}.cls-1,.cls-10,.cls-11,.cls-12,.cls-13,.cls-15,.cls-16,.cls-2,.cls-3,.cls-4,.cls-6,.cls-7,.cls-8,.cls-9{stroke-width:.14173px}.cls-1,.cls-10,.cls-13,.cls-14,.cls-15,.cls-3,.cls-6{stroke:#194164}.cls-1,.cls-6{stroke-dasharray:0 0 0 0 2.88 1.44 .24 1.44}.cls-2{stroke:#646464}.cls-3{stroke-dashoffset:.96px}.cls-10,.cls-11,.cls-15,.cls-16,.cls-3,.cls-4,.cls-7,.cls-8,.cls-9{stroke-dasharray:0 0 1.44 1.44}.cls-17,.cls-18{fill:#fff}.cls-11,.cls-12,.cls-16,.cls-4,.cls-7,.cls-8,.cls-9{stroke:#969696}.cls-5{stroke:#000;stroke-width:.288px}.cls-6{stroke-dashoffset:1.92px}.cls-7{stroke-dashoffset:2.66376px}.cls-8{stroke-dashoffset:2.5133px}.cls-15,.cls-9{stroke-dashoffset:.72px}.cls-18,.cls-19{fill-rule:evenodd}.cls-10{stroke-dashoffset:.24px}.cls-11{stroke-dashoffset:.98955px}.cls-14{stroke-width:.28346px}.cls-16{stroke-dashoffset:1.2px}</style></defs><g id="Plan"><path class="cls-13" d="M303.022 156.551h-35.52M284.782 159.671h13.92M272.062 162.551h13.68"/><path class="cls-12" d="M31.822 334.871h59.28v3.36h-59.28z"/><path class="cls-13" d="M120.862 176.231h34.08M120.862 168.791h34.08M120.862 161.111h34.08M120.862 153.431h34.08M253.102 153.431h-34.08M253.102 161.111h-34.08M253.102 168.791h-34.08M253.102 176.231h-34.08M179.422 215.591l-8.16-35.52M154.942 148.151h64.08v33.36h-64.08zM236.062 153.43l3.84 3.84h-7.68l3.84-3.84zM160.222 181.511v34.08M167.902 181.511v34.08M175.582 181.511v34.08M183.262 181.511v34.08M190.702 181.511v34.08M198.382 181.511v34.08M206.062 181.511v34.08M213.742 181.511v34.08"/><path class="cls-13" d="M156.382 149.591h61.2v30.48h-61.2zM213.742 198.55l-3.84 3.84v-7.68l3.84 3.84zM175.582 198.55l-3.84 3.84v-7.68l3.84 3.84zM137.902 176.23l-3.84-3.6h7.68l-3.84 3.6z"/><path class="cls-18" d="M250.222 212.95v-65.04h1.44v66.24h-129.36v-66.24h1.44v65.04h126.48"/><path class="cls-13" d="M250.222 212.95v-65.04h1.44v66.24h-129.36v-66.24h1.44v65.04h126.48z"/><path class="cls-18" d="M120.862 215.59l-6.96 7.2h139.2v-7.2h-132.24"/><path class="cls-12" d="M253.342 215.831l-.24-.24M253.342 219.671l-4.32-4.08M252.142 222.791l-7.2-7.2M248.302 222.791l-7.2-7.2M244.222 222.791l-7.2-7.2M240.142 222.791l-7.2-7.2M236.302 222.791l-7.2-7.2M232.222 222.791l-7.2-7.2M228.142 222.791l-7.2-7.2M224.302 222.791l-7.2-7.2M220.222 222.791l-7.2-7.2M216.142 222.791l-7.2-7.2M212.062 222.791l-7.2-7.2M208.222 222.791l-7.2-7.2M204.142 222.791l-7.2-7.2M200.062 222.791l-7.2-7.2M196.222 222.791l-7.2-7.2M192.142 222.791l-7.2-7.2M188.062 222.791l-7.2-7.2M184.222 222.791l-7.2-7.2M180.142 222.791l-7.2-7.2M176.062 222.791l-7.2-7.2M171.982 222.791l-7.2-7.2M168.142 222.791l-7.2-7.2M164.062 222.791l-7.2-7.2M159.982 222.791l-7.2-7.2M156.142 222.791l-7.2-7.2M152.062 222.791l-7.2-7.2M147.982 222.791l-7.2-7.2M143.902 222.791l-7.2-7.2M140.062 222.791l-7.2-7.2M135.982 222.791l-7.2-7.2M131.902 222.791l-7.2-7.2M128.062 222.791l-7.2-7.2M123.982 222.791l-5.04-5.04M119.902 222.791l-2.88-3.12M116.062 222.791l-1.2-.96M253.102 222.791l.24-.24M249.022 222.791l4.32-4.32M244.942 222.791l7.2-7.2M240.862 222.791l7.2-7.2M237.022 222.791l7.2-7.2M232.942 222.791l7.2-7.2M228.862 222.791l7.2-7.2M225.022 222.791l7.2-7.2M220.942 222.791l7.2-7.2M216.862 222.791l7.2-7.2M213.022 222.791l7.2-7.2M208.942 222.791l7.2-7.2M204.862 222.791l7.2-7.2M200.782 222.791l7.2-7.2M196.942 222.791l7.2-7.2M192.862 222.791l7.2-7.2M188.782 222.791l7.2-7.2M184.942 222.791l7.2-7.2M180.862 222.791l7.2-7.2M176.782 222.791l7.2-7.2M172.702 222.791l7.2-7.2M168.862 222.791l7.2-7.2M164.782 222.791l7.2-7.2M160.702 222.791l7.2-7.2M156.862 222.791l7.2-7.2M152.782 222.791l7.2-7.2M148.702 222.791l7.2-7.2M144.862 222.791l7.2-7.2M140.782 222.791l7.2-7.2M136.702 222.791l7.2-7.2M132.622 222.791l7.2-7.2M128.782 222.791l7.2-7.2M124.702 222.791l7.2-7.2M120.622 222.791l7.2-7.2M116.782 222.791l7.2-7.2"/><path class="cls-18" d="M120.862 215.59l-6.96 7.2h139.2v-7.2h-132.24"/><path class="cls-12" d="M253.342 215.831l-.24-.24M253.342 219.671l-4.32-4.08M252.142 222.791l-7.2-7.2M248.302 222.791l-7.2-7.2M244.222 222.791l-7.2-7.2M240.142 222.791l-7.2-7.2M236.302 222.791l-7.2-7.2M232.222 222.791l-7.2-7.2M228.142 222.791l-7.2-7.2M224.302 222.791l-7.2-7.2M220.222 222.791l-7.2-7.2M216.142 222.791l-7.2-7.2M212.062 222.791l-7.2-7.2M208.222 222.791l-7.2-7.2M204.142 222.791l-7.2-7.2M200.062 222.791l-7.2-7.2M196.222 222.791l-7.2-7.2M192.142 222.791l-7.2-7.2M188.062 222.791l-7.2-7.2M184.222 222.791l-7.2-7.2M180.142 222.791l-7.2-7.2M176.062 222.791l-7.2-7.2M171.982 222.791l-7.2-7.2M168.142 222.791l-7.2-7.2M164.062 222.791l-7.2-7.2M159.982 222.791l-7.2-7.2M156.142 222.791l-7.2-7.2M152.062 222.791l-7.2-7.2M147.982 222.791l-7.2-7.2M143.902 222.791l-7.2-7.2M140.062 222.791l-7.2-7.2M135.982 222.791l-7.2-7.2M131.902 222.791l-7.2-7.2M128.062 222.791l-7.2-7.2M123.982 222.791l-5.04-5.04M119.902 222.791l-2.88-3.12M116.062 222.791l-1.2-.96M253.102 222.791l.24-.24M249.022 222.791l4.32-4.32M244.942 222.791l7.2-7.2M240.862 222.791l7.2-7.2M237.022 222.791l7.2-7.2M232.942 222.791l7.2-7.2M228.862 222.791l7.2-7.2M225.022 222.791l7.2-7.2M220.942 222.791l7.2-7.2M216.862 222.791l7.2-7.2M213.022 222.791l7.2-7.2M208.942 222.791l7.2-7.2M204.862 222.791l7.2-7.2M200.782 222.791l7.2-7.2M196.942 222.791l7.2-7.2M192.862 222.791l7.2-7.2M188.782 222.791l7.2-7.2M184.942 222.791l7.2-7.2M180.862 222.791l7.2-7.2M176.782 222.791l7.2-7.2M172.702 222.791l7.2-7.2M168.862 222.791l7.2-7.2M164.782 222.791l7.2-7.2M160.702 222.791l7.2-7.2M156.862 222.791l7.2-7.2M152.782 222.791l7.2-7.2M148.702 222.791l7.2-7.2M144.862 222.791l7.2-7.2M140.782 222.791l7.2-7.2M136.702 222.791l7.2-7.2M132.622 222.791l7.2-7.2M128.782 222.791l7.2-7.2M124.702 222.791l7.2-7.2M120.622 222.791l7.2-7.2M116.782 222.791l7.2-7.2"/><path class="cls-18" d="M69.022 107.11h-5.04V16.63h5.04v90.48"/><path class="cls-12" d="M64.222 20.471l3.84-3.84M64.222 24.791l5.04-5.04M64.222 29.111l5.04-5.04M64.222 33.191l5.04-5.04M64.222 37.511l5.04-5.04M64.222 41.831l5.04-5.04M64.222 45.911l5.04-5.04M64.222 50.231l5.04-5.04M64.222 54.551l5.04-5.04M64.222 58.871l5.04-5.04M64.222 62.951l5.04-5.04M64.222 67.271l5.04-5.04M64.222 71.591l5.04-5.04M64.222 75.671l5.04-5.04M64.222 79.991l5.04-5.04M64.222 84.311l5.04-5.04M64.222 88.631l5.04-5.04M64.222 92.711l5.04-5.04M64.222 97.031l5.04-5.04M64.222 101.351l5.04-5.04M64.222 105.431l5.04-5.04M66.862 107.111l2.4-2.4"/><path class="cls-18" d="M63.982 107.11h5.04V16.63h-5.04v90.48"/><path class="cls-12" d="M64.222 20.471l3.84-3.84M64.222 24.791l5.04-5.04M64.222 29.111l5.04-5.04M64.222 33.191l5.04-5.04M64.222 37.511l5.04-5.04M64.222 41.831l5.04-5.04M64.222 45.911l5.04-5.04M64.222 50.231l5.04-5.04M64.222 54.551l5.04-5.04M64.222 58.871l5.04-5.04M64.222 62.951l5.04-5.04M64.222 67.271l5.04-5.04M64.222 71.591l5.04-5.04M64.222 75.671l5.04-5.04M64.222 79.991l5.04-5.04M64.222 84.311l5.04-5.04M64.222 88.631l5.04-5.04M64.222 92.711l5.04-5.04M64.222 97.031l5.04-5.04M64.222 101.351l5.04-5.04M64.222 105.431l5.04-5.04M66.862 107.111l2.4-2.4"/><path class="cls-13" d="M37.342 100.151h26.16v1.2h-26.16zM61.342 98.711h.72v1.44h-.72zM61.342 101.351h.72v1.44h-.72zM57.502 95.111h-9.84M51.022 97.27l-3.36-2.16 3.36-1.92"/><path class="cls-15" d="M41.662 100.151h-25.92"/><path class="cls-13" d="M15.742 100.151v.72"/><path class="cls-15" d="M15.742 101.351h25.92"/><path class="cls-13" d="M41.662 101.351v-.72M40.462 98.711v1.44M39.742 99.431v-.72M39.742 98.711h.72M39.742 102.791v-1.44M40.462 102.071v.72M40.462 102.791h-.72"/><path class="cls-1" d="M37.822 102.311h26.16M63.982 107.111h-26.16"/><path class="cls-13" d="M69.502 100.151h25.92v1.2h-25.92zM70.702 98.711h.72v1.44h-.72zM70.702 101.351h.72v1.44h-.72zM75.262 95.111h10.08M81.742 93.19l3.6 1.92-3.6 2.16"/><path class="cls-15" d="M91.102 100.151h25.92"/><path class="cls-13" d="M117.022 100.151v.72"/><path class="cls-15" d="M117.022 101.351h-25.92"/><path class="cls-13" d="M91.102 101.351v-.72M92.542 98.711v1.44M93.262 99.431v-.72M93.262 98.711h-.72M93.262 102.791v-1.44M92.542 102.071v.72M92.542 102.791h.72"/><path class="cls-1" d="M94.942 102.311h-25.92M69.022 107.111h25.92"/><path class="cls-18" d="M94.942 107.11h18.96v-4.8h-18.96v4.8"/><path class="cls-12" d="M95.182 104.231l1.92-1.92M96.622 107.111l4.8-4.8M100.702 107.111l4.8-4.8M105.022 107.111l4.8-4.8M109.342 107.111l4.8-4.8M113.422 107.111l.72-.48"/><path class="cls-18" d="M94.942 107.11h18.96v-4.8h-18.96v4.8"/><path class="cls-12" d="M95.182 104.231l1.92-1.92M96.622 107.111l4.8-4.8M100.702 107.111l4.8-4.8M105.022 107.111l4.8-4.8M109.342 107.111l4.8-4.8M113.422 107.111l.72-.48"/><path class="cls-18" d="M37.822 102.31v4.8H7.342v-4.8h30.48"/><path class="cls-12" d="M7.582 102.551l.24-.24M7.582 106.871l4.56-4.56M11.422 107.111l4.8-4.8M15.742 107.111l4.8-4.8M20.062 107.111l4.8-4.8M24.382 107.111l4.8-4.8M28.462 107.111l4.8-4.8M32.782 107.111l4.8-4.8M37.102 107.111l.96-.96"/><path class="cls-18" d="M37.822 107.11v-4.8H7.342v4.8h30.48"/><path class="cls-12" d="M7.582 102.551l.24-.24M7.582 106.871l4.56-4.56M11.422 107.111l4.8-4.8M15.742 107.111l4.8-4.8M20.062 107.111l4.8-4.8M24.382 107.111l4.8-4.8M28.462 107.111l4.8-4.8M32.782 107.111l4.8-4.8M37.102 107.111l.96-.96"/><path class="cls-13" d="M87.982 166.871h17.52v67.92h-17.52z"/><path class="cls-17" d="M89.422 175.991h14.64v15.84h-14.64z"/><path class="cls-13" d="M89.422 175.991h14.64v15.84h-14.64z"/><path class="cls-18" d="M97.102 187.87c0-1.514-1.301-2.76-2.88-2.76s-2.88 1.246-2.88 2.76 1.3 2.76 2.88 2.76 2.88-1.245 2.88-2.76"/><path class="cls-13" d="M97.102 187.87c0-1.514-1.301-2.76-2.88-2.76s-2.88 1.246-2.88 2.76 1.3 2.76 2.88 2.76 2.88-1.245 2.88-2.76"/><path class="cls-18" d="M103.102 188.83c0-1.25-.975-2.28-2.16-2.28s-2.16 1.03-2.16 2.28.974 2.28 2.16 2.28 2.16-1.029 2.16-2.28"/><path class="cls-13" d="M103.102 188.83c0-1.25-.975-2.28-2.16-2.28s-2.16 1.03-2.16 2.28.974 2.28 2.16 2.28 2.16-1.029 2.16-2.28"/><path class="cls-18" d="M96.382 180.31c0-1.185-.975-2.16-2.16-2.16s-2.16.975-2.16 2.16.974 2.16 2.16 2.16 2.16-.974 2.16-2.16"/><path class="cls-13" d="M96.382 180.31c0-1.185-.975-2.16-2.16-2.16s-2.16.975-2.16 2.16.974 2.16 2.16 2.16 2.16-.974 2.16-2.16"/><path class="cls-18" d="M103.342 180.55c0-1.578-1.246-2.88-2.76-2.88s-2.76 1.302-2.76 2.88 1.245 2.88 2.76 2.88 2.76-1.3 2.76-2.88"/><path class="cls-13" d="M103.342 180.55c0-1.578-1.246-2.88-2.76-2.88s-2.76 1.302-2.76 2.88 1.245 2.88 2.76 2.88 2.76-1.3 2.76-2.88M90.382 175.271h-2.4M90.382 192.311h-2.4M90.382 209.351h-2.4M90.382 234.071h-2.4M95.422 234.791h16.56v.48h-16.56zM95.422 235.271h.48v17.04h-.48zM95.902 251.831h15.36v.48h-15.36zM95.902 235.271h15.36v.48h-15.36zM111.262 235.271h.72v17.04h-.72z"/><path class="cls-18" d="M100.383 225.45h-8.928a1.942 1.942 0 0 1-.761-.151 1.978 1.978 0 0 1-1.073-1.073 1.942 1.942 0 0 1-.151-.76v-11.197a1.975 1.975 0 0 1 .58-1.404c.185-.182.404-.329.644-.43.242-.098.499-.15.76-.15h8.929c.261 0 .518.052.76.15.24.101.459.248.644.43a1.974 1.974 0 0 1 .58 1.404v11.196a1.942 1.942 0 0 1-.15.761 1.981 1.981 0 0 1-1.447 1.186 1.901 1.901 0 0 1-.387.038"/><path class="cls-13" d="M100.383 225.45h-8.928a1.942 1.942 0 0 1-.761-.151 1.978 1.978 0 0 1-1.073-1.073 1.942 1.942 0 0 1-.151-.76v-11.197a1.975 1.975 0 0 1 .58-1.404c.185-.182.404-.329.644-.43.242-.098.499-.15.76-.15h8.929c.261 0 .518.052.76.15.24.101.459.248.644.43a1.974 1.974 0 0 1 .58 1.404v11.196a1.942 1.942 0 0 1-.15.761 1.981 1.981 0 0 1-1.447 1.186 1.901 1.901 0 0 1-.387.038"/><path class="cls-18" d="M100.222 217.87c0-.592-.487-1.08-1.08-1.08s-1.08.488-1.08 1.08c0 .594.487 1.08 1.08 1.08s1.08-.486 1.08-1.08"/><path class="cls-13" d="M100.222 217.87c0-.592-.487-1.08-1.08-1.08s-1.08.488-1.08 1.08c0 .594.487 1.08 1.08 1.08s1.08-.486 1.08-1.08M90.382 167.591h-2.4M95.422 166.391h16.56v.48h-16.56zM95.422 149.351h.48v17.04h-.48zM95.902 149.351h15.36v.72h-15.36zM95.902 165.911h15.36v.48h-15.36zM95.422 148.391h.48v.96h-.48zM111.262 149.351h.72v17.04h-.72zM113.902 233.831h-7.68"/><path class="cls-5" d="M113.902 234.551h-8.4"/><path class="cls-13" d="M113.902 232.391h-6.24M113.902 233.831h-7.68M113.902 234.551h-8.4M113.902 232.391h-6.24"/><path class="cls-5" d="M113.902 233.831v.72"/><path class="cls-13" d="M113.902 232.391v1.44M106.222 233.831v-65.76"/><path class="cls-5" d="M105.502 234.551v-67.2"/><path class="cls-13" d="M107.662 232.391v-62.88M106.222 233.831v-65.76M105.502 234.551v-67.2M107.662 232.391v-62.88M106.222 168.071h7.68"/><path class="cls-5" d="M105.502 167.351h8.4"/><path class="cls-13" d="M107.662 169.511h6.24M106.222 168.071h7.68"/><path class="cls-5" d="M113.902 168.071v-.72"/><path class="cls-13" d="M113.902 169.511v-1.44M105.502 167.351h8.4M107.662 169.511h6.24M95.422 252.311h.48v17.04h-.48zM95.902 268.631h15.36v.72h-15.36zM95.902 252.311h15.36v.48h-15.36zM111.262 252.311h.72v17.04h-.72zM95.422 269.351h.48v17.04h-.48zM95.902 285.671h15.36v.72h-15.36zM95.902 269.351h15.36v.48h-15.36zM111.262 269.351h.72v17.04h-.72zM95.422 286.391h.48v.96h-.48zM90.382 226.391h-2.4"/><path class="cls-1" d="M95.422 234.791v-67.92"/><path class="cls-13" d="M96.142 143.111h17.76"/><path class="cls-5" d="M95.422 142.391h18.48"/><path class="cls-13" d="M97.582 144.551h16.32M96.142 143.111h17.76"/><path class="cls-5" d="M113.902 143.111v-.72"/><path class="cls-13" d="M113.902 144.551v-1.44M95.422 142.391h18.48M97.582 144.551h16.32M96.142 147.671v-4.56"/><path class="cls-5" d="M95.422 148.391v-6"/><path class="cls-13" d="M97.582 146.231v-1.68M96.142 147.671v-4.56M95.422 148.391v-6M97.582 146.231v-1.68"/><path class="cls-17" d="M99.502 142.391h9.84v2.4h-9.84z"/><path class="cls-13" d="M99.502 142.391h9.84v2.4h-9.84z"/><path class="cls-17" d="M99.022 142.151h10.56v.24h-10.56z"/><path class="cls-13" d="M99.022 142.151h10.56v.24h-10.56z"/><path class="cls-9" d="M108.622 142.151v-8.4"/><path class="cls-4" d="M99.982 142.15l.24-1.68.48-1.44.72-1.68 1.2-1.2 1.2-.96 1.44-.96 1.68-.48h1.68"/><path class="cls-13" d="M113.902 147.671h-17.76"/><path class="cls-5" d="M113.902 148.391h-18.48"/><path class="cls-13" d="M113.902 146.231h-16.32M113.902 147.671h-17.76M113.902 148.391h-18.48M113.902 146.231h-16.32"/><path class="cls-5" d="M113.902 147.671v.72"/><path class="cls-13" d="M113.902 146.231v1.44"/><path class="cls-17" d="M15.262 17.111h48.24v50.64h-48.24z"/><path class="cls-13" d="M15.262 17.111h48.24v50.64h-48.24z"/><path class="cls-18" d="M33.55 54.58c.859 1.295.859 2.98 0 4.275a7.922 7.922 0 0 1-6.2 2.894l-7.187-.253V51.94l7.188-.254a7.921 7.921 0 0 1 6.199 2.894"/><path class="cls-13" d="M33.55 54.58c.859 1.295.859 2.98 0 4.275a7.922 7.922 0 0 1-6.2 2.894l-7.187-.253V51.94l7.188-.254a7.921 7.921 0 0 1 6.199 2.894"/><path class="cls-18" d="M23.431 56.718a3.837 3.837 0 0 1 1.059-2.783 3.836 3.836 0 0 1 2.73-1.185 6.857 6.857 0 0 1 5.413 2.5 2.73 2.73 0 0 1 0 2.936 6.857 6.857 0 0 1-5.412 2.5A3.836 3.836 0 0 1 24.49 59.5a3.838 3.838 0 0 1-1.059-2.782"/><path class="cls-13" d="M23.431 56.718a3.837 3.837 0 0 1 1.059-2.783 3.836 3.836 0 0 1 2.73-1.185 6.857 6.857 0 0 1 5.413 2.5 2.73 2.73 0 0 1 0 2.936 6.857 6.857 0 0 1-5.412 2.5A3.836 3.836 0 0 1 24.49 59.5a3.838 3.838 0 0 1-1.059-2.782"/><path class="cls-18" d="M20.062 51.91h-4.8v9.6h4.8v-9.6"/><path class="cls-13" d="M15.262 51.911h4.8v9.6h-4.8zM63.502 19.031h-48.24M14.542 102.311v-13.68"/><path class="cls-5" d="M15.262 102.311v-14.4"/><path class="cls-13" d="M13.102 102.311v-12.24M14.542 102.311v-13.68M15.262 102.311v-14.4M13.102 102.311v-12.24"/><path class="cls-5" d="M14.542 102.311h.72"/><path class="cls-13" d="M13.102 102.311h1.44M10.702 88.631v-18.48"/><path class="cls-5" d="M11.422 87.911v-17.04"/><path class="cls-13" d="M9.262 90.071v-21.36M10.702 88.631v-18.48M11.422 87.911v-17.04M9.262 90.071v-21.36M14.542 70.151v-53.52"/><path class="cls-5" d="M15.262 70.871v-54.24"/><path class="cls-13" d="M13.102 68.711v-52.08M14.542 70.151v-53.52"/><path class="cls-5" d="M14.542 16.631h.72"/><path class="cls-13" d="M13.102 16.631h1.44M15.262 70.871v-54.24M13.102 68.711v-52.08"/><path class="cls-18" d="M15.202 71.613H27.25a1.145 1.145 0 0 1 .801.332 1.123 1.123 0 0 1 .331.802V86.07a1.137 1.137 0 0 1-.698 1.047 1.168 1.168 0 0 1-.434.087H15.202v-15.59"/><path class="cls-13" d="M15.202 71.613H27.25a1.145 1.145 0 0 1 .801.332 1.123 1.123 0 0 1 .331.802V86.07a1.137 1.137 0 0 1-.698 1.047 1.168 1.168 0 0 1-.434.087H15.202v-15.59"/><path class="cls-10" d="M15.262 87.911h-3.84"/><path class="cls-3" d="M11.422 87.911v-17.04"/><path class="cls-10" d="M11.422 70.871h3.84"/><path class="cls-13" d="M10.702 70.151h3.84"/><path class="cls-5" d="M11.422 70.871h3.84"/><path class="cls-13" d="M9.262 68.711h3.84M10.702 70.151h3.84M11.422 70.871h3.84M9.262 68.711h3.84M14.542 88.631h-3.84"/><path class="cls-5" d="M15.262 87.911h-3.84"/><path class="cls-13" d="M13.102 90.071h-3.84M14.542 88.631h-3.84M15.262 87.911h-3.84M13.102 90.071h-3.84"/><path class="cls-5" d="M15.262 87.911v-17.04"/><path class="cls-19" d="M29.902 327.43v14.64H.142v-14.64h29.76"/><path class="cls-18" d="M29.902 342.07v-3.36H.142v3.36h29.76"/><path class="cls-12" d="M.382 339.671l2.4 2.4M3.262 338.711l3.36 3.36M7.342 338.711l3.36 3.36M11.422 338.711l3.36 3.36M15.502 338.711l3.36 3.36M19.342 338.711l3.36 3.36M23.422 338.711l3.36 3.36M27.502 338.711l2.64 2.64"/><path class="cls-18" d="M29.902 338.71v-.48H.142v.48h29.76"/><path class="cls-18" d="M29.902 338.23v-5.76H.142v5.76h29.76"/><path class="cls-12" d="M1.582 332.471v5.76M3.022 332.471v5.76M4.462 332.471v5.76M5.902 332.471v5.76M7.342 332.471v5.76M8.782 332.471v5.76M9.982 332.471v5.76M11.422 332.471v5.76M12.862 332.471v5.76M14.302 332.471v5.76M15.742 332.471v5.76M17.182 332.471v5.76M18.622 332.471v5.76M20.062 332.471v5.76M21.502 332.471v5.76M22.942 332.471v5.76M24.382 332.471v5.76M25.582 332.471v5.76M27.022 332.471v5.76M28.462 332.471v5.76M29.902 332.471v5.76"/><path class="cls-18" d="M29.902 332.47v-5.04H.142v5.04h29.76"/><path class="cls-12" d="M.382 331.511l.72.96M.382 327.671l4.8 4.8M4.222 327.431l5.04 5.04M8.062 327.431l5.04 5.04M12.142 327.431l5.04 5.04M16.222 327.431l5.04 5.04M20.062 327.431l5.04 5.04M24.142 327.431l5.04 5.04M28.222 327.431l1.92 1.92M29.902 332.471H.142M29.902 338.231H.142"/><path class="cls-13" d="M29.902 342.071H.142M29.902 327.431H.142"/><path class="cls-19" d="M144.142 327.43v14.64h-51.36v-14.64h51.36"/><path class="cls-18" d="M144.142 342.07v-3.36h-51.36v3.36h51.36"/><path class="cls-12" d="M93.022 340.151l1.92 1.92M95.662 338.711l3.36 3.36M99.502 338.711l3.36 3.36M103.582 338.711l3.36 3.36M107.662 338.711l3.36 3.36M111.502 338.711l3.36 3.36M115.582 338.711l3.36 3.36M119.662 338.711l3.36 3.36M123.742 338.711l3.36 3.36M127.582 338.711l3.36 3.36M131.662 338.711l3.36 3.36M135.742 338.711l3.36 3.36M139.582 338.711l3.36 3.36M143.662 338.711l.72.48"/><path class="cls-18" d="M144.142 338.71v-.48h-51.36v.48h51.36"/><path class="cls-18" d="M144.142 338.23v-5.76h-51.36v5.76h51.36"/><path class="cls-12" d="M93.742 332.471v5.76M95.182 332.471v5.76M96.622 332.471v5.76M98.062 332.471v5.76M99.502 332.471v5.76M100.702 332.471v5.76M102.142 332.471v5.76M103.582 332.471v5.76M105.022 332.471v5.76M106.462 332.471v5.76M107.902 332.471v5.76M109.342 332.471v5.76M110.782 332.471v5.76M112.222 332.471v5.76M113.662 332.471v5.76M114.862 332.471v5.76M116.302 332.471v5.76M117.742 332.471v5.76M119.182 332.471v5.76M120.622 332.471v5.76M122.062 332.471v5.76M123.502 332.471v5.76M124.942 332.471v5.76M126.382 332.471v5.76M127.822 332.471v5.76M129.262 332.471v5.76M130.462 332.471v5.76M131.902 332.471v5.76M133.342 332.471v5.76M134.782 332.471v5.76M136.222 332.471v5.76M137.662 332.471v5.76M139.102 332.471v5.76M140.542 332.471v5.76M141.982 332.471v5.76M143.422 332.471v5.76"/><path class="cls-18" d="M144.142 332.47v-5.04h-51.36v5.04h51.36"/><path class="cls-12" d="M93.022 331.991l.24.48M93.022 327.911l4.32 4.56M96.382 327.431l5.04 5.04M100.222 327.431l5.04 5.04M104.302 327.431l5.04 5.04M108.382 327.431l5.04 5.04M112.462 327.431l5.04 5.04M116.302 327.431l5.04 5.04M120.382 327.431l5.04 5.04M124.462 327.431l5.04 5.04M128.302 327.431l5.04 5.04M132.382 327.431l5.04 5.04M136.462 327.431l5.04 5.04M140.302 327.431l4.08 3.84M144.142 332.471h-51.36M144.142 338.231h-51.36"/><path class="cls-13" d="M144.142 342.071h-51.36M144.142 327.431h-51.36"/><path class="cls-19" d="M216.142 327.43v14.64h-31.2v-14.64h31.2"/><path class="cls-18" d="M216.142 342.07v-3.36h-31.2v3.36h31.2"/><path class="cls-12" d="M185.182 339.911l1.92 2.16M187.822 338.711l3.36 3.36M191.902 338.711l3.36 3.36M195.742 338.711l3.36 3.36M199.822 338.711l3.36 3.36M203.902 338.711l3.36 3.36M207.742 338.711l3.36 3.36M211.822 338.711l3.36 3.36M215.902 338.711l.48.48"/><path class="cls-18" d="M216.142 338.71v-.48h-31.2v.48h31.2"/><path class="cls-18" d="M216.142 338.23v-5.76h-31.2v5.76h31.2"/><path class="cls-12" d="M185.902 332.471v5.76M187.342 332.471v5.76M188.782 332.471v5.76M189.982 332.471v5.76M191.422 332.471v5.76M192.862 332.471v5.76M194.302 332.471v5.76M195.742 332.471v5.76M197.182 332.471v5.76M198.622 332.471v5.76M200.062 332.471v5.76M201.502 332.471v5.76M202.942 332.471v5.76M204.382 332.471v5.76M205.582 332.471v5.76M207.022 332.471v5.76M208.462 332.471v5.76M209.902 332.471v5.76M211.342 332.471v5.76M212.782 332.471v5.76M214.222 332.471v5.76M215.662 332.471v5.76"/><path class="cls-18" d="M216.142 332.47v-5.04h-31.2v5.04h31.2"/><path class="cls-12" d="M185.182 331.991l.48.48M185.182 327.911l4.32 4.56M188.542 327.431l5.04 5.04M192.622 327.431l5.04 5.04M196.462 327.431l5.04 5.04M200.542 327.431l5.04 5.04M204.622 327.431l5.04 5.04M208.462 327.431l5.04 5.04M212.542 327.431l3.84 3.6M216.142 332.471h-31.2M216.142 338.231h-31.2"/><path class="cls-13" d="M216.142 342.071h-31.2M216.142 327.431h-31.2"/><path class="cls-1" d="M92.782 327.431h-62.88"/><path class="cls-13" d="M29.902 332.471h62.88v2.4h-62.88zM89.182 334.871v-2.4M33.742 334.871v-2.4M92.782 332.471v2.4M74.062 332.471v2.4M89.182 332.471v2.4M69.742 332.471v2.4M74.062 332.471v2.4M52.942 332.471v2.4M69.742 332.471v2.4M48.862 332.471v2.4M52.942 332.471v2.4M33.742 332.471v2.4M48.862 332.471v2.4M29.902 332.471v2.4M28.462 342.071v1.92"/><path class="cls-6" d="M28.462 343.991h66"/><path class="cls-13" d="M94.462 343.991v-.96"/><path class="cls-18" d="M92.87 338.197h-1.84v-3.4h1.84"/><path class="cls-12" d="M92.302 334.871v3.36M92.87 338.197h-1.84v-3.4h1.84"/><path class="cls-18" d="M92.782 342.07h-1.68v-3.36h1.68"/><path class="cls-12" d="M91.582 338.711l1.44 1.44"/><path class="cls-18" d="M29.943 338.197h1.843v-3.4h-1.843"/><path class="cls-12" d="M31.342 334.871v3.36M29.943 338.197h1.843v-3.4h-1.843"/><path class="cls-18" d="M29.902 342.07h1.92v-3.36h-1.92"/><path class="cls-12" d="M30.142 341.351l.72.72M31.342 338.711l.72.48"/><path class="cls-13" d="M183.262 334.87v7.2h3.36v1.92h-43.92v-1.92h3.36v-7.2"/><path class="cls-1" d="M184.942 327.431h-40.8"/><path class="cls-13" d="M144.622 327.431h-.48M144.142 332.471h40.8v2.4h-40.8zM181.342 334.871v-2.4M147.982 334.871v-2.4M184.942 332.471v2.4M166.702 332.471v2.4M181.342 332.471v2.4M162.622 332.471v2.4M166.702 332.471v2.4M147.982 332.471v2.4M162.622 332.471v2.4M144.142 332.471v2.4"/><path class="cls-18" d="M184.997 338.197h-1.843v-3.4h1.843"/><path class="cls-12" d="M184.462 334.871v3.36M184.997 338.197h-1.843v-3.4h1.843"/><path class="cls-18" d="M184.942 342.07h-1.68v-3.36h1.68"/><path class="cls-12" d="M183.742 338.711l1.44 1.2"/><path class="cls-18" d="M144.178 338.197h1.843v-3.4h-1.843"/><path class="cls-12" d="M144.622 334.871v3.36M146.062 334.871v3.36M144.178 338.197h1.843v-3.4h-1.843"/><path class="cls-18" d="M144.142 342.07h1.92v-3.36h-1.92"/><path class="cls-12" d="M144.382 339.191l1.92 1.92"/><path class="cls-18" d="M216.142 222.79h-7.2v109.68h7.2V222.79"/><path class="cls-12" d="M216.382 222.791h-.24M216.382 226.871l-4.32-4.08M216.382 230.951l-7.2-7.2M216.382 234.791l-7.2-7.2M216.382 238.871l-7.2-7.2M216.382 242.951l-7.2-7.2M216.382 247.031l-7.2-7.2M216.382 250.871l-7.2-7.2M216.382 254.951l-7.2-7.2M216.382 259.031l-7.2-7.2M216.382 262.871l-7.2-7.2M216.382 266.951l-7.2-7.2M216.382 271.031l-7.2-7.2M216.382 275.111l-7.2-7.2M216.382 278.951l-7.2-7.2M216.382 283.031l-7.2-7.2M216.382 287.111l-7.2-7.2M216.382 290.951l-7.2-7.2M216.382 295.031l-7.2-7.2M216.382 299.111l-7.2-7.2M216.382 302.951l-7.2-7.2M216.382 307.031l-7.2-7.2M216.382 311.111l-7.2-7.2M216.382 315.191l-7.2-7.2M216.382 319.031l-7.2-7.2M216.382 323.111l-7.2-7.2M216.382 327.191l-7.2-7.2M216.382 331.031l-7.2-7.2M213.502 332.471l-4.32-4.56M209.662 332.471l-.48-.48M215.422 332.471l.96-.72M211.342 332.471l5.04-4.8M209.182 330.791l7.2-7.2M209.182 326.951l7.2-7.2M209.182 322.871l7.2-7.2M209.182 318.791l7.2-7.2M209.182 314.711l7.2-7.2M209.182 310.871l7.2-7.2M209.182 306.791l7.2-7.2M209.182 302.711l7.2-7.2M209.182 298.871l7.2-7.2M209.182 294.791l7.2-7.2M209.182 290.711l7.2-7.2M209.182 286.871l7.2-7.2M209.182 282.791l7.2-7.2M209.182 278.711l7.2-7.2M209.182 274.631l7.2-7.2M209.182 270.791l7.2-7.2M209.182 266.711l7.2-7.2M209.182 262.631l7.2-7.2M209.182 258.791l7.2-7.2M209.182 254.711l7.2-7.2M209.182 250.631l7.2-7.2M209.182 246.791l7.2-7.2M209.182 242.711l7.2-7.2M209.182 238.631l7.2-7.2M209.182 234.551l7.2-7.2M209.182 230.711l7.2-7.2M209.182 226.631l3.84-3.84"/><path class="cls-18" d="M216.142 222.79h-7.2v109.68h7.2V222.79"/><path class="cls-12" d="M216.382 222.791h-.24M216.382 226.871l-4.32-4.08M216.382 230.951l-7.2-7.2M216.382 234.791l-7.2-7.2M216.382 238.871l-7.2-7.2M216.382 242.951l-7.2-7.2M216.382 247.031l-7.2-7.2M216.382 250.871l-7.2-7.2M216.382 254.951l-7.2-7.2M216.382 259.031l-7.2-7.2M216.382 262.871l-7.2-7.2M216.382 266.951l-7.2-7.2M216.382 271.031l-7.2-7.2M216.382 275.111l-7.2-7.2M216.382 278.951l-7.2-7.2M216.382 283.031l-7.2-7.2M216.382 287.111l-7.2-7.2M216.382 290.951l-7.2-7.2M216.382 295.031l-7.2-7.2M216.382 299.111l-7.2-7.2M216.382 302.951l-7.2-7.2M216.382 307.031l-7.2-7.2M216.382 311.111l-7.2-7.2M216.382 315.191l-7.2-7.2M216.382 319.031l-7.2-7.2M216.382 323.111l-7.2-7.2M216.382 327.191l-7.2-7.2M216.382 331.031l-7.2-7.2M213.502 332.471l-4.32-4.56M209.662 332.471l-.48-.48M215.422 332.471l.96-.72M211.342 332.471l5.04-4.8M209.182 330.791l7.2-7.2M209.182 326.951l7.2-7.2M209.182 322.871l7.2-7.2M209.182 318.791l7.2-7.2M209.182 314.711l7.2-7.2M209.182 310.871l7.2-7.2M209.182 306.791l7.2-7.2M209.182 302.711l7.2-7.2M209.182 298.871l7.2-7.2M209.182 294.791l7.2-7.2M209.182 290.711l7.2-7.2M209.182 286.871l7.2-7.2M209.182 282.791l7.2-7.2M209.182 278.711l7.2-7.2M209.182 274.631l7.2-7.2M209.182 270.791l7.2-7.2M209.182 266.711l7.2-7.2M209.182 262.631l7.2-7.2M209.182 258.791l7.2-7.2M209.182 254.711l7.2-7.2M209.182 250.631l7.2-7.2M209.182 246.791l7.2-7.2M209.182 242.711l7.2-7.2M209.182 238.631l7.2-7.2M209.182 234.551l7.2-7.2M209.182 230.711l7.2-7.2M209.182 226.631l3.84-3.84"/><path class="cls-18" d="M113.902 222.79l6.96-7.2v-72.96h-6.96v80.16"/><path class="cls-12" d="M121.102 143.591l-1.2-.96M121.102 147.671l-5.04-5.04M121.102 151.751l-6.96-6.96M121.102 155.591l-6.96-6.96M121.102 159.671l-6.96-6.96M121.102 163.751l-6.96-6.96M121.102 167.591l-6.96-6.96M121.102 171.671l-6.96-6.96M121.102 175.751l-6.96-6.96M121.102 179.831l-6.96-6.96M121.102 183.671l-6.96-6.96M121.102 187.751l-6.96-6.96M121.102 191.831l-6.96-6.96M121.102 195.671l-6.96-6.96M121.102 199.751l-6.96-6.96M121.102 203.831l-6.96-6.96M121.102 207.671l-6.96-6.96M121.102 211.751l-6.96-6.96M120.862 215.591l-6.72-6.72M118.942 217.751l-4.8-4.8M117.022 219.671l-2.88-2.88M114.862 221.831l-.72-.96M114.142 221.351l6.96-6.96M114.142 217.511l6.96-6.96M114.142 213.431l6.96-6.96M114.142 209.351l6.96-6.96M114.142 205.511l6.96-6.96M114.142 201.431l6.96-6.96M114.142 197.351l6.96-6.96M114.142 193.271l6.96-6.96M114.142 189.431l6.96-6.96M114.142 185.351l6.96-6.96M114.142 181.271l6.96-6.96M114.142 177.431l6.96-6.96M114.142 173.351l6.96-6.96M114.142 169.271l6.96-6.96M114.142 165.431l6.96-6.96M114.142 161.351l6.96-6.96M114.142 157.271l6.96-6.96M114.142 153.191l6.96-6.96M114.142 149.351l6.48-6.72M114.142 145.271l2.64-2.64"/><path class="cls-18" d="M113.902 222.79l6.96-7.2v-72.96h-6.96v80.16"/><path class="cls-12" d="M121.102 143.591l-1.2-.96M121.102 147.671l-5.04-5.04M121.102 151.751l-6.96-6.96M121.102 155.591l-6.96-6.96M121.102 159.671l-6.96-6.96M121.102 163.751l-6.96-6.96M121.102 167.591l-6.96-6.96M121.102 171.671l-6.96-6.96M121.102 175.751l-6.96-6.96M121.102 179.831l-6.96-6.96M121.102 183.671l-6.96-6.96M121.102 187.751l-6.96-6.96M121.102 191.831l-6.96-6.96M121.102 195.671l-6.96-6.96M121.102 199.751l-6.96-6.96M121.102 203.831l-6.96-6.96M121.102 207.671l-6.96-6.96M121.102 211.751l-6.96-6.96M120.862 215.591l-6.72-6.72M118.942 217.751l-4.8-4.8M117.022 219.671l-2.88-2.88M114.862 221.831l-.72-.96M114.142 221.351l6.96-6.96M114.142 217.511l6.96-6.96M114.142 213.431l6.96-6.96M114.142 209.351l6.96-6.96M114.142 205.511l6.96-6.96M114.142 201.431l6.96-6.96M114.142 197.351l6.96-6.96M114.142 193.271l6.96-6.96M114.142 189.431l6.96-6.96M114.142 185.351l6.96-6.96M114.142 181.271l6.96-6.96M114.142 177.431l6.96-6.96M114.142 173.351l6.96-6.96M114.142 169.271l6.96-6.96M114.142 165.431l6.96-6.96M114.142 161.351l6.96-6.96M114.142 157.271l6.96-6.96M114.142 153.191l6.96-6.96M114.142 149.351l6.48-6.72M114.142 145.271l2.64-2.64"/><path class="cls-18" d="M113.902 107.11h4.8l-4.8-4.8v4.8"/><path class="cls-12" d="M116.542 107.111l-2.4-2.4M116.062 107.111l1.44-1.44M114.142 105.191l1.44-1.44"/><path class="cls-18" d="M113.902 107.11h4.8l-4.8-4.8v4.8"/><path class="cls-12" d="M116.542 107.111l-2.4-2.4M116.062 107.111l1.44-1.44M114.142 105.191l1.44-1.44"/><path class="cls-13" d="M113.182 107.111h1.68v2.4h-1.68zM113.182 136.871h1.68v5.76h-1.68z"/><path class="cls-13" d="M113.182 109.511h1.68v27.36h-1.68zM114.862 109.511v27.36"/><path class="cls-1" d="M120.862 109.271v27.84"/><path class="cls-13" d="M120.862 136.631v.48"/><path class="cls-18" d="M120.862 107.11v2.16h-6v-2.16"/><path class="cls-12" d="M121.102 107.591l-.48-.48M118.702 109.271l-2.16-2.16M117.982 109.271l2.16-2.16M115.102 108.311l.96-1.2"/><path class="cls-18" d="M120.862 142.63v-5.52h-6v5.52"/><path class="cls-12" d="M121.102 139.511l-2.64-2.4M119.902 142.631l-4.8-5.04M116.062 142.631l-.96-.96M120.622 142.631l.48-.24M116.782 142.631l4.32-4.32M115.102 140.231l3.12-3.12M86.069 109.584c0 14.928 12.283 27.212 27.211 27.212M113.182 109.511h-27.12"/><path class="cls-18" d="M311.182 102.31l-4.8 4.8h4.8v-4.8"/><path class="cls-12" d="M311.422 105.431l-1.68-1.44M309.022 107.111l-1.2-1.2M308.542 107.111l2.88-2.88"/><path class="cls-18" d="M311.182 102.31l-4.8 4.8h4.8v-4.8"/><path class="cls-12" d="M311.422 105.431l-1.68-1.44M309.022 107.111l-1.2-1.2M308.542 107.111l2.88-2.88"/><path class="cls-18" d="M303.982 142.63v70.08l7.2 10.08v-80.16h-7.2"/><path class="cls-12" d="M311.422 145.511l-3.12-2.88M311.422 149.591l-6.96-6.96M311.422 153.671l-7.2-7.2M311.422 157.511l-7.2-7.2M311.422 161.591l-7.2-7.2M311.422 165.671l-7.2-7.2M311.422 169.511l-7.2-7.2M311.422 173.591l-7.2-7.2M311.422 177.671l-7.2-7.2M311.422 181.511l-7.2-7.2M311.422 185.591l-7.2-7.2M311.422 189.671l-7.2-7.2M311.422 193.751l-7.2-7.2M311.422 197.591l-7.2-7.2M311.422 201.671l-7.2-7.2M311.422 205.751l-7.2-7.2M311.422 209.591l-7.2-7.2M311.422 213.671l-7.2-7.2M311.422 217.751l-7.2-7.2M311.422 221.591l-2.88-2.64M310.462 221.591l.96-.96M308.782 219.191l2.64-2.64M307.102 216.791l4.32-4.32M305.422 214.391l6-5.76M304.222 211.751l7.2-7.2M304.222 207.671l7.2-7.2M304.222 203.831l7.2-7.2M304.222 199.751l7.2-7.2M304.222 195.671l7.2-7.2M304.222 191.831l7.2-7.2M304.222 187.751l7.2-7.2M304.222 183.671l7.2-7.2M304.222 179.591l7.2-7.2M304.222 175.751l7.2-7.2M304.222 171.671l7.2-7.2M304.222 167.591l7.2-7.2M304.222 163.751l7.2-7.2M304.222 159.671l7.2-7.2M304.222 155.591l7.2-7.2M304.222 151.751l7.2-7.2M304.222 147.671l4.8-5.04M304.222 143.591l.96-.96"/><path class="cls-18" d="M303.982 142.63v70.08l7.2 10.08v-80.16h-7.2"/><path class="cls-12" d="M311.422 145.511l-3.12-2.88M311.422 149.591l-6.96-6.96M311.422 153.671l-7.2-7.2M311.422 157.511l-7.2-7.2M311.422 161.591l-7.2-7.2M311.422 165.671l-7.2-7.2M311.422 169.511l-7.2-7.2M311.422 173.591l-7.2-7.2M311.422 177.671l-7.2-7.2M311.422 181.511l-7.2-7.2M311.422 185.591l-7.2-7.2M311.422 189.671l-7.2-7.2M311.422 193.751l-7.2-7.2M311.422 197.591l-7.2-7.2M311.422 201.671l-7.2-7.2M311.422 205.751l-7.2-7.2M311.422 209.591l-7.2-7.2M311.422 213.671l-7.2-7.2M311.422 217.751l-7.2-7.2M311.422 221.591l-2.88-2.64M310.462 221.591l.96-.96M308.782 219.191l2.64-2.64M307.102 216.791l4.32-4.32M305.422 214.391l6-5.76M304.222 211.751l7.2-7.2M304.222 207.671l7.2-7.2M304.222 203.831l7.2-7.2M304.222 199.751l7.2-7.2M304.222 195.671l7.2-7.2M304.222 191.831l7.2-7.2M304.222 187.751l7.2-7.2M304.222 183.671l7.2-7.2M304.222 179.591l7.2-7.2M304.222 175.751l7.2-7.2M304.222 171.671l7.2-7.2M304.222 167.591l7.2-7.2M304.222 163.751l7.2-7.2M304.222 159.671l7.2-7.2M304.222 155.591l7.2-7.2M304.222 151.751l7.2-7.2M304.222 147.671l4.8-5.04M304.222 143.591l.96-.96"/><path class="cls-13" d="M309.982 136.871h1.68v5.76h-1.68zM309.982 107.111h1.68v2.4h-1.68z"/><path class="cls-13" d="M309.982 109.511h1.68v27.36h-1.68zM309.982 136.871v-27.36"/><path class="cls-1" d="M303.982 137.111v-27.84"/><path class="cls-13" d="M303.982 109.751v-.48"/><path class="cls-18" d="M303.982 142.63v-5.52h6v5.52"/><path class="cls-12" d="M310.222 140.231l-3.36-3.12M308.302 142.631l-4.08-4.32M304.462 142.631l-.24-.24M309.022 142.631l1.2-.96M305.182 142.631l5.04-5.04M304.222 139.511l2.4-2.4"/><path class="cls-18" d="M303.982 107.11v2.16h6v-2.16"/><path class="cls-12" d="M310.222 108.311l-1.2-1.2M307.102 109.271l-2.16-2.16M306.382 109.271l2.16-2.16M304.222 107.591l.24-.48"/><path class="cls-18" d="M258.622 157.99l-5.52-10.08v74.88l5.52-10.08v-54.72"/><path class="cls-12" d="M257.662 156.071l-4.32-4.56M258.862 161.111l-5.52-5.52M258.862 165.191l-5.52-5.52M258.862 169.031l-5.52-5.52M258.862 173.111l-5.52-5.52M258.862 177.191l-5.52-5.52M258.862 181.271l-5.52-5.52M258.862 185.111l-5.52-5.52M258.862 189.191l-5.52-5.52M258.862 193.271l-5.52-5.52M258.862 197.111l-5.52-5.52M258.862 201.191l-5.52-5.52M258.862 205.271l-5.52-5.52M258.862 209.351l-5.52-5.52M258.622 212.951l-5.28-5.28M257.182 215.591l-3.84-3.84M255.742 218.231l-2.4-2.4M254.302 220.871l-.96-1.2M253.342 222.551l.24-.24M253.342 218.471l5.04-5.04M253.342 214.631l5.52-5.52M253.342 210.551l5.52-5.52M253.342 206.471l5.52-5.52M253.342 202.631l5.52-5.52M253.342 198.551l5.52-5.52M253.342 194.471l5.52-5.52M253.342 190.391l5.52-5.52M253.342 186.551l5.52-5.52M253.342 182.471l5.52-5.52M253.342 178.391l5.52-5.52M253.342 174.551l5.52-5.52M253.342 170.471l5.52-5.52M253.342 166.391l5.52-5.52M253.342 162.311l5.04-5.04M253.342 158.471l3.6-3.84M253.342 154.391l2.16-2.4M253.342 150.311l.72-.72"/><path class="cls-18" d="M258.622 157.99l-5.52-10.08v74.88l5.52-10.08v-54.72"/><path class="cls-12" d="M257.662 156.071l-4.32-4.56M258.862 161.111l-5.52-5.52M258.862 165.191l-5.52-5.52M258.862 169.031l-5.52-5.52M258.862 173.111l-5.52-5.52M258.862 177.191l-5.52-5.52M258.862 181.271l-5.52-5.52M258.862 185.111l-5.52-5.52M258.862 189.191l-5.52-5.52M258.862 193.271l-5.52-5.52M258.862 197.111l-5.52-5.52M258.862 201.191l-5.52-5.52M258.862 205.271l-5.52-5.52M258.862 209.351l-5.52-5.52M258.622 212.951l-5.28-5.28M257.182 215.591l-3.84-3.84M255.742 218.231l-2.4-2.4M254.302 220.871l-.96-1.2M253.342 222.551l.24-.24M253.342 218.471l5.04-5.04M253.342 214.631l5.52-5.52M253.342 210.551l5.52-5.52M253.342 206.471l5.52-5.52M253.342 202.631l5.52-5.52M253.342 198.551l5.52-5.52M253.342 194.471l5.52-5.52M253.342 190.391l5.52-5.52M253.342 186.551l5.52-5.52M253.342 182.471l5.52-5.52M253.342 178.391l5.52-5.52M253.342 174.551l5.52-5.52M253.342 170.471l5.52-5.52M253.342 166.391l5.52-5.52M253.342 162.311l5.04-5.04M253.342 158.471l3.6-3.84M253.342 154.391l2.16-2.4M253.342 150.311l.72-.72"/><path class="cls-18" d="M113.902 102.31l6.96 6.96h183.12l7.2-6.96h-197.28"/><path class="cls-12" d="M309.742 103.751l-1.68-1.44M307.582 105.911l-3.36-3.6M305.662 107.831l-5.52-5.52M303.022 109.271l-6.96-6.96M299.182 109.271l-6.96-6.96M295.102 109.271l-6.96-6.96M291.022 109.271l-6.96-6.96M286.942 109.271l-6.96-6.96M283.102 109.271l-6.96-6.96M279.022 109.271l-6.96-6.96M274.942 109.271l-6.96-6.96M271.102 109.271l-6.96-6.96M267.022 109.271l-6.96-6.96M262.942 109.271l-6.96-6.96M259.102 109.271l-6.96-6.96M255.022 109.271l-6.96-6.96M250.942 109.271l-6.96-6.96M246.862 109.271l-6.96-6.96M243.022 109.271l-6.96-6.96M238.942 109.271l-6.96-6.96M234.862 109.271l-6.96-6.96M231.022 109.271l-6.96-6.96M226.942 109.271l-6.96-6.96M222.862 109.271l-6.96-6.96M219.022 109.271l-6.96-6.96M214.942 109.271l-6.96-6.96M210.862 109.271l-6.96-6.96M206.782 109.271l-6.96-6.96M202.942 109.271l-6.96-6.96M198.862 109.271l-6.96-6.96M194.782 109.271l-6.96-6.96M190.942 109.271l-6.96-6.96M186.862 109.271l-6.96-6.96M182.782 109.271l-6.96-6.96M178.702 109.271l-6.96-6.96M174.862 109.271l-6.96-6.96M170.782 109.271l-6.96-6.96M166.702 109.271l-6.96-6.96M162.862 109.271l-6.96-6.96M158.782 109.271l-6.96-6.96M154.702 109.271l-6.96-6.96M150.862 109.271l-6.96-6.96M146.782 109.271l-6.96-6.96M142.702 109.271l-6.96-6.96M138.622 109.271l-6.96-6.96M134.782 109.271l-6.96-6.96M130.702 109.271l-6.96-6.96M126.622 109.271l-6.96-6.96M122.782 109.271l-6.96-6.96M302.302 109.271l6.96-6.96M298.462 109.271l6.96-6.96M294.382 109.271l6.96-6.96M290.302 109.271l6.96-6.96M286.222 109.271l6.96-6.96M282.382 109.271l6.96-6.96M278.302 109.271l6.96-6.96M274.222 109.271l6.96-6.96M270.382 109.271l6.96-6.96M266.302 109.271l6.96-6.96M262.222 109.271l6.96-6.96M258.382 109.271l6.96-6.96M254.302 109.271l6.96-6.96M250.222 109.271l6.96-6.96M246.142 109.271l6.96-6.96M242.302 109.271l6.96-6.96M238.222 109.271l6.96-6.96M234.142 109.271l6.96-6.96M230.302 109.271l6.96-6.96M226.222 109.271l6.96-6.96M222.142 109.271l6.96-6.96M218.302 109.271l6.96-6.96M214.222 109.271l6.96-6.96M210.142 109.271l6.96-6.96M206.062 109.271l6.96-6.96M202.222 109.271l6.96-6.96M198.142 109.271l6.96-6.96M194.062 109.271l6.96-6.96M190.222 109.271l6.96-6.96M186.142 109.271l6.96-6.96M182.062 109.271l6.96-6.96M177.982 109.271l6.96-6.96M174.142 109.271l6.96-6.96M170.062 109.271l6.96-6.96M165.982 109.271l6.96-6.96M162.142 109.271l6.96-6.96M158.062 109.271l6.96-6.96M153.982 109.271l6.96-6.96M150.142 109.271l6.96-6.96M146.062 109.271l6.96-6.96M141.982 109.271l6.96-6.96M137.902 109.271l6.96-6.96M134.062 109.271l6.96-6.96M129.982 109.271l6.96-6.96M125.902 109.271l6.96-6.96M122.062 109.271l6.96-6.96M119.422 107.831l5.52-5.52M117.502 105.671l3.36-3.36M115.582 103.751l1.44-1.44"/><path class="cls-18" d="M113.902 102.31l6.96 6.96h183.12l7.2-6.96h-197.28"/><path class="cls-12" d="M309.742 103.751l-1.68-1.44M307.582 105.911l-3.36-3.6M305.662 107.831l-5.52-5.52M303.022 109.271l-6.96-6.96M299.182 109.271l-6.96-6.96M295.102 109.271l-6.96-6.96M291.022 109.271l-6.96-6.96M286.942 109.271l-6.96-6.96M283.102 109.271l-6.96-6.96M279.022 109.271l-6.96-6.96M274.942 109.271l-6.96-6.96M271.102 109.271l-6.96-6.96M267.022 109.271l-6.96-6.96M262.942 109.271l-6.96-6.96M259.102 109.271l-6.96-6.96M255.022 109.271l-6.96-6.96M250.942 109.271l-6.96-6.96M246.862 109.271l-6.96-6.96M243.022 109.271l-6.96-6.96M238.942 109.271l-6.96-6.96M234.862 109.271l-6.96-6.96M231.022 109.271l-6.96-6.96M226.942 109.271l-6.96-6.96M222.862 109.271l-6.96-6.96M219.022 109.271l-6.96-6.96M214.942 109.271l-6.96-6.96M210.862 109.271l-6.96-6.96M206.782 109.271l-6.96-6.96M202.942 109.271l-6.96-6.96M198.862 109.271l-6.96-6.96M194.782 109.271l-6.96-6.96M190.942 109.271l-6.96-6.96M186.862 109.271l-6.96-6.96M182.782 109.271l-6.96-6.96M178.702 109.271l-6.96-6.96M174.862 109.271l-6.96-6.96M170.782 109.271l-6.96-6.96M166.702 109.271l-6.96-6.96M162.862 109.271l-6.96-6.96M158.782 109.271l-6.96-6.96M154.702 109.271l-6.96-6.96M150.862 109.271l-6.96-6.96M146.782 109.271l-6.96-6.96M142.702 109.271l-6.96-6.96M138.622 109.271l-6.96-6.96M134.782 109.271l-6.96-6.96M130.702 109.271l-6.96-6.96M126.622 109.271l-6.96-6.96M122.782 109.271l-6.96-6.96M302.302 109.271l6.96-6.96M298.462 109.271l6.96-6.96M294.382 109.271l6.96-6.96M290.302 109.271l6.96-6.96M286.222 109.271l6.96-6.96M282.382 109.271l6.96-6.96M278.302 109.271l6.96-6.96M274.222 109.271l6.96-6.96M270.382 109.271l6.96-6.96M266.302 109.271l6.96-6.96M262.222 109.271l6.96-6.96M258.382 109.271l6.96-6.96M254.302 109.271l6.96-6.96M250.222 109.271l6.96-6.96M246.142 109.271l6.96-6.96M242.302 109.271l6.96-6.96M238.222 109.271l6.96-6.96M234.142 109.271l6.96-6.96M230.302 109.271l6.96-6.96M226.222 109.271l6.96-6.96M222.142 109.271l6.96-6.96M218.302 109.271l6.96-6.96M214.222 109.271l6.96-6.96M210.142 109.271l6.96-6.96M206.062 109.271l6.96-6.96M202.222 109.271l6.96-6.96M198.142 109.271l6.96-6.96M194.062 109.271l6.96-6.96M190.222 109.271l6.96-6.96M186.142 109.271l6.96-6.96M182.062 109.271l6.96-6.96M177.982 109.271l6.96-6.96M174.142 109.271l6.96-6.96M170.062 109.271l6.96-6.96M165.982 109.271l6.96-6.96M162.142 109.271l6.96-6.96M158.062 109.271l6.96-6.96M153.982 109.271l6.96-6.96M150.142 109.271l6.96-6.96M146.062 109.271l6.96-6.96M141.982 109.271l6.96-6.96M137.902 109.271l6.96-6.96M134.062 109.271l6.96-6.96M129.982 109.271l6.96-6.96M125.902 109.271l6.96-6.96M122.062 109.271l6.96-6.96M119.422 107.831l5.52-5.52M117.502 105.671l3.36-3.36M115.582 103.751l1.44-1.44"/><path class="cls-18" d="M311.182 222.79l-7.2-10.08h-45.36l-5.52 10.08h58.08"/><path class="cls-12" d="M308.542 218.951l-6.24-6.24M308.302 222.791l-10.08-10.08M304.462 222.791l-10.08-10.08M300.382 222.791l-10.08-10.08M296.302 222.791l-10.08-10.08M292.222 222.791l-10.08-10.08M288.382 222.791l-10.08-10.08M284.302 222.791l-10.08-10.08M280.222 222.791l-10.08-10.08M276.382 222.791l-10.08-10.08M272.302 222.791l-10.08-10.08M268.222 222.791l-9.6-9.84M264.382 222.791l-7.2-7.2M260.302 222.791l-4.56-4.56M256.222 222.791l-1.92-1.92M309.022 222.791l1.44-1.2M305.182 222.791l3.6-3.6M301.102 222.791l6-6M297.022 222.791l8.4-8.4M293.182 222.791l10.08-10.08M289.102 222.791l10.08-10.08M285.022 222.791l10.08-10.08M280.942 222.791l10.08-10.08M277.102 222.791l10.08-10.08M273.022 222.791l10.08-10.08M268.942 222.791l10.08-10.08M265.102 222.791l10.08-10.08M261.022 222.791l10.08-10.08M256.942 222.791l10.08-10.08M253.582 222.311l9.6-9.6M258.382 213.431l.72-.72"/><path class="cls-18" d="M311.182 222.79l-7.2-10.08h-45.36l-5.52 10.08h58.08"/><path class="cls-12" d="M308.542 218.951l-6.24-6.24M308.302 222.791l-10.08-10.08M304.462 222.791l-10.08-10.08M300.382 222.791l-10.08-10.08M296.302 222.791l-10.08-10.08M292.222 222.791l-10.08-10.08M288.382 222.791l-10.08-10.08M284.302 222.791l-10.08-10.08M280.222 222.791l-10.08-10.08M276.382 222.791l-10.08-10.08M272.302 222.791l-10.08-10.08M268.222 222.791l-9.6-9.84M264.382 222.791l-7.2-7.2M260.302 222.791l-4.56-4.56M256.222 222.791l-1.92-1.92M309.022 222.791l1.44-1.2M305.182 222.791l3.6-3.6M301.102 222.791l6-6M297.022 222.791l8.4-8.4M293.182 222.791l10.08-10.08M289.102 222.791l10.08-10.08M285.022 222.791l10.08-10.08M280.942 222.791l10.08-10.08M277.102 222.791l10.08-10.08M273.022 222.791l10.08-10.08M268.942 222.791l10.08-10.08M265.102 222.791l10.08-10.08M261.022 222.791l10.08-10.08M256.942 222.791l10.08-10.08M253.582 222.311l9.6-9.6M258.382 213.431l.72-.72"/><path class="cls-18" d="M268.222 147.91h-15.12l5.52 10.08h9.6v-10.08"/><path class="cls-12" d="M268.462 150.791l-2.88-2.88M268.462 154.631l-6.96-6.72M267.742 157.991l-10.08-10.08M263.662 157.991l-10.08-10.08M259.582 157.991l-1.92-1.92M265.582 157.991l2.88-2.64M261.742 157.991l6.72-6.72M258.382 157.271l9.36-9.36M256.942 154.631l6.72-6.72M255.502 151.991l4.32-4.08M254.062 149.591l1.68-1.68"/><path class="cls-18" d="M268.222 147.91h-15.12l5.52 10.08h9.6v-10.08"/><path class="cls-12" d="M268.462 150.791l-2.88-2.88M268.462 154.631l-6.96-6.72M267.742 157.991l-10.08-10.08M263.662 157.991l-10.08-10.08M259.582 157.991l-1.92-1.92M265.582 157.991l2.88-2.64M261.742 157.991l6.72-6.72M258.382 157.271l9.36-9.36M256.942 154.631l6.72-6.72M255.502 151.991l4.32-4.08M254.062 149.591l1.68-1.68"/><path class="cls-13" d="M271.342 156.551h29.52"/><path class="cls-1" d="M271.342 147.911h29.52"/><path class="cls-13" d="M300.382 147.911h.48"/><path class="cls-18" d="M268.222 147.91h3.12v8.64h-3.12"/><path class="cls-12" d="M271.582 149.831l-1.92-1.92M271.582 153.911l-3.12-3.12M270.142 156.551l-1.68-1.92M271.102 156.551l.48-.24M268.462 155.351l3.12-3.12M268.462 151.271l3.12-3.12"/><path class="cls-18" d="M303.982 147.91h-3.12v8.64h3.12"/><path class="cls-12" d="M304.222 150.311l-2.64-2.4M304.222 154.391l-3.12-3.12M302.302 156.551l-1.2-1.2M303.262 156.551l.96-.96M301.102 154.871l3.12-3.12M301.102 150.791l2.64-2.88"/><path class="cls-13" d="M13.582 342.07l7.44 40.8h80.88l7.2-40.8"/><path class="cls-13" d="M11.902 342.07l7.68 42.72h83.76l7.44-42.72"/><path class="cls-18" d="M113.902 288.07l4.08 4.8v-70.08h-4.08v65.28"/><path class="cls-12" d="M114.142 225.671l2.64-2.88M114.142 229.751l4.08-4.08M114.142 234.071l4.08-4.08M114.142 238.391l4.08-4.08M114.142 242.711l4.08-4.08M114.142 246.791l4.08-4.08M114.142 251.111l4.08-4.08M114.142 255.431l4.08-4.08M114.142 259.511l4.08-4.08M114.142 263.831l4.08-4.08M114.142 268.151l4.08-4.08M114.142 272.471l4.08-4.08M114.142 276.551l4.08-4.08M114.142 280.871l4.08-4.08M114.142 285.191l4.08-4.08M114.622 288.791l3.6-3.6M116.542 290.951l1.68-1.44"/><path class="cls-18" d="M113.902 288.07l4.08 4.8v-70.08h-4.08v65.28"/><path class="cls-12" d="M114.142 225.671l2.64-2.88M114.142 229.751l4.08-4.08M114.142 234.071l4.08-4.08M114.142 238.391l4.08-4.08M114.142 242.711l4.08-4.08M114.142 246.791l4.08-4.08M114.142 251.111l4.08-4.08M114.142 255.431l4.08-4.08M114.142 259.511l4.08-4.08M114.142 263.831l4.08-4.08M114.142 268.151l4.08-4.08M114.142 272.471l4.08-4.08M114.142 276.551l4.08-4.08M114.142 280.871l4.08-4.08M114.142 285.191l4.08-4.08M114.622 288.791l3.6-3.6M116.542 290.951l1.68-1.44"/><path class="cls-13" d="M118.942 292.631h1.2v34.56h-1.2zM120.142 325.271h1.44v.72h-1.44zM117.502 325.271h1.44v.72h-1.44zM125.182 317.111v-10.08M123.022 310.63l2.16-3.6 2.16 3.6"/><path class="cls-15" d="M118.942 262.151v34.56"/><path class="cls-13" d="M118.942 296.711h.72"/><path class="cls-15" d="M120.142 296.711v-34.56"/><path class="cls-13" d="M120.142 262.151h-.72M121.582 295.511h-1.44M120.862 294.791h.72M121.582 294.791v.72M117.502 294.791h1.44M118.222 295.511h-.72M117.502 295.511v-.72"/><path class="cls-18" d="M95.902 292.87h22.08l-4.08-4.8h-18v4.8"/><path class="cls-12" d="M96.142 290.471l2.16-2.4M97.822 292.871l4.8-4.8M101.902 292.871l4.8-4.8M106.222 292.871l4.8-4.8M110.542 292.871l4.08-4.08M114.862 292.871l1.68-1.92"/><path class="cls-18" d="M95.902 292.87h22.08l-4.08-4.8h-18v4.8"/><path class="cls-12" d="M96.142 290.471l2.16-2.4M97.822 292.871l4.8-4.8M101.902 292.871l4.8-4.8M106.222 292.871l4.8-4.8M110.542 292.871l4.08-4.08M114.862 292.871l1.68-1.92"/><path class="cls-18" d="M208.942 222.79l4.32-1.44v2.88l-4.32-1.44"/><path class="cls-12" d="M213.502 223.991l-2.16-1.92M212.062 223.751l1.44-1.44"/><path class="cls-19" d="M184.942 16.63V1.99h31.2v14.64h-31.2"/><path class="cls-18" d="M184.942 1.99v3.36h31.2V1.99h-31.2"/><path class="cls-12" d="M185.182 3.191l1.92 2.16M187.822 1.991l3.36 3.36M191.902 1.991l3.36 3.36M195.742 1.991l3.36 3.36M199.822 1.991l3.36 3.36M203.902 1.991l3.36 3.36M207.742 1.991l3.36 3.36M211.822 1.991l3.36 3.36M215.902 1.991l.48.48"/><path class="cls-18" d="M184.942 5.35v.72h31.2v-.72h-31.2M184.942 6.07v5.52h31.2V6.07h-31.2"/><path class="cls-12" d="M215.662 11.591v-5.52M214.222 11.591v-5.52M212.782 11.591v-5.52M211.342 11.591v-5.52M209.902 11.591v-5.52M208.462 11.591v-5.52M207.022 11.591v-5.52M205.582 11.591v-5.52M204.382 11.591v-5.52M202.942 11.591v-5.52M201.502 11.591v-5.52M200.062 11.591v-5.52M198.622 11.591v-5.52M197.182 11.591v-5.52M195.742 11.591v-5.52M194.302 11.591v-5.52M192.862 11.591v-5.52M191.422 11.591v-5.52M189.982 11.591v-5.52M188.782 11.591v-5.52M187.342 11.591v-5.52M185.902 11.591v-5.52"/><path class="cls-18" d="M184.942 11.59v5.04h31.2v-5.04h-31.2"/><path class="cls-12" d="M185.182 15.191l1.2 1.44M185.422 11.591l5.04 5.04M189.262 11.591l5.04 5.04M193.342 11.591l5.04 5.04M197.422 11.591l5.04 5.04M201.502 11.591l5.04 5.04M205.342 11.591l5.04 5.04M209.422 11.591l5.04 5.04M213.502 11.591l2.88 2.88M184.942 11.591h31.2M184.942 6.071h31.2"/><path class="cls-13" d="M184.942 1.991h31.2M184.942 16.631h31.2"/><path class="cls-19" d="M52.222 16.63V1.99h69.84v14.64h-69.84"/><path class="cls-18" d="M52.222 1.99v3.36h69.84V1.99h-69.84"/><path class="cls-12" d="M52.462 2.951l2.4 2.4M55.582 1.991l3.36 3.36M59.422 1.991l3.36 3.36M63.502 1.991l3.36 3.36M67.582 1.991l3.36 3.36M71.422 1.991l3.36 3.36M75.502 1.991l3.36 3.36M79.582 1.991l3.36 3.36M83.662 1.991l3.36 3.36M87.502 1.991l3.36 3.36M91.582 1.991l3.36 3.36M95.662 1.991l3.36 3.36M99.502 1.991l3.36 3.36M103.582 1.991l3.36 3.36M107.662 1.991l3.36 3.36M111.742 1.991l3.36 3.36M115.582 1.991l3.36 3.36M119.662 1.991l2.64 2.64"/><path class="cls-18" d="M52.222 5.35v.72h69.84v-.72h-69.84M52.222 6.07v5.52h69.84V6.07h-69.84"/><path class="cls-12" d="M122.062 11.591v-5.52M120.622 11.591v-5.52M119.182 11.591v-5.52M117.742 11.591v-5.52M116.302 11.591v-5.52M114.862 11.591v-5.52M113.662 11.591v-5.52M112.222 11.591v-5.52M110.782 11.591v-5.52M109.342 11.591v-5.52M107.902 11.591v-5.52M106.462 11.591v-5.52M105.022 11.591v-5.52M103.582 11.591v-5.52M102.142 11.591v-5.52M100.702 11.591v-5.52M99.502 11.591v-5.52M98.062 11.591v-5.52M96.622 11.591v-5.52M95.182 11.591v-5.52M93.742 11.591v-5.52M92.302 11.591v-5.52M90.862 11.591v-5.52M89.422 11.591v-5.52M87.982 11.591v-5.52M86.542 11.591v-5.52M85.102 11.591v-5.52M83.902 11.591v-5.52M82.462 11.591v-5.52M81.022 11.591v-5.52M79.582 11.591v-5.52M78.142 11.591v-5.52M76.702 11.591v-5.52M75.262 11.591v-5.52M73.822 11.591v-5.52M72.382 11.591v-5.52M70.942 11.591v-5.52M69.502 11.591v-5.52M68.302 11.591v-5.52M66.862 11.591v-5.52M65.422 11.591v-5.52M63.982 11.591v-5.52M62.542 11.591v-5.52M61.102 11.591v-5.52M59.662 11.591v-5.52M58.222 11.591v-5.52M56.782 11.591v-5.52M55.342 11.591v-5.52M54.142 11.591v-5.52M52.702 11.591v-5.52"/><path class="cls-18" d="M52.222 11.59v5.04h69.84v-5.04h-69.84"/><path class="cls-12" d="M52.462 14.951l1.68 1.68M53.182 11.591l5.04 5.04M57.022 11.591l5.04 5.04M61.102 11.591l5.04 5.04M65.182 11.591l5.04 5.04M69.022 11.591l5.04 5.04M73.102 11.591l5.04 5.04M77.182 11.591l5.04 5.04M81.022 11.591l5.04 5.04M85.102 11.591l5.04 5.04M89.182 11.591l5.04 5.04M93.262 11.591l5.04 5.04M97.102 11.591l5.04 5.04M101.182 11.591l5.04 5.04M105.262 11.591l5.04 5.04M109.102 11.591l5.04 5.04M113.182 11.591l5.04 5.04M117.262 11.591l5.04 5.04M121.342 11.591l.96.96M52.222 11.591h69.84M52.222 6.071h69.84"/><path class="cls-13" d="M52.222 1.991h69.84M52.222 16.631h69.84"/><path class="cls-19" d="M.142 16.63V1.99h33.6v14.64H.142"/><path class="cls-18" d="M.142 1.99v3.36h33.6V1.99H.142"/><path class="cls-12" d="M.382 2.951l2.4 2.4M3.502 1.991l3.36 3.36M7.342 1.991l3.36 3.36M11.422 1.991l3.36 3.36M15.502 1.991l3.36 3.36M19.342 1.991l3.36 3.36M23.422 1.991l3.36 3.36M27.502 1.991l3.36 3.36M31.342 1.991l2.64 2.4"/><path class="cls-18" d="M.142 5.35v.72h33.6v-.72H.142M.142 6.07v5.52h33.6V6.07H.142"/><path class="cls-12" d="M32.782 11.591v-5.52M31.342 11.591v-5.52M29.902 11.591v-5.52M28.462 11.591v-5.52M27.022 11.591v-5.52M25.582 11.591v-5.52M24.382 11.591v-5.52M22.942 11.591v-5.52M21.502 11.591v-5.52M20.062 11.591v-5.52M18.622 11.591v-5.52M17.182 11.591v-5.52M15.742 11.591v-5.52M14.302 11.591v-5.52M12.862 11.591v-5.52M11.422 11.591v-5.52M9.982 11.591v-5.52M8.782 11.591v-5.52M7.342 11.591v-5.52M5.902 11.591v-5.52M4.462 11.591v-5.52M3.022 11.591v-5.52M1.582 11.591v-5.52"/><path class="cls-18" d="M.142 11.59v5.04h33.6v-5.04H.142"/><path class="cls-12" d="M.382 14.951l1.68 1.68M.862 11.591l5.04 5.04M4.942 11.591l5.04 5.04M9.022 11.591l5.04 5.04M13.102 11.591l5.04 5.04M16.942 11.591l5.04 5.04M21.022 11.591l5.04 5.04M25.102 11.591l5.04 5.04M28.942 11.591l5.04 4.8M33.022 11.591l.96.72M.142 11.591h33.6M.142 6.071h33.6"/><path class="cls-13" d="M.142 1.991h33.6M.142 16.631h33.6M33.742 11.59v5.04h18.48v-5.04M35.422 9.43V1.99h-3.36V.07h21.84v1.92h-3.36v7.44M35.422 1.991h15.12"/><path class="cls-13" d="M33.742 9.431h18.48v2.16h-18.48zM37.342 9.431v2.16M48.622 9.431v2.16M33.742 11.591v-2.16M48.622 11.591v-2.16M37.342 11.591v-2.16M52.222 11.591v-2.16M35.422 5.351h7.44"/><path class="cls-18" d="M33.627 5.978h1.843v3.401h-1.843"/><path class="cls-12" d="M34.222 9.431v-3.36M33.627 5.978h1.843v3.401h-1.843"/><path class="cls-18" d="M33.742 1.99h1.68v3.36h-1.68"/><path class="cls-12" d="M33.982 4.391l.72.96M35.422 1.991h.24"/><path class="cls-13" d="M50.542 5.351h-7.68"/><path class="cls-18" d="M52.337 5.978h-1.843v3.401h1.843"/><path class="cls-12" d="M51.262 9.431v-3.36M52.337 5.978h-1.843v3.401h1.843"/><path class="cls-18" d="M52.222 1.99h-1.68v3.36h1.68"/><path class="cls-12" d="M50.782 5.111v.24M51.502 1.991l.96.96"/><path class="cls-13" d="M123.982 9.43V1.99h-3.36V.07h66v1.92h-3.36v7.44"/><path class="cls-1" d="M122.062 16.631h62.88"/><path class="cls-13" d="M122.062 9.431h62.88v2.16h-62.88zM125.662 9.431v2.16M181.342 9.431v2.16M122.062 11.591v-2.16M141.022 11.591v-2.16M125.662 11.591v-2.16M145.102 11.591v-2.16M141.022 11.591v-2.16M161.902 11.591v-2.16M145.102 11.591v-2.16M165.982 11.591v-2.16M161.902 11.591v-2.16M181.342 11.591v-2.16M165.982 11.591v-2.16M184.942 11.591v-2.16"/><path class="cls-18" d="M122.069 5.978h1.84v3.401h-1.84"/><path class="cls-12" d="M123.502 9.431v-3.36M122.069 5.978h1.84v3.401h-1.84"/><path class="cls-18" d="M122.062 1.99h1.92v3.36h-1.92"/><path class="cls-12" d="M122.302 4.631l.72.72M123.742 1.991l.48.48"/><path class="cls-18" d="M184.997 5.978h-1.843v3.401h1.843"/><path class="cls-12" d="M184.462 9.431v-3.36M184.997 5.978h-1.843v3.401h1.843"/><path class="cls-18" d="M184.942 1.99h-1.68v3.36h1.68"/><path class="cls-12" d="M183.742 1.991l1.44 1.2M163.455 11.647c0 11.04 9.084 20.126 20.126 20.126M183.502 31.751v-20.16"/><path class="cls-4" d="M163.342 11.59l-.24 4.08-1.2 3.6-1.92 3.6-2.4 3.12-3.12 2.4-3.36 1.92-3.84.96-3.84.48"/><path class="cls-9" d="M143.422 31.751v-20.16"/><path class="cls-12" d="M164.587 332.528a19.133 19.133 0 0 1 1.452-7.26 19.27 19.27 0 0 1 1.757-3.283 19.287 19.287 0 0 1 2.364-2.877c.44-.44.9-.857 1.38-1.25.48-.397.98-.766 1.495-1.112a19.971 19.971 0 0 1 1.599-.96 19.264 19.264 0 0 1 3.439-1.426 18.554 18.554 0 0 1 3.648-.73 18.489 18.489 0 0 1 1.86-.093M183.502 313.511v18.96M164.542 332.471v-1.44M164.302 329.591v-.72M164.302 328.871l-.24-.72"/><path class="cls-7" d="M163.822 326.951l-.72-1.68"/><path class="cls-12" d="M162.622 324.071l-.24-.48M162.382 323.591l-.48-.72"/><path class="cls-8" d="M161.422 321.911l-1.2-1.44"/><path class="cls-12" d="M159.262 319.271l-.24-.24M159.022 319.031l-.96-.72M157.102 317.351l-.96-.72"/><path class="cls-16" d="M156.142 316.631l-1.68-.96"/><path class="cls-12" d="M154.462 315.671l-.96-.48M152.062 314.711l-.96-.24"/><path class="cls-11" d="M151.102 314.471l-1.92-.48"/><path class="cls-12" d="M149.182 313.991l-1.44-.48M146.302 313.511h-.72"/><path class="cls-4" d="M145.582 313.511v18.96"/><path class="cls-12" d="M145.582 331.991v.48M91.455 312.517c-11.043 0-20.127 9.084-20.127 20.124M91.342 312.551v20.16"/><path class="cls-4" d="M51.262 312.55l3.84.24 3.84 1.2 3.36 1.92 3.12 2.4 2.4 3.12 1.92 3.6 1.2 3.6.48 4.08"/><path class="cls-9" d="M51.262 312.551v20.16"/><path class="cls-13" d="M38.062 126.071v.96M38.062 127.031v.72M38.062 127.751l-.24.96M37.822 128.711l-.24.24M37.102 130.151l-.24.24M36.142 131.591l-.48.48M35.662 132.071l-.72.72M34.942 132.791l-.48.48M34.462 133.271l-.48.24M32.782 133.991l-.24.24M31.102 134.471l-.72.24M30.382 134.711h-.72M29.662 134.711h-.72M28.942 134.711l-.72-.24M27.022 134.231l-.48-.24M25.342 133.511l-.48-.24M24.862 133.271l-.48-.48M24.382 132.791l-.72-.72M23.662 132.071l-.48-.48M22.462 130.631l-.24-.24M21.742 128.951l-.24-.24M21.502 128.711l-.24-.96M21.262 127.751v-.72M21.262 127.031v-.72M21.262 124.871v-.24M21.742 123.191v-.24M21.742 122.951l.48-.72M22.222 122.231l.48-.72M22.702 121.511l.48-.72M24.142 119.831l.24-.24M25.582 118.871v-.24M25.582 118.631l.72-.24M26.302 118.391l.96-.48M27.262 117.911h.72M27.982 117.911h.24M29.662 117.671h.24M31.342 117.911h.72M32.062 117.911l.96.48M33.022 118.391l.72.24M33.742 118.631l.24.24M35.182 119.591v.24M36.382 120.791l.24.72M36.622 121.511l.48.72M37.102 122.231l.48.72M37.582 122.951v.24M38.062 124.631v.24"/><path class="cls-18" d="M7.342 332.47h-7.2V11.59h7.2v320.88"/><path class="cls-12" d="M7.582 13.991l-2.64-2.4M7.582 18.071l-6.72-6.48M7.582 22.151l-7.2-7.2M7.582 25.991l-7.2-7.2M7.582 30.071l-7.2-7.2M7.582 34.151l-7.2-7.2M7.582 38.231l-7.2-7.2M7.582 42.071l-7.2-7.2M7.582 46.151l-7.2-7.2M7.582 50.231l-7.2-7.2M7.582 54.071l-7.2-7.2M7.582 58.151l-7.2-7.2M7.582 62.231l-7.2-7.2M7.582 66.311l-7.2-7.2M7.582 70.151l-7.2-7.2M7.582 74.231l-7.2-7.2M7.582 78.311l-7.2-7.2M7.582 82.151l-7.2-7.2M7.582 86.231l-7.2-7.2M7.582 90.311l-7.2-7.2M7.582 94.151l-7.2-7.2M7.582 98.231l-7.2-7.2M7.582 102.311l-7.2-7.2M7.582 106.391l-7.2-7.2M7.582 110.231l-7.2-7.2M7.582 114.311l-7.2-7.2M7.582 118.391l-7.2-7.2M7.582 122.231l-7.2-7.2M7.582 126.311l-7.2-7.2M7.582 130.391l-7.2-7.2M7.582 134.231l-7.2-7.2M7.582 138.311l-7.2-7.2M7.582 142.391l-7.2-7.2M7.582 146.471l-7.2-7.2M7.582 150.311l-7.2-7.2M7.582 154.391l-7.2-7.2M7.582 158.471l-7.2-7.2M7.582 162.311l-7.2-7.2M7.582 166.391l-7.2-7.2M7.582 170.471l-7.2-7.2M7.582 174.311l-7.2-7.2M7.582 178.391l-7.2-7.2M7.582 182.471l-7.2-7.2M7.582 186.551l-7.2-7.2M7.582 190.391l-7.2-7.2M7.582 194.471l-7.2-7.2M7.582 198.551l-7.2-7.2M7.582 202.391l-7.2-7.2M7.582 206.471l-7.2-7.2M7.582 210.551l-7.2-7.2M7.582 214.631l-7.2-7.2M7.582 218.471l-7.2-7.2M7.582 222.551l-7.2-7.2M7.582 226.631l-7.2-7.2M7.582 230.471l-7.2-7.2M7.582 234.551l-7.2-7.2M7.582 238.631l-7.2-7.2M7.582 242.471l-7.2-7.2M7.582 246.551l-7.2-7.2M7.582 250.631l-7.2-7.2M7.582 254.711l-7.2-7.2M7.582 258.551l-7.2-7.2M7.582 262.631l-7.2-7.2M7.582 266.711l-7.2-7.2M7.582 270.551l-7.2-7.2M7.582 274.631l-7.2-7.2M7.582 278.711l-7.2-7.2M7.582 282.551l-7.2-7.2M7.582 286.631l-7.2-7.2M7.582 290.711l-7.2-7.2M7.582 294.791l-7.2-7.2M7.582 298.631l-7.2-7.2M7.582 302.711l-7.2-7.2M7.582 306.791l-7.2-7.2M7.582 310.631l-7.2-7.2M7.582 314.711l-7.2-7.2M7.582 318.791l-7.2-7.2M7.582 322.871l-7.2-7.2M7.582 326.711l-7.2-7.2M7.582 330.791l-7.2-7.2M5.182 332.471l-4.8-4.8M1.102 332.471l-.72-.96M7.102 332.471l.48-.48M3.022 332.471l4.56-4.56M.382 331.271l7.2-7.2M.382 327.191l7.2-7.2M.382 323.111l7.2-7.2M.382 319.271l7.2-7.2M.382 315.191l7.2-7.2M.382 311.111l7.2-7.2M.382 307.031l7.2-7.2M.382 303.191l7.2-7.2M.382 299.111l7.2-7.2M.382 295.031l7.2-7.2M.382 291.191l7.2-7.2M.382 287.111l7.2-7.2M.382 283.031l7.2-7.2M.382 279.191l7.2-7.2M.382 275.111l7.2-7.2M.382 271.031l7.2-7.2M.382 266.951l7.2-7.2M.382 263.111l7.2-7.2M.382 259.031l7.2-7.2M.382 254.951l7.2-7.2M.382 251.111l7.2-7.2M.382 247.031l7.2-7.2M.382 242.951l7.2-7.2M.382 239.111l7.2-7.2M.382 235.031l7.2-7.2M.382 230.951l7.2-7.2M.382 226.871l7.2-7.2M.382 223.031l7.2-7.2M.382 218.951l7.2-7.2M.382 214.871l7.2-7.2M.382 211.031l7.2-7.2M.382 206.951l7.2-7.2M.382 202.871l7.2-7.2M.382 199.031l7.2-7.2M.382 194.951l7.2-7.2M.382 190.871l7.2-7.2M.382 186.791l7.2-7.2M.382 182.951l7.2-7.2M.382 178.871l7.2-7.2M.382 174.791l7.2-7.2M.382 170.951l7.2-7.2M.382 166.871l7.2-7.2M.382 162.791l7.2-7.2M.382 158.711l7.2-7.2M.382 154.871l7.2-7.2M.382 150.791l7.2-7.2M.382 146.711l7.2-7.2M.382 142.871l7.2-7.2M.382 138.791l7.2-7.2M.382 134.711l7.2-7.2M.382 130.871l7.2-7.2M.382 126.791l7.2-7.2M.382 122.711l7.2-7.2M.382 118.631l7.2-7.2M.382 114.791l7.2-7.2M.382 110.711l7.2-7.2M.382 106.631l7.2-7.2M.382 102.791l7.2-7.2M.382 98.711l7.2-7.2M.382 94.631l7.2-7.2M.382 90.791l7.2-7.2M.382 86.711l7.2-7.2M.382 82.631l7.2-7.2M.382 78.551l7.2-7.2M.382 74.711l7.2-7.2M.382 70.631l7.2-7.2M.382 66.551l7.2-7.2M.382 62.711l7.2-7.2M.382 58.631l7.2-7.2M.382 54.551l7.2-7.2M.382 50.471l7.2-7.2M.382 46.631l7.2-7.2M.382 42.551l7.2-7.2M.382 38.471l7.2-7.2M.382 34.631l7.2-7.2M.382 30.551l7.2-7.2M.382 26.471l7.2-7.2M.382 22.631l7.2-7.2M.382 18.551l6.72-6.96M.382 14.471l2.88-2.88"/><path class="cls-18" d="M.142 332.47h7.2V11.59h-7.2v320.88"/><path class="cls-12" d="M7.582 13.991l-2.64-2.4M7.582 18.071l-6.72-6.48M7.582 22.151l-7.2-7.2M7.582 25.991l-7.2-7.2M7.582 30.071l-7.2-7.2M7.582 34.151l-7.2-7.2M7.582 38.231l-7.2-7.2M7.582 42.071l-7.2-7.2M7.582 46.151l-7.2-7.2M7.582 50.231l-7.2-7.2M7.582 54.071l-7.2-7.2M7.582 58.151l-7.2-7.2M7.582 62.231l-7.2-7.2M7.582 66.311l-7.2-7.2M7.582 70.151l-7.2-7.2M7.582 74.231l-7.2-7.2M7.582 78.311l-7.2-7.2M7.582 82.151l-7.2-7.2M7.582 86.231l-7.2-7.2M7.582 90.311l-7.2-7.2M7.582 94.151l-7.2-7.2M7.582 98.231l-7.2-7.2M7.582 102.311l-7.2-7.2M7.582 106.391l-7.2-7.2M7.582 110.231l-7.2-7.2M7.582 114.311l-7.2-7.2M7.582 118.391l-7.2-7.2M7.582 122.231l-7.2-7.2M7.582 126.311l-7.2-7.2M7.582 130.391l-7.2-7.2M7.582 134.231l-7.2-7.2M7.582 138.311l-7.2-7.2M7.582 142.391l-7.2-7.2M7.582 146.471l-7.2-7.2M7.582 150.311l-7.2-7.2M7.582 154.391l-7.2-7.2M7.582 158.471l-7.2-7.2M7.582 162.311l-7.2-7.2M7.582 166.391l-7.2-7.2M7.582 170.471l-7.2-7.2M7.582 174.311l-7.2-7.2M7.582 178.391l-7.2-7.2M7.582 182.471l-7.2-7.2M7.582 186.551l-7.2-7.2M7.582 190.391l-7.2-7.2M7.582 194.471l-7.2-7.2M7.582 198.551l-7.2-7.2M7.582 202.391l-7.2-7.2M7.582 206.471l-7.2-7.2M7.582 210.551l-7.2-7.2M7.582 214.631l-7.2-7.2M7.582 218.471l-7.2-7.2M7.582 222.551l-7.2-7.2M7.582 226.631l-7.2-7.2M7.582 230.471l-7.2-7.2M7.582 234.551l-7.2-7.2M7.582 238.631l-7.2-7.2M7.582 242.471l-7.2-7.2M7.582 246.551l-7.2-7.2M7.582 250.631l-7.2-7.2M7.582 254.711l-7.2-7.2M7.582 258.551l-7.2-7.2M7.582 262.631l-7.2-7.2M7.582 266.711l-7.2-7.2M7.582 270.551l-7.2-7.2M7.582 274.631l-7.2-7.2M7.582 278.711l-7.2-7.2M7.582 282.551l-7.2-7.2M7.582 286.631l-7.2-7.2M7.582 290.711l-7.2-7.2M7.582 294.791l-7.2-7.2M7.582 298.631l-7.2-7.2M7.582 302.711l-7.2-7.2M7.582 306.791l-7.2-7.2M7.582 310.631l-7.2-7.2M7.582 314.711l-7.2-7.2M7.582 318.791l-7.2-7.2M7.582 322.871l-7.2-7.2M7.582 326.711l-7.2-7.2M7.582 330.791l-7.2-7.2M5.182 332.471l-4.8-4.8M1.102 332.471l-.72-.96M7.102 332.471l.48-.48M3.022 332.471l4.56-4.56M.382 331.271l7.2-7.2M.382 327.191l7.2-7.2M.382 323.111l7.2-7.2M.382 319.271l7.2-7.2M.382 315.191l7.2-7.2M.382 311.111l7.2-7.2M.382 307.031l7.2-7.2M.382 303.191l7.2-7.2M.382 299.111l7.2-7.2M.382 295.031l7.2-7.2M.382 291.191l7.2-7.2M.382 287.111l7.2-7.2M.382 283.031l7.2-7.2M.382 279.191l7.2-7.2M.382 275.111l7.2-7.2M.382 271.031l7.2-7.2M.382 266.951l7.2-7.2M.382 263.111l7.2-7.2M.382 259.031l7.2-7.2M.382 254.951l7.2-7.2M.382 251.111l7.2-7.2M.382 247.031l7.2-7.2M.382 242.951l7.2-7.2M.382 239.111l7.2-7.2M.382 235.031l7.2-7.2M.382 230.951l7.2-7.2M.382 226.871l7.2-7.2M.382 223.031l7.2-7.2M.382 218.951l7.2-7.2M.382 214.871l7.2-7.2M.382 211.031l7.2-7.2M.382 206.951l7.2-7.2M.382 202.871l7.2-7.2M.382 199.031l7.2-7.2M.382 194.951l7.2-7.2M.382 190.871l7.2-7.2M.382 186.791l7.2-7.2M.382 182.951l7.2-7.2M.382 178.871l7.2-7.2M.382 174.791l7.2-7.2M.382 170.951l7.2-7.2M.382 166.871l7.2-7.2M.382 162.791l7.2-7.2M.382 158.711l7.2-7.2M.382 154.871l7.2-7.2M.382 150.791l7.2-7.2M.382 146.711l7.2-7.2M.382 142.871l7.2-7.2M.382 138.791l7.2-7.2M.382 134.711l7.2-7.2M.382 130.871l7.2-7.2M.382 126.791l7.2-7.2M.382 122.711l7.2-7.2M.382 118.631l7.2-7.2M.382 114.791l7.2-7.2M.382 110.711l7.2-7.2M.382 106.631l7.2-7.2M.382 102.791l7.2-7.2M.382 98.711l7.2-7.2M.382 94.631l7.2-7.2M.382 90.791l7.2-7.2M.382 86.711l7.2-7.2M.382 82.631l7.2-7.2M.382 78.551l7.2-7.2M.382 74.711l7.2-7.2M.382 70.631l7.2-7.2M.382 66.551l7.2-7.2M.382 62.711l7.2-7.2M.382 58.631l7.2-7.2M.382 54.551l7.2-7.2M.382 50.471l7.2-7.2M.382 46.631l7.2-7.2M.382 42.551l7.2-7.2M.382 38.471l7.2-7.2M.382 34.631l7.2-7.2M.382 30.551l7.2-7.2M.382 26.471l7.2-7.2M.382 22.631l7.2-7.2M.382 18.551l6.72-6.96M.382 14.471l2.88-2.88"/><path class="cls-18" d="M208.942 11.59v90.72h7.2V11.59h-7.2"/><path class="cls-12" d="M216.382 14.471l-2.88-2.88M216.382 18.311l-6.96-6.72M216.382 22.391l-7.2-7.2M216.382 26.471l-7.2-7.2M216.382 30.551l-7.2-7.2M216.382 34.391l-7.2-7.2M216.382 38.471l-7.2-7.2M216.382 42.551l-7.2-7.2M216.382 46.391l-7.2-7.2M216.382 50.471l-7.2-7.2M216.382 54.551l-7.2-7.2M216.382 58.631l-7.2-7.2M216.382 62.471l-7.2-7.2M216.382 66.551l-7.2-7.2M216.382 70.631l-7.2-7.2M216.382 74.471l-7.2-7.2M216.382 78.551l-7.2-7.2M216.382 82.631l-7.2-7.2M216.382 86.471l-7.2-7.2M216.382 90.551l-7.2-7.2M216.382 94.631l-7.2-7.2M216.382 98.711l-7.2-7.2M215.902 102.311l-6.72-6.96M212.062 102.311l-2.88-2.88M213.022 102.311l3.36-3.12M209.182 102.311l7.2-7.2M209.182 98.231l7.2-7.2M209.182 94.391l7.2-7.2M209.182 90.311l7.2-7.2M209.182 86.231l7.2-7.2M209.182 82.391l7.2-7.2M209.182 78.311l7.2-7.2M209.182 74.231l7.2-7.2M209.182 70.391l7.2-7.2M209.182 66.311l7.2-7.2M209.182 62.231l7.2-7.2M209.182 58.151l7.2-7.2M209.182 54.311l7.2-7.2M209.182 50.231l7.2-7.2M209.182 46.151l7.2-7.2M209.182 42.311l7.2-7.2M209.182 38.231l7.2-7.2M209.182 34.151l7.2-7.2M209.182 30.311l7.2-7.2M209.182 26.231l7.2-7.2M209.182 22.151l7.2-7.2M209.182 18.071l6.48-6.48M209.182 14.231l2.4-2.64"/><path class="cls-18" d="M208.942 11.59v90.72h7.2V11.59h-7.2"/><path class="cls-12" d="M216.382 14.471l-2.88-2.88M216.382 18.311l-6.96-6.72M216.382 22.391l-7.2-7.2M216.382 26.471l-7.2-7.2M216.382 30.551l-7.2-7.2M216.382 34.391l-7.2-7.2M216.382 38.471l-7.2-7.2M216.382 42.551l-7.2-7.2M216.382 46.391l-7.2-7.2M216.382 50.471l-7.2-7.2M216.382 54.551l-7.2-7.2M216.382 58.631l-7.2-7.2M216.382 62.471l-7.2-7.2M216.382 66.551l-7.2-7.2M216.382 70.631l-7.2-7.2M216.382 74.471l-7.2-7.2M216.382 78.551l-7.2-7.2M216.382 82.631l-7.2-7.2M216.382 86.471l-7.2-7.2M216.382 90.551l-7.2-7.2M216.382 94.631l-7.2-7.2M216.382 98.711l-7.2-7.2M215.902 102.311l-6.72-6.96M212.062 102.311l-2.88-2.88M213.022 102.311l3.36-3.12M209.182 102.311l7.2-7.2M209.182 98.231l7.2-7.2M209.182 94.391l7.2-7.2M209.182 90.311l7.2-7.2M209.182 86.231l7.2-7.2M209.182 82.391l7.2-7.2M209.182 78.311l7.2-7.2M209.182 74.231l7.2-7.2M209.182 70.391l7.2-7.2M209.182 66.311l7.2-7.2M209.182 62.231l7.2-7.2M209.182 58.151l7.2-7.2M209.182 54.311l7.2-7.2M209.182 50.231l7.2-7.2M209.182 46.151l7.2-7.2M209.182 42.311l7.2-7.2M209.182 38.231l7.2-7.2M209.182 34.151l7.2-7.2M209.182 30.311l7.2-7.2M209.182 26.231l7.2-7.2M209.182 22.151l7.2-7.2M209.182 18.071l6.48-6.48M209.182 14.231l2.4-2.64"/><path class="cls-14" d="M271.342 165.671h29.76v39.6h-29.76zM253.102 215.591h-132.24M208.942 222.791h-95.04M253.102 222.791h-36.96M208.942 222.791h-95.04M253.102 215.591h-132.24M253.102 222.791h-36.96M69.022 107.111v-90.48M63.982 107.111v-90.48M69.022 16.631h-5.04M63.982 107.111v-90.48M69.022 107.111v-90.48M69.022 107.111h-5.04M113.902 102.311h-18.96M113.902 107.111h-18.96M94.942 102.311v4.8M113.902 107.111h-18.96M113.902 102.311h-18.96M113.902 102.311v4.8M37.822 102.311H7.342M37.822 107.111H7.342M7.342 102.311v4.8M37.822 107.111H7.342M37.822 102.311H7.342M37.822 102.311v4.8M29.902 338.711H.142M29.902 342.071H.142M29.902 327.431H.142M29.902 332.471H.142M144.142 338.711h-51.36M144.142 342.071h-51.36M144.142 327.431h-51.36M144.142 332.471h-51.36M216.142 338.711h-31.2M216.142 342.071h-31.2M216.142 327.431h-31.2M216.142 332.471h-31.2M92.782 332.471v-5.04M92.782 342.07h-1.68v-3.36h1.68M91.102 338.711v-3.84M29.902 332.471v-5.04M29.902 342.07h1.92v-3.36h-1.92M31.822 338.711v-3.84M183.262 342.071h3.36M146.062 342.071h-3.36M184.942 332.471v-5.04M184.942 342.07h-1.68v-3.36h1.68M183.262 338.711v-3.84M144.142 332.471v-5.04M144.142 342.07h1.92v-3.36h-1.92M146.062 338.711v-3.84M216.142 332.471v-109.68M208.942 332.471v-109.68M208.942 332.471v-109.68M216.142 332.471v-109.68M216.142 332.471h-7.2M113.902 142.631v80.16M120.862 142.631v72.96M120.862 142.631v72.96M113.902 142.631v80.16M113.902 102.311v4.8M120.862 109.271h-6M120.862 137.111h-6M120.862 109.271h-6M120.862 107.111v2.16M120.862 137.111h-6M120.862 142.631v-5.52M113.902 107.111h.96M113.902 142.631h.96M120.862 107.111v2.16M120.862 142.631v-5.52M114.862 109.271v-2.16M114.862 137.111v5.52M311.182 107.111v-4.8M311.182 107.111v-4.8M311.182 222.791v-80.16M303.982 147.911v-5.28M303.982 212.711v-54.72M303.982 147.911v-5.28M311.182 222.791v-80.16M303.982 212.711v-54.72M303.982 137.111h6M303.982 109.271h6M303.982 137.111h6M303.982 142.631v-5.52M303.982 109.271h6M303.982 107.111v2.16M311.182 142.631h-1.2M311.182 107.111h-1.2M303.982 142.631v-5.52M303.982 107.111v2.16M309.982 137.111v5.52M309.982 109.271v-2.16M258.622 212.711v-54.72M253.102 215.591v-67.68M253.102 215.591v-67.68M258.622 212.711v-54.72M208.942 102.311h-95.04M311.182 102.311h-95.04M303.982 109.271h-183.12M303.982 109.271h-183.12M208.942 102.311h-95.04M311.182 102.311h-95.04M253.102 222.791h58.08M258.622 212.711h45.36M258.622 212.711h45.36M253.102 222.791h58.08M258.622 157.991h9.6M253.102 147.911h15.12M253.102 147.911h15.12M258.622 157.991h9.6M271.342 147.911v8.64M300.862 147.911v8.64M271.342 147.911v8.64M268.222 147.911h3.12M300.862 147.911v8.64M303.982 147.911h-3.12M268.222 157.991v-1.44M303.982 157.991v-1.44M268.222 147.911h3.12M303.982 147.911h-3.12M271.342 156.551h-3.12M300.862 156.551h3.12M113.902 222.791v65.28M117.982 222.791v70.08M117.982 222.791v70.08M113.902 222.791v65.28M113.902 222.791h4.08M113.902 288.071h-18M117.982 292.871h-22.08M95.902 288.071v4.8M117.982 292.871h-22.08M113.902 288.071h-18M184.942 5.351h31.2M184.942 1.991h31.2M184.942 16.631h31.2M184.942 11.591h31.2M52.222 5.351h69.84M52.222 1.991h69.84M52.222 16.631h69.84M52.222 11.591h69.84M.142 5.351h33.6M.142 1.991h33.6M.142 16.631h33.6M.142 11.591h33.6M35.422 1.991h-3.36M50.542 1.991h3.36M33.742 11.591v5.04M33.742 1.99h1.68v3.36h-1.68M35.422 5.351v4.08M52.222 11.591v5.04M52.222 1.99h-1.68v3.36h1.68M50.542 5.351v4.08M123.982 1.991h-3.36M183.262 1.991h3.36M122.062 11.591v5.04M122.062 1.99h1.92v3.36h-1.92M123.982 5.351v4.08M184.942 11.591v5.04M184.942 1.99h-1.68v3.36h1.68M183.262 5.351v4.08M7.342 332.471V11.591M.142 332.471V11.591M7.342 11.591h-7.2M.142 332.471V11.591M7.342 332.471V11.591M7.342 332.471h-7.2M216.142 102.311v-90.72M208.942 102.311v-90.72M216.142 11.591h-7.2M208.942 102.311v-90.72M216.142 102.311v-90.72"/></g><g id="Mbel"><path class="cls-2" d="M150.622 223.991h56.88v28.56h-56.88zM191.902 269.591h15.6v56.64h-15.6zM29.902 175.271h22.8v51.12h-22.8zM62.539 224.968v-12.756M54.036 224.968h8.503M62.539 212.212h-8.503M62.539 207.244v-12.756M54.036 207.244h8.503M62.539 194.488h-8.503M62.539 189.522v-12.756M54.036 189.522h8.503M62.539 176.766h-8.503M20.021 224.968v-12.756M28.524 224.968h-8.503M20.021 212.212h8.503M20.021 207.244v-12.756M28.524 207.244h-8.503M20.021 194.488h8.503M20.021 189.522v-12.756M28.524 189.522h-8.503M20.021 176.766h8.503M44.062 271.991h14.16v28.32h-14.16zM13.218 312.774h18.71c.055 0 .11-.005.165-.014a.784.784 0 0 0 .305-.127.8.8 0 0 0 .235-.236.864.864 0 0 0 .127-.307.761.761 0 0 0 .017-.166V286.98a.776.776 0 0 0-.017-.166.782.782 0 0 0-.127-.305.695.695 0 0 0-.106-.13.694.694 0 0 0-.13-.105.781.781 0 0 0-.304-.127.776.776 0 0 0-.166-.017h-18.71v26.645"/><path class="cls-2" d="M9.533 317.31h22.394c.056 0 .11-.005.166-.017a.94.94 0 0 0 .305-.125.704.704 0 0 0 .13-.108.763.763 0 0 0 .105-.127.773.773 0 0 0 .127-.307.776.776 0 0 0 .017-.166v-2.834a.76.76 0 0 0-.017-.166.773.773 0 0 0-.127-.307.803.803 0 0 0-.235-.235.783.783 0 0 0-.305-.127.968.968 0 0 0-.166-.017H9.533a.856.856 0 0 0-.85.852v2.835a.843.843 0 0 0 .525.785.842.842 0 0 0 .325.064M13.218 286.13H9.533a.842.842 0 0 1-.602-.25.853.853 0 0 1-.249-.6v-24.946a.86.86 0 0 1 .065-.326.855.855 0 0 1 .786-.523h3.685M15.502 259.511v53.28"/><path class="cls-2" d="M13.218 259.484h18.71c.055 0 .11.005.165.017a.94.94 0 0 1 .305.125.704.704 0 0 1 .13.108c.04.038.074.082.105.127a.772.772 0 0 1 .127.307c.012.056.017.11.017.166v24.946c0 .055-.005.11-.017.165a.885.885 0 0 1-.233.434.61.61 0 0 1-.13.106.78.78 0 0 1-.304.127.776.776 0 0 1-.166.017h-18.71v-26.645"/><path class="cls-2" d="M9.533 254.948h22.394c.056 0 .11.005.166.017a.78.78 0 0 1 .305.127.693.693 0 0 1 .13.106.883.883 0 0 1 .233.434c.011.056.016.11.016.166v2.834a.783.783 0 0 1-.017.168.864.864 0 0 1-.833.684H9.533a.841.841 0 0 1-.602-.25.853.853 0 0 1-.249-.602v-2.834a.849.849 0 0 1 .85-.85M13.218 286.13H9.533a.841.841 0 0 0-.602.249.854.854 0 0 0-.249.6v24.945a.852.852 0 0 0 .525.788c.103.04.214.062.326.062h3.685M162.142 43.991h45.36v56.64h-45.36zM70.222 18.071h51.12v15.6h-51.12z"/></g><g id="Text"><path d="M26.923 147.48h-.671v-5.332h.67v2.454l2.072-2.454h.808l-2.223 2.638 2.222 2.695h-.855l-2.023-2.463v2.463zM33.94 145.65c0 1.08-.83 1.919-1.887 1.919-1.095 0-1.863-.8-1.863-1.936 0-1.143.768-1.926 1.888-1.926 1.087 0 1.862.807 1.862 1.943zm-3.126-.008c0 .815.504 1.367 1.255 1.367.728 0 1.248-.568 1.248-1.367 0-.824-.496-1.376-1.24-1.376-.759 0-1.263.552-1.263 1.376zM37.953 147.025c-.416.376-.824.544-1.36.544-1.055 0-1.807-.8-1.807-1.92 0-1.143.76-1.942 1.839-1.942.528 0 .96.175 1.343.551l-.391.392c-.28-.256-.592-.384-.936-.384-.727 0-1.231.56-1.231 1.36 0 .815.504 1.383 1.224 1.383.359 0 .647-.12.943-.4l.376.416zM39.495 144.306c.335-.415.67-.6 1.111-.6.32 0 .655.129.856.337.199.2.287.487.287.96v2.478h-.608v-2.447c0-.504-.248-.784-.687-.784a.94.94 0 0 0-.72.328c-.183.208-.24.392-.24.744v2.159h-.608v-5.333h.609v2.158zM43.477 145.834c.032.311.088.471.24.671.24.328.591.504.99.504.457 0 .888-.248 1.104-.632l.536.2c-.303.616-.935.992-1.64.992-1.094 0-1.878-.8-1.878-1.92 0-1.135.775-1.942 1.855-1.942 1.072 0 1.871.807 1.871 1.887 0 .048 0 .152-.007.24h-3.07zm2.43-.448c-.023-.288-.08-.448-.207-.632a1.268 1.268 0 0 0-1.016-.504c-.408 0-.775.193-.99.512-.113.176-.161.328-.209.624h2.422zM48.23 143.795v.52c.32-.433.64-.608 1.095-.608.336 0 .64.112.855.303.233.225.313.48.313.984v2.487h-.609v-2.351c0-.328-.04-.504-.135-.632-.112-.152-.328-.248-.575-.248a.916.916 0 0 0-.705.312c-.175.192-.24.368-.24.672v2.247h-.607v-3.686h.607zM51.774 148.752l-.44-.136.672-1.943.576.184-.808 1.895zM56.909 144.506h2.102v.576H56.91v1.823h2.102v.576h-2.774v-5.333h2.774v.575H56.91v1.783zM61.936 144.802v-.04c0-.344-.279-.56-.703-.56-.408 0-.664.208-.664.528s.16.44.823.624c.472.128.72.248.896.423.184.185.296.448.296.72 0 .64-.528 1.072-1.31 1.072-.84 0-1.312-.392-1.377-1.136h.6c.04.416.312.64.776.64.415 0 .688-.216.688-.544 0-.32-.208-.48-.84-.64-.8-.216-1.16-.551-1.16-1.111 0-.64.52-1.071 1.296-1.071.784 0 1.255.4 1.287 1.095h-.608zM65.48 144.802v-.04c0-.344-.28-.56-.703-.56-.408 0-.664.208-.664.528s.16.44.823.624c.473.128.72.248.896.423.184.185.296.448.296.72 0 .64-.528 1.072-1.31 1.072-.84 0-1.312-.392-1.377-1.136h.6c.04.416.312.64.776.64.415 0 .688-.216.688-.544 0-.32-.208-.48-.84-.64-.8-.216-1.16-.551-1.16-1.111 0-.64.52-1.071 1.296-1.071.784 0 1.255.4 1.287 1.095h-.608zM67.622 145.834c.032.311.089.471.24.671.24.328.592.504.991.504.456 0 .888-.248 1.104-.632l.536.2c-.304.616-.936.992-1.64.992-1.094 0-1.879-.8-1.879-1.92 0-1.135.777-1.942 1.856-1.942 1.071 0 1.87.807 1.87 1.887 0 .048 0 .152-.008.24h-3.07zm2.431-.448c-.024-.288-.08-.448-.208-.632a1.268 1.268 0 0 0-1.015-.504c-.408 0-.776.193-.991.512-.113.176-.16.328-.208.624h2.422zM72.376 143.795v.52c.319-.433.638-.608 1.094-.608.336 0 .64.112.856.303.232.225.312.48.312.984v2.487h-.608v-2.351c0-.328-.04-.504-.136-.632-.112-.152-.328-.248-.575-.248a.916.916 0 0 0-.704.312c-.176.192-.24.368-.24.672v2.247h-.608v-3.686h.609zM75.92 148.752l-.44-.136.671-1.943.576.184-.807 1.895zM31.736 151.148h.696l-1.631 5.333h-.592l-1.175-4.19-1.184 4.19h-.591l-1.631-5.333h.712l1.214 4.086 1.184-4.086h.632l1.142 4.101 1.224-4.101zM36.544 154.65c0 1.08-.831 1.919-1.887 1.919-1.096 0-1.863-.8-1.863-1.936 0-1.143.767-1.926 1.887-1.926 1.087 0 1.863.807 1.863 1.943zm-3.126-.008c0 .815.504 1.367 1.255 1.367.727 0 1.248-.568 1.248-1.367 0-.824-.496-1.376-1.24-1.376-.76 0-1.263.552-1.263 1.376zM38.257 153.306c.336-.415.671-.6 1.112-.6.32 0 .655.129.855.337.2.2.287.487.287.96v2.478h-.607v-2.447c0-.504-.248-.784-.687-.784a.94.94 0 0 0-.72.328c-.184.208-.24.392-.24.744v2.159h-.608v-5.333h.608v2.158zM42.462 152.795v.52c.32-.433.64-.608 1.095-.608.336 0 .64.112.856.303.232.225.312.48.312.984v2.487h-.608v-2.351c0-.328-.04-.504-.136-.632-.111-.152-.328-.248-.575-.248a.916.916 0 0 0-.704.312c-.176.192-.24.368-.24.672v2.247h-.608v-3.686h.608zM46.452 154.834c.032.311.089.471.24.671.24.328.592.504.991.504.456 0 .888-.248 1.104-.632l.536.2c-.304.616-.936.992-1.64.992-1.094 0-1.879-.8-1.879-1.92 0-1.135.777-1.942 1.856-1.942 1.071 0 1.871.807 1.871 1.887 0 .048 0 .152-.009.24h-3.07zm2.432-.448c-.025-.288-.08-.448-.208-.632a1.268 1.268 0 0 0-1.016-.504c-.408 0-.775.193-.991.512-.113.176-.16.328-.208.624h2.423zM51.206 152.795v.52c.32-.433.638-.608 1.095-.608.335 0 .64.112.855.303.232.225.312.48.312.984v2.487h-.608v-2.351c0-.328-.04-.504-.136-.632-.112-.152-.328-.248-.575-.248a.916.916 0 0 0-.704.312c-.176.192-.24.368-.24.672v2.247h-.608v-3.686h.609zM28.922 164.897v.584h-2.99l1.855-2.655c.535-.776.655-1.015.655-1.335 0-.464-.368-.792-.888-.792-.359 0-.655.168-.775.448-.064.152-.088.272-.096.552h-.6c.032-1.016.568-1.575 1.52-1.575.871 0 1.479.543 1.479 1.319 0 .448-.16.84-.608 1.463l-1.431 1.991h1.879zM32.902 162.93c.265.264.4.616.4 1.032 0 .943-.696 1.614-1.67 1.614-.968 0-1.648-.647-1.648-1.559 0-.423.144-.807.4-1.071.167-.176.303-.256.624-.36-.28-.096-.4-.176-.544-.351a1.228 1.228 0 0 1-.272-.784c0-.76.623-1.32 1.47-1.32.84 0 1.448.552 1.448 1.312 0 .304-.103.591-.296.815-.143.16-.256.232-.527.328.304.096.447.168.615.344zm-2.286 1.023c0 .568.455 1.032 1.023 1.032.568 0 1.024-.464 1.024-1.032 0-.56-.456-1.031-1.008-1.031a1.03 1.03 0 0 0-1.039 1.031zm.184-2.494c0 .456.376.816.847.816.456 0 .863-.376.863-.808 0-.416-.391-.776-.847-.776-.512 0-.863.32-.863.768zM35.203 165.137a.406.406 0 0 1-.415.408.403.403 0 0 1-.416-.416c0-.24.176-.416.416-.416s.415.176.415.424zM37.536 162.362c.224-.08.327-.104.52-.104.887 0 1.575.696 1.575 1.6 0 .943-.776 1.718-1.72 1.718-.951 0-1.687-.751-1.687-1.718 0-.392.104-.688.408-1.176l1.527-2.454h.744l-1.367 2.134zm-.68 1.496c0 .623.472 1.119 1.071 1.119s1.08-.488 1.08-1.096c0-.6-.472-1.08-1.064-1.08-.607 0-1.087.465-1.087 1.057zM42.839 161.795v.511c.28-.424.591-.6 1.047-.6.504 0 .824.217.992.672.272-.472.616-.671 1.168-.671.423 0 .743.135.935.391.176.232.224.44.224 1.024v2.359h-.608v-2.215c0-.448-.016-.552-.104-.704-.111-.192-.352-.312-.64-.312-.535 0-.83.36-.83 1.016v2.215h-.61v-2.207c0-.36-.03-.544-.118-.704-.105-.208-.328-.32-.6-.32-.536 0-.856.384-.856 1.024v2.207h-.608v-3.686h.608zM50.43 162.978v.408h-1.95l1.183-1.615c.336-.456.407-.592.407-.768 0-.256-.216-.44-.527-.44-.352 0-.496.176-.504.592h-.44c.024-.648.36-.991.976-.991.56 0 .951.335.951.807 0 .272-.103.52-.384.88l-.847 1.127h1.135z"/><g><path d="M30.406 357.539c1.087 0 1.703.511 1.703 1.415 0 .344-.104.647-.304.87-.128.153-.255.233-.544.345.296.064.44.12.608.248.288.232.44.591.44 1.023 0 .496-.217.928-.576 1.16-.311.2-.655.272-1.327.272h-1.503v-5.333h1.503zm-.832 2.398l.68-.008c.423 0 .68-.056.872-.208a.937.937 0 0 0 .327-.735c0-.344-.168-.648-.424-.768-.191-.096-.415-.128-.903-.128h-.552v1.847zm0 2.39h.672c.56 0 .775-.04 1.008-.175.255-.144.383-.4.383-.752 0-.64-.376-.919-1.223-.919h-.84v1.847zM36.297 359.185h.607v3.687h-.607v-.712c-.369.552-.785.8-1.344.8-1.016 0-1.735-.8-1.735-1.92 0-1.127.736-1.943 1.75-1.943.561 0 .968.216 1.329.697v-.609zm-2.136.896a1.689 1.689 0 0 0-.304.975c0 .784.512 1.375 1.184 1.375.695 0 1.263-.647 1.263-1.438 0-.8-.511-1.352-1.248-1.352-.399 0-.68.136-.895.44zM38.262 362.872v-5.333h.609v5.333h-.609zM40.828 362.872h-.608v-5.333h.608v3.261l1.472-1.615h.767l-1.647 1.8 1.64 1.887h-.76l-1.472-1.648v1.648zM47.257 361.04c0 1.08-.831 1.92-1.887 1.92-1.096 0-1.863-.8-1.863-1.936 0-1.142.767-1.927 1.887-1.927 1.087 0 1.863.808 1.863 1.944zm-3.126-.007c0 .815.504 1.367 1.254 1.367.728 0 1.249-.568 1.249-1.367 0-.824-.497-1.376-1.24-1.376-.76 0-1.263.552-1.263 1.376zM48.97 359.185v.52c.32-.432.64-.608 1.095-.608.336 0 .64.113.856.304.232.225.312.48.312.983v2.488h-.608v-2.35c0-.329-.04-.505-.136-.633-.112-.152-.328-.248-.575-.248a.916.916 0 0 0-.704.312c-.176.192-.24.368-.24.672v2.247h-.608v-3.687h.608zM31.197 367.146h-1.719v1.432c.272-.105.512-.153.783-.153.936 0 1.64.736 1.64 1.736 0 1.023-.752 1.766-1.799 1.766-.752 0-1.32-.391-1.592-1.095l.577-.216c.128.232.183.328.271.408.168.168.464.272.76.272.64 0 1.128-.496 1.128-1.152 0-.68-.48-1.135-1.184-1.135-.416 0-.84.192-1.183.543v-3.013h2.318v.607zM33.761 371.528a.406.406 0 0 1-.415.407.403.403 0 0 1-.416-.415c0-.24.176-.416.416-.416s.415.176.415.424zM38.063 370.264c0 .6-.112.968-.376 1.247-.28.296-.703.449-1.207.449-.52 0-.951-.16-1.231-.464-.28-.296-.352-.6-.352-1.407v-1.76c0-.696.08-1.023.32-1.31.263-.321.704-.497 1.248-.497.487 0 .886.137 1.182.4.304.28.416.6.416 1.223v2.12zm-2.534-.135c0 .615.023.727.2.927.167.192.455.312.759.312.328 0 .632-.136.783-.352.12-.176.168-.4.168-.792v-2.039c0-.415-.071-.623-.271-.815a1 1 0 0 0-.68-.248c-.344 0-.64.136-.791.384-.137.192-.168.376-.168.84v1.783zM41.392 368.185v.512c.28-.424.592-.6 1.048-.6.504 0 .823.216.991.672.273-.471.617-.672 1.168-.672.424 0 .744.136.936.392.176.232.224.44.224 1.023v2.36h-.608v-2.215c0-.448-.017-.552-.104-.704-.112-.192-.352-.312-.64-.312-.535 0-.831.36-.831 1.016v2.215h-.608v-2.207c0-.36-.032-.544-.12-.703-.104-.208-.328-.32-.6-.32-.535 0-.856.383-.856 1.023v2.207h-.607v-3.687h.607zM48.984 369.369v.408h-1.951l1.184-1.615c.335-.456.407-.592.407-.768 0-.256-.216-.44-.528-.44-.351 0-.496.177-.503.592h-.44c.024-.648.36-.992.976-.992.56 0 .95.336.95.808 0 .271-.103.52-.383.88l-.848 1.127h1.136z"/></g><g><path d="M129.922 78.821v.576h-3.815l3.015-4.757h-2.679v-.576h3.79l-3.015 4.757h2.704zM131.762 74.68c0 .216-.176.384-.392.384s-.384-.168-.384-.392.168-.392.393-.392c.215 0 .383.176.383.4zm-.088 4.717h-.608v-3.686h.608v3.686zM133.635 75.711v.512c.28-.424.591-.6 1.047-.6.504 0 .824.216.992.672.272-.472.616-.672 1.168-.672.423 0 .743.136.935.392.176.232.224.44.224 1.023v2.36h-.608v-2.216c0-.447-.016-.551-.104-.703-.112-.192-.352-.312-.64-.312-.535 0-.83.36-.83 1.015v2.215h-.61V77.19c0-.36-.03-.543-.118-.703-.105-.208-.329-.32-.6-.32-.536 0-.856.383-.856 1.023v2.207h-.608v-3.686h.608zM139.957 75.711v.512c.28-.424.59-.6 1.047-.6.504 0 .823.216.99.672.273-.472.617-.672 1.169-.672.424 0 .743.136.935.392.176.232.224.44.224 1.023v2.36h-.607v-2.216c0-.447-.017-.551-.105-.703-.111-.192-.351-.312-.64-.312-.535 0-.83.36-.83 1.015v2.215h-.609V77.19c0-.36-.031-.543-.12-.703-.104-.208-.327-.32-.599-.32-.536 0-.855.383-.855 1.023v2.207h-.609v-3.686h.609zM146.054 77.75c.032.312.088.472.24.672.24.328.591.503.99.503.457 0 .889-.248 1.104-.631l.537.2c-.304.615-.936.991-1.64.991-1.095 0-1.879-.8-1.879-1.919 0-1.135.775-1.943 1.855-1.943 1.072 0 1.872.808 1.872 1.887 0 .048 0 .152-.008.24h-3.07zm2.43-.448c-.023-.288-.079-.447-.207-.631a1.268 1.268 0 0 0-1.016-.504c-.408 0-.775.192-.99.511-.113.177-.16.328-.209.624h2.422zM150.806 75.711v.624c.113-.264.193-.376.336-.488.185-.144.44-.224.704-.224h.144v.616c-.064-.008-.128-.008-.168-.008a.945.945 0 0 0-.799.423c-.16.232-.217.448-.217.872v1.871h-.607v-3.686h.607zM126.891 84.815v-.607l1.807-1.184v5.373h-.632v-4.366l-1.175.784zM132.885 83.672h-1.718v1.431c.271-.104.511-.152.783-.152.935 0 1.64.736 1.64 1.735 0 1.024-.752 1.767-1.8 1.767-.751 0-1.319-.392-1.591-1.095l.576-.216c.128.232.184.327.272.407.168.168.463.272.76.272.639 0 1.126-.495 1.126-1.15 0-.68-.48-1.136-1.182-1.136-.416 0-.84.192-1.184.543v-3.014h2.318v.608zM135.45 88.053a.406.406 0 0 1-.415.408.403.403 0 0 1-.416-.415c0-.24.176-.416.416-.416s.415.175.415.423zM136.405 84.815v-.607l1.807-1.184v5.373h-.632v-4.366l-1.175.784zM142.427 84.711v.512c.28-.424.592-.6 1.048-.6.504 0 .824.216.992.672.272-.472.616-.672 1.167-.672.424 0 .744.136.936.392.176.232.224.44.224 1.023v2.36h-.608v-2.216c0-.447-.016-.551-.104-.703-.112-.192-.352-.312-.64-.312-.535 0-.83.36-.83 1.015v2.215h-.61V86.19c0-.36-.03-.543-.118-.703-.105-.208-.329-.32-.6-.32-.536 0-.857.383-.857 1.023v2.207h-.607v-3.686h.607zM150.02 85.895v.407h-1.952l1.184-1.615c.336-.455.407-.592.407-.767 0-.256-.216-.44-.527-.44-.352 0-.497.176-.504.591h-.44c.024-.647.36-.99.976-.99.56 0 .951.335.951.806 0 .272-.104.52-.384.88l-.847 1.128h1.135z"/></g><g><path d="M154.262 283.667v.575h-3.814l3.015-4.757h-2.68v-.576h3.791l-3.015 4.758h2.703zM156.103 279.525c0 .216-.177.384-.392.384s-.384-.168-.384-.392.168-.392.392-.392c.216 0 .384.176.384.4zm-.089 4.717h-.607v-3.686h.607v3.686zM157.975 280.556v.512c.28-.424.592-.6 1.048-.6.504 0 .823.216.991.672.273-.472.617-.672 1.168-.672.424 0 .744.136.936.392.176.232.224.44.224 1.023v2.36h-.608v-2.215c0-.448-.016-.552-.104-.704-.112-.192-.352-.312-.64-.312-.535 0-.831.36-.831 1.016v2.214h-.608v-2.207c0-.36-.032-.543-.12-.703-.104-.208-.328-.32-.6-.32-.535 0-.856.384-.856 1.023v2.207h-.607v-3.686h.607zM164.298 280.556v.512c.279-.424.59-.6 1.046-.6.504 0 .824.216.992.672.272-.472.616-.672 1.168-.672.423 0 .743.136.935.392.176.232.224.44.224 1.023v2.36h-.608v-2.215c0-.448-.016-.552-.104-.704-.111-.192-.352-.312-.64-.312-.535 0-.83.36-.83 1.016v2.214h-.61v-2.207c0-.36-.03-.543-.118-.703-.105-.208-.328-.32-.6-.32-.536 0-.855.384-.855 1.023v2.207h-.609v-3.686h.609zM170.395 282.595c.031.312.088.472.24.672.24.328.591.504.99.504.457 0 .888-.248 1.104-.632l.536.2c-.303.615-.935.991-1.64.991-1.094 0-1.878-.8-1.878-1.919 0-1.135.775-1.943 1.855-1.943 1.072 0 1.871.808 1.871 1.888 0 .047 0 .151-.007.24h-3.07zm2.43-.447c-.024-.288-.08-.448-.207-.632a1.268 1.268 0 0 0-1.016-.504c-.408 0-.775.192-.99.512-.113.176-.161.328-.209.624h2.422zM175.147 280.556v.624c.113-.264.193-.376.336-.487.185-.144.44-.225.704-.225h.144v.616c-.064-.008-.128-.008-.168-.008a.945.945 0 0 0-.799.424c-.16.232-.217.447-.217.871v1.871h-.607v-3.686h.607zM151.232 289.66v-.607l1.807-1.184v5.373h-.632v-4.365l-1.175.783zM154.746 289.66v-.607l1.806-1.184v5.373h-.631v-4.365l-1.175.783zM159.12 292.899a.406.406 0 0 1-.414.407.403.403 0 0 1-.416-.415c0-.24.176-.416.416-.416s.415.176.415.424zM161.92 291.108c-.223.08-.327.104-.511.104-.896 0-1.59-.704-1.59-1.616 0-.951.759-1.703 1.726-1.703.96 0 1.68.728 1.68 1.68 0 .407-.105.72-.369 1.159l-1.535 2.51h-.743l1.343-2.134zm-1.47-1.536c0 .6.464 1.08 1.063 1.08.616 0 1.08-.464 1.08-1.072 0-.615-.464-1.095-1.048-1.095-.608 0-1.095.48-1.095 1.087zM166.434 289.556v.512c.28-.424.591-.6 1.047-.6.504 0 .823.216.991.672.273-.472.617-.672 1.168-.672.424 0 .744.136.936.392.176.232.224.44.224 1.023v2.36h-.608v-2.215c0-.448-.016-.552-.104-.704-.112-.192-.352-.312-.64-.312-.535 0-.831.36-.831 1.016v2.214h-.608v-2.207c0-.36-.032-.543-.12-.703-.104-.208-.328-.32-.6-.32-.535 0-.855.384-.855 1.023v2.207h-.608v-3.686h.608zM174.025 290.74v.408h-1.951l1.184-1.616c.335-.455.407-.591.407-.767 0-.256-.216-.44-.528-.44-.351 0-.496.176-.503.592h-.44c.024-.648.36-.992.976-.992.56 0 .95.336.95.808 0 .272-.103.52-.383.88l-.848 1.127h1.136z"/></g><g><path d="M29.427 28.567h1.415c1.606 0 2.574.976 2.574 2.583 0 .903-.296 1.647-.84 2.134-.462.416-1.079.616-1.854.616h-1.295v-5.333zm.67 4.757h.241c.903 0 1.287-.096 1.671-.4.48-.383.72-.975.72-1.767 0-1.287-.688-2.023-1.911-2.023h-.72v4.19zM37.392 30.214v2.359c0 .503-.096.783-.368 1.031-.272.248-.648.384-1.064.384-.415 0-.799-.144-1.063-.392-.247-.24-.367-.575-.367-1.023v-2.359h.607v2.343c0 .52.336.887.823.887a.876.876 0 0 0 .656-.28c.12-.143.16-.295.16-.591v-2.359h.616zM40.444 31.221v-.04c0-.343-.28-.56-.704-.56-.408 0-.664.209-.664.529s.16.44.824.623c.471.128.72.248.895.424.185.184.296.448.296.72 0 .64-.527 1.07-1.31 1.07-.84 0-1.312-.39-1.376-1.134h.6c.04.415.312.64.776.64.415 0 .687-.216.687-.545 0-.32-.208-.48-.84-.64-.8-.215-1.159-.55-1.159-1.11 0-.64.52-1.072 1.295-1.072.784 0 1.256.4 1.287 1.095h-.607zM45.105 33.444c-.416.376-.824.544-1.36.544-1.055 0-1.807-.8-1.807-1.919 0-1.144.76-1.943 1.839-1.943.528 0 .96.176 1.343.552l-.391.391c-.28-.255-.592-.383-.936-.383-.727 0-1.231.56-1.231 1.36 0 .815.504 1.382 1.223 1.382.36 0 .648-.12.944-.4l.376.417zM46.647 30.726c.335-.416.67-.6 1.111-.6.32 0 .655.128.856.336.199.2.287.488.287.96V33.9h-.608v-2.447c0-.503-.248-.783-.687-.783a.94.94 0 0 0-.72.328c-.184.208-.24.391-.24.743v2.16h-.608v-5.334h.609v2.159zM50.63 32.253c.03.312.087.472.238.671.24.329.592.504.992.504.456 0 .887-.248 1.103-.631l.536.2c-.303.615-.935.991-1.64.991-1.094 0-1.878-.8-1.878-1.919 0-1.135.775-1.943 1.855-1.943 1.071 0 1.871.808 1.871 1.887 0 .048 0 .152-.008.24h-3.07zm2.429-.448c-.024-.288-.08-.447-.207-.632a1.268 1.268 0 0 0-1.016-.503c-.408 0-.775.192-.991.511-.112.177-.16.328-.208.624h2.422zM31.72 38.174h-1.718v1.432c.272-.104.512-.152.783-.152.936 0 1.64.736 1.64 1.735 0 1.024-.752 1.767-1.799 1.767-.752 0-1.32-.392-1.592-1.095l.577-.216c.128.232.183.327.271.407.168.168.464.272.76.272.64 0 1.128-.495 1.128-1.151 0-.68-.48-1.135-1.184-1.135-.416 0-.84.192-1.183.543v-3.014h2.318v.607zM34.285 42.556a.406.406 0 0 1-.415.408.403.403 0 0 1-.416-.416c0-.24.176-.416.416-.416s.415.176.415.424zM38.587 41.293c0 .6-.112.967-.376 1.247-.28.296-.703.448-1.207.448-.52 0-.951-.16-1.231-.464-.28-.296-.352-.6-.352-1.407v-1.759c0-.696.08-1.023.32-1.311.263-.32.704-.496 1.248-.496.487 0 .886.136 1.182.4.304.28.416.6.416 1.223v2.12zm-2.534-.136c0 .616.023.727.2.928.167.192.455.311.759.311.328 0 .632-.136.783-.351.12-.176.168-.4.168-.792v-2.039c0-.416-.071-.624-.271-.815a1 1 0 0 0-.68-.248c-.344 0-.64.136-.791.383-.137.192-.168.376-.168.84v1.783zM41.916 39.214v.512c.28-.424.592-.6 1.048-.6.504 0 .823.216.991.672.273-.472.617-.672 1.168-.672.424 0 .743.136.936.392.176.232.223.44.223 1.023v2.36h-.607v-2.216c0-.448-.017-.552-.104-.703-.112-.192-.352-.312-.64-.312-.535 0-.831.36-.831 1.015V42.9h-.609v-2.207c0-.36-.03-.543-.119-.703-.104-.208-.328-.32-.6-.32-.535 0-.856.383-.856 1.023V42.9h-.607v-3.686h.607zM49.508 40.398v.407h-1.951l1.183-1.615c.336-.455.408-.592.408-.767 0-.256-.216-.44-.528-.44-.351 0-.496.176-.504.591h-.439c.023-.647.36-.99.976-.99.56 0 .95.335.95.806 0 .272-.103.52-.383.88l-.848 1.128h1.136z"/></g><g><path d="M284.03 187.33v.607h-2.55v-5.333h.672v4.725h1.879zM285.679 183.22c0 .215-.177.383-.393.383s-.383-.168-.383-.392.168-.392.392-.392c.216 0 .384.176.384.4zm-.088 4.717h-.608v-3.686h.608v3.686zM287.643 187.937h-.608v-3.15h-.504v-.536h.504v-.496c0-.728.376-1.16 1.016-1.16.031 0 .104 0 .167.009v.543c-.44.048-.56.176-.575.608v.496h.575v.535h-.575v3.15zM290.027 187.185c.008.184.056.224.28.224h.28v.528h-.568c-.432-.008-.6-.168-.6-.576v-2.575h-.512v-.535h.512v-1.16h.608v1.16h.56v.535h-.56v2.4z"/></g></g></svg>