<svg xmlns="http://www.w3.org/2000/svg" viewBox="0 0 401.97261 384.86173"><defs><style>.cls-1,.cls-10,.cls-11,.cls-12,.cls-13,.cls-14,.cls-15,.cls-16,.cls-17,.cls-2,.cls-3,.cls-4,.cls-5,.cls-6,.cls-7,.cls-8,.cls-9{fill:none;stroke-linecap:round;stroke-linejoin:round}.cls-1,.cls-10,.cls-11,.cls-12,.cls-13,.cls-14,.cls-15,.cls-17,.cls-2,.cls-3,.cls-4,.cls-5,.cls-7,.cls-8,.cls-9{stroke-width:.14173px}.cls-1,.cls-13,.cls-15,.cls-16,.cls-3,.cls-7{stroke:#194164}.cls-1,.cls-7{stroke-dasharray:0 0 0 0 2.88 1.44 .24 1.44}.cls-2{stroke:#646464}.cls-3{stroke-dashoffset:.96px}.cls-10,.cls-11,.cls-12,.cls-13,.cls-17,.cls-3,.cls-4,.cls-5,.cls-8,.cls-9{stroke-dasharray:0 0 1.44 1.44}.cls-4{stroke-dashoffset:2.45822px}.cls-10,.cls-11,.cls-12,.cls-14,.cls-17,.cls-4,.cls-5,.cls-8,.cls-9{stroke:#969696}.cls-18,.cls-19{fill:#fff}.cls-6{stroke:#000;stroke-width:.288px}.cls-7{stroke-dashoffset:1.92px}.cls-8{stroke-dashoffset:2.42954px}.cls-9{stroke-dashoffset:2.66376px}.cls-10{stroke-dashoffset:2.5133px}.cls-11{stroke-dashoffset:1.39943px}.cls-12{stroke-dashoffset:.72px}.cls-19,.cls-20{fill-rule:evenodd}.cls-13{stroke-dashoffset:.24px}.cls-16{stroke-width:.28346px}.cls-17{stroke-dashoffset:1.2px}</style></defs><g id="Plan"><path class="cls-15" d="M186.622 223.511v-11.28"/><path class="cls-6" d="M185.902 223.511v-12"/><path class="cls-15" d="M188.062 223.511v-9.84M186.622 223.511v-11.28M185.902 223.511v-12M188.062 223.511v-9.84"/><path class="cls-6" d="M186.622 223.511h-.72"/><path class="cls-15" d="M188.062 223.511h-1.44M200.542 212.231h3.6M186.622 212.231h13.2"/><path class="cls-6" d="M185.902 211.511h18.24"/><path class="cls-15" d="M201.982 213.671h2.16M188.062 213.671h11.76M200.542 212.231h3.6M186.622 212.231h13.2"/><path class="cls-6" d="M204.142 212.231v-.72"/><path class="cls-15" d="M204.142 213.671v-1.44M185.902 211.511h18.24M201.982 213.671h2.16M188.062 213.671h11.76M200.542 223.511v-11.28"/><path class="cls-6" d="M199.822 223.511v-9.84"/><path class="cls-15" d="M201.982 223.511v-9.84M200.542 223.511v-11.28M199.822 223.511v-9.84M201.982 223.511v-9.84"/><path class="cls-6" d="M200.542 223.511h-.72"/><path class="cls-15" d="M201.982 223.511h-1.44"/><path class="cls-6" d="M199.822 213.671v-1.44"/><path class="cls-14" d="M114.382 334.871h59.04v3.36h-59.04z"/><path class="cls-19" d="M401.422 115.03l-7.2 6.96v2.64h7.2v-9.6"/><path class="cls-14" d="M401.662 117.191l-1.2-1.2M401.662 121.031l-3.12-3.12M400.942 124.631l-4.56-4.56M397.102 124.631l-2.64-2.64M397.582 124.631l4.08-3.84M394.462 123.911l7.2-7.2"/><path class="cls-19" d="M401.422 115.03l-7.2 6.96v2.64h7.2v-9.6"/><path class="cls-14" d="M401.662 117.191l-1.2-1.2M401.662 121.031l-3.12-3.12M400.942 124.631l-4.56-4.56M397.102 124.631l-2.64-2.64M397.582 124.631l4.08-3.84M394.462 123.911l7.2-7.2"/><path class="cls-16" d="M401.422 124.631v-9.6M394.222 124.631v-2.64M394.222 124.631v-2.64M401.422 124.631v-9.6"/><path class="cls-19" d="M394.222 157.03v66.48l7.2 7.2v-73.68h-7.2"/><path class="cls-14" d="M401.662 157.271l-.24-.24M401.662 161.111l-4.32-4.08M401.662 165.191l-7.2-7.2M401.662 169.271l-7.2-7.2M401.662 173.351l-7.2-7.2M401.662 177.191l-7.2-7.2M401.662 181.271l-7.2-7.2M401.662 185.351l-7.2-7.2M401.662 189.191l-7.2-7.2M401.662 193.271l-7.2-7.2M401.662 197.351l-7.2-7.2M401.662 201.191l-7.2-7.2M401.662 205.271l-7.2-7.2M401.662 209.351l-7.2-7.2M401.662 213.431l-7.2-7.2M401.662 217.271l-7.2-7.2M401.662 221.351l-7.2-7.2M401.662 225.431l-7.2-7.2M401.662 229.271l-7.2-7.2M400.702 229.751l.96-.72M398.782 227.831l2.88-2.88M396.622 225.911l5.04-5.04M394.702 223.751l6.96-6.72M394.462 220.151l7.2-7.2M394.462 216.071l7.2-7.2M394.462 212.231l7.2-7.2M394.462 208.151l7.2-7.2M394.462 204.071l7.2-7.2M394.462 199.991l7.2-7.2M394.462 196.151l7.2-7.2M394.462 192.071l7.2-7.2M394.462 187.991l7.2-7.2M394.462 184.151l7.2-7.2M394.462 180.071l7.2-7.2M394.462 175.991l7.2-7.2M394.462 172.151l7.2-7.2M394.462 168.071l7.2-7.2M394.462 163.991l6.96-6.96M394.462 159.911l2.88-2.88"/><path class="cls-19" d="M394.222 157.03v66.48l7.2 7.2v-73.68h-7.2"/><path class="cls-14" d="M401.662 157.271l-.24-.24M401.662 161.111l-4.32-4.08M401.662 165.191l-7.2-7.2M401.662 169.271l-7.2-7.2M401.662 173.351l-7.2-7.2M401.662 177.191l-7.2-7.2M401.662 181.271l-7.2-7.2M401.662 185.351l-7.2-7.2M401.662 189.191l-7.2-7.2M401.662 193.271l-7.2-7.2M401.662 197.351l-7.2-7.2M401.662 201.191l-7.2-7.2M401.662 205.271l-7.2-7.2M401.662 209.351l-7.2-7.2M401.662 213.431l-7.2-7.2M401.662 217.271l-7.2-7.2M401.662 221.351l-7.2-7.2M401.662 225.431l-7.2-7.2M401.662 229.271l-7.2-7.2M400.702 229.751l.96-.72M398.782 227.831l2.88-2.88M396.622 225.911l5.04-5.04M394.702 223.751l6.96-6.72M394.462 220.151l7.2-7.2M394.462 216.071l7.2-7.2M394.462 212.231l7.2-7.2M394.462 208.151l7.2-7.2M394.462 204.071l7.2-7.2M394.462 199.991l7.2-7.2M394.462 196.151l7.2-7.2M394.462 192.071l7.2-7.2M394.462 187.991l7.2-7.2M394.462 184.151l7.2-7.2M394.462 180.071l7.2-7.2M394.462 175.991l7.2-7.2M394.462 172.151l7.2-7.2M394.462 168.071l7.2-7.2M394.462 163.991l6.96-6.96M394.462 159.911l2.88-2.88"/><path class="cls-16" d="M401.422 230.711v-73.68M394.222 223.511v-66.48M394.222 223.511v-66.48M401.422 230.711v-73.68"/><path class="cls-15" d="M400.222 154.391h1.68v2.64h-1.68zM400.222 124.631h1.68v2.64h-1.68zM400.222 127.271h1.68v27.12h-1.68zM400.222 154.391v-27.12"/><path class="cls-1" d="M394.222 154.631v-27.84"/><path class="cls-15" d="M394.222 127.271v-.48"/><path class="cls-19" d="M394.222 157.03v-2.4h6v2.4"/><path class="cls-14" d="M400.462 156.071l-1.44-1.44M397.342 157.031l-2.4-2.4M397.342 157.031l2.4-2.4M394.462 156.071l1.2-1.44"/><path class="cls-19" d="M394.222 124.63v2.16h6v-2.16"/><path class="cls-14" d="M399.262 126.791l-2.16-2.16M395.182 126.791l-.72-.96M399.502 126.791l.96-.72M395.422 126.791l2.16-2.16"/><path class="cls-16" d="M394.222 154.631h6M394.222 126.791h6M394.222 154.631h6M394.222 157.031v-2.4M394.222 126.791h6M394.222 124.631v2.16M401.422 157.031h-1.2M401.422 124.631h-1.2M394.222 157.031v-2.4M394.222 124.631v2.16M400.222 154.631v2.4M400.222 126.791v-2.16"/><path class="cls-15" d="M93.262 165.911h-39.36"/><path class="cls-6" d="M93.262 166.631h-40.08"/><path class="cls-15" d="M93.262 164.471h-37.92M93.262 165.911h-39.36M93.262 166.631h-40.08M93.262 164.471h-37.92"/><path class="cls-6" d="M93.262 165.911v.72"/><path class="cls-15" d="M93.262 164.471v1.44M53.902 162.071h-18.48"/><path class="cls-6" d="M53.182 162.791h-17.04"/><path class="cls-15" d="M55.342 160.631h-21.36M53.902 162.071h-18.48M53.182 162.791h-17.04M55.342 160.631h-21.36M35.422 165.911H7.342"/><path class="cls-6" d="M36.142 166.631h-28.8"/><path class="cls-15" d="M33.982 164.471H7.342M35.422 165.911H7.342"/><path class="cls-6" d="M7.342 165.911v.72"/><path class="cls-15" d="M7.342 164.471v1.44M36.142 166.631h-28.8M33.982 164.471H7.342"/><path class="cls-19" d="M62.385 181.93c1.295.86 2.98.86 4.275 0a7.922 7.922 0 0 0 2.894-6.198l-.254-9.03h-9.556l-.253 9.03a7.921 7.921 0 0 0 2.894 6.199"/><path class="cls-15" d="M62.385 181.93c1.295.86 2.98.86 4.275 0a7.922 7.922 0 0 0 2.894-6.198l-.254-9.03h-9.556l-.253 9.03a7.921 7.921 0 0 0 2.894 6.199"/><path class="cls-19" d="M64.522 171.815a3.829 3.829 0 0 0-3.967 3.79 6.849 6.849 0 0 0 2.5 5.41 2.73 2.73 0 0 0 2.935 0 6.85 6.85 0 0 0 2.5-5.41 3.829 3.829 0 0 0-3.968-3.79"/><path class="cls-15" d="M64.522 171.815a3.829 3.829 0 0 0-3.967 3.79 6.849 6.849 0 0 0 2.5 5.41 2.73 2.73 0 0 0 2.935 0 6.85 6.85 0 0 0 2.5-5.41 3.829 3.829 0 0 0-3.968-3.79"/><path class="cls-19" d="M7.546 167.128v47.99l.032.077.033.08.06.06.06.06.077.03.079.034h20.578l.078-.034.078-.03.06-.06.06-.06.032-.08.033-.077V167.044l-.033-.08-.032-.079-.06-.057-.06-.06-.078-.034-.078-.031H7.887l-.079.031-.078.034-.06.06-.06.057-.032.08-.032.079v.084"/><path class="cls-15" d="M7.546 167.128v47.99l.032.077.033.08.06.06.06.06.077.03.079.034h20.578l.078-.034.078-.03.06-.06.06-.06.032-.08.033-.077V167.044l-.033-.08-.032-.079-.06-.057-.06-.06-.078-.034-.078-.031H7.887l-.079.031-.078.034-.06.06-.06.057-.032.08-.032.079v.084"/><path class="cls-19" d="M9.674 172.372v37.416a3.398 3.398 0 0 0 2.1 3.144c.412.17.855.259 1.301.259h10.201a3.413 3.413 0 0 0 2.406-.996 3.411 3.411 0 0 0 .996-2.407v-37.416a3.407 3.407 0 0 0-.996-2.405 3.423 3.423 0 0 0-1.104-.74 3.41 3.41 0 0 0-1.302-.256h-10.2a3.41 3.41 0 0 0-1.302.257 3.423 3.423 0 0 0-1.841 1.84 3.407 3.407 0 0 0-.26 1.304"/><path class="cls-15" d="M9.674 172.372v37.416a3.398 3.398 0 0 0 2.1 3.144c.412.17.855.259 1.301.259h10.201a3.413 3.413 0 0 0 2.406-.996 3.411 3.411 0 0 0 .996-2.407v-37.416a3.407 3.407 0 0 0-.996-2.405 3.423 3.423 0 0 0-1.104-.74 3.41 3.41 0 0 0-1.302-.256h-10.2a3.41 3.41 0 0 0-1.302.257 3.423 3.423 0 0 0-1.841 1.84 3.407 3.407 0 0 0-.26 1.304"/><path class="cls-19" d="M36.898 166.703v12.045a1.172 1.172 0 0 0 .086.435 1.138 1.138 0 0 0 .826.68c.073.013.148.02.222.02h13.323a1.143 1.143 0 0 0 .63-.191 1.11 1.11 0 0 0 .418-.509 1.108 1.108 0 0 0 .086-.435v-12.045H36.898"/><path class="cls-15" d="M36.898 166.703v12.045a1.172 1.172 0 0 0 .086.435 1.138 1.138 0 0 0 .826.68c.073.013.148.02.222.02h13.323a1.143 1.143 0 0 0 .63-.191 1.11 1.11 0 0 0 .418-.509 1.108 1.108 0 0 0 .086-.435v-12.045H36.898"/><path class="cls-13" d="M53.182 166.631v-3.84"/><path class="cls-3" d="M53.182 162.791h-17.04"/><path class="cls-13" d="M36.142 162.791v3.84"/><path class="cls-15" d="M35.422 162.071v3.84"/><path class="cls-6" d="M36.142 162.791v3.84"/><path class="cls-15" d="M33.982 160.631v3.84M35.422 162.071v3.84M36.142 162.791v3.84M33.982 160.631v3.84M53.902 165.911v-3.84"/><path class="cls-6" d="M53.182 166.631v-3.84"/><path class="cls-15" d="M55.342 164.471v-3.84M53.902 165.911v-3.84M53.182 166.631v-3.84M55.342 164.471v-3.84"/><path class="cls-6" d="M53.182 166.631h-17.04"/><path class="cls-20" d="M175.342 16.63V1.99h35.76v14.64h-35.76"/><path class="cls-19" d="M175.342 1.99v3.36h35.76V1.99h-35.76"/><path class="cls-14" d="M175.582 3.191l1.92 2.16M178.222 1.991l3.36 3.36M182.302 1.991l3.36 3.36M186.142 1.991l3.36 3.36M190.222 1.991l3.36 3.36M194.302 1.991l3.36 3.36M198.142 1.991l3.36 3.36M202.222 1.991l3.36 3.36M206.302 1.991l3.36 3.36M210.142 1.991l1.2.96"/><path class="cls-19" d="M175.342 5.35v.72h35.76v-.72h-35.76M175.342 6.07v5.52h35.76V6.07h-35.76"/><path class="cls-14" d="M209.902 11.591v-5.52M208.462 11.591v-5.52M207.022 11.591v-5.52M205.582 11.591v-5.52M204.142 11.591v-5.52M202.942 11.591v-5.52M201.502 11.591v-5.52M200.062 11.591v-5.52M198.622 11.591v-5.52M197.182 11.591v-5.52M195.742 11.591v-5.52M194.302 11.591v-5.52M192.862 11.591v-5.52M191.422 11.591v-5.52M189.982 11.591v-5.52M188.782 11.591v-5.52M187.342 11.591v-5.52M185.902 11.591v-5.52M184.462 11.591v-5.52M183.022 11.591v-5.52M181.582 11.591v-5.52M180.142 11.591v-5.52M178.702 11.591v-5.52M177.262 11.591v-5.52M175.822 11.591v-5.52"/><path class="cls-19" d="M175.342 11.59v5.04h35.76v-5.04h-35.76"/><path class="cls-14" d="M175.582 15.191l1.2 1.44M175.822 11.591l5.04 5.04M179.662 11.591l5.04 5.04M183.742 11.591l5.04 5.04M187.822 11.591l5.04 5.04M191.902 11.591l5.04 5.04M195.742 11.591l5.04 5.04M199.822 11.591l5.04 5.04M203.902 11.591l5.04 5.04M207.742 11.591l3.6 3.36"/><path class="cls-16" d="M175.342 5.351h35.76M175.342 1.991h35.76"/><path class="cls-14" d="M175.342 11.591h35.76M175.342 6.071h35.76"/><path class="cls-16" d="M175.342 16.631h35.76M175.342 11.591h35.76"/><path class="cls-15" d="M175.342 1.991h35.76M175.342 16.631h35.76"/><path class="cls-20" d="M68.542 16.63V1.99h43.92v14.64h-43.92"/><path class="cls-19" d="M68.542 1.99v3.36h43.92V1.99h-43.92"/><path class="cls-14" d="M68.782 4.631l.48.72M69.982 1.991l3.36 3.36M74.062 1.991l3.36 3.36M77.902 1.991l3.36 3.36M81.982 1.991l3.36 3.36M86.062 1.991l3.36 3.36M89.902 1.991l3.36 3.36M93.982 1.991l3.36 3.36M98.062 1.991l3.36 3.36M101.902 1.991l3.36 3.36M105.982 1.991l3.36 3.36M110.062 1.991l2.64 2.64"/><path class="cls-19" d="M68.542 5.35v.72h43.92v-.72h-43.92M68.542 6.07v5.52h43.92V6.07h-43.92"/><path class="cls-14" d="M112.222 11.591v-5.52M110.782 11.591v-5.52M109.342 11.591v-5.52M107.902 11.591v-5.52M106.462 11.591v-5.52M105.022 11.591v-5.52M103.582 11.591v-5.52M102.142 11.591v-5.52M100.702 11.591v-5.52M99.262 11.591v-5.52M98.062 11.591v-5.52M96.622 11.591v-5.52M95.182 11.591v-5.52M93.742 11.591v-5.52M92.302 11.591v-5.52M90.862 11.591v-5.52M89.422 11.591v-5.52M87.982 11.591v-5.52M86.542 11.591v-5.52M85.102 11.591v-5.52M83.902 11.591v-5.52M82.462 11.591v-5.52M81.022 11.591v-5.52M79.582 11.591v-5.52M78.142 11.591v-5.52M76.702 11.591v-5.52M75.262 11.591v-5.52M73.822 11.591v-5.52M72.382 11.591v-5.52M70.942 11.591v-5.52M69.502 11.591v-5.52"/><path class="cls-19" d="M68.542 11.59v5.04h43.92v-5.04h-43.92"/><path class="cls-14" d="M68.782 12.791l3.84 3.84M71.422 11.591l5.04 5.04M75.502 11.591l5.04 5.04M79.582 11.591l5.04 5.04M83.662 11.591l5.04 5.04M87.502 11.591l5.04 5.04M91.582 11.591l5.04 5.04M95.662 11.591l5.04 5.04M99.502 11.591l5.04 5.04M103.582 11.591l5.04 5.04M107.662 11.591l5.04 5.04M111.502 11.591l1.2.96"/><path class="cls-16" d="M68.542 5.351h43.92M68.542 1.991h43.92"/><path class="cls-14" d="M68.542 11.591h43.92M68.542 6.071h43.92"/><path class="cls-16" d="M68.542 16.631h43.92M68.542 11.591h43.92"/><path class="cls-15" d="M68.542 1.991h43.92M68.542 16.631h43.92"/><path class="cls-20" d="M.142 16.63V1.99h27.6v14.64H.142"/><path class="cls-19" d="M.142 1.99v3.36h27.6V1.99H.142"/><path class="cls-14" d="M.382 4.391l.72.96M1.822 1.991l3.36 3.36M5.902 1.991l3.36 3.36M9.742 1.991l3.36 3.36M13.822 1.991l3.36 3.36M17.902 1.991l3.36 3.36M21.742 1.991l3.36 3.36M25.822 1.991l2.16 1.92"/><path class="cls-19" d="M.142 5.35v.72h27.6v-.72H.142M.142 6.07v5.52h27.6V6.07H.142"/><path class="cls-14" d="M27.022 11.591v-5.52M25.582 11.591v-5.52M24.142 11.591v-5.52M22.942 11.591v-5.52M21.502 11.591v-5.52M20.062 11.591v-5.52M18.622 11.591v-5.52M17.182 11.591v-5.52M15.742 11.591v-5.52M14.302 11.591v-5.52M12.862 11.591v-5.52M11.422 11.591v-5.52M9.982 11.591v-5.52M8.782 11.591v-5.52M7.342 11.591v-5.52M5.902 11.591v-5.52M4.462 11.591v-5.52M3.022 11.591v-5.52M1.582 11.591v-5.52"/><path class="cls-19" d="M.142 11.59v5.04h27.6v-5.04H.142"/><path class="cls-14" d="M.382 16.391v.24M.382 12.551l4.08 4.08M3.262 11.591l5.04 5.04M7.342 11.591l5.04 5.04M11.422 11.591l5.04 5.04M15.502 11.591l5.04 5.04M19.342 11.591l5.04 5.04M23.422 11.591l4.56 4.32M27.502 11.591l.48.48"/><path class="cls-16" d="M.142 5.351h27.6M.142 1.991h27.6"/><path class="cls-14" d="M.142 11.591h27.6M.142 6.071h27.6"/><path class="cls-16" d="M.142 16.631h27.6M.142 11.591h27.6"/><path class="cls-15" d="M.142 1.991h27.6M.142 16.631h27.6M114.382 9.43V1.99h-3.6V.07h66.24v1.92h-3.6v7.44"/><path class="cls-1" d="M112.462 16.631h62.88"/><path class="cls-16" d="M114.382 1.991h-3.6M173.422 1.991h3.6"/><path class="cls-15" d="M112.462 9.431h62.88v2.16h-62.88zM116.062 9.431v2.16M171.742 9.431v2.16M112.462 11.591v-2.16M131.422 11.591v-2.16M116.062 11.591v-2.16M135.502 11.591v-2.16M131.422 11.591v-2.16M152.302 11.591v-2.16M135.502 11.591v-2.16M156.382 11.591v-2.16M152.302 11.591v-2.16M171.742 11.591v-2.16M156.382 11.591v-2.16M175.342 11.591v-2.16"/><path class="cls-19" d="M112.428 5.978h1.843v3.401h-1.843"/><path class="cls-14" d="M113.662 9.431v-3.36M112.428 5.978h1.843v3.401h-1.843"/><path class="cls-16" d="M112.462 11.591v5.04"/><path class="cls-19" d="M112.462 1.99h1.92v3.36h-1.92"/><path class="cls-14" d="M112.702 4.631l.72.72M114.142 1.991l.48.48"/><path class="cls-16" d="M112.462 1.99h1.92v3.36h-1.92M114.382 5.351v4.08"/><path class="cls-19" d="M175.356 5.978h-1.84v3.401h1.84"/><path class="cls-14" d="M174.382 9.431v-3.36M175.356 5.978h-1.84v3.401h1.84"/><path class="cls-16" d="M175.342 11.591v5.04"/><path class="cls-19" d="M175.342 1.99h-1.92v3.36h1.92"/><path class="cls-14" d="M174.142 1.991l1.44 1.2"/><path class="cls-16" d="M175.342 1.99h-1.92v3.36h1.92M173.422 5.351v4.08"/><path class="cls-15" d="M29.422 9.43V1.99h-3.36V.07h43.92v1.92h-3.36v7.44"/><path class="cls-1" d="M27.742 16.631h40.8"/><path class="cls-15" d="M68.062 16.631h.48"/><path class="cls-16" d="M29.422 1.991h-3.36M66.622 1.991h3.36"/><path class="cls-15" d="M27.742 9.431h40.8v2.16h-40.8zM31.342 9.431v2.16M64.702 9.431v2.16M27.742 11.591v-2.16M45.982 11.591v-2.16M31.342 11.591v-2.16M50.062 11.591v-2.16M45.982 11.591v-2.16M64.702 11.591v-2.16M50.062 11.591v-2.16M68.542 11.591v-2.16"/><path class="cls-19" d="M27.672 5.978h1.842v3.401h-1.842"/><path class="cls-14" d="M28.462 9.431v-3.36M27.672 5.978h1.842v3.401h-1.842"/><path class="cls-16" d="M27.742 11.591v5.04"/><path class="cls-19" d="M27.742 1.99h1.68v3.36h-1.68"/><path class="cls-14" d="M27.982 3.911l1.2 1.44"/><path class="cls-16" d="M27.742 1.99h1.68v3.36h-1.68M29.422 5.351v4.08"/><path class="cls-19" d="M68.49 5.978h-1.842v3.401h1.843"/><path class="cls-14" d="M68.302 9.431v-3.36M66.862 9.431v-3.36M68.49 5.978h-1.842v3.401h1.843"/><path class="cls-16" d="M68.542 11.591v5.04"/><path class="cls-19" d="M68.542 1.99h-1.92v3.36h1.92"/><path class="cls-14" d="M66.862 2.711l1.92 1.92"/><path class="cls-16" d="M68.542 1.99h-1.92v3.36h1.92M66.622 5.351v4.08"/><path class="cls-20" d="M23.902 327.43v14.64H.142v-14.64h23.76"/><path class="cls-19" d="M23.902 342.07v-3.36H.142v3.36h23.76"/><path class="cls-14" d="M.382 341.111l.72.96M1.822 338.711l3.36 3.36M5.902 338.711l3.36 3.36M9.742 338.711l3.36 3.36M13.822 338.711l3.36 3.36M17.902 338.711l3.36 3.36M21.742 338.711l2.4 2.16"/><path class="cls-19" d="M23.902 338.71v-.48H.142v.48h23.76"/><path class="cls-19" d="M23.902 338.23v-5.76H.142v5.76h23.76"/><path class="cls-14" d="M1.582 332.471v5.76M3.022 332.471v5.76M4.462 332.471v5.76M5.902 332.471v5.76M7.342 332.471v5.76M8.782 332.471v5.76M9.982 332.471v5.76M11.422 332.471v5.76M12.862 332.471v5.76M14.302 332.471v5.76M15.742 332.471v5.76M17.182 332.471v5.76M18.622 332.471v5.76M20.062 332.471v5.76M21.502 332.471v5.76M22.942 332.471v5.76"/><path class="cls-19" d="M23.902 332.47v-5.04H.142v5.04h23.76"/><path class="cls-14" d="M.382 329.111l3.12 3.36M2.542 327.431l5.04 5.04M6.622 327.431l5.04 5.04M10.462 327.431l5.04 5.04M14.542 327.431l5.04 5.04M18.622 327.431l5.04 5.04M22.462 327.431l1.68 1.44"/><path class="cls-16" d="M23.902 338.711H.142M23.902 342.071H.142"/><path class="cls-14" d="M23.902 332.471H.142M23.902 338.231H.142"/><path class="cls-16" d="M23.902 327.431H.142M23.902 332.471H.142"/><path class="cls-15" d="M23.902 342.071H.142M23.902 327.431H.142"/><path class="cls-20" d="M112.462 327.43v14.64h-47.76v-14.64h47.76"/><path class="cls-19" d="M112.462 342.07v-3.36h-47.76v3.36h47.76"/><path class="cls-14" d="M64.942 341.591l.24.48M65.902 338.711l3.36 3.36M69.982 338.711l3.36 3.36M73.822 338.711l3.36 3.36M77.902 338.711l3.36 3.36M81.982 338.711l3.36 3.36M86.062 338.711l3.36 3.36M89.902 338.711l3.36 3.36M93.982 338.711l3.36 3.36M98.062 338.711l3.36 3.36M101.902 338.711l3.36 3.36M105.982 338.711l3.36 3.36M110.062 338.711l2.64 2.64"/><path class="cls-19" d="M112.462 338.71v-.48h-47.76v.48h47.76"/><path class="cls-19" d="M112.462 338.23v-5.76h-47.76v5.76h47.76"/><path class="cls-14" d="M65.422 332.471v5.76M66.862 332.471v5.76M68.302 332.471v5.76M69.502 332.471v5.76M70.942 332.471v5.76M72.382 332.471v5.76M73.822 332.471v5.76M75.262 332.471v5.76M76.702 332.471v5.76M78.142 332.471v5.76M79.582 332.471v5.76M81.022 332.471v5.76M82.462 332.471v5.76M83.902 332.471v5.76M85.102 332.471v5.76M86.542 332.471v5.76M87.982 332.471v5.76M89.422 332.471v5.76M90.862 332.471v5.76M92.302 332.471v5.76M93.742 332.471v5.76M95.182 332.471v5.76M96.622 332.471v5.76M98.062 332.471v5.76M99.262 332.471v5.76M100.702 332.471v5.76M102.142 332.471v5.76M103.582 332.471v5.76M105.022 332.471v5.76M106.462 332.471v5.76M107.902 332.471v5.76M109.342 332.471v5.76M110.782 332.471v5.76M112.222 332.471v5.76"/><path class="cls-19" d="M112.462 332.47v-5.04h-47.76v5.04h47.76"/><path class="cls-14" d="M64.942 329.591l2.64 2.88M66.622 327.431l5.04 5.04M70.702 327.431l5.04 5.04M74.782 327.431l5.04 5.04M78.622 327.431l5.04 5.04M82.702 327.431l5.04 5.04M86.782 327.431l5.04 5.04M90.622 327.431l5.04 5.04M94.702 327.431l5.04 5.04M98.782 327.431l5.04 5.04M102.862 327.431l5.04 5.04M106.702 327.431l5.04 5.04M110.782 327.431l1.92 1.92"/><path class="cls-16" d="M112.462 338.711h-47.76M112.462 342.071h-47.76"/><path class="cls-14" d="M112.462 332.471h-47.76M112.462 338.231h-47.76"/><path class="cls-16" d="M112.462 327.431h-47.76M112.462 332.471h-47.76"/><path class="cls-15" d="M112.462 342.071h-47.76M112.462 327.431h-47.76"/><path class="cls-20" d="M193.102 327.43v14.64h-17.76v-14.64h17.76"/><path class="cls-19" d="M193.102 342.07v-3.36h-17.76v3.36h17.76"/><path class="cls-14" d="M175.582 339.911l1.92 2.16M178.222 338.711l3.36 3.36M182.062 338.711l3.36 3.36M186.142 338.711l3.36 3.36M190.222 338.711l3.12 3.12"/><path class="cls-19" d="M193.102 338.71v-.48h-17.76v.48h17.76"/><path class="cls-19" d="M193.102 338.23v-5.76h-17.76v5.76h17.76"/><path class="cls-14" d="M175.822 332.471v5.76M177.262 332.471v5.76M178.702 332.471v5.76M180.142 332.471v5.76M181.582 332.471v5.76M183.022 332.471v5.76M184.462 332.471v5.76M185.902 332.471v5.76M187.342 332.471v5.76M188.782 332.471v5.76M189.982 332.471v5.76M191.422 332.471v5.76M192.862 332.471v5.76"/><path class="cls-19" d="M193.102 332.47v-5.04h-17.76v5.04h17.76"/><path class="cls-14" d="M175.582 331.991l.24.48M175.582 327.911l4.32 4.56M178.942 327.431l5.04 5.04M183.022 327.431l5.04 5.04M186.862 327.431l5.04 5.04M190.942 327.431l2.4 2.4"/><path class="cls-16" d="M193.102 338.711h-17.76M193.102 342.071h-17.76"/><path class="cls-14" d="M193.102 332.471h-17.76M193.102 338.231h-17.76"/><path class="cls-16" d="M193.102 327.431h-17.76M193.102 332.471h-17.76"/><path class="cls-15" d="M193.102 342.071h-17.76M193.102 327.431h-17.76M63.022 334.87v7.2h3.36v1.92h-43.92v-1.92h3.36v-7.2"/><path class="cls-1" d="M64.702 327.431h-40.8"/><path class="cls-15" d="M24.382 327.431h-.48"/><path class="cls-16" d="M63.022 342.071h3.36M25.822 342.071h-3.36"/><path class="cls-15" d="M23.902 332.471h40.8v2.4h-40.8zM61.102 334.871v-2.4M27.742 334.871v-2.4M64.702 332.471v2.4M46.462 332.471v2.4M61.102 332.471v2.4M42.382 332.471v2.4M46.462 332.471v2.4M27.742 332.471v2.4M42.382 332.471v2.4M23.902 332.471v2.4"/><path class="cls-19" d="M64.806 338.197h-1.843v-3.4h1.843"/><path class="cls-14" d="M63.982 334.871v3.36M64.806 338.197h-1.843v-3.4h1.843"/><path class="cls-16" d="M64.702 332.471v-5.04"/><path class="cls-19" d="M64.702 342.07h-1.68v-3.36h1.68"/><path class="cls-14" d="M63.262 339.911l1.68 1.68"/><path class="cls-16" d="M64.702 342.07h-1.68v-3.36h1.68M63.022 338.711v-3.84"/><path class="cls-19" d="M23.987 338.197h1.842v-3.4h-1.842"/><path class="cls-14" d="M24.142 334.871v3.36M25.582 334.871v3.36M23.987 338.197h1.842v-3.4h-1.842"/><path class="cls-16" d="M23.902 332.471v-5.04"/><path class="cls-19" d="M23.902 342.07h1.92v-3.36h-1.92"/><path class="cls-14" d="M24.142 340.871l.96 1.2M25.822 338.711h.24"/><path class="cls-16" d="M23.902 342.07h1.92v-3.36h-1.92M25.822 338.711v-3.84"/><path class="cls-1" d="M175.342 327.431h-62.88"/><path class="cls-15" d="M112.462 332.471h62.88v2.4h-62.88zM171.742 334.871v-2.4M116.062 334.871v-2.4M175.342 332.471v2.4M156.382 332.471v2.4M171.742 332.471v2.4M152.302 332.471v2.4M156.382 332.471v2.4M135.502 332.471v2.4M152.302 332.471v2.4M131.422 332.471v2.4M135.502 332.471v2.4M116.062 332.471v2.4M131.422 332.471v2.4M112.462 332.471v2.4"/><path class="cls-16" d="M175.342 332.471v-5.04"/><path class="cls-15" d="M110.782 342.071v1.92"/><path class="cls-7" d="M110.782 343.991h66.24"/><path class="cls-15" d="M177.022 343.991v-.72"/><path class="cls-19" d="M175.356 338.197h-1.84v-3.4h1.84"/><path class="cls-14" d="M174.382 334.871v3.36M175.356 338.197h-1.84v-3.4h1.84"/><path class="cls-19" d="M175.342 342.07h-1.92v-3.36h1.92"/><path class="cls-14" d="M174.142 338.711l1.44 1.2"/><path class="cls-16" d="M175.342 342.07h-1.92v-3.36h1.92M173.422 338.711v-3.84"/><path class="cls-19" d="M112.428 338.197h1.843v-3.4h-1.843"/><path class="cls-14" d="M113.662 334.871v3.36M112.428 338.197h1.843v-3.4h-1.843"/><path class="cls-16" d="M112.462 332.471v-5.04"/><path class="cls-19" d="M112.462 342.07h1.92v-3.36h-1.92"/><path class="cls-14" d="M112.702 341.351l.72.72M114.142 338.711l.48.48"/><path class="cls-16" d="M112.462 342.07h1.92v-3.36h-1.92M114.382 338.711v-3.84"/><path class="cls-19" d="M262.222 223.51v7.2h139.2l-7.2-7.2h-132"/><path class="cls-14" d="M398.782 230.711l-7.2-7.2M394.942 230.711l-7.2-7.2M390.862 230.711l-7.2-7.2M386.782 230.711l-7.2-7.2M382.942 230.711l-7.2-7.2M378.862 230.711l-7.2-7.2M374.782 230.711l-7.2-7.2M370.942 230.711l-7.2-7.2M366.862 230.711l-7.2-7.2M362.782 230.711l-7.2-7.2M358.702 230.711l-7.2-7.2M354.862 230.711l-7.2-7.2M350.782 230.711l-7.2-7.2M346.702 230.711l-7.2-7.2M342.862 230.711l-7.2-7.2M338.782 230.711l-7.2-7.2M334.702 230.711l-7.2-7.2M330.622 230.711l-7.2-7.2M326.782 230.711l-7.2-7.2M322.702 230.711l-7.2-7.2M318.622 230.711l-7.2-7.2M314.782 230.711l-7.2-7.2M310.702 230.711l-7.2-7.2M306.622 230.711l-7.2-7.2M302.782 230.711l-7.2-7.2M298.702 230.711l-7.2-7.2M294.622 230.711l-7.2-7.2M290.542 230.711l-7.2-7.2M286.702 230.711l-7.2-7.2M282.622 230.711l-7.2-7.2M278.542 230.711l-7.2-7.2M274.702 230.711l-7.2-7.2M270.622 230.711l-7.2-7.2M266.542 230.711l-4.08-4.32M262.702 230.711l-.24-.24M399.742 230.711l.96-.96M395.902 230.711l2.88-2.88M391.822 230.711l4.8-4.8M387.742 230.711l6.96-6.96M383.902 230.711l7.2-7.2M379.822 230.711l7.2-7.2M375.742 230.711l7.2-7.2M371.662 230.711l7.2-7.2M367.822 230.711l7.2-7.2M363.742 230.711l7.2-7.2M359.662 230.711l7.2-7.2M355.822 230.711l7.2-7.2M351.742 230.711l7.2-7.2M347.662 230.711l7.2-7.2M343.582 230.711l7.2-7.2M339.742 230.711l7.2-7.2M335.662 230.711l7.2-7.2M331.582 230.711l7.2-7.2M327.742 230.711l7.2-7.2M323.662 230.711l7.2-7.2M319.582 230.711l7.2-7.2M315.742 230.711l7.2-7.2M311.662 230.711l7.2-7.2M307.582 230.711l7.2-7.2M303.502 230.711l7.2-7.2M299.662 230.711l7.2-7.2M295.582 230.711l7.2-7.2M291.502 230.711l7.2-7.2M287.662 230.711l7.2-7.2M283.582 230.711l7.2-7.2M279.502 230.711l7.2-7.2M275.662 230.711l7.2-7.2M271.582 230.711l7.2-7.2M267.502 230.711l7.2-7.2M263.422 230.711l7.2-7.2M262.462 227.831l4.32-4.32M262.462 223.751l.24-.24"/><path class="cls-19" d="M262.222 223.51v7.2h139.2l-7.2-7.2h-132"/><path class="cls-14" d="M398.782 230.711l-7.2-7.2M394.942 230.711l-7.2-7.2M390.862 230.711l-7.2-7.2M386.782 230.711l-7.2-7.2M382.942 230.711l-7.2-7.2M378.862 230.711l-7.2-7.2M374.782 230.711l-7.2-7.2M370.942 230.711l-7.2-7.2M366.862 230.711l-7.2-7.2M362.782 230.711l-7.2-7.2M358.702 230.711l-7.2-7.2M354.862 230.711l-7.2-7.2M350.782 230.711l-7.2-7.2M346.702 230.711l-7.2-7.2M342.862 230.711l-7.2-7.2M338.782 230.711l-7.2-7.2M334.702 230.711l-7.2-7.2M330.622 230.711l-7.2-7.2M326.782 230.711l-7.2-7.2M322.702 230.711l-7.2-7.2M318.622 230.711l-7.2-7.2M314.782 230.711l-7.2-7.2M310.702 230.711l-7.2-7.2M306.622 230.711l-7.2-7.2M302.782 230.711l-7.2-7.2M298.702 230.711l-7.2-7.2M294.622 230.711l-7.2-7.2M290.542 230.711l-7.2-7.2M286.702 230.711l-7.2-7.2M282.622 230.711l-7.2-7.2M278.542 230.711l-7.2-7.2M274.702 230.711l-7.2-7.2M270.622 230.711l-7.2-7.2M266.542 230.711l-4.08-4.32M262.702 230.711l-.24-.24M399.742 230.711l.96-.96M395.902 230.711l2.88-2.88M391.822 230.711l4.8-4.8M387.742 230.711l6.96-6.96M383.902 230.711l7.2-7.2M379.822 230.711l7.2-7.2M375.742 230.711l7.2-7.2M371.662 230.711l7.2-7.2M367.822 230.711l7.2-7.2M363.742 230.711l7.2-7.2M359.662 230.711l7.2-7.2M355.822 230.711l7.2-7.2M351.742 230.711l7.2-7.2M347.662 230.711l7.2-7.2M343.582 230.711l7.2-7.2M339.742 230.711l7.2-7.2M335.662 230.711l7.2-7.2M331.582 230.711l7.2-7.2M327.742 230.711l7.2-7.2M323.662 230.711l7.2-7.2M319.582 230.711l7.2-7.2M315.742 230.711l7.2-7.2M311.662 230.711l7.2-7.2M307.582 230.711l7.2-7.2M303.502 230.711l7.2-7.2M299.662 230.711l7.2-7.2M295.582 230.711l7.2-7.2M291.502 230.711l7.2-7.2M287.662 230.711l7.2-7.2M283.582 230.711l7.2-7.2M279.502 230.711l7.2-7.2M275.662 230.711l7.2-7.2M271.582 230.711l7.2-7.2M267.502 230.711l7.2-7.2M263.422 230.711l7.2-7.2M262.462 227.831l4.32-4.32M262.462 223.751l.24-.24"/><path class="cls-16" d="M394.222 223.511h-132M401.422 230.711h-139.2M401.422 230.711h-139.2M394.222 223.511h-132"/><path class="cls-19" d="M186.142 223.51l6.96 7.2h11.04v-7.2h-18"/><path class="cls-14" d="M204.382 224.471l-1.2-.96M204.382 228.551l-5.04-5.04M202.462 230.711l-7.2-7.2M198.382 230.711l-7.2-7.2M194.542 230.711l-7.2-7.2M203.422 230.711l.96-.96M199.342 230.711l5.04-4.8M195.262 230.711l7.2-7.2M192.382 229.751l6.24-6.24M190.222 227.831l4.32-4.32M188.302 225.671l2.16-2.16M186.382 223.751l.24-.24"/><path class="cls-19" d="M186.142 223.51l6.96 7.2h11.04v-7.2h-18"/><path class="cls-14" d="M204.382 224.471l-1.2-.96M204.382 228.551l-5.04-5.04M202.462 230.711l-7.2-7.2M198.382 230.711l-7.2-7.2M194.542 230.711l-7.2-7.2M203.422 230.711l.96-.96M199.342 230.711l5.04-4.8M195.262 230.711l7.2-7.2M192.382 229.751l6.24-6.24M190.222 227.831l4.32-4.32M188.302 225.671l2.16-2.16M186.382 223.751l.24-.24"/><path class="cls-16" d="M204.142 223.511h-18M204.142 230.711h-11.04M204.142 230.711h-11.04M204.142 223.511h-18"/><path class="cls-19" d="M256.462 220.63l5.76 10.08v-74.88l-5.76 10.08v54.72"/><path class="cls-14" d="M262.462 158.231l-.96-.72M262.462 162.311l-2.4-2.4M262.462 166.391l-3.84-3.84M262.462 170.231l-5.28-5.28M262.462 174.311l-5.76-5.76M262.462 178.391l-5.76-5.76M262.462 182.471l-5.76-5.76M262.462 186.311l-5.76-5.76M262.462 190.391l-5.76-5.76M262.462 194.471l-5.76-5.76M262.462 198.311l-5.76-5.76M262.462 202.391l-5.76-5.76M262.462 206.471l-5.76-5.76M262.462 210.311l-5.76-5.76M262.462 214.391l-5.76-5.76M262.462 218.471l-5.76-5.76M262.462 222.551l-5.76-5.76M262.462 226.391l-5.76-5.52M262.462 230.471l-.48-.24M261.262 228.791l1.2-.96M259.822 226.391l2.64-2.64M258.382 223.751l4.08-3.84M256.942 221.351l5.52-5.52M256.702 217.511l5.76-5.76M256.702 213.671l5.76-5.76M256.702 209.591l5.76-5.76M256.702 205.511l5.76-5.76M256.702 201.671l5.76-5.76M256.702 197.591l5.76-5.76M256.702 193.511l5.76-5.76M256.702 189.431l5.76-5.76M256.702 185.591l5.76-5.76M256.702 181.511l5.76-5.76M256.702 177.431l5.76-5.76M256.702 173.591l5.76-5.76M256.702 169.511l5.76-5.76M257.182 164.951l5.28-5.28"/><path class="cls-19" d="M256.462 220.63l5.76 10.08v-74.88l-5.76 10.08v54.72"/><path class="cls-14" d="M262.462 158.231l-.96-.72M262.462 162.311l-2.4-2.4M262.462 166.391l-3.84-3.84M262.462 170.231l-5.28-5.28M262.462 174.311l-5.76-5.76M262.462 178.391l-5.76-5.76M262.462 182.471l-5.76-5.76M262.462 186.311l-5.76-5.76M262.462 190.391l-5.76-5.76M262.462 194.471l-5.76-5.76M262.462 198.311l-5.76-5.76M262.462 202.391l-5.76-5.76M262.462 206.471l-5.76-5.76M262.462 210.311l-5.76-5.76M262.462 214.391l-5.76-5.76M262.462 218.471l-5.76-5.76M262.462 222.551l-5.76-5.76M262.462 226.391l-5.76-5.52M262.462 230.471l-.48-.24M261.262 228.791l1.2-.96M259.822 226.391l2.64-2.64M258.382 223.751l4.08-3.84M256.942 221.351l5.52-5.52M256.702 217.511l5.76-5.76M256.702 213.671l5.76-5.76M256.702 209.591l5.76-5.76M256.702 205.511l5.76-5.76M256.702 201.671l5.76-5.76M256.702 197.591l5.76-5.76M256.702 193.511l5.76-5.76M256.702 189.431l5.76-5.76M256.702 185.591l5.76-5.76M256.702 181.511l5.76-5.76M256.702 177.431l5.76-5.76M256.702 173.591l5.76-5.76M256.702 169.511l5.76-5.76M257.182 164.951l5.28-5.28"/><path class="cls-16" d="M256.462 165.911v54.72M262.222 155.831v67.68M262.222 155.831v67.68M256.462 165.911v54.72M213.982 173.591h29.76v39.6h-29.76z"/><path class="cls-15" d="M212.302 164.471h35.52M230.542 167.591h-13.92M243.262 170.471h-13.92M394.222 184.391h-33.84M394.222 176.711h-33.84M394.222 169.031h-33.84M394.222 161.351h-33.84M262.222 161.351h34.08M262.222 169.031h34.08M262.222 176.711h34.08M262.222 184.391h34.08M335.902 223.511l7.92-35.52M296.302 156.071h64.08v33.36h-64.08zM279.262 161.35l-3.84 3.84h7.68l-3.84-3.84zM355.102 189.431v34.08M347.422 189.431v34.08M339.742 189.431v34.08M332.062 189.431v34.08M324.382 189.431v34.08M316.702 189.431v34.08M309.262 189.431v34.08M301.582 189.431v34.08"/><path class="cls-15" d="M297.742 157.511h61.2v30.48h-61.2zM301.582 206.47l3.84 3.84v-7.68l-3.84 3.84zM339.742 206.47l3.84 3.84v-7.68l-3.84 3.84zM377.422 184.39l3.84-3.84h-7.68l3.84 3.84z"/><path class="cls-19" d="M211.102 115.03v6.96h144.96v-6.96h-144.96"/><path class="cls-14" d="M356.302 115.751l-.96-.72M356.302 119.831l-5.04-4.8M354.382 121.991l-6.96-6.96M350.302 121.991l-6.96-6.96M346.222 121.991l-6.96-6.96M342.382 121.991l-6.96-6.96M338.302 121.991l-6.96-6.96M334.222 121.991l-6.96-6.96M330.142 121.991l-6.96-6.96M326.302 121.991l-6.96-6.96M322.222 121.991l-6.96-6.96M318.142 121.991l-6.96-6.96M314.302 121.991l-6.96-6.96M310.222 121.991l-6.96-6.96M306.142 121.991l-6.96-6.96M302.302 121.991l-6.96-6.96M298.222 121.991l-6.96-6.96M294.142 121.991l-6.96-6.96M290.062 121.991l-6.96-6.96M286.222 121.991l-6.96-6.96M282.142 121.991l-6.96-6.96M278.062 121.991l-6.96-6.96M274.222 121.991l-6.96-6.96M270.142 121.991l-6.96-6.96M266.062 121.991l-6.96-6.96M262.222 121.991l-6.96-6.96M258.142 121.991l-6.96-6.96M254.062 121.991l-6.96-6.96M249.982 121.991l-6.96-6.96M246.142 121.991l-6.96-6.96M242.062 121.991l-6.96-6.96M237.982 121.991l-6.96-6.96M234.142 121.991l-6.96-6.96M230.062 121.991l-6.96-6.96M225.982 121.991l-6.96-6.96M221.902 121.991l-6.96-6.96M218.062 121.991l-6.72-6.72M213.982 121.991l-2.64-2.88M352.222 121.991l4.08-4.08M348.142 121.991l6.96-6.96M344.062 121.991l6.96-6.96M340.222 121.991l6.96-6.96M336.142 121.991l6.96-6.96M332.062 121.991l6.96-6.96M328.222 121.991l6.96-6.96M324.142 121.991l6.96-6.96M320.062 121.991l6.96-6.96M316.222 121.991l6.96-6.96M312.142 121.991l6.96-6.96M308.062 121.991l6.96-6.96M303.982 121.991l6.96-6.96M300.142 121.991l6.96-6.96M296.062 121.991l6.96-6.96M291.982 121.991l6.96-6.96M288.142 121.991l6.96-6.96M284.062 121.991l6.96-6.96M279.982 121.991l6.96-6.96M276.142 121.991l6.96-6.96M272.062 121.991l6.96-6.96M267.982 121.991l6.96-6.96M263.902 121.991l6.96-6.96M260.062 121.991l6.96-6.96M255.982 121.991l6.96-6.96M251.902 121.991l6.96-6.96M248.062 121.991l6.96-6.96M243.982 121.991l6.96-6.96M239.902 121.991l6.96-6.96M235.822 121.991l6.96-6.96M231.982 121.991l6.96-6.96M227.902 121.991l6.96-6.96M223.822 121.991l6.96-6.96M219.982 121.991l6.96-6.96M215.902 121.991l6.96-6.96M211.822 121.991l6.96-6.96M211.342 118.631l3.6-3.6"/><path class="cls-19" d="M211.102 115.03v6.96h144.96v-6.96h-144.96"/><path class="cls-14" d="M356.302 115.751l-.96-.72M356.302 119.831l-5.04-4.8M354.382 121.991l-6.96-6.96M350.302 121.991l-6.96-6.96M346.222 121.991l-6.96-6.96M342.382 121.991l-6.96-6.96M338.302 121.991l-6.96-6.96M334.222 121.991l-6.96-6.96M330.142 121.991l-6.96-6.96M326.302 121.991l-6.96-6.96M322.222 121.991l-6.96-6.96M318.142 121.991l-6.96-6.96M314.302 121.991l-6.96-6.96M310.222 121.991l-6.96-6.96M306.142 121.991l-6.96-6.96M302.302 121.991l-6.96-6.96M298.222 121.991l-6.96-6.96M294.142 121.991l-6.96-6.96M290.062 121.991l-6.96-6.96M286.222 121.991l-6.96-6.96M282.142 121.991l-6.96-6.96M278.062 121.991l-6.96-6.96M274.222 121.991l-6.96-6.96M270.142 121.991l-6.96-6.96M266.062 121.991l-6.96-6.96M262.222 121.991l-6.96-6.96M258.142 121.991l-6.96-6.96M254.062 121.991l-6.96-6.96M249.982 121.991l-6.96-6.96M246.142 121.991l-6.96-6.96M242.062 121.991l-6.96-6.96M237.982 121.991l-6.96-6.96M234.142 121.991l-6.96-6.96M230.062 121.991l-6.96-6.96M225.982 121.991l-6.96-6.96M221.902 121.991l-6.96-6.96M218.062 121.991l-6.72-6.72M213.982 121.991l-2.64-2.88M352.222 121.991l4.08-4.08M348.142 121.991l6.96-6.96M344.062 121.991l6.96-6.96M340.222 121.991l6.96-6.96M336.142 121.991l6.96-6.96M332.062 121.991l6.96-6.96M328.222 121.991l6.96-6.96M324.142 121.991l6.96-6.96M320.062 121.991l6.96-6.96M316.222 121.991l6.96-6.96M312.142 121.991l6.96-6.96M308.062 121.991l6.96-6.96M303.982 121.991l6.96-6.96M300.142 121.991l6.96-6.96M296.062 121.991l6.96-6.96M291.982 121.991l6.96-6.96M288.142 121.991l6.96-6.96M284.062 121.991l6.96-6.96M279.982 121.991l6.96-6.96M276.142 121.991l6.96-6.96M272.062 121.991l6.96-6.96M267.982 121.991l6.96-6.96M263.902 121.991l6.96-6.96M260.062 121.991l6.96-6.96M255.982 121.991l6.96-6.96M251.902 121.991l6.96-6.96M248.062 121.991l6.96-6.96M243.982 121.991l6.96-6.96M239.902 121.991l6.96-6.96M235.822 121.991l6.96-6.96M231.982 121.991l6.96-6.96M227.902 121.991l6.96-6.96M223.822 121.991l6.96-6.96M219.982 121.991l6.96-6.96M215.902 121.991l6.96-6.96M211.822 121.991l6.96-6.96M211.342 118.631l3.6-3.6"/><path class="cls-16" d="M356.062 115.031h-144.96M356.062 121.991h-144.96M356.062 121.991h-144.96M356.062 115.031h-144.96"/><path class="cls-19" d="M391.822 121.99h2.4l7.2-6.96h-9.6v6.96"/><path class="cls-14" d="M400.462 115.991l-.96-.96M398.542 117.911l-3.12-2.88M396.382 120.071l-4.32-4.56M394.462 121.991l-2.4-2.4M392.302 121.991l6.96-6.96M392.062 118.391l3.12-3.36"/><path class="cls-19" d="M391.822 121.99h2.4l7.2-6.96h-9.6v6.96"/><path class="cls-14" d="M400.462 115.991l-.96-.96M398.542 117.911l-3.12-2.88M396.382 120.071l-4.32-4.56M394.462 121.991l-2.4-2.4M392.302 121.991l6.96-6.96M392.062 118.391l3.12-3.36"/><path class="cls-16" d="M401.422 115.031h-9.6M394.222 121.991h-2.4M394.222 121.991h-2.4M401.422 115.031h-9.6"/><path class="cls-15" d="M389.182 114.311h2.64v1.68h-2.64zM356.062 114.311h6v1.68h-6zM362.062 114.311h27.12v1.68h-27.12zM389.182 115.991h-27.12"/><path class="cls-1" d="M389.422 121.991h-27.6"/><path class="cls-15" d="M362.302 121.991h-.48"/><path class="cls-19" d="M391.822 121.99h-2.4v-6h2.4"/><path class="cls-14" d="M392.062 119.591l-2.4-2.4M390.382 121.991l-.72-.96M389.662 120.791l2.4-2.4M389.662 116.711l.72-.72"/><path class="cls-19" d="M356.062 121.99h5.76v-6h-5.76"/><path class="cls-14" d="M362.062 117.671l-1.68-1.68M362.062 121.511l-5.76-5.52M358.222 121.991l-1.92-2.16M360.142 121.991l1.92-1.68M356.302 121.991l5.76-5.76M356.302 117.911l1.92-1.92"/><path class="cls-16" d="M389.422 121.991v-6M361.822 121.991v-6M389.422 121.991v-6M391.822 121.991h-2.4M361.822 121.991v-6M356.062 121.991h5.76M391.822 115.031v.96M356.062 115.031v.96M391.822 121.991h-2.4M356.062 121.991h5.76M389.422 115.991h2.4M361.822 115.991h-5.76"/><path class="cls-19" d="M193.102 230.71l-6.96-7.2v108.96h6.96V230.71"/><path class="cls-14" d="M193.342 233.591l-6.96-6.96M193.342 237.431l-6.96-6.96M193.342 241.511l-6.96-6.96M193.342 245.591l-6.96-6.96M193.342 249.431l-6.96-6.96M193.342 253.511l-6.96-6.96M193.342 257.591l-6.96-6.96M193.342 261.671l-6.96-6.96M193.342 265.511l-6.96-6.96M193.342 269.591l-6.96-6.96M193.342 273.671l-6.96-6.96M193.342 277.511l-6.96-6.96M193.342 281.591l-6.96-6.96M193.342 285.671l-6.96-6.96M193.342 289.511l-6.96-6.96M193.342 293.591l-6.96-6.96M193.342 297.671l-6.96-6.96M193.342 301.751l-6.96-6.96M193.342 305.591l-6.96-6.96M193.342 309.671l-6.96-6.96M193.342 313.751l-6.96-6.96M193.342 317.591l-6.96-6.96M193.342 321.671l-6.96-6.96M193.342 325.751l-6.96-6.96M193.342 329.831l-6.96-6.96M191.902 332.471l-5.52-5.76M188.062 332.471l-1.68-1.68M189.742 332.471l3.6-3.36M186.382 331.991l6.96-6.96M186.382 327.911l6.96-6.96M186.382 324.071l6.96-6.96M186.382 319.991l6.96-6.96M186.382 315.911l6.96-6.96M186.382 312.071l6.96-6.96M186.382 307.991l6.96-6.96M186.382 303.911l6.96-6.96M186.382 299.831l6.96-6.96M186.382 295.991l6.96-6.96M186.382 291.911l6.96-6.96M186.382 287.831l6.96-6.96M186.382 283.991l6.96-6.96M186.382 279.911l6.96-6.96M186.382 275.831l6.96-6.96M186.382 271.991l6.96-6.96M186.382 267.911l6.96-6.96M186.382 263.831l6.96-6.96M186.382 259.751l6.96-6.96M186.382 255.911l6.96-6.96M186.382 251.831l6.96-6.96M186.382 247.751l6.96-6.96M186.382 243.911l6.96-6.96M186.382 239.831l6.96-6.96M186.382 235.751l6-6M186.382 231.911l3.84-4.08M186.382 227.831l1.92-2.16M186.382 223.751"/><path class="cls-19" d="M193.102 230.71l-6.96-7.2v108.96h6.96V230.71"/><path class="cls-14" d="M193.342 233.591l-6.96-6.96M193.342 237.431l-6.96-6.96M193.342 241.511l-6.96-6.96M193.342 245.591l-6.96-6.96M193.342 249.431l-6.96-6.96M193.342 253.511l-6.96-6.96M193.342 257.591l-6.96-6.96M193.342 261.671l-6.96-6.96M193.342 265.511l-6.96-6.96M193.342 269.591l-6.96-6.96M193.342 273.671l-6.96-6.96M193.342 277.511l-6.96-6.96M193.342 281.591l-6.96-6.96M193.342 285.671l-6.96-6.96M193.342 289.511l-6.96-6.96M193.342 293.591l-6.96-6.96M193.342 297.671l-6.96-6.96M193.342 301.751l-6.96-6.96M193.342 305.591l-6.96-6.96M193.342 309.671l-6.96-6.96M193.342 313.751l-6.96-6.96M193.342 317.591l-6.96-6.96M193.342 321.671l-6.96-6.96M193.342 325.751l-6.96-6.96M193.342 329.831l-6.96-6.96M191.902 332.471l-5.52-5.76M188.062 332.471l-1.68-1.68M189.742 332.471l3.6-3.36M186.382 331.991l6.96-6.96M186.382 327.911l6.96-6.96M186.382 324.071l6.96-6.96M186.382 319.991l6.96-6.96M186.382 315.911l6.96-6.96M186.382 312.071l6.96-6.96M186.382 307.991l6.96-6.96M186.382 303.911l6.96-6.96M186.382 299.831l6.96-6.96M186.382 295.991l6.96-6.96M186.382 291.911l6.96-6.96M186.382 287.831l6.96-6.96M186.382 283.991l6.96-6.96M186.382 279.911l6.96-6.96M186.382 275.831l6.96-6.96M186.382 271.991l6.96-6.96M186.382 267.911l6.96-6.96M186.382 263.831l6.96-6.96M186.382 259.751l6.96-6.96M186.382 255.911l6.96-6.96M186.382 251.831l6.96-6.96M186.382 247.751l6.96-6.96M186.382 243.911l6.96-6.96M186.382 239.831l6.96-6.96M186.382 235.751l6-6M186.382 231.911l3.84-4.08M186.382 227.831l1.92-2.16M186.382 223.751"/><path class="cls-16" d="M193.102 332.471v-101.76M186.142 332.471v-108.96M186.142 332.471v-108.96M193.102 332.471v-101.76M193.102 332.471h-6.96"/><path class="cls-19" d="M7.342 332.47h-7.2V11.59h7.2v320.88"/><path class="cls-14" d="M7.582 11.591h-.24M7.582 15.671l-4.32-4.08M7.582 19.751l-7.2-7.2M7.582 23.591l-7.2-7.2M7.582 27.671l-7.2-7.2M7.582 31.751l-7.2-7.2M7.582 35.831l-7.2-7.2M7.582 39.671l-7.2-7.2M7.582 43.751l-7.2-7.2M7.582 47.831l-7.2-7.2M7.582 51.671l-7.2-7.2M7.582 55.751l-7.2-7.2M7.582 59.831l-7.2-7.2M7.582 63.671l-7.2-7.2M7.582 67.751l-7.2-7.2M7.582 71.831l-7.2-7.2M7.582 75.911l-7.2-7.2M7.582 79.751l-7.2-7.2M7.582 83.831l-7.2-7.2M7.582 87.911l-7.2-7.2M7.582 91.751l-7.2-7.2M7.582 95.831l-7.2-7.2M7.582 99.911l-7.2-7.2M7.582 103.751l-7.2-7.2M7.582 107.831l-7.2-7.2M7.582 111.911l-7.2-7.2M7.582 115.991l-7.2-7.2M7.582 119.831l-7.2-7.2M7.582 123.911l-7.2-7.2M7.582 127.991l-7.2-7.2M7.582 131.831l-7.2-7.2M7.582 135.911l-7.2-7.2M7.582 139.991l-7.2-7.2M7.582 144.071l-7.2-7.2M7.582 147.911l-7.2-7.2M7.582 151.991l-7.2-7.2M7.582 156.071l-7.2-7.2M7.582 159.911l-7.2-7.2M7.582 163.991l-7.2-7.2M7.582 168.071l-7.2-7.2M7.582 171.911l-7.2-7.2M7.582 175.991l-7.2-7.2M7.582 180.071l-7.2-7.2M7.582 184.151l-7.2-7.2M7.582 187.991l-7.2-7.2M7.582 192.071l-7.2-7.2M7.582 196.151l-7.2-7.2M7.582 199.991l-7.2-7.2M7.582 204.071l-7.2-7.2M7.582 208.151l-7.2-7.2M7.582 211.991l-7.2-7.2M7.582 216.071l-7.2-7.2M7.582 220.151l-7.2-7.2M7.582 224.231l-7.2-7.2M7.582 228.071l-7.2-7.2M7.582 232.151l-7.2-7.2M7.582 236.231l-7.2-7.2M7.582 240.071l-7.2-7.2M7.582 244.151l-7.2-7.2M7.582 248.231l-7.2-7.2M7.582 252.311l-7.2-7.2M7.582 256.151l-7.2-7.2M7.582 260.231l-7.2-7.2M7.582 264.311l-7.2-7.2M7.582 268.151l-7.2-7.2M7.582 272.231l-7.2-7.2M7.582 276.311l-7.2-7.2M7.582 280.151l-7.2-7.2M7.582 284.231l-7.2-7.2M7.582 288.311l-7.2-7.2M7.582 292.391l-7.2-7.2M7.582 296.231l-7.2-7.2M7.582 300.311l-7.2-7.2M7.582 304.391l-7.2-7.2M7.582 308.231l-7.2-7.2M7.582 312.311l-7.2-7.2M7.582 316.391l-7.2-7.2M7.582 320.231l-7.2-7.2M7.582 324.311l-7.2-7.2M7.582 328.391l-7.2-7.2M7.582 332.471l-7.2-7.2M3.502 332.471l-3.12-3.36M5.422 332.471l2.16-2.16M1.342 332.471l6.24-6M.382 329.591l7.2-7.2M.382 325.511l7.2-7.2M.382 321.671l7.2-7.2M.382 317.591l7.2-7.2M.382 313.511l7.2-7.2M.382 309.671l7.2-7.2M.382 305.591l7.2-7.2M.382 301.511l7.2-7.2M.382 297.431l7.2-7.2M.382 293.591l7.2-7.2M.382 289.511l7.2-7.2M.382 285.431l7.2-7.2M.382 281.591l7.2-7.2M.382 277.511l7.2-7.2M.382 273.431l7.2-7.2M.382 269.591l7.2-7.2M.382 265.511l7.2-7.2M.382 261.431l7.2-7.2M.382 257.351l7.2-7.2M.382 253.511l7.2-7.2M.382 249.431l7.2-7.2M.382 245.351l7.2-7.2M.382 241.511l7.2-7.2M.382 237.431l7.2-7.2M.382 233.351l7.2-7.2M.382 229.271l7.2-7.2M.382 225.431l7.2-7.2M.382 221.351l7.2-7.2M.382 217.271l7.2-7.2M.382 213.431l7.2-7.2M.382 209.351l7.2-7.2M.382 205.271l7.2-7.2M.382 201.431l7.2-7.2M.382 197.351l7.2-7.2M.382 193.271l7.2-7.2M.382 189.191l7.2-7.2M.382 185.351l7.2-7.2M.382 181.271l7.2-7.2M.382 177.191l7.2-7.2M.382 173.351l7.2-7.2M.382 169.271l7.2-7.2M.382 165.191l7.2-7.2M.382 161.351l7.2-7.2M.382 157.271l7.2-7.2M.382 153.191l7.2-7.2M.382 149.111l7.2-7.2M.382 145.271l7.2-7.2M.382 141.191l7.2-7.2M.382 137.111l7.2-7.2M.382 133.271l7.2-7.2M.382 129.191l7.2-7.2M.382 125.111l7.2-7.2M.382 121.271l7.2-7.2M.382 117.191l7.2-7.2M.382 113.111l7.2-7.2M.382 109.031l7.2-7.2M.382 105.191l7.2-7.2M.382 101.111l7.2-7.2M.382 97.031l7.2-7.2M.382 93.191l7.2-7.2M.382 89.111l7.2-7.2M.382 85.031l7.2-7.2M.382 80.951l7.2-7.2M.382 77.111l7.2-7.2M.382 73.031l7.2-7.2M.382 68.951l7.2-7.2M.382 65.111l7.2-7.2M.382 61.031l7.2-7.2M.382 56.951l7.2-7.2M.382 53.111l7.2-7.2M.382 49.031l7.2-7.2M.382 44.951l7.2-7.2M.382 40.871l7.2-7.2M.382 37.031l7.2-7.2M.382 32.951l7.2-7.2M.382 28.871l7.2-7.2M.382 25.031l7.2-7.2M.382 20.951l7.2-7.2M.382 16.871l5.28-5.28M.382 13.031l1.2-1.44"/><path class="cls-19" d="M.142 332.47h7.2V11.59h-7.2v320.88"/><path class="cls-14" d="M7.582 11.591h-.24M7.582 15.671l-4.32-4.08M7.582 19.751l-7.2-7.2M7.582 23.591l-7.2-7.2M7.582 27.671l-7.2-7.2M7.582 31.751l-7.2-7.2M7.582 35.831l-7.2-7.2M7.582 39.671l-7.2-7.2M7.582 43.751l-7.2-7.2M7.582 47.831l-7.2-7.2M7.582 51.671l-7.2-7.2M7.582 55.751l-7.2-7.2M7.582 59.831l-7.2-7.2M7.582 63.671l-7.2-7.2M7.582 67.751l-7.2-7.2M7.582 71.831l-7.2-7.2M7.582 75.911l-7.2-7.2M7.582 79.751l-7.2-7.2M7.582 83.831l-7.2-7.2M7.582 87.911l-7.2-7.2M7.582 91.751l-7.2-7.2M7.582 95.831l-7.2-7.2M7.582 99.911l-7.2-7.2M7.582 103.751l-7.2-7.2M7.582 107.831l-7.2-7.2M7.582 111.911l-7.2-7.2M7.582 115.991l-7.2-7.2M7.582 119.831l-7.2-7.2M7.582 123.911l-7.2-7.2M7.582 127.991l-7.2-7.2M7.582 131.831l-7.2-7.2M7.582 135.911l-7.2-7.2M7.582 139.991l-7.2-7.2M7.582 144.071l-7.2-7.2M7.582 147.911l-7.2-7.2M7.582 151.991l-7.2-7.2M7.582 156.071l-7.2-7.2M7.582 159.911l-7.2-7.2M7.582 163.991l-7.2-7.2M7.582 168.071l-7.2-7.2M7.582 171.911l-7.2-7.2M7.582 175.991l-7.2-7.2M7.582 180.071l-7.2-7.2M7.582 184.151l-7.2-7.2M7.582 187.991l-7.2-7.2M7.582 192.071l-7.2-7.2M7.582 196.151l-7.2-7.2M7.582 199.991l-7.2-7.2M7.582 204.071l-7.2-7.2M7.582 208.151l-7.2-7.2M7.582 211.991l-7.2-7.2M7.582 216.071l-7.2-7.2M7.582 220.151l-7.2-7.2M7.582 224.231l-7.2-7.2M7.582 228.071l-7.2-7.2M7.582 232.151l-7.2-7.2M7.582 236.231l-7.2-7.2M7.582 240.071l-7.2-7.2M7.582 244.151l-7.2-7.2M7.582 248.231l-7.2-7.2M7.582 252.311l-7.2-7.2M7.582 256.151l-7.2-7.2M7.582 260.231l-7.2-7.2M7.582 264.311l-7.2-7.2M7.582 268.151l-7.2-7.2M7.582 272.231l-7.2-7.2M7.582 276.311l-7.2-7.2M7.582 280.151l-7.2-7.2M7.582 284.231l-7.2-7.2M7.582 288.311l-7.2-7.2M7.582 292.391l-7.2-7.2M7.582 296.231l-7.2-7.2M7.582 300.311l-7.2-7.2M7.582 304.391l-7.2-7.2M7.582 308.231l-7.2-7.2M7.582 312.311l-7.2-7.2M7.582 316.391l-7.2-7.2M7.582 320.231l-7.2-7.2M7.582 324.311l-7.2-7.2M7.582 328.391l-7.2-7.2M7.582 332.471l-7.2-7.2M3.502 332.471l-3.12-3.36M5.422 332.471l2.16-2.16M1.342 332.471l6.24-6M.382 329.591l7.2-7.2M.382 325.511l7.2-7.2M.382 321.671l7.2-7.2M.382 317.591l7.2-7.2M.382 313.511l7.2-7.2M.382 309.671l7.2-7.2M.382 305.591l7.2-7.2M.382 301.511l7.2-7.2M.382 297.431l7.2-7.2M.382 293.591l7.2-7.2M.382 289.511l7.2-7.2M.382 285.431l7.2-7.2M.382 281.591l7.2-7.2M.382 277.511l7.2-7.2M.382 273.431l7.2-7.2M.382 269.591l7.2-7.2M.382 265.511l7.2-7.2M.382 261.431l7.2-7.2M.382 257.351l7.2-7.2M.382 253.511l7.2-7.2M.382 249.431l7.2-7.2M.382 245.351l7.2-7.2M.382 241.511l7.2-7.2M.382 237.431l7.2-7.2M.382 233.351l7.2-7.2M.382 229.271l7.2-7.2M.382 225.431l7.2-7.2M.382 221.351l7.2-7.2M.382 217.271l7.2-7.2M.382 213.431l7.2-7.2M.382 209.351l7.2-7.2M.382 205.271l7.2-7.2M.382 201.431l7.2-7.2M.382 197.351l7.2-7.2M.382 193.271l7.2-7.2M.382 189.191l7.2-7.2M.382 185.351l7.2-7.2M.382 181.271l7.2-7.2M.382 177.191l7.2-7.2M.382 173.351l7.2-7.2M.382 169.271l7.2-7.2M.382 165.191l7.2-7.2M.382 161.351l7.2-7.2M.382 157.271l7.2-7.2M.382 153.191l7.2-7.2M.382 149.111l7.2-7.2M.382 145.271l7.2-7.2M.382 141.191l7.2-7.2M.382 137.111l7.2-7.2M.382 133.271l7.2-7.2M.382 129.191l7.2-7.2M.382 125.111l7.2-7.2M.382 121.271l7.2-7.2M.382 117.191l7.2-7.2M.382 113.111l7.2-7.2M.382 109.031l7.2-7.2M.382 105.191l7.2-7.2M.382 101.111l7.2-7.2M.382 97.031l7.2-7.2M.382 93.191l7.2-7.2M.382 89.111l7.2-7.2M.382 85.031l7.2-7.2M.382 80.951l7.2-7.2M.382 77.111l7.2-7.2M.382 73.031l7.2-7.2M.382 68.951l7.2-7.2M.382 65.111l7.2-7.2M.382 61.031l7.2-7.2M.382 56.951l7.2-7.2M.382 53.111l7.2-7.2M.382 49.031l7.2-7.2M.382 44.951l7.2-7.2M.382 40.871l7.2-7.2M.382 37.031l7.2-7.2M.382 32.951l7.2-7.2M.382 28.871l7.2-7.2M.382 25.031l7.2-7.2M.382 20.951l7.2-7.2M.382 16.871l5.28-5.28M.382 13.031l1.2-1.44"/><path class="cls-16" d="M7.342 332.471V11.591M.142 332.471V11.591M7.342 11.591h-7.2M.142 332.471V11.591M7.342 332.471V11.591M7.342 332.471h-7.2M97.342 16.631h-4.08"/><path class="cls-19" d="M97.342 186.07h-4.08V42.79h4.08v143.28"/><path class="cls-14" d="M93.502 45.431l2.4-2.64M93.502 49.511l4.08-4.08M93.502 53.831l4.08-4.08M93.502 58.151l4.08-4.08M93.502 62.231l4.08-4.08M93.502 66.551l4.08-4.08M93.502 70.871l4.08-4.08M93.502 74.951l4.08-4.08M93.502 79.271l4.08-4.08M93.502 83.591l4.08-4.08M93.502 87.911l4.08-4.08M93.502 91.991l4.08-4.08M93.502 96.311l4.08-4.08M93.502 100.631l4.08-4.08M93.502 104.711l4.08-4.08M93.502 109.031l4.08-4.08M93.502 113.351l4.08-4.08M93.502 117.671l4.08-4.08M93.502 121.751l4.08-4.08M93.502 126.071l4.08-4.08M93.502 130.391l4.08-4.08M93.502 134.471l4.08-4.08M93.502 138.791l4.08-4.08M93.502 143.111l4.08-4.08M93.502 147.431l4.08-4.08M93.502 151.511l4.08-4.08M93.502 155.831l4.08-4.08M93.502 160.151l4.08-4.08M93.502 164.231l4.08-4.08M93.502 168.551l4.08-4.08M93.502 172.871l4.08-4.08M93.502 176.951l4.08-4.08M93.502 181.271l4.08-4.08M93.502 185.591l4.08-4.08M97.102 186.071l.48-.24"/><path class="cls-19" d="M93.262 186.07h4.08V42.79h-4.08v143.28"/><path class="cls-14" d="M93.502 45.431l2.4-2.64M93.502 49.511l4.08-4.08M93.502 53.831l4.08-4.08M93.502 58.151l4.08-4.08M93.502 62.231l4.08-4.08M93.502 66.551l4.08-4.08M93.502 70.871l4.08-4.08M93.502 74.951l4.08-4.08M93.502 79.271l4.08-4.08M93.502 83.591l4.08-4.08M93.502 87.911l4.08-4.08M93.502 91.991l4.08-4.08M93.502 96.311l4.08-4.08M93.502 100.631l4.08-4.08M93.502 104.711l4.08-4.08M93.502 109.031l4.08-4.08M93.502 113.351l4.08-4.08M93.502 117.671l4.08-4.08M93.502 121.751l4.08-4.08M93.502 126.071l4.08-4.08M93.502 130.391l4.08-4.08M93.502 134.471l4.08-4.08M93.502 138.791l4.08-4.08M93.502 143.111l4.08-4.08M93.502 147.431l4.08-4.08M93.502 151.511l4.08-4.08M93.502 155.831l4.08-4.08M93.502 160.151l4.08-4.08M93.502 164.231l4.08-4.08M93.502 168.551l4.08-4.08M93.502 172.871l4.08-4.08M93.502 176.951l4.08-4.08M93.502 181.271l4.08-4.08M93.502 185.591l4.08-4.08M97.102 186.071l.48-.24"/><path class="cls-16" d="M97.342 186.071V42.791M93.262 154.631V42.791M93.262 186.071v-27.36M93.262 154.631V42.791M97.342 186.071V42.791M93.262 186.071v-27.36"/><path class="cls-19" d="M97.342 301.27h-4.08v-90h4.08v90"/><path class="cls-14" d="M93.502 215.351l3.84-4.08M93.502 219.671l4.08-4.08M93.502 223.751l4.08-4.08M93.502 228.071l4.08-4.08M93.502 232.391l4.08-4.08M93.502 236.471l4.08-4.08M93.502 240.791l4.08-4.08M93.502 245.111l4.08-4.08M93.502 249.431l4.08-4.08M93.502 253.511l4.08-4.08M93.502 257.831l4.08-4.08M93.502 262.151l4.08-4.08M93.502 266.231l4.08-4.08M93.502 270.551l4.08-4.08M93.502 274.871l4.08-4.08M93.502 278.951l4.08-4.08M93.502 283.271l4.08-4.08M93.502 287.591l4.08-4.08M93.502 291.911l4.08-4.08M93.502 295.991l4.08-4.08M93.502 300.311l4.08-4.08M96.622 301.271l.96-.72"/><path class="cls-19" d="M93.262 301.27h4.08v-90h-4.08v90"/><path class="cls-14" d="M93.502 215.351l3.84-4.08M93.502 219.671l4.08-4.08M93.502 223.751l4.08-4.08M93.502 228.071l4.08-4.08M93.502 232.391l4.08-4.08M93.502 236.471l4.08-4.08M93.502 240.791l4.08-4.08M93.502 245.111l4.08-4.08M93.502 249.431l4.08-4.08M93.502 253.511l4.08-4.08M93.502 257.831l4.08-4.08M93.502 262.151l4.08-4.08M93.502 266.231l4.08-4.08M93.502 270.551l4.08-4.08M93.502 274.871l4.08-4.08M93.502 278.951l4.08-4.08M93.502 283.271l4.08-4.08M93.502 287.591l4.08-4.08M93.502 291.911l4.08-4.08M93.502 295.991l4.08-4.08M93.502 300.311l4.08-4.08M96.622 301.271l.96-.72"/><path class="cls-16" d="M97.342 301.271v-90M93.262 215.351v-4.08M93.262 301.271v-80.88M93.262 215.351v-4.08M97.342 301.271v-90M93.262 301.271v-80.88M97.342 327.431h-4.08"/><path class="cls-15" d="M97.342 41.111h-4.08M97.342 18.551h-4.08"/><path class="cls-16" d="M97.342 42.791h-4.08M97.342 16.631h-4.08"/><path class="cls-14" d="M93.152 18.45c-12.44 0-22.677 10.237-22.677 22.677M93.262 41.111h-22.8"/><path class="cls-15" d="M97.342 325.751h-4.08M97.342 302.951h-4.08"/><path class="cls-16" d="M97.342 327.431h-4.08M97.342 301.271h-4.08"/><path class="cls-14" d="M70.475 303.05a22.682 22.682 0 0 0 22.677 22.677M93.262 302.951h-22.8"/><path class="cls-1" d="M97.342 211.271v-25.2M93.262 211.271v-25.2"/><path class="cls-15" d="M97.342 209.831h-4.08M97.342 187.271h-4.08"/><path class="cls-16" d="M97.342 211.271h-4.08M97.342 186.071h-4.08"/><path class="cls-14" d="M93.152 187.254c-12.44 0-22.677 10.236-22.677 22.675M93.262 209.831h-22.8"/><path class="cls-19" d="M7.342 158.71h85.92v-4.08H7.342v4.08"/><path class="cls-14" d="M7.582 156.791l1.92-2.16M9.742 158.711l4.08-4.08M14.062 158.711l4.08-4.08M18.142 158.711l4.08-4.08M22.462 158.711l4.08-4.08M26.782 158.711l4.08-4.08M31.102 158.711l4.08-4.08M35.182 158.711l4.08-4.08M39.502 158.711l4.08-4.08M43.822 158.711l4.08-4.08M47.902 158.711l4.08-4.08M52.222 158.711l4.08-4.08M56.542 158.711l4.08-4.08M60.622 158.711l4.08-4.08M64.942 158.711l4.08-4.08M69.262 158.711l4.08-4.08M73.582 158.711l4.08-4.08M77.662 158.711l4.08-4.08M81.982 158.711l4.08-4.08M86.302 158.711l4.08-4.08M90.382 158.711l3.12-2.88"/><path class="cls-19" d="M7.342 158.71h85.92v-4.08H7.342v4.08"/><path class="cls-14" d="M7.582 156.791l1.92-2.16M9.742 158.711l4.08-4.08M14.062 158.711l4.08-4.08M18.142 158.711l4.08-4.08M22.462 158.711l4.08-4.08M26.782 158.711l4.08-4.08M31.102 158.711l4.08-4.08M35.182 158.711l4.08-4.08M39.502 158.711l4.08-4.08M43.822 158.711l4.08-4.08M47.902 158.711l4.08-4.08M52.222 158.711l4.08-4.08M56.542 158.711l4.08-4.08M60.622 158.711l4.08-4.08M64.942 158.711l4.08-4.08M69.262 158.711l4.08-4.08M73.582 158.711l4.08-4.08M77.662 158.711l4.08-4.08M81.982 158.711l4.08-4.08M86.302 158.711l4.08-4.08M90.382 158.711l3.12-2.88"/><path class="cls-16" d="M93.262 154.631H7.342M93.262 158.711H7.342M7.342 154.631v4.08M93.262 158.711H7.342M93.262 154.631H7.342"/><path class="cls-19" d="M7.342 220.39h85.92v-5.04H7.342v5.04"/><path class="cls-14" d="M7.582 216.311l.72-.96M7.582 220.391l5.04-5.04M11.902 220.391l5.04-5.04M15.982 220.391l5.04-5.04M20.302 220.391l5.04-5.04M24.622 220.391l5.04-5.04M28.702 220.391l5.04-5.04M33.022 220.391l5.04-5.04M37.342 220.391l5.04-5.04M41.662 220.391l5.04-5.04M45.742 220.391l5.04-5.04M50.062 220.391l5.04-5.04M54.382 220.391l5.04-5.04M58.462 220.391l5.04-5.04M62.782 220.391l5.04-5.04M67.102 220.391l5.04-5.04M71.422 220.391l5.04-5.04M75.502 220.391l5.04-5.04M79.822 220.391l5.04-5.04M84.142 220.391l5.04-5.04M88.222 220.391l5.04-5.04M92.542 220.391l.96-.72"/><path class="cls-19" d="M7.342 220.39h85.92v-5.04H7.342v5.04"/><path class="cls-14" d="M7.582 216.311l.72-.96M7.582 220.391l5.04-5.04M11.902 220.391l5.04-5.04M15.982 220.391l5.04-5.04M20.302 220.391l5.04-5.04M24.622 220.391l5.04-5.04M28.702 220.391l5.04-5.04M33.022 220.391l5.04-5.04M37.342 220.391l5.04-5.04M41.662 220.391l5.04-5.04M45.742 220.391l5.04-5.04M50.062 220.391l5.04-5.04M54.382 220.391l5.04-5.04M58.462 220.391l5.04-5.04M62.782 220.391l5.04-5.04M67.102 220.391l5.04-5.04M71.422 220.391l5.04-5.04M75.502 220.391l5.04-5.04M79.822 220.391l5.04-5.04M84.142 220.391l5.04-5.04M88.222 220.391l5.04-5.04M92.542 220.391l.96-.72"/><path class="cls-16" d="M93.262 215.351H7.342M93.262 220.391H7.342M7.342 215.351v5.04M93.262 220.391H7.342M93.262 215.351H7.342"/><path class="cls-19" d="M262.222 230.71l-5.76-10.08h-45.36l-6.96 10.08h58.08"/><path class="cls-14" d="M256.702 220.871l-.24-.24M261.982 230.231l-9.36-9.6M258.622 230.711l-10.08-10.08M254.542 230.711l-10.08-10.08M250.462 230.711l-10.08-10.08M246.622 230.711l-10.08-10.08M242.542 230.711l-10.08-10.08M238.462 230.711l-10.08-10.08M234.622 230.711l-10.08-10.08M230.542 230.711l-10.08-10.08M226.462 230.711l-10.08-10.08M222.382 230.711l-10.08-10.08M218.542 230.711l-8.4-8.4M214.462 230.711l-6-6M210.382 230.711l-3.6-3.6M206.542 230.711l-1.44-1.2M259.582 230.711l1.68-1.92M255.502 230.711l4.32-4.32M251.422 230.711l6.96-6.96M247.582 230.711l9.36-9.36M243.502 230.711l10.08-10.08M239.422 230.711l10.08-10.08M235.342 230.711l10.08-10.08M231.502 230.711l10.08-10.08M227.422 230.711l10.08-10.08M223.342 230.711l10.08-10.08M219.502 230.711l10.08-10.08M215.422 230.711l10.08-10.08M211.342 230.711l10.08-10.08M207.502 230.711l10.08-10.08M206.302 227.831l7.2-7.2"/><path class="cls-19" d="M262.222 230.71l-5.76-10.08h-45.36l-6.96 10.08h58.08"/><path class="cls-14" d="M256.702 220.871l-.24-.24M261.982 230.231l-9.36-9.6M258.622 230.711l-10.08-10.08M254.542 230.711l-10.08-10.08M250.462 230.711l-10.08-10.08M246.622 230.711l-10.08-10.08M242.542 230.711l-10.08-10.08M238.462 230.711l-10.08-10.08M234.622 230.711l-10.08-10.08M230.542 230.711l-10.08-10.08M226.462 230.711l-10.08-10.08M222.382 230.711l-10.08-10.08M218.542 230.711l-8.4-8.4M214.462 230.711l-6-6M210.382 230.711l-3.6-3.6M206.542 230.711l-1.44-1.2M259.582 230.711l1.68-1.92M255.502 230.711l4.32-4.32M251.422 230.711l6.96-6.96M247.582 230.711l9.36-9.36M243.502 230.711l10.08-10.08M239.422 230.711l10.08-10.08M235.342 230.711l10.08-10.08M231.502 230.711l10.08-10.08M227.422 230.711l10.08-10.08M223.342 230.711l10.08-10.08M219.502 230.711l10.08-10.08M215.422 230.711l10.08-10.08M211.342 230.711l10.08-10.08M207.502 230.711l10.08-10.08M206.302 227.831l7.2-7.2"/><path class="cls-16" d="M204.142 230.711h58.08M211.102 220.631h45.36M211.102 220.631h45.36M204.142 230.711h58.08"/><path class="cls-15" d="M178.222 35.351h17.52v69.36h-17.52zM180.622 53.111h-2.4M180.622 70.151h-2.4M180.622 86.951h-2.4M180.622 103.991h-2.4M185.662 104.711h16.56v.48h-16.56zM185.662 105.191h.72v17.04h-.72zM186.382 121.751h15.12v.48h-15.12zM186.382 105.191h15.12v.48h-15.12zM201.502 105.191h.72v17.04h-.72z"/><path class="cls-19" d="M190.663 103.135h-8.928a1.991 1.991 0 0 1-1.404-.581 1.993 1.993 0 0 1-.58-1.403V89.954a1.992 1.992 0 0 1 1.224-1.833c.242-.1.499-.151.76-.151h8.928a1.991 1.991 0 0 1 1.404.58c.185.185.332.404.43.645.1.24.151.498.151.759v11.197c0 .26-.05.519-.151.76a1.992 1.992 0 0 1-1.834 1.225"/><path class="cls-15" d="M190.663 103.135h-8.928a1.991 1.991 0 0 1-1.404-.581 1.993 1.993 0 0 1-.58-1.403V89.954a1.992 1.992 0 0 1 1.224-1.833c.242-.1.499-.151.76-.151h8.928a1.991 1.991 0 0 1 1.404.58c.185.185.332.404.43.645.1.24.151.498.151.759v11.197c0 .26-.05.519-.151.76a1.992 1.992 0 0 1-1.834 1.225"/><path class="cls-19" d="M190.462 95.59c0-.657-.487-1.2-1.08-1.2s-1.08.543-1.08 1.2.487 1.2 1.08 1.2 1.08-.54 1.08-1.2"/><path class="cls-15" d="M190.462 95.59c0-.657-.487-1.2-1.08-1.2s-1.08.543-1.08 1.2.487 1.2 1.08 1.2 1.08-.54 1.08-1.2"/><path class="cls-18" d="M179.662 53.591h14.64v15.84h-14.64z"/><path class="cls-15" d="M179.662 53.591h14.64v15.84h-14.64z"/><path class="cls-19" d="M187.342 57.43c0-1.58-1.301-2.88-2.88-2.88s-2.88 1.301-2.88 2.88 1.3 2.88 2.88 2.88 2.88-1.3 2.88-2.88"/><path class="cls-15" d="M187.342 57.43c0-1.58-1.301-2.88-2.88-2.88s-2.88 1.301-2.88 2.88 1.3 2.88 2.88 2.88 2.88-1.3 2.88-2.88"/><path class="cls-19" d="M193.342 56.47c0-1.184-.975-2.16-2.16-2.16s-2.16.976-2.16 2.16.974 2.16 2.16 2.16 2.16-.974 2.16-2.16"/><path class="cls-15" d="M193.342 56.47c0-1.184-.975-2.16-2.16-2.16s-2.16.976-2.16 2.16.974 2.16 2.16 2.16 2.16-.974 2.16-2.16"/><path class="cls-19" d="M186.622 65.11c0-1.184-.975-2.16-2.16-2.16s-2.16.976-2.16 2.16.974 2.16 2.16 2.16 2.16-.974 2.16-2.16"/><path class="cls-15" d="M186.622 65.11c0-1.184-.975-2.16-2.16-2.16s-2.16.976-2.16 2.16.974 2.16 2.16 2.16 2.16-.974 2.16-2.16"/><path class="cls-19" d="M193.822 64.87c0-1.58-1.301-2.88-2.88-2.88s-2.88 1.301-2.88 2.88 1.3 2.88 2.88 2.88 2.88-1.3 2.88-2.88"/><path class="cls-15" d="M193.822 64.87c0-1.58-1.301-2.88-2.88-2.88s-2.88 1.301-2.88 2.88 1.3 2.88 2.88 2.88 2.88-1.3 2.88-2.88M180.622 36.071h-2.4M185.662 34.871h16.56v.48h-16.56zM185.662 17.831h.72v17.04h-.72zM186.382 17.831h15.12v.72h-15.12zM186.382 34.391h15.12v.48h-15.12zM185.662 16.631h.72v1.2h-.72zM201.502 17.831h.72v17.04h-.72zM185.662 122.231h17.52v.48h-17.52zM204.142 103.751h-7.68"/><path class="cls-6" d="M204.142 104.471h-8.4"/><path class="cls-15" d="M204.142 102.311h-6.24M204.142 103.751h-7.68M204.142 104.471h-8.4M204.142 102.311h-6.24"/><path class="cls-6" d="M204.142 103.751v.72"/><path class="cls-15" d="M204.142 102.311v1.44M196.462 103.751v-67.44"/><path class="cls-6" d="M195.742 104.471v-68.88"/><path class="cls-15" d="M197.902 102.311v-64.56M196.462 103.751v-67.44M195.742 104.471v-68.88M197.902 102.311v-64.56M196.462 36.311h7.68"/><path class="cls-6" d="M195.742 35.591h8.4"/><path class="cls-15" d="M197.902 37.751h6.24M196.462 36.311h7.68"/><path class="cls-6" d="M204.142 36.311v-.72"/><path class="cls-15" d="M204.142 37.751v-1.44M195.742 35.591h8.4M197.902 37.751h6.24"/><path class="cls-1" d="M185.662 35.351v69.36"/><path class="cls-15" d="M185.662 104.231v.48"/><path class="cls-1" d="M185.662 156.791v-34.08"/><path class="cls-15" d="M185.662 123.191v-.48M185.662 157.751h17.52v.48h-17.52zM185.662 158.231h.72v17.04h-.72zM186.382 174.551h15.12v.72h-15.12zM186.382 158.231h15.12v.48h-15.12zM201.502 158.231h.72v17.04h-.72zM185.662 192.311h.72v16.8h-.72zM186.382 192.311h15.12v.48h-15.12zM186.382 208.631h15.12v.48h-15.12zM201.502 192.311h.72v16.8h-.72z"/><path class="cls-15" d="M185.662 209.111h.72v2.16h-.72zM185.662 175.271h.72v17.04h-.72zM186.382 175.271h15.12v.48h-15.12zM186.382 191.591h15.12v.72h-15.12zM201.502 175.271h.72v17.04h-.72z"/><path class="cls-18" d="M190.222 208.631h9.84v2.64h-9.84z"/><path class="cls-15" d="M190.222 208.631h9.84v2.64h-9.84zM189.982 208.63z"/><path class="cls-12" d="M199.342 208.631v-8.64"/><path class="cls-5" d="M190.942 208.63l.24-1.68.48-1.68.72-1.44.96-1.44 1.44-.96 1.44-.72 1.68-.48 1.44-.24"/><path class="cls-15" d="M96.142 342.07l7.2 40.8h81.12l7.2-40.8"/><path class="cls-15" d="M94.462 342.07l7.44 42.72h83.76l7.68-42.72"/><path class="cls-19" d="M204.142 165.91l5.52-7.92h-5.52v7.92"/><path class="cls-14" d="M208.222 160.391l-2.4-2.4M206.542 162.551l-2.16-2.16M204.862 164.951l-.48-.48M204.382 165.671l.48-.48M204.382 161.591l3.6-3.6"/><path class="cls-19" d="M204.142 165.91l5.52-7.92h-5.52v7.92"/><path class="cls-14" d="M208.222 160.391l-2.4-2.4M206.542 162.551l-2.16-2.16M204.862 164.951l-.48-.48M204.382 165.671l.48-.48M204.382 161.591l3.6-3.6"/><path class="cls-16" d="M204.142 157.991v7.92M204.142 157.991v7.92"/><path class="cls-19" d="M204.142 11.59h6.96v110.64h-6.96V11.59"/><path class="cls-14" d="M211.342 14.951l-3.6-3.36M211.342 19.031l-6.96-6.96M211.342 23.111l-6.96-6.96M211.342 26.951l-6.96-6.96M211.342 31.031l-6.96-6.96M211.342 35.111l-6.96-6.96M211.342 38.951l-6.96-6.96M211.342 43.031l-6.96-6.96M211.342 47.111l-6.96-6.96M211.342 50.951l-6.96-6.96M211.342 55.031l-6.96-6.96M211.342 59.111l-6.96-6.96M211.342 63.191l-6.96-6.96M211.342 67.031l-6.96-6.96M211.342 71.111l-6.96-6.96M211.342 75.191l-6.96-6.96M211.342 79.031l-6.96-6.96M211.342 83.111l-6.96-6.96M211.342 87.191l-6.96-6.96M211.342 91.271l-6.96-6.96M211.342 95.111l-6.96-6.96M211.342 99.191l-6.96-6.96M211.342 103.271l-6.96-6.96M211.342 107.111l-6.96-6.96M211.342 111.191l-6.96-6.96M211.342 115.271l-6.96-6.96M211.342 119.111l-6.96-6.96M210.142 122.231l-5.76-6M206.302 122.231l-1.92-1.92M207.742 122.231l3.6-3.6M204.382 121.511l6.96-6.96M204.382 117.671l6.96-6.96M204.382 113.591l6.96-6.96M204.382 109.511l6.96-6.96M204.382 105.671l6.96-6.96M204.382 101.591l6.96-6.96M204.382 97.511l6.96-6.96M204.382 93.431l6.96-6.96M204.382 89.591l6.96-6.96M204.382 85.511l6.96-6.96M204.382 81.431l6.96-6.96M204.382 77.591l6.96-6.96M204.382 73.511l6.96-6.96M204.382 69.431l6.96-6.96M204.382 65.591l6.96-6.96M204.382 61.511l6.96-6.96M204.382 57.431l6.96-6.96M204.382 53.351l6.96-6.96M204.382 49.511l6.96-6.96M204.382 45.431l6.96-6.96M204.382 41.351l6.96-6.96M204.382 37.511l6.96-6.96M204.382 33.431l6.96-6.96M204.382 29.351l6.96-6.96M204.382 25.271l6.96-6.96M204.382 21.431l6.96-6.96M204.382 17.351l5.76-5.76M204.382 13.271l1.68-1.68"/><path class="cls-19" d="M211.102 11.59h-6.96v110.64h6.96V11.59"/><path class="cls-14" d="M211.342 14.951l-3.6-3.36M211.342 19.031l-6.96-6.96M211.342 23.111l-6.96-6.96M211.342 26.951l-6.96-6.96M211.342 31.031l-6.96-6.96M211.342 35.111l-6.96-6.96M211.342 38.951l-6.96-6.96M211.342 43.031l-6.96-6.96M211.342 47.111l-6.96-6.96M211.342 50.951l-6.96-6.96M211.342 55.031l-6.96-6.96M211.342 59.111l-6.96-6.96M211.342 63.191l-6.96-6.96M211.342 67.031l-6.96-6.96M211.342 71.111l-6.96-6.96M211.342 75.191l-6.96-6.96M211.342 79.031l-6.96-6.96M211.342 83.111l-6.96-6.96M211.342 87.191l-6.96-6.96M211.342 91.271l-6.96-6.96M211.342 95.111l-6.96-6.96M211.342 99.191l-6.96-6.96M211.342 103.271l-6.96-6.96M211.342 107.111l-6.96-6.96M211.342 111.191l-6.96-6.96M211.342 115.271l-6.96-6.96M211.342 119.111l-6.96-6.96M210.142 122.231l-5.76-6M206.302 122.231l-1.92-1.92M207.742 122.231l3.6-3.6M204.382 121.511l6.96-6.96M204.382 117.671l6.96-6.96M204.382 113.591l6.96-6.96M204.382 109.511l6.96-6.96M204.382 105.671l6.96-6.96M204.382 101.591l6.96-6.96M204.382 97.511l6.96-6.96M204.382 93.431l6.96-6.96M204.382 89.591l6.96-6.96M204.382 85.511l6.96-6.96M204.382 81.431l6.96-6.96M204.382 77.591l6.96-6.96M204.382 73.511l6.96-6.96M204.382 69.431l6.96-6.96M204.382 65.591l6.96-6.96M204.382 61.511l6.96-6.96M204.382 57.431l6.96-6.96M204.382 53.351l6.96-6.96M204.382 49.511l6.96-6.96M204.382 45.431l6.96-6.96M204.382 41.351l6.96-6.96M204.382 37.511l6.96-6.96M204.382 33.431l6.96-6.96M204.382 29.351l6.96-6.96M204.382 25.271l6.96-6.96M204.382 21.431l6.96-6.96M204.382 17.351l5.76-5.76M204.382 13.271l1.68-1.68"/><path class="cls-16" d="M204.142 11.591v110.64M211.102 121.991v.24M211.102 11.591v103.44M211.102 121.991v.24M204.142 11.591v110.64M211.102 11.591v103.44M204.142 11.591h6.96"/><path class="cls-15" d="M203.662 122.231h1.68v2.64h-1.68zM203.662 151.991h1.68v6h-1.68zM203.662 124.871h1.68v27.12h-1.68zM205.342 124.871v27.12"/><path class="cls-1" d="M211.102 124.631v27.84"/><path class="cls-15" d="M211.102 151.991v.48"/><path class="cls-19" d="M211.102 122.23v2.4h-5.76v-2.4"/><path class="cls-14" d="M211.342 123.191l-1.2-.96M208.702 124.631l-2.4-2.4M209.182 124.631l2.16-1.92M205.582 124.391l2.16-2.16"/><path class="cls-19" d="M211.102 157.99v-5.52h-5.76v5.52"/><path class="cls-14" d="M211.342 155.351l-2.88-2.88M209.902 157.991l-4.32-4.56M205.822 157.991l-.24-.48M207.982 157.991l3.36-3.36M205.582 156.551l3.84-4.08"/><path class="cls-16" d="M211.102 124.631h-5.76M211.102 152.471h-5.76M211.102 124.631h-5.76M211.102 122.231v2.4M211.102 152.471h-5.76M211.102 157.991v-5.52M204.142 122.231h1.2M204.142 157.991h1.2M211.102 122.231v2.4M211.102 157.991v-5.52M205.342 124.631v-2.4M205.342 152.471v5.52"/><path class="cls-14" d="M176.35 124.891c0 14.93 12.283 27.213 27.21 27.213M203.662 124.871h-27.36"/><path class="cls-19" d="M204.142 230.71l6.96-10.08v-54.72h-6.96v64.8"/><path class="cls-14" d="M211.342 167.351l-1.44-1.44M211.342 171.431l-5.52-5.52M211.342 175.271l-6.96-6.96M211.342 179.351l-6.96-6.96M211.342 183.431l-6.96-6.96M211.342 187.271l-6.96-6.96M211.342 191.351l-6.96-6.96M211.342 195.431l-6.96-6.96M211.342 199.271l-6.96-6.96M211.342 203.351l-6.96-6.96M211.342 207.431l-6.96-6.96M211.342 211.511l-6.96-6.96M211.342 215.351l-6.96-6.96M211.342 219.431l-6.96-6.96M210.142 222.311l-5.76-5.76M208.462 224.711l-4.08-4.32M206.782 227.111l-2.4-2.64M205.102 229.511l-.72-.96M204.382 229.751l1.92-1.92M204.382 225.911l6.96-6.96M204.382 221.831l6.96-6.96M204.382 217.751l6.96-6.96M204.382 213.911l6.96-6.96M204.382 209.831l6.96-6.96M204.382 205.751l6.96-6.96M204.382 201.671l6.96-6.96M204.382 197.831l6.96-6.96M204.382 193.751l6.96-6.96M204.382 189.671l6.96-6.96M204.382 185.831l6.96-6.96M204.382 181.751l6.96-6.96M204.382 177.671l6.96-6.96M204.382 173.831l6.96-6.96M204.382 169.751l3.6-3.84"/><path class="cls-19" d="M204.142 230.71l6.96-10.08v-54.72h-6.96v64.8"/><path class="cls-14" d="M211.342 167.351l-1.44-1.44M211.342 171.431l-5.52-5.52M211.342 175.271l-6.96-6.96M211.342 179.351l-6.96-6.96M211.342 183.431l-6.96-6.96M211.342 187.271l-6.96-6.96M211.342 191.351l-6.96-6.96M211.342 195.431l-6.96-6.96M211.342 199.271l-6.96-6.96M211.342 203.351l-6.96-6.96M211.342 207.431l-6.96-6.96M211.342 211.511l-6.96-6.96M211.342 215.351l-6.96-6.96M211.342 219.431l-6.96-6.96M210.142 222.311l-5.76-5.76M208.462 224.711l-4.08-4.32M206.782 227.111l-2.4-2.64M205.102 229.511l-.72-.96M204.382 229.751l1.92-1.92M204.382 225.911l6.96-6.96M204.382 221.831l6.96-6.96M204.382 217.751l6.96-6.96M204.382 213.911l6.96-6.96M204.382 209.831l6.96-6.96M204.382 205.751l6.96-6.96M204.382 201.671l6.96-6.96M204.382 197.831l6.96-6.96M204.382 193.751l6.96-6.96M204.382 189.671l6.96-6.96M204.382 185.831l6.96-6.96M204.382 181.751l6.96-6.96M204.382 177.671l6.96-6.96M204.382 173.831l6.96-6.96M204.382 169.751l3.6-3.84"/><path class="cls-16" d="M204.142 165.911v57.6M211.102 165.911v54.72M211.102 165.911v54.72M204.142 165.911v57.6"/><path class="cls-19" d="M256.462 165.91l5.76-10.08h-15.36v10.08h9.6"/><path class="cls-14" d="M261.502 157.511l-1.68-1.68M260.062 159.911l-4.32-4.08M258.622 162.551l-6.72-6.72M257.182 164.951l-9.36-9.12M253.822 165.911l-6.72-6.96M249.982 165.911l-2.88-2.88M256.222 165.911l.96-.96M252.142 165.911l10.08-10.08M248.062 165.911l10.08-10.08M247.102 163.031l7.2-7.2M247.102 158.951l3.12-3.12"/><path class="cls-19" d="M256.462 165.91l5.76-10.08h-15.36v10.08h9.6"/><path class="cls-14" d="M261.502 157.511l-1.68-1.68M260.062 159.911l-4.32-4.08M258.622 162.551l-6.72-6.72M257.182 164.951l-9.36-9.12M253.822 165.911l-6.72-6.96M249.982 165.911l-2.88-2.88M256.222 165.911l.96-.96M252.142 165.911l10.08-10.08M248.062 165.911l10.08-10.08M247.102 163.031l7.2-7.2M247.102 158.951l3.12-3.12"/><path class="cls-16" d="M246.862 165.911h9.6M246.862 155.831h15.36M246.862 155.831h15.36M246.862 165.911h9.6"/><path class="cls-19" d="M211.102 165.91v-10.08l-6.96 10.08h6.96"/><path class="cls-14" d="M211.342 159.191l-1.44-1.2M211.342 163.271l-3.12-3.12M209.902 165.911l-3.36-3.36M205.822 165.911l-.96-.96M207.982 165.911l3.36-3.12M204.622 165.191l6.72-6.48"/><path class="cls-19" d="M211.102 165.91v-10.08l-6.96 10.08h6.96"/><path class="cls-14" d="M211.342 159.191l-1.44-1.2M211.342 163.271l-3.12-3.12M209.902 165.911l-3.36-3.36M205.822 165.911l-.96-.96M207.982 165.911l3.36-3.12M204.622 165.191l6.72-6.48"/><path class="cls-15" d="M214.222 164.471h29.52"/><path class="cls-1" d="M214.222 155.831h29.52"/><path class="cls-15" d="M243.262 155.831h.48"/><path class="cls-19" d="M211.102 155.83h3.12v8.64h-3.12"/><path class="cls-14" d="M214.462 158.471l-2.64-2.64M214.462 162.311l-3.12-3.12M212.302 164.471l-.96-1.2M213.502 164.471l.96-.72M211.342 162.791l3.12-3.12M211.342 158.711l2.88-2.88"/><path class="cls-19" d="M246.862 155.83h-3.12v8.64h3.12"/><path class="cls-14" d="M247.102 158.951l-3.12-3.12M247.102 163.031l-3.12-3.12M244.462 164.471l-.48-.48M245.662 164.471l1.44-1.44M243.982 162.071l3.12-3.12M243.982 158.231l2.16-2.4"/><path class="cls-16" d="M214.222 155.831v8.64M243.742 155.831v8.64M214.222 155.831v8.64M211.102 155.831h3.12M243.742 155.831v8.64M246.862 155.831h-3.12M211.102 165.911v-1.44M246.862 165.911v-1.44M211.102 155.831h3.12M246.862 155.831h-3.12M214.222 164.471h-3.12M243.742 164.471h3.12"/><path class="cls-14" d="M153.814 11.534c0 11.04 9.084 20.126 20.126 20.126M173.902 31.751v-20.16"/><path class="cls-5" d="M153.742 11.59l-.24 3.84-1.2 3.84-1.92 3.36-2.4 3.12-3.12 2.4-3.36 1.92-3.84 1.2-4.08.48"/><path class="cls-12" d="M133.582 31.751v-20.16"/><path class="cls-14" d="M48.081 11.647a19.023 19.023 0 0 1-1.452 7.261 19.057 19.057 0 0 1-5.5 7.411 19.086 19.086 0 0 1-4.778 2.868 19.02 19.02 0 0 1-7.262 1.452M29.182 30.551v-18.96M48.142 11.591v1.44M48.142 14.471l.24.96M48.382 15.431l.24.48"/><path class="cls-9" d="M48.862 17.111l.72 1.68"/><path class="cls-14" d="M50.062 19.991l.24.72M50.302 20.711l.48.48"/><path class="cls-10" d="M51.262 22.151l1.2 1.44"/><path class="cls-14" d="M53.422 24.791l.24.24M53.662 25.031l.96.72M55.582 26.711l.96.72"/><path class="cls-17" d="M56.542 27.431l1.68.96"/><path class="cls-14" d="M58.222 28.391l.96.48M60.622 29.351l.96.48M61.582 29.831h.24M63.262 30.311l1.44.24M66.142 30.551h.96"/><path class="cls-5" d="M67.102 30.551v-18.96"/><path class="cls-14" d="M67.102 12.071v-.48M44.396 332.416a19.04 19.04 0 0 0-.823-5.508 18.964 18.964 0 0 0-2.386-5.035 19.142 19.142 0 0 0-2.362-2.878c-.44-.44-.9-.857-1.38-1.253a19.282 19.282 0 0 0-3.095-2.069c-.549-.293-1.11-.559-1.684-.797a18.957 18.957 0 0 0-3.56-1.084 19.08 19.08 0 0 0-1.842-.276 19.242 19.242 0 0 0-1.86-.092M25.342 313.511v18.96M44.302 332.471l.24-1.44M44.542 329.591l.24-.96M44.782 328.631l.24-.48"/><path class="cls-9" d="M45.262 326.951l.48-1.68"/><path class="cls-14" d="M46.462 324.071l.24-.72M46.702 323.351l.48-.48M47.902 321.671l.72-1.2"/><path class="cls-11" d="M48.622 320.471l1.44-1.44"/><path class="cls-14" d="M50.062 319.031l.48-.48"/><path class="cls-4" d="M51.262 317.831l1.68-1.2"/><path class="cls-14" d="M53.902 315.911l.48-.24M54.382 315.671l.72-.24"/><path class="cls-10" d="M56.062 314.951l1.92-.72"/><path class="cls-14" d="M59.182 313.991l.48-.24M59.662 313.751h.96"/><path class="cls-8" d="M61.582 313.511h1.92"/><path class="cls-5" d="M63.502 313.511v18.96"/><path class="cls-14" d="M63.502 331.991v.48M173.94 312.29c-11.042 0-20.126 9.086-20.126 20.126M173.902 312.311v20.16"/><path class="cls-5" d="M133.582 312.31l4.08.48 3.84.96 3.36 1.92 3.12 2.4 2.4 3.12 1.92 3.6 1.2 3.6.24 4.08"/><path class="cls-12" d="M133.582 312.311v20.16"/><path class="cls-15" d="M177.262 183.671v.72M177.262 184.391v.72M177.262 185.111l-.24.96M177.022 186.071l-.24.24M176.302 187.751l-.24.24M175.342 188.951l-.48.72M174.862 189.671l-.72.48M174.142 190.151l-.48.48M173.662 190.631l-.48.24M171.982 191.591h-.24M170.302 191.831l-.72.24M169.582 192.071h-.72M168.862 192.071h-.96M167.902 192.071l-.48-.24M165.982 191.591h-.24M164.542 190.871l-.48-.24M164.062 190.631l-.72-.48M163.342 190.151l-.48-.48M162.862 189.671l-.48-.48M161.662 187.991l-.24-.24M160.942 186.311l-.24-.24M160.702 186.071l-.24-.96M160.462 185.111v-.72M160.462 184.391l-.24-.72M160.462 182.231v-.24M160.942 180.551v-.24M160.942 180.311l.48-.72M161.422 179.591l.24-.72M161.662 178.871l.72-.72M163.342 177.191v-.24M163.342 176.951h.24M164.782 176.231v-.24M164.782 175.991l.72-.24M165.502 175.751l.96-.24M166.462 175.511l.72-.24M167.182 175.271h.24M168.862 175.031h.24M170.542 175.271l.72.24M171.262 175.511l.72.24M171.982 175.751l.96.24M172.942 175.991l.24.24M174.142 176.951l.24.24M175.342 178.151l.48.72M175.822 178.871l.48.72M176.302 179.591l.48.72M176.782 180.311v.48M177.262 181.991v.24"/></g><g id="Mbel"><path class="cls-2" d="M34.942 69.431h56.64v45.36h-56.64zM34.942 137.351h56.64v15.6h-56.64zM120.142 44.471h22.56v51.12h-22.56zM152.681 94.149V81.393M144.175 94.149h8.506M152.681 81.393h-8.506M152.681 76.425V63.669M144.175 76.425h8.506M152.681 63.669h-8.506M152.681 58.702V45.946M144.175 58.702h8.506M152.681 45.946h-8.506M110.16 94.149V81.393M118.663 94.149h-8.503M110.16 81.393h8.503M110.16 76.425V63.669M118.663 76.425h-8.503M110.16 63.669h8.503M110.16 58.702V45.946M118.663 58.702h-8.503M110.16 45.946h8.503M98.782 228.311h10.8v56.64h-10.8zM135.022 242.471h14.16v28.32h-14.16zM147.811 223.837a79.14 79.14 0 0 0-.592-11.966 2.374 2.374 0 0 0-1.721-1.995 17.558 17.558 0 0 0-9.478 0 2.377 2.377 0 0 0-1.72 1.995 79.45 79.45 0 0 0-.593 11.966l.002.08.077.016c.672.166 1.358.262 2.05.288 3.28.13 6.566.13 9.849 0a10.213 10.213 0 0 0 2.05-.288l.074-.017.002-.079"/><path class="cls-2" d="M148.272 222.788c.267-.21.485-.475.64-.775a8.834 8.834 0 0 0 1.002-4.397c-.07-2.05-.32-4.092-.747-6.098a16.3 16.3 0 0 0-1.48-4.126 2.884 2.884 0 0 0-1.908-1.48 22.08 22.08 0 0 0-10.037 0 2.883 2.883 0 0 0-1.91 1.48 16.392 16.392 0 0 0-1.481 4.126 34.999 34.999 0 0 0-.747 6.098 8.86 8.86 0 0 0 1 4.397c.16.3.378.564.642.775M180.175 283.206h-18.708a.776.776 0 0 1-.165-.017.772.772 0 0 1-.307-.127.892.892 0 0 1-.236-.233.73.73 0 0 1-.076-.148.872.872 0 0 1-.05-.159.967.967 0 0 1-.015-.166v-24.945c0-.055.005-.11.014-.166a.957.957 0 0 1 .127-.307c.032-.046.068-.089.106-.13a1.08 1.08 0 0 1 .13-.105.96.96 0 0 1 .307-.127.963.963 0 0 1 .165-.015h18.708v26.645"/><path class="cls-2" d="M183.862 287.742h-22.395a.954.954 0 0 1-.326-.065.861.861 0 0 1-.509-.619.974.974 0 0 1-.014-.168v-2.834c0-.056.005-.11.014-.166a.87.87 0 0 1 .05-.158.729.729 0 0 1 .183-.276.891.891 0 0 1 .276-.185.773.773 0 0 1 .16-.048.774.774 0 0 1 .166-.017h22.395c.055 0 .11.005.165.017a.78.78 0 0 1 .305.127.692.692 0 0 1 .13.106.88.88 0 0 1 .25.6v2.834a.843.843 0 0 1-.25.602.857.857 0 0 1-.6.25M180.175 256.561h3.687a.857.857 0 0 0 .85-.852v-24.943a.843.843 0 0 0-.25-.602.858.858 0 0 0-.6-.25h-3.687M177.982 229.991v53.28"/><path class="cls-2" d="M180.175 229.914h-18.708a.843.843 0 0 0-.784.526.842.842 0 0 0-.065.326v24.943c0 .113.021.223.065.327.04.103.103.196.182.276a.858.858 0 0 0 .602.25h18.708v-26.648"/><path class="cls-2" d="M183.862 225.378h-22.395a.97.97 0 0 0-.165.017.864.864 0 0 0-.67.67.946.946 0 0 0-.014.165v2.834a.851.851 0 0 0 .85.85h22.394a.84.84 0 0 0 .6-.25.823.823 0 0 0 .25-.6v-2.834a.843.843 0 0 0-.25-.602.857.857 0 0 0-.6-.25M180.175 256.561h3.687c.11 0 .22.022.324.065.103.04.197.103.276.182a.858.858 0 0 1 .25.603v24.945a.84.84 0 0 1-.25.6.857.857 0 0 1-.6.25h-3.687M64.222 272.951h7.68v11.28h-7.68zM71.902 255.911h19.92v45.36h-19.92zM8.782 221.831h56.64v28.32H8.782zM8.782 274.871h15.6v51.12h-15.6z"/></g><g id="Text"><path d="M112.312 123.004h-.67v-5.333h.67v2.454l2.072-2.454h.807l-2.223 2.638 2.223 2.695h-.855l-2.024-2.463v2.463zM119.33 121.173c0 1.08-.831 1.918-1.887 1.918-1.096 0-1.863-.799-1.863-1.935 0-1.143.767-1.926 1.888-1.926 1.086 0 1.862.807 1.862 1.943zm-3.126-.008c0 .815.504 1.367 1.255 1.367.727 0 1.248-.568 1.248-1.367 0-.824-.496-1.376-1.24-1.376-.76 0-1.263.552-1.263 1.376zM123.343 122.548c-.417.375-.825.543-1.36.543-1.056 0-1.807-.799-1.807-1.918 0-1.144.76-1.943 1.838-1.943.529 0 .96.175 1.344.551l-.391.392c-.28-.256-.592-.384-.936-.384-.728 0-1.231.56-1.231 1.36 0 .815.503 1.383 1.223 1.383.36 0 .648-.12.944-.4l.376.416zM124.885 119.83c.334-.416.67-.6 1.11-.6.32 0 .656.128.856.336.2.2.287.487.287.959v2.479h-.607v-2.447c0-.504-.248-.784-.688-.784a.94.94 0 0 0-.72.328c-.183.208-.239.392-.239.744v2.159h-.608v-5.333h.608v2.158zM128.867 121.357c.031.311.088.471.24.671.24.328.591.504.99.504.456 0 .888-.248 1.104-.632l.536.2c-.304.615-.936.991-1.64.991-1.094 0-1.879-.799-1.879-1.918 0-1.136.776-1.943 1.856-1.943 1.071 0 1.871.807 1.871 1.887 0 .048 0 .152-.008.24h-3.07zm2.43-.448c-.024-.288-.08-.448-.207-.632a1.268 1.268 0 0 0-1.016-.504c-.408 0-.775.192-.991.512-.113.176-.16.328-.208.624h2.422zM133.619 119.318v.52c.32-.433.64-.608 1.096-.608.336 0 .64.111.855.303.232.224.313.48.313.984v2.487h-.609v-2.351c0-.328-.04-.504-.136-.632-.11-.152-.328-.248-.575-.248a.916.916 0 0 0-.704.312c-.176.192-.24.368-.24.672v2.247h-.608v-3.686h.608zM137.164 124.275l-.44-.136.671-1.943.576.184-.807 1.895zM142.299 120.029h2.102v.576H142.3v1.823h2.102v.576h-2.774v-5.333h2.774v.575H142.3v1.783zM147.326 120.325v-.04c0-.344-.28-.56-.703-.56-.408 0-.664.208-.664.528s.16.44.823.624c.472.128.72.248.895.423.185.185.296.448.296.72 0 .64-.527 1.071-1.31 1.071-.84 0-1.312-.391-1.376-1.135h.6c.04.416.312.64.776.64.415 0 .687-.216.687-.544 0-.32-.208-.48-.84-.64-.8-.216-1.159-.551-1.159-1.111 0-.64.52-1.071 1.295-1.071.784 0 1.256.4 1.287 1.095h-.607zM150.87 120.325v-.04c0-.344-.28-.56-.703-.56-.408 0-.664.208-.664.528s.16.44.823.624c.473.128.72.248.895.423.185.185.296.448.296.72 0 .64-.527 1.071-1.31 1.071-.84 0-1.312-.391-1.376-1.135h.6c.04.416.312.64.776.64.415 0 .687-.216.687-.544 0-.32-.208-.48-.84-.64-.8-.216-1.159-.551-1.159-1.111 0-.64.52-1.071 1.295-1.071.784 0 1.256.4 1.287 1.095h-.607zM153.011 121.357c.033.311.09.471.24.671.24.328.592.504.992.504.456 0 .888-.248 1.103-.632l.537.2c-.304.615-.936.991-1.64.991-1.095 0-1.879-.799-1.879-1.918 0-1.136.776-1.943 1.855-1.943 1.072 0 1.872.807 1.872 1.887 0 .048 0 .152-.01.24h-3.07zm2.432-.448c-.024-.288-.08-.448-.208-.632a1.268 1.268 0 0 0-1.016-.504c-.408 0-.775.192-.99.512-.113.176-.16.328-.209.624h2.423zM157.765 119.318v.52c.32-.433.639-.608 1.095-.608.336 0 .64.111.856.303.232.224.312.48.312.984v2.487h-.608v-2.351c0-.328-.04-.504-.136-.632-.112-.152-.328-.248-.575-.248a.916.916 0 0 0-.704.312c-.176.192-.24.368-.24.672v2.247h-.608v-3.686h.608zM161.31 124.275l-.441-.136.672-1.943.576.184-.808 1.895zM117.126 126.67h.696l-1.632 5.334h-.592l-1.174-4.19-1.184 4.19h-.592l-1.63-5.333h.711l1.215 4.085 1.184-4.085h.631l1.143 4.101 1.224-4.101zM121.933 130.173c0 1.08-.83 1.918-1.886 1.918-1.096 0-1.864-.799-1.864-1.935 0-1.143.768-1.926 1.888-1.926 1.087 0 1.862.807 1.862 1.943zm-3.126-.008c0 .815.504 1.367 1.255 1.367.728 0 1.248-.568 1.248-1.367 0-.824-.496-1.376-1.239-1.376-.76 0-1.264.552-1.264 1.376zM123.646 128.83c.336-.416.672-.6 1.113-.6.319 0 .655.128.855.336.2.2.287.487.287.959v2.479h-.607v-2.447c0-.504-.248-.784-.688-.784a.94.94 0 0 0-.72.328c-.183.208-.24.392-.24.744v2.159h-.607v-5.333h.607v2.158zM127.851 128.318v.52c.32-.433.64-.608 1.096-.608.336 0 .64.111.855.303.233.224.313.48.313.984v2.487h-.608v-2.351c0-.328-.04-.504-.136-.632-.111-.152-.328-.248-.575-.248a.916.916 0 0 0-.704.312c-.176.192-.24.368-.24.672v2.247h-.608v-3.686h.607zM131.842 130.357c.032.311.088.471.24.671.24.328.592.504.991.504.456 0 .888-.248 1.103-.632l.537.2c-.304.615-.936.991-1.64.991-1.095 0-1.879-.799-1.879-1.918 0-1.136.776-1.943 1.856-1.943 1.07 0 1.87.807 1.87 1.887 0 .048 0 .152-.008.24h-3.07zm2.431-.448c-.024-.288-.08-.448-.208-.632a1.268 1.268 0 0 0-1.015-.504c-.409 0-.776.192-.992.512-.112.176-.16.328-.208.624h2.423zM136.595 128.318v.52c.32-.433.64-.608 1.095-.608.336 0 .64.111.856.303.232.224.312.48.312.984v2.487h-.608v-2.351c0-.328-.04-.504-.136-.632-.112-.152-.328-.248-.575-.248a.916.916 0 0 0-.704.312c-.176.192-.24.368-.24.672v2.247h-.608v-3.686h.608zM111.552 136.326v-.575h3.023l-1.566 1.99c.926 0 1.583.664 1.583 1.607 0 1-.752 1.743-1.768 1.743-.839 0-1.439-.471-1.623-1.279l.576-.104c.144.512.52.8 1.016.8.647 0 1.159-.488 1.159-1.111 0-.64-.48-1.088-1.176-1.088-.248 0-.407.048-.64.184l-.263-.232 1.543-1.935h-1.864zM118.435 138.453c.264.264.4.616.4 1.032 0 .943-.696 1.614-1.671 1.614-.967 0-1.647-.647-1.647-1.559 0-.423.144-.807.4-1.071.168-.176.303-.256.624-.36-.28-.096-.4-.176-.544-.352a1.228 1.228 0 0 1-.272-.783c0-.76.623-1.32 1.471-1.32.84 0 1.447.552 1.447 1.312 0 .304-.103.591-.296.815-.143.16-.255.232-.527.328.304.096.447.168.615.344zm-2.286 1.023c0 .568.455 1.032 1.024 1.032.567 0 1.023-.464 1.023-1.032 0-.56-.456-1.031-1.008-1.031a1.03 1.03 0 0 0-1.039 1.031zm.184-2.494c0 .456.376.816.847.816.456 0 .864-.376.864-.808 0-.416-.392-.776-.848-.776-.512 0-.863.32-.863.768zM120.735 140.66a.406.406 0 0 1-.415.408.403.403 0 0 1-.416-.416c0-.24.176-.416.416-.416s.415.176.415.424zM121.666 139.804v-.496l2.75-3.71v3.63h.624v.576h-.623v1.2h-.616v-1.2h-2.135zm2.135-2.614l-1.496 2.039h1.496v-2.04zM128.265 137.318v.511c.28-.424.592-.6 1.048-.6.504 0 .823.216.991.672.273-.472.617-.671 1.168-.671.424 0 .744.135.936.391.176.232.224.44.224 1.024v2.359h-.608v-2.215c0-.448-.016-.552-.104-.704-.112-.192-.352-.312-.64-.312-.535 0-.831.36-.831 1.016v2.215h-.608v-2.207c0-.36-.032-.544-.12-.704-.104-.208-.328-.32-.6-.32-.535 0-.856.384-.856 1.024v2.207h-.607v-3.686h.607zM135.857 138.501v.408h-1.951l1.184-1.615c.336-.456.407-.592.407-.768 0-.256-.216-.44-.528-.44-.351 0-.496.176-.503.592h-.44c.024-.648.36-.991.976-.991.56 0 .95.335.95.807 0 .272-.103.52-.383.88l-.848 1.127h1.136z"/><g><path d="M36.876 50.528v.576H33.06l3.015-4.758h-2.679v-.575h3.79l-3.013 4.757h2.702zM38.717 46.386c0 .216-.177.384-.393.384s-.384-.168-.384-.392.168-.392.393-.392c.216 0 .384.176.384.4zm-.088 4.718h-.609v-3.686h.609v3.686zM40.59 47.418v.511c.279-.423.59-.6 1.046-.6.504 0 .824.217.992.672.272-.472.616-.671 1.168-.671.423 0 .743.135.935.391.176.232.224.44.224 1.024v2.359h-.608v-2.215c0-.448-.016-.552-.104-.704-.111-.192-.352-.312-.64-.312-.535 0-.83.36-.83 1.016v2.215h-.61v-2.207c0-.36-.03-.544-.118-.703-.105-.208-.328-.32-.6-.32-.536 0-.855.383-.855 1.023v2.207h-.609v-3.686h.609zM46.91 47.418v.511c.28-.423.592-.6 1.048-.6.504 0 .823.217.99.672.273-.472.617-.671 1.169-.671.424 0 .743.135.935.391.176.232.224.44.224 1.024v2.359h-.607v-2.215c0-.448-.017-.552-.105-.704-.111-.192-.351-.312-.64-.312-.535 0-.83.36-.83 1.016v2.215h-.609v-2.207c0-.36-.031-.544-.12-.703-.104-.208-.327-.32-.599-.32-.536 0-.856.383-.856 1.023v2.207h-.608v-3.686h.608zM53.008 49.457c.032.311.088.471.24.671.24.328.592.504.991.504.456 0 .888-.248 1.104-.632l.536.2c-.304.616-.936.992-1.64.992-1.095 0-1.879-.8-1.879-1.92 0-1.135.776-1.942 1.856-1.942 1.07 0 1.87.807 1.87 1.887 0 .048 0 .152-.008.24h-3.07zm2.431-.448c-.024-.288-.08-.448-.208-.632a1.268 1.268 0 0 0-1.015-.504c-.409 0-.776.193-.992.512-.112.176-.16.328-.208.624h2.423zM57.761 47.418v.623c.112-.263.192-.375.335-.487.185-.144.44-.224.705-.224h.143v.615c-.063-.007-.128-.007-.168-.007a.945.945 0 0 0-.799.423c-.16.232-.216.448-.216.872v1.87h-.608v-3.685h.608zM33.845 56.522v-.608l1.807-1.183v5.373h-.632v-4.366l-1.175.784zM37.051 58.904v-.496l2.751-3.71v3.63h.624v.576h-.624v1.2h-.616v-1.2h-2.135zm2.135-2.614l-1.495 2.039h1.495v-2.04zM42.234 59.76a.406.406 0 0 1-.415.408.403.403 0 0 1-.416-.416c0-.24.176-.416.416-.416s.415.176.415.424zM43.457 55.442v-.591h2.958l-2.11 5.253h-.688l1.887-4.662h-2.047zM49.695 56.418v.511c.28-.423.592-.6 1.048-.6.504 0 .823.217.991.672.273-.472.616-.671 1.168-.671.424 0 .743.135.936.391.175.232.223.44.223 1.024v2.359h-.607v-2.215c0-.448-.017-.552-.105-.704-.111-.192-.351-.312-.64-.312-.534 0-.83.36-.83 1.016v2.215h-.609v-2.207c0-.36-.031-.544-.119-.703-.104-.208-.328-.32-.6-.32-.536 0-.856.383-.856 1.023v2.207h-.607v-3.686h.607zM57.288 57.601v.408h-1.951l1.183-1.615c.336-.456.407-.592.407-.768 0-.256-.215-.44-.527-.44-.351 0-.496.176-.504.592h-.44c.024-.647.36-.991.976-.991.56 0 .952.335.952.807 0 .272-.104.52-.384.88l-.848 1.127h1.136z"/></g><g><path d="M36.876 267.344v.576H33.06l3.015-4.757h-2.679v-.576h3.79l-3.013 4.757h2.702zM38.717 263.203c0 .216-.177.384-.393.384s-.384-.168-.384-.393c0-.223.168-.391.393-.391.216 0 .384.176.384.4zm-.088 4.717h-.609v-3.686h.609v3.686zM40.59 264.234v.512c.279-.424.59-.6 1.046-.6.504 0 .824.216.992.672.272-.472.616-.672 1.168-.672.423 0 .743.136.935.392.176.232.224.44.224 1.023v2.36h-.608v-2.216c0-.448-.016-.552-.104-.703-.111-.192-.352-.312-.64-.312-.535 0-.83.36-.83 1.015v2.215h-.61v-2.207c0-.36-.03-.543-.118-.703-.105-.208-.328-.32-.6-.32-.536 0-.855.383-.855 1.023v2.207h-.609v-3.686h.609zM46.91 264.234v.512c.28-.424.592-.6 1.048-.6.504 0 .823.216.99.672.273-.472.617-.672 1.169-.672.424 0 .743.136.935.392.176.232.224.44.224 1.023v2.36h-.607v-2.216c0-.448-.017-.552-.105-.703-.111-.192-.351-.312-.64-.312-.535 0-.83.36-.83 1.015v2.215h-.609v-2.207c0-.36-.031-.543-.12-.703-.104-.208-.327-.32-.599-.32-.536 0-.856.383-.856 1.023v2.207h-.608v-3.686h.608zM53.008 266.273c.032.312.088.472.24.671.24.329.592.504.991.504.456 0 .888-.248 1.104-.631l.536.2c-.304.615-.936.991-1.64.991-1.095 0-1.879-.8-1.879-1.919 0-1.135.776-1.943 1.856-1.943 1.07 0 1.87.808 1.87 1.887 0 .048 0 .152-.008.24h-3.07zm2.431-.448c-.024-.288-.08-.447-.208-.631a1.268 1.268 0 0 0-1.015-.504c-.409 0-.776.192-.992.511-.112.177-.16.328-.208.624h2.423zM57.761 264.234v.624c.112-.264.192-.376.335-.488.185-.144.44-.224.705-.224h.143v.616c-.063-.008-.128-.008-.168-.008a.945.945 0 0 0-.799.423c-.16.232-.216.448-.216.872v1.871h-.608v-3.686h.608zM33.845 273.338v-.607l1.807-1.184v5.373h-.632v-4.366l-1.175.784zM37.36 273.338v-.607l1.806-1.184v5.373h-.632v-4.366l-1.175.784zM41.734 276.576a.406.406 0 0 1-.415.408.403.403 0 0 1-.416-.415c0-.24.176-.417.416-.417s.415.176.415.424zM45.464 272.194h-1.72v1.432c.272-.104.513-.152.784-.152.936 0 1.64.736 1.64 1.735 0 1.024-.752 1.767-1.8 1.767-.751 0-1.318-.392-1.59-1.095l.575-.216c.128.232.184.327.272.407.168.168.464.272.76.272.64 0 1.126-.495 1.126-1.151 0-.68-.48-1.135-1.182-1.135-.416 0-.84.192-1.184.543v-3.014h2.319v.607zM49.418 273.234v.512c.279-.424.59-.6 1.047-.6.503 0 .823.216.99.672.273-.472.617-.672 1.169-.672.424 0 .743.136.935.392.176.232.224.44.224 1.023v2.36h-.607v-2.216c0-.448-.017-.552-.105-.703-.111-.192-.352-.312-.64-.312-.535 0-.83.36-.83 1.015v2.215h-.61v-2.207c0-.36-.03-.543-.118-.703-.105-.208-.328-.32-.6-.32-.536 0-.855.383-.855 1.023v2.207h-.609v-3.686h.609zM57.009 274.418v.407h-1.952l1.184-1.615c.336-.455.407-.592.407-.767 0-.256-.216-.44-.527-.44-.352 0-.496.176-.504.591h-.44c.024-.647.36-.99.976-.99.56 0 .951.335.951.806 0 .272-.103.52-.384.88l-.847 1.128h1.136z"/></g><g><path d="M115.164 366.055c1.087 0 1.703.512 1.703 1.415 0 .344-.104.648-.303.871-.128.153-.256.233-.544.344.296.065.44.12.607.248.288.233.44.592.44 1.024 0 .496-.216.927-.576 1.159-.311.2-.655.272-1.327.272h-1.503v-5.333h1.503zm-.832 2.399l.68-.008c.424 0 .68-.057.872-.208a.937.937 0 0 0 .327-.735c0-.344-.168-.649-.424-.768-.191-.097-.415-.128-.903-.128h-.552v1.847zm0 2.39h.672c.56 0 .776-.04 1.008-.175.256-.144.384-.4.384-.752 0-.64-.376-.92-1.224-.92h-.84v1.847zM121.054 367.702h.608v3.686h-.608v-.712c-.367.552-.783.8-1.343.8-1.015 0-1.735-.8-1.735-1.919 0-1.128.736-1.943 1.75-1.943.56 0 .969.216 1.328.696v-.608zm-2.135.895a1.689 1.689 0 0 0-.304.976c0 .784.512 1.375 1.184 1.375.695 0 1.264-.648 1.264-1.439 0-.8-.512-1.351-1.248-1.351-.4 0-.68.136-.896.44zM123.02 371.388v-5.333h.608v5.333h-.607zM125.587 371.388h-.608v-5.333h.608v3.262l1.47-1.615h.768l-1.647 1.8 1.64 1.886h-.76l-1.47-1.647v1.647zM132.015 369.557c0 1.08-.831 1.92-1.887 1.92-1.096 0-1.863-.8-1.863-1.936 0-1.143.767-1.927 1.888-1.927 1.086 0 1.862.808 1.862 1.943zm-3.126-.008c0 .816.504 1.368 1.255 1.368.727 0 1.248-.569 1.248-1.368 0-.824-.496-1.376-1.24-1.376-.76 0-1.263.552-1.263 1.376zM133.728 367.702v.52c.32-.432.64-.608 1.095-.608.336 0 .64.112.856.304.232.224.312.48.312.983v2.487h-.608v-2.35c0-.328-.04-.504-.136-.632-.111-.152-.328-.248-.575-.248a.916.916 0 0 0-.704.311c-.176.193-.24.369-.24.672v2.247h-.608v-3.686h.608zM115.955 375.663h-1.718v1.431c.271-.104.511-.152.783-.152.935 0 1.64.735 1.64 1.735 0 1.024-.753 1.767-1.8 1.767-.751 0-1.319-.392-1.591-1.096l.576-.216c.128.233.184.329.271.409.168.168.464.271.76.271.64 0 1.127-.495 1.127-1.151 0-.68-.48-1.135-1.182-1.135-.417 0-.84.191-1.184.543v-3.014h2.318v.608zM118.52 380.045a.406.406 0 0 1-.415.407.403.403 0 0 1-.416-.415c0-.24.175-.416.416-.416.239 0 .415.176.415.424zM122.822 378.78c0 .6-.113.969-.376 1.248-.28.296-.704.448-1.207.448-.52 0-.952-.16-1.232-.464-.28-.296-.352-.6-.352-1.407v-1.759c0-.696.08-1.023.32-1.311.264-.32.704-.496 1.247-.496.488 0 .888.136 1.183.4.304.28.417.6.417 1.223v2.119zm-2.535-.135c0 .615.024.728.2.928.168.191.456.311.76.311.327 0 .631-.135.783-.351.12-.176.167-.4.167-.792v-2.04c0-.414-.07-.622-.271-.815a1 1 0 0 0-.68-.248c-.343 0-.64.137-.792.384-.135.192-.167.376-.167.84v1.783zM126.152 376.702v.512c.279-.424.59-.6 1.046-.6.504 0 .824.216.992.672.272-.472.616-.672 1.168-.672.423 0 .743.136.935.392.176.232.224.44.224 1.023v2.36h-.608v-2.215c0-.449-.016-.552-.104-.705-.111-.191-.352-.311-.64-.311-.535 0-.83.36-.83 1.016v2.214h-.61v-2.207c0-.36-.03-.544-.118-.703-.105-.208-.328-.32-.6-.32-.536 0-.855.384-.855 1.023v2.207h-.609v-3.686h.609zM133.742 377.885v.409h-1.95l1.183-1.616c.336-.456.407-.591.407-.767 0-.256-.216-.44-.527-.44-.352 0-.496.176-.504.591h-.44c.024-.647.36-.991.976-.991.56 0 .951.336.951.808 0 .271-.103.52-.384.88l-.847 1.126h1.135z"/></g><g><path d="M35.06 188.982c1.086 0 1.702.511 1.702 1.415 0 .343-.104.648-.303.871-.128.152-.256.232-.544.344.296.064.44.12.607.248.288.232.44.592.44 1.023 0 .496-.216.928-.576 1.16-.311.2-.655.272-1.327.272h-1.503v-5.333h1.503zm-.833 2.398l.68-.008c.424 0 .68-.056.872-.208a.937.937 0 0 0 .327-.735c0-.344-.168-.648-.424-.768-.191-.096-.415-.128-.903-.128h-.552v1.847zm0 2.39h.672c.56 0 .776-.039 1.008-.175.256-.144.384-.4.384-.752 0-.64-.376-.919-1.224-.919h-.84v1.847zM40.95 190.629h.607v3.686h-.607v-.712c-.368.551-.784.8-1.344.8-1.015 0-1.735-.8-1.735-1.92 0-1.127.736-1.942 1.75-1.942.561 0 .969.215 1.329.695v-.607zm-2.136.895a1.686 1.686 0 0 0-.304.976c0 .783.512 1.375 1.184 1.375.695 0 1.264-.648 1.264-1.44 0-.8-.512-1.35-1.248-1.35-.4 0-.68.135-.896.44zM45.73 188.982h.607v5.333h-.608v-.632c-.368.504-.76.72-1.32.72-1.015 0-1.734-.792-1.734-1.912 0-1.119.736-1.95 1.735-1.95.544 0 .96.2 1.32.647v-2.206zm-2.416 3.518c0 .807.488 1.375 1.184 1.375.712 0 1.231-.592 1.231-1.391 0-.832-.488-1.4-1.191-1.4-.728 0-1.224.576-1.224 1.416zM35.85 198.589h-1.718v1.432c.271-.104.511-.153.783-.153.935 0 1.64.736 1.64 1.736 0 1.023-.753 1.767-1.8 1.767-.751 0-1.319-.392-1.591-1.096l.576-.216c.128.232.184.328.271.408.168.168.464.272.76.272.64 0 1.128-.496 1.128-1.151 0-.68-.48-1.136-1.183-1.136-.416 0-.84.192-1.184.544v-3.014h2.318v.607zM38.415 202.97a.406.406 0 0 1-.415.409.403.403 0 0 1-.416-.416c0-.24.175-.416.416-.416.239 0 .415.176.415.424zM42.717 201.708c0 .6-.113.967-.376 1.247-.28.296-.704.447-1.207.447-.52 0-.952-.16-1.232-.463-.28-.296-.351-.6-.351-1.408v-1.758c0-.696.08-1.024.319-1.312.264-.32.704-.496 1.248-.496.487 0 .887.137 1.183.4.303.28.416.6.416 1.224v2.119zm-2.535-.137c0 .616.024.728.2.928.168.192.456.312.76.312.327 0 .631-.136.783-.352.12-.176.168-.4.168-.791v-2.04c0-.415-.072-.623-.272-.815a1 1 0 0 0-.68-.248c-.343 0-.64.136-.79.384-.137.192-.169.376-.169.84v1.782zM46.046 199.629v.511c.28-.424.591-.6 1.047-.6.504 0 .824.216.992.672.272-.472.616-.671 1.168-.671.423 0 .743.135.935.391.176.232.224.44.224 1.024v2.359h-.608V201.1c0-.448-.016-.552-.104-.704-.111-.192-.352-.312-.64-.312-.535 0-.83.36-.83 1.016v2.215h-.61v-2.207c0-.36-.03-.544-.118-.704-.105-.208-.328-.32-.6-.32-.536 0-.856.384-.856 1.024v2.207h-.608v-3.686h.608zM53.637 200.812v.408h-1.95l1.183-1.615c.336-.456.407-.592.407-.768 0-.256-.216-.44-.527-.44-.352 0-.496.176-.504.592h-.44c.024-.648.36-.991.976-.991.56 0 .951.335.951.807 0 .272-.103.52-.384.88l-.847 1.127h1.135z"/></g><g><path d="M226.055 195.001v.608h-2.55v-5.333h.671V195h1.879zM227.703 190.891c0 .216-.176.384-.392.384s-.384-.168-.384-.392.168-.392.393-.392c.215 0 .383.176.383.4zm-.088 4.718h-.608v-3.686h.608v3.686zM229.667 195.609h-.607v-3.15h-.504v-.536h.504v-.496c0-.728.376-1.16 1.015-1.16.032 0 .104 0 .167.009v.543c-.439.048-.56.176-.575.608v.496h.575v.535h-.575v3.15zM232.051 194.857c.009.184.057.224.28.224h.28v.528h-.568c-.431-.008-.6-.168-.6-.576v-2.575h-.511v-.535h.512v-1.16h.607v1.16h.56v.535h-.56v2.4z"/></g></g></svg>