<svg xmlns="http://www.w3.org/2000/svg" viewBox="0 0 320.61261 309.8126"><defs><style>.cls-1,.cls-10,.cls-11,.cls-12,.cls-13,.cls-14,.cls-15,.cls-16,.cls-17,.cls-2,.cls-3,.cls-4,.cls-5,.cls-6,.cls-7,.cls-8,.cls-9{fill:none;stroke-linecap:round;stroke-linejoin:round}.cls-1,.cls-10,.cls-11,.cls-12,.cls-13,.cls-14,.cls-15,.cls-17,.cls-2,.cls-3,.cls-4,.cls-5,.cls-7,.cls-8,.cls-9{stroke-width:.14173px}.cls-1,.cls-13,.cls-15,.cls-16,.cls-3,.cls-7{stroke:#194164}.cls-1,.cls-7{stroke-dasharray:0 0 0 0 2.88 1.44 .24 1.44}.cls-2{stroke:#646464}.cls-3{stroke-dashoffset:.96px}.cls-10,.cls-11,.cls-12,.cls-13,.cls-17,.cls-3,.cls-4,.cls-5,.cls-8,.cls-9{stroke-dasharray:0 0 1.44 1.44}.cls-4{stroke-dashoffset:2.45822px}.cls-10,.cls-11,.cls-12,.cls-14,.cls-17,.cls-4,.cls-5,.cls-8,.cls-9{stroke:#969696}.cls-18,.cls-19{fill:#fff}.cls-6{stroke:#000;stroke-width:.288px}.cls-7{stroke-dashoffset:1.92px}.cls-8{stroke-dashoffset:2.42954px}.cls-9{stroke-dashoffset:2.66376px}.cls-10{stroke-dashoffset:2.5133px}.cls-11{stroke-dashoffset:1.39943px}.cls-12{stroke-dashoffset:.72px}.cls-19,.cls-20{fill-rule:evenodd}.cls-13{stroke-dashoffset:.24px}.cls-16{stroke-width:.28346px}.cls-17{stroke-dashoffset:1.2px}</style></defs><g id="Plan"><path class="cls-14" d="M234.142 259.822h59.28v3.6h-59.28z"/><path class="cls-15" d="M255.502 12.382h-40.08"/><path class="cls-6" d="M255.502 13.102h-40.08"/><path class="cls-15" d="M255.502 10.942h-40.08M255.502 12.382h-40.08"/><path class="cls-6" d="M215.422 12.382v.72"/><path class="cls-15" d="M215.422 10.942v1.44M255.502 13.102h-40.08M255.502 10.942h-40.08"/><path class="cls-19" d="M215.422 39.982l-6.96 7.2v2.64h6.96v-9.84"/><path class="cls-14" d="M215.662 42.382l-1.2-1.2M215.662 46.462l-3.36-3.12M214.942 49.822l-4.56-4.56M210.862 49.822l-2.16-2.4M215.422 49.822h.24M211.342 49.822l4.32-4.08M208.702 48.622l6.96-6.96"/><path class="cls-19" d="M215.422 39.982l-6.96 7.2v2.64h6.96v-9.84"/><path class="cls-14" d="M215.662 42.382l-1.2-1.2M215.662 46.462l-3.36-3.12M214.942 49.822l-4.56-4.56M210.862 49.822l-2.16-2.4M215.422 49.822h.24M211.342 49.822l4.32-4.08M208.702 48.622l6.96-6.96"/><path class="cls-16" d="M215.422 49.822v-9.84M208.462 49.822v-2.64M208.462 49.822v-2.64M215.422 49.822v-9.84"/><path class="cls-19" d="M208.462 81.982v66.72l6.96 6.96v-73.68h-6.96"/><path class="cls-14" d="M215.662 82.462l-.72-.48M215.662 86.542l-4.56-4.56M215.662 90.382l-6.96-6.96M215.662 94.462l-6.96-6.96M215.662 98.542l-6.96-6.96M215.662 102.622l-6.96-6.96M215.662 106.462l-6.96-6.96M215.662 110.542l-6.96-6.96M215.662 114.622l-6.96-6.96M215.662 118.462l-6.96-6.96M215.662 122.542l-6.96-6.96M215.662 126.622l-6.96-6.96M215.662 130.462l-6.96-6.96M215.662 134.542l-6.96-6.96M215.662 138.622l-6.96-6.96M215.662 142.702l-6.96-6.96M215.662 146.542l-6.96-6.96M215.662 150.622l-6.96-6.96M215.662 154.702l-6.96-6.96M214.702 154.702l.96-.72M212.782 152.782l2.88-2.88M210.622 150.862l5.04-5.04M208.702 148.702l6.96-6.72M208.702 144.862l6.96-6.96M208.702 140.782l6.96-6.96M208.702 136.942l6.96-6.96M208.702 132.862l6.96-6.96M208.702 128.782l6.96-6.96M208.702 124.942l6.96-6.96M208.702 120.862l6.96-6.96M208.702 116.782l6.96-6.96M208.702 112.702l6.96-6.96M208.702 108.862l6.96-6.96M208.702 104.782l6.96-6.96M208.702 100.702l6.96-6.96M208.702 96.862l6.96-6.96M208.702 92.782l6.96-6.96M208.702 88.702l6.72-6.72M208.702 84.622l2.64-2.64"/><path class="cls-19" d="M208.462 81.982v66.72l6.96 6.96v-73.68h-6.96"/><path class="cls-14" d="M215.662 82.462l-.72-.48M215.662 86.542l-4.56-4.56M215.662 90.382l-6.96-6.96M215.662 94.462l-6.96-6.96M215.662 98.542l-6.96-6.96M215.662 102.622l-6.96-6.96M215.662 106.462l-6.96-6.96M215.662 110.542l-6.96-6.96M215.662 114.622l-6.96-6.96M215.662 118.462l-6.96-6.96M215.662 122.542l-6.96-6.96M215.662 126.622l-6.96-6.96M215.662 130.462l-6.96-6.96M215.662 134.542l-6.96-6.96M215.662 138.622l-6.96-6.96M215.662 142.702l-6.96-6.96M215.662 146.542l-6.96-6.96M215.662 150.622l-6.96-6.96M215.662 154.702l-6.96-6.96M214.702 154.702l.96-.72M212.782 152.782l2.88-2.88M210.622 150.862l5.04-5.04M208.702 148.702l6.96-6.72M208.702 144.862l6.96-6.96M208.702 140.782l6.96-6.96M208.702 136.942l6.96-6.96M208.702 132.862l6.96-6.96M208.702 128.782l6.96-6.96M208.702 124.942l6.96-6.96M208.702 120.862l6.96-6.96M208.702 116.782l6.96-6.96M208.702 112.702l6.96-6.96M208.702 108.862l6.96-6.96M208.702 104.782l6.96-6.96M208.702 100.702l6.96-6.96M208.702 96.862l6.96-6.96M208.702 92.782l6.96-6.96M208.702 88.702l6.72-6.72M208.702 84.622l2.64-2.64"/><path class="cls-16" d="M215.422 155.662v-73.68M208.462 148.702v-66.72M208.462 148.702v-66.72M215.422 155.662v-73.68"/><path class="cls-15" d="M214.222 79.582h1.92v2.4h-1.92zM214.222 49.822h1.92v2.4h-1.92zM214.222 52.222h1.92v27.36h-1.92zM214.222 79.582v-27.36"/><path class="cls-1" d="M208.462 79.822v-27.84"/><path class="cls-15" d="M208.462 52.462v-.48"/><path class="cls-19" d="M208.462 81.982v-2.16h5.76v2.16"/><path class="cls-14" d="M214.462 81.262l-1.68-1.44M211.102 81.982l-2.16-2.16M211.342 81.982l2.16-2.16M208.702 80.782l.72-.96"/><path class="cls-19" d="M208.462 49.822v2.16h5.76v-2.16"/><path class="cls-14" d="M213.022 51.982l-2.16-2.16M209.182 51.982l-.48-.48M213.262 51.982l1.2-.96M209.182 51.982l2.16-2.16"/><path class="cls-16" d="M208.462 79.822h5.76M208.462 51.982h5.76M208.462 79.822h5.76M208.462 81.982v-2.16M208.462 51.982h5.76M208.462 49.822v2.16M215.422 81.982h-1.2M215.422 49.822h-1.2M208.462 81.982v-2.16M208.462 49.822v2.16M214.222 79.822v2.16M214.222 51.982v-2.16"/><path class="cls-14" d="M216.024 79.49c14.93 0 27.214-12.285 27.214-27.213M216.142 52.222h27.12"/><path class="cls-15" d="M313.102 85.342h-56.88"/><path class="cls-6" d="M313.102 86.062h-56.88"/><path class="cls-15" d="M313.102 83.902h-56.88M313.102 85.342h-56.88"/><path class="cls-6" d="M256.222 85.342v.72"/><path class="cls-15" d="M256.222 83.902v1.44M313.102 86.062h-56.88M313.102 83.902h-56.88"/><path class="cls-6" d="M313.102 85.342v.72"/><path class="cls-15" d="M313.102 83.902v1.44"/><path class="cls-20" d="M44.302 252.622v14.64H.142v-14.64h44.16"/><path class="cls-19" d="M44.302 267.262v-3.36H.142v3.36h44.16"/><path class="cls-14" d="M.382 264.142l3.12 3.12M4.222 263.902l3.36 3.36M8.062 263.902l3.36 3.36M12.142 263.902l3.36 3.36M16.222 263.902l3.36 3.36M20.062 263.902l3.36 3.36M24.142 263.902l3.36 3.36M28.222 263.902l3.36 3.36M32.062 263.902l3.36 3.36M36.142 263.902l3.36 3.36M40.222 263.902l3.36 3.36M44.302 263.902l.24.24"/><path class="cls-19" d="M44.302 263.902v-.48H.142v.48h44.16"/><path class="cls-19" d="M44.302 263.422v-5.76H.142v5.76h44.16"/><path class="cls-14" d="M1.342 257.662v5.76M2.782 257.662v5.76M4.222 257.662v5.76M5.662 257.662v5.76M7.102 257.662v5.76M8.302 257.662v5.76M9.742 257.662v5.76M11.182 257.662v5.76M12.622 257.662v5.76M14.062 257.662v5.76M15.502 257.662v5.76M16.942 257.662v5.76M18.382 257.662v5.76M19.822 257.662v5.76M21.262 257.662v5.76M22.702 257.662v5.76M23.902 257.662v5.76M25.342 257.662v5.76M26.782 257.662v5.76M28.222 257.662v5.76M29.662 257.662v5.76M31.102 257.662v5.76M32.542 257.662v5.76M33.982 257.662v5.76M35.422 257.662v5.76M36.862 257.662v5.76M38.302 257.662v5.76M39.502 257.662v5.76M40.942 257.662v5.76M42.382 257.662v5.76M43.822 257.662v5.76"/><path class="cls-19" d="M44.302 257.662v-5.04H.142v5.04h44.16"/><path class="cls-14" d="M.382 255.982l1.44 1.68M.862 252.622l5.04 5.04M4.942 252.622l5.04 5.04M8.782 252.622l5.04 5.04M12.862 252.622l5.04 5.04M16.942 252.622l5.04 5.04M20.782 252.622l5.04 5.04M24.862 252.622l5.04 5.04M28.942 252.622l5.04 5.04M33.022 252.622l5.04 5.04M36.862 252.622l5.04 5.04M40.942 252.622l3.6 3.6"/><path class="cls-16" d="M44.302 263.902H.142M44.302 267.262H.142"/><path class="cls-14" d="M44.302 257.662H.142M44.302 263.422H.142"/><path class="cls-16" d="M44.302 252.622H.142M44.302 257.662H.142"/><path class="cls-15" d="M44.302 267.262H.142M44.302 252.622H.142"/><path class="cls-20" d="M140.302 252.622v14.64h-55.2v-14.64h55.2"/><path class="cls-19" d="M140.302 267.262v-3.36h-55.2v3.36h55.2"/><path class="cls-14" d="M85.342 264.862l2.4 2.4M88.222 263.902l3.36 3.36M92.302 263.902l3.36 3.36M96.382 263.902l3.36 3.36M100.222 263.902l3.36 3.36M104.302 263.902l3.36 3.36M108.382 263.902l3.36 3.36M112.462 263.902l3.36 3.36M116.302 263.902l3.36 3.36M120.382 263.902l3.36 3.36M124.462 263.902l3.36 3.36M128.302 263.902l3.36 3.36M132.382 263.902l3.36 3.36M136.462 263.902l3.36 3.36M140.302 263.902h.24"/><path class="cls-19" d="M140.302 263.902v-.48h-55.2v.48h55.2"/><path class="cls-19" d="M140.302 263.422v-5.76h-55.2v5.76h55.2"/><path class="cls-14" d="M86.302 257.662v5.76M87.742 257.662v5.76M89.182 257.662v5.76M90.622 257.662v5.76M92.062 257.662v5.76M93.502 257.662v5.76M94.942 257.662v5.76M96.382 257.662v5.76M97.822 257.662v5.76M99.022 257.662v5.76M100.462 257.662v5.76M101.902 257.662v5.76M103.342 257.662v5.76M104.782 257.662v5.76M106.222 257.662v5.76M107.662 257.662v5.76M109.102 257.662v5.76M110.542 257.662v5.76M111.982 257.662v5.76M113.422 257.662v5.76M114.622 257.662v5.76M116.062 257.662v5.76M117.502 257.662v5.76M118.942 257.662v5.76M120.382 257.662v5.76M121.822 257.662v5.76M123.262 257.662v5.76M124.702 257.662v5.76M126.142 257.662v5.76M127.582 257.662v5.76M128.782 257.662v5.76M130.222 257.662v5.76M131.662 257.662v5.76M133.102 257.662v5.76M134.542 257.662v5.76M135.982 257.662v5.76M137.422 257.662v5.76M138.862 257.662v5.76M140.302 257.662v5.76"/><path class="cls-19" d="M140.302 257.662v-5.04h-55.2v5.04h55.2"/><path class="cls-14" d="M85.342 256.702l.72.96M85.342 252.862l4.8 4.8M88.942 252.622l5.04 5.04M93.022 252.622l5.04 5.04M97.102 252.622l5.04 5.04M101.182 252.622l5.04 5.04M105.022 252.622l5.04 5.04M109.102 252.622l5.04 5.04M113.182 252.622l5.04 5.04M117.022 252.622l5.04 5.04M121.102 252.622l5.04 5.04M125.182 252.622l5.04 5.04M129.022 252.622l5.04 5.04M133.102 252.622l5.04 5.04M137.182 252.622l3.36 3.36"/><path class="cls-16" d="M140.302 263.902h-55.2M140.302 267.262h-55.2"/><path class="cls-14" d="M140.302 257.662h-55.2M140.302 263.422h-55.2"/><path class="cls-16" d="M140.302 252.622h-55.2M140.302 257.662h-55.2"/><path class="cls-15" d="M140.302 267.262h-55.2M140.302 252.622h-55.2"/><path class="cls-20" d="M232.222 252.622v14.64h-51.12v-14.64h51.12"/><path class="cls-19" d="M232.222 267.262v-3.36h-51.12v3.36h51.12"/><path class="cls-14" d="M181.342 264.622l2.4 2.64M184.462 263.902l3.36 3.36M188.542 263.902l3.36 3.36M192.622 263.902l3.36 3.36M196.462 263.902l3.36 3.36M200.542 263.902l3.36 3.36M204.622 263.902l3.36 3.36M208.462 263.902l3.36 3.36M212.542 263.902l3.36 3.36M216.622 263.902l3.36 3.36M220.702 263.902l3.36 3.36M224.542 263.902l3.36 3.36M228.622 263.902l3.36 3.36"/><path class="cls-19" d="M232.222 263.902v-.48h-51.12v.48h51.12"/><path class="cls-19" d="M232.222 263.422v-5.76h-51.12v5.76h51.12"/><path class="cls-14" d="M181.342 257.662v5.76M182.782 257.662v5.76M184.222 257.662v5.76M185.662 257.662v5.76M187.102 257.662v5.76M188.302 257.662v5.76M189.742 257.662v5.76M191.182 257.662v5.76M192.622 257.662v5.76M194.062 257.662v5.76M195.502 257.662v5.76M196.942 257.662v5.76M198.382 257.662v5.76M199.822 257.662v5.76M201.262 257.662v5.76M202.702 257.662v5.76M203.902 257.662v5.76M205.342 257.662v5.76M206.782 257.662v5.76M208.222 257.662v5.76M209.662 257.662v5.76M211.102 257.662v5.76M212.542 257.662v5.76M213.982 257.662v5.76M215.422 257.662v5.76M216.862 257.662v5.76M218.302 257.662v5.76M219.502 257.662v5.76M220.942 257.662v5.76M222.382 257.662v5.76M223.822 257.662v5.76M225.262 257.662v5.76M226.702 257.662v5.76M228.142 257.662v5.76M229.582 257.662v5.76M231.022 257.662v5.76"/><path class="cls-19" d="M232.222 257.662v-5.04h-51.12v5.04h51.12"/><path class="cls-14" d="M181.342 256.702l.96.96M181.342 252.622l5.04 5.04M185.182 252.622l5.04 5.04M189.262 252.622l5.04 5.04M193.342 252.622l5.04 5.04M197.182 252.622l5.04 5.04M201.262 252.622l5.04 5.04M205.342 252.622l5.04 5.04M209.422 252.622l5.04 5.04M213.262 252.622l5.04 5.04M217.342 252.622l5.04 5.04M221.422 252.622l5.04 5.04M225.262 252.622l5.04 5.04M229.342 252.622l3.12 2.88"/><path class="cls-16" d="M232.222 263.902h-51.12M232.222 267.262h-51.12"/><path class="cls-14" d="M232.222 257.662h-51.12M232.222 263.422h-51.12"/><path class="cls-16" d="M232.222 252.622h-51.12M232.222 257.662h-51.12"/><path class="cls-15" d="M232.222 267.262h-51.12M232.222 252.622h-51.12"/><path class="cls-20" d="M320.302 252.622v14.64h-24.96v-14.64h24.96"/><path class="cls-19" d="M320.302 267.262v-3.36h-24.96v3.36h24.96"/><path class="cls-14" d="M295.582 266.542l.48.72M296.782 263.902l3.36 3.36M300.862 263.902l3.36 3.36M304.702 263.902l3.36 3.36M308.782 263.902l3.36 3.36M312.862 263.902l3.36 3.36M316.702 263.902l3.36 3.36"/><path class="cls-19" d="M320.302 263.902v-.48h-24.96v.48h24.96"/><path class="cls-19" d="M320.302 263.422v-5.76h-24.96v5.76h24.96"/><path class="cls-14" d="M296.062 257.662v5.76M297.502 257.662v5.76M298.942 257.662v5.76M300.382 257.662v5.76M301.822 257.662v5.76M303.262 257.662v5.76M304.702 257.662v5.76M306.142 257.662v5.76M307.582 257.662v5.76M308.782 257.662v5.76M310.222 257.662v5.76M311.662 257.662v5.76M313.102 257.662v5.76M314.542 257.662v5.76M315.982 257.662v5.76M317.422 257.662v5.76M318.862 257.662v5.76M320.302 257.662v5.76"/><path class="cls-19" d="M320.302 257.662v-5.04h-24.96v5.04h24.96"/><path class="cls-14" d="M295.582 254.542l2.88 3.12M297.502 252.622l5.04 5.04M301.582 252.622l5.04 5.04M305.422 252.622l5.04 5.04M309.502 252.622l5.04 5.04M313.582 252.622l5.04 5.04M317.662 252.622l2.88 2.88"/><path class="cls-16" d="M320.302 263.902h-24.96M320.302 267.262h-24.96"/><path class="cls-14" d="M320.302 257.662h-24.96M320.302 263.422h-24.96"/><path class="cls-16" d="M320.302 252.622h-24.96M320.302 257.662h-24.96"/><path class="cls-15" d="M320.302 267.262h-24.96M320.302 252.622h-24.96M83.422 259.822v7.44h3.36v1.92h-43.92v-1.92h3.36v-7.44"/><path class="cls-1" d="M85.102 252.622h-40.8"/><path class="cls-15" d="M44.782 252.622h-.48"/><path class="cls-16" d="M83.422 267.262h3.36M46.222 267.262h-3.36"/><path class="cls-15" d="M44.302 257.662h40.8v2.16h-40.8zM81.502 259.822v-2.16M48.142 259.822v-2.16M85.102 257.662v2.16M66.862 257.662v2.16M81.502 257.662v2.16M62.782 257.662v2.16M66.862 257.662v2.16M48.142 257.662v2.16M62.782 257.662v2.16M44.302 257.662v2.16"/><path class="cls-19" d="M85.207 263.311h-1.843v-3.4h1.843"/><path class="cls-14" d="M84.862 259.822v3.6M85.207 263.311h-1.843v-3.4h1.843"/><path class="cls-16" d="M85.102 257.662v-5.04"/><path class="cls-19" d="M85.102 267.262h-1.68v-3.36h1.68"/><path class="cls-14" d="M84.382 263.902l.96.96"/><path class="cls-16" d="M85.102 267.262h-1.68v-3.36h1.68M83.422 263.902v-4.08"/><path class="cls-19" d="M44.388 263.311h1.84v-3.4h-1.84"/><path class="cls-14" d="M45.262 259.822v3.6M44.388 263.311h1.84v-3.4h-1.84"/><path class="cls-16" d="M44.302 257.662v-5.04"/><path class="cls-19" d="M44.302 267.262h1.92v-3.36h-1.92"/><path class="cls-14" d="M44.542 264.142l1.92 1.92"/><path class="cls-16" d="M44.302 267.262h1.92v-3.36h-1.92M46.222 263.902v-4.08"/><path class="cls-15" d="M179.182 259.822v7.44h3.36v1.92h-43.92v-1.92h3.36v-7.44"/><path class="cls-1" d="M181.102 252.622h-40.8"/><path class="cls-15" d="M140.782 252.622h-.48"/><path class="cls-16" d="M179.182 267.262h3.36M141.982 267.262h-3.36"/><path class="cls-15" d="M140.302 257.662h40.8v2.16h-40.8zM177.262 259.822v-2.16M143.902 259.822v-2.16M181.102 257.662v2.16M162.622 257.662v2.16M177.262 257.662v2.16M158.542 257.662v2.16M162.622 257.662v2.16M143.902 257.662v2.16M158.542 257.662v2.16M140.302 257.662v2.16"/><path class="cls-19" d="M181.018 263.311h-1.843v-3.4h1.843"/><path class="cls-14" d="M179.902 259.822v3.6M181.018 263.311h-1.843v-3.4h1.843"/><path class="cls-16" d="M181.102 257.662v-5.04"/><path class="cls-19" d="M181.102 267.262h-1.92v-3.36h1.92"/><path class="cls-14" d="M179.422 266.782l.48.48M180.382 263.902l.96.72"/><path class="cls-16" d="M181.102 267.262h-1.92v-3.36h1.92M179.182 263.902v-4.08"/><path class="cls-19" d="M140.199 263.311h1.843v-3.4h-1.843"/><path class="cls-14" d="M141.742 259.822v3.6M140.199 263.311h1.843v-3.4h-1.843"/><path class="cls-16" d="M140.302 257.662v-5.04"/><path class="cls-19" d="M140.302 267.262h1.68v-3.36h-1.68"/><path class="cls-14" d="M140.542 263.902l1.68 1.68"/><path class="cls-16" d="M140.302 267.262h1.68v-3.36h-1.68M141.982 263.902v-4.08"/><path class="cls-1" d="M295.342 252.622h-63.12"/><path class="cls-15" d="M232.702 252.622h-.48M232.222 257.662h63.12v2.16h-63.12zM291.502 259.822v-2.16M236.062 259.822v-2.16M295.342 257.662v2.16M276.382 257.662v2.16M291.502 257.662v2.16M272.302 257.662v2.16M276.382 257.662v2.16M255.262 257.662v2.16M272.302 257.662v2.16M251.182 257.662v2.16M255.262 257.662v2.16M236.062 257.662v2.16M251.182 257.662v2.16M232.222 257.662v2.16"/><path class="cls-16" d="M295.342 257.662v-5.04"/><path class="cls-15" d="M230.782 267.262v1.92"/><path class="cls-7" d="M230.782 269.182h66"/><path class="cls-15" d="M296.782 269.182v-.96"/><path class="cls-19" d="M295.253 263.311h-1.84v-3.4h1.84"/><path class="cls-14" d="M294.622 259.822v3.6M295.253 263.311h-1.84v-3.4h1.84"/><path class="cls-19" d="M295.342 267.262h-1.92v-3.36h1.92"/><path class="cls-14" d="M293.662 264.622l1.92 1.92"/><path class="cls-16" d="M295.342 267.262h-1.92v-3.36h1.92M293.422 263.902v-4.08"/><path class="cls-19" d="M232.325 263.311h1.843v-3.4h-1.843"/><path class="cls-14" d="M232.462 259.822v3.6M233.662 259.822v3.6M232.325 263.311h1.843v-3.4h-1.843"/><path class="cls-16" d="M232.222 257.662v-5.04"/><path class="cls-19" d="M232.222 267.262h1.92v-3.36h-1.92"/><path class="cls-14" d="M232.702 263.902l1.68 1.68"/><path class="cls-16" d="M232.222 267.262h1.92v-3.36h-1.92M234.142 263.902v-4.08"/><path class="cls-19" d="M76.222 148.702v6.96h139.2l-6.96-6.96H76.222"/><path class="cls-14" d="M212.542 155.662l-6.96-6.96M208.462 155.662l-6.96-6.96M204.622 155.662l-6.96-6.96M200.542 155.662l-6.96-6.96M196.462 155.662l-6.96-6.96M192.622 155.662l-6.96-6.96M188.542 155.662l-6.96-6.96M184.462 155.662l-6.96-6.96M180.382 155.662l-6.96-6.96M176.542 155.662l-6.96-6.96M172.462 155.662l-6.96-6.96M168.382 155.662l-6.96-6.96M164.542 155.662l-6.96-6.96M160.462 155.662l-6.96-6.96M156.382 155.662l-6.96-6.96M152.542 155.662l-6.96-6.96M148.462 155.662l-6.96-6.96M144.382 155.662l-6.96-6.96M140.302 155.662l-6.96-6.96M136.462 155.662l-6.96-6.96M132.382 155.662l-6.96-6.96M128.302 155.662l-6.96-6.96M124.462 155.662l-6.96-6.96M120.382 155.662l-6.96-6.96M116.302 155.662l-6.96-6.96M112.462 155.662l-6.96-6.96M108.382 155.662l-6.96-6.96M104.302 155.662l-6.96-6.96M100.222 155.662l-6.96-6.96M96.382 155.662l-6.96-6.96M92.302 155.662l-6.96-6.96M88.222 155.662l-6.96-6.96M84.382 155.662l-6.96-6.96M80.302 155.662l-3.84-3.84M213.742 155.662l.96-.96M209.902 155.662l2.88-2.88M205.822 155.662l4.8-4.8M201.742 155.662l6.96-6.96M197.902 155.662l6.96-6.96M193.822 155.662l6.96-6.96M189.742 155.662l6.96-6.96M185.662 155.662l6.96-6.96M181.822 155.662l6.96-6.96M177.742 155.662l6.96-6.96M173.662 155.662l6.96-6.96M169.822 155.662l6.96-6.96M165.742 155.662l6.96-6.96M161.662 155.662l6.96-6.96M157.822 155.662l6.96-6.96M153.742 155.662l6.96-6.96M149.662 155.662l6.96-6.96M145.582 155.662l6.96-6.96M141.742 155.662l6.96-6.96M137.662 155.662l6.96-6.96M133.582 155.662l6.96-6.96M129.742 155.662l6.96-6.96M125.662 155.662l6.96-6.96M121.582 155.662l6.96-6.96M117.502 155.662l6.96-6.96M113.662 155.662l6.96-6.96M109.582 155.662l6.96-6.96M105.502 155.662l6.96-6.96M101.662 155.662l6.96-6.96M97.582 155.662l6.96-6.96M93.502 155.662l6.96-6.96M89.662 155.662l6.96-6.96M85.582 155.662l6.96-6.96M81.502 155.662l6.96-6.96M77.422 155.662l6.96-6.96M76.462 152.782l4.08-4.08M76.462 148.942v-.24"/><path class="cls-19" d="M76.222 148.702v6.96h139.2l-6.96-6.96H76.222"/><path class="cls-14" d="M212.542 155.662l-6.96-6.96M208.462 155.662l-6.96-6.96M204.622 155.662l-6.96-6.96M200.542 155.662l-6.96-6.96M196.462 155.662l-6.96-6.96M192.622 155.662l-6.96-6.96M188.542 155.662l-6.96-6.96M184.462 155.662l-6.96-6.96M180.382 155.662l-6.96-6.96M176.542 155.662l-6.96-6.96M172.462 155.662l-6.96-6.96M168.382 155.662l-6.96-6.96M164.542 155.662l-6.96-6.96M160.462 155.662l-6.96-6.96M156.382 155.662l-6.96-6.96M152.542 155.662l-6.96-6.96M148.462 155.662l-6.96-6.96M144.382 155.662l-6.96-6.96M140.302 155.662l-6.96-6.96M136.462 155.662l-6.96-6.96M132.382 155.662l-6.96-6.96M128.302 155.662l-6.96-6.96M124.462 155.662l-6.96-6.96M120.382 155.662l-6.96-6.96M116.302 155.662l-6.96-6.96M112.462 155.662l-6.96-6.96M108.382 155.662l-6.96-6.96M104.302 155.662l-6.96-6.96M100.222 155.662l-6.96-6.96M96.382 155.662l-6.96-6.96M92.302 155.662l-6.96-6.96M88.222 155.662l-6.96-6.96M84.382 155.662l-6.96-6.96M80.302 155.662l-3.84-3.84M213.742 155.662l.96-.96M209.902 155.662l2.88-2.88M205.822 155.662l4.8-4.8M201.742 155.662l6.96-6.96M197.902 155.662l6.96-6.96M193.822 155.662l6.96-6.96M189.742 155.662l6.96-6.96M185.662 155.662l6.96-6.96M181.822 155.662l6.96-6.96M177.742 155.662l6.96-6.96M173.662 155.662l6.96-6.96M169.822 155.662l6.96-6.96M165.742 155.662l6.96-6.96M161.662 155.662l6.96-6.96M157.822 155.662l6.96-6.96M153.742 155.662l6.96-6.96M149.662 155.662l6.96-6.96M145.582 155.662l6.96-6.96M141.742 155.662l6.96-6.96M137.662 155.662l6.96-6.96M133.582 155.662l6.96-6.96M129.742 155.662l6.96-6.96M125.662 155.662l6.96-6.96M121.582 155.662l6.96-6.96M117.502 155.662l6.96-6.96M113.662 155.662l6.96-6.96M109.582 155.662l6.96-6.96M105.502 155.662l6.96-6.96M101.662 155.662l6.96-6.96M97.582 155.662l6.96-6.96M93.502 155.662l6.96-6.96M89.662 155.662l6.96-6.96M85.582 155.662l6.96-6.96M81.502 155.662l6.96-6.96M77.422 155.662l6.96-6.96M76.462 152.782l4.08-4.08M76.462 148.942v-.24"/><path class="cls-16" d="M208.462 148.702H76.222M123.502 155.662h-47.28M215.422 155.662h-87.6M123.502 155.662h-47.28M208.462 148.702H76.222M215.422 155.662h-87.6"/><path class="cls-19" d="M.142 148.702l7.2 6.96h10.8v-6.96h-18"/><path class="cls-14" d="M18.382 149.662l-1.2-.96M18.382 153.742l-5.28-5.04M16.222 155.662l-6.96-6.96M12.142 155.662l-6.96-6.96M8.062 155.662l-6.96-6.96M17.422 155.662l.96-.96M13.342 155.662l5.04-4.8M9.262 155.662l6.96-6.96M6.382 154.702l6-6M4.462 152.782l3.84-4.08M2.302 150.622l1.92-1.92M.382 148.702"/><path class="cls-19" d="M.142 148.702l7.2 6.96h10.8v-6.96h-18"/><path class="cls-14" d="M18.382 149.662l-1.2-.96M18.382 153.742l-5.28-5.04M16.222 155.662l-6.96-6.96M12.142 155.662l-6.96-6.96M8.062 155.662l-6.96-6.96M17.422 155.662l.96-.96M13.342 155.662l5.04-4.8M9.262 155.662l6.96-6.96M6.382 154.702l6-6M4.462 152.782l3.84-4.08M2.302 150.622l1.92-1.92M.382 148.702"/><path class="cls-16" d="M18.142 148.702h-18M18.142 155.662h-10.8M18.142 155.662h-10.8M18.142 148.702h-18"/><path class="cls-19" d="M70.702 145.822l5.52 9.84v-74.64l-5.52 10.08v54.72"/><path class="cls-14" d="M76.462 83.662l-.96-.96M76.462 87.502l-2.4-2.16M76.462 91.582l-3.84-3.84M76.462 95.662l-5.28-5.28M76.462 99.502l-5.52-5.52M76.462 103.582l-5.52-5.52M76.462 107.662l-5.52-5.52M76.462 111.742l-5.52-5.52M76.462 115.582l-5.52-5.52M76.462 119.662l-5.52-5.52M76.462 123.742l-5.52-5.52M76.462 127.582l-5.52-5.52M76.462 131.662l-5.52-5.52M76.462 135.742l-5.52-5.52M76.462 139.582l-5.52-5.52M76.462 143.662l-5.52-5.52M76.462 147.742l-5.52-5.52M76.462 151.822l-5.04-5.04M75.262 153.742l1.2-.96M73.822 151.342l2.64-2.4M72.382 148.702l4.08-3.84M70.942 146.062l5.52-5.28M70.942 142.222l5.52-5.52M70.942 138.382l5.52-5.52M70.942 134.302l5.52-5.52M70.942 130.222l5.52-5.52M70.942 126.382l5.52-5.52M70.942 122.302l5.52-5.52M70.942 118.222l5.52-5.52M70.942 114.142l5.52-5.52M70.942 110.302l5.52-5.52M70.942 106.222l5.52-5.52M70.942 102.142l5.52-5.52M70.942 98.302l5.52-5.52M70.942 94.222l5.52-5.52M71.902 89.182l4.56-4.56"/><path class="cls-19" d="M70.702 145.822l5.52 9.84v-74.64l-5.52 10.08v54.72"/><path class="cls-14" d="M76.462 83.662l-.96-.96M76.462 87.502l-2.4-2.16M76.462 91.582l-3.84-3.84M76.462 95.662l-5.28-5.28M76.462 99.502l-5.52-5.52M76.462 103.582l-5.52-5.52M76.462 107.662l-5.52-5.52M76.462 111.742l-5.52-5.52M76.462 115.582l-5.52-5.52M76.462 119.662l-5.52-5.52M76.462 123.742l-5.52-5.52M76.462 127.582l-5.52-5.52M76.462 131.662l-5.52-5.52M76.462 135.742l-5.52-5.52M76.462 139.582l-5.52-5.52M76.462 143.662l-5.52-5.52M76.462 147.742l-5.52-5.52M76.462 151.822l-5.04-5.04M75.262 153.742l1.2-.96M73.822 151.342l2.64-2.4M72.382 148.702l4.08-3.84M70.942 146.062l5.52-5.28M70.942 142.222l5.52-5.52M70.942 138.382l5.52-5.52M70.942 134.302l5.52-5.52M70.942 130.222l5.52-5.52M70.942 126.382l5.52-5.52M70.942 122.302l5.52-5.52M70.942 118.222l5.52-5.52M70.942 114.142l5.52-5.52M70.942 110.302l5.52-5.52M70.942 106.222l5.52-5.52M70.942 102.142l5.52-5.52M70.942 98.302l5.52-5.52M70.942 94.222l5.52-5.52M71.902 89.182l4.56-4.56"/><path class="cls-16" d="M70.702 91.102v54.72M76.222 81.022v67.68M76.222 81.022v67.68M70.702 91.102v54.72M27.982 98.542h29.76v39.84h-29.76z"/><path class="cls-15" d="M26.302 89.662h35.52M44.542 92.782h-13.92M57.262 95.662h-13.68M208.462 109.342h-34.08M208.462 101.662h-34.08M208.462 93.982h-34.08M208.462 86.542h-34.08M76.222 86.542h34.08M76.222 93.982h34.08M76.222 101.662h34.08M76.222 109.342h34.08M149.902 148.702l8.16-35.52M110.302 81.262h64.08v33.36h-64.08zM93.262 86.542l-3.84 3.6h7.68l-3.84-3.6zM169.102 114.622v34.08M161.422 114.622v34.08M153.742 114.622v34.08M146.062 114.622v34.08M138.382 114.622v34.08M130.942 114.622v34.08M123.262 114.622v34.08M115.582 114.622v34.08"/><path class="cls-15" d="M111.742 82.702h61.2v30.48h-61.2zM115.582 131.662l3.84 3.84v-7.68l-3.84 3.84zM153.742 131.662l3.84 3.84v-7.68l-3.84 3.84zM191.422 109.342l3.84-3.84h-7.68l3.84 3.84z"/><path class="cls-19" d="M18.142 39.982l7.2 7.2h144.72v-7.2H18.142"/><path class="cls-14" d="M170.302 41.182l-1.2-1.2M170.302 45.022l-5.28-5.04M168.142 47.182l-7.2-7.2M164.302 47.182l-7.2-7.2M160.222 47.182l-7.2-7.2M156.142 47.182l-7.2-7.2M152.302 47.182l-7.2-7.2M148.222 47.182l-7.2-7.2M144.142 47.182l-7.2-7.2M140.062 47.182l-7.2-7.2M136.222 47.182l-7.2-7.2M132.142 47.182l-7.2-7.2M128.062 47.182l-7.2-7.2M124.222 47.182l-7.2-7.2M120.142 47.182l-7.2-7.2M116.062 47.182l-7.2-7.2M112.222 47.182l-7.2-7.2M108.142 47.182l-7.2-7.2M104.062 47.182l-7.2-7.2M99.982 47.182l-7.2-7.2M96.142 47.182l-7.2-7.2M92.062 47.182l-7.2-7.2M87.982 47.182l-7.2-7.2M84.142 47.182l-7.2-7.2M80.062 47.182l-7.2-7.2M75.982 47.182l-7.2-7.2M71.902 47.182l-7.2-7.2M68.062 47.182l-7.2-7.2M63.982 47.182l-7.2-7.2M59.902 47.182l-7.2-7.2M56.062 47.182l-7.2-7.2M51.982 47.182l-7.2-7.2M47.902 47.182l-7.2-7.2M44.062 47.182l-7.2-7.2M39.982 47.182l-7.2-7.2M35.902 47.182l-7.2-7.2M31.822 47.182l-7.2-7.2M27.982 47.182l-7.2-7.2M170.062 47.182l.24-.24M165.982 47.182l4.32-4.32M161.902 47.182l7.2-7.2M158.062 47.182l7.2-7.2M153.982 47.182l7.2-7.2M149.902 47.182l7.2-7.2M145.822 47.182l7.2-7.2M141.982 47.182l7.2-7.2M137.902 47.182l7.2-7.2M133.822 47.182l7.2-7.2M129.982 47.182l7.2-7.2M125.902 47.182l7.2-7.2M121.822 47.182l7.2-7.2M117.742 47.182l7.2-7.2M113.902 47.182l7.2-7.2M109.822 47.182l7.2-7.2M105.742 47.182l7.2-7.2M101.902 47.182l7.2-7.2M97.822 47.182l7.2-7.2M93.742 47.182l7.2-7.2M89.902 47.182l7.2-7.2M85.822 47.182l7.2-7.2M81.742 47.182l7.2-7.2M77.662 47.182l7.2-7.2M73.822 47.182l7.2-7.2M69.742 47.182l7.2-7.2M65.662 47.182l7.2-7.2M61.822 47.182l7.2-7.2M57.742 47.182l7.2-7.2M53.662 47.182l7.2-7.2M49.822 47.182l7.2-7.2M45.742 47.182l7.2-7.2M41.662 47.182l7.2-7.2M37.582 47.182l7.2-7.2M33.742 47.182l7.2-7.2M29.662 47.182l7.2-7.2M25.582 47.182l7.2-7.2M23.662 45.262l5.28-5.28M21.502 43.342l3.36-3.36M19.582 41.182l1.2-1.2"/><path class="cls-19" d="M18.142 39.982l7.2 7.2h144.72v-7.2H18.142"/><path class="cls-14" d="M170.302 41.182l-1.2-1.2M170.302 45.022l-5.28-5.04M168.142 47.182l-7.2-7.2M164.302 47.182l-7.2-7.2M160.222 47.182l-7.2-7.2M156.142 47.182l-7.2-7.2M152.302 47.182l-7.2-7.2M148.222 47.182l-7.2-7.2M144.142 47.182l-7.2-7.2M140.062 47.182l-7.2-7.2M136.222 47.182l-7.2-7.2M132.142 47.182l-7.2-7.2M128.062 47.182l-7.2-7.2M124.222 47.182l-7.2-7.2M120.142 47.182l-7.2-7.2M116.062 47.182l-7.2-7.2M112.222 47.182l-7.2-7.2M108.142 47.182l-7.2-7.2M104.062 47.182l-7.2-7.2M99.982 47.182l-7.2-7.2M96.142 47.182l-7.2-7.2M92.062 47.182l-7.2-7.2M87.982 47.182l-7.2-7.2M84.142 47.182l-7.2-7.2M80.062 47.182l-7.2-7.2M75.982 47.182l-7.2-7.2M71.902 47.182l-7.2-7.2M68.062 47.182l-7.2-7.2M63.982 47.182l-7.2-7.2M59.902 47.182l-7.2-7.2M56.062 47.182l-7.2-7.2M51.982 47.182l-7.2-7.2M47.902 47.182l-7.2-7.2M44.062 47.182l-7.2-7.2M39.982 47.182l-7.2-7.2M35.902 47.182l-7.2-7.2M31.822 47.182l-7.2-7.2M27.982 47.182l-7.2-7.2M170.062 47.182l.24-.24M165.982 47.182l4.32-4.32M161.902 47.182l7.2-7.2M158.062 47.182l7.2-7.2M153.982 47.182l7.2-7.2M149.902 47.182l7.2-7.2M145.822 47.182l7.2-7.2M141.982 47.182l7.2-7.2M137.902 47.182l7.2-7.2M133.822 47.182l7.2-7.2M129.982 47.182l7.2-7.2M125.902 47.182l7.2-7.2M121.822 47.182l7.2-7.2M117.742 47.182l7.2-7.2M113.902 47.182l7.2-7.2M109.822 47.182l7.2-7.2M105.742 47.182l7.2-7.2M101.902 47.182l7.2-7.2M97.822 47.182l7.2-7.2M93.742 47.182l7.2-7.2M89.902 47.182l7.2-7.2M85.822 47.182l7.2-7.2M81.742 47.182l7.2-7.2M77.662 47.182l7.2-7.2M73.822 47.182l7.2-7.2M69.742 47.182l7.2-7.2M65.662 47.182l7.2-7.2M61.822 47.182l7.2-7.2M57.742 47.182l7.2-7.2M53.662 47.182l7.2-7.2M49.822 47.182l7.2-7.2M45.742 47.182l7.2-7.2M41.662 47.182l7.2-7.2M37.582 47.182l7.2-7.2M33.742 47.182l7.2-7.2M29.662 47.182l7.2-7.2M25.582 47.182l7.2-7.2M23.662 45.262l5.28-5.28M21.502 43.342l3.36-3.36M19.582 41.182l1.2-1.2"/><path class="cls-16" d="M170.062 39.982H18.142M170.062 47.182H25.342M170.062 47.182H25.342M170.062 39.982H18.142"/><path class="cls-19" d="M205.822 47.182h2.64l6.96-7.2h-9.6v7.2"/><path class="cls-14" d="M214.462 41.182l-1.2-1.2M212.302 43.342l-3.12-3.36M210.382 45.262l-4.32-4.56M208.222 47.182l-2.16-2.4M206.062 47.182l7.2-7.2M206.062 43.342l3.12-3.36"/><path class="cls-19" d="M205.822 47.182h2.64l6.96-7.2h-9.6v7.2"/><path class="cls-14" d="M214.462 41.182l-1.2-1.2M212.302 43.342l-3.12-3.36M210.382 45.262l-4.32-4.56M208.222 47.182l-2.16-2.4M206.062 47.182l7.2-7.2M206.062 43.342l3.12-3.36"/><path class="cls-16" d="M208.462 47.182h-2.64M208.462 47.182h-2.64"/><path class="cls-15" d="M203.182 39.502h2.64v1.68h-2.64zM170.062 39.502h6v1.68h-6z"/><path class="cls-15" d="M176.062 39.502h27.12v1.68h-27.12zM203.182 41.182h-27.12"/><path class="cls-1" d="M203.662 47.182h-27.84"/><path class="cls-15" d="M176.302 47.182h-.48"/><path class="cls-19" d="M205.822 47.182h-2.16v-6h2.16"/><path class="cls-14" d="M206.062 44.782l-2.16-2.16M204.382 47.182l-.48-.48M203.902 45.502l2.16-2.16M203.902 41.422l.24-.24"/><path class="cls-19" d="M170.062 47.182h5.76v-6h-5.76"/><path class="cls-14" d="M176.062 42.862l-1.92-1.68M176.062 46.942l-5.76-5.76M172.222 47.182l-1.92-2.16M173.902 47.182l2.16-1.92M170.302 46.942l5.76-5.76M170.302 42.862l1.68-1.68"/><path class="cls-16" d="M203.662 47.182v-6M175.822 47.182v-6M203.662 47.182v-6M205.822 47.182h-2.16M175.822 47.182v-6M170.062 47.182h5.76M205.822 39.982v1.2M170.062 39.982v1.2M205.822 47.182h-2.16M170.062 47.182h5.76M203.662 41.182h2.16M175.822 41.182h-5.76"/><path class="cls-19" d="M320.302 69.742l-7.2 7.2v180.72h7.2V69.742"/><path class="cls-14" d="M320.542 71.182l-.72-.72M320.542 75.022l-2.88-2.64M320.542 79.102l-4.8-4.56M320.542 83.182l-6.72-6.72M320.542 87.022l-7.2-7.2M320.542 91.102l-7.2-7.2M320.542 95.182l-7.2-7.2M320.542 99.262l-7.2-7.2M320.542 103.102l-7.2-7.2M320.542 107.182l-7.2-7.2M320.542 111.262l-7.2-7.2M320.542 115.102l-7.2-7.2M320.542 119.182l-7.2-7.2M320.542 123.262l-7.2-7.2M320.542 127.102l-7.2-7.2M320.542 131.182l-7.2-7.2M320.542 135.262l-7.2-7.2M320.542 139.342l-7.2-7.2M320.542 143.182l-7.2-7.2M320.542 147.262l-7.2-7.2M320.542 151.342l-7.2-7.2M320.542 155.182l-7.2-7.2M320.542 159.262l-7.2-7.2M320.542 163.342l-7.2-7.2M320.542 167.422l-7.2-7.2M320.542 171.262l-7.2-7.2M320.542 175.342l-7.2-7.2M320.542 179.422l-7.2-7.2M320.542 183.262l-7.2-7.2M320.542 187.342l-7.2-7.2M320.542 191.422l-7.2-7.2M320.542 195.262l-7.2-7.2M320.542 199.342l-7.2-7.2M320.542 203.422l-7.2-7.2M320.542 207.502l-7.2-7.2M320.542 211.342l-7.2-7.2M320.542 215.422l-7.2-7.2M320.542 219.502l-7.2-7.2M320.542 223.342l-7.2-7.2M320.542 227.422l-7.2-7.2M320.542 231.502l-7.2-7.2M320.542 235.342l-7.2-7.2M320.542 239.422l-7.2-7.2M320.542 243.502l-7.2-7.2M320.542 247.582l-7.2-7.2M320.542 251.422l-7.2-7.2M320.542 255.502l-7.2-7.2M318.622 257.662l-5.28-5.28M314.542 257.662l-1.2-1.44M320.302 257.662l.24-.24M316.222 257.662l4.32-4.08M313.342 256.702l7.2-7.2M313.342 252.622l7.2-7.2M313.342 248.782l7.2-7.2M313.342 244.702l7.2-7.2M313.342 240.622l7.2-7.2M313.342 236.542l7.2-7.2M313.342 232.702l7.2-7.2M313.342 228.622l7.2-7.2M313.342 224.542l7.2-7.2M313.342 220.702l7.2-7.2M313.342 216.622l7.2-7.2M313.342 212.542l7.2-7.2M313.342 208.702l7.2-7.2M313.342 204.622l7.2-7.2M313.342 200.542l7.2-7.2M313.342 196.462l7.2-7.2M313.342 192.622l7.2-7.2M313.342 188.542l7.2-7.2M313.342 184.462l7.2-7.2M313.342 180.622l7.2-7.2M313.342 176.542l7.2-7.2M313.342 172.462l7.2-7.2M313.342 168.622l7.2-7.2M313.342 164.542l7.2-7.2M313.342 160.462l7.2-7.2M313.342 156.382l7.2-7.2M313.342 152.542l7.2-7.2M313.342 148.462l7.2-7.2M313.342 144.382l7.2-7.2M313.342 140.542l7.2-7.2M313.342 136.462l7.2-7.2M313.342 132.382l7.2-7.2M313.342 128.542l7.2-7.2M313.342 124.462l7.2-7.2M313.342 120.382l7.2-7.2M313.342 116.302l7.2-7.2M313.342 112.462l7.2-7.2M313.342 108.382l7.2-7.2M313.342 104.302l7.2-7.2M313.342 100.462l7.2-7.2M313.342 96.382l7.2-7.2M313.342 92.302l7.2-7.2M313.342 88.222l7.2-7.2M313.342 84.382l7.2-7.2M313.342 80.302l7.2-7.2"/><path class="cls-19" d="M320.302 69.742l-7.2 7.2v180.72h7.2V69.742"/><path class="cls-14" d="M320.542 71.182l-.72-.72M320.542 75.022l-2.88-2.64M320.542 79.102l-4.8-4.56M320.542 83.182l-6.72-6.72M320.542 87.022l-7.2-7.2M320.542 91.102l-7.2-7.2M320.542 95.182l-7.2-7.2M320.542 99.262l-7.2-7.2M320.542 103.102l-7.2-7.2M320.542 107.182l-7.2-7.2M320.542 111.262l-7.2-7.2M320.542 115.102l-7.2-7.2M320.542 119.182l-7.2-7.2M320.542 123.262l-7.2-7.2M320.542 127.102l-7.2-7.2M320.542 131.182l-7.2-7.2M320.542 135.262l-7.2-7.2M320.542 139.342l-7.2-7.2M320.542 143.182l-7.2-7.2M320.542 147.262l-7.2-7.2M320.542 151.342l-7.2-7.2M320.542 155.182l-7.2-7.2M320.542 159.262l-7.2-7.2M320.542 163.342l-7.2-7.2M320.542 167.422l-7.2-7.2M320.542 171.262l-7.2-7.2M320.542 175.342l-7.2-7.2M320.542 179.422l-7.2-7.2M320.542 183.262l-7.2-7.2M320.542 187.342l-7.2-7.2M320.542 191.422l-7.2-7.2M320.542 195.262l-7.2-7.2M320.542 199.342l-7.2-7.2M320.542 203.422l-7.2-7.2M320.542 207.502l-7.2-7.2M320.542 211.342l-7.2-7.2M320.542 215.422l-7.2-7.2M320.542 219.502l-7.2-7.2M320.542 223.342l-7.2-7.2M320.542 227.422l-7.2-7.2M320.542 231.502l-7.2-7.2M320.542 235.342l-7.2-7.2M320.542 239.422l-7.2-7.2M320.542 243.502l-7.2-7.2M320.542 247.582l-7.2-7.2M320.542 251.422l-7.2-7.2M320.542 255.502l-7.2-7.2M318.622 257.662l-5.28-5.28M314.542 257.662l-1.2-1.44M320.302 257.662l.24-.24M316.222 257.662l4.32-4.08M313.342 256.702l7.2-7.2M313.342 252.622l7.2-7.2M313.342 248.782l7.2-7.2M313.342 244.702l7.2-7.2M313.342 240.622l7.2-7.2M313.342 236.542l7.2-7.2M313.342 232.702l7.2-7.2M313.342 228.622l7.2-7.2M313.342 224.542l7.2-7.2M313.342 220.702l7.2-7.2M313.342 216.622l7.2-7.2M313.342 212.542l7.2-7.2M313.342 208.702l7.2-7.2M313.342 204.622l7.2-7.2M313.342 200.542l7.2-7.2M313.342 196.462l7.2-7.2M313.342 192.622l7.2-7.2M313.342 188.542l7.2-7.2M313.342 184.462l7.2-7.2M313.342 180.622l7.2-7.2M313.342 176.542l7.2-7.2M313.342 172.462l7.2-7.2M313.342 168.622l7.2-7.2M313.342 164.542l7.2-7.2M313.342 160.462l7.2-7.2M313.342 156.382l7.2-7.2M313.342 152.542l7.2-7.2M313.342 148.462l7.2-7.2M313.342 144.382l7.2-7.2M313.342 140.542l7.2-7.2M313.342 136.462l7.2-7.2M313.342 132.382l7.2-7.2M313.342 128.542l7.2-7.2M313.342 124.462l7.2-7.2M313.342 120.382l7.2-7.2M313.342 116.302l7.2-7.2M313.342 112.462l7.2-7.2M313.342 108.382l7.2-7.2M313.342 104.302l7.2-7.2M313.342 100.462l7.2-7.2M313.342 96.382l7.2-7.2M313.342 92.302l7.2-7.2M313.342 88.222l7.2-7.2M313.342 84.382l7.2-7.2M313.342 80.302l7.2-7.2"/><path class="cls-16" d="M320.302 257.662V69.742M313.102 150.862v-73.92M313.102 257.662v-102M313.102 150.862v-73.92M320.302 257.662V69.742M313.102 257.662v-102M320.302 257.662h-7.2M313.102 155.662v-4.8"/><path class="cls-19" d="M313.102 155.662v-4.8h-56.88l-4.08 4.8h60.96"/><path class="cls-14" d="M254.302 155.662l4.8-4.8M258.382 155.662l4.8-4.8M262.702 155.662l4.8-4.8M267.022 155.662l4.8-4.8M271.102 155.662l4.8-4.8M275.422 155.662l4.8-4.8M279.742 155.662l4.8-4.8M284.062 155.662l4.8-4.8M288.142 155.662l4.8-4.8M292.462 155.662l4.8-4.8M296.782 155.662l4.8-4.8M300.862 155.662l4.8-4.8M305.182 155.662l4.8-4.8M309.502 155.662l3.84-3.84"/><path class="cls-19" d="M313.102 155.662v-4.8h-56.88l-4.08 4.8h60.96"/><path class="cls-14" d="M254.302 155.662l4.8-4.8M258.382 155.662l4.8-4.8M262.702 155.662l4.8-4.8M267.022 155.662l4.8-4.8M271.102 155.662l4.8-4.8M275.422 155.662l4.8-4.8M279.742 155.662l4.8-4.8M284.062 155.662l4.8-4.8M288.142 155.662l4.8-4.8M292.462 155.662l4.8-4.8M296.782 155.662l4.8-4.8M300.862 155.662l4.8-4.8M305.182 155.662l4.8-4.8M309.502 155.662l3.84-3.84"/><path class="cls-16" d="M252.142 155.662h60.96M256.222 150.862h56.88M256.222 150.862h56.88M252.142 155.662h60.96M313.102 150.862v4.8"/><path class="cls-19" d="M252.142 12.622v64.32l6.96-7.2V5.422l-6.96 7.2"/><path class="cls-14" d="M259.342 5.902l-.24-.24M259.342 9.982l-2.4-2.4M259.342 13.822l-4.32-4.08M259.342 17.902l-6.24-6.24M259.342 21.982l-6.96-6.96M259.342 25.822l-6.96-6.96M259.342 29.902l-6.96-6.96M259.342 33.982l-6.96-6.96M259.342 38.062l-6.96-6.96M259.342 41.902l-6.96-6.96M259.342 45.982l-6.96-6.96M259.342 50.062l-6.96-6.96M259.342 53.902l-6.96-6.96M259.342 57.982l-6.96-6.96M259.342 62.062l-6.96-6.96M259.342 65.902l-6.96-6.96M259.102 69.982l-6.72-6.96M257.182 71.902l-4.8-4.8M255.262 74.062l-2.88-2.88M253.102 75.982l-.72-.96M252.382 73.102l6.96-6.96M252.382 69.022l6.96-6.96M252.382 65.182l6.96-6.96M252.382 61.102l6.96-6.96M252.382 57.022l6.96-6.96M252.382 53.182l6.96-6.96M252.382 49.102l6.96-6.96M252.382 45.022l6.96-6.96M252.382 40.942l6.96-6.96M252.382 37.102l6.96-6.96M252.382 33.022l6.96-6.96M252.382 28.942l6.96-6.96M252.382 25.102l6.96-6.96M252.382 21.022l6.96-6.96M252.382 16.942l6.96-6.96M252.382 13.102l6.96-6.96"/><path class="cls-19" d="M252.142 12.622v64.32l6.96-7.2V5.422l-6.96 7.2"/><path class="cls-14" d="M259.342 5.902l-.24-.24M259.342 9.982l-2.4-2.4M259.342 13.822l-4.32-4.08M259.342 17.902l-6.24-6.24M259.342 21.982l-6.96-6.96M259.342 25.822l-6.96-6.96M259.342 29.902l-6.96-6.96M259.342 33.982l-6.96-6.96M259.342 38.062l-6.96-6.96M259.342 41.902l-6.96-6.96M259.342 45.982l-6.96-6.96M259.342 50.062l-6.96-6.96M259.342 53.902l-6.96-6.96M259.342 57.982l-6.96-6.96M259.342 62.062l-6.96-6.96M259.342 65.902l-6.96-6.96M259.102 69.982l-6.72-6.96M257.182 71.902l-4.8-4.8M255.262 74.062l-2.88-2.88M253.102 75.982l-.72-.96M252.382 73.102l6.96-6.96M252.382 69.022l6.96-6.96M252.382 65.182l6.96-6.96M252.382 61.102l6.96-6.96M252.382 57.022l6.96-6.96M252.382 53.182l6.96-6.96M252.382 49.102l6.96-6.96M252.382 45.022l6.96-6.96M252.382 40.942l6.96-6.96M252.382 37.102l6.96-6.96M252.382 33.022l6.96-6.96M252.382 28.942l6.96-6.96M252.382 25.102l6.96-6.96M252.382 21.022l6.96-6.96M252.382 16.942l6.96-6.96M252.382 13.102l6.96-6.96"/><path class="cls-16" d="M259.102 69.742V5.422M252.142 76.942v-64.32M252.142 76.942v-64.32M259.102 69.742V5.422"/><path class="cls-19" d="M259.102 69.742l-6.96 7.2h60.96l7.2-7.2h-61.2"/><path class="cls-14" d="M319.822 70.462l-.72-.72M317.662 72.382l-2.64-2.64M315.742 74.542l-4.8-4.8M313.822 76.462l-6.72-6.72M310.222 76.942l-7.2-7.2M306.142 76.942l-7.2-7.2M302.302 76.942l-7.2-7.2M298.222 76.942l-7.2-7.2M294.142 76.942l-7.2-7.2M290.302 76.942l-7.2-7.2M286.222 76.942l-7.2-7.2M282.142 76.942l-7.2-7.2M278.062 76.942l-7.2-7.2M274.222 76.942l-7.2-7.2M270.142 76.942l-7.2-7.2M266.062 76.942l-6.96-6.96M262.222 76.942l-5.04-5.04M258.142 76.942l-2.88-2.88M254.062 76.942l-.96-.96M312.622 76.942l7.2-7.2M308.542 76.942l7.2-7.2M304.462 76.942l7.2-7.2M300.622 76.942l7.2-7.2M296.542 76.942l7.2-7.2M292.462 76.942l7.2-7.2M288.622 76.942l7.2-7.2M284.542 76.942l7.2-7.2M280.462 76.942l7.2-7.2M276.622 76.942l7.2-7.2M272.542 76.942l7.2-7.2M268.462 76.942l7.2-7.2M264.382 76.942l7.2-7.2M260.542 76.942l7.2-7.2M256.462 76.942l7.2-7.2M252.382 76.942l7.2-7.2"/><path class="cls-19" d="M259.102 69.742l-6.96 7.2h60.96l7.2-7.2h-61.2"/><path class="cls-14" d="M319.822 70.462l-.72-.72M317.662 72.382l-2.64-2.64M315.742 74.542l-4.8-4.8M313.822 76.462l-6.72-6.72M310.222 76.942l-7.2-7.2M306.142 76.942l-7.2-7.2M302.302 76.942l-7.2-7.2M298.222 76.942l-7.2-7.2M294.142 76.942l-7.2-7.2M290.302 76.942l-7.2-7.2M286.222 76.942l-7.2-7.2M282.142 76.942l-7.2-7.2M278.062 76.942l-7.2-7.2M274.222 76.942l-7.2-7.2M270.142 76.942l-7.2-7.2M266.062 76.942l-6.96-6.96M262.222 76.942l-5.04-5.04M258.142 76.942l-2.88-2.88M254.062 76.942l-.96-.96M312.622 76.942l7.2-7.2M308.542 76.942l7.2-7.2M304.462 76.942l7.2-7.2M300.622 76.942l7.2-7.2M296.542 76.942l7.2-7.2M292.462 76.942l7.2-7.2M288.622 76.942l7.2-7.2M284.542 76.942l7.2-7.2M280.462 76.942l7.2-7.2M276.622 76.942l7.2-7.2M272.542 76.942l7.2-7.2M268.462 76.942l7.2-7.2M264.382 76.942l7.2-7.2M260.542 76.942l7.2-7.2M256.462 76.942l7.2-7.2M252.382 76.942l7.2-7.2"/><path class="cls-16" d="M320.302 69.742h-61.2M313.102 76.942h-56.88M313.102 76.942h-56.88M320.302 69.742h-61.2M256.222 76.942h-4.08"/><path class="cls-19" d="M256.222 76.942h-4.08v44.4h4.08v-44.4"/><path class="cls-14" d="M252.382 81.022l4.08-4.08M252.382 85.342l4.08-4.08M252.382 89.662l4.08-4.08M252.382 93.742l4.08-4.08M252.382 98.062l4.08-4.08M252.382 102.382l4.08-4.08M252.382 106.702l4.08-4.08M252.382 110.782l4.08-4.08M252.382 115.102l4.08-4.08M252.382 119.422l4.08-4.08M254.542 121.342l1.92-1.92"/><path class="cls-19" d="M256.222 76.942h-4.08v44.4h4.08v-44.4"/><path class="cls-14" d="M252.382 81.022l4.08-4.08M252.382 85.342l4.08-4.08M252.382 89.662l4.08-4.08M252.382 93.742l4.08-4.08M252.382 98.062l4.08-4.08M252.382 102.382l4.08-4.08M252.382 106.702l4.08-4.08M252.382 110.782l4.08-4.08M252.382 115.102l4.08-4.08M252.382 119.422l4.08-4.08M254.542 121.342l1.92-1.92"/><path class="cls-16" d="M256.222 121.342v-44.4M252.142 121.342v-44.4M252.142 121.342v-44.4M256.222 121.342v-44.4"/><path class="cls-19" d="M252.142 146.542v9.12l4.08-4.8v-4.32h-4.08"/><path class="cls-14" d="M252.382 149.182l2.4-2.64M252.382 153.262l4.08-4.08"/><path class="cls-19" d="M252.142 146.542v9.12l4.08-4.8v-4.32h-4.08"/><path class="cls-14" d="M252.382 149.182l2.4-2.64M252.382 153.262l4.08-4.08"/><path class="cls-16" d="M256.222 150.862v-4.32M252.142 155.662v-9.12M252.142 155.662v-9.12M256.222 150.862v-4.32M252.142 76.942h4.08"/><path class="cls-1" d="M256.222 146.542v-25.2M252.142 146.542v-25.2"/><path class="cls-15" d="M256.222 145.342h-4.08M256.222 122.542h-4.08"/><path class="cls-16" d="M256.222 146.542h-4.08M256.222 121.342h-4.08"/><path class="cls-14" d="M278.955 145.248c0-12.44-10.236-22.677-22.678-22.677M256.222 145.342h22.8"/><path class="cls-19" d="M7.342 155.662l-7.2-6.96v108.96h7.2v-102"/><path class="cls-14" d="M7.582 159.022l-7.2-7.2M7.582 163.102l-7.2-7.2M7.582 166.942l-7.2-7.2M7.582 171.022l-7.2-7.2M7.582 175.102l-7.2-7.2M7.582 178.942l-7.2-7.2M7.582 183.022l-7.2-7.2M7.582 187.102l-7.2-7.2M7.582 191.182l-7.2-7.2M7.582 195.022l-7.2-7.2M7.582 199.102l-7.2-7.2M7.582 203.182l-7.2-7.2M7.582 207.022l-7.2-7.2M7.582 211.102l-7.2-7.2M7.582 215.182l-7.2-7.2M7.582 219.262l-7.2-7.2M7.582 223.102l-7.2-7.2M7.582 227.182l-7.2-7.2M7.582 231.262l-7.2-7.2M7.582 235.102l-7.2-7.2M7.582 239.182l-7.2-7.2M7.582 243.262l-7.2-7.2M7.582 247.102l-7.2-7.2M7.582 251.182l-7.2-7.2M7.582 255.262l-7.2-7.2M5.902 257.662l-5.52-5.52M1.822 257.662l-1.44-1.68M3.502 257.662l4.08-3.84M.382 256.942l7.2-7.2M.382 252.862l7.2-7.2M.382 249.022l7.2-7.2M.382 244.942l7.2-7.2M.382 240.862l7.2-7.2M.382 237.022l7.2-7.2M.382 232.942l7.2-7.2M.382 228.862l7.2-7.2M.382 225.022l7.2-7.2M.382 220.942l7.2-7.2M.382 216.862l7.2-7.2M.382 212.782l7.2-7.2M.382 208.942l7.2-7.2M.382 204.862l7.2-7.2M.382 200.782l7.2-7.2M.382 196.942l7.2-7.2M.382 192.862l7.2-7.2M.382 188.782l7.2-7.2M.382 184.702l7.2-7.2M.382 180.862l7.2-7.2M.382 176.782l7.2-7.2M.382 172.702l7.2-7.2M.382 168.862l7.2-7.2M.382 164.782l7.2-7.2M.382 160.702l6-6M.382 156.862l4.08-4.08M.382 152.782l1.92-2.16M.382 148.702"/><path class="cls-19" d="M7.342 155.662l-7.2-6.96v108.96h7.2v-102"/><path class="cls-14" d="M7.582 159.022l-7.2-7.2M7.582 163.102l-7.2-7.2M7.582 166.942l-7.2-7.2M7.582 171.022l-7.2-7.2M7.582 175.102l-7.2-7.2M7.582 178.942l-7.2-7.2M7.582 183.022l-7.2-7.2M7.582 187.102l-7.2-7.2M7.582 191.182l-7.2-7.2M7.582 195.022l-7.2-7.2M7.582 199.102l-7.2-7.2M7.582 203.182l-7.2-7.2M7.582 207.022l-7.2-7.2M7.582 211.102l-7.2-7.2M7.582 215.182l-7.2-7.2M7.582 219.262l-7.2-7.2M7.582 223.102l-7.2-7.2M7.582 227.182l-7.2-7.2M7.582 231.262l-7.2-7.2M7.582 235.102l-7.2-7.2M7.582 239.182l-7.2-7.2M7.582 243.262l-7.2-7.2M7.582 247.102l-7.2-7.2M7.582 251.182l-7.2-7.2M7.582 255.262l-7.2-7.2M5.902 257.662l-5.52-5.52M1.822 257.662l-1.44-1.68M3.502 257.662l4.08-3.84M.382 256.942l7.2-7.2M.382 252.862l7.2-7.2M.382 249.022l7.2-7.2M.382 244.942l7.2-7.2M.382 240.862l7.2-7.2M.382 237.022l7.2-7.2M.382 232.942l7.2-7.2M.382 228.862l7.2-7.2M.382 225.022l7.2-7.2M.382 220.942l7.2-7.2M.382 216.862l7.2-7.2M.382 212.782l7.2-7.2M.382 208.942l7.2-7.2M.382 204.862l7.2-7.2M.382 200.782l7.2-7.2M.382 196.942l7.2-7.2M.382 192.862l7.2-7.2M.382 188.782l7.2-7.2M.382 184.702l7.2-7.2M.382 180.862l7.2-7.2M.382 176.782l7.2-7.2M.382 172.702l7.2-7.2M.382 168.862l7.2-7.2M.382 164.782l7.2-7.2M.382 160.702l6-6M.382 156.862l4.08-4.08M.382 152.782l1.92-2.16M.382 148.702"/><path class="cls-16" d="M7.342 257.662v-102M.142 257.662v-108.96M.142 257.662v-108.96M7.342 257.662v-102M7.342 257.662h-7.2"/><path class="cls-19" d="M205.822 39.982h9.6V7.342l-9.6-7.2v39.84"/><path class="cls-14" d="M215.662 10.222l-9.6-9.6M215.662 14.302l-9.6-9.6M215.662 18.382l-9.6-9.6M215.662 22.222l-9.6-9.6M215.662 26.302l-9.6-9.6M215.662 30.382l-9.6-9.6M215.662 34.462l-9.6-9.6M215.662 38.302l-9.6-9.6M213.262 39.982l-7.2-7.2M209.182 39.982l-3.12-3.12M213.262 39.982l2.4-2.4M209.182 39.982l6.48-6.24M206.062 39.262l9.6-9.6M206.062 35.182l9.6-9.6M206.062 31.342l9.6-9.6M206.062 27.262l9.6-9.6M206.062 23.182l9.6-9.6M206.062 19.342l9.6-9.6M206.062 15.262l8.4-8.64M206.062 11.182l6.24-6.24M206.062 7.102l3.84-3.84M206.062 3.262l1.68-1.92"/><path class="cls-19" d="M205.822 39.982h9.6V7.342l-9.6-7.2v39.84"/><path class="cls-14" d="M215.662 10.222l-9.6-9.6M215.662 14.302l-9.6-9.6M215.662 18.382l-9.6-9.6M215.662 22.222l-9.6-9.6M215.662 26.302l-9.6-9.6M215.662 30.382l-9.6-9.6M215.662 34.462l-9.6-9.6M215.662 38.302l-9.6-9.6M213.262 39.982l-7.2-7.2M209.182 39.982l-3.12-3.12M213.262 39.982l2.4-2.4M209.182 39.982l6.48-6.24M206.062 39.262l9.6-9.6M206.062 35.182l9.6-9.6M206.062 31.342l9.6-9.6M206.062 27.262l9.6-9.6M206.062 23.182l9.6-9.6M206.062 19.342l9.6-9.6M206.062 15.262l8.4-8.64M206.062 11.182l6.24-6.24M206.062 7.102l3.84-3.84M206.062 3.262l1.68-1.92"/><path class="cls-16" d="M205.822.142v39.84M215.422 7.342v32.64M215.422 7.342v32.64M205.822.142v39.84"/><path class="cls-19" d="M76.222 155.662l-5.52-9.84h-45.36l-7.2 9.84h58.08"/><path class="cls-14" d="M71.422 146.782l-.96-.96M76.222 155.662l-9.84-9.84M72.142 155.662l-9.84-9.84M68.302 155.662l-9.84-9.84M64.222 155.662l-9.84-9.84M60.142 155.662l-9.84-9.84M56.302 155.662l-9.84-9.84M52.222 155.662l-9.84-9.84M48.142 155.662l-9.84-9.84M44.302 155.662l-9.84-9.84M40.222 155.662l-9.84-9.84M36.142 155.662l-9.84-9.84M32.062 155.662l-7.92-7.92M28.222 155.662l-5.76-5.76M24.142 155.662l-3.36-3.36M20.062 155.662l-.96-1.2M73.582 155.662l1.68-1.92M69.502 155.662l4.32-4.32M65.422 155.662l6.96-6.96M61.582 155.662l9.36-9.6M57.502 155.662l9.84-9.84M53.422 155.662l9.84-9.84M49.582 155.662l9.84-9.84M45.502 155.662l9.84-9.84M41.422 155.662l9.84-9.84M37.342 155.662l9.84-9.84M33.502 155.662l9.84-9.84M29.422 155.662l9.84-9.84M25.342 155.662l9.84-9.84M21.502 155.662l9.84-9.84M20.542 152.542l6.72-6.72"/><path class="cls-19" d="M76.222 155.662l-5.52-9.84h-45.36l-7.2 9.84h58.08"/><path class="cls-14" d="M71.422 146.782l-.96-.96M76.222 155.662l-9.84-9.84M72.142 155.662l-9.84-9.84M68.302 155.662l-9.84-9.84M64.222 155.662l-9.84-9.84M60.142 155.662l-9.84-9.84M56.302 155.662l-9.84-9.84M52.222 155.662l-9.84-9.84M48.142 155.662l-9.84-9.84M44.302 155.662l-9.84-9.84M40.222 155.662l-9.84-9.84M36.142 155.662l-9.84-9.84M32.062 155.662l-7.92-7.92M28.222 155.662l-5.76-5.76M24.142 155.662l-3.36-3.36M20.062 155.662l-.96-1.2M73.582 155.662l1.68-1.92M69.502 155.662l4.32-4.32M65.422 155.662l6.96-6.96M61.582 155.662l9.36-9.6M57.502 155.662l9.84-9.84M53.422 155.662l9.84-9.84M49.582 155.662l9.84-9.84M45.502 155.662l9.84-9.84M41.422 155.662l9.84-9.84M37.342 155.662l9.84-9.84M33.502 155.662l9.84-9.84M29.422 155.662l9.84-9.84M25.342 155.662l9.84-9.84M21.502 155.662l9.84-9.84M20.542 152.542l6.72-6.72"/><path class="cls-16" d="M18.142 155.662h58.08M25.342 145.822h45.36M25.342 145.822h45.36M18.142 155.662h58.08"/><path class="cls-19" d="M127.822 155.662h-4.32v70.8h4.32v-70.8"/><path class="cls-14" d="M123.742 158.782l2.88-3.12M123.742 163.102l4.32-4.32M123.742 167.182l4.32-4.32M123.742 171.502l4.32-4.32M123.742 175.822l4.32-4.32M123.742 179.902l4.32-4.32M123.742 184.222l4.32-4.32M123.742 188.542l4.32-4.32M123.742 192.862l4.32-4.32M123.742 196.942l4.32-4.32M123.742 201.262l4.32-4.32M123.742 205.582l4.32-4.32M123.742 209.662l4.32-4.32M123.742 213.982l4.32-4.32M123.742 218.302l4.32-4.32M123.742 222.382l4.32-4.32M123.982 226.462l4.08-4.08"/><path class="cls-19" d="M127.822 155.662h-4.32v70.8h4.32v-70.8"/><path class="cls-14" d="M123.742 158.782l2.88-3.12M123.742 163.102l4.32-4.32M123.742 167.182l4.32-4.32M123.742 171.502l4.32-4.32M123.742 175.822l4.32-4.32M123.742 179.902l4.32-4.32M123.742 184.222l4.32-4.32M123.742 188.542l4.32-4.32M123.742 192.862l4.32-4.32M123.742 196.942l4.32-4.32M123.742 201.262l4.32-4.32M123.742 205.582l4.32-4.32M123.742 209.662l4.32-4.32M123.742 213.982l4.32-4.32M123.742 218.302l4.32-4.32M123.742 222.382l4.32-4.32M123.982 226.462l4.08-4.08"/><path class="cls-16" d="M127.822 226.462v-70.8M123.502 226.462v-70.8M123.502 226.462v-70.8M127.822 226.462v-70.8M127.822 252.622h-4.32M123.502 155.662h4.32"/><path class="cls-15" d="M127.822 250.942h-4.32M127.822 228.142h-4.32"/><path class="cls-16" d="M127.822 252.622h-4.32M127.822 226.462h-4.32"/><path class="cls-14" d="M100.798 228.16c0 12.443 10.236 22.679 22.675 22.679M123.502 228.142h-22.8"/><path class="cls-19" d="M289.805 135.598a3.861 3.861 0 0 0 0 4.277 7.924 7.924 0 0 0 6.197 2.894l9.03-.254v-9.557l-9.028-.252a7.92 7.92 0 0 0-6.2 2.892"/><path class="cls-15" d="M289.805 135.598a3.861 3.861 0 0 0 0 4.277 7.924 7.924 0 0 0 6.197 2.894l9.03-.254v-9.557l-9.028-.252a7.92 7.92 0 0 0-6.2 2.892"/><path class="cls-19" d="M299.92 137.736a3.835 3.835 0 0 0-3.789-3.967 6.848 6.848 0 0 0-5.41 2.498 2.732 2.732 0 0 0 0 2.938 6.847 6.847 0 0 0 5.41 2.498 3.835 3.835 0 0 0 3.79-3.967"/><path class="cls-15" d="M299.92 137.736a3.835 3.835 0 0 0-3.789-3.967 6.848 6.848 0 0 0-5.41 2.498 2.732 2.732 0 0 0 0 2.938 6.847 6.847 0 0 0 5.41 2.498 3.835 3.835 0 0 0 3.79-3.967"/><path class="cls-19" d="M256.462 86.542h48.48v22.56h-48.48v-22.56"/><path class="cls-15" d="M256.462 86.542h48.48v22.56h-48.48zM303.022 86.542v22.56M305.662 150.862v-19.44"/><path class="cls-6" d="M304.942 150.862v-19.44"/><path class="cls-15" d="M307.102 150.862v-19.44M305.662 150.862v-19.44M304.942 150.862v-19.44M307.102 150.862v-19.44"/><path class="cls-6" d="M305.662 150.862h-.72"/><path class="cls-15" d="M307.102 150.862h-1.44M305.662 131.422v-1.44"/><path class="cls-6" d="M304.942 131.422v-2.16"/><path class="cls-15" d="M305.662 131.422v-1.44M304.942 131.422v-2.16M309.502 129.982v-18.48"/><path class="cls-6" d="M308.782 129.262v-17.04"/><path class="cls-15" d="M310.942 131.422v-21.36M309.502 129.982v-18.48M308.782 129.262v-17.04M310.942 131.422v-21.36M305.662 111.502v-1.44"/><path class="cls-6" d="M304.942 112.222v-2.16"/><path class="cls-15" d="M305.662 111.502v-1.44M304.942 112.222v-2.16M305.662 110.062v-24"/><path class="cls-6" d="M304.942 110.062v-24"/><path class="cls-15" d="M307.102 110.062v-24M305.662 110.062v-24"/><path class="cls-6" d="M305.662 86.062h-.72"/><path class="cls-15" d="M307.102 86.062h-1.44M304.942 110.062v-24M307.102 110.062v-24"/><path class="cls-19" d="M305.033 112.947h-12.048a1.131 1.131 0 0 0-1.133 1.135v13.322a1.131 1.131 0 0 0 1.133 1.133h12.048v-15.59"/><path class="cls-15" d="M305.033 112.947h-12.048a1.131 1.131 0 0 0-1.133 1.135v13.322a1.131 1.131 0 0 0 1.133 1.133h12.048v-15.59"/><path class="cls-13" d="M304.942 129.262h3.84"/><path class="cls-3" d="M308.782 129.262v-17.04"/><path class="cls-13" d="M308.782 112.222h-3.84"/><path class="cls-15" d="M309.502 111.502h-3.84"/><path class="cls-6" d="M308.782 112.222h-3.84"/><path class="cls-15" d="M310.942 110.062h-3.84M309.502 111.502h-3.84M308.782 112.222h-3.84M310.942 110.062h-3.84M305.662 129.982h3.84"/><path class="cls-6" d="M304.942 129.262h3.84"/><path class="cls-15" d="M307.102 131.422h3.84M305.662 129.982h3.84M304.942 129.262h3.84M307.102 131.422h3.84"/><path class="cls-6" d="M304.942 129.262v-17.04"/><path class="cls-15" d="M216.622 31.342h17.04v.72h-17.04zM216.622 16.222h.72v15.12h-.72zM233.182 16.222h.48v15.12h-.48zM215.662 31.342h.96v.72h-.96zM216.622 15.502h17.04v.72h-17.04zM233.662 31.342h17.04v.72h-17.04zM233.662 16.222h.72v15.12h-.72zM250.222 16.222h.48v15.12h-.48zM233.662 15.502h17.04v.72h-17.04zM250.702 31.342h1.2v.72h-1.2z"/><path class="cls-18" d="M218.782 13.582h9.84v2.64h-9.84z"/><path class="cls-15" d="M218.782 13.582h9.84v2.64h-9.84zM218.542 16.222z"/><path class="cls-12" d="M219.502 16.222v8.64"/><path class="cls-5" d="M227.902 16.222l-.24 1.68-.48 1.68-.72 1.44-.96 1.2-1.44 1.2-1.44.72-1.44.48-1.68.24"/><path class="cls-15" d="M295.342 174.862h17.28v77.76h-17.28zM297.502 251.422h-2.16M297.502 243.022h-2.16M297.502 225.982h-2.16M297.502 208.942h-2.16M297.502 191.902h-2.16M295.342 174.382h17.28v.48h-17.28zM295.342 157.342h.48v17.04h-.48zM295.822 157.342h15.36v.48h-15.36zM295.822 173.662h15.36v.72h-15.36zM295.342 156.142h.48v1.2h-.48zM311.182 157.342h.48v17.04h-.48z"/><path class="cls-19" d="M307.58 192.8h-8.931c-.26 0-.518.05-.758.15a1.965 1.965 0 0 0-1.073 1.073c-.101.243-.151.5-.151.761v11.196a1.974 1.974 0 0 0 .58 1.404c.185.185.404.329.644.43.24.1.499.15.758.15h8.93a1.988 1.988 0 0 0 1.834-1.224c.098-.241.151-.498.151-.76v-11.196c0-.261-.053-.518-.151-.76a1.988 1.988 0 0 0-1.834-1.224"/><path class="cls-15" d="M307.58 192.8h-8.931c-.26 0-.518.05-.758.15a1.965 1.965 0 0 0-1.073 1.073c-.101.243-.151.5-.151.761v11.196a1.974 1.974 0 0 0 .58 1.404c.185.185.404.329.644.43.24.1.499.15.758.15h8.93a1.988 1.988 0 0 0 1.834-1.224c.098-.241.151-.498.151-.76v-11.196c0-.261-.053-.518-.151-.76a1.988 1.988 0 0 0-1.834-1.224"/><path class="cls-19" d="M307.342 200.422c0-.593-.487-1.08-1.08-1.08-.593 0-1.08.487-1.08 1.08s.487 1.08 1.08 1.08c.593 0 1.08-.487 1.08-1.08"/><path class="cls-15" d="M307.342 200.422c0-.593-.487-1.08-1.08-1.08-.593 0-1.08.487-1.08 1.08s.487 1.08 1.08 1.08c.593 0 1.08-.487 1.08-1.08"/><path class="cls-18" d="M296.782 226.462h14.4v15.84h-14.4z"/><path class="cls-15" d="M296.782 226.462h14.4v15.84h-14.4z"/><path class="cls-19" d="M304.222 238.462c0-1.58-1.246-2.88-2.76-2.88s-2.76 1.3-2.76 2.88 1.245 2.88 2.76 2.88 2.76-1.301 2.76-2.88"/><path class="cls-15" d="M304.222 238.462c0-1.58-1.246-2.88-2.76-2.88s-2.76 1.3-2.76 2.88 1.245 2.88 2.76 2.88 2.76-1.301 2.76-2.88"/><path class="cls-19" d="M310.462 239.422c0-1.186-1.03-2.16-2.28-2.16s-2.28.974-2.28 2.16 1.03 2.16 2.28 2.16 2.28-.975 2.28-2.16"/><path class="cls-15" d="M310.462 239.422c0-1.186-1.03-2.16-2.28-2.16s-2.28.974-2.28 2.16 1.03 2.16 2.28 2.16 2.28-.975 2.28-2.16"/><path class="cls-19" d="M303.502 230.782c0-1.186-.975-2.16-2.16-2.16s-2.16.974-2.16 2.16.974 2.16 2.16 2.16 2.16-.975 2.16-2.16"/><path class="cls-15" d="M303.502 230.782c0-1.186-.975-2.16-2.16-2.16s-2.16.974-2.16 2.16.974 2.16 2.16 2.16 2.16-.975 2.16-2.16"/><path class="cls-19" d="M310.702 231.142c0-1.515-1.301-2.76-2.88-2.76s-2.88 1.245-2.88 2.76 1.3 2.76 2.88 2.76 2.88-1.246 2.88-2.76"/><path class="cls-15" d="M310.702 231.142c0-1.515-1.301-2.76-2.88-2.76s-2.88 1.245-2.88 2.76 1.3 2.76 2.88 2.76 2.88-1.246 2.88-2.76"/><path class="cls-1" d="M302.542 156.142v96.48"/><path class="cls-15" d="M216.142 267.262l7.2 40.8h80.88l7.44-40.8"/><path class="cls-15" d="M214.222 267.262l7.68 42.48h83.76l7.68-42.48"/><path class="cls-19" d="M18.142 91.102l5.52-7.92h-5.52v7.92"/><path class="cls-14" d="M22.222 85.582l-2.4-2.4M20.542 87.982l-2.16-2.4M18.862 90.142l-.48-.48M18.382 90.622l.96-.96M18.382 86.542l3.36-3.36"/><path class="cls-19" d="M18.142 91.102l5.52-7.92h-5.52v7.92"/><path class="cls-14" d="M22.222 85.582l-2.4-2.4M20.542 87.982l-2.16-2.4M18.862 90.142l-.48-.48M18.382 90.622l.96-.96M18.382 86.542l3.36-3.36"/><path class="cls-16" d="M18.142 83.182v7.92M18.142 83.182v7.92"/><path class="cls-19" d="M25.342 47.422v-.24l-7.2-7.2v7.44h7.2"/><path class="cls-14" d="M24.142 47.422l-5.76-6M20.062 47.422l-1.68-1.92M25.342 47.422h.24M21.502 47.422l2.16-2.16M18.382 46.462l3.12-3.12M18.382 42.622l1.2-1.44"/><path class="cls-19" d="M25.342 47.422v-.24l-7.2-7.2v7.44h7.2"/><path class="cls-14" d="M24.142 47.422l-5.76-6M20.062 47.422l-1.68-1.92M25.342 47.422h.24M21.502 47.422l2.16-2.16M18.382 46.462l3.12-3.12M18.382 42.622l1.2-1.44"/><path class="cls-16" d="M18.142 39.982v7.44M25.342 47.182v.24M25.342 47.182v.24M18.142 39.982v7.44"/><path class="cls-15" d="M17.662 47.422h1.68v2.64h-1.68zM17.662 77.182h1.68v6h-1.68zM17.662 50.062h1.68v27.12h-1.68zM19.342 50.062v27.12"/><path class="cls-1" d="M25.342 49.822v27.6"/><path class="cls-15" d="M25.342 76.942v.48"/><path class="cls-19" d="M25.342 47.422v2.4h-6v-2.4"/><path class="cls-14" d="M25.582 48.622l-1.44-1.2M22.462 49.822l-2.4-2.4M22.942 49.822l2.4-2.4M19.582 49.342l1.92-1.92"/><path class="cls-19" d="M25.342 83.182v-5.76h-6v5.76"/><path class="cls-14" d="M25.582 80.782l-3.6-3.36M23.902 83.182l-4.32-4.32M19.822 83.182l-.24-.48M21.742 83.182l3.84-3.84M19.582 81.502l3.84-4.08M19.582 77.422"/><path class="cls-16" d="M25.342 49.822h-6M25.342 77.422h-6M25.342 49.822h-6M25.342 47.422v2.4M25.342 77.422h-6M25.342 83.182v-5.76M18.142 47.422h1.2M18.142 83.182h1.2M25.342 47.422v2.4M25.342 83.182v-5.76M19.342 49.822v-2.4M19.342 77.422v5.76"/><path class="cls-19" d="M18.142 155.662l7.2-9.84v-54.72h-7.2v64.56"/><path class="cls-14" d="M25.582 92.782l-1.92-1.68M25.582 96.862l-5.76-5.76M25.582 100.942l-7.2-7.2M25.582 104.782l-7.2-7.2M25.582 108.862l-7.2-7.2M25.582 112.942l-7.2-7.2M25.582 116.782l-7.2-7.2M25.582 120.862l-7.2-7.2M25.582 124.942l-7.2-7.2M25.582 129.022l-7.2-7.2M25.582 132.862l-7.2-7.2M25.582 136.942l-7.2-7.2M25.582 141.022l-7.2-7.2M25.582 144.862l-7.2-7.2M24.142 147.742l-5.76-6M22.462 149.902l-4.08-4.08M20.782 152.302l-2.4-2.64M19.102 154.462l-.72-.72M18.382 154.702l2.16-2.16M18.382 150.862l7.2-7.2M18.382 146.782l7.2-7.2M18.382 142.702l7.2-7.2M18.382 138.862l7.2-7.2M18.382 134.782l7.2-7.2M18.382 130.702l7.2-7.2M18.382 126.622l7.2-7.2M18.382 122.782l7.2-7.2M18.382 118.702l7.2-7.2M18.382 114.622l7.2-7.2M18.382 110.782l7.2-7.2M18.382 106.702l7.2-7.2M18.382 102.622l7.2-7.2M18.382 98.782l7.2-7.2M18.382 94.702l3.36-3.6"/><path class="cls-19" d="M18.142 155.662l7.2-9.84v-54.72h-7.2v64.56"/><path class="cls-14" d="M25.582 92.782l-1.92-1.68M25.582 96.862l-5.76-5.76M25.582 100.942l-7.2-7.2M25.582 104.782l-7.2-7.2M25.582 108.862l-7.2-7.2M25.582 112.942l-7.2-7.2M25.582 116.782l-7.2-7.2M25.582 120.862l-7.2-7.2M25.582 124.942l-7.2-7.2M25.582 129.022l-7.2-7.2M25.582 132.862l-7.2-7.2M25.582 136.942l-7.2-7.2M25.582 141.022l-7.2-7.2M25.582 144.862l-7.2-7.2M24.142 147.742l-5.76-6M22.462 149.902l-4.08-4.08M20.782 152.302l-2.4-2.64M19.102 154.462l-.72-.72M18.382 154.702l2.16-2.16M18.382 150.862l7.2-7.2M18.382 146.782l7.2-7.2M18.382 142.702l7.2-7.2M18.382 138.862l7.2-7.2M18.382 134.782l7.2-7.2M18.382 130.702l7.2-7.2M18.382 126.622l7.2-7.2M18.382 122.782l7.2-7.2M18.382 118.702l7.2-7.2M18.382 114.622l7.2-7.2M18.382 110.782l7.2-7.2M18.382 106.702l7.2-7.2M18.382 102.622l7.2-7.2M18.382 98.782l7.2-7.2M18.382 94.702l3.36-3.6"/><path class="cls-16" d="M18.142 91.102v57.6M25.342 91.102v54.72M25.342 91.102v54.72M18.142 91.102v57.6"/><path class="cls-19" d="M70.702 91.102l5.52-10.08h-15.36v10.08h9.84"/><path class="cls-14" d="M75.502 82.702l-1.68-1.68M74.062 85.342l-4.32-4.32M72.622 87.742l-6.96-6.72M71.182 90.382l-9.36-9.36M67.822 91.102l-6.72-6.96M63.742 91.102l-2.64-2.88M69.982 91.102l1.92-1.92M65.902 91.102l10.08-10.08M61.822 91.102l10.08-10.08M61.102 87.982l6.96-6.96M61.102 83.902l2.88-2.88"/><path class="cls-19" d="M70.702 91.102l5.52-10.08h-15.36v10.08h9.84"/><path class="cls-14" d="M75.502 82.702l-1.68-1.68M74.062 85.342l-4.32-4.32M72.622 87.742l-6.96-6.72M71.182 90.382l-9.36-9.36M67.822 91.102l-6.72-6.96M63.742 91.102l-2.64-2.88M69.982 91.102l1.92-1.92M65.902 91.102l10.08-10.08M61.822 91.102l10.08-10.08M61.102 87.982l6.96-6.96M61.102 83.902l2.88-2.88"/><path class="cls-16" d="M60.862 91.102h9.84M60.862 81.022h15.36M60.862 81.022h15.36M60.862 91.102h9.84"/><path class="cls-19" d="M25.342 91.102v-10.08l-7.2 10.08h7.2"/><path class="cls-14" d="M25.582 84.862l-1.68-1.68M25.582 88.702l-3.36-3.12M23.662 91.102l-3.12-3.12M19.822 91.102l-.96-.96M21.742 91.102l3.84-3.6M19.342 89.422l6.24-6"/><path class="cls-19" d="M25.342 91.102v-10.08l-7.2 10.08h7.2"/><path class="cls-14" d="M25.582 84.862l-1.68-1.68M25.582 88.702l-3.36-3.12M23.662 91.102l-3.12-3.12M19.822 91.102l-.96-.96M21.742 91.102l3.84-3.6M19.342 89.422l6.24-6"/><path class="cls-15" d="M28.462 89.662h29.28"/><path class="cls-1" d="M28.462 81.022h29.28"/><path class="cls-15" d="M57.262 81.022h.48"/><path class="cls-19" d="M25.342 81.022h3.12v8.64h-3.12"/><path class="cls-14" d="M28.702 83.902l-3.12-2.88M28.702 87.982l-3.12-3.12M26.302 89.662l-.72-.96M27.262 89.662l1.44-1.2M25.582 87.502l3.12-3.12M25.582 83.422l2.4-2.4"/><path class="cls-19" d="M60.862 81.022h-3.12v8.64h3.12"/><path class="cls-14" d="M61.102 84.142l-3.12-3.12M61.102 88.222l-3.12-3.12M58.462 89.662l-.48-.48M59.422 89.662l1.68-1.68M57.982 87.022l3.12-3.12M57.982 83.182l1.92-2.16"/><path class="cls-16" d="M28.462 81.022v8.64M57.742 81.022v8.64M28.462 81.022v8.64M25.342 81.022h3.12M57.742 81.022v8.64M60.862 81.022h-3.12M25.342 91.102v-1.44M60.862 91.102v-1.44M25.342 81.022h3.12M60.862 81.022h-3.12M28.462 89.662h-3.12M57.742 89.662h3.12"/><path class="cls-19" d="M205.822.142l9.6 7.2h13.92l7.2-7.2h-30.72"/><path class="cls-14" d="M235.102 1.822l-1.68-1.68M232.942 3.742l-3.6-3.6M231.022 5.662l-5.52-5.52M228.622 7.342l-7.2-7.2M224.542 7.342l-7.2-7.2M220.702 7.342l-7.2-7.2M216.622 7.342l-7.2-7.2M225.742 7.342l7.2-7.2M221.902 7.342l7.2-7.2M217.822 7.342l7.2-7.2M214.462 6.622l6.48-6.48M212.302 4.942l4.8-4.8M209.902 3.262l3.12-3.12M207.742 1.342l1.2-1.2"/><path class="cls-19" d="M205.822.142l9.6 7.2h13.92l7.2-7.2h-30.72"/><path class="cls-14" d="M235.102 1.822l-1.68-1.68M232.942 3.742l-3.6-3.6M231.022 5.662l-5.52-5.52M228.622 7.342l-7.2-7.2M224.542 7.342l-7.2-7.2M220.702 7.342l-7.2-7.2M216.622 7.342l-7.2-7.2M225.742 7.342l7.2-7.2M221.902 7.342l7.2-7.2M217.822 7.342l7.2-7.2M214.462 6.622l6.48-6.48M212.302 4.942l4.8-4.8M209.902 3.262l3.12-3.12M207.742 1.342l1.2-1.2"/><path class="cls-16" d="M236.542.142h-30.72M229.342 7.342h-13.92M229.342 7.342h-13.92M236.542.142h-30.72"/><path class="cls-19" d="M229.342 12.622l7.2-7.2V.142l-7.2 7.2v5.28"/><path class="cls-14" d="M236.782 3.262l-1.68-1.44M235.582 6.382l-2.64-2.64M233.662 8.302l-2.64-2.64M231.742 10.462l-2.16-2.16M229.582 12.382v-.24M229.582 11.662l7.2-7.2M229.582 7.822l7.2-7.2"/><path class="cls-19" d="M229.342 12.622l7.2-7.2V.142l-7.2 7.2v5.28"/><path class="cls-14" d="M236.782 3.262l-1.68-1.44M235.582 6.382l-2.64-2.64M233.662 8.302l-2.64-2.64M231.742 10.462l-2.16-2.16M229.582 12.382v-.24M229.582 11.662l7.2-7.2M229.582 7.822l7.2-7.2"/><path class="cls-16" d="M229.342 7.342v5.28M236.542.142v5.28M236.542.142v5.28M229.342 7.342v5.28"/><path class="cls-19" d="M236.542 5.422l-7.2 7.2h22.8l6.96-7.2h-22.56"/><path class="cls-14" d="M259.102 5.662l-.24-.24M256.942 7.582l-2.16-2.16M255.022 9.742l-4.32-4.32M253.102 11.662l-6.48-6.24M249.982 12.622l-7.2-7.2M245.902 12.622l-7.2-7.2M241.822 12.622l-6.24-6.24M237.982 12.622l-4.32-4.32M233.902 12.622l-2.16-2.16M229.822 12.622l-.24-.24M248.542 12.622l7.2-7.2M244.702 12.622l7.2-7.2M240.622 12.622l7.2-7.2M236.542 12.622l7.2-7.2M232.702 12.622l7.2-7.2"/><path class="cls-19" d="M236.542 5.422l-7.2 7.2h22.8l6.96-7.2h-22.56"/><path class="cls-14" d="M259.102 5.662l-.24-.24M256.942 7.582l-2.16-2.16M255.022 9.742l-4.32-4.32M253.102 11.662l-6.48-6.24M249.982 12.622l-7.2-7.2M245.902 12.622l-7.2-7.2M241.822 12.622l-6.24-6.24M237.982 12.622l-4.32-4.32M233.902 12.622l-2.16-2.16M229.822 12.622l-.24-.24M248.542 12.622l7.2-7.2M244.702 12.622l7.2-7.2M240.622 12.622l7.2-7.2M236.542 12.622l7.2-7.2M232.702 12.622l7.2-7.2"/><path class="cls-16" d="M259.102 5.422h-22.56M252.142 12.622h-22.8M252.142 12.622h-22.8M259.102 5.422h-22.56"/><path class="cls-19" d="M259.102 91.822h29.76v24.96h-29.76v-24.96"/><path class="cls-14" d="M64.798 257.643a19.058 19.058 0 0 0-1.452-7.262 19.607 19.607 0 0 0-1.757-3.282 18.89 18.89 0 0 0-2.364-2.877c-.44-.44-.9-.857-1.38-1.253a18.831 18.831 0 0 0-3.094-2.069c-.55-.293-1.11-.56-1.684-.8a19.551 19.551 0 0 0-1.755-.628 19.077 19.077 0 0 0-5.508-.823M45.742 238.702v18.96M64.702 257.662l.24-1.44M64.942 254.782l.24-.96M65.182 253.822l.24-.48"/><path class="cls-9" d="M65.662 252.142l.48-1.68"/><path class="cls-14" d="M66.862 249.262l.24-.48M67.102 248.782l.48-.72M68.302 246.862l.72-1.2"/><path class="cls-11" d="M69.022 245.662l1.44-1.44"/><path class="cls-14" d="M70.462 244.222l.48-.48"/><path class="cls-4" d="M71.662 243.022l1.68-1.2"/><path class="cls-14" d="M74.302 241.102l.48-.24M74.782 240.862l.72-.24"/><path class="cls-10" d="M76.462 240.142l1.92-.72"/><path class="cls-14" d="M79.582 239.182l.48-.24M80.062 238.942h.96"/><path class="cls-8" d="M81.982 238.702h1.92"/><path class="cls-5" d="M83.902 238.702v18.96"/><path class="cls-14" d="M83.902 257.182v.48M160.608 257.643a18.95 18.95 0 0 0-.823-5.508 18.839 18.839 0 0 0-1.428-3.437 18.497 18.497 0 0 0-.958-1.599 18.917 18.917 0 0 0-3.744-4.13c-.48-.394-.979-.763-1.495-1.111a19.267 19.267 0 0 0-3.283-1.757 19.261 19.261 0 0 0-5.402-1.358 20.016 20.016 0 0 0-1.858-.094M141.502 238.702v18.96M160.702 257.662v-1.44M160.702 254.782l.24-.96M160.942 253.822l.24-.48"/><path class="cls-9" d="M161.422 252.142l.72-1.68"/><path class="cls-14" d="M162.622 249.262l.24-.48M162.862 248.782l.48-.72"/><path class="cls-10" d="M163.822 247.102l1.2-1.44"/><path class="cls-14" d="M165.982 244.462l.24-.24M166.222 244.222l.96-.72M168.142 242.542l.96-.72"/><path class="cls-17" d="M169.102 241.822l1.44-.96"/><path class="cls-14" d="M170.542 240.862l1.44-.48M173.182 239.662l.96-.24M174.142 239.422l.48-.24"/><path class="cls-9" d="M175.822 238.942l1.92-.24"/><path class="cls-14" d="M178.942 238.702h.72"/><path class="cls-5" d="M179.662 238.702v18.96"/><path class="cls-14" d="M179.662 257.182v.48M253.91 257.664c0-11.04-9.083-20.126-20.126-20.126M233.902 237.502v20.16"/><path class="cls-5" d="M253.822 257.662l.48-3.84 1.2-3.84 1.92-3.6 2.4-2.88 3.12-2.64 3.36-1.68 3.84-1.2 3.84-.48"/><path class="cls-12" d="M273.982 237.502v20.16"/><path class="cls-15" d="M241.822 100.942v.96M241.822 101.902l-.24.72M241.582 102.622l-.24.96M241.342 103.582v.24M240.622 105.022v.24M239.662 106.462l-.48.48M239.182 106.942l-.48.72M238.702 107.662l-.72.48M237.982 108.142l-.24.24M236.302 108.862l-.24.24M234.622 109.342l-.48.24M234.142 109.582h-.96M233.182 109.582h-.72M232.462 109.582l-.48-.24M230.542 109.102l-.24-.24M229.102 108.382l-.48-.24M228.622 108.142l-.72-.48M227.902 107.662l-.72-.72M227.182 106.942l-.48-.48M225.982 105.502l-.24-.24M225.262 103.822v-.24M225.262 103.582l-.24-.96M225.022 102.622l-.24-.72M224.782 101.902v-.72M224.782 99.742l.24-.24M225.262 98.062l.24-.24M225.502 97.822l.24-.72M225.742 97.102l.48-.72M226.222 96.382l.48-.72M227.662 94.702l.24-.24M229.102 93.502h.24M229.342 93.502l.72-.24M230.062 93.262l.72-.48M230.782 92.782h.72M231.502 92.782h.24M233.182 92.542h.24M234.862 92.782h.96M235.822 92.782l.72.48M236.542 93.262l.72.24M237.262 93.502l.24.24M238.702 94.462l.24.24M239.902 95.662l.48.72M240.382 96.382l.48.72M240.862 97.102l.24.72M241.102 97.822l.24.24M241.582 99.502v.24"/></g><g id="Mbel"><path class="cls-2" d="M38.302 157.342h45.36v56.64h-45.36zM106.222 157.342h15.6v56.64h-15.6zM165.982 192.622h28.32v14.16h-28.32zM206.837 161.688v18.71c0 .056-.005.11-.017.166a.883.883 0 0 1-.233.434.689.689 0 0 1-.13.106.78.78 0 0 1-.304.127.776.776 0 0 1-.166.017h-24.945a.842.842 0 0 1-.603-.25.858.858 0 0 1-.184-.275.884.884 0 0 1-.063-.325v-18.71h26.645"/><path class="cls-2" d="M211.373 158.004V180.4a.867.867 0 0 1-.25.6.887.887 0 0 1-.276.184.77.77 0 0 1-.16.048.746.746 0 0 1-.166.017h-2.834a.84.84 0 0 1-.6-.25.858.858 0 0 1-.25-.6v-22.394a.842.842 0 0 1 .526-.785.84.84 0 0 1 .324-.064h2.834a.851.851 0 0 1 .787.523c.04.103.065.213.065.326M180.192 161.688v-3.684a.972.972 0 0 0-.017-.165.859.859 0 0 0-.835-.684h-24.945a.852.852 0 0 0-.785.523.843.843 0 0 0-.065.326v3.684M153.502 164.062h53.28M153.545 161.688v18.71a.87.87 0 0 0 .144.473.903.903 0 0 0 .235.233.78.78 0 0 0 .305.127c.055.012.11.017.166.017h24.945a.76.76 0 0 0 .166-.017.772.772 0 0 0 .307-.127.89.89 0 0 0 .235-.233.883.883 0 0 0 .127-.307.97.97 0 0 0 .017-.165v-18.71h-26.647"/><path class="cls-2" d="M149.009 158.004V180.4a.865.865 0 0 0 .25.6.893.893 0 0 0 .276.184.77.77 0 0 0 .16.048.76.76 0 0 0 .166.017h2.834c.056 0 .11-.005.166-.017a.886.886 0 0 0 .434-.233.66.66 0 0 0 .106-.127.887.887 0 0 0 .127-.307.776.776 0 0 0 .017-.165v-22.395a.843.843 0 0 0-.526-.785.84.84 0 0 0-.324-.064h-2.834a.852.852 0 0 0-.787.523.888.888 0 0 0-.065.326M180.192 161.688v-3.684c0-.113.022-.223.063-.326a.851.851 0 0 1 .787-.523h24.945a.852.852 0 0 1 .785.523.842.842 0 0 1 .065.326v3.684M129.262 193.822h10.8v28.32h-10.8zM265.291 202.469l6.25-6.25-8.018-8.016-6.25 6.248M244.915 222.843l-6.247 6.25-8.018-8.02 6.25-6.246M257.273 222.843l6.25 6.25 8.018-8.02-6.25-6.246M236.9 202.469l-6.25-6.25 8.018-8.016 6.247 6.248"/><path class="cls-2" d="M265.342 208.702c0-7.77-6.391-14.16-14.16-14.16s-14.16 6.39-14.16 14.16 6.39 14.16 14.16 14.16 14.16-6.391 14.16-14.16"/></g><g id="Text"><path d="M176.386 217.113h-.67v-5.333h.67v2.455l2.071-2.455h.808l-2.223 2.639 2.223 2.694h-.856l-2.023-2.463v2.463zM183.404 215.282c0 1.08-.832 1.919-1.887 1.919-1.096 0-1.863-.8-1.863-1.935 0-1.143.767-1.927 1.887-1.927 1.087 0 1.863.808 1.863 1.943zm-3.126-.008c0 .816.503 1.367 1.254 1.367.728 0 1.248-.568 1.248-1.367 0-.824-.496-1.375-1.239-1.375-.76 0-1.263.551-1.263 1.375zM187.416 216.657c-.416.376-.824.544-1.36.544-1.055 0-1.807-.8-1.807-1.919 0-1.144.76-1.943 1.84-1.943.527 0 .96.176 1.343.552l-.392.391c-.28-.255-.592-.383-.935-.383-.728 0-1.232.56-1.232 1.359 0 .815.504 1.383 1.224 1.383.36 0 .647-.12.943-.4l.376.416zM188.958 213.939c.335-.416.671-.6 1.112-.6.319 0 .655.128.855.336.2.2.287.488.287.96v2.478h-.607v-2.447c0-.503-.248-.783-.688-.783a.94.94 0 0 0-.72.328c-.183.208-.239.391-.239.743v2.159h-.608v-5.333h.608v2.159zM192.94 215.466c.032.312.089.472.24.671.24.329.592.504.991.504.456 0 .888-.248 1.104-.632l.536.2c-.304.616-.936.992-1.64.992-1.095 0-1.879-.8-1.879-1.919 0-1.135.776-1.943 1.856-1.943 1.071 0 1.87.808 1.87 1.887 0 .048 0 .152-.007.24h-3.07zm2.43-.448c-.023-.288-.079-.447-.207-.632a1.268 1.268 0 0 0-1.015-.503c-.409 0-.776.192-.992.511-.112.177-.16.328-.208.624h2.422zM197.693 213.427v.52c.32-.432.64-.608 1.095-.608.336 0 .64.112.856.304.232.224.312.48.312.983v2.487h-.608v-2.35c0-.329-.04-.504-.136-.632-.111-.152-.328-.248-.575-.248a.916.916 0 0 0-.704.312c-.176.191-.24.367-.24.671v2.247h-.608v-3.686h.608zM201.238 218.384l-.44-.136.671-1.943.576.184-.807 1.895zM206.372 214.138h2.103v.577h-2.103v1.822h2.103v.576H205.7v-5.333h2.775v.576h-2.103v1.782zM211.4 214.434v-.04c0-.343-.28-.56-.703-.56-.409 0-.665.209-.665.529s.16.44.824.623c.471.128.72.248.895.424.185.184.296.448.296.72 0 .64-.527 1.07-1.31 1.07-.84 0-1.312-.39-1.376-1.134h.6c.04.415.312.64.776.64.415 0 .687-.217.687-.545 0-.32-.208-.48-.84-.64-.8-.215-1.159-.55-1.159-1.11 0-.64.52-1.072 1.295-1.072.784 0 1.256.4 1.287 1.095h-.607zM214.944 214.434v-.04c0-.343-.28-.56-.704-.56-.408 0-.664.209-.664.529s.16.44.824.623c.472.128.72.248.895.424.185.184.296.448.296.72 0 .64-.527 1.07-1.31 1.07-.84 0-1.312-.39-1.376-1.134h.6c.04.415.312.64.775.64.416 0 .688-.217.688-.545 0-.32-.208-.48-.84-.64-.8-.215-1.159-.55-1.159-1.11 0-.64.52-1.072 1.295-1.072.784 0 1.256.4 1.287 1.095h-.607zM217.085 215.466c.032.312.09.472.24.671.24.329.592.504.992.504.456 0 .887-.248 1.103-.632l.536.2c-.303.616-.935.992-1.64.992-1.094 0-1.878-.8-1.878-1.919 0-1.135.776-1.943 1.855-1.943 1.071 0 1.871.808 1.871 1.887 0 .048 0 .152-.009.24h-3.07zm2.432-.448c-.025-.288-.08-.447-.208-.632a1.268 1.268 0 0 0-1.016-.503c-.408 0-.775.192-.991.511-.112.177-.16.328-.208.624h2.423zM221.84 213.427v.52c.318-.432.638-.608 1.094-.608.336 0 .64.112.855.304.233.224.313.48.313.983v2.487h-.609v-2.35c0-.329-.04-.504-.135-.632-.113-.152-.328-.248-.576-.248a.916.916 0 0 0-.704.312c-.175.191-.239.367-.239.671v2.247h-.608v-3.686h.608zM225.383 218.384l-.44-.136.671-1.943.577.184-.808 1.895zM181.2 220.78h.696l-1.632 5.333h-.592l-1.175-4.19-1.183 4.19h-.592l-1.631-5.333h.712l1.215 4.086 1.183-4.086h.632l1.143 4.102 1.223-4.102zM186.007 224.282c0 1.08-.831 1.919-1.887 1.919-1.095 0-1.863-.8-1.863-1.935 0-1.143.768-1.927 1.888-1.927 1.087 0 1.862.808 1.862 1.943zm-3.126-.008c0 .816.504 1.367 1.255 1.367.728 0 1.248-.568 1.248-1.367 0-.824-.496-1.375-1.24-1.375-.759 0-1.263.551-1.263 1.375zM187.72 222.939c.336-.416.672-.6 1.112-.6.32 0 .656.128.856.336.199.2.287.488.287.96v2.478h-.608v-2.447c0-.503-.248-.783-.687-.783a.94.94 0 0 0-.72.328c-.183.208-.24.391-.24.743v2.159h-.607v-5.333h.607v2.159zM191.925 222.427v.52c.32-.432.64-.608 1.096-.608.336 0 .64.112.855.304.233.224.313.48.313.983v2.487h-.609v-2.35c0-.329-.04-.504-.135-.632-.112-.152-.329-.248-.576-.248a.916.916 0 0 0-.704.312c-.176.191-.24.367-.24.671v2.247h-.607v-3.686h.607zM195.915 224.466c.032.312.09.472.24.671.24.329.592.504.992.504.456 0 .887-.248 1.103-.632l.536.2c-.303.616-.935.992-1.64.992-1.094 0-1.878-.8-1.878-1.919 0-1.135.776-1.943 1.855-1.943 1.072 0 1.871.808 1.871 1.887 0 .048 0 .152-.008.24h-3.07zm2.432-.448c-.025-.288-.08-.447-.208-.632a1.268 1.268 0 0 0-1.016-.503c-.408 0-.775.192-.99.511-.113.177-.161.328-.209.624h2.423zM200.67 222.427v.52c.319-.432.638-.608 1.094-.608.336 0 .64.112.855.304.233.224.313.48.313.983v2.487h-.609v-2.35c0-.329-.04-.504-.135-.632-.113-.152-.328-.248-.575-.248a.916.916 0 0 0-.705.312c-.175.191-.239.367-.239.671v2.247h-.608v-3.686h.608zM178.385 234.53v.583h-2.99l1.855-2.654c.535-.776.655-1.016.655-1.336 0-.464-.368-.791-.887-.791-.36 0-.655.168-.776.448-.064.151-.087.271-.095.551h-.6c.031-1.015.567-1.575 1.519-1.575.872 0 1.48.544 1.48 1.32 0 .447-.161.839-.608 1.462l-1.432 1.992h1.879zM182.455 234.53v.583h-2.99l1.856-2.654c.535-.776.655-1.016.655-1.336 0-.464-.368-.791-.888-.791-.36 0-.655.168-.775.448-.065.151-.088.271-.096.551h-.6c.032-1.015.568-1.575 1.519-1.575.872 0 1.48.544 1.48 1.32 0 .447-.16.839-.608 1.462l-1.432 1.992h1.88zM184.527 234.77a.406.406 0 0 1-.415.407.403.403 0 0 1-.416-.416c0-.24.175-.416.416-.416.239 0 .415.176.415.424zM188.522 232.562c.264.264.4.616.4 1.032 0 .943-.696 1.615-1.67 1.615-.969 0-1.648-.648-1.648-1.56 0-.423.143-.806.4-1.07.167-.176.303-.257.623-.36-.28-.096-.4-.176-.544-.352a1.228 1.228 0 0 1-.271-.784c0-.76.623-1.32 1.47-1.32.84 0 1.448.553 1.448 1.312 0 .304-.104.592-.296.816-.144.16-.256.232-.528.327.304.097.448.168.616.344zm-2.286 1.024c0 .568.455 1.031 1.023 1.031.567 0 1.023-.463 1.023-1.031 0-.56-.456-1.032-1.007-1.032a1.03 1.03 0 0 0-1.04 1.032zm.183-2.495c0 .456.376.816.848.816.456 0 .863-.376.863-.808 0-.416-.391-.776-.848-.776-.511 0-.863.32-.863.768zM192.179 231.427v.512c.28-.424.592-.6 1.048-.6.504 0 .823.216.991.671.272-.471.616-.67 1.168-.67.424 0 .743.135.936.39.175.233.223.44.223 1.024v2.359h-.607v-2.215c0-.448-.017-.552-.105-.703-.111-.192-.351-.312-.64-.312-.535 0-.83.36-.83 1.015v2.215h-.609v-2.207c0-.36-.031-.543-.119-.703-.104-.208-.328-.32-.6-.32-.536 0-.856.383-.856 1.023v2.207h-.607v-3.686h.607zM199.77 232.61v.408h-1.95l1.183-1.615c.336-.456.407-.592.407-.768 0-.255-.215-.44-.527-.44-.352 0-.496.177-.504.592h-.44c.024-.647.36-.99.976-.99.56 0 .951.335.951.806 0 .272-.103.52-.383.88l-.848 1.128h1.136z"/><g><path d="M233.502 284.25c1.087 0 1.703.512 1.703 1.415 0 .344-.104.648-.303.872-.128.152-.256.232-.544.344.296.064.44.12.607.248.288.232.44.591.44 1.023 0 .496-.216.927-.576 1.16-.311.2-.655.271-1.327.271H232v-5.333h1.503zm-.832 2.399l.68-.008c.424 0 .68-.056.872-.208a.937.937 0 0 0 .327-.736c0-.343-.168-.647-.424-.767-.191-.096-.415-.128-.903-.128h-.552v1.847zm0 2.39h.672c.56 0 .775-.04 1.008-.175.256-.144.384-.4.384-.752 0-.64-.376-.92-1.224-.92h-.84v1.847zM239.392 285.897H240v3.686h-.608v-.711c-.367.551-.783.8-1.343.8-1.016 0-1.735-.8-1.735-1.92 0-1.127.736-1.943 1.75-1.943.56 0 .968.216 1.328.696v-.608zm-2.135.896a1.686 1.686 0 0 0-.304.975c0 .784.512 1.375 1.184 1.375.695 0 1.264-.647 1.264-1.439 0-.8-.512-1.351-1.248-1.351-.4 0-.68.136-.896.44zM241.359 289.583v-5.333h.607v5.333h-.607zM243.925 289.583h-.608v-5.333h.608v3.262l1.47-1.615h.768l-1.647 1.8 1.64 1.886h-.76l-1.471-1.647v1.647zM250.353 287.752c0 1.08-.831 1.92-1.887 1.92-1.096 0-1.863-.8-1.863-1.936 0-1.143.767-1.927 1.887-1.927 1.087 0 1.863.808 1.863 1.943zm-3.126-.008c0 .816.504 1.368 1.255 1.368.727 0 1.248-.568 1.248-1.368 0-.823-.496-1.375-1.24-1.375-.76 0-1.263.552-1.263 1.375zM252.066 285.897v.52c.32-.432.64-.608 1.095-.608.336 0 .64.112.856.304.232.224.312.48.312.983v2.487h-.608v-2.35c0-.328-.04-.504-.136-.632-.111-.152-.328-.248-.575-.248a.916.916 0 0 0-.704.312c-.176.192-.24.367-.24.672v2.246h-.608v-3.686h.608zM234.293 293.858h-1.719v1.431c.272-.103.512-.152.784-.152.935 0 1.64.736 1.64 1.735 0 1.024-.753 1.768-1.8 1.768-.751 0-1.319-.393-1.591-1.096l.576-.216c.128.232.183.328.271.408.168.168.464.272.76.272.64 0 1.127-.496 1.127-1.151 0-.68-.48-1.136-1.183-1.136-.416 0-.84.192-1.183.544v-3.015h2.318v.608zM236.858 298.24a.406.406 0 0 1-.415.408c-.24 0-.416-.176-.416-.416s.175-.416.416-.416c.239 0 .415.175.415.423zM241.16 296.977c0 .6-.113.967-.377 1.247-.279.296-.703.447-1.207.447-.52 0-.95-.16-1.231-.464-.28-.296-.352-.6-.352-1.407v-1.759c0-.695.08-1.023.32-1.311.263-.32.704-.496 1.247-.496.488 0 .887.136 1.183.4.304.28.416.6.416 1.224v2.119zm-2.535-.137c0 .616.024.728.2.928.167.192.455.311.76.311.327 0 .631-.135.782-.351.12-.176.168-.4.168-.791v-2.04c0-.415-.07-.623-.271-.815a.997.997 0 0 0-.68-.248c-.344 0-.64.136-.792.384-.136.191-.167.376-.167.84v1.782zM244.49 294.898v.511c.279-.423.59-.6 1.046-.6.504 0 .824.217.992.672.272-.472.616-.671 1.168-.671.423 0 .743.136.935.391.176.232.224.44.224 1.024v2.358h-.608v-2.215c0-.447-.016-.551-.104-.703-.112-.192-.352-.312-.64-.312-.535 0-.83.36-.83 1.015v2.215h-.61v-2.207c0-.36-.03-.543-.118-.703-.105-.208-.329-.32-.6-.32-.536 0-.856.384-.856 1.023v2.207h-.608v-3.685h.608zM252.08 296.081v.408h-1.95l1.183-1.616c.336-.455.407-.592.407-.767 0-.256-.216-.44-.527-.44-.352 0-.496.176-.504.592h-.44c.024-.648.36-.992.976-.992.56 0 .951.336.951.807 0 .273-.104.521-.384.88l-.847 1.128h1.135z"/></g><g><path d="M20.21 225.825v.576h-3.815l3.015-4.758H16.73v-.575h3.79l-3.014 4.757h2.703zM22.05 221.683c0 .216-.176.384-.392.384s-.384-.168-.384-.392.168-.392.393-.392c.216 0 .384.176.384.4zm-.088 4.718h-.608v-3.686h.608v3.686zM23.923 222.715v.511c.28-.424.591-.6 1.047-.6.504 0 .824.216.992.672.272-.472.616-.671 1.168-.671.423 0 .743.135.935.391.176.232.224.44.224 1.024v2.359h-.608v-2.215c0-.448-.016-.552-.104-.704-.111-.192-.352-.312-.64-.312-.535 0-.83.36-.83 1.016v2.215h-.61v-2.207c0-.36-.03-.544-.118-.704-.105-.208-.328-.32-.6-.32-.536 0-.856.384-.856 1.024v2.207h-.608v-3.686h.608zM30.245 222.715v.511c.28-.424.59-.6 1.047-.6.504 0 .823.216.99.672.273-.472.617-.671 1.169-.671.424 0 .743.135.935.391.176.232.224.44.224 1.024v2.359h-.607v-2.215c0-.448-.017-.552-.105-.704-.111-.192-.351-.312-.64-.312-.535 0-.83.36-.83 1.016v2.215h-.609v-2.207c0-.36-.031-.544-.12-.704-.104-.208-.327-.32-.599-.32-.536 0-.855.384-.855 1.024v2.207h-.609v-3.686h.609zM36.343 224.754c.03.311.087.471.239.671.24.328.592.504.991.504.456 0 .888-.248 1.104-.632l.536.2c-.304.616-.936.991-1.64.991-1.095 0-1.879-.799-1.879-1.918 0-1.136.775-1.943 1.856-1.943 1.07 0 1.87.807 1.87 1.887 0 .048 0 .152-.007.24h-3.07zm2.43-.448c-.024-.288-.08-.448-.208-.632a1.268 1.268 0 0 0-1.015-.504c-.409 0-.776.193-.992.512-.112.176-.16.328-.208.624h2.422zM41.094 222.715v.623c.113-.264.193-.375.336-.487.185-.144.44-.224.704-.224h.144v.615c-.063-.007-.128-.007-.168-.007a.945.945 0 0 0-.799.423c-.16.232-.217.448-.217.872v1.87h-.607v-3.685h.607zM17.18 231.819v-.608l1.806-1.183v5.373h-.632v-4.366l-1.175.784zM20.385 234.201v-.496l2.751-3.71v3.63h.624v.576h-.624v1.2h-.616v-1.2h-2.135zm2.135-2.614l-1.495 2.039h1.495v-2.04zM25.568 235.057a.406.406 0 0 1-.415.408.403.403 0 0 1-.416-.416c0-.24.176-.416.416-.416s.415.176.415.424zM26.523 231.819v-.608l1.807-1.183v5.373h-.632v-4.366l-1.175.784zM32.548 231.715v.511c.279-.424.59-.6 1.046-.6.504 0 .824.216.992.672.272-.472.616-.671 1.168-.671.423 0 .743.135.935.391.176.232.224.44.224 1.024v2.359h-.608v-2.215c0-.448-.016-.552-.104-.704-.111-.192-.352-.312-.64-.312-.535 0-.83.36-.83 1.016v2.215h-.61v-2.207c0-.36-.03-.544-.118-.704-.105-.208-.328-.32-.6-.32-.536 0-.855.384-.855 1.024v2.207h-.609v-3.686h.609zM40.138 232.898v.408h-1.95l1.183-1.615c.336-.456.407-.592.407-.768 0-.256-.216-.44-.527-.44-.352 0-.496.176-.504.592h-.44c.024-.648.36-.991.976-.991.56 0 .951.335.951.807 0 .272-.103.52-.384.88l-.847 1.127h1.135z"/></g><g><path d="M221.743 128.208h2.103v.576h-2.103v1.823h2.103v.576h-2.774v-5.333h2.774v.575h-2.103v1.783zM225.644 127.497v.52c.32-.432.64-.608 1.095-.608.336 0 .64.112.856.304.232.224.312.48.312.983v2.487h-.608v-2.35c0-.329-.04-.505-.136-.633-.111-.151-.328-.248-.575-.248a.916.916 0 0 0-.704.312c-.176.192-.24.368-.24.672v2.247h-.608v-3.686h.608zM229.905 130.431c.01.184.057.224.28.224h.281v.528h-.568c-.432-.008-.6-.168-.6-.576v-2.575h-.512v-.535h.512v-1.16h.607v1.16h.561v.535h-.56v2.4zM232.124 127.497v.623c.112-.263.192-.375.335-.487.185-.144.44-.224.704-.224h.144v.616c-.064-.008-.128-.008-.168-.008a.945.945 0 0 0-.799.423c-.16.232-.216.448-.216.872v1.87h-.608v-3.685h.608zM234.538 129.536c.033.311.09.472.24.671.24.328.592.504.992.504.456 0 .887-.248 1.103-.632l.536.2c-.303.616-.935.992-1.64.992-1.094 0-1.878-.8-1.878-1.92 0-1.134.776-1.942 1.855-1.942 1.072 0 1.871.808 1.871 1.887 0 .048 0 .152-.008.24h-3.07zm2.432-.448c-.024-.288-.08-.448-.208-.632a1.268 1.268 0 0 0-1.016-.504c-.408 0-.775.193-.99.512-.113.176-.161.328-.209.624h2.423zm-.177-3.183l-.935 1.056h-.44l.664-1.056h.711zM239.085 129.536c.031.311.088.472.24.671.24.328.591.504.99.504.457 0 .888-.248 1.104-.632l.536.2c-.303.616-.935.992-1.64.992-1.094 0-1.878-.8-1.878-1.92 0-1.134.775-1.942 1.855-1.942 1.072 0 1.871.808 1.871 1.887 0 .048 0 .152-.008.24h-3.07zm2.43-.448c-.024-.288-.08-.448-.207-.632a1.268 1.268 0 0 0-1.016-.504c-.408 0-.775.193-.991.512-.112.176-.16.328-.208.624h2.422zM222.08 137.065c.223-.08.326-.104.519-.104.888 0 1.575.695 1.575 1.599 0 .943-.775 1.719-1.72 1.719-.95 0-1.686-.752-1.686-1.72 0-.39.103-.687.407-1.175l1.527-2.454h.745l-1.368 2.135zm-.68 1.495c0 .623.471 1.119 1.07 1.119s1.08-.487 1.08-1.095c0-.6-.472-1.08-1.063-1.08-.608 0-1.087.464-1.087 1.056zM226.013 139.84a.406.406 0 0 1-.415.407.403.403 0 0 1-.416-.416c0-.24.176-.416.416-.416s.415.176.415.424zM227.382 135.506v-.576h3.023l-1.567 1.99c.927 0 1.583.664 1.583 1.608 0 1-.752 1.743-1.767 1.743-.84 0-1.439-.472-1.624-1.28l.577-.104c.143.512.52.8 1.015.8.648 0 1.16-.488 1.16-1.111 0-.64-.48-1.088-1.176-1.088-.248 0-.408.048-.64.184l-.264-.232 1.543-1.934h-1.863zM233.718 136.497v.512c.28-.424.592-.6 1.048-.6.504 0 .823.216.991.671.273-.471.616-.671 1.168-.671.424 0 .743.136.936.392.175.231.223.44.223 1.023v2.359h-.607v-2.215c0-.448-.017-.552-.105-.704-.111-.192-.351-.312-.64-.312-.535 0-.83.36-.83 1.016v2.215h-.609v-2.207c0-.36-.031-.544-.119-.703-.104-.208-.328-.32-.6-.32-.536 0-.856.383-.856 1.023v2.207h-.607v-3.686h.607zM241.31 137.68v.408h-1.951l1.183-1.615c.336-.456.407-.592.407-.768 0-.256-.215-.44-.527-.44-.351 0-.496.177-.504.592h-.44c.024-.647.36-.991.976-.991.56 0 .952.335.952.807 0 .272-.104.52-.384.88l-.848 1.127h1.136z"/></g><g><path d="M260.153 93.764h1.415c1.606 0 2.574.975 2.574 2.582 0 .904-.296 1.647-.84 2.135-.463.416-1.08.616-1.854.616h-1.295v-5.333zm.67 4.757h.24c.904 0 1.288-.096 1.672-.4.48-.383.72-.975.72-1.767 0-1.287-.688-2.023-1.912-2.023h-.72v4.19zM268.117 95.41v2.36c0 .503-.095.783-.368 1.031-.271.248-.647.384-1.063.384-.415 0-.8-.144-1.064-.392-.247-.24-.367-.575-.367-1.023v-2.36h.608v2.344c0 .52.335.887.823.887a.876.876 0 0 0 .656-.28c.12-.143.16-.295.16-.591v-2.36h.615zM271.17 96.418v-.04c0-.344-.28-.56-.704-.56-.408 0-.664.209-.664.528s.16.44.823.624c.472.128.72.248.896.424.184.184.296.448.296.72 0 .64-.528 1.07-1.31 1.07-.84 0-1.312-.39-1.377-1.134h.6c.04.415.312.64.776.64.415 0 .688-.217.688-.545 0-.32-.208-.48-.84-.64-.8-.215-1.16-.55-1.16-1.11 0-.64.52-1.072 1.295-1.072.785 0 1.256.4 1.288 1.095h-.608zM275.83 98.641c-.416.376-.824.544-1.36.544-1.055 0-1.807-.8-1.807-1.92 0-1.143.76-1.942 1.84-1.942.527 0 .96.176 1.343.552l-.392.391c-.28-.256-.591-.383-.935-.383-.728 0-1.232.56-1.232 1.359 0 .815.504 1.383 1.224 1.383.36 0 .647-.12.943-.4l.376.416zM277.372 95.923c.335-.416.671-.6 1.112-.6.319 0 .655.128.855.336.2.2.287.488.287.96v2.478h-.607V96.65c0-.503-.248-.784-.688-.784a.94.94 0 0 0-.72.329c-.183.208-.239.391-.239.743v2.159h-.608v-5.333h.608v2.159zM281.355 97.45c.031.311.088.472.239.671.24.328.592.504.991.504.456 0 .888-.248 1.104-.632l.536.2c-.304.616-.936.992-1.64.992-1.095 0-1.879-.8-1.879-1.92 0-1.134.776-1.942 1.856-1.942 1.071 0 1.87.808 1.87 1.887 0 .048 0 .152-.007.24h-3.07zm2.43-.448c-.024-.288-.08-.448-.208-.632a1.268 1.268 0 0 0-1.015-.504c-.408 0-.776.193-.991.512-.113.176-.16.328-.208.624h2.421zM260.064 103.42v-.576h3.022l-1.566 1.99c.927 0 1.583.664 1.583 1.608 0 1-.752 1.743-1.768 1.743-.839 0-1.438-.472-1.623-1.28l.576-.104c.144.512.52.8 1.016.8.647 0 1.16-.488 1.16-1.111 0-.64-.48-1.087-1.177-1.087-.248 0-.407.047-.64.183l-.263-.232 1.543-1.934h-1.863zM264.988 107.753a.406.406 0 0 1-.415.408.403.403 0 0 1-.416-.416c0-.24.176-.416.416-.416s.416.176.416.424zM268.984 105.546c.263.264.4.616.4 1.032 0 .943-.696 1.615-1.672 1.615-.967 0-1.646-.648-1.646-1.56 0-.423.143-.807.4-1.07.167-.177.303-.257.623-.36-.28-.096-.4-.176-.544-.352a1.228 1.228 0 0 1-.271-.784c0-.76.623-1.32 1.47-1.32.84 0 1.448.553 1.448 1.312 0 .304-.104.592-.296.816-.144.16-.256.232-.528.327.304.097.448.168.616.344zm-2.287 1.024c0 .567.456 1.031 1.024 1.031.567 0 1.023-.464 1.023-1.031 0-.56-.456-1.032-1.007-1.032a1.03 1.03 0 0 0-1.04 1.032zm.184-2.495c0 .456.376.816.848.816.456 0 .863-.376.863-.808 0-.416-.392-.776-.848-.776-.511 0-.863.32-.863.768zM272.642 104.41v.513c.28-.424.59-.6 1.047-.6.504 0 .823.216.99.671.273-.471.617-.671 1.169-.671.424 0 .743.136.935.392.176.231.224.44.224 1.023v2.359h-.607v-2.215c0-.448-.017-.552-.105-.704-.111-.191-.351-.312-.64-.312-.535 0-.83.36-.83 1.016v2.215h-.609v-2.207c0-.36-.031-.544-.12-.703-.104-.208-.327-.32-.599-.32-.536 0-.855.383-.855 1.023v2.207h-.609v-3.686h.609zM280.233 105.594v.408h-1.952l1.184-1.615c.336-.456.407-.592.407-.768 0-.256-.216-.44-.527-.44-.352 0-.496.177-.504.592h-.44c.024-.647.36-.991.976-.991.56 0 .951.335.951.807 0 .272-.103.52-.383.88l-.848 1.127h1.136z"/></g><g><path d="M41.004 120.623v.608h-2.55v-5.333h.671v4.725h1.88zM42.653 116.513c0 .216-.177.384-.393.384s-.384-.168-.384-.392.168-.391.393-.391c.216 0 .384.175.384.4zm-.088 4.718h-.609v-3.686h.609v3.686zM44.616 121.23h-.607v-3.15h-.504v-.535h.504v-.496c0-.728.376-1.16 1.016-1.16.03 0 .103 0 .167.009v.543c-.44.048-.56.176-.576.608v.496h.576v.535h-.576v3.15zM47 120.48c.009.183.057.223.28.223h.28v.528h-.568c-.431-.008-.6-.168-.6-.576v-2.575h-.51v-.535h.51v-1.16H47v1.16h.56v.535H47v2.4z"/></g></g></svg>