<svg xmlns="http://www.w3.org/2000/svg" viewBox="0 0 429.81256 389.4926"><defs><style>.cls-1,.cls-10,.cls-11,.cls-12,.cls-13,.cls-14,.cls-15,.cls-16,.cls-17,.cls-18,.cls-19,.cls-2,.cls-20,.cls-3,.cls-4,.cls-5,.cls-6,.cls-7,.cls-8,.cls-9{fill:none;stroke-linecap:round;stroke-linejoin:round}.cls-1,.cls-10,.cls-11,.cls-12,.cls-13,.cls-14,.cls-15,.cls-16,.cls-17,.cls-19,.cls-2,.cls-20,.cls-3,.cls-4,.cls-5,.cls-6,.cls-7,.cls-8,.cls-9{stroke-width:.14173px}.cls-1,.cls-14,.cls-17,.cls-18,.cls-19,.cls-3,.cls-4,.cls-7{stroke:#194164}.cls-1,.cls-7{stroke-dasharray:0 0 0 0 2.88 1.44 .24 1.44}.cls-2{stroke:#646464}.cls-10,.cls-11,.cls-12,.cls-13,.cls-14,.cls-15,.cls-19,.cls-20,.cls-3,.cls-4,.cls-5,.cls-6,.cls-8,.cls-9{stroke-dasharray:0 0 1.44 1.44}.cls-4{stroke-dashoffset:.96px}.cls-21,.cls-22{fill:#fff}.cls-10,.cls-11,.cls-12,.cls-13,.cls-15,.cls-16,.cls-20,.cls-5,.cls-6,.cls-8,.cls-9{stroke:#969696}.cls-6{stroke-dashoffset:2.83944px}.cls-7{stroke-dashoffset:1.92px}.cls-8{stroke-dashoffset:1.07331px}.cls-9{stroke-dashoffset:2.42954px}.cls-10{stroke-dashoffset:2.66376px}.cls-11{stroke-dashoffset:2.64px}.cls-12{stroke-dashoffset:1.39943px}.cls-13,.cls-19{stroke-dashoffset:.72px}.cls-22,.cls-23{fill-rule:evenodd}.cls-14{stroke-dashoffset:.24px}.cls-15{stroke-dashoffset:2.73245px}.cls-18{stroke-width:.28346px}.cls-20{stroke-dashoffset:1.2px}</style></defs><g id="Plan"><path class="cls-23" d="M244.222 379.27l3.36 3.36h26.64v-9.6h-36.24v5.76h5.76v.48h.48"/><path class="cls-22" d="M244.222 379.27l3.36 3.36h26.64v-3.36h-30"/><path class="cls-16" d="M247.822 379.271l3.36 3.36M251.902 379.271l3.36 3.36M255.982 379.271l3.36 3.36M260.062 379.271l3.36 3.36M263.902 379.271l3.36 3.36M267.982 379.271l3.36 3.36M272.062 379.271l2.4 2.4"/><path class="cls-22" d="M243.742 378.79v.48h30.48v-.48h-30.48M237.982 373.03v5.76h36.24v-5.76h-36.24"/><path class="cls-16" d="M238.222 373.031v5.76M239.662 373.031v5.76M241.102 373.031v5.76M242.542 373.031v5.76M243.982 373.031v5.76M245.422 373.031v5.76M246.622 373.031v5.76M248.062 373.031v5.76M249.502 373.031v5.76M250.942 373.031v5.76M252.382 373.031v5.76M253.822 373.031v5.76M255.262 373.031v5.76M256.702 373.031v5.76M258.142 373.031v5.76M259.582 373.031v5.76M261.022 373.031v5.76M262.222 373.031v5.76M263.662 373.031v5.76M265.102 373.031v5.76M266.542 373.031v5.76M267.982 373.031v5.76M269.422 373.031v5.76M270.862 373.031v5.76M272.302 373.031v5.76M273.742 373.031v5.76"/><path class="cls-18" d="M274.222 379.271h-30M274.222 382.631h-26.64"/><path class="cls-16" d="M274.222 373.031h-36.24M274.222 378.791h-30.48"/><path class="cls-17" d="M274.222 382.631h-26.64M274.222 373.031h-36.24"/><path class="cls-16" d="M243.742 378.791h-5.76M237.982 378.791v-5.76"/><path class="cls-17" d="M237.982 373.031h-5.04"/><path class="cls-23" d="M243.742 378.79h-5.76v-5.76h-5.04v16.32h14.64v-6.72l-3.36-3.36h-.48v-.48"/><path class="cls-22" d="M247.582 389.35v-6.72l-3.36-3.36v10.08h3.36"/><path class="cls-16" d="M244.462 387.671l1.44 1.68M244.462 383.591l3.36 3.36M244.462 379.751l3.36 3.36"/><path class="cls-22" d="M244.222 389.35v-10.08h-.48v10.08h.48M243.742 389.35v-10.56h-5.76v10.56h5.76"/><path class="cls-16" d="M238.222 388.391h5.76M238.222 386.951h5.76M238.222 385.511h5.76M238.222 384.071h5.76M238.222 382.631h5.76M238.222 381.191h5.76M238.222 379.991h5.76"/><path class="cls-22" d="M237.982 373.03h-5.04v16.32h5.04v-16.32"/><path class="cls-16" d="M233.182 388.391l.72.96M233.182 384.551l4.8 4.8M233.182 380.471l5.04 5.04M233.182 376.391l5.04 5.04M233.662 373.031l4.56 4.32M237.742 373.031l.48.48"/><path class="cls-18" d="M244.222 379.271v10.08M247.582 382.631v6.72"/><path class="cls-16" d="M237.982 378.791v10.56M243.742 379.271v10.08"/><path class="cls-18" d="M232.942 373.031v16.32M237.982 378.791v10.56"/><path class="cls-17" d="M247.582 382.631v6.72M232.942 373.031v16.32"/><path class="cls-16" d="M243.742 378.791v.48M237.982 378.791h5.76"/><path class="cls-18" d="M237.982 373.031v5.76M237.982 373.031h-5.04M15.022 335.351h39.6v29.76h-39.6z"/><path class="cls-17" d="M63.742 333.671v35.28M60.622 351.911v-13.92M57.742 364.631v-13.92"/><path class="cls-16" d="M252.622 46.391h59.28v3.6h-59.28z"/><path class="cls-22" d="M62.302 375.19l5.76-6.96h-5.76v6.96"/><path class="cls-16" d="M66.622 370.151l-2.16-1.92M64.702 372.311l-2.16-2.16M62.782 374.711l-.24-.48M62.542 373.751l5.52-5.52M62.542 369.671l1.44-1.44"/><path class="cls-22" d="M62.302 375.19l5.76-6.96h-5.76v6.96"/><path class="cls-16" d="M66.622 370.151l-2.16-1.92M64.702 372.311l-2.16-2.16M62.782 374.711l-.24-.48M62.542 373.751l5.52-5.52M62.542 369.671l1.44-1.44"/><path class="cls-18" d="M62.302 368.231v6.96M62.302 368.231v6.96"/><path class="cls-17" d="M63.742 335.591v29.52"/><path class="cls-1" d="M68.302 335.591v29.52"/><path class="cls-17" d="M68.302 364.631v.48"/><path class="cls-22" d="M68.302 332.47v3.12h-4.56v-3.12"/><path class="cls-16" d="M68.062 335.591l-3.12-3.12M64.462 335.591l3.12-3.12"/><path class="cls-22" d="M68.302 368.23v-3.12h-4.56v3.12"/><path class="cls-16" d="M68.542 368.231l-3.12-3.12M64.462 368.231l-.48-.72M68.062 368.231l.48-.48M63.982 368.231l3.12-3.12"/><path class="cls-18" d="M68.302 335.591h-4.56M68.302 365.111h-4.56M68.302 335.591h-4.56M68.302 332.471v3.12M68.302 365.111h-4.56M68.302 368.231v-3.12M62.302 332.471h1.44M62.302 368.231h1.44M68.302 332.471v3.12M68.302 368.231v-3.12M63.742 335.591v-3.12M63.742 365.111v3.12"/><path class="cls-22" d="M61.102 325.51l7.2 6.96v-41.04l-7.2-6.96v41.04"/><path class="cls-16" d="M68.542 291.911l-7.2-7.2M68.542 295.991l-7.2-7.2M68.542 300.071l-7.2-7.2M68.542 303.911l-7.2-7.2M68.542 307.991l-7.2-7.2M68.542 312.071l-7.2-7.2M68.542 315.911l-7.2-7.2M68.542 319.991l-7.2-7.2M68.542 324.071l-7.2-7.2M68.542 328.151l-7.2-7.2M68.542 331.991l-7.2-7.2M68.062 331.991l.48-.24M65.902 330.071l2.64-2.4M63.982 328.151l4.56-4.56M61.822 326.231l6.72-6.48M61.342 322.871l7.2-7.2M61.342 318.791l7.2-7.2M61.342 314.951l7.2-7.2M61.342 310.871l7.2-7.2M61.342 306.791l7.2-7.2M61.342 302.711l7.2-7.2M61.342 298.871l7.2-7.2M61.342 294.791l5.04-5.28M61.342 290.711l3.12-3.12M61.342 286.871l.96-1.2"/><path class="cls-22" d="M61.102 325.51l7.2 6.96v-41.04l-7.2-6.96v41.04"/><path class="cls-16" d="M68.542 291.911l-7.2-7.2M68.542 295.991l-7.2-7.2M68.542 300.071l-7.2-7.2M68.542 303.911l-7.2-7.2M68.542 307.991l-7.2-7.2M68.542 312.071l-7.2-7.2M68.542 315.911l-7.2-7.2M68.542 319.991l-7.2-7.2M68.542 324.071l-7.2-7.2M68.542 328.151l-7.2-7.2M68.542 331.991l-7.2-7.2M68.062 331.991l.48-.24M65.902 330.071l2.64-2.4M63.982 328.151l4.56-4.56M61.822 326.231l6.72-6.48M61.342 322.871l7.2-7.2M61.342 318.791l7.2-7.2M61.342 314.951l7.2-7.2M61.342 310.871l7.2-7.2M61.342 306.791l7.2-7.2M61.342 302.711l7.2-7.2M61.342 298.871l7.2-7.2M61.342 294.791l5.04-5.28M61.342 290.711l3.12-3.12M61.342 286.871l.96-1.2"/><path class="cls-18" d="M61.102 284.471v41.04M68.302 291.431v41.04M68.302 291.431v41.04M61.102 284.471v41.04"/><path class="cls-22" d="M298.28 318.534a3.87 3.87 0 0 0 0-4.277 7.92 7.92 0 0 0-6.2-2.892l-9.031.252v9.557l9.031.254a7.933 7.933 0 0 0 6.2-2.894"/><path class="cls-17" d="M298.28 318.534a3.87 3.87 0 0 0 0-4.277 7.92 7.92 0 0 0-6.2-2.892l-9.031.252v9.557l9.031.254a7.933 7.933 0 0 0 6.2-2.894"/><path class="cls-22" d="M288.16 316.396a3.832 3.832 0 0 0 3.79 3.967 6.848 6.848 0 0 0 5.41-2.499 2.732 2.732 0 0 0 0-2.937 6.847 6.847 0 0 0-5.41-2.499 3.835 3.835 0 0 0-3.79 3.968"/><path class="cls-17" d="M288.16 316.396a3.832 3.832 0 0 0 3.79 3.967 6.848 6.848 0 0 0 5.41-2.499 2.732 2.732 0 0 0 0-2.937 6.847 6.847 0 0 0-5.41-2.499 3.835 3.835 0 0 0-3.79 3.968"/><path class="cls-22" d="M283.474 367.703h47.99l.08-.031.076-.034.06-.06.06-.06.034-.077.03-.079v-20.578l-.03-.079-.034-.077-.06-.06-.06-.06-.077-.033-.079-.031H283.39l-.077.03-.08.034-.06.06-.06.06-.03.077-.034.08V367.361l.034.08.03.076.06.06.06.06.08.034.077.03h.084"/><path class="cls-17" d="M283.474 367.703h47.99l.08-.031.076-.034.06-.06.06-.06.034-.077.03-.079v-20.578l-.03-.079-.034-.077-.06-.06-.06-.06-.077-.033-.079-.031H283.39l-.077.03-.08.034-.06.06-.06.06-.03.077-.034.08V367.361l.034.08.03.076.06.06.06.06.08.034.077.03h.084"/><path class="cls-22" d="M288.718 365.574h37.418c.447 0 .888-.086 1.3-.257a3.407 3.407 0 0 0 2.1-3.144v-10.2c0-.446-.085-.89-.258-1.303a3.407 3.407 0 0 0-3.142-2.1h-37.418a3.409 3.409 0 0 0-2.405.998 3.39 3.39 0 0 0-.996 2.405v10.2a3.414 3.414 0 0 0 2.1 3.144c.413.17.854.257 1.3.257"/><path class="cls-17" d="M288.718 365.574h37.418c.447 0 .888-.086 1.3-.257a3.407 3.407 0 0 0 2.1-3.144v-10.2c0-.446-.085-.89-.258-1.303a3.407 3.407 0 0 0-3.142-2.1h-37.418a3.409 3.409 0 0 0-2.405.998 3.39 3.39 0 0 0-.996 2.405v10.2a3.414 3.414 0 0 0 2.1 3.144c.413.17.854.257 1.3.257M282.382 288.551v36.24M280.942 288.551v34.8M282.382 288.551v36.24M283.102 288.551v36.96M280.942 288.551v34.8M278.542 324.791v18.48M277.102 323.351v21.36M278.542 324.791v18.48M279.262 325.511v17.04M277.102 323.351v21.36M282.382 343.271v24.72M280.942 344.711v23.28M282.382 343.271v24.72M283.102 342.551v25.44M280.942 344.711v23.28"/><path class="cls-22" d="M283.049 341.867h12.048a1.122 1.122 0 0 0 .802-.331c.105-.106.19-.23.247-.368.055-.139.084-.285.084-.434v-13.322a1.136 1.136 0 0 0-1.133-1.135h-12.048v15.59"/><path class="cls-17" d="M283.049 341.867h12.048a1.122 1.122 0 0 0 .802-.331c.105-.106.19-.23.247-.368.055-.139.084-.285.084-.434v-13.322a1.136 1.136 0 0 0-1.133-1.135h-12.048v15.59"/><path class="cls-14" d="M283.102 325.511h-3.84"/><path class="cls-4" d="M279.262 325.511v17.04"/><path class="cls-14" d="M279.262 342.551h3.84"/><path class="cls-17" d="M278.542 343.271h3.84M277.102 344.711h3.84M278.542 343.271h3.84M279.262 342.551h3.84M277.102 344.711h3.84M282.382 324.791h-3.84M280.942 323.351h-3.84M282.382 324.791h-3.84M283.102 325.511h-3.84M280.942 323.351h-3.84M233.422 57.191h17.28v78.96h-17.28zM248.542 58.391h2.16M248.542 67.031h2.16M248.542 84.071h2.16M248.542 100.871h2.16M248.542 117.911h2.16"/><path class="cls-22" d="M238.409 117.05h8.928a1.98 1.98 0 0 0 1.834-1.225c.05-.12.088-.245.112-.373.027-.127.039-.257.039-.387v-11.197c0-.13-.012-.26-.039-.387a1.844 1.844 0 0 0-.112-.372 1.881 1.881 0 0 0-.183-.343 2.02 2.02 0 0 0-.547-.548 1.982 1.982 0 0 0-1.104-.334h-8.928a1.97 1.97 0 0 0-1.102.334 2.108 2.108 0 0 0-.302.247 2.006 2.006 0 0 0-.58 1.403v11.197a2.01 2.01 0 0 0 .336 1.102c.071.109.153.21.244.301a2.013 2.013 0 0 0 1.018.543c.127.026.256.038.386.038"/><path class="cls-17" d="M238.409 117.05h8.928a1.98 1.98 0 0 0 1.834-1.225c.05-.12.088-.245.112-.373.027-.127.039-.257.039-.387v-11.197c0-.13-.012-.26-.039-.387a1.844 1.844 0 0 0-.112-.372 1.881 1.881 0 0 0-.183-.343 2.02 2.02 0 0 0-.547-.548 1.982 1.982 0 0 0-1.104-.334h-8.928a1.97 1.97 0 0 0-1.102.334 2.108 2.108 0 0 0-.302.247 2.006 2.006 0 0 0-.58 1.403v11.197a2.01 2.01 0 0 0 .336 1.102c.071.109.153.21.244.301a2.013 2.013 0 0 0 1.018.543c.127.026.256.038.386.038"/><path class="cls-22" d="M240.862 109.51c0-.657-.543-1.2-1.2-1.2s-1.2.543-1.2 1.2.542 1.2 1.2 1.2 1.2-.54 1.2-1.2"/><path class="cls-17" d="M240.862 109.51c0-.657-.543-1.2-1.2-1.2s-1.2.543-1.2 1.2.542 1.2 1.2 1.2 1.2-.54 1.2-1.2"/><path class="cls-21" d="M234.622 67.511h14.64v15.84h-14.64z"/><path class="cls-17" d="M234.622 67.511h14.64v15.84h-14.64z"/><path class="cls-22" d="M247.342 71.35c0-1.58-1.246-2.88-2.76-2.88s-2.76 1.3-2.76 2.88 1.245 2.88 2.76 2.88 2.76-1.3 2.76-2.88"/><path class="cls-17" d="M247.342 71.35c0-1.58-1.246-2.88-2.76-2.88s-2.76 1.3-2.76 2.88 1.245 2.88 2.76 2.88 2.76-1.3 2.76-2.88"/><path class="cls-22" d="M240.142 70.39c0-1.184-1.03-2.16-2.28-2.16s-2.28.976-2.28 2.16 1.03 2.16 2.28 2.16 2.28-.974 2.28-2.16"/><path class="cls-17" d="M240.142 70.39c0-1.184-1.03-2.16-2.28-2.16s-2.28.976-2.28 2.16 1.03 2.16 2.28 2.16 2.28-.974 2.28-2.16"/><path class="cls-22" d="M246.862 79.03c0-1.184-.975-2.16-2.16-2.16s-2.16.976-2.16 2.16.974 2.16 2.16 2.16 2.16-.974 2.16-2.16"/><path class="cls-17" d="M246.862 79.03c0-1.184-.975-2.16-2.16-2.16s-2.16.976-2.16 2.16.974 2.16 2.16 2.16 2.16-.974 2.16-2.16"/><path class="cls-22" d="M241.102 78.79c0-1.58-1.301-2.88-2.88-2.88s-2.88 1.301-2.88 2.88 1.3 2.88 2.88 2.88 2.88-1.3 2.88-2.88"/><path class="cls-17" d="M241.102 78.79c0-1.58-1.301-2.88-2.88-2.88s-2.88 1.301-2.88 2.88 1.3 2.88 2.88 2.88 2.88-1.3 2.88-2.88"/><path class="cls-1" d="M243.262 136.151v-78.96"/><path class="cls-17" d="M248.542 134.951h2.16"/><path class="cls-23" d="M405.742 57.19V42.55h23.76v14.64h-23.76"/><path class="cls-22" d="M405.742 42.55v3.36h23.76v-3.36h-23.76"/><path class="cls-16" d="M405.982 44.231l1.68 1.68M408.382 42.551l3.36 3.36M412.222 42.551l3.36 3.36M416.302 42.551l3.36 3.36M420.382 42.551l3.36 3.36M424.222 42.551l3.36 3.36M428.302 42.551l1.44 1.2"/><path class="cls-22" d="M405.742 45.91v.72h23.76v-.72h-23.76M405.742 46.63v5.52h23.76v-5.52h-23.76"/><path class="cls-16" d="M429.502 52.151v-5.52M428.062 52.151v-5.52M426.622 52.151v-5.52M425.422 52.151v-5.52M423.982 52.151v-5.52M422.542 52.151v-5.52M421.102 52.151v-5.52M419.662 52.151v-5.52M418.222 52.151v-5.52M416.782 52.151v-5.52M415.342 52.151v-5.52M413.902 52.151v-5.52M412.462 52.151v-5.52M411.262 52.151v-5.52M409.822 52.151v-5.52M408.382 52.151v-5.52M406.942 52.151v-5.52"/><path class="cls-22" d="M405.742 52.15v5.04h23.76v-5.04h-23.76"/><path class="cls-16" d="M405.982 56.231l.96.96M405.982 52.151l5.04 5.04M409.822 52.151l5.04 5.04M413.902 52.151l5.04 5.04M417.982 52.151l5.04 5.04M421.822 52.151l5.04 5.04M425.902 52.151l3.84 3.6"/><path class="cls-18" d="M405.742 45.911h23.76M405.742 42.551h23.76"/><path class="cls-16" d="M405.742 52.151h23.76M405.742 46.631h23.76"/><path class="cls-18" d="M405.742 57.191h23.76M405.742 52.151h23.76"/><path class="cls-17" d="M405.742 42.551h23.76M405.742 57.191h23.76"/><path class="cls-23" d="M313.582 57.19V42.55h51.36v14.64h-51.36"/><path class="cls-22" d="M313.582 42.55v3.36h51.36v-3.36h-51.36"/><path class="cls-16" d="M313.822 44.231l1.68 1.68M316.222 42.551l3.36 3.36M320.062 42.551l3.36 3.36M324.142 42.551l3.36 3.36M328.222 42.551l3.36 3.36M332.062 42.551l3.36 3.36M336.142 42.551l3.36 3.36M340.222 42.551l3.36 3.36M344.062 42.551l3.36 3.36M348.142 42.551l3.36 3.36M352.222 42.551l3.36 3.36M356.302 42.551l3.36 3.36M360.142 42.551l3.36 3.36M364.222 42.551l.96.96"/><path class="cls-22" d="M313.582 45.91v.72h51.36v-.72h-51.36M313.582 46.63v5.52h51.36v-5.52h-51.36"/><path class="cls-16" d="M364.462 52.151v-5.52M363.022 52.151v-5.52M361.582 52.151v-5.52M360.142 52.151v-5.52M358.702 52.151v-5.52M357.262 52.151v-5.52M355.822 52.151v-5.52M354.382 52.151v-5.52M352.942 52.151v-5.52M351.502 52.151v-5.52M350.302 52.151v-5.52M348.862 52.151v-5.52M347.422 52.151v-5.52M345.982 52.151v-5.52M344.542 52.151v-5.52M343.102 52.151v-5.52M341.662 52.151v-5.52M340.222 52.151v-5.52M338.782 52.151v-5.52M337.342 52.151v-5.52M336.142 52.151v-5.52M334.702 52.151v-5.52M333.262 52.151v-5.52M331.822 52.151v-5.52M330.382 52.151v-5.52M328.942 52.151v-5.52M327.502 52.151v-5.52M326.062 52.151v-5.52M324.622 52.151v-5.52M323.182 52.151v-5.52M321.742 52.151v-5.52M320.542 52.151v-5.52M319.102 52.151v-5.52M317.662 52.151v-5.52M316.222 52.151v-5.52M314.782 52.151v-5.52"/><path class="cls-22" d="M313.582 52.15v5.04h51.36v-5.04h-51.36"/><path class="cls-16" d="M313.822 56.231l.96.96M313.822 52.151l4.8 5.04M317.662 52.151l5.04 5.04M321.742 52.151l5.04 5.04M325.822 52.151l5.04 5.04M329.662 52.151l5.04 5.04M333.742 52.151l5.04 5.04M337.822 52.151l5.04 5.04M341.662 52.151l5.04 5.04M345.742 52.151l5.04 5.04M349.822 52.151l5.04 5.04M353.662 52.151l5.04 5.04M357.742 52.151l5.04 5.04M361.822 52.151l3.36 3.36"/><path class="cls-18" d="M313.582 45.911h51.36M313.582 42.551h51.36"/><path class="cls-16" d="M313.582 52.151h51.36M313.582 46.631h51.36"/><path class="cls-18" d="M313.582 57.191h51.36M313.582 52.151h51.36"/><path class="cls-17" d="M313.582 42.551h51.36M313.582 57.191h51.36"/><path class="cls-23" d="M223.582 57.19V42.55h27.12v14.64h-27.12"/><path class="cls-22" d="M223.582 42.55v3.36h27.12v-3.36h-27.12"/><path class="cls-16" d="M223.822 42.551l3.36 3.36M227.902 42.551l3.36 3.36M231.982 42.551l3.36 3.36M235.822 42.551l3.36 3.36M239.902 42.551l3.36 3.36M243.982 42.551l3.36 3.36M248.062 42.551l2.88 2.88"/><path class="cls-22" d="M223.582 45.91v.72h27.12v-.72h-27.12M223.582 46.63v5.52h27.12v-5.52h-27.12"/><path class="cls-16" d="M249.502 52.151v-5.52M248.062 52.151v-5.52M246.622 52.151v-5.52M245.422 52.151v-5.52M243.982 52.151v-5.52M242.542 52.151v-5.52M241.102 52.151v-5.52M239.662 52.151v-5.52M238.222 52.151v-5.52M236.782 52.151v-5.52M235.342 52.151v-5.52M233.902 52.151v-5.52M232.462 52.151v-5.52M231.262 52.151v-5.52M229.822 52.151v-5.52M228.382 52.151v-5.52M226.942 52.151v-5.52M225.502 52.151v-5.52M224.062 52.151v-5.52"/><path class="cls-22" d="M223.582 52.15v5.04h27.12v-5.04h-27.12"/><path class="cls-16" d="M223.822 54.311l2.64 2.88M225.502 52.151l5.04 5.04M229.582 52.151l5.04 5.04M233.422 52.151l5.04 5.04M237.502 52.151l5.04 5.04M241.582 52.151l5.04 5.04M245.422 52.151l5.04 5.04M249.502 52.151l1.44 1.2"/><path class="cls-18" d="M223.582 45.911h27.12M223.582 42.551h27.12"/><path class="cls-16" d="M223.582 52.151h27.12M223.582 46.631h27.12"/><path class="cls-18" d="M223.582 57.191h27.12M223.582 52.151h27.12"/><path class="cls-17" d="M223.582 42.551h27.12M223.582 57.191h27.12M366.862 49.99v-7.44h-3.36v-1.92h43.92v1.92h-3.36v7.44"/><path class="cls-1" d="M364.942 57.191h40.8"/><path class="cls-17" d="M405.262 57.191h.48"/><path class="cls-18" d="M366.862 42.551h-3.36M404.062 42.551h3.36"/><path class="cls-17" d="M364.942 49.991h40.8v2.16h-40.8zM368.542 49.991v2.16M402.142 49.991v2.16M364.942 52.151v-2.16M383.422 52.151v-2.16M368.542 52.151v-2.16M387.502 52.151v-2.16M383.422 52.151v-2.16M402.142 52.151v-2.16M387.502 52.151v-2.16M405.742 52.151v-2.16"/><path class="cls-22" d="M364.97 46.538h1.844v3.401h-1.843"/><path class="cls-16" d="M365.902 49.991v-3.36M364.97 46.538h1.844v3.401h-1.843"/><path class="cls-18" d="M364.942 52.151v5.04"/><path class="cls-22" d="M364.942 42.55h1.92v3.36h-1.92"/><path class="cls-16" d="M365.182 43.511l1.92 1.92"/><path class="cls-18" d="M364.942 42.55h1.92v3.36h-1.92M366.862 45.911v4.08"/><path class="cls-22" d="M405.79 46.538h-1.843v3.401h1.843"/><path class="cls-16" d="M405.502 49.991v-3.36M405.79 46.538h-1.843v3.401h1.843"/><path class="cls-18" d="M405.742 52.151v5.04"/><path class="cls-22" d="M405.742 42.55h-1.68v3.36h1.68"/><path class="cls-16" d="M404.302 42.551l1.68 1.68"/><path class="cls-18" d="M405.742 42.55h-1.68v3.36h1.68M404.062 45.911v4.08"/><path class="cls-1" d="M250.702 57.191h62.88"/><path class="cls-17" d="M250.702 49.991h62.88v2.16h-62.88zM254.302 49.991v2.16M309.982 49.991v2.16M250.702 52.151v-2.16M269.662 52.151v-2.16M254.302 52.151v-2.16M273.742 52.151v-2.16M269.662 52.151v-2.16M290.542 52.151v-2.16M273.742 52.151v-2.16M294.862 52.151v-2.16M290.542 52.151v-2.16M309.982 52.151v-2.16M294.862 52.151v-2.16M313.582 52.151v-2.16"/><path class="cls-18" d="M250.702 52.151v5.04"/><path class="cls-17" d="M315.262 42.551v-1.92"/><path class="cls-7" d="M315.262 40.631h-66"/><path class="cls-17" d="M249.262 40.631v.96"/><path class="cls-22" d="M250.735 46.538h1.841v3.401h-1.84"/><path class="cls-16" d="M252.382 49.991v-3.36M250.942 49.991v-3.36M250.735 46.538h1.841v3.401h-1.84"/><path class="cls-22" d="M250.702 42.55h1.92v3.36h-1.92"/><path class="cls-16" d="M250.942 45.431l.48.48M251.902 42.551l.96.72"/><path class="cls-18" d="M250.702 42.55h1.92v3.36h-1.92M252.622 45.911v4.08"/><path class="cls-22" d="M313.663 46.538h-1.843v3.401h1.843"/><path class="cls-16" d="M313.342 49.991v-3.36M313.663 46.538h-1.843v3.401h1.843"/><path class="cls-18" d="M313.582 52.151v5.04"/><path class="cls-22" d="M313.582 42.55h-1.68v3.36h1.68"/><path class="cls-16" d="M312.142 42.551l1.68 1.68"/><path class="cls-18" d="M313.582 42.55h-1.68v3.36h1.68M311.902 45.911v4.08"/><path class="cls-23" d="M302.302 367.99v14.64h-28.08v-14.64h28.08"/><path class="cls-22" d="M302.302 382.63v-3.36h-28.08v3.36h28.08"/><path class="cls-16" d="M274.462 381.671l.96.96M275.902 379.271l3.36 3.36M279.982 379.271l3.36 3.36M284.062 379.271l3.36 3.36M288.142 379.271l3.36 3.36M291.982 379.271l3.36 3.36M296.062 379.271l3.36 3.36M300.142 379.271l2.4 2.4"/><path class="cls-22" d="M302.302 379.27v-.48h-28.08v.48h28.08"/><path class="cls-22" d="M302.302 378.79v-5.76h-28.08v5.76h28.08"/><path class="cls-16" d="M275.182 373.031v5.76M276.382 373.031v5.76M277.822 373.031v5.76M279.262 373.031v5.76M280.702 373.031v5.76M282.142 373.031v5.76M283.582 373.031v5.76M285.022 373.031v5.76M286.462 373.031v5.76M287.902 373.031v5.76M289.342 373.031v5.76M290.782 373.031v5.76M291.982 373.031v5.76M293.422 373.031v5.76M294.862 373.031v5.76M296.302 373.031v5.76M297.742 373.031v5.76M299.182 373.031v5.76M300.622 373.031v5.76M302.062 373.031v5.76"/><path class="cls-22" d="M302.302 373.03v-5.04h-28.08v5.04h28.08"/><path class="cls-16" d="M274.462 369.671l3.36 3.36M276.862 367.991l5.04 5.04M280.702 367.991l5.04 5.04M284.782 367.991l5.04 5.04M288.862 367.991l5.04 5.04M292.702 367.991l5.04 5.04M296.782 367.991l5.04 5.04M300.862 367.991l1.68 1.68"/><path class="cls-18" d="M302.302 379.271h-28.08M302.302 382.631h-28.08"/><path class="cls-16" d="M302.302 373.031h-28.08M302.302 378.791h-28.08"/><path class="cls-18" d="M302.302 367.991h-28.08M302.302 373.031h-28.08"/><path class="cls-17" d="M302.302 382.631h-28.08M302.302 367.991h-28.08"/><path class="cls-23" d="M361.342 367.99v14.64h-40.32v-14.64h40.32"/><path class="cls-22" d="M361.342 382.63v-3.36h-40.32v3.36h40.32"/><path class="cls-16" d="M321.262 380.231l2.16 2.4M324.142 379.271l3.36 3.36M328.222 379.271l3.36 3.36M332.062 379.271l3.36 3.36M336.142 379.271l3.36 3.36M340.222 379.271l3.36 3.36M344.062 379.271l3.36 3.36M348.142 379.271l3.36 3.36M352.222 379.271l3.36 3.36M356.062 379.271l3.36 3.36M360.142 379.271l1.44 1.2"/><path class="cls-22" d="M361.342 379.27v-.48h-40.32v.48h40.32"/><path class="cls-22" d="M361.342 378.79v-5.76h-40.32v5.76h40.32"/><path class="cls-16" d="M321.742 373.031v5.76M323.182 373.031v5.76M324.622 373.031v5.76M326.062 373.031v5.76M327.502 373.031v5.76M328.942 373.031v5.76M330.382 373.031v5.76M331.822 373.031v5.76M333.262 373.031v5.76M334.702 373.031v5.76M336.142 373.031v5.76M337.342 373.031v5.76M338.782 373.031v5.76M340.222 373.031v5.76M341.662 373.031v5.76M343.102 373.031v5.76M344.542 373.031v5.76M345.982 373.031v5.76M347.422 373.031v5.76M348.862 373.031v5.76M350.302 373.031v5.76M351.502 373.031v5.76M352.942 373.031v5.76M354.382 373.031v5.76M355.822 373.031v5.76M357.262 373.031v5.76M358.702 373.031v5.76M360.142 373.031v5.76"/><path class="cls-22" d="M361.342 373.03v-5.04h-40.32v5.04h40.32"/><path class="cls-16" d="M321.262 372.311l.72.72M321.262 368.231l4.56 4.8M324.862 367.991l5.04 5.04M328.942 367.991l5.04 5.04M332.782 367.991l5.04 5.04M336.862 367.991l5.04 5.04M340.942 367.991l5.04 5.04M344.782 367.991l5.04 5.04M348.862 367.991l5.04 5.04M352.942 367.991l5.04 5.04M357.022 367.991l4.56 4.56M360.862 367.991l.72.48"/><path class="cls-18" d="M361.342 379.271h-40.32M361.342 382.631h-40.32"/><path class="cls-16" d="M361.342 373.031h-40.32M361.342 378.791h-40.32"/><path class="cls-18" d="M361.342 367.991h-40.32M361.342 373.031h-40.32"/><path class="cls-17" d="M361.342 382.631h-40.32M361.342 367.991h-40.32"/><path class="cls-23" d="M429.502 367.99v14.64h-27.36v-14.64h27.36"/><path class="cls-22" d="M429.502 382.63v-3.36h-27.36v3.36h27.36"/><path class="cls-16" d="M402.382 381.191l1.2 1.44M404.302 379.271l3.36 3.36M408.382 379.271l3.36 3.36M412.222 379.271l3.36 3.36M416.302 379.271l3.36 3.36M420.382 379.271l3.36 3.36M424.222 379.271l3.36 3.36M428.302 379.271l1.44 1.2"/><path class="cls-22" d="M429.502 379.27v-.48h-27.36v.48h27.36"/><path class="cls-22" d="M429.502 378.79v-5.76h-27.36v5.76h27.36"/><path class="cls-16" d="M402.622 373.031v5.76M404.062 373.031v5.76M405.502 373.031v5.76M406.942 373.031v5.76M408.382 373.031v5.76M409.822 373.031v5.76M411.262 373.031v5.76M412.462 373.031v5.76M413.902 373.031v5.76M415.342 373.031v5.76M416.782 373.031v5.76M418.222 373.031v5.76M419.662 373.031v5.76M421.102 373.031v5.76M422.542 373.031v5.76M423.982 373.031v5.76M425.422 373.031v5.76M426.622 373.031v5.76M428.062 373.031v5.76M429.502 373.031v5.76"/><path class="cls-22" d="M429.502 373.03v-5.04h-27.36v5.04h27.36"/><path class="cls-16" d="M402.382 369.191l3.6 3.84M405.022 367.991l5.04 5.04M409.102 367.991l5.04 5.04M412.942 367.991l5.04 5.04M417.022 367.991l5.04 5.04M421.102 367.991l5.04 5.04M425.182 367.991l4.56 4.56M429.022 367.991l.72.48"/><path class="cls-18" d="M429.502 379.271h-27.36M429.502 382.631h-27.36"/><path class="cls-16" d="M429.502 373.031h-27.36M429.502 378.791h-27.36"/><path class="cls-18" d="M429.502 367.991h-27.36M429.502 373.031h-27.36"/><path class="cls-17" d="M429.502 382.631h-27.36M429.502 367.991h-27.36M400.222 375.43v7.2h3.36v1.92h-43.92v-1.92h3.36v-7.2"/><path class="cls-1" d="M402.142 367.991h-40.8"/><path class="cls-17" d="M361.822 367.991h-.48"/><path class="cls-18" d="M400.222 382.631h3.36M363.022 382.631h-3.36"/><path class="cls-17" d="M361.342 373.031h40.8v2.4h-40.8zM398.302 375.431v-2.4M364.942 375.431v-2.4M402.142 373.031v2.4M383.662 373.031v2.4M398.302 373.031v2.4M379.582 373.031v2.4M383.662 373.031v2.4M364.942 373.031v2.4M379.582 373.031v2.4M361.342 373.031v2.4"/><path class="cls-22" d="M402.106 378.757h-1.843v-3.4h1.843"/><path class="cls-16" d="M401.182 375.431v3.36M402.106 378.757h-1.843v-3.4h1.843"/><path class="cls-18" d="M402.142 373.031v-5.04"/><path class="cls-22" d="M402.142 382.63h-1.92v-3.36h1.92"/><path class="cls-16" d="M400.462 379.271l1.92 1.92"/><path class="cls-18" d="M402.142 382.63h-1.92v-3.36h1.92M400.222 379.271v-3.84"/><path class="cls-22" d="M361.287 378.757h1.84v-3.4h-1.84"/><path class="cls-16" d="M361.582 375.431v3.36M363.022 375.431v3.36M361.287 378.757h1.84v-3.4h-1.84"/><path class="cls-18" d="M361.342 373.031v-5.04"/><path class="cls-22" d="M361.342 382.63h1.68v-3.36h-1.68"/><path class="cls-16" d="M361.582 380.471l1.68 1.68"/><path class="cls-18" d="M361.342 382.63h1.68v-3.36h-1.68M363.022 379.271v-3.84"/><path class="cls-17" d="M321.022 373.03v-5.04h-18.72v5.04M319.102 375.43v7.2h3.6v1.92h-21.84v-1.92h3.36v-7.2M319.102 382.631h-14.88"/><path class="cls-18" d="M319.102 382.631h3.6M304.222 382.631h-3.36"/><path class="cls-17" d="M302.302 373.031h18.72v2.4h-18.72zM317.422 375.431v-2.4M305.902 375.431v-2.4M321.022 373.031v2.4M305.902 373.031v2.4M317.422 373.031v2.4M302.302 373.031v2.4"/><path class="cls-18" d="M321.022 373.031v-5.04"/><path class="cls-17" d="M319.102 379.271h-7.44"/><path class="cls-22" d="M321.034 378.757h-1.843v-3.4h1.843"/><path class="cls-16" d="M320.542 375.431v3.36M321.034 378.757h-1.843v-3.4h1.843"/><path class="cls-22" d="M321.022 382.63h-1.92v-3.36h1.92"/><path class="cls-16" d="M319.342 382.391v.24M320.062 379.271l1.2.96"/><path class="cls-18" d="M321.022 382.63h-1.92v-3.36h1.92M319.102 379.271v-3.84M302.302 373.031v-5.04"/><path class="cls-17" d="M304.222 379.271h7.44"/><path class="cls-22" d="M302.326 378.757h1.84v-3.4h-1.84"/><path class="cls-16" d="M303.502 375.431v3.36M302.326 378.757h1.84v-3.4h-1.84"/><path class="cls-22" d="M302.302 382.63h1.92v-3.36h-1.92"/><path class="cls-16" d="M302.542 381.671l.96.96M303.982 379.271l.48.24"/><path class="cls-18" d="M302.302 382.63h1.92v-3.36h-1.92M304.222 379.271v-3.84"/><path class="cls-22" d="M429.502 373.03h-7.2V52.15h7.2v320.88"/><path class="cls-16" d="M429.742 55.751l-3.84-3.6M429.742 59.831l-7.2-7.2M429.742 63.911l-7.2-7.2M429.742 67.991l-7.2-7.2M429.742 71.831l-7.2-7.2M429.742 75.911l-7.2-7.2M429.742 79.991l-7.2-7.2M429.742 83.831l-7.2-7.2M429.742 87.911l-7.2-7.2M429.742 91.991l-7.2-7.2M429.742 95.831l-7.2-7.2M429.742 99.911l-7.2-7.2M429.742 103.991l-7.2-7.2M429.742 108.071l-7.2-7.2M429.742 111.911l-7.2-7.2M429.742 115.991l-7.2-7.2M429.742 120.071l-7.2-7.2M429.742 123.911l-7.2-7.2M429.742 127.991l-7.2-7.2M429.742 132.071l-7.2-7.2M429.742 135.911l-7.2-7.2M429.742 139.991l-7.2-7.2M429.742 144.071l-7.2-7.2M429.742 148.151l-7.2-7.2M429.742 151.991l-7.2-7.2M429.742 156.071l-7.2-7.2M429.742 160.151l-7.2-7.2M429.742 163.991l-7.2-7.2M429.742 168.071l-7.2-7.2M429.742 172.151l-7.2-7.2M429.742 176.231l-7.2-7.2M429.742 180.071l-7.2-7.2M429.742 184.151l-7.2-7.2M429.742 188.231l-7.2-7.2M429.742 192.071l-7.2-7.2M429.742 196.151l-7.2-7.2M429.742 200.231l-7.2-7.2M429.742 204.071l-7.2-7.2M429.742 208.151l-7.2-7.2M429.742 212.231l-7.2-7.2M429.742 216.311l-7.2-7.2M429.742 220.151l-7.2-7.2M429.742 224.231l-7.2-7.2M429.742 228.311l-7.2-7.2M429.742 232.151l-7.2-7.2M429.742 236.231l-7.2-7.2M429.742 240.311l-7.2-7.2M429.742 244.151l-7.2-7.2M429.742 248.231l-7.2-7.2M429.742 252.311l-7.2-7.2M429.742 256.391l-7.2-7.2M429.742 260.231l-7.2-7.2M429.742 264.311l-7.2-7.2M429.742 268.391l-7.2-7.2M429.742 272.231l-7.2-7.2M429.742 276.311l-7.2-7.2M429.742 280.391l-7.2-7.2M429.742 284.231l-7.2-7.2M429.742 288.311l-7.2-7.2M429.742 292.391l-7.2-7.2M429.742 296.471l-7.2-7.2M429.742 300.311l-7.2-7.2M429.742 304.391l-7.2-7.2M429.742 308.471l-7.2-7.2M429.742 312.311l-7.2-7.2M429.742 316.391l-7.2-7.2M429.742 320.471l-7.2-7.2M429.742 324.551l-7.2-7.2M429.742 328.391l-7.2-7.2M429.742 332.471l-7.2-7.2M429.742 336.551l-7.2-7.2M429.742 340.391l-7.2-7.2M429.742 344.471l-7.2-7.2M429.742 348.551l-7.2-7.2M429.742 352.391l-7.2-7.2M429.742 356.471l-7.2-7.2M429.742 360.551l-7.2-7.2M429.742 364.631l-7.2-7.2M429.742 368.471l-7.2-7.2M429.742 372.551l-7.2-7.2M426.142 373.031l-3.6-3.6M428.062 373.031l1.68-1.68M423.982 373.031l5.76-5.76M422.542 370.631l7.2-7.2M422.542 366.551l7.2-7.2M422.542 362.471l7.2-7.2M422.542 358.631l7.2-7.2M422.542 354.551l7.2-7.2M422.542 350.471l7.2-7.2M422.542 346.391l7.2-7.2M422.542 342.551l7.2-7.2M422.542 338.471l7.2-7.2M422.542 334.391l7.2-7.2M422.542 330.551l7.2-7.2M422.542 326.471l7.2-7.2M422.542 322.391l7.2-7.2M422.542 318.551l7.2-7.2M422.542 314.471l7.2-7.2M422.542 310.391l7.2-7.2M422.542 306.311l7.2-7.2M422.542 302.471l7.2-7.2M422.542 298.391l7.2-7.2M422.542 294.311l7.2-7.2M422.542 290.471l7.2-7.2M422.542 286.391l7.2-7.2M422.542 282.311l7.2-7.2M422.542 278.231l7.2-7.2M422.542 274.391l7.2-7.2M422.542 270.311l7.2-7.2M422.542 266.231l7.2-7.2M422.542 262.391l7.2-7.2M422.542 258.311l7.2-7.2M422.542 254.231l7.2-7.2M422.542 250.391l7.2-7.2M422.542 246.311l7.2-7.2M422.542 242.231l7.2-7.2M422.542 238.151l7.2-7.2M422.542 234.311l7.2-7.2M422.542 230.231l7.2-7.2M422.542 226.151l7.2-7.2M422.542 222.311l7.2-7.2M422.542 218.231l7.2-7.2M422.542 214.151l7.2-7.2M422.542 210.311l7.2-7.2M422.542 206.231l7.2-7.2M422.542 202.151l7.2-7.2M422.542 198.071l7.2-7.2M422.542 194.231l7.2-7.2M422.542 190.151l7.2-7.2M422.542 186.071l7.2-7.2M422.542 182.231l7.2-7.2M422.542 178.151l7.2-7.2M422.542 174.071l7.2-7.2M422.542 170.231l7.2-7.2M422.542 166.151l7.2-7.2M422.542 162.071l7.2-7.2M422.542 157.991l7.2-7.2M422.542 154.151l7.2-7.2M422.542 150.071l7.2-7.2M422.542 145.991l7.2-7.2M422.542 142.151l7.2-7.2M422.542 138.071l7.2-7.2M422.542 133.991l7.2-7.2M422.542 129.911l7.2-7.2M422.542 126.071l7.2-7.2M422.542 121.991l7.2-7.2M422.542 117.911l7.2-7.2M422.542 114.071l7.2-7.2M422.542 109.991l7.2-7.2M422.542 105.911l7.2-7.2M422.542 102.071l7.2-7.2M422.542 97.991l7.2-7.2M422.542 93.911l7.2-7.2M422.542 89.831l7.2-7.2M422.542 85.991l7.2-7.2M422.542 81.911l7.2-7.2M422.542 77.831l7.2-7.2M422.542 73.991l7.2-7.2M422.542 69.911l7.2-7.2M422.542 65.831l7.2-7.2M422.542 61.991l7.2-7.2M422.542 57.911l5.52-5.76M422.542 53.831l1.68-1.68"/><path class="cls-22" d="M422.302 373.03h7.2V52.15h-7.2v320.88"/><path class="cls-16" d="M429.742 55.751l-3.84-3.6M429.742 59.831l-7.2-7.2M429.742 63.911l-7.2-7.2M429.742 67.991l-7.2-7.2M429.742 71.831l-7.2-7.2M429.742 75.911l-7.2-7.2M429.742 79.991l-7.2-7.2M429.742 83.831l-7.2-7.2M429.742 87.911l-7.2-7.2M429.742 91.991l-7.2-7.2M429.742 95.831l-7.2-7.2M429.742 99.911l-7.2-7.2M429.742 103.991l-7.2-7.2M429.742 108.071l-7.2-7.2M429.742 111.911l-7.2-7.2M429.742 115.991l-7.2-7.2M429.742 120.071l-7.2-7.2M429.742 123.911l-7.2-7.2M429.742 127.991l-7.2-7.2M429.742 132.071l-7.2-7.2M429.742 135.911l-7.2-7.2M429.742 139.991l-7.2-7.2M429.742 144.071l-7.2-7.2M429.742 148.151l-7.2-7.2M429.742 151.991l-7.2-7.2M429.742 156.071l-7.2-7.2M429.742 160.151l-7.2-7.2M429.742 163.991l-7.2-7.2M429.742 168.071l-7.2-7.2M429.742 172.151l-7.2-7.2M429.742 176.231l-7.2-7.2M429.742 180.071l-7.2-7.2M429.742 184.151l-7.2-7.2M429.742 188.231l-7.2-7.2M429.742 192.071l-7.2-7.2M429.742 196.151l-7.2-7.2M429.742 200.231l-7.2-7.2M429.742 204.071l-7.2-7.2M429.742 208.151l-7.2-7.2M429.742 212.231l-7.2-7.2M429.742 216.311l-7.2-7.2M429.742 220.151l-7.2-7.2M429.742 224.231l-7.2-7.2M429.742 228.311l-7.2-7.2M429.742 232.151l-7.2-7.2M429.742 236.231l-7.2-7.2M429.742 240.311l-7.2-7.2M429.742 244.151l-7.2-7.2M429.742 248.231l-7.2-7.2M429.742 252.311l-7.2-7.2M429.742 256.391l-7.2-7.2M429.742 260.231l-7.2-7.2M429.742 264.311l-7.2-7.2M429.742 268.391l-7.2-7.2M429.742 272.231l-7.2-7.2M429.742 276.311l-7.2-7.2M429.742 280.391l-7.2-7.2M429.742 284.231l-7.2-7.2M429.742 288.311l-7.2-7.2M429.742 292.391l-7.2-7.2M429.742 296.471l-7.2-7.2M429.742 300.311l-7.2-7.2M429.742 304.391l-7.2-7.2M429.742 308.471l-7.2-7.2M429.742 312.311l-7.2-7.2M429.742 316.391l-7.2-7.2M429.742 320.471l-7.2-7.2M429.742 324.551l-7.2-7.2M429.742 328.391l-7.2-7.2M429.742 332.471l-7.2-7.2M429.742 336.551l-7.2-7.2M429.742 340.391l-7.2-7.2M429.742 344.471l-7.2-7.2M429.742 348.551l-7.2-7.2M429.742 352.391l-7.2-7.2M429.742 356.471l-7.2-7.2M429.742 360.551l-7.2-7.2M429.742 364.631l-7.2-7.2M429.742 368.471l-7.2-7.2M429.742 372.551l-7.2-7.2M426.142 373.031l-3.6-3.6M428.062 373.031l1.68-1.68M423.982 373.031l5.76-5.76M422.542 370.631l7.2-7.2M422.542 366.551l7.2-7.2M422.542 362.471l7.2-7.2M422.542 358.631l7.2-7.2M422.542 354.551l7.2-7.2M422.542 350.471l7.2-7.2M422.542 346.391l7.2-7.2M422.542 342.551l7.2-7.2M422.542 338.471l7.2-7.2M422.542 334.391l7.2-7.2M422.542 330.551l7.2-7.2M422.542 326.471l7.2-7.2M422.542 322.391l7.2-7.2M422.542 318.551l7.2-7.2M422.542 314.471l7.2-7.2M422.542 310.391l7.2-7.2M422.542 306.311l7.2-7.2M422.542 302.471l7.2-7.2M422.542 298.391l7.2-7.2M422.542 294.311l7.2-7.2M422.542 290.471l7.2-7.2M422.542 286.391l7.2-7.2M422.542 282.311l7.2-7.2M422.542 278.231l7.2-7.2M422.542 274.391l7.2-7.2M422.542 270.311l7.2-7.2M422.542 266.231l7.2-7.2M422.542 262.391l7.2-7.2M422.542 258.311l7.2-7.2M422.542 254.231l7.2-7.2M422.542 250.391l7.2-7.2M422.542 246.311l7.2-7.2M422.542 242.231l7.2-7.2M422.542 238.151l7.2-7.2M422.542 234.311l7.2-7.2M422.542 230.231l7.2-7.2M422.542 226.151l7.2-7.2M422.542 222.311l7.2-7.2M422.542 218.231l7.2-7.2M422.542 214.151l7.2-7.2M422.542 210.311l7.2-7.2M422.542 206.231l7.2-7.2M422.542 202.151l7.2-7.2M422.542 198.071l7.2-7.2M422.542 194.231l7.2-7.2M422.542 190.151l7.2-7.2M422.542 186.071l7.2-7.2M422.542 182.231l7.2-7.2M422.542 178.151l7.2-7.2M422.542 174.071l7.2-7.2M422.542 170.231l7.2-7.2M422.542 166.151l7.2-7.2M422.542 162.071l7.2-7.2M422.542 157.991l7.2-7.2M422.542 154.151l7.2-7.2M422.542 150.071l7.2-7.2M422.542 145.991l7.2-7.2M422.542 142.151l7.2-7.2M422.542 138.071l7.2-7.2M422.542 133.991l7.2-7.2M422.542 129.911l7.2-7.2M422.542 126.071l7.2-7.2M422.542 121.991l7.2-7.2M422.542 117.911l7.2-7.2M422.542 114.071l7.2-7.2M422.542 109.991l7.2-7.2M422.542 105.911l7.2-7.2M422.542 102.071l7.2-7.2M422.542 97.991l7.2-7.2M422.542 93.911l7.2-7.2M422.542 89.831l7.2-7.2M422.542 85.991l7.2-7.2M422.542 81.911l7.2-7.2M422.542 77.831l7.2-7.2M422.542 73.991l7.2-7.2M422.542 69.911l7.2-7.2M422.542 65.831l7.2-7.2M422.542 61.991l7.2-7.2M422.542 57.911l5.52-5.76M422.542 53.831l1.68-1.68"/><path class="cls-18" d="M429.502 373.031V52.151M422.302 373.031V52.151M429.502 52.151h-7.2M422.302 373.031V52.151M429.502 373.031V52.151M429.502 373.031h-7.2"/><path class="cls-22" d="M267.262 367.99l6.96 5.04v-88.56l-6.96 6.96v76.56"/><path class="cls-16" d="M274.462 285.431l-.48-.48M274.462 289.511l-2.64-2.64M274.462 293.351l-4.56-4.32M274.462 297.431l-6.72-6.48M274.462 301.511l-6.96-6.96M274.462 305.351l-6.96-6.96M274.462 309.431l-6.96-6.96M274.462 313.511l-6.96-6.96M274.462 317.591l-6.96-6.96M274.462 321.431l-6.96-6.96M274.462 325.511l-6.96-6.96M274.462 329.591l-6.96-6.96M274.462 333.431l-6.96-6.96M274.462 337.511l-6.96-6.96M274.462 341.591l-6.96-6.96M274.462 345.431l-6.96-6.96M274.462 349.511l-6.96-6.96M274.462 353.591l-6.96-6.96M274.462 357.671l-6.96-6.96M274.462 361.511l-6.96-6.96M274.462 365.591l-6.96-6.96M274.462 369.671l-6.96-6.96M272.302 371.591l-4.8-5.04M272.782 371.831l1.68-1.44M270.382 370.151l4.08-3.84M268.222 368.471l6.24-6.24M267.502 365.351l6.96-6.96M267.502 361.271l6.96-6.96M267.502 357.191l6.96-6.96M267.502 353.111l6.96-6.96M267.502 349.271l6.96-6.96M267.502 345.191l6.96-6.96M267.502 341.111l6.96-6.96M267.502 337.271l6.96-6.96M267.502 333.191l6.96-6.96M267.502 329.111l6.96-6.96M267.502 325.271l6.96-6.96M267.502 321.191l6.96-6.96M267.502 317.111l6.96-6.96M267.502 313.031l6.96-6.96M267.502 309.191l6.96-6.96M267.502 305.111l6.96-6.96M267.502 301.031l6.96-6.96M267.502 297.191l6.96-6.96M267.502 293.111l6.96-6.96"/><path class="cls-22" d="M267.262 367.99l6.96 5.04v-88.56l-6.96 6.96v76.56"/><path class="cls-16" d="M274.462 285.431l-.48-.48M274.462 289.511l-2.64-2.64M274.462 293.351l-4.56-4.32M274.462 297.431l-6.72-6.48M274.462 301.511l-6.96-6.96M274.462 305.351l-6.96-6.96M274.462 309.431l-6.96-6.96M274.462 313.511l-6.96-6.96M274.462 317.591l-6.96-6.96M274.462 321.431l-6.96-6.96M274.462 325.511l-6.96-6.96M274.462 329.591l-6.96-6.96M274.462 333.431l-6.96-6.96M274.462 337.511l-6.96-6.96M274.462 341.591l-6.96-6.96M274.462 345.431l-6.96-6.96M274.462 349.511l-6.96-6.96M274.462 353.591l-6.96-6.96M274.462 357.671l-6.96-6.96M274.462 361.511l-6.96-6.96M274.462 365.591l-6.96-6.96M274.462 369.671l-6.96-6.96M272.302 371.591l-4.8-5.04M272.782 371.831l1.68-1.44M270.382 370.151l4.08-3.84M268.222 368.471l6.24-6.24M267.502 365.351l6.96-6.96M267.502 361.271l6.96-6.96M267.502 357.191l6.96-6.96M267.502 353.111l6.96-6.96M267.502 349.271l6.96-6.96M267.502 345.191l6.96-6.96M267.502 341.111l6.96-6.96M267.502 337.271l6.96-6.96M267.502 333.191l6.96-6.96M267.502 329.111l6.96-6.96M267.502 325.271l6.96-6.96M267.502 321.191l6.96-6.96M267.502 317.111l6.96-6.96M267.502 313.031l6.96-6.96M267.502 309.191l6.96-6.96M267.502 305.111l6.96-6.96M267.502 301.031l6.96-6.96M267.502 297.191l6.96-6.96M267.502 293.111l6.96-6.96"/><path class="cls-18" d="M267.262 291.431v76.56M274.222 284.471v88.56M274.222 284.471v88.56M267.262 291.431v76.56"/><path class="cls-22" d="M68.302 332.47l-7.2-6.96H.142l7.44 6.96h60.72"/><path class="cls-16" d="M64.942 332.471l-6.96-6.96M60.862 332.471l-6.96-6.96M56.782 332.471l-6.96-6.96M52.702 332.471l-6.96-6.96M48.862 332.471l-6.96-6.96M44.782 332.471l-6.96-6.96M40.702 332.471l-6.96-6.96M36.862 332.471l-6.96-6.96M32.782 332.471l-6.96-6.96M28.702 332.471l-6.96-6.96M24.862 332.471l-6.96-6.96M20.782 332.471l-6.96-6.96M16.702 332.471l-6.96-6.96M12.622 332.471l-6.96-6.96M8.782 332.471l-6.96-6.96M67.582 332.471l.48-.48M63.742 332.471l2.16-2.4M59.662 332.471l4.32-4.32M55.582 332.471l6.24-6.24M51.502 332.471l6.96-6.96M47.662 332.471l6.96-6.96M43.582 332.471l6.96-6.96M39.502 332.471l6.96-6.96M35.662 332.471l6.96-6.96M31.582 332.471l6.96-6.96M27.502 332.471l6.96-6.96M23.662 332.471l6.96-6.96M19.582 332.471l6.96-6.96M15.502 332.471l6.96-6.96M11.422 332.471l6.96-6.96M7.582 332.471l6.96-6.96M5.422 330.551l5.04-5.04M3.502 328.391l2.88-2.88M1.342 326.471l1.2-.96"/><path class="cls-22" d="M68.302 332.47l-7.2-6.96H.142l7.44 6.96h60.72"/><path class="cls-16" d="M64.942 332.471l-6.96-6.96M60.862 332.471l-6.96-6.96M56.782 332.471l-6.96-6.96M52.702 332.471l-6.96-6.96M48.862 332.471l-6.96-6.96M44.782 332.471l-6.96-6.96M40.702 332.471l-6.96-6.96M36.862 332.471l-6.96-6.96M32.782 332.471l-6.96-6.96M28.702 332.471l-6.96-6.96M24.862 332.471l-6.96-6.96M20.782 332.471l-6.96-6.96M16.702 332.471l-6.96-6.96M12.622 332.471l-6.96-6.96M8.782 332.471l-6.96-6.96M67.582 332.471l.48-.48M63.742 332.471l2.16-2.4M59.662 332.471l4.32-4.32M55.582 332.471l6.24-6.24M51.502 332.471l6.96-6.96M47.662 332.471l6.96-6.96M43.582 332.471l6.96-6.96M39.502 332.471l6.96-6.96M35.662 332.471l6.96-6.96M31.582 332.471l6.96-6.96M27.502 332.471l6.96-6.96M23.662 332.471l6.96-6.96M19.582 332.471l6.96-6.96M15.502 332.471l6.96-6.96M11.422 332.471l6.96-6.96M7.582 332.471l6.96-6.96M5.422 330.551l5.04-5.04M3.502 328.391l2.88-2.88M1.342 326.471l1.2-.96"/><path class="cls-18" d="M7.582 332.471h54.72M.142 325.511h60.96M.142 325.511h60.96M7.582 332.471h54.72"/><path class="cls-22" d="M61.102 284.47l4.8 4.8v-4.8h-4.8"/><path class="cls-16" d="M66.142 285.431l-1.2-.96M64.462 287.591l1.68-1.68M62.302 285.671l1.2-1.2"/><path class="cls-22" d="M61.102 284.47l4.8 4.8v-4.8h-4.8"/><path class="cls-16" d="M66.142 285.431l-1.2-.96M64.462 287.591l1.68-1.68M62.302 285.671l1.2-1.2"/><path class="cls-18" d="M65.902 284.471h-4.8M65.902 284.471h-4.8"/><path class="cls-22" d="M232.942 284.47v6.96H98.302v-6.96h134.64"/><path class="cls-16" d="M233.182 288.311l-3.84-3.84M232.222 291.431l-6.96-6.96M228.142 291.431l-6.96-6.96M224.302 291.431l-6.96-6.96M220.222 291.431l-6.96-6.96M216.142 291.431l-6.96-6.96M212.302 291.431l-6.96-6.96M208.222 291.431l-6.96-6.96M204.142 291.431l-6.96-6.96M200.302 291.431l-6.96-6.96M196.222 291.431l-6.96-6.96M192.142 291.431l-6.96-6.96M188.062 291.431l-6.96-6.96M184.222 291.431l-6.96-6.96M180.142 291.431l-6.96-6.96M176.062 291.431l-6.96-6.96M172.222 291.431l-6.96-6.96M168.142 291.431l-6.96-6.96M164.062 291.431l-6.96-6.96M159.982 291.431l-6.96-6.96M156.142 291.431l-6.96-6.96M152.062 291.431l-6.96-6.96M147.982 291.431l-6.96-6.96M144.142 291.431l-6.96-6.96M140.062 291.431l-6.96-6.96M135.982 291.431l-6.96-6.96M132.142 291.431l-6.96-6.96M128.062 291.431l-6.96-6.96M123.982 291.431l-6.96-6.96M119.902 291.431l-6.96-6.96M116.062 291.431l-6.96-6.96M111.982 291.431l-6.96-6.96M107.902 291.431l-6.96-6.96M104.062 291.431l-5.52-5.52M99.982 291.431l-1.44-1.44M232.942 291.431h.24M228.862 291.431l4.32-4.08M225.022 291.431l6.96-6.96M220.942 291.431l6.96-6.96M216.862 291.431l6.96-6.96M213.022 291.431l6.96-6.96M208.942 291.431l6.96-6.96M204.862 291.431l6.96-6.96M200.782 291.431l6.96-6.96M196.942 291.431l6.96-6.96M192.862 291.431l6.96-6.96M188.782 291.431l6.96-6.96M184.942 291.431l6.96-6.96M180.862 291.431l6.96-6.96M176.782 291.431l6.96-6.96M172.942 291.431l6.96-6.96M168.862 291.431l6.96-6.96M164.782 291.431l6.96-6.96M160.702 291.431l6.96-6.96M156.862 291.431l6.96-6.96M152.782 291.431l6.96-6.96M148.702 291.431l6.96-6.96M144.862 291.431l6.96-6.96M140.782 291.431l6.96-6.96M136.702 291.431l6.96-6.96M132.622 291.431l6.96-6.96M128.782 291.431l6.96-6.96M124.702 291.431l6.96-6.96M120.622 291.431l6.96-6.96M116.782 291.431l6.96-6.96M112.702 291.431l6.96-6.96M108.622 291.431l6.96-6.96M104.782 291.431l6.96-6.96M100.702 291.431l6.96-6.96M98.542 289.751l5.04-5.28M98.542 285.671l.96-1.2"/><path class="cls-22" d="M232.942 291.43v-6.96H98.302v6.96h134.64"/><path class="cls-16" d="M233.182 288.311l-3.84-3.84M232.222 291.431l-6.96-6.96M228.142 291.431l-6.96-6.96M224.302 291.431l-6.96-6.96M220.222 291.431l-6.96-6.96M216.142 291.431l-6.96-6.96M212.302 291.431l-6.96-6.96M208.222 291.431l-6.96-6.96M204.142 291.431l-6.96-6.96M200.302 291.431l-6.96-6.96M196.222 291.431l-6.96-6.96M192.142 291.431l-6.96-6.96M188.062 291.431l-6.96-6.96M184.222 291.431l-6.96-6.96M180.142 291.431l-6.96-6.96M176.062 291.431l-6.96-6.96M172.222 291.431l-6.96-6.96M168.142 291.431l-6.96-6.96M164.062 291.431l-6.96-6.96M159.982 291.431l-6.96-6.96M156.142 291.431l-6.96-6.96M152.062 291.431l-6.96-6.96M147.982 291.431l-6.96-6.96M144.142 291.431l-6.96-6.96M140.062 291.431l-6.96-6.96M135.982 291.431l-6.96-6.96M132.142 291.431l-6.96-6.96M128.062 291.431l-6.96-6.96M123.982 291.431l-6.96-6.96M119.902 291.431l-6.96-6.96M116.062 291.431l-6.96-6.96M111.982 291.431l-6.96-6.96M107.902 291.431l-6.96-6.96M104.062 291.431l-5.52-5.52M99.982 291.431l-1.44-1.44M232.942 291.431h.24M228.862 291.431l4.32-4.08M225.022 291.431l6.96-6.96M220.942 291.431l6.96-6.96M216.862 291.431l6.96-6.96M213.022 291.431l6.96-6.96M208.942 291.431l6.96-6.96M204.862 291.431l6.96-6.96M200.782 291.431l6.96-6.96M196.942 291.431l6.96-6.96M192.862 291.431l6.96-6.96M188.782 291.431l6.96-6.96M184.942 291.431l6.96-6.96M180.862 291.431l6.96-6.96M176.782 291.431l6.96-6.96M172.942 291.431l6.96-6.96M168.862 291.431l6.96-6.96M164.782 291.431l6.96-6.96M160.702 291.431l6.96-6.96M156.862 291.431l6.96-6.96M152.782 291.431l6.96-6.96M148.702 291.431l6.96-6.96M144.862 291.431l6.96-6.96M140.782 291.431l6.96-6.96M136.702 291.431l6.96-6.96M132.622 291.431l6.96-6.96M128.782 291.431l6.96-6.96M124.702 291.431l6.96-6.96M120.622 291.431l6.96-6.96M116.782 291.431l6.96-6.96M112.702 291.431l6.96-6.96M108.622 291.431l6.96-6.96M104.782 291.431l6.96-6.96M100.702 291.431l6.96-6.96M98.542 289.751l5.04-5.28M98.542 285.671l.96-1.2"/><path class="cls-18" d="M232.942 284.471H98.302M232.942 291.431H98.302M232.942 291.431H98.302M225.742 284.471H98.302"/><path class="cls-22" d="M265.102 291.43h2.16l6.96-6.96h-9.12v6.96"/><path class="cls-16" d="M273.982 284.951l-.48-.48M271.822 286.871l-2.4-2.4M269.902 289.031l-4.56-4.56M267.742 290.951l-2.4-2.64M265.342 291.191l6.72-6.72M265.342 287.111l2.64-2.64"/><path class="cls-22" d="M265.102 291.43h2.16l6.96-6.96h-9.12v6.96"/><path class="cls-16" d="M273.982 284.951l-.48-.48M271.822 286.871l-2.4-2.4M269.902 289.031l-4.56-4.56M267.742 290.951l-2.4-2.64M265.342 291.191l6.72-6.72M265.342 287.111l2.64-2.64"/><path class="cls-18" d="M274.222 284.471h-9.12M267.262 291.431h-2.16M267.262 291.431h-2.16M274.222 284.471h-9.12"/><path class="cls-17" d="M262.702 283.751h2.4v1.68h-2.4zM232.942 283.751h2.4v1.68h-2.4z"/><path class="cls-17" d="M235.342 283.751h27.36v1.68h-27.36zM262.702 285.431h-27.36"/><path class="cls-1" d="M262.942 291.431h-27.84"/><path class="cls-17" d="M235.582 291.431h-.48"/><path class="cls-22" d="M265.102 291.43h-2.16v-6h2.16"/><path class="cls-16" d="M265.342 288.311l-2.16-2.16M264.382 291.431l-1.2-1.2M265.102 291.431l.24-.24M263.182 289.271l2.16-2.16"/><path class="cls-22" d="M232.942 291.43h2.16v-6h-2.16"/><path class="cls-16" d="M235.342 286.391l-.96-.96M235.342 290.471l-2.16-2.16M233.182 291.431l2.16-2.16M233.182 287.351l1.68-1.92"/><path class="cls-18" d="M262.942 291.431v-6M235.102 291.431v-6M262.942 291.431v-6M265.102 291.431h-2.16M235.102 291.431v-6M232.942 291.431h2.16M265.102 284.471v.96M232.942 284.471v.96M265.102 291.431h-2.16M232.942 291.431h2.16M262.942 285.431h2.16M235.102 285.431h-2.16"/><path class="cls-16" d="M262.64 283.796c0-14.928-12.284-27.21-27.212-27.21M235.342 283.751v-27.12"/><path class="cls-17" d="M95.662 283.751h2.64v1.68h-2.64zM65.902 283.751h2.64v1.68h-2.64zM68.542 283.751h27.12v1.68h-27.12zM95.662 285.431h-27.12"/><path class="cls-1" d="M95.902 291.431h-27.6"/><path class="cls-17" d="M68.782 291.431h-.48"/><path class="cls-22" d="M98.302 291.43h-2.4v-6h2.4v-.96"/><path class="cls-16" d="M98.542 285.911l-.48-.48M98.542 289.991l-2.4-2.4M96.622 291.431l1.92-1.68M96.142 288.071l2.4-2.4"/><path class="cls-18" d="M98.302 291.43h-2.4v-6h2.4v-.96"/><path class="cls-22" d="M65.916 291.45h2.267v-5.952h-2.267v-1.133"/><path class="cls-16" d="M68.542 287.831l-2.4-2.4M67.822 291.431l-1.68-1.92M66.142 289.991l2.4-2.4M66.142 285.911l.48-.48"/><path class="cls-18" d="M68.183 291.45v-5.952h-2.267v-1.133"/><path class="cls-22" d="M121.102 375.19v-7.2h116.88v7.2h-116.88"/><path class="cls-16" d="M238.222 369.431l-1.68-1.44M238.222 373.511l-5.52-5.52M235.822 375.191l-7.2-7.2M231.742 375.191l-7.2-7.2M227.902 375.191l-7.2-7.2M223.822 375.191l-7.2-7.2M219.742 375.191l-7.2-7.2M215.902 375.191l-7.2-7.2M211.822 375.191l-7.2-7.2M207.742 375.191l-7.2-7.2M203.662 375.191l-7.2-7.2M199.822 375.191l-7.2-7.2M195.742 375.191l-7.2-7.2M191.662 375.191l-7.2-7.2M187.822 375.191l-7.2-7.2M183.742 375.191l-7.2-7.2M179.662 375.191l-7.2-7.2M175.822 375.191l-7.2-7.2M171.742 375.191l-7.2-7.2M167.662 375.191l-7.2-7.2M163.582 375.191l-7.2-7.2M159.742 375.191l-7.2-7.2M155.662 375.191l-7.2-7.2M151.582 375.191l-7.2-7.2M147.742 375.191l-7.2-7.2M143.662 375.191l-7.2-7.2M139.582 375.191l-7.2-7.2M135.502 375.191l-7.2-7.2M131.662 375.191l-7.2-7.2M127.582 375.191l-6.24-6.48M123.502 375.191l-2.16-2.4M237.502 375.191l.72-.72M233.422 375.191l4.8-4.8M229.342 375.191l7.2-7.2M225.262 375.191l7.2-7.2M221.422 375.191l7.2-7.2M217.342 375.191l7.2-7.2M213.262 375.191l7.2-7.2M209.422 375.191l7.2-7.2M205.342 375.191l7.2-7.2M201.262 375.191l7.2-7.2M197.182 375.191l7.2-7.2M193.342 375.191l7.2-7.2M189.262 375.191l7.2-7.2M185.182 375.191l7.2-7.2M181.342 375.191l7.2-7.2M177.262 375.191l7.2-7.2M173.182 375.191l7.2-7.2M169.342 375.191l7.2-7.2M165.262 375.191l7.2-7.2M161.182 375.191l7.2-7.2M157.102 375.191l7.2-7.2M153.262 375.191l7.2-7.2M149.182 375.191l7.2-7.2M145.102 375.191l7.2-7.2M141.262 375.191l7.2-7.2M137.182 375.191l7.2-7.2M133.102 375.191l7.2-7.2M129.262 375.191l7.2-7.2M125.182 375.191l7.2-7.2M121.342 375.191l6.96-7.2M121.342 371.111l2.88-3.12"/><path class="cls-22" d="M121.102 367.99v7.2h116.88v-7.2h-116.88"/><path class="cls-16" d="M238.222 369.431l-1.68-1.44M238.222 373.511l-5.52-5.52M235.822 375.191l-7.2-7.2M231.742 375.191l-7.2-7.2M227.902 375.191l-7.2-7.2M223.822 375.191l-7.2-7.2M219.742 375.191l-7.2-7.2M215.902 375.191l-7.2-7.2M211.822 375.191l-7.2-7.2M207.742 375.191l-7.2-7.2M203.662 375.191l-7.2-7.2M199.822 375.191l-7.2-7.2M195.742 375.191l-7.2-7.2M191.662 375.191l-7.2-7.2M187.822 375.191l-7.2-7.2M183.742 375.191l-7.2-7.2M179.662 375.191l-7.2-7.2M175.822 375.191l-7.2-7.2M171.742 375.191l-7.2-7.2M167.662 375.191l-7.2-7.2M163.582 375.191l-7.2-7.2M159.742 375.191l-7.2-7.2M155.662 375.191l-7.2-7.2M151.582 375.191l-7.2-7.2M147.742 375.191l-7.2-7.2M143.662 375.191l-7.2-7.2M139.582 375.191l-7.2-7.2M135.502 375.191l-7.2-7.2M131.662 375.191l-7.2-7.2M127.582 375.191l-6.24-6.48M123.502 375.191l-2.16-2.4M237.502 375.191l.72-.72M233.422 375.191l4.8-4.8M229.342 375.191l7.2-7.2M225.262 375.191l7.2-7.2M221.422 375.191l7.2-7.2M217.342 375.191l7.2-7.2M213.262 375.191l7.2-7.2M209.422 375.191l7.2-7.2M205.342 375.191l7.2-7.2M201.262 375.191l7.2-7.2M197.182 375.191l7.2-7.2M193.342 375.191l7.2-7.2M189.262 375.191l7.2-7.2M185.182 375.191l7.2-7.2M181.342 375.191l7.2-7.2M177.262 375.191l7.2-7.2M173.182 375.191l7.2-7.2M169.342 375.191l7.2-7.2M165.262 375.191l7.2-7.2M161.182 375.191l7.2-7.2M157.102 375.191l7.2-7.2M153.262 375.191l7.2-7.2M149.182 375.191l7.2-7.2M145.102 375.191l7.2-7.2M141.262 375.191l7.2-7.2M137.182 375.191l7.2-7.2M133.102 375.191l7.2-7.2M129.262 375.191l7.2-7.2M125.182 375.191l7.2-7.2M121.342 375.191l6.96-7.2M121.342 371.111l2.88-3.12"/><path class="cls-18" d="M121.102 375.191h116.88M121.102 367.991h116.88M121.102 367.991h116.88M121.102 375.191h116.88"/><path class="cls-22" d="M85.582 367.99h-17.28l-6 7.2h23.28v-7.2"/><path class="cls-16" d="M85.822 369.431l-1.44-1.44M85.822 373.271l-5.52-5.28M83.422 375.191l-7.2-7.2M79.582 375.191l-7.2-7.2M75.502 375.191l-7.2-7.2M71.422 375.191l-4.8-5.04M67.582 375.191l-2.88-2.64M63.502 375.191l-.72-.48M85.102 375.191l.72-.72M81.022 375.191l4.8-4.56M76.942 375.191l7.2-7.2M73.102 375.191l7.2-7.2M69.022 375.191l7.2-7.2M64.942 375.191l7.2-7.2"/><path class="cls-22" d="M85.582 367.99h-17.28l-6 7.2h23.28v-7.2"/><path class="cls-16" d="M85.822 369.431l-1.44-1.44M85.822 373.271l-5.52-5.28M83.422 375.191l-7.2-7.2M79.582 375.191l-7.2-7.2M75.502 375.191l-7.2-7.2M71.422 375.191l-4.8-5.04M67.582 375.191l-2.88-2.64M63.502 375.191l-.72-.48M85.102 375.191l.72-.72M81.022 375.191l4.8-4.56M76.942 375.191l7.2-7.2M73.102 375.191l7.2-7.2M69.022 375.191l7.2-7.2M64.942 375.191l7.2-7.2"/><path class="cls-18" d="M69.262 375.191h16.32M68.302 367.991h17.28M68.302 367.991h17.28M69.262 375.191h16.32M237.982 373.031v2.16"/><path class="cls-17" d="M85.582 373.991h2.4v1.68h-2.4zM115.342 373.991h5.76v1.68h-5.76zM87.982 373.991h27.36v1.68h-27.36zM87.982 373.991h27.36"/><path class="cls-1" d="M87.742 367.991h27.84"/><path class="cls-17" d="M115.102 367.991h.48"/><path class="cls-22" d="M85.582 367.99h2.16v6h-2.16"/><path class="cls-16" d="M87.982 371.591l-2.16-2.16M86.302 373.991l-.48-.72M86.302 373.991l1.68-1.68M85.822 370.631l2.16-2.16"/><path class="cls-22" d="M121.102 367.99h-5.52v6h5.52"/><path class="cls-16" d="M121.342 368.711l-.96-.72M121.342 372.791l-5.04-4.8M118.462 373.991l-2.64-2.64M118.222 373.991l3.12-2.88M115.822 372.551l4.56-4.56M115.822 368.711l.48-.72"/><path class="cls-18" d="M87.742 367.991v6M115.582 367.991v6M87.742 367.991v6M85.582 367.991h2.16M115.582 367.991v6M121.102 367.991h-5.52M85.582 375.191v-1.2M121.102 375.191v-1.2M85.582 367.991h2.16M121.102 367.991h-5.52M87.742 373.991h-2.16M115.582 373.991h5.52"/><path class="cls-22" d="M232.942 284.47h-7.2V52.15h7.2v232.32"/><path class="cls-16" d="M233.182 55.751l-3.6-3.6M233.182 59.831l-7.2-7.2M233.182 63.671l-7.2-7.2M233.182 67.751l-7.2-7.2M233.182 71.831l-7.2-7.2M233.182 75.671l-7.2-7.2M233.182 79.751l-7.2-7.2M233.182 83.831l-7.2-7.2M233.182 87.671l-7.2-7.2M233.182 91.751l-7.2-7.2M233.182 95.831l-7.2-7.2M233.182 99.911l-7.2-7.2M233.182 103.751l-7.2-7.2M233.182 107.831l-7.2-7.2M233.182 111.911l-7.2-7.2M233.182 115.751l-7.2-7.2M233.182 119.831l-7.2-7.2M233.182 123.911l-7.2-7.2M233.182 127.991l-7.2-7.2M233.182 131.831l-7.2-7.2M233.182 135.911l-7.2-7.2M233.182 139.991l-7.2-7.2M233.182 143.831l-7.2-7.2M233.182 147.911l-7.2-7.2M233.182 151.991l-7.2-7.2M233.182 155.831l-7.2-7.2M233.182 159.911l-7.2-7.2M233.182 163.991l-7.2-7.2M233.182 168.071l-7.2-7.2M233.182 171.911l-7.2-7.2M233.182 175.991l-7.2-7.2M233.182 180.071l-7.2-7.2M233.182 183.911l-7.2-7.2M233.182 187.991l-7.2-7.2M233.182 192.071l-7.2-7.2M233.182 195.911l-7.2-7.2M233.182 199.991l-7.2-7.2M233.182 204.071l-7.2-7.2M233.182 208.151l-7.2-7.2M233.182 211.991l-7.2-7.2M233.182 216.071l-7.2-7.2M233.182 220.151l-7.2-7.2M233.182 223.991l-7.2-7.2M233.182 228.071l-7.2-7.2M233.182 232.151l-7.2-7.2M233.182 236.231l-7.2-7.2M233.182 240.071l-7.2-7.2M233.182 244.151l-7.2-7.2M233.182 248.231l-7.2-7.2M233.182 252.071l-7.2-7.2M233.182 256.151l-7.2-7.2M233.182 260.231l-7.2-7.2M233.182 264.071l-7.2-7.2M233.182 268.151l-7.2-7.2M233.182 272.231l-7.2-7.2M233.182 276.311l-7.2-7.2M233.182 280.151l-7.2-7.2M233.182 284.231l-7.2-7.2M229.342 284.471l-3.36-3.36M231.982 284.471l1.2-1.2M227.902 284.471l5.28-5.28M225.982 282.551l7.2-7.2M225.982 278.471l7.2-7.2M225.982 274.391l7.2-7.2M225.982 270.551l7.2-7.2M225.982 266.471l7.2-7.2M225.982 262.391l7.2-7.2M225.982 258.551l7.2-7.2M225.982 254.471l7.2-7.2M225.982 250.391l7.2-7.2M225.982 246.311l7.2-7.2M225.982 242.471l7.2-7.2M225.982 238.391l7.2-7.2M225.982 234.311l7.2-7.2M225.982 230.471l7.2-7.2M225.982 226.391l7.2-7.2M225.982 222.311l7.2-7.2M225.982 218.231l7.2-7.2M225.982 214.391l7.2-7.2M225.982 210.311l7.2-7.2M225.982 206.231l7.2-7.2M225.982 202.391l7.2-7.2M225.982 198.311l7.2-7.2M225.982 194.231l7.2-7.2M225.982 190.391l7.2-7.2M225.982 186.311l7.2-7.2M225.982 182.231l7.2-7.2M225.982 178.151l7.2-7.2M225.982 174.311l7.2-7.2M225.982 170.231l7.2-7.2M225.982 166.151l7.2-7.2M225.982 162.311l7.2-7.2M225.982 158.231l7.2-7.2M225.982 154.151l7.2-7.2M225.982 150.311l7.2-7.2M225.982 146.231l7.2-7.2M225.982 142.151l7.2-7.2M225.982 138.071l7.2-7.2M225.982 134.231l7.2-7.2M225.982 130.151l7.2-7.2M225.982 126.071l7.2-7.2M225.982 122.231l7.2-7.2M225.982 118.151l7.2-7.2M225.982 114.071l7.2-7.2M225.982 109.991l7.2-7.2M225.982 106.151l7.2-7.2M225.982 102.071l7.2-7.2M225.982 97.991l7.2-7.2M225.982 94.151l7.2-7.2M225.982 90.071l7.2-7.2M225.982 85.991l7.2-7.2M225.982 82.151l7.2-7.2M225.982 78.071l7.2-7.2M225.982 73.991l7.2-7.2M225.982 69.911l7.2-7.2M225.982 66.071l7.2-7.2M225.982 61.991l7.2-7.2M225.982 57.911l5.76-5.76M225.982 54.071l1.68-1.92"/><path class="cls-22" d="M225.742 284.47h7.2V52.15h-7.2v232.32"/><path class="cls-16" d="M233.182 55.751l-3.6-3.6M233.182 59.831l-7.2-7.2M233.182 63.671l-7.2-7.2M233.182 67.751l-7.2-7.2M233.182 71.831l-7.2-7.2M233.182 75.671l-7.2-7.2M233.182 79.751l-7.2-7.2M233.182 83.831l-7.2-7.2M233.182 87.671l-7.2-7.2M233.182 91.751l-7.2-7.2M233.182 95.831l-7.2-7.2M233.182 99.911l-7.2-7.2M233.182 103.751l-7.2-7.2M233.182 107.831l-7.2-7.2M233.182 111.911l-7.2-7.2M233.182 115.751l-7.2-7.2M233.182 119.831l-7.2-7.2M233.182 123.911l-7.2-7.2M233.182 127.991l-7.2-7.2M233.182 131.831l-7.2-7.2M233.182 135.911l-7.2-7.2M233.182 139.991l-7.2-7.2M233.182 143.831l-7.2-7.2M233.182 147.911l-7.2-7.2M233.182 151.991l-7.2-7.2M233.182 155.831l-7.2-7.2M233.182 159.911l-7.2-7.2M233.182 163.991l-7.2-7.2M233.182 168.071l-7.2-7.2M233.182 171.911l-7.2-7.2M233.182 175.991l-7.2-7.2M233.182 180.071l-7.2-7.2M233.182 183.911l-7.2-7.2M233.182 187.991l-7.2-7.2M233.182 192.071l-7.2-7.2M233.182 195.911l-7.2-7.2M233.182 199.991l-7.2-7.2M233.182 204.071l-7.2-7.2M233.182 208.151l-7.2-7.2M233.182 211.991l-7.2-7.2M233.182 216.071l-7.2-7.2M233.182 220.151l-7.2-7.2M233.182 223.991l-7.2-7.2M233.182 228.071l-7.2-7.2M233.182 232.151l-7.2-7.2M233.182 236.231l-7.2-7.2M233.182 240.071l-7.2-7.2M233.182 244.151l-7.2-7.2M233.182 248.231l-7.2-7.2M233.182 252.071l-7.2-7.2M233.182 256.151l-7.2-7.2M233.182 260.231l-7.2-7.2M233.182 264.071l-7.2-7.2M233.182 268.151l-7.2-7.2M233.182 272.231l-7.2-7.2M233.182 276.311l-7.2-7.2M233.182 280.151l-7.2-7.2M233.182 284.231l-7.2-7.2M229.342 284.471l-3.36-3.36M231.982 284.471l1.2-1.2M227.902 284.471l5.28-5.28M225.982 282.551l7.2-7.2M225.982 278.471l7.2-7.2M225.982 274.391l7.2-7.2M225.982 270.551l7.2-7.2M225.982 266.471l7.2-7.2M225.982 262.391l7.2-7.2M225.982 258.551l7.2-7.2M225.982 254.471l7.2-7.2M225.982 250.391l7.2-7.2M225.982 246.311l7.2-7.2M225.982 242.471l7.2-7.2M225.982 238.391l7.2-7.2M225.982 234.311l7.2-7.2M225.982 230.471l7.2-7.2M225.982 226.391l7.2-7.2M225.982 222.311l7.2-7.2M225.982 218.231l7.2-7.2M225.982 214.391l7.2-7.2M225.982 210.311l7.2-7.2M225.982 206.231l7.2-7.2M225.982 202.391l7.2-7.2M225.982 198.311l7.2-7.2M225.982 194.231l7.2-7.2M225.982 190.391l7.2-7.2M225.982 186.311l7.2-7.2M225.982 182.231l7.2-7.2M225.982 178.151l7.2-7.2M225.982 174.311l7.2-7.2M225.982 170.231l7.2-7.2M225.982 166.151l7.2-7.2M225.982 162.311l7.2-7.2M225.982 158.231l7.2-7.2M225.982 154.151l7.2-7.2M225.982 150.311l7.2-7.2M225.982 146.231l7.2-7.2M225.982 142.151l7.2-7.2M225.982 138.071l7.2-7.2M225.982 134.231l7.2-7.2M225.982 130.151l7.2-7.2M225.982 126.071l7.2-7.2M225.982 122.231l7.2-7.2M225.982 118.151l7.2-7.2M225.982 114.071l7.2-7.2M225.982 109.991l7.2-7.2M225.982 106.151l7.2-7.2M225.982 102.071l7.2-7.2M225.982 97.991l7.2-7.2M225.982 94.151l7.2-7.2M225.982 90.071l7.2-7.2M225.982 85.991l7.2-7.2M225.982 82.151l7.2-7.2M225.982 78.071l7.2-7.2M225.982 73.991l7.2-7.2M225.982 69.911l7.2-7.2M225.982 66.071l7.2-7.2M225.982 61.991l7.2-7.2M225.982 57.911l5.76-5.76M225.982 54.071l1.68-1.92"/><path class="cls-18" d="M232.942 284.471V52.151M225.742 284.471V52.151M232.942 52.151h-7.2M225.742 284.471V52.151M232.942 284.471V52.151"/><path class="cls-17" d="M227.902 325.511v-34.08M220.222 325.511v-34.08M212.542 325.511v-34.08M204.862 325.511v-34.08M197.182 325.511v-34.08M189.742 325.511v-34.08M182.062 325.511v-34.08M174.382 325.511v-34.08M109.342 326.951h122.4v5.52h-122.4zM185.422 326.951l8.16-35.52M166.702 325.511v-34.08M159.022 325.511v-34.08M151.342 325.511v-34.08M143.662 325.511v-34.08M135.982 325.511v-34.08M128.302 325.511v-34.08M120.862 325.511v-34.08M113.182 325.511v-34.08"/><path class="cls-17" d="M107.902 325.511h125.28v8.4h-125.28zM189.648 308.459l3.826-3.826M193.474 312.287l-3.826-3.828M193.582 304.631v7.68M113.112 308.459l3.827-3.826M116.939 312.287l-3.827-3.828M117.022 304.631v7.68"/><path class="cls-22" d="M.142 386.95l7.44-9.12v-45.36l-7.44-6.96v61.44"/><path class="cls-16" d="M7.822 335.351l-7.44-7.44M7.822 339.431l-7.44-7.44M7.822 343.511l-7.44-7.44M7.822 347.591l-7.44-7.44M7.822 351.431l-7.44-7.44M7.822 355.511l-7.44-7.44M7.822 359.591l-7.44-7.44M7.822 363.431l-7.44-7.44M7.822 367.511l-7.44-7.44M7.822 371.591l-7.44-7.44M7.822 375.671l-7.44-7.44M6.862 378.791l-6.48-6.72M5.182 380.951l-4.8-4.8M3.262 383.111l-2.88-2.88M1.582 385.511l-1.2-1.44M.382 383.831l7.44-7.44M.382 379.751l7.44-7.44M.382 375.911l7.44-7.44M.382 371.831l7.44-7.44M.382 367.751l7.44-7.44M.382 363.671l7.44-7.44M.382 359.831l7.44-7.44M.382 355.751l7.44-7.44M.382 351.671l7.44-7.44M.382 347.831l7.44-7.44M.382 343.751l7.44-7.44M.382 339.671l7.2-7.2M.382 335.591l5.04-5.04M.382 331.751l3.12-3.36M.382 327.671l.96-1.2"/><path class="cls-22" d="M.142 386.95l7.44-9.12v-45.36l-7.44-6.96v61.44"/><path class="cls-16" d="M7.822 335.351l-7.44-7.44M7.822 339.431l-7.44-7.44M7.822 343.511l-7.44-7.44M7.822 347.591l-7.44-7.44M7.822 351.431l-7.44-7.44M7.822 355.511l-7.44-7.44M7.822 359.591l-7.44-7.44M7.822 363.431l-7.44-7.44M7.822 367.511l-7.44-7.44M7.822 371.591l-7.44-7.44M7.822 375.671l-7.44-7.44M6.862 378.791l-6.48-6.72M5.182 380.951l-4.8-4.8M3.262 383.111l-2.88-2.88M1.582 385.511l-1.2-1.44M.382 383.831l7.44-7.44M.382 379.751l7.44-7.44M.382 375.911l7.44-7.44M.382 371.831l7.44-7.44M.382 367.751l7.44-7.44M.382 363.671l7.44-7.44M.382 359.831l7.44-7.44M.382 355.751l7.44-7.44M.382 351.671l7.44-7.44M.382 347.831l7.44-7.44M.382 343.751l7.44-7.44M.382 339.671l7.2-7.2M.382 335.591l5.04-5.04M.382 331.751l3.12-3.36M.382 327.671l.96-1.2"/><path class="cls-18" d="M.142 325.511v61.44M7.582 332.471v45.36M7.582 332.471v45.36M.142 325.511v61.44"/><path class="cls-22" d="M69.262 386.95l-6.96-9.12H7.582l-7.44 9.12h69.12"/><path class="cls-16" d="M63.502 379.271l-1.44-1.44M67.102 386.951l-9.12-9.12M63.262 386.951l-9.12-9.12M59.182 386.951l-9.12-9.12M55.102 386.951l-9.12-9.12M51.262 386.951l-9.12-9.12M47.182 386.951l-9.12-9.12M43.102 386.951l-9.12-9.12M39.022 386.951l-9.12-9.12M35.182 386.951l-9.12-9.12M31.102 386.951l-9.12-9.12M27.022 386.951l-9.12-9.12M23.182 386.951l-9.12-9.12M19.102 386.951l-9.12-9.12M15.022 386.951l-8.16-8.16M11.182 386.951l-6-6M7.102 386.951l-3.84-3.84M3.022 386.951l-1.44-1.44M65.182 386.951l2.4-2.4M61.342 386.951l4.56-4.56M57.262 386.951l6.96-6.96M53.182 386.951l9.12-9.12M49.342 386.951l9.12-9.12M45.262 386.951l9.12-9.12M41.182 386.951l9.12-9.12M37.102 386.951l9.12-9.12M33.262 386.951l9.12-9.12M29.182 386.951l9.12-9.12M25.102 386.951l9.12-9.12M21.262 386.951l9.12-9.12M17.182 386.951l9.12-9.12M13.102 386.951l9.12-9.12M9.262 386.951l9.12-9.12M5.182 386.951l9.12-9.12M1.102 386.951l9.12-9.12"/><path class="cls-22" d="M69.262 386.95l-6.96-9.12H7.582l-7.44 9.12h69.12"/><path class="cls-16" d="M63.502 379.271l-1.44-1.44M67.102 386.951l-9.12-9.12M63.262 386.951l-9.12-9.12M59.182 386.951l-9.12-9.12M55.102 386.951l-9.12-9.12M51.262 386.951l-9.12-9.12M47.182 386.951l-9.12-9.12M43.102 386.951l-9.12-9.12M39.022 386.951l-9.12-9.12M35.182 386.951l-9.12-9.12M31.102 386.951l-9.12-9.12M27.022 386.951l-9.12-9.12M23.182 386.951l-9.12-9.12M19.102 386.951l-9.12-9.12M15.022 386.951l-8.16-8.16M11.182 386.951l-6-6M7.102 386.951l-3.84-3.84M3.022 386.951l-1.44-1.44M65.182 386.951l2.4-2.4M61.342 386.951l4.56-4.56M57.262 386.951l6.96-6.96M53.182 386.951l9.12-9.12M49.342 386.951l9.12-9.12M45.262 386.951l9.12-9.12M41.182 386.951l9.12-9.12M37.102 386.951l9.12-9.12M33.262 386.951l9.12-9.12M29.182 386.951l9.12-9.12M25.102 386.951l9.12-9.12M21.262 386.951l9.12-9.12M17.182 386.951l9.12-9.12M13.102 386.951l9.12-9.12M9.262 386.951l9.12-9.12M5.182 386.951l9.12-9.12M1.102 386.951l9.12-9.12"/><path class="cls-18" d="M.142 386.951h69.12M7.582 377.831h54.72M7.582 377.831h54.72M.142 386.951h69.12"/><path class="cls-22" d="M69.262 375.19h-6.96v2.64l6.96 9.12v-11.76"/><path class="cls-16" d="M69.502 377.111l-1.92-1.92M69.502 381.191l-6-6M69.502 385.031l-6-5.76M69.262 386.951h.24M67.582 384.551l1.92-1.68M65.902 382.391l3.6-3.6M64.222 379.991l4.8-4.8M62.542 377.831l2.4-2.64"/><path class="cls-22" d="M69.262 375.19h-6.96v2.64l6.96 9.12v-11.76"/><path class="cls-16" d="M69.502 377.111l-1.92-1.92M69.502 381.191l-6-6M69.502 385.031l-6-5.76M69.262 386.951h.24M67.582 384.551l1.92-1.68M65.902 382.391l3.6-3.6M64.222 379.991l4.8-4.8M62.542 377.831l2.4-2.64"/><path class="cls-18" d="M69.262 386.951v-11.76M62.302 377.831v-2.64M62.302 377.831v-2.64M69.262 386.951v-11.76"/><path class="cls-22" d="M336.862 284.47l-5.04 4.08v79.44h5.04v-83.52"/><path class="cls-16" d="M332.062 288.791l1.2-1.44M332.062 293.111l5.04-5.04M332.062 297.431l5.04-5.04M332.062 301.511l5.04-5.04M332.062 305.831l5.04-5.04M332.062 310.151l5.04-5.04M332.062 314.231l5.04-5.04M332.062 318.551l5.04-5.04M332.062 322.871l5.04-5.04M332.062 326.951l5.04-5.04M332.062 331.271l5.04-5.04M332.062 335.591l5.04-5.04M332.062 339.911l5.04-5.04M332.062 343.991l5.04-5.04M332.062 348.311l5.04-5.04M332.062 352.631l5.04-5.04M332.062 356.711l5.04-5.04M332.062 361.031l5.04-5.04M332.062 365.351l5.04-5.04M333.502 367.991l3.6-3.36"/><path class="cls-22" d="M336.862 284.47l-5.04 4.08v79.44h5.04v-83.52"/><path class="cls-16" d="M332.062 288.791l1.2-1.44M332.062 293.111l5.04-5.04M332.062 297.431l5.04-5.04M332.062 301.511l5.04-5.04M332.062 305.831l5.04-5.04M332.062 310.151l5.04-5.04M332.062 314.231l5.04-5.04M332.062 318.551l5.04-5.04M332.062 322.871l5.04-5.04M332.062 326.951l5.04-5.04M332.062 331.271l5.04-5.04M332.062 335.591l5.04-5.04M332.062 339.911l5.04-5.04M332.062 343.991l5.04-5.04M332.062 348.311l5.04-5.04M332.062 352.631l5.04-5.04M332.062 356.711l5.04-5.04M332.062 361.031l5.04-5.04M332.062 365.351l5.04-5.04M333.502 367.991l3.6-3.36"/><path class="cls-18" d="M336.862 367.991v-83.52M331.822 367.991v-79.44M331.822 367.991v-79.44M336.862 367.991v-83.52M336.862 367.991h-5.04"/><path class="cls-22" d="M336.862 163.99h-4.32V57.19h4.32v106.8"/><path class="cls-16" d="M332.782 58.631l1.2-1.44M332.782 62.951l4.32-4.32M332.782 67.031l4.32-4.32M332.782 71.351l4.32-4.32M332.782 75.671l4.32-4.32M332.782 79.751l4.32-4.32M332.782 84.071l4.32-4.32M332.782 88.391l4.32-4.32M332.782 92.711l4.32-4.32M332.782 96.791l4.32-4.32M332.782 101.111l4.32-4.32M332.782 105.431l4.32-4.32M332.782 109.511l4.32-4.32M332.782 113.831l4.32-4.32M332.782 118.151l4.32-4.32M332.782 122.231l4.32-4.32M332.782 126.551l4.32-4.32M332.782 130.871l4.32-4.32M332.782 135.191l4.32-4.32M332.782 139.271l4.32-4.32M332.782 143.591l4.32-4.32M332.782 147.911l4.32-4.32M332.782 151.991l4.32-4.32M332.782 156.311l4.32-4.32M332.782 160.631l4.32-4.32M333.502 163.991l3.6-3.36"/><path class="cls-22" d="M332.542 163.99h4.32V57.19h-4.32v106.8"/><path class="cls-16" d="M332.782 58.631l1.2-1.44M332.782 62.951l4.32-4.32M332.782 67.031l4.32-4.32M332.782 71.351l4.32-4.32M332.782 75.671l4.32-4.32M332.782 79.751l4.32-4.32M332.782 84.071l4.32-4.32M332.782 88.391l4.32-4.32M332.782 92.711l4.32-4.32M332.782 96.791l4.32-4.32M332.782 101.111l4.32-4.32M332.782 105.431l4.32-4.32M332.782 109.511l4.32-4.32M332.782 113.831l4.32-4.32M332.782 118.151l4.32-4.32M332.782 122.231l4.32-4.32M332.782 126.551l4.32-4.32M332.782 130.871l4.32-4.32M332.782 135.191l4.32-4.32M332.782 139.271l4.32-4.32M332.782 143.591l4.32-4.32M332.782 147.911l4.32-4.32M332.782 151.991l4.32-4.32M332.782 156.311l4.32-4.32M332.782 160.631l4.32-4.32M333.502 163.991l3.6-3.36"/><path class="cls-18" d="M336.862 163.991v-106.8M332.542 136.631v-79.44M332.542 163.991v-23.28M336.862 57.191h-4.32M332.542 136.631v-79.44M336.862 163.991v-106.8M332.542 163.991v-23.28"/><path class="cls-22" d="M336.862 235.99h-4.32v-46.8h4.32v46.8"/><path class="cls-16" d="M332.782 190.391l.96-1.2M332.782 194.711l4.32-4.32M332.782 198.791l4.32-4.32M332.782 203.111l4.32-4.32M332.782 207.431l4.32-4.32M332.782 211.511l4.32-4.32M332.782 215.831l4.32-4.32M332.782 220.151l4.32-4.32M332.782 224.231l4.32-4.32M332.782 228.551l4.32-4.32M332.782 232.871l4.32-4.32M333.742 235.991l3.36-3.12"/><path class="cls-22" d="M332.542 235.99h4.32v-46.8h-4.32v46.8"/><path class="cls-16" d="M332.782 190.391l.96-1.2M332.782 194.711l4.32-4.32M332.782 198.791l4.32-4.32M332.782 203.111l4.32-4.32M332.782 207.431l4.32-4.32M332.782 211.511l4.32-4.32M332.782 215.831l4.32-4.32M332.782 220.151l4.32-4.32M332.782 224.231l4.32-4.32M332.782 228.551l4.32-4.32M332.782 232.871l4.32-4.32M333.742 235.991l3.36-3.12"/><path class="cls-18" d="M336.862 210.551v-21.36M336.862 235.991v-21.12M332.542 235.991v-46.8M332.542 235.991v-46.8M336.862 210.551v-21.36M336.862 235.991v-21.12"/><path class="cls-22" d="M332.542 261.19v23.28h4.32v-23.28h-4.32"/><path class="cls-16" d="M332.782 262.631l1.2-1.44M332.782 266.951l4.32-4.32M332.782 271.031l4.32-4.32M332.782 275.351l4.32-4.32M332.782 279.671l4.32-4.32M332.782 283.751l4.32-4.32M336.382 284.471l.72-.72"/><path class="cls-22" d="M332.542 261.19v23.28h4.32v-23.28h-4.32"/><path class="cls-16" d="M332.782 262.631l1.2-1.44M332.782 266.951l4.32-4.32M332.782 271.031l4.32-4.32M332.782 275.351l4.32-4.32M332.782 279.671l4.32-4.32M332.782 283.751l4.32-4.32M336.382 284.471l.72-.72"/><path class="cls-18" d="M336.862 284.471v-23.28M332.542 284.471v-23.28M332.542 284.471v-23.28M336.862 284.471v-23.28"/><path class="cls-1" d="M336.862 261.191v-25.2M332.542 261.191v-25.2"/><path class="cls-17" d="M336.862 259.991h-4.32M336.862 237.191h-4.32"/><path class="cls-18" d="M336.862 261.191h-4.32M336.862 235.991h-4.32"/><path class="cls-16" d="M336.766 259.986c6.012 0 11.784-2.39 16.034-6.64a22.686 22.686 0 0 0 6.643-16.038M336.862 237.191h22.56"/><path class="cls-1" d="M336.862 189.191v-25.2M332.542 189.191v-25.2"/><path class="cls-17" d="M336.862 187.991h-4.32M336.862 165.191h-4.32"/><path class="cls-18" d="M336.862 189.191h-4.32M336.862 163.991h-4.32"/><path class="cls-16" d="M359.443 187.986c0-12.44-10.236-22.677-22.677-22.677M336.862 187.991h22.56"/><path class="cls-22" d="M331.822 288.55l5.04-4.08h-9.36v4.08h4.32"/><path class="cls-16" d="M327.742 284.711v-.24M327.982 288.551l4.08-4.08M333.262 287.351l3.12-2.88"/><path class="cls-22" d="M331.822 288.55l5.04-4.08h-9.36v4.08h4.32"/><path class="cls-16" d="M327.742 284.711v-.24M327.982 288.551l4.08-4.08M333.262 287.351l3.12-2.88"/><path class="cls-18" d="M327.502 288.551h4.32M327.502 284.471h5.04M327.502 284.471h5.04M327.502 288.551h4.32"/><path class="cls-22" d="M274.222 288.55v-4.08h28.08v4.08h-28.08"/><path class="cls-16" d="M274.462 286.871l2.4-2.4M276.862 288.551l4.08-4.08M281.182 288.551l4.08-4.08M285.502 288.551l4.08-4.08M289.822 288.551l4.08-4.08M293.902 288.551l4.08-4.08M298.222 288.551l4.08-4.08"/><path class="cls-22" d="M274.222 284.47v4.08h28.08v-4.08h-28.08"/><path class="cls-16" d="M274.462 286.871l2.4-2.4M276.862 288.551l4.08-4.08M281.182 288.551l4.08-4.08M285.502 288.551l4.08-4.08M289.822 288.551l4.08-4.08M293.902 288.551l4.08-4.08M298.222 288.551l4.08-4.08"/><path class="cls-18" d="M274.222 288.551h28.08M274.222 284.471h28.08M274.222 284.471h28.08M274.222 288.551h28.08M274.222 288.551v-4.08"/><path class="cls-1" d="M302.302 288.551h25.2M302.302 284.471h25.2"/><path class="cls-17" d="M303.502 288.551v-4.08M326.302 288.551v-4.08"/><path class="cls-18" d="M302.302 288.551v-4.08M327.502 288.551v-4.08"/><path class="cls-16" d="M303.6 288.616c0 12.441 10.238 22.677 22.678 22.677M326.302 288.551v22.8"/><path class="cls-22" d="M336.862 210.55v4.32h85.44v-4.32h-85.44"/><path class="cls-16" d="M337.102 211.511l.96-.96M337.822 214.871l4.32-4.32M342.142 214.871l4.32-4.32M346.462 214.871l4.32-4.32M350.542 214.871l4.32-4.32M354.862 214.871l4.32-4.32M359.182 214.871l4.32-4.32M363.502 214.871l4.32-4.32M367.582 214.871l4.32-4.32M371.902 214.871l4.32-4.32M376.222 214.871l4.32-4.32M380.302 214.871l4.32-4.32M384.622 214.871l4.32-4.32M388.942 214.871l4.32-4.32M393.022 214.871l4.32-4.32M397.342 214.871l4.32-4.32M401.662 214.871l4.32-4.32M405.982 214.871l4.32-4.32M410.062 214.871l4.32-4.32M414.382 214.871l4.32-4.32M418.702 214.871l3.84-3.84"/><path class="cls-22" d="M336.862 210.55v4.32h85.44v-4.32h-85.44"/><path class="cls-16" d="M337.102 211.511l.96-.96M337.822 214.871l4.32-4.32M342.142 214.871l4.32-4.32M346.462 214.871l4.32-4.32M350.542 214.871l4.32-4.32M354.862 214.871l4.32-4.32M359.182 214.871l4.32-4.32M363.502 214.871l4.32-4.32M367.582 214.871l4.32-4.32M371.902 214.871l4.32-4.32M376.222 214.871l4.32-4.32M380.302 214.871l4.32-4.32M384.622 214.871l4.32-4.32M388.942 214.871l4.32-4.32M393.022 214.871l4.32-4.32M397.342 214.871l4.32-4.32M401.662 214.871l4.32-4.32M405.982 214.871l4.32-4.32M410.062 214.871l4.32-4.32M414.382 214.871l4.32-4.32M418.702 214.871l3.84-3.84"/><path class="cls-18" d="M422.302 210.551h-85.44M422.302 214.871h-85.44M422.302 214.871h-85.44M422.302 210.551h-85.44M422.302 214.871v-4.32"/><path class="cls-22" d="M332.542 140.71v-4.08h-27.36v4.08h27.36"/><path class="cls-16" d="M305.422 136.871l.24-.24M305.902 140.711l4.08-4.08M309.982 140.711l4.08-4.08M314.302 140.711l4.08-4.08M318.622 140.711l4.08-4.08M322.702 140.711l4.08-4.08M327.022 140.711l4.08-4.08M331.342 140.711l1.44-1.44"/><path class="cls-22" d="M332.542 140.71v-4.08h-27.36v4.08h27.36"/><path class="cls-16" d="M305.422 136.871l.24-.24M305.902 140.711l4.08-4.08M309.982 140.711l4.08-4.08M314.302 140.711l4.08-4.08M318.622 140.711l4.08-4.08M322.702 140.711l4.08-4.08M327.022 140.711l4.08-4.08M331.342 140.711l1.44-1.44"/><path class="cls-18" d="M305.182 140.711h27.36M305.182 136.631h27.36M305.182 136.631h27.36M305.182 140.711h27.36"/><path class="cls-22" d="M260.062 136.63h-27.12v4.08h27.12v-4.08"/><path class="cls-16" d="M233.182 136.871l.24-.24M233.662 140.711l4.08-4.08M237.742 140.711l4.08-4.08M242.062 140.711l4.08-4.08M246.382 140.711l4.08-4.08M250.462 140.711l4.08-4.08M254.782 140.711l4.08-4.08M259.102 140.711l1.2-1.2"/><path class="cls-22" d="M260.062 136.63h-27.12v4.08h27.12v-4.08"/><path class="cls-16" d="M233.182 136.871l.24-.24M233.662 140.711l4.08-4.08M237.742 140.711l4.08-4.08M242.062 140.711l4.08-4.08M246.382 140.711l4.08-4.08M250.462 140.711l4.08-4.08M254.782 140.711l4.08-4.08M259.102 140.711l1.2-1.2"/><path class="cls-18" d="M232.942 140.711h27.12M232.942 136.631h27.12M232.942 136.631h27.12M232.942 140.711h27.12M232.942 136.631v4.08"/><path class="cls-17" d="M261.262 140.711v-4.08M303.982 140.711v-4.08"/><path class="cls-18" d="M260.062 140.711v-4.08M305.182 140.711v-4.08"/><path class="cls-16" d="M261.365 162.05c11.662 0 21.26-9.598 21.26-21.26M282.624 140.79c0 11.662 9.598 21.26 21.26 21.26M261.262 140.711v21.36M303.982 140.711v21.36"/><path class="cls-17" d="M313.582 67.031h.72v17.04h-.72zM314.302 67.031h15.36v.48h-15.36zM314.302 83.351h15.36v.72h-15.36zM313.582 57.191h.72v1.2h-.72z"/><path class="cls-17" d="M329.662 67.031h.48v17.04h-.48zM313.582 84.071h.72v16.8h-.72zM314.302 84.071h15.36v.48h-15.36zM314.302 100.391h15.36v.48h-15.36z"/><path class="cls-17" d="M329.662 84.071h.48v16.8h-.48zM313.582 100.871h.72v17.04h-.72zM314.302 100.871h15.36v.72h-15.36zM314.302 117.431h15.36v.48h-15.36z"/><path class="cls-17" d="M329.662 100.871h.48v17.04h-.48zM313.582 117.911h.72v17.04h-.72zM314.302 117.911h15.36v.72h-15.36zM314.302 134.471h15.36v.48h-15.36z"/><path class="cls-17" d="M329.662 117.911h.48v17.04h-.48zM313.582 134.951h.72v1.2h-.72zM313.582 58.391h.72v8.64h-.72zM314.302 58.391h15.36v.72h-15.36zM314.302 66.311h15.36v.72h-15.36z"/><path class="cls-17" d="M329.662 58.391h.48v8.64h-.48z"/><path class="cls-21" d="M329.662 123.191h2.4v9.84h-2.4z"/><path class="cls-17" d="M329.662 123.191h2.4v9.84h-2.4z"/><path class="cls-21" d="M329.422 122.711h.24v10.56h-.24z"/><path class="cls-17" d="M329.422 122.711h.24v10.56h-.24z"/><path class="cls-19" d="M329.422 132.311h-8.64"/><path class="cls-3" d="M320.782 132.31l.24-1.68.48-1.68.72-1.44 1.2-1.2 1.2-1.2 1.44-.72 1.68-.48 1.68-.24"/><path class="cls-17" d="M339.262 42.55l-8.64-40.8h-96.96l-8.4 40.8"/><path class="cls-17" d="M340.942 42.55L332.062.07h-99.84l-8.64 42.48"/><path class="cls-22" d="M225.742 284.47l2.16 2.4 2.4-3.36-4.56.96"/><path class="cls-16" d="M229.582 284.711l-.96-.72M226.702 285.431l1.68-1.44M385.423 52.23a19.067 19.067 0 0 0 3.209 10.543 18.917 18.917 0 0 0 5.24 5.24 19.014 19.014 0 0 0 10.543 3.209M404.302 71.111v-18.96M385.342 52.151v1.44M385.342 55.031l-.24.96M385.102 55.991l-.24.48"/><path class="cls-10" d="M384.622 57.671l-.72 1.92"/><path class="cls-16" d="M383.662 60.311l-.48.96M383.182 61.271l-.24.24"/><path class="cls-6" d="M382.222 62.711l-1.2 1.44"/><path class="cls-16" d="M380.302 65.111l-.48.48M379.822 65.591l-.48.48"/><path class="cls-11" d="M378.382 66.791l-1.44 1.2"/><path class="cls-16" d="M375.982 68.471l-.72.48M375.262 68.951l-.48.24"/><path class="cls-15" d="M373.582 69.671l-1.68.72"/><path class="cls-16" d="M370.702 70.631l-.48.24M370.222 70.871h-.96"/><path class="cls-9" d="M368.302 71.111h-1.92"/><path class="cls-5" d="M366.382 71.111v-18.96"/><path class="cls-16" d="M366.382 52.631v-.48M381.696 372.976c0-.622.031-1.241.091-1.86a19.01 19.01 0 0 1 2.158-7.085 19.303 19.303 0 0 1 2.069-3.096 19.497 19.497 0 0 1 2.633-2.633c.482-.394.981-.763 1.497-1.109a18.909 18.909 0 0 1 3.28-1.757c.577-.24 1.16-.448 1.755-.63a19.02 19.02 0 0 1 3.648-.73c.62-.06 1.239-.092 1.86-.092M400.702 354.071v18.96M381.742 373.031l-.24-1.44M381.502 370.151l-.24-.96M381.262 369.191l-.24-.48"/><path class="cls-10" d="M380.782 367.511l-.48-1.68"/><path class="cls-16" d="M379.582 364.631l-.24-.72M379.342 363.911l-.48-.48M378.142 362.231l-.72-1.2"/><path class="cls-12" d="M377.422 361.031l-1.2-1.44"/><path class="cls-16" d="M376.222 359.591l-.96-.72M374.302 357.911l-.96-.72"/><path class="cls-20" d="M373.342 357.191l-1.68-.96"/><path class="cls-16" d="M371.662 356.231l-.96-.48M369.262 355.271l-.96-.48"/><path class="cls-8" d="M368.302 354.791l-1.92-.48"/><path class="cls-16" d="M366.382 354.311l-1.2-.24M363.742 354.071h-.96"/><path class="cls-5" d="M362.782 354.071v18.96"/><path class="cls-16" d="M362.782 372.551v.48M292.12 52.207c0 11.04 9.085 20.126 20.127 20.126M312.142 72.311v-20.16"/><path class="cls-5" d="M292.222 52.15l-.48 4.08-1.2 3.6-1.92 3.6-2.4 3.12-3.12 2.4-3.36 1.92-3.84.96-3.84.48"/><path class="cls-13" d="M272.062 72.311v-20.16"/><path class="cls-22" d="M274.222 373.03l-6.96-5.04h-29.28v5.04h36.24"/><path class="cls-16" d="M273.742 373.031l-1.44-1.44M269.662 373.031l-5.04-5.04M265.822 373.031l-5.04-5.04M261.742 373.031l-5.04-5.04M257.662 373.031l-5.04-5.04M253.822 373.031l-5.04-5.04M249.742 373.031l-5.04-5.04M245.662 373.031l-5.04-5.04M241.582 373.031l-3.36-3.6M271.582 373.031l1.2-1.2M267.502 373.031l2.88-2.88M263.662 373.031l4.56-4.56M259.582 373.031l5.04-5.04M255.502 373.031l5.04-5.04M251.662 373.031l5.04-5.04M247.582 373.031l5.04-5.04M243.502 373.031l5.04-5.04M239.662 373.031l5.04-5.04M238.222 370.391l2.4-2.4"/><path class="cls-22" d="M274.222 373.03l-6.96-5.04h-29.28v5.04h36.24"/><path class="cls-16" d="M273.742 373.031l-1.44-1.44M269.662 373.031l-5.04-5.04M265.822 373.031l-5.04-5.04M261.742 373.031l-5.04-5.04M257.662 373.031l-5.04-5.04M253.822 373.031l-5.04-5.04M249.742 373.031l-5.04-5.04M245.662 373.031l-5.04-5.04M241.582 373.031l-3.36-3.6M271.582 373.031l1.2-1.2M267.502 373.031l2.88-2.88M263.662 373.031l4.56-4.56M259.582 373.031l5.04-5.04M255.502 373.031l5.04-5.04M251.662 373.031l5.04-5.04M247.582 373.031l5.04-5.04M243.502 373.031l5.04-5.04M239.662 373.031l5.04-5.04M238.222 370.391l2.4-2.4"/><path class="cls-18" d="M237.982 373.031h36.24M237.982 367.991h29.28M237.982 367.991h29.28M237.982 373.031h36.24M237.982 367.991"/><path class="cls-17" d="M297.022 214.151v1.2M297.022 215.351l-.24 1.44M296.542 218.231l-.24.24M295.822 219.911l-.48.72M295.342 220.631l-.72 1.2M294.622 221.831l-.24.48M293.662 223.511h-.24M292.462 224.711l-.48.24M291.982 224.951l-1.2.96M290.782 225.911l-.72.48M288.862 226.871l-.24.24M287.182 227.591h-.24M286.942 227.591l-1.2.48M285.742 228.071h-1.2M283.102 228.311h-.24M281.422 228.071h-1.2M280.222 228.071l-1.44-.48M278.782 227.591h-.24M277.342 227.111l-.24-.24M275.662 226.391l-.72-.48M274.942 225.911l-.96-.96M273.982 224.951l-.48-.24M272.542 223.511h-.24M271.342 222.311l-.24-.48M271.102 221.831l-.72-1.2M270.382 220.631l-.48-.72M269.422 218.471v-.24M268.942 216.791l-.24-1.44M268.702 215.351v-1.2M268.702 212.711l.24-.24M269.182 211.031l.24-.96M269.422 210.071l.48-1.44M269.902 208.631v-.24M270.622 206.951l.24-.24M271.582 205.511l.48-.48M272.062 205.031l.72-.96M272.782 204.071l.72-.48M274.462 202.631l.24-.24M275.902 201.671h.24M276.142 201.671l1.44-.72M277.582 200.951l.96-.48M279.982 200.231h.24M281.662 199.991h1.2M282.862 199.991h1.44M284.302 199.991h.24M285.742 200.231h.48M287.422 200.711l.96.24M288.382 200.951l1.2.72M289.582 201.671l.48.24M291.262 202.631l.24.24M292.462 203.591l.48.48M292.942 204.071l.96.96M293.902 205.031l.48.72M295.102 206.951l.24.24M296.062 208.631l.48 1.44M296.542 210.071l.24 1.2M297.022 212.711v.24"/><path class="cls-16" d="M261.648 238.067h8.503"/></g><g id="Mbel"><path class="cls-2" d="M271.582 188.471h22.56v51.12h-22.56zM261.648 189.863v12.756M270.151 189.863h-8.503M261.648 202.619h8.503M261.648 207.587v12.756M270.151 207.587h-8.503M261.648 220.343h8.503M261.648 225.311v12.756M270.151 225.311h-8.503M304.167 189.863v12.756M295.663 189.863h8.504M304.167 202.619h-8.504M304.167 207.587v12.756M295.663 207.587h8.504M304.167 220.343h-8.504M304.167 225.311v12.756M295.663 225.311h8.504M304.167 238.067h-8.504M364.222 287.831h56.64v45.36h-56.64zM338.302 216.071h56.64v15.6h-56.64zM400.62 260.142a79.17 79.17 0 0 0 10.98-4.79 2.379 2.379 0 0 0 1.258-2.316 17.585 17.585 0 0 0-3.358-8.864 2.38 2.38 0 0 0-2.474-.904 79.71 79.71 0 0 0-11.4 3.684l-.072.03.01.078c.083.686.237 1.363.455 2.018a126.006 126.006 0 0 0 3.488 9.211c.27.636.604 1.246.995 1.815l.044.064.074-.026"/><path class="cls-2" d="M401.765 260.202c.29.173.614.286.95.324a8.854 8.854 0 0 0 4.467-.62 34.949 34.949 0 0 0 5.438-2.858 16.293 16.293 0 0 0 3.334-2.846 2.882 2.882 0 0 0 .71-2.309 22.1 22.1 0 0 0-3.554-9.386 2.89 2.89 0 0 0-2.062-1.26 16.243 16.243 0 0 0-4.382.077c-2.028.31-4.025.799-5.967 1.459a8.831 8.831 0 0 0-3.758 2.493 2.437 2.437 0 0 0-.497.874M392.542 152.231h28.32v56.64h-28.32zM358.702 97.991h7.44v11.28h-7.44zM338.782 80.951h19.92v45.36h-19.92zM405.262 60.071h15.6v56.64h-15.6z"/></g><g id="Text"><path d="M363.232 267.634v.576h-3.815l3.015-4.758h-2.679v-.575h3.79l-3.014 4.757h2.703zM365.072 263.492c0 .216-.176.384-.392.384s-.384-.168-.384-.392.168-.392.393-.392c.216 0 .383.176.383.4zm-.088 4.718h-.608v-3.686h.608v3.686zM366.945 264.524v.511c.28-.424.591-.6 1.047-.6.504 0 .824.217.992.672.272-.472.616-.671 1.168-.671.423 0 .743.135.935.391.176.232.224.44.224 1.024v2.359h-.608v-2.215c0-.448-.016-.552-.104-.704-.111-.192-.352-.312-.64-.312-.535 0-.83.36-.83 1.016v2.215h-.61v-2.207c0-.36-.03-.544-.118-.704-.105-.208-.329-.32-.6-.32-.536 0-.856.384-.856 1.024v2.207h-.608v-3.686h.608zM373.267 264.524v.511c.28-.424.59-.6 1.047-.6.504 0 .823.217.99.672.273-.472.617-.671 1.169-.671.424 0 .743.135.935.391.176.232.224.44.224 1.024v2.359h-.607v-2.215c0-.448-.017-.552-.105-.704-.111-.192-.351-.312-.64-.312-.535 0-.83.36-.83 1.016v2.215h-.609v-2.207c0-.36-.031-.544-.12-.704-.104-.208-.327-.32-.599-.32-.536 0-.855.384-.855 1.024v2.207h-.609v-3.686h.609zM379.364 266.563c.032.311.088.471.24.671.24.328.592.504.991.504.456 0 .888-.248 1.103-.632l.537.2c-.304.616-.936.992-1.64.992-1.095 0-1.879-.8-1.879-1.92 0-1.135.775-1.942 1.856-1.942 1.07 0 1.87.807 1.87 1.887 0 .048 0 .152-.007.24h-3.07zm2.43-.448c-.023-.288-.079-.448-.207-.632a1.268 1.268 0 0 0-1.015-.504c-.409 0-.776.193-.992.512-.112.176-.16.328-.208.624h2.422zM384.116 264.524v.623c.113-.264.193-.375.336-.487.185-.144.44-.224.704-.224h.144v.615c-.063-.007-.128-.007-.168-.007a.945.945 0 0 0-.799.423c-.16.232-.217.448-.217.872v1.87h-.607v-3.685h.607zM360.201 273.628v-.608l1.807-1.183v5.373h-.632v-4.366l-1.175.784zM364.768 274.091c.223-.08.327-.104.52-.104.887 0 1.575.696 1.575 1.6 0 .943-.776 1.718-1.72 1.718-.951 0-1.687-.751-1.687-1.718 0-.392.104-.688.408-1.176l1.527-2.454h.744l-1.367 2.134zm-.68 1.496c0 .623.472 1.119 1.071 1.119s1.08-.488 1.08-1.095c0-.6-.472-1.08-1.064-1.08-.607 0-1.087.464-1.087 1.056zM368.701 276.866a.406.406 0 0 1-.415.408.403.403 0 0 1-.416-.416c0-.24.176-.416.416-.416s.415.176.415.424zM369.632 276.01v-.496l2.751-3.71v3.63h.623v.576h-.623v1.2h-.616v-1.2h-2.135zm2.135-2.614l-1.495 2.039h1.495v-2.04zM376.232 273.524v.511c.28-.424.591-.6 1.048-.6.503 0 .823.217.99.672.273-.472.617-.671 1.169-.671.424 0 .743.135.935.391.176.232.224.44.224 1.024v2.359h-.608v-2.215c0-.448-.016-.552-.104-.704-.111-.192-.352-.312-.64-.312-.535 0-.83.36-.83 1.016v2.215h-.61v-2.207c0-.36-.03-.544-.118-.704-.105-.208-.328-.32-.6-.32-.536 0-.856.384-.856 1.024v2.207h-.608v-3.686h.608zM383.823 274.707v.408h-1.95l1.183-1.615c.336-.456.407-.592.407-.768 0-.256-.216-.44-.527-.44-.352 0-.496.176-.504.592h-.44c.024-.648.36-.991.976-.991.56 0 .951.335.951.807 0 .272-.103.52-.384.88l-.847 1.127h1.135z"/><g><path d="M363.232 148.027v.576h-3.815l3.015-4.758h-2.679v-.575h3.79l-3.014 4.757h2.703zM365.072 143.885c0 .216-.176.384-.392.384s-.384-.168-.384-.392.168-.391.393-.391c.216 0 .383.175.383.4zm-.088 4.718h-.608v-3.686h.608v3.686zM366.945 144.917v.511c.28-.423.591-.6 1.047-.6.504 0 .824.217.992.672.272-.472.616-.671 1.168-.671.423 0 .743.135.935.391.176.232.224.44.224 1.024v2.359h-.608v-2.215c0-.448-.016-.552-.104-.704-.111-.192-.352-.312-.64-.312-.535 0-.83.36-.83 1.016v2.215h-.61v-2.207c0-.36-.03-.544-.118-.703-.105-.208-.329-.32-.6-.32-.536 0-.856.383-.856 1.023v2.207h-.608v-3.686h.608zM373.267 144.917v.511c.28-.423.59-.6 1.047-.6.504 0 .823.217.99.672.273-.472.617-.671 1.169-.671.424 0 .743.135.935.391.176.232.224.44.224 1.024v2.359h-.607v-2.215c0-.448-.017-.552-.105-.704-.111-.192-.351-.312-.64-.312-.535 0-.83.36-.83 1.016v2.215h-.609v-2.207c0-.36-.031-.544-.12-.703-.104-.208-.327-.32-.599-.32-.536 0-.855.383-.855 1.023v2.207h-.609v-3.686h.609zM379.364 146.956c.032.311.088.471.24.671.24.328.592.504.991.504.456 0 .888-.248 1.103-.632l.537.2c-.304.616-.936.992-1.64.992-1.095 0-1.879-.8-1.879-1.92 0-1.135.775-1.942 1.856-1.942 1.07 0 1.87.807 1.87 1.887 0 .048 0 .152-.007.24h-3.07zm2.43-.448c-.023-.288-.079-.448-.207-.632a1.268 1.268 0 0 0-1.015-.504c-.409 0-.776.193-.992.512-.112.176-.16.328-.208.624h2.422zM384.116 144.917v.623c.113-.263.193-.375.336-.487.185-.144.44-.224.704-.224h.144v.615c-.063-.007-.128-.007-.168-.007a.945.945 0 0 0-.799.423c-.16.232-.217.448-.217.872v1.87h-.607v-3.685h.607zM360.201 154.02v-.607l1.807-1.183v5.373h-.632v-4.366l-1.175.784zM364.768 154.485c.223-.08.327-.104.52-.104.887 0 1.575.695 1.575 1.599 0 .943-.776 1.718-1.72 1.718-.951 0-1.687-.751-1.687-1.718 0-.392.104-.688.408-1.176l1.527-2.454h.744l-1.367 2.135zm-.68 1.495c0 .623.472 1.119 1.071 1.119s1.08-.488 1.08-1.095c0-.6-.472-1.08-1.064-1.08-.607 0-1.087.464-1.087 1.056zM368.701 157.259a.406.406 0 0 1-.415.408.403.403 0 0 1-.416-.416c0-.24.176-.416.416-.416s.415.176.415.424zM369.632 156.403v-.496l2.751-3.71v3.63h.623v.576h-.623v1.2h-.616v-1.2h-2.135zm2.135-2.614l-1.495 2.039h1.495v-2.04zM376.232 153.917v.511c.28-.423.591-.6 1.048-.6.503 0 .823.217.99.672.273-.472.617-.671 1.169-.671.424 0 .743.135.935.391.176.232.224.44.224 1.024v2.359h-.608v-2.215c0-.448-.016-.552-.104-.704-.111-.192-.352-.312-.64-.312-.535 0-.83.36-.83 1.016v2.215h-.61v-2.207c0-.36-.03-.544-.118-.703-.105-.208-.328-.32-.6-.32-.536 0-.856.383-.856 1.023v2.207h-.608v-3.686h.608zM383.823 155.1v.408h-1.95l1.183-1.615c.336-.456.407-.592.407-.768 0-.256-.216-.44-.527-.44-.352 0-.496.176-.504.592h-.44c.024-.647.36-.991.976-.991.56 0 .951.335.951.807 0 .272-.103.52-.384.88l-.847 1.127h1.135z"/></g><g><path d="M271.444 92.923h-.671V87.59h.67v2.455l2.072-2.455h.807l-2.222 2.64 2.222 2.693h-.855l-2.023-2.462v2.462zM278.461 91.092c0 1.08-.83 1.92-1.887 1.92-1.095 0-1.863-.8-1.863-1.936 0-1.143.768-1.926 1.888-1.926 1.087 0 1.862.807 1.862 1.942zm-3.126-.007c0 .815.504 1.367 1.255 1.367.728 0 1.248-.568 1.248-1.367 0-.824-.496-1.376-1.24-1.376-.759 0-1.263.552-1.263 1.376zM282.474 92.468c-.416.375-.824.543-1.36.543-1.055 0-1.807-.799-1.807-1.919 0-1.143.76-1.942 1.839-1.942.528 0 .96.175 1.343.551l-.391.392c-.28-.256-.592-.384-.936-.384-.727 0-1.231.56-1.231 1.36 0 .815.504 1.383 1.224 1.383.359 0 .647-.12.943-.4l.376.416zM284.015 89.75c.336-.416.672-.6 1.112-.6.32 0 .655.127.856.336.199.2.287.487.287.959v2.478h-.608v-2.446c0-.504-.248-.784-.687-.784a.94.94 0 0 0-.72.328c-.183.208-.24.392-.24.744v2.158h-.608V87.59h.608v2.16zM288 91.277c.03.311.087.471.239.67.24.329.591.505.99.505.457 0 .888-.248 1.104-.632l.536.2c-.303.615-.935.991-1.64.991-1.094 0-1.878-.799-1.878-1.919 0-1.135.775-1.942 1.855-1.942 1.072 0 1.871.807 1.871 1.887 0 .048 0 .152-.007.24H288zm2.429-.448c-.023-.288-.08-.448-.207-.632a1.268 1.268 0 0 0-1.016-.504c-.408 0-.775.192-.99.512-.113.176-.161.328-.209.624h2.422zM292.751 89.237v.52c.32-.432.64-.607 1.096-.607.336 0 .64.111.855.303.233.224.313.48.313.984v2.486h-.609v-2.35c0-.328-.04-.504-.135-.632-.112-.152-.328-.248-.575-.248a.916.916 0 0 0-.705.312c-.175.192-.24.368-.24.672v2.246h-.607v-3.686h.607zM270.996 98.341v-.607l1.807-1.184v5.374h-.632v-4.366l-1.175.783zM277.672 100.317c0 .6-.112.967-.376 1.247-.28.296-.703.447-1.207.447-.52 0-.951-.16-1.231-.463-.28-.296-.352-.6-.352-1.408v-1.759c0-.695.08-1.023.32-1.311.263-.32.704-.496 1.247-.496.488 0 .887.137 1.183.4.304.28.416.6.416 1.223v2.12zm-2.534-.137c0 .616.023.728.2.928.167.192.455.312.759.312.328 0 .632-.136.783-.352.12-.176.168-.4.168-.791v-2.04c0-.415-.071-.623-.271-.815a1 1 0 0 0-.68-.248c-.344 0-.64.136-.791.384-.137.192-.168.376-.168.84v1.782zM279.644 101.58a.406.406 0 0 1-.415.407.403.403 0 0 1-.416-.415c0-.24.176-.416.416-.416.239 0 .415.176.415.424zM283.946 100.317c0 .6-.113.967-.376 1.247-.28.296-.704.447-1.207.447-.52 0-.952-.16-1.232-.463-.28-.296-.351-.6-.351-1.408v-1.759c0-.695.08-1.023.319-1.311.264-.32.704-.496 1.248-.496.487 0 .887.137 1.183.4.303.28.416.6.416 1.223v2.12zm-2.535-.137c0 .616.024.728.2.928.168.192.456.312.76.312.327 0 .631-.136.783-.352.12-.176.168-.4.168-.791v-2.04c0-.415-.072-.623-.272-.815a1 1 0 0 0-.68-.248c-.343 0-.64.136-.79.384-.137.192-.169.376-.169.84v1.782zM288.14 98.237v.512c.28-.424.59-.6 1.047-.6.504 0 .823.216.991.672.272-.472.616-.671 1.168-.671.424 0 .743.135.935.391.176.232.224.44.224 1.024v2.358h-.607V99.71c0-.448-.017-.552-.105-.704-.111-.192-.351-.312-.64-.312-.535 0-.83.36-.83 1.016v2.214h-.609v-2.207c0-.359-.031-.543-.119-.703-.105-.208-.328-.32-.6-.32-.536 0-.855.384-.855 1.023v2.207h-.609v-3.686h.609zM295.73 99.421v.408h-1.95l1.183-1.615c.336-.456.407-.592.407-.768 0-.256-.215-.44-.527-.44-.352 0-.496.176-.504.592h-.44c.024-.648.36-.991.976-.991.56 0 .951.335.951.807 0 .272-.103.52-.383.88l-.848 1.127h1.136z"/></g><g><path d="M238.274 13.978c1.087 0 1.703.511 1.703 1.415 0 .343-.105.648-.304.871-.128.152-.256.232-.544.344.296.064.44.12.608.248.288.232.439.592.439 1.024 0 .495-.216.927-.575 1.159-.312.2-.655.272-1.327.272h-1.503v-5.333h1.503zm-.832 2.398l.68-.008c.423 0 .679-.056.871-.208a.937.937 0 0 0 .328-.735c0-.344-.168-.648-.424-.768-.192-.096-.415-.128-.904-.128h-.551v1.847zm0 2.39h.672c.56 0 .775-.039 1.007-.175.256-.144.384-.4.384-.751 0-.64-.376-.92-1.224-.92h-.84v1.847zM244.163 15.625h.609v3.686h-.609v-.712c-.367.552-.783.8-1.342.8-1.016 0-1.736-.8-1.736-1.92 0-1.127.737-1.942 1.751-1.942.56 0 .968.216 1.327.696v-.608zm-2.134.895a1.686 1.686 0 0 0-.304.976c0 .783.512 1.375 1.183 1.375.696 0 1.264-.648 1.264-1.44 0-.799-.512-1.35-1.248-1.35-.4 0-.679.135-.895.44zM246.13 19.31v-5.332h.608v5.333h-.608zM248.697 19.31h-.609v-5.332h.609v3.262l1.47-1.615h.768l-1.648 1.799 1.64 1.887h-.76l-1.47-1.647v1.647zM255.124 17.48c0 1.08-.83 1.919-1.886 1.919-1.096 0-1.864-.8-1.864-1.935 0-1.144.768-1.927 1.888-1.927 1.087 0 1.862.807 1.862 1.943zm-3.126-.008c0 .815.504 1.367 1.255 1.367.728 0 1.248-.568 1.248-1.367 0-.824-.496-1.376-1.24-1.376-.759 0-1.263.552-1.263 1.376zM256.837 15.625v.52c.32-.432.64-.608 1.096-.608.336 0 .64.112.855.303.233.225.313.48.313.984v2.487h-.609v-2.35c0-.329-.04-.505-.135-.633-.112-.152-.328-.248-.576-.248a.916.916 0 0 0-.704.312c-.175.192-.24.368-.24.672v2.247h-.607v-3.686h.607zM239.065 23.585h-1.72v1.432c.272-.104.513-.153.784-.153.936 0 1.64.736 1.64 1.736 0 1.023-.752 1.767-1.8 1.767-.751 0-1.318-.392-1.59-1.096l.575-.216c.128.232.184.328.272.408.168.168.464.272.76.272.64 0 1.127-.496 1.127-1.151 0-.68-.48-1.136-1.183-1.136-.416 0-.84.192-1.184.544v-3.014h2.319v.607zM241.63 27.967a.406.406 0 0 1-.416.408.403.403 0 0 1-.416-.416c0-.24.176-.416.416-.416s.415.176.415.424zM245.93 26.704c0 .6-.111.967-.375 1.247-.28.296-.703.448-1.207.448-.52 0-.951-.16-1.232-.464-.28-.296-.351-.6-.351-1.408V24.77c0-.696.08-1.024.32-1.312.263-.32.703-.495 1.246-.495.489 0 .888.136 1.184.4.304.28.416.6.416 1.223v2.119zm-2.533-.136c0 .615.023.727.199.927.168.192.456.312.76.312.328 0 .632-.136.783-.352.12-.176.168-.4.168-.791v-2.04c0-.415-.071-.623-.272-.815a1 1 0 0 0-.68-.248c-.343 0-.639.136-.791.384-.136.192-.167.376-.167.84v1.783zM250.124 24.625v.511c.28-.423.592-.6 1.048-.6.504 0 .823.217.991.672.273-.472.617-.671 1.168-.671.424 0 .743.136.936.391.176.232.223.44.223 1.024v2.359h-.607v-2.215c0-.448-.017-.552-.104-.704-.112-.192-.352-.312-.64-.312-.535 0-.831.36-.831 1.016v2.215h-.609v-2.207c0-.36-.03-.544-.119-.703-.104-.208-.328-.32-.6-.32-.535 0-.856.383-.856 1.023v2.207h-.607v-3.686h.607zM257.716 25.808v.408h-1.951l1.183-1.615c.336-.456.408-.592.408-.768 0-.256-.216-.44-.528-.44-.351 0-.496.176-.504.592h-.439c.023-.647.36-.991.976-.991.56 0 .95.335.95.807 0 .272-.103.52-.383.88l-.848 1.127h1.136z"/></g><g><path d="M305.66 319.517c1.087 0 1.703.512 1.703 1.415 0 .344-.104.649-.303.872-.128.152-.256.232-.544.344.296.064.44.12.607.248.288.232.44.592.44 1.024 0 .495-.216.926-.575 1.159-.312.2-.656.271-1.328.271h-1.503v-5.333h1.503zm-.832 2.399l.68-.008c.424 0 .68-.056.872-.208a.937.937 0 0 0 .327-.735c0-.344-.168-.648-.424-.768-.191-.096-.415-.128-.903-.128h-.552v1.847zm0 2.39h.672c.56 0 .776-.039 1.008-.175.256-.144.384-.4.384-.751 0-.64-.376-.92-1.224-.92h-.84v1.846zM311.551 321.165h.607v3.685h-.607v-.71c-.368.55-.784.798-1.344.798-1.015 0-1.735-.799-1.735-1.919 0-1.127.736-1.942 1.75-1.942.561 0 .969.216 1.329.695v-.607zm-2.136.895a1.684 1.684 0 0 0-.303.976c0 .783.511 1.375 1.183 1.375.695 0 1.264-.648 1.264-1.44 0-.8-.512-1.351-1.248-1.351-.4 0-.68.137-.896.44zM316.33 319.517h.608v5.333h-.608v-.632c-.368.504-.76.72-1.319.72-1.016 0-1.735-.79-1.735-1.911 0-1.12.736-1.95 1.735-1.95.544 0 .96.199 1.32.647v-2.207zm-2.415 3.519c0 .807.489 1.375 1.184 1.375.712 0 1.231-.592 1.231-1.392 0-.83-.488-1.4-1.191-1.4-.728 0-1.224.577-1.224 1.417zM303.805 332.651v-.496l2.75-3.71v3.63h.624v.576h-.623v1.2h-.616v-1.2h-2.135zm2.135-2.614l-1.495 2.039h1.495v-2.04zM308.988 333.507a.406.406 0 0 1-.416.408c-.24 0-.416-.176-.416-.416s.176-.416.416-.416.416.175.416.423zM310.21 329.19v-.593h2.958l-2.11 5.253h-.689l1.888-4.66h-2.047zM317.313 330.165v.511c.279-.423.59-.6 1.047-.6.504 0 .823.217.99.672.273-.472.617-.671 1.169-.671.424 0 .743.136.935.391.176.232.224.44.224 1.024v2.358h-.607v-2.215c0-.447-.017-.551-.105-.703-.111-.192-.352-.312-.64-.312-.535 0-.83.36-.83 1.015v2.215h-.609v-2.207c0-.36-.031-.543-.12-.703-.104-.208-.327-.32-.599-.32-.536 0-.855.384-.855 1.023v2.207h-.609v-3.685h.609zM324.904 331.348v.408h-1.952l1.184-1.616c.336-.455.407-.592.407-.767 0-.256-.216-.44-.527-.44-.352 0-.496.176-.504.592h-.44c.024-.647.36-.991.976-.991.56 0 .951.335.951.806 0 .273-.103.521-.384.88l-.847 1.128h1.136z"/></g><g><path d="M271.447 252.515h2.103v.576h-2.103v1.823h2.103v.576h-2.774v-5.333h2.774v.576h-2.103v1.782zM276.475 252.811v-.04c0-.344-.28-.56-.703-.56-.408 0-.664.209-.664.528s.16.44.823.624c.473.128.72.248.895.424.185.184.296.448.296.72 0 .64-.527 1.07-1.31 1.07-.84 0-1.312-.39-1.376-1.134h.6c.04.415.312.64.776.64.415 0 .687-.217.687-.545 0-.32-.208-.48-.84-.64-.8-.215-1.159-.55-1.159-1.11 0-.64.52-1.072 1.295-1.072.784 0 1.256.4 1.287 1.095h-.607zM280.019 252.811v-.04c0-.344-.28-.56-.703-.56-.409 0-.664.209-.664.528s.16.44.823.624c.472.128.72.248.895.424.185.184.296.448.296.72 0 .64-.527 1.07-1.31 1.07-.84 0-1.312-.39-1.376-1.134h.6c.04.415.312.64.776.64.415 0 .687-.217.687-.545 0-.32-.208-.48-.84-.64-.8-.215-1.159-.55-1.159-1.11 0-.64.52-1.072 1.295-1.072.784 0 1.256.4 1.287 1.095h-.607zM282.161 253.843c.032.311.088.472.24.671.24.328.591.504.99.504.457 0 .889-.248 1.104-.632l.536.2c-.303.616-.935.992-1.64.992-1.094 0-1.878-.8-1.878-1.92 0-1.134.775-1.942 1.855-1.942 1.072 0 1.871.808 1.871 1.887 0 .048 0 .152-.007.24h-3.07zm2.43-.448c-.023-.288-.08-.448-.207-.632a1.268 1.268 0 0 0-1.016-.504c-.408 0-.775.193-.99.512-.113.176-.161.328-.209.624h2.422zM286.913 251.804v.52c.32-.432.64-.608 1.096-.608.336 0 .64.112.855.304.233.224.313.48.313.983v2.487h-.608v-2.35c0-.329-.04-.505-.136-.633-.111-.151-.328-.248-.575-.248a.916.916 0 0 0-.704.312c-.176.192-.24.368-.24.672v2.247h-.608v-3.686h.607zM271.064 260.908v-.608l1.806-1.183v5.373h-.632v-4.366l-1.174.784zM274.462 259.828v-.591h2.958l-2.11 5.253h-.688l1.887-4.662h-2.047zM278.597 264.146a.406.406 0 0 1-.415.408.403.403 0 0 1-.416-.416c0-.24.176-.416.416-.416s.415.176.415.424zM282.326 259.764h-1.718v1.432c.271-.104.511-.152.783-.152.935 0 1.64.735 1.64 1.735 0 1.023-.752 1.767-1.8 1.767-.751 0-1.319-.392-1.591-1.096l.576-.215c.128.231.184.327.272.407.167.168.463.272.76.272.639 0 1.126-.495 1.126-1.151 0-.68-.48-1.135-1.182-1.135-.416 0-.84.191-1.184.543v-3.014h2.318v.607zM287.144 260.804v.512c.28-.424.59-.6 1.047-.6.504 0 .823.216.99.671.273-.471.617-.671 1.169-.671.424 0 .743.136.935.392.176.232.224.44.224 1.023v2.359h-.607v-2.215c0-.448-.017-.552-.105-.704-.111-.191-.351-.312-.64-.312-.535 0-.83.36-.83 1.016v2.215h-.609v-2.207c0-.36-.031-.544-.12-.703-.104-.208-.327-.32-.599-.32-.536 0-.855.383-.855 1.023v2.207h-.609v-3.686h.609zM294.735 261.987v.408h-1.952l1.184-1.615c.336-.456.407-.592.407-.768 0-.256-.216-.44-.527-.44-.352 0-.496.177-.504.592h-.44c.024-.647.36-.991.976-.991.56 0 .951.335.951.807 0 .272-.103.52-.383.88l-.848 1.127h1.136z"/></g><g><path d="M32.942 352.928v.608h-2.55v-5.333h.671v4.725h1.88zM34.59 348.819c0 .216-.176.384-.392.384s-.384-.168-.384-.393c0-.223.168-.391.393-.391.216 0 .384.175.384.4zm-.087 4.717h-.609v-3.686h.609v3.686zM36.554 353.536h-.607v-3.15h-.504v-.536h.504v-.496c0-.727.376-1.159 1.016-1.159.03 0 .103 0 .167.008v.544c-.44.048-.56.176-.576.607v.496h.576v.535h-.576v3.15zM38.938 352.785c.009.183.057.223.28.223h.28v.528h-.568c-.431-.008-.6-.168-.6-.575v-2.576h-.51v-.535h.51v-1.159h.608v1.16h.56v.534h-.56v2.4z"/></g></g></svg>