<svg xmlns="http://www.w3.org/2000/svg" viewBox="0 0 429.81262 389.25258"><defs><style>.cls-1,.cls-2{stroke:#646464}.cls-1,.cls-10,.cls-11,.cls-12,.cls-13,.cls-14,.cls-2,.cls-3,.cls-4,.cls-5,.cls-6,.cls-7,.cls-8,.cls-9{fill:none}.cls-1,.cls-10,.cls-11,.cls-12,.cls-14,.cls-2,.cls-3,.cls-4,.cls-6,.cls-7,.cls-8,.cls-9{stroke-width:.14173px}.cls-1,.cls-10,.cls-11,.cls-12,.cls-13,.cls-14,.cls-4,.cls-5,.cls-6,.cls-7,.cls-8,.cls-9{stroke-linecap:round;stroke-linejoin:round}.cls-2,.cls-3{stroke-miterlimit:10}.cls-13,.cls-3{stroke:#194164}.cls-15,.cls-16{fill:#fff}.cls-10,.cls-11,.cls-12,.cls-14,.cls-4,.cls-6,.cls-7,.cls-8,.cls-9{stroke:#969696}.cls-10,.cls-11,.cls-14,.cls-4,.cls-6,.cls-7,.cls-8,.cls-9{stroke-dasharray:0 0 1.44 1.44}.cls-5{stroke:#000;stroke-width:.288px}.cls-6{stroke-dashoffset:1.07331px}.cls-7{stroke-dashoffset:2.42954px}.cls-8{stroke-dashoffset:2.66376px}.cls-9{stroke-dashoffset:1.39943px}.cls-10{stroke-dashoffset:.72px}.cls-16,.cls-17{fill-rule:evenodd}.cls-11{stroke-dashoffset:2.30533px}.cls-13{stroke-width:.28346px}.cls-14{stroke-dashoffset:1.2px}</style></defs><g id="Plan"><path class="cls-17" d="M240.142 10.462h-5.76v5.76h39.84v-9.6h-30.24l-3.36 3.36h-.48v.48"/><path class="cls-16" d="M274.222 6.622h-30.24l-3.36 3.36h33.6v-3.36"/><path class="cls-12" d="M242.062 8.542l1.44 1.44M244.222 6.622l3.36 3.36M248.302 6.622l3.36 3.36M252.142 6.622l3.36 3.36M256.222 6.622l3.36 3.36M260.302 6.622l3.36 3.36M264.382 6.622l3.36 3.36M268.222 6.622l3.36 3.36M272.302 6.622l2.16 2.16"/><path class="cls-16" d="M274.222 9.982h-34.08v.48h34.08v-.48M274.222 10.462h-39.84v5.76h39.84v-5.76"/><path class="cls-12" d="M273.742 16.222v-5.76M272.302 16.222v-5.76M270.862 16.222v-5.76M269.422 16.222v-5.76M267.982 16.222v-5.76M266.542 16.222v-5.76M265.342 16.222v-5.76M263.902 16.222v-5.76M262.462 16.222v-5.76M261.022 16.222v-5.76M259.582 16.222v-5.76M258.142 16.222v-5.76M256.702 16.222v-5.76M255.262 16.222v-5.76M253.822 16.222v-5.76M252.382 16.222v-5.76M251.182 16.222v-5.76M249.742 16.222v-5.76M248.302 16.222v-5.76M246.862 16.222v-5.76M245.422 16.222v-5.76M243.982 16.222v-5.76M242.542 16.222v-5.76M241.102 16.222v-5.76M239.662 16.222v-5.76M238.222 16.222v-5.76M236.782 16.222v-5.76M235.582 16.222v-5.76"/><path class="cls-13" d="M240.622 9.982h33.6M243.982 6.622h30.24"/><path class="cls-12" d="M234.382 16.222h39.84M240.142 10.462h34.08"/><path class="cls-3" d="M243.982 6.622h30.24M234.382 16.222h39.84"/><path class="cls-12" d="M234.382 10.462h5.76M234.382 10.462v5.76"/><path class="cls-3" d="M229.342 16.222h5.04"/><path class="cls-17" d="M240.622 9.982l3.36-3.36V.142h-14.64v16.08h5.04v-5.76h5.76v-.48h.48"/><path class="cls-16" d="M240.622 9.982l3.36-3.36V.142h-3.36v9.84"/><path class="cls-12" d="M240.862 7.102l1.2 1.44M240.862 3.022l3.36 3.36M241.822.142l2.4 2.4"/><path class="cls-16" d="M240.142 9.982h.48V.142h-.48v9.84M234.382 10.462h5.76V.142h-5.76v10.32"/><path class="cls-12" d="M234.622 9.262h5.76M234.622 7.822h5.76M234.622 6.382h5.76M234.622 4.942h5.76M234.622 3.502h5.76M234.622 2.062h5.76M234.622.622h5.76"/><path class="cls-16" d="M234.382.142h-5.04v16.08h5.04V.142"/><path class="cls-12" d="M229.582 15.982l.24.24M229.582 11.902l4.32 4.32M229.582 7.822l5.04 5.04M229.582 3.982l5.04 5.04M229.822.142l4.8 4.8M233.662.142l.96.72"/><path class="cls-13" d="M240.622.142v9.84M243.982.142v6.48"/><path class="cls-12" d="M234.382.142v10.32M240.142.142v9.84"/><path class="cls-13" d="M229.342.142v16.08M234.382.142v10.32"/><path class="cls-3" d="M243.982.142v6.48M229.342.142v16.08"/><path class="cls-12" d="M240.142 9.982v.48M240.142 10.462h-5.76"/><path class="cls-13" d="M234.382 10.462v5.76M234.382 16.222h-5.04M15.022 24.142h39.6v29.76h-39.6z"/><path class="cls-3" d="M63.742 55.582v-35.28M60.622 37.342v13.92M57.742 24.622v13.92"/><path class="cls-16" d="M62.302 21.022h5.52l-5.52-6.72v6.72"/><path class="cls-12" d="M66.142 21.022l-3.6-3.84M66.862 21.022l.48-.48M62.782 21.022l2.88-2.88M62.542 17.422l1.2-1.44"/><path class="cls-16" d="M62.302 21.022h5.52l-5.52-6.72v6.72"/><path class="cls-12" d="M66.142 21.022l-3.6-3.84M66.862 21.022l.48-.48M62.782 21.022l2.88-2.88M62.542 17.422l1.2-1.44"/><path class="cls-13" d="M62.302 14.302v6.72M62.302 14.302v6.72"/><path class="cls-3" d="M63.742 24.142v29.52M68.062 24.142v29.52M68.062 53.182v.48"/><path class="cls-16" d="M68.062 21.022v3.12h-4.32v-3.12"/><path class="cls-12" d="M68.302 22.942l-2.16-1.92M65.422 24.142l-1.44-1.44M67.822 24.142l.48-.48M63.982 23.902l2.88-2.88"/><path class="cls-16" d="M68.062 56.782v-3.12h-4.32v3.12"/><path class="cls-12" d="M68.302 55.102l-1.44-1.44M65.902 56.782l-1.92-1.92M67.102 56.782l1.2-.96M63.982 56.062l2.4-2.4"/><path class="cls-13" d="M68.062 24.142h-4.32M68.062 53.662h-4.32M68.062 24.142h-4.32M68.062 21.022v3.12M68.062 53.662h-4.32M68.062 56.782v-3.12M62.302 21.022h1.44M62.302 56.782h1.44M68.062 21.022v3.12M68.062 56.782v-3.12M63.742 24.142v-3.12M63.742 53.662v3.12"/><path class="cls-16" d="M61.102 105.022l6.96-7.2v-41.04l-6.96 6.96v41.28"/><path class="cls-12" d="M68.302 59.182l-1.2-1.2M68.302 63.022l-3.36-3.12M68.302 67.102l-5.28-5.28M68.302 71.182l-6.96-6.96M68.302 75.022l-6.96-6.96M68.302 79.102l-6.96-6.96M68.302 83.182l-6.96-6.96M68.302 87.022l-6.96-6.96M68.302 91.102l-6.96-6.96M68.302 95.182l-6.96-6.96M67.582 98.542l-6.24-6.24M65.662 100.462l-4.32-4.32M63.502 102.622l-2.16-2.4M61.582 104.542l-.24-.24M61.342 102.862l6.96-6.96M61.342 98.782l6.96-6.96M61.342 94.702l6.96-6.96M61.342 90.862l6.96-6.96M61.342 86.782l6.96-6.96M61.342 82.702l6.96-6.96M61.342 78.862l6.96-6.96M61.342 74.782l6.96-6.96M61.342 70.702l6.96-6.96M61.342 66.862l6.96-6.96"/><path class="cls-16" d="M61.102 105.022l6.96-7.2v-41.04l-6.96 6.96v41.28"/><path class="cls-12" d="M68.302 59.182l-1.2-1.2M68.302 63.022l-3.36-3.12M68.302 67.102l-5.28-5.28M68.302 71.182l-6.96-6.96M68.302 75.022l-6.96-6.96M68.302 79.102l-6.96-6.96M68.302 83.182l-6.96-6.96M68.302 87.022l-6.96-6.96M68.302 91.102l-6.96-6.96M68.302 95.182l-6.96-6.96M67.582 98.542l-6.24-6.24M65.662 100.462l-4.32-4.32M63.502 102.622l-2.16-2.4M61.582 104.542l-.24-.24M61.342 102.862l6.96-6.96M61.342 98.782l6.96-6.96M61.342 94.702l6.96-6.96M61.342 90.862l6.96-6.96M61.342 86.782l6.96-6.96M61.342 82.702l6.96-6.96M61.342 78.862l6.96-6.96M61.342 74.782l6.96-6.96M61.342 70.702l6.96-6.96M61.342 66.862l6.96-6.96"/><path class="cls-13" d="M61.102 63.742v41.28M68.062 56.782v41.04M68.062 56.782v41.04M61.102 63.742v41.28"/><path class="cls-16" d="M298.255 70.757c.86 1.296.86 2.98 0 4.276a7.922 7.922 0 0 1-6.199 2.894l-9.031-.254v-9.556l9.031-.254a7.921 7.921 0 0 1 6.2 2.894"/><path class="cls-3" d="M298.255 70.757c.86 1.296.86 2.98 0 4.276a7.922 7.922 0 0 1-6.199 2.894l-9.031-.254v-9.556l9.031-.254a7.921 7.921 0 0 1 6.2 2.894"/><path class="cls-16" d="M288.14 72.895a3.817 3.817 0 0 1 1.058-2.782 3.827 3.827 0 0 1 2.729-1.185 6.854 6.854 0 0 1 5.412 2.499 2.73 2.73 0 0 1 0 2.936 6.853 6.853 0 0 1-5.412 2.5 3.828 3.828 0 0 1-2.73-1.185 3.818 3.818 0 0 1-1.058-2.783"/><path class="cls-3" d="M288.14 72.895a3.817 3.817 0 0 1 1.058-2.782 3.827 3.827 0 0 1 2.729-1.185 6.854 6.854 0 0 1 5.412 2.499 2.73 2.73 0 0 1 0 2.936 6.853 6.853 0 0 1-5.412 2.5 3.828 3.828 0 0 1-2.73-1.185 3.818 3.818 0 0 1-1.058-2.783"/><path class="cls-16" d="M283.452 21.588H331.4l.041.008.04.008.04.017.038.015.036.024.033.023.031.03.03.03.023.034.022.035.017.038.017.04.007.04.007.041V42.465l-.007.04-.007.042-.017.038-.017.04-.022.034-.024.035-.029.03-.03.029-.034.023-.036.024-.039.016-.038.015-.04.009-.042.008h-47.99l-.04-.008-.042-.009-.038-.015-.038-.016-.036-.024-.034-.023-.031-.03-.03-.03-.023-.034-.022-.035-.016-.039-.017-.038-.007-.041-.01-.041V21.97l.01-.04.007-.042.017-.039.016-.038.022-.035.024-.035.029-.03.03-.03.035-.022.036-.024.038-.015.038-.017.041-.008.04-.008h.044"/><path class="cls-3" d="M283.452 21.588H331.4l.041.008.04.008.04.017.038.015.036.024.033.023.031.03.03.03.023.034.022.035.017.038.017.04.007.04.007.041V42.465l-.007.04-.007.042-.017.038-.017.04-.022.034-.024.035-.029.03-.03.029-.034.023-.036.024-.039.016-.038.015-.04.009-.042.008h-47.99l-.04-.008-.042-.009-.038-.015-.038-.016-.036-.024-.034-.023-.031-.03-.03-.03-.023-.034-.022-.035-.016-.039-.017-.038-.007-.041-.01-.041V21.97l.01-.04.007-.042.017-.039.016-.038.022-.035.024-.035.029-.03.03-.03.035-.022.036-.024.038-.015.038-.017.041-.008.04-.008h.044"/><path class="cls-16" d="M288.696 23.716h37.416a3.407 3.407 0 0 1 2.405.996c.317.316.566.691.74 1.104.17.413.258.855.258 1.301v10.201c0 .447-.088.89-.259 1.302a3.423 3.423 0 0 1-1.84 1.841 3.407 3.407 0 0 1-1.304.259h-37.416a3.407 3.407 0 0 1-3.144-2.1 3.413 3.413 0 0 1-.26-1.302v-10.2a3.413 3.413 0 0 1 .997-2.406 3.411 3.411 0 0 1 2.407-.996"/><path class="cls-3" d="M288.696 23.716h37.416a3.407 3.407 0 0 1 2.405.996c.317.316.566.691.74 1.104.17.413.258.855.258 1.301v10.201c0 .447-.088.89-.259 1.302a3.423 3.423 0 0 1-1.84 1.841 3.407 3.407 0 0 1-1.304.259h-37.416a3.407 3.407 0 0 1-3.144-2.1 3.413 3.413 0 0 1-.26-1.302v-10.2a3.413 3.413 0 0 1 .997-2.406 3.411 3.411 0 0 1 2.407-.996M282.382 100.702v-36.24"/><path class="cls-5" d="M283.102 100.702v-36.96"/><path class="cls-3" d="M280.942 100.702v-34.8M282.382 100.702v-36.24M283.102 100.702v-36.96M280.942 100.702v-34.8M278.542 64.462v-18.48"/><path class="cls-5" d="M279.262 63.742v-17.04"/><path class="cls-3" d="M277.102 65.902v-21.36M278.542 64.462v-18.48M279.262 63.742v-17.04M277.102 65.902v-21.36M282.382 45.982v-24.72"/><path class="cls-5" d="M283.102 46.702v-25.44"/><path class="cls-3" d="M280.942 44.542v-23.28M282.382 45.982v-24.72M283.102 46.702v-25.44M280.942 44.542v-23.28"/><path class="cls-16" d="M283.025 47.424h12.048a1.136 1.136 0 0 1 1.135 1.134V61.88c0 .148-.031.296-.086.433a1.144 1.144 0 0 1-1.05.7h-12.047v-15.59"/><path class="cls-3" d="M283.025 47.424h12.048a1.136 1.136 0 0 1 1.135 1.134V61.88c0 .148-.031.296-.086.433a1.144 1.144 0 0 1-1.05.7h-12.047v-15.59M283.102 63.742h-3.84M279.262 63.742v-17.04M279.262 46.702h3.84M278.542 45.982h3.84"/><path class="cls-5" d="M279.262 46.702h3.84"/><path class="cls-3" d="M277.102 44.542h3.84M278.542 45.982h3.84M279.262 46.702h3.84M277.102 44.542h3.84M282.382 64.462h-3.84"/><path class="cls-5" d="M283.102 63.742h-3.84"/><path class="cls-3" d="M280.942 65.902h-3.84M282.382 64.462h-3.84M283.102 63.742h-3.84M280.942 65.902h-3.84"/><path class="cls-5" d="M283.102 63.742v-17.04"/><path class="cls-3" d="M233.182 253.102h17.52v78.96h-17.52zM248.542 330.862h2.16M248.542 322.462h2.16M248.542 305.422h2.16M248.542 288.382h2.16M248.542 271.342h2.16"/><path class="cls-16" d="M238.385 272.242h8.93c.26 0 .519.05.759.15a2.01 2.01 0 0 1 1.075 1.073c.098.243.149.5.149.762v11.196c0 .261-.05.518-.15.758a1.994 1.994 0 0 1-1.074 1.075c-.24.099-.5.151-.759.151h-8.93a1.99 1.99 0 0 1-1.985-1.985v-11.195c0-.262.053-.519.151-.761a2.009 2.009 0 0 1 1.076-1.073c.24-.1.499-.151.758-.151"/><path class="cls-3" d="M238.385 272.242h8.93c.26 0 .519.05.759.15a2.01 2.01 0 0 1 1.075 1.073c.098.243.149.5.149.762v11.196c0 .261-.05.518-.15.758a1.994 1.994 0 0 1-1.074 1.075c-.24.099-.5.151-.759.151h-8.93a1.99 1.99 0 0 1-1.985-1.985v-11.195c0-.262.053-.519.151-.761a2.009 2.009 0 0 1 1.076-1.073c.24-.1.499-.151.758-.151"/><path class="cls-16" d="M240.862 279.862c0-.593-.543-1.08-1.2-1.08s-1.2.487-1.2 1.08c0 .592.542 1.08 1.2 1.08s1.2-.487 1.2-1.08"/><path class="cls-3" d="M240.862 279.862c0-.593-.543-1.08-1.2-1.08s-1.2.487-1.2 1.08c0 .592.542 1.08 1.2 1.08s1.2-.487 1.2-1.08"/><path class="cls-15" d="M234.622 305.902h14.64v15.84h-14.64z"/><path class="cls-3" d="M234.622 305.902h14.64v15.84h-14.64z"/><path class="cls-16" d="M247.342 317.902c0-1.58-1.246-2.88-2.76-2.88s-2.76 1.3-2.76 2.88 1.245 2.88 2.76 2.88 2.76-1.301 2.76-2.88"/><path class="cls-3" d="M247.342 317.902c0-1.58-1.246-2.88-2.76-2.88s-2.76 1.3-2.76 2.88 1.245 2.88 2.76 2.88 2.76-1.301 2.76-2.88"/><path class="cls-16" d="M239.902 318.862c0-1.186-.975-2.16-2.16-2.16s-2.16.974-2.16 2.16.974 2.16 2.16 2.16 2.16-.975 2.16-2.16"/><path class="cls-3" d="M239.902 318.862c0-1.186-.975-2.16-2.16-2.16s-2.16.974-2.16 2.16.974 2.16 2.16 2.16 2.16-.975 2.16-2.16"/><path class="cls-16" d="M246.862 310.222c0-1.186-1.03-2.16-2.28-2.16s-2.28.974-2.28 2.16 1.03 2.16 2.28 2.16 2.28-.975 2.28-2.16"/><path class="cls-3" d="M246.862 310.222c0-1.186-1.03-2.16-2.28-2.16s-2.28.974-2.28 2.16 1.03 2.16 2.28 2.16 2.28-.975 2.28-2.16"/><path class="cls-16" d="M241.102 310.582c0-1.515-1.301-2.76-2.88-2.76s-2.88 1.245-2.88 2.76 1.3 2.76 2.88 2.76 2.88-1.246 2.88-2.76"/><path class="cls-3" d="M241.102 310.582c0-1.515-1.301-2.76-2.88-2.76s-2.88 1.245-2.88 2.76 1.3 2.76 2.88 2.76 2.88-1.246 2.88-2.76M243.262 253.102v78.96M248.542 254.302h2.16"/><path class="cls-17" d="M250.702 332.062v14.64h-27.36v-14.64h27.36"/><path class="cls-16" d="M250.702 346.702v-3.36h-27.36v3.36h27.36"/><path class="cls-12" d="M224.062 343.342l3.36 3.36M228.142 343.342l3.36 3.36M232.222 343.342l3.36 3.36M236.302 343.342l3.36 3.36M240.142 343.342l3.36 3.36M244.222 343.342l3.36 3.36M248.302 343.342l2.64 2.64"/><path class="cls-16" d="M250.702 343.342v-.48h-27.36v.48h27.36"/><path class="cls-16" d="M250.702 342.862v-5.76h-27.36v5.76h27.36"/><path class="cls-12" d="M224.062 337.102v5.76M225.502 337.102v5.76M226.942 337.102v5.76M228.382 337.102v5.76M229.822 337.102v5.76M231.262 337.102v5.76M232.702 337.102v5.76M234.142 337.102v5.76M235.582 337.102v5.76M236.782 337.102v5.76M238.222 337.102v5.76M239.662 337.102v5.76M241.102 337.102v5.76M242.542 337.102v5.76M243.982 337.102v5.76M245.422 337.102v5.76M246.862 337.102v5.76M248.302 337.102v5.76M249.742 337.102v5.76"/><path class="cls-16" d="M250.702 337.102v-5.04h-27.36v5.04h27.36"/><path class="cls-12" d="M223.582 334.702l2.4 2.4M225.022 332.062l5.04 5.04M228.862 332.062l5.04 5.04M232.942 332.062l5.04 5.04M237.022 332.062l5.04 5.04M240.862 332.062l5.04 5.04M244.942 332.062l5.04 5.04M249.022 332.062l1.92 1.92"/><path class="cls-13" d="M250.702 343.342h-27.36M250.702 346.702h-27.36"/><path class="cls-12" d="M250.702 337.102h-27.36M250.702 342.862h-27.36"/><path class="cls-13" d="M250.702 332.062h-27.36M250.702 337.102h-27.36"/><path class="cls-3" d="M250.702 346.702h-27.36M250.702 332.062h-27.36"/><path class="cls-17" d="M364.942 332.062v14.64h-51.36v-14.64h51.36"/><path class="cls-16" d="M364.942 346.702v-3.36h-51.36v3.36h51.36"/><path class="cls-12" d="M313.822 344.782l1.92 1.92M316.462 343.342l3.36 3.36M320.302 343.342l3.36 3.36M324.382 343.342l3.36 3.36M328.462 343.342l3.36 3.36M332.302 343.342l3.36 3.36M336.382 343.342l3.36 3.36M340.462 343.342l3.36 3.36M344.542 343.342l3.36 3.36M348.382 343.342l3.36 3.36M352.462 343.342l3.36 3.36M356.542 343.342l3.36 3.36M360.382 343.342l3.36 3.36M364.462 343.342l.72.48"/><path class="cls-16" d="M364.942 343.342v-.48h-51.36v.48h51.36"/><path class="cls-16" d="M364.942 342.862v-5.76h-51.36v5.76h51.36"/><path class="cls-12" d="M314.782 337.102v5.76M316.222 337.102v5.76M317.662 337.102v5.76M319.102 337.102v5.76M320.542 337.102v5.76M321.982 337.102v5.76M323.422 337.102v5.76M324.862 337.102v5.76M326.302 337.102v5.76M327.502 337.102v5.76M328.942 337.102v5.76M330.382 337.102v5.76M331.822 337.102v5.76M333.262 337.102v5.76M334.702 337.102v5.76M336.142 337.102v5.76M337.582 337.102v5.76M339.022 337.102v5.76M340.462 337.102v5.76M341.662 337.102v5.76M343.102 337.102v5.76M344.542 337.102v5.76M345.982 337.102v5.76M347.422 337.102v5.76M348.862 337.102v5.76M350.302 337.102v5.76M351.742 337.102v5.76M353.182 337.102v5.76M354.622 337.102v5.76M356.062 337.102v5.76M357.262 337.102v5.76M358.702 337.102v5.76M360.142 337.102v5.76M361.582 337.102v5.76M363.022 337.102v5.76M364.462 337.102v5.76"/><path class="cls-16" d="M364.942 337.102v-5.04h-51.36v5.04h51.36"/><path class="cls-12" d="M313.822 336.622l.24.48M313.822 332.542l4.32 4.56M317.182 332.062l5.04 5.04M321.022 332.062l5.04 5.04M325.102 332.062l5.04 5.04M329.182 332.062l5.04 5.04M333.262 332.062l5.04 5.04M337.102 332.062l5.04 5.04M341.182 332.062l5.04 5.04M345.262 332.062l5.04 5.04M349.102 332.062l5.04 5.04M353.182 332.062l5.04 5.04M357.262 332.062l5.04 5.04M361.102 332.062l4.08 3.84"/><path class="cls-13" d="M364.942 343.342h-51.36M364.942 346.702h-51.36"/><path class="cls-12" d="M364.942 337.102h-51.36M364.942 342.862h-51.36"/><path class="cls-13" d="M364.942 332.062h-51.36M364.942 337.102h-51.36"/><path class="cls-3" d="M364.942 346.702h-51.36M364.942 332.062h-51.36"/><path class="cls-17" d="M429.502 332.062v14.64h-23.76v-14.64h23.76"/><path class="cls-16" d="M429.502 346.702v-3.36h-23.76v3.36h23.76"/><path class="cls-12" d="M405.982 344.542l1.92 2.16M408.622 343.342l3.36 3.36M412.702 343.342l3.36 3.36M416.542 343.342l3.36 3.36M420.622 343.342l3.36 3.36M424.702 343.342l3.36 3.36M428.542 343.342l1.2.96"/><path class="cls-16" d="M429.502 343.342v-.48h-23.76v.48h23.76"/><path class="cls-16" d="M429.502 342.862v-5.76h-23.76v5.76h23.76"/><path class="cls-12" d="M406.942 337.102v5.76M408.382 337.102v5.76M409.822 337.102v5.76M411.262 337.102v5.76M412.702 337.102v5.76M414.142 337.102v5.76M415.582 337.102v5.76M416.782 337.102v5.76M418.222 337.102v5.76M419.662 337.102v5.76M421.102 337.102v5.76M422.542 337.102v5.76M423.982 337.102v5.76M425.422 337.102v5.76M426.862 337.102v5.76M428.302 337.102v5.76"/><path class="cls-16" d="M429.502 337.102v-5.04h-23.76v5.04h23.76"/><path class="cls-12" d="M405.982 336.622l.48.48M405.982 332.542l4.32 4.56M409.342 332.062l5.04 5.04M413.422 332.062l5.04 5.04M417.262 332.062l5.04 5.04M421.342 332.062l5.04 5.04M425.422 332.062l4.32 4.32M429.262 332.062l.48.24"/><path class="cls-13" d="M429.502 343.342h-23.76M429.502 346.702h-23.76"/><path class="cls-12" d="M429.502 337.102h-23.76M429.502 342.862h-23.76"/><path class="cls-13" d="M429.502 332.062h-23.76M429.502 337.102h-23.76"/><path class="cls-3" d="M429.502 346.702h-23.76M429.502 332.062h-23.76M403.822 339.262v7.44h3.6v1.92h-43.92v-1.92h3.36v-7.44M405.742 332.062h-40.8M365.422 332.062h-.48"/><path class="cls-13" d="M403.822 346.702h3.6M366.862 346.702h-3.36"/><path class="cls-3" d="M364.942 337.102h40.8v2.16h-40.8zM402.142 339.262v-2.16M368.542 339.262v-2.16M405.742 337.102v2.16M387.502 337.102v2.16M402.142 337.102v2.16M383.182 337.102v2.16M387.502 337.102v2.16M368.542 337.102v2.16M383.182 337.102v2.16M364.942 337.102v2.16"/><path class="cls-16" d="M405.766 342.754h-1.844v-3.401h1.844"/><path class="cls-12" d="M404.062 339.262v3.6M405.502 339.262v3.6M405.766 342.754h-1.844v-3.401h1.844"/><path class="cls-13" d="M405.742 337.102v-5.04"/><path class="cls-16" d="M405.742 346.702h-1.92v-3.36h1.92"/><path class="cls-12" d="M404.542 343.342l1.44 1.2"/><path class="cls-13" d="M405.742 346.702h-1.92v-3.36h1.92M403.822 343.342v-4.08"/><path class="cls-16" d="M364.947 342.754h1.843v-3.401h-1.843"/><path class="cls-12" d="M365.902 339.262v3.6M364.947 342.754h1.843v-3.401h-1.843"/><path class="cls-13" d="M364.942 337.102v-5.04"/><path class="cls-16" d="M364.942 346.702h1.92v-3.36h-1.92"/><path class="cls-12" d="M365.182 343.822l1.92 1.92"/><path class="cls-13" d="M364.942 346.702h1.92v-3.36h-1.92M366.862 343.342v-4.08"/><path class="cls-3" d="M313.582 332.062h-62.88M250.702 337.102h62.88v2.16h-62.88zM309.982 339.262v-2.16M254.302 339.262v-2.16M313.582 337.102v2.16M294.622 337.102v2.16M309.982 337.102v2.16M290.542 337.102v2.16M294.622 337.102v2.16M273.742 337.102v2.16M290.542 337.102v2.16M269.662 337.102v2.16M273.742 337.102v2.16M254.302 337.102v2.16M269.662 337.102v2.16M250.702 337.102v2.16"/><path class="cls-13" d="M313.582 337.102v-5.04"/><path class="cls-3" d="M249.262 346.702v1.92M249.262 348.622h66M315.262 348.622v-.96"/><path class="cls-16" d="M313.64 342.754h-1.841v-3.401h1.84"/><path class="cls-12" d="M313.342 339.262v3.6M313.64 342.754h-1.841v-3.401h1.84"/><path class="cls-16" d="M313.582 346.702h-1.68v-3.36h1.68"/><path class="cls-12" d="M312.382 343.342l1.44 1.44"/><path class="cls-13" d="M313.582 346.702h-1.68v-3.36h1.68M311.902 343.342v-4.08"/><path class="cls-16" d="M250.711 342.754h1.844v-3.401h-1.844"/><path class="cls-12" d="M251.182 339.262v3.6M252.382 339.262v3.6M250.711 342.754h1.844v-3.401h-1.844"/><path class="cls-13" d="M250.702 337.102v-5.04"/><path class="cls-16" d="M250.702 346.702h1.92v-3.36h-1.92"/><path class="cls-12" d="M250.942 345.982l.72.72M252.142 343.342l.72.48"/><path class="cls-13" d="M250.702 346.702h1.92v-3.36h-1.92M252.622 343.342v-4.08"/><path class="cls-17" d="M402.142 21.262V6.622h27.36v14.64h-27.36"/><path class="cls-16" d="M402.142 6.622v3.36h27.36v-3.36h-27.36"/><path class="cls-12" d="M402.382 8.302l1.44 1.68M404.542 6.622l3.36 3.36M408.622 6.622l3.36 3.36M412.702 6.622l3.36 3.36M416.542 6.622l3.36 3.36M420.622 6.622l3.36 3.36M424.702 6.622l3.36 3.36M428.542 6.622l1.2.96"/><path class="cls-16" d="M402.142 9.982v.48h27.36v-.48h-27.36M402.142 10.462v5.76h27.36v-5.76h-27.36"/><path class="cls-12" d="M428.302 16.222v-5.76M426.862 16.222v-5.76M425.422 16.222v-5.76M423.982 16.222v-5.76M422.542 16.222v-5.76M421.102 16.222v-5.76M419.662 16.222v-5.76M418.222 16.222v-5.76M416.782 16.222v-5.76M415.582 16.222v-5.76M414.142 16.222v-5.76M412.702 16.222v-5.76M411.262 16.222v-5.76M409.822 16.222v-5.76M408.382 16.222v-5.76M406.942 16.222v-5.76M405.502 16.222v-5.76M404.062 16.222v-5.76M402.622 16.222v-5.76"/><path class="cls-16" d="M402.142 16.222v5.04h27.36v-5.04h-27.36"/><path class="cls-12" d="M402.382 20.302l.72.96M402.382 16.222l4.8 5.04M406.222 16.222l5.04 5.04M410.062 16.222l5.04 5.04M414.142 16.222l5.04 5.04M418.222 16.222l5.04 5.04M422.302 16.222l5.04 5.04M426.142 16.222l3.6 3.36"/><path class="cls-13" d="M402.142 9.982h27.36M402.142 6.622h27.36"/><path class="cls-12" d="M402.142 16.222h27.36M402.142 10.462h27.36"/><path class="cls-13" d="M402.142 21.262h27.36M402.142 16.222h27.36"/><path class="cls-3" d="M402.142 6.622h27.36M402.142 21.262h27.36"/><path class="cls-17" d="M321.022 21.262V6.622h40.32v14.64h-40.32"/><path class="cls-16" d="M321.022 6.622v3.36h40.32v-3.36h-40.32"/><path class="cls-12" d="M321.262 7.342l2.4 2.64M324.382 6.622l3.36 3.36M328.462 6.622l3.36 3.36M332.542 6.622l3.36 3.36M336.382 6.622l3.36 3.36M340.462 6.622l3.36 3.36M344.542 6.622l3.36 3.36M348.382 6.622l3.36 3.36M352.462 6.622l3.36 3.36M356.542 6.622l3.36 3.36M360.382 6.622l1.2.96"/><path class="cls-16" d="M321.022 9.982v.48h40.32v-.48h-40.32M321.022 10.462v5.76h40.32v-5.76h-40.32"/><path class="cls-12" d="M360.142 16.222v-5.76M358.702 16.222v-5.76M357.262 16.222v-5.76M356.062 16.222v-5.76M354.622 16.222v-5.76M353.182 16.222v-5.76M351.742 16.222v-5.76M350.302 16.222v-5.76M348.862 16.222v-5.76M347.422 16.222v-5.76M345.982 16.222v-5.76M344.542 16.222v-5.76M343.102 16.222v-5.76M341.662 16.222v-5.76M340.462 16.222v-5.76M339.022 16.222v-5.76M337.582 16.222v-5.76M336.142 16.222v-5.76M334.702 16.222v-5.76M333.262 16.222v-5.76M331.822 16.222v-5.76M330.382 16.222v-5.76M328.942 16.222v-5.76M327.502 16.222v-5.76M326.302 16.222v-5.76M324.862 16.222v-5.76M323.422 16.222v-5.76M321.982 16.222v-5.76"/><path class="cls-16" d="M321.022 16.222v5.04h40.32v-5.04h-40.32"/><path class="cls-12" d="M321.262 19.342l1.68 1.92M321.982 16.222l5.04 5.04M326.062 16.222l5.04 5.04M329.902 16.222l5.04 5.04M333.982 16.222l5.04 5.04M338.062 16.222l5.04 5.04M342.142 16.222l5.04 5.04M345.982 16.222l5.04 5.04M350.062 16.222l5.04 5.04M354.142 16.222l5.04 5.04M357.982 16.222l3.6 3.36"/><path class="cls-13" d="M321.022 9.982h40.32M321.022 6.622h40.32"/><path class="cls-12" d="M321.022 16.222h40.32M321.022 10.462h40.32"/><path class="cls-13" d="M321.022 21.262h40.32M321.022 16.222h40.32"/><path class="cls-3" d="M321.022 6.622h40.32M321.022 21.262h40.32"/><path class="cls-17" d="M274.222 21.262V6.622h28.08v14.64h-28.08"/><path class="cls-16" d="M274.222 6.622v3.36h28.08v-3.36h-28.08"/><path class="cls-12" d="M274.462 8.782l1.2 1.2M276.382 6.622l3.36 3.36M280.222 6.622l3.36 3.36M284.302 6.622l3.36 3.36M288.382 6.622l3.36 3.36M292.462 6.622l3.36 3.36M296.302 6.622l3.36 3.36M300.382 6.622l2.16 2.16"/><path class="cls-16" d="M274.222 9.982v.48h28.08v-.48h-28.08M274.222 10.462v5.76h28.08v-5.76h-28.08"/><path class="cls-12" d="M302.062 16.222v-5.76M300.622 16.222v-5.76M299.182 16.222v-5.76M297.742 16.222v-5.76M296.302 16.222v-5.76M295.102 16.222v-5.76M293.662 16.222v-5.76M292.222 16.222v-5.76M290.782 16.222v-5.76M289.342 16.222v-5.76M287.902 16.222v-5.76M286.462 16.222v-5.76M285.022 16.222v-5.76M283.582 16.222v-5.76M282.142 16.222v-5.76M280.942 16.222v-5.76M279.502 16.222v-5.76M278.062 16.222v-5.76M276.622 16.222v-5.76M275.182 16.222v-5.76"/><path class="cls-16" d="M274.222 16.222v5.04h28.08v-5.04h-28.08"/><path class="cls-12" d="M274.462 20.782l.48.48M274.462 16.702l4.56 4.56M277.822 16.222l5.04 5.04M281.902 16.222l5.04 5.04M285.982 16.222l5.04 5.04M289.822 16.222l5.04 5.04M293.902 16.222l5.04 5.04M297.982 16.222l4.56 4.56M302.062 16.222l.48.48"/><path class="cls-13" d="M274.222 9.982h28.08M274.222 6.622h28.08"/><path class="cls-12" d="M274.222 16.222h28.08M274.222 10.462h28.08"/><path class="cls-13" d="M274.222 21.262h28.08M274.222 16.222h28.08"/><path class="cls-3" d="M274.222 6.622h28.08M274.222 21.262h28.08M363.022 13.822v-7.2h-3.36v-1.92h43.92v1.92h-3.36v7.2M361.342 21.262h40.8M401.662 21.262h.48"/><path class="cls-13" d="M363.022 6.622h-3.36M400.222 6.622h3.36"/><path class="cls-3" d="M361.342 13.822h40.8v2.4h-40.8zM364.942 13.822v2.4M398.302 13.822v2.4M361.342 16.222v-2.4M379.582 16.222v-2.4M364.942 16.222v-2.4M383.662 16.222v-2.4M379.582 16.222v-2.4M398.302 16.222v-2.4M383.662 16.222v-2.4M402.142 16.222v-2.4"/><path class="cls-16" d="M361.263 10.533h1.843v3.402h-1.843"/><path class="cls-12" d="M363.022 13.822v-3.36M361.582 13.822v-3.36M361.263 10.533h1.843v3.402h-1.843"/><path class="cls-13" d="M361.342 16.222v5.04"/><path class="cls-16" d="M361.342 6.622h1.68v3.36h-1.68"/><path class="cls-12" d="M361.582 7.582l1.68 1.68"/><path class="cls-13" d="M361.342 6.622h1.68v3.36h-1.68M363.022 9.982v3.84"/><path class="cls-16" d="M402.082 10.533h-1.843v3.402h1.843"/><path class="cls-12" d="M401.182 13.822v-3.36M402.082 10.533h-1.843v3.402h1.843"/><path class="cls-13" d="M402.142 16.222v5.04"/><path class="cls-16" d="M402.142 6.622h-1.92v3.36h1.92"/><path class="cls-12" d="M400.462 6.622l1.92 1.68"/><path class="cls-13" d="M402.142 6.622h-1.92v3.36h1.92M400.222 9.982v3.84"/><path class="cls-3" d="M302.302 16.222v5.04h18.72v-5.04M304.222 13.822v-7.2h-3.36v-1.92h21.6v1.92h-3.36v7.2M304.222 6.622h14.88"/><path class="cls-13" d="M304.222 6.622h-3.36M319.102 6.622h3.36"/><path class="cls-3" d="M302.302 13.822h18.72v2.4h-18.72zM305.902 13.822v2.4M317.422 13.822v2.4M302.302 16.222v-2.4M317.422 16.222v-2.4M305.902 16.222v-2.4M321.022 16.222v-2.4"/><path class="cls-13" d="M302.302 16.222v5.04"/><path class="cls-3" d="M304.222 9.982h7.44"/><path class="cls-16" d="M302.302 10.533h1.843v3.402h-1.843"/><path class="cls-12" d="M303.502 13.822v-3.36M302.302 10.533h1.843v3.402h-1.843"/><path class="cls-16" d="M302.302 6.622h1.92v3.36h-1.92"/><path class="cls-12" d="M302.542 8.782l1.2 1.2"/><path class="cls-13" d="M302.302 6.622h1.92v3.36h-1.92M304.222 9.982v3.84M321.022 16.222v5.04"/><path class="cls-3" d="M319.102 9.982h-7.44"/><path class="cls-16" d="M321.01 10.533h-1.843v3.402h1.843"/><path class="cls-12" d="M320.542 13.822v-3.36M321.01 10.533h-1.843v3.402h1.843"/><path class="cls-16" d="M321.022 6.622h-1.92v3.36h1.92"/><path class="cls-12" d="M319.342 9.502l.48.48M320.302 6.622l.96.72"/><path class="cls-13" d="M321.022 6.622h-1.92v3.36h1.92M319.102 9.982v3.84"/><path class="cls-16" d="M429.502 337.102h-7.2V16.222h7.2v320.88"/><path class="cls-12" d="M429.742 19.582l-3.6-3.36M429.742 23.662l-7.2-7.2M429.742 27.742l-7.2-7.2M429.742 31.582l-7.2-7.2M429.742 35.662l-7.2-7.2M429.742 39.742l-7.2-7.2M429.742 43.582l-7.2-7.2M429.742 47.662l-7.2-7.2M429.742 51.742l-7.2-7.2M429.742 55.822l-7.2-7.2M429.742 59.662l-7.2-7.2M429.742 63.742l-7.2-7.2M429.742 67.822l-7.2-7.2M429.742 71.662l-7.2-7.2M429.742 75.742l-7.2-7.2M429.742 79.822l-7.2-7.2M429.742 83.662l-7.2-7.2M429.742 87.742l-7.2-7.2M429.742 91.822l-7.2-7.2M429.742 95.902l-7.2-7.2M429.742 99.742l-7.2-7.2M429.742 103.822l-7.2-7.2M429.742 107.902l-7.2-7.2M429.742 111.742l-7.2-7.2M429.742 115.822l-7.2-7.2M429.742 119.902l-7.2-7.2M429.742 123.742l-7.2-7.2M429.742 127.822l-7.2-7.2M429.742 131.902l-7.2-7.2M429.742 135.982l-7.2-7.2M429.742 139.822l-7.2-7.2M429.742 143.902l-7.2-7.2M429.742 147.982l-7.2-7.2M429.742 151.822l-7.2-7.2M429.742 155.902l-7.2-7.2M429.742 159.982l-7.2-7.2M429.742 164.062l-7.2-7.2M429.742 167.902l-7.2-7.2M429.742 171.982l-7.2-7.2M429.742 176.062l-7.2-7.2M429.742 179.902l-7.2-7.2M429.742 183.982l-7.2-7.2M429.742 188.062l-7.2-7.2M429.742 191.902l-7.2-7.2M429.742 195.982l-7.2-7.2M429.742 200.062l-7.2-7.2M429.742 204.142l-7.2-7.2M429.742 207.982l-7.2-7.2M429.742 212.062l-7.2-7.2M429.742 216.142l-7.2-7.2M429.742 219.982l-7.2-7.2M429.742 224.062l-7.2-7.2M429.742 228.142l-7.2-7.2M429.742 231.982l-7.2-7.2M429.742 236.062l-7.2-7.2M429.742 240.142l-7.2-7.2M429.742 244.222l-7.2-7.2M429.742 248.062l-7.2-7.2M429.742 252.142l-7.2-7.2M429.742 256.222l-7.2-7.2M429.742 260.062l-7.2-7.2M429.742 264.142l-7.2-7.2M429.742 268.222l-7.2-7.2M429.742 272.302l-7.2-7.2M429.742 276.142l-7.2-7.2M429.742 280.222l-7.2-7.2M429.742 284.302l-7.2-7.2M429.742 288.142l-7.2-7.2M429.742 292.222l-7.2-7.2M429.742 296.302l-7.2-7.2M429.742 300.142l-7.2-7.2M429.742 304.222l-7.2-7.2M429.742 308.302l-7.2-7.2M429.742 312.382l-7.2-7.2M429.742 316.222l-7.2-7.2M429.742 320.302l-7.2-7.2M429.742 324.382l-7.2-7.2M429.742 328.222l-7.2-7.2M429.742 332.302l-7.2-7.2M429.742 336.382l-7.2-7.2M426.382 337.102l-3.84-4.08M428.302 337.102l1.44-1.44M424.222 337.102l5.52-5.28M422.542 334.942l7.2-7.2M422.542 330.862l7.2-7.2M422.542 327.022l7.2-7.2M422.542 322.942l7.2-7.2M422.542 318.862l7.2-7.2M422.542 314.782l7.2-7.2M422.542 310.942l7.2-7.2M422.542 306.862l7.2-7.2M422.542 302.782l7.2-7.2M422.542 298.942l7.2-7.2M422.542 294.862l7.2-7.2M422.542 290.782l7.2-7.2M422.542 286.702l7.2-7.2M422.542 282.862l7.2-7.2M422.542 278.782l7.2-7.2M422.542 274.702l7.2-7.2M422.542 270.862l7.2-7.2M422.542 266.782l7.2-7.2M422.542 262.702l7.2-7.2M422.542 258.862l7.2-7.2M422.542 254.782l7.2-7.2M422.542 250.702l7.2-7.2M422.542 246.622l7.2-7.2M422.542 242.782l7.2-7.2M422.542 238.702l7.2-7.2M422.542 234.622l7.2-7.2M422.542 230.782l7.2-7.2M422.542 226.702l7.2-7.2M422.542 222.622l7.2-7.2M422.542 218.782l7.2-7.2M422.542 214.702l7.2-7.2M422.542 210.622l7.2-7.2M422.542 206.542l7.2-7.2M422.542 202.702l7.2-7.2M422.542 198.622l7.2-7.2M422.542 194.542l7.2-7.2M422.542 190.702l7.2-7.2M422.542 186.622l7.2-7.2M422.542 182.542l7.2-7.2M422.542 178.462l7.2-7.2M422.542 174.622l7.2-7.2M422.542 170.542l7.2-7.2M422.542 166.462l7.2-7.2M422.542 162.622l7.2-7.2M422.542 158.542l7.2-7.2M422.542 154.462l7.2-7.2M422.542 150.622l7.2-7.2M422.542 146.542l7.2-7.2M422.542 142.462l7.2-7.2M422.542 138.382l7.2-7.2M422.542 134.542l7.2-7.2M422.542 130.462l7.2-7.2M422.542 126.382l7.2-7.2M422.542 122.542l7.2-7.2M422.542 118.462l7.2-7.2M422.542 114.382l7.2-7.2M422.542 110.542l7.2-7.2M422.542 106.462l7.2-7.2M422.542 102.382l7.2-7.2M422.542 98.302l7.2-7.2M422.542 94.462l7.2-7.2M422.542 90.382l7.2-7.2M422.542 86.302l7.2-7.2M422.542 82.462l7.2-7.2M422.542 78.382l7.2-7.2M422.542 74.302l7.2-7.2M422.542 70.462l7.2-7.2M422.542 66.382l7.2-7.2M422.542 62.302l7.2-7.2M422.542 58.222l7.2-7.2M422.542 54.382l7.2-7.2M422.542 50.302l7.2-7.2M422.542 46.222l7.2-7.2M422.542 42.382l7.2-7.2M422.542 38.302l7.2-7.2M422.542 34.222l7.2-7.2M422.542 30.142l7.2-7.2M422.542 26.302l7.2-7.2M422.542 22.222l6-6M422.542 18.142l1.92-1.92"/><path class="cls-16" d="M422.302 337.102h7.2V16.222h-7.2v320.88"/><path class="cls-12" d="M429.742 19.582l-3.6-3.36M429.742 23.662l-7.2-7.2M429.742 27.742l-7.2-7.2M429.742 31.582l-7.2-7.2M429.742 35.662l-7.2-7.2M429.742 39.742l-7.2-7.2M429.742 43.582l-7.2-7.2M429.742 47.662l-7.2-7.2M429.742 51.742l-7.2-7.2M429.742 55.822l-7.2-7.2M429.742 59.662l-7.2-7.2M429.742 63.742l-7.2-7.2M429.742 67.822l-7.2-7.2M429.742 71.662l-7.2-7.2M429.742 75.742l-7.2-7.2M429.742 79.822l-7.2-7.2M429.742 83.662l-7.2-7.2M429.742 87.742l-7.2-7.2M429.742 91.822l-7.2-7.2M429.742 95.902l-7.2-7.2M429.742 99.742l-7.2-7.2M429.742 103.822l-7.2-7.2M429.742 107.902l-7.2-7.2M429.742 111.742l-7.2-7.2M429.742 115.822l-7.2-7.2M429.742 119.902l-7.2-7.2M429.742 123.742l-7.2-7.2M429.742 127.822l-7.2-7.2M429.742 131.902l-7.2-7.2M429.742 135.982l-7.2-7.2M429.742 139.822l-7.2-7.2M429.742 143.902l-7.2-7.2M429.742 147.982l-7.2-7.2M429.742 151.822l-7.2-7.2M429.742 155.902l-7.2-7.2M429.742 159.982l-7.2-7.2M429.742 164.062l-7.2-7.2M429.742 167.902l-7.2-7.2M429.742 171.982l-7.2-7.2M429.742 176.062l-7.2-7.2M429.742 179.902l-7.2-7.2M429.742 183.982l-7.2-7.2M429.742 188.062l-7.2-7.2M429.742 191.902l-7.2-7.2M429.742 195.982l-7.2-7.2M429.742 200.062l-7.2-7.2M429.742 204.142l-7.2-7.2M429.742 207.982l-7.2-7.2M429.742 212.062l-7.2-7.2M429.742 216.142l-7.2-7.2M429.742 219.982l-7.2-7.2M429.742 224.062l-7.2-7.2M429.742 228.142l-7.2-7.2M429.742 231.982l-7.2-7.2M429.742 236.062l-7.2-7.2M429.742 240.142l-7.2-7.2M429.742 244.222l-7.2-7.2M429.742 248.062l-7.2-7.2M429.742 252.142l-7.2-7.2M429.742 256.222l-7.2-7.2M429.742 260.062l-7.2-7.2M429.742 264.142l-7.2-7.2M429.742 268.222l-7.2-7.2M429.742 272.302l-7.2-7.2M429.742 276.142l-7.2-7.2M429.742 280.222l-7.2-7.2M429.742 284.302l-7.2-7.2M429.742 288.142l-7.2-7.2M429.742 292.222l-7.2-7.2M429.742 296.302l-7.2-7.2M429.742 300.142l-7.2-7.2M429.742 304.222l-7.2-7.2M429.742 308.302l-7.2-7.2M429.742 312.382l-7.2-7.2M429.742 316.222l-7.2-7.2M429.742 320.302l-7.2-7.2M429.742 324.382l-7.2-7.2M429.742 328.222l-7.2-7.2M429.742 332.302l-7.2-7.2M429.742 336.382l-7.2-7.2M426.382 337.102l-3.84-4.08M428.302 337.102l1.44-1.44M424.222 337.102l5.52-5.28M422.542 334.942l7.2-7.2M422.542 330.862l7.2-7.2M422.542 327.022l7.2-7.2M422.542 322.942l7.2-7.2M422.542 318.862l7.2-7.2M422.542 314.782l7.2-7.2M422.542 310.942l7.2-7.2M422.542 306.862l7.2-7.2M422.542 302.782l7.2-7.2M422.542 298.942l7.2-7.2M422.542 294.862l7.2-7.2M422.542 290.782l7.2-7.2M422.542 286.702l7.2-7.2M422.542 282.862l7.2-7.2M422.542 278.782l7.2-7.2M422.542 274.702l7.2-7.2M422.542 270.862l7.2-7.2M422.542 266.782l7.2-7.2M422.542 262.702l7.2-7.2M422.542 258.862l7.2-7.2M422.542 254.782l7.2-7.2M422.542 250.702l7.2-7.2M422.542 246.622l7.2-7.2M422.542 242.782l7.2-7.2M422.542 238.702l7.2-7.2M422.542 234.622l7.2-7.2M422.542 230.782l7.2-7.2M422.542 226.702l7.2-7.2M422.542 222.622l7.2-7.2M422.542 218.782l7.2-7.2M422.542 214.702l7.2-7.2M422.542 210.622l7.2-7.2M422.542 206.542l7.2-7.2M422.542 202.702l7.2-7.2M422.542 198.622l7.2-7.2M422.542 194.542l7.2-7.2M422.542 190.702l7.2-7.2M422.542 186.622l7.2-7.2M422.542 182.542l7.2-7.2M422.542 178.462l7.2-7.2M422.542 174.622l7.2-7.2M422.542 170.542l7.2-7.2M422.542 166.462l7.2-7.2M422.542 162.622l7.2-7.2M422.542 158.542l7.2-7.2M422.542 154.462l7.2-7.2M422.542 150.622l7.2-7.2M422.542 146.542l7.2-7.2M422.542 142.462l7.2-7.2M422.542 138.382l7.2-7.2M422.542 134.542l7.2-7.2M422.542 130.462l7.2-7.2M422.542 126.382l7.2-7.2M422.542 122.542l7.2-7.2M422.542 118.462l7.2-7.2M422.542 114.382l7.2-7.2M422.542 110.542l7.2-7.2M422.542 106.462l7.2-7.2M422.542 102.382l7.2-7.2M422.542 98.302l7.2-7.2M422.542 94.462l7.2-7.2M422.542 90.382l7.2-7.2M422.542 86.302l7.2-7.2M422.542 82.462l7.2-7.2M422.542 78.382l7.2-7.2M422.542 74.302l7.2-7.2M422.542 70.462l7.2-7.2M422.542 66.382l7.2-7.2M422.542 62.302l7.2-7.2M422.542 58.222l7.2-7.2M422.542 54.382l7.2-7.2M422.542 50.302l7.2-7.2M422.542 46.222l7.2-7.2M422.542 42.382l7.2-7.2M422.542 38.302l7.2-7.2M422.542 34.222l7.2-7.2M422.542 30.142l7.2-7.2M422.542 26.302l7.2-7.2M422.542 22.222l6-6M422.542 18.142l1.92-1.92"/><path class="cls-13" d="M429.502 337.102V16.222M422.302 337.102V16.222M429.502 16.222h-7.2M422.302 337.102V16.222M429.502 337.102V16.222M429.502 337.102h-7.2"/><path class="cls-16" d="M267.262 97.822l6.96 7.2v-88.8l-6.96 5.04v76.56"/><path class="cls-12" d="M274.462 16.702l-.48-.24M274.462 20.782l-2.64-2.64M274.462 24.622l-5.04-4.8M274.462 28.702l-6.96-6.96M274.462 32.782l-6.96-6.96M274.462 36.622l-6.96-6.96M274.462 40.702l-6.96-6.96M274.462 44.782l-6.96-6.96M274.462 48.862l-6.96-6.96M274.462 52.702l-6.96-6.96M274.462 56.782l-6.96-6.96M274.462 60.862l-6.96-6.96M274.462 64.702l-6.96-6.96M274.462 68.782l-6.96-6.96M274.462 72.862l-6.96-6.96M274.462 76.702l-6.96-6.96M274.462 80.782l-6.96-6.96M274.462 84.862l-6.96-6.96M274.462 88.942l-6.96-6.96M274.462 92.782l-6.96-6.96M274.462 96.862l-6.96-6.96M274.462 100.942l-6.96-6.96M274.462 104.782l-4.32-4.08M273.022 103.582l1.44-1.44M270.862 101.422l3.6-3.36M268.942 99.502l5.52-5.28M267.502 97.102l6.96-6.96M267.502 93.022l6.96-6.96M267.502 89.182l6.96-6.96M267.502 85.102l6.96-6.96M267.502 81.022l6.96-6.96M267.502 76.942l6.96-6.96M267.502 73.102l6.96-6.96M267.502 69.022l6.96-6.96M267.502 64.942l6.96-6.96M267.502 61.102l6.96-6.96M267.502 57.022l6.96-6.96M267.502 52.942l6.96-6.96M267.502 49.102l6.96-6.96M267.502 45.022l6.96-6.96M267.502 40.942l6.96-6.96M267.502 36.862l6.96-6.96M267.502 33.022l6.96-6.96M267.502 28.942l6.96-6.96M267.502 24.862l6.96-6.96"/><path class="cls-16" d="M267.262 97.822l6.96 7.2v-88.8l-6.96 5.04v76.56"/><path class="cls-12" d="M274.462 16.702l-.48-.24M274.462 20.782l-2.64-2.64M274.462 24.622l-5.04-4.8M274.462 28.702l-6.96-6.96M274.462 32.782l-6.96-6.96M274.462 36.622l-6.96-6.96M274.462 40.702l-6.96-6.96M274.462 44.782l-6.96-6.96M274.462 48.862l-6.96-6.96M274.462 52.702l-6.96-6.96M274.462 56.782l-6.96-6.96M274.462 60.862l-6.96-6.96M274.462 64.702l-6.96-6.96M274.462 68.782l-6.96-6.96M274.462 72.862l-6.96-6.96M274.462 76.702l-6.96-6.96M274.462 80.782l-6.96-6.96M274.462 84.862l-6.96-6.96M274.462 88.942l-6.96-6.96M274.462 92.782l-6.96-6.96M274.462 96.862l-6.96-6.96M274.462 100.942l-6.96-6.96M274.462 104.782l-4.32-4.08M273.022 103.582l1.44-1.44M270.862 101.422l3.6-3.36M268.942 99.502l5.52-5.28M267.502 97.102l6.96-6.96M267.502 93.022l6.96-6.96M267.502 89.182l6.96-6.96M267.502 85.102l6.96-6.96M267.502 81.022l6.96-6.96M267.502 76.942l6.96-6.96M267.502 73.102l6.96-6.96M267.502 69.022l6.96-6.96M267.502 64.942l6.96-6.96M267.502 61.102l6.96-6.96M267.502 57.022l6.96-6.96M267.502 52.942l6.96-6.96M267.502 49.102l6.96-6.96M267.502 45.022l6.96-6.96M267.502 40.942l6.96-6.96M267.502 36.862l6.96-6.96M267.502 33.022l6.96-6.96M267.502 28.942l6.96-6.96M267.502 24.862l6.96-6.96"/><path class="cls-13" d="M267.262 21.262v76.56M274.222 16.222v88.8M274.222 16.222v88.8M267.262 21.262v76.56"/><path class="cls-16" d="M7.582 56.782l-7.44 6.96h60.96l6.96-6.96H7.582"/><path class="cls-12" d="M67.102 57.982l-1.2-1.2M64.942 59.902l-3.12-3.12M63.022 61.822l-5.04-5.04M60.862 63.742l-6.96-6.96M56.782 63.742l-6.96-6.96M52.702 63.742l-6.96-6.96M48.862 63.742l-6.96-6.96M44.782 63.742l-6.96-6.96M40.702 63.742l-6.96-6.96M36.862 63.742l-6.96-6.96M32.782 63.742l-6.96-6.96M28.702 63.742l-6.96-6.96M24.862 63.742l-6.96-6.96M20.782 63.742l-6.96-6.96M16.702 63.742l-6.96-6.96M12.622 63.742l-6-6M8.782 63.742l-4.08-4.08M4.702 63.742l-2.16-2.16M.622 63.742l-.24-.24M60.142 63.742l6.96-6.96M56.302 63.742l6.96-6.96M52.222 63.742l6.96-6.96M48.142 63.742l6.96-6.96M44.062 63.742l6.96-6.96M40.222 63.742l6.96-6.96M36.142 63.742l6.96-6.96M32.062 63.742l6.96-6.96M28.222 63.742l6.96-6.96M24.142 63.742l6.96-6.96M20.062 63.742l6.96-6.96M16.222 63.742l6.96-6.96M12.142 63.742l6.96-6.96M8.062 63.742l6.96-6.96M3.982 63.742l6.96-6.96"/><path class="cls-16" d="M7.582 56.782l-7.44 6.96h60.96l6.96-6.96H7.582"/><path class="cls-12" d="M67.102 57.982l-1.2-1.2M64.942 59.902l-3.12-3.12M63.022 61.822l-5.04-5.04M60.862 63.742l-6.96-6.96M56.782 63.742l-6.96-6.96M52.702 63.742l-6.96-6.96M48.862 63.742l-6.96-6.96M44.782 63.742l-6.96-6.96M40.702 63.742l-6.96-6.96M36.862 63.742l-6.96-6.96M32.782 63.742l-6.96-6.96M28.702 63.742l-6.96-6.96M24.862 63.742l-6.96-6.96M20.782 63.742l-6.96-6.96M16.702 63.742l-6.96-6.96M12.622 63.742l-6-6M8.782 63.742l-4.08-4.08M4.702 63.742l-2.16-2.16M.622 63.742l-.24-.24M60.142 63.742l6.96-6.96M56.302 63.742l6.96-6.96M52.222 63.742l6.96-6.96M48.142 63.742l6.96-6.96M44.062 63.742l6.96-6.96M40.222 63.742l6.96-6.96M36.142 63.742l6.96-6.96M32.062 63.742l6.96-6.96M28.222 63.742l6.96-6.96M24.142 63.742l6.96-6.96M20.062 63.742l6.96-6.96M16.222 63.742l6.96-6.96M12.142 63.742l6.96-6.96M8.062 63.742l6.96-6.96M3.982 63.742l6.96-6.96"/><path class="cls-13" d="M62.302 56.782H7.582M61.102 63.742H.142M61.102 63.742H.142M62.302 56.782H7.582"/><path class="cls-16" d="M274.222 105.022l-6.96-7.2h-2.16v7.2h9.12"/><path class="cls-12" d="M270.142 100.702l-2.88-2.88M270.382 105.022l-5.04-5.28M266.542 105.022l-1.2-1.2M271.582 105.022l1.44-1.44M267.502 105.022l3.36-3.6M265.342 103.342l3.6-3.84M265.342 99.262l1.44-1.44"/><path class="cls-16" d="M274.222 105.022l-6.96-7.2h-2.16v7.2h9.12"/><path class="cls-12" d="M270.142 100.702l-2.88-2.88M270.382 105.022l-5.04-5.28M266.542 105.022l-1.2-1.2M271.582 105.022l1.44-1.44M267.502 105.022l3.36-3.6M265.342 103.342l3.6-3.84M265.342 99.262l1.44-1.44"/><path class="cls-13" d="M265.102 105.022h9.12M265.102 97.822h2.16M265.102 97.822h2.16M265.102 105.022h9.12"/><path class="cls-16" d="M98.302 105.022v-7.2h134.64v7.2H98.302"/><path class="cls-12" d="M233.182 99.742l-1.92-1.92M233.182 103.582l-6-5.76M230.302 105.022l-7.2-7.2M226.462 105.022l-7.2-7.2M222.382 105.022l-7.2-7.2M218.302 105.022l-7.2-7.2M214.462 105.022l-7.2-7.2M210.382 105.022l-7.2-7.2M206.302 105.022l-7.2-7.2M202.222 105.022l-7.2-7.2M198.382 105.022l-7.2-7.2M194.302 105.022l-7.2-7.2M190.222 105.022l-7.2-7.2M186.382 105.022l-7.2-7.2M182.302 105.022l-7.2-7.2M178.222 105.022l-7.2-7.2M174.382 105.022l-7.2-7.2M170.302 105.022l-7.2-7.2M166.222 105.022l-7.2-7.2M162.142 105.022l-7.2-7.2M158.302 105.022l-7.2-7.2M154.222 105.022l-7.2-7.2M150.142 105.022l-7.2-7.2M146.302 105.022l-7.2-7.2M142.222 105.022l-7.2-7.2M138.142 105.022l-7.2-7.2M134.062 105.022l-7.2-7.2M130.222 105.022l-7.2-7.2M126.142 105.022l-7.2-7.2M122.062 105.022l-7.2-7.2M118.222 105.022l-7.2-7.2M114.142 105.022l-7.2-7.2M110.062 105.022l-7.2-7.2M106.222 105.022l-7.2-7.2M102.142 105.022l-3.6-3.6M231.502 105.022l1.68-1.68M227.422 105.022l5.76-5.76M223.342 105.022l7.2-7.2M219.262 105.022l7.2-7.2M215.422 105.022l7.2-7.2M211.342 105.022l7.2-7.2M207.262 105.022l7.2-7.2M203.422 105.022l7.2-7.2M199.342 105.022l7.2-7.2M195.262 105.022l7.2-7.2M191.422 105.022l7.2-7.2M187.342 105.022l7.2-7.2M183.262 105.022l7.2-7.2M179.182 105.022l7.2-7.2M175.342 105.022l7.2-7.2M171.262 105.022l7.2-7.2M167.182 105.022l7.2-7.2M163.342 105.022l7.2-7.2M159.262 105.022l7.2-7.2M155.182 105.022l7.2-7.2M151.342 105.022l7.2-7.2M147.262 105.022l7.2-7.2M143.182 105.022l7.2-7.2M139.102 105.022l7.2-7.2M135.262 105.022l7.2-7.2M131.182 105.022l7.2-7.2M127.102 105.022l7.2-7.2M123.262 105.022l7.2-7.2M119.182 105.022l7.2-7.2M115.102 105.022l7.2-7.2M111.022 105.022l7.2-7.2M107.182 105.022l7.2-7.2M103.102 105.022l7.2-7.2M99.022 105.022l7.2-7.2M98.542 101.662l3.84-3.84"/><path class="cls-16" d="M98.302 97.822v7.2h134.64v-7.2H98.302"/><path class="cls-12" d="M233.182 99.742l-1.92-1.92M233.182 103.582l-6-5.76M230.302 105.022l-7.2-7.2M226.462 105.022l-7.2-7.2M222.382 105.022l-7.2-7.2M218.302 105.022l-7.2-7.2M214.462 105.022l-7.2-7.2M210.382 105.022l-7.2-7.2M206.302 105.022l-7.2-7.2M202.222 105.022l-7.2-7.2M198.382 105.022l-7.2-7.2M194.302 105.022l-7.2-7.2M190.222 105.022l-7.2-7.2M186.382 105.022l-7.2-7.2M182.302 105.022l-7.2-7.2M178.222 105.022l-7.2-7.2M174.382 105.022l-7.2-7.2M170.302 105.022l-7.2-7.2M166.222 105.022l-7.2-7.2M162.142 105.022l-7.2-7.2M158.302 105.022l-7.2-7.2M154.222 105.022l-7.2-7.2M150.142 105.022l-7.2-7.2M146.302 105.022l-7.2-7.2M142.222 105.022l-7.2-7.2M138.142 105.022l-7.2-7.2M134.062 105.022l-7.2-7.2M130.222 105.022l-7.2-7.2M126.142 105.022l-7.2-7.2M122.062 105.022l-7.2-7.2M118.222 105.022l-7.2-7.2M114.142 105.022l-7.2-7.2M110.062 105.022l-7.2-7.2M106.222 105.022l-7.2-7.2M102.142 105.022l-3.6-3.6M231.502 105.022l1.68-1.68M227.422 105.022l5.76-5.76M223.342 105.022l7.2-7.2M219.262 105.022l7.2-7.2M215.422 105.022l7.2-7.2M211.342 105.022l7.2-7.2M207.262 105.022l7.2-7.2M203.422 105.022l7.2-7.2M199.342 105.022l7.2-7.2M195.262 105.022l7.2-7.2M191.422 105.022l7.2-7.2M187.342 105.022l7.2-7.2M183.262 105.022l7.2-7.2M179.182 105.022l7.2-7.2M175.342 105.022l7.2-7.2M171.262 105.022l7.2-7.2M167.182 105.022l7.2-7.2M163.342 105.022l7.2-7.2M159.262 105.022l7.2-7.2M155.182 105.022l7.2-7.2M151.342 105.022l7.2-7.2M147.262 105.022l7.2-7.2M143.182 105.022l7.2-7.2M139.102 105.022l7.2-7.2M135.262 105.022l7.2-7.2M131.182 105.022l7.2-7.2M127.102 105.022l7.2-7.2M123.262 105.022l7.2-7.2M119.182 105.022l7.2-7.2M115.102 105.022l7.2-7.2M111.022 105.022l7.2-7.2M107.182 105.022l7.2-7.2M103.102 105.022l7.2-7.2M99.022 105.022l7.2-7.2M98.542 101.662l3.84-3.84"/><path class="cls-13" d="M98.302 105.022h127.44M98.302 97.822h134.64M98.302 97.822h134.64M98.302 105.022h127.44"/><path class="cls-16" d="M65.902 105.022v-4.8l-4.8 4.8h4.8"/><path class="cls-12" d="M66.142 100.942l-.48-.24M66.142 105.022l-2.4-2.4M62.062 105.022l-.48-.48M63.022 105.022l3.12-2.88"/><path class="cls-16" d="M65.902 105.022v-4.8l-4.8 4.8h4.8"/><path class="cls-12" d="M66.142 100.942l-.48-.24M66.142 105.022l-2.4-2.4M62.062 105.022l-.48-.48M63.022 105.022l3.12-2.88"/><path class="cls-13" d="M61.102 105.022h4.8M61.102 105.022h4.8"/><path class="cls-3" d="M232.942 103.822h2.4v1.68h-2.4zM262.702 103.822h2.4v1.68h-2.4z"/><path class="cls-3" d="M235.342 103.822h27.36v1.68h-27.36zM235.342 103.822h27.36M235.102 97.822h27.84M262.462 97.822h.48"/><path class="cls-16" d="M232.942 97.822h2.16v6h-2.16"/><path class="cls-12" d="M235.342 97.822h-.24M235.342 101.902l-2.16-2.16M233.182 103.822v-.24M233.182 103.342l2.16-2.16M233.182 99.262l1.44-1.44"/><path class="cls-16" d="M265.102 97.822h-2.16v6h2.16"/><path class="cls-12" d="M265.342 99.742l-2.16-1.92M265.342 103.822l-2.16-2.16M264.622 103.822l.72-.48M263.182 101.422l2.16-2.16"/><path class="cls-13" d="M235.102 97.822v6M262.942 97.822v6M235.102 97.822v6M232.942 97.822h2.16M262.942 97.822v6M265.102 97.822h-2.16M232.942 105.022v-1.2M265.102 105.022v-1.2M232.942 97.822h2.16M265.102 97.822h-2.16M235.102 103.822h-2.16M262.942 103.822h2.16"/><path class="cls-12" d="M235.404 132.706c14.928 0 27.211-12.284 27.211-27.212M235.342 105.502v27.12"/><path class="cls-3" d="M65.902 103.822h2.64v1.68h-2.64zM95.662 103.822h2.64v1.68h-2.64zM68.542 103.822h27.12v1.68h-27.12zM68.542 103.822h27.12M68.062 97.822h27.84M95.422 97.822h.48"/><path class="cls-16" d="M65.892 97.84h2.268v5.953h-2.268v1.134"/><path class="cls-12" d="M68.302 99.262l-1.44-1.44M68.302 103.102l-2.16-2.16M66.142 102.142l2.16-2.16M66.142 98.062v-.24"/><path class="cls-13" d="M68.16 97.84v5.953h-2.268v1.134"/><path class="cls-16" d="M98.302 97.822h-2.4v6h2.4v1.2"/><path class="cls-12" d="M98.542 101.422l-2.4-2.4M96.862 103.822l-.72-.96M96.382 103.822l2.16-2.16M96.142 99.982l2.16-2.16"/><path class="cls-13" d="M98.302 97.822h-2.4v6h2.4v1.2"/><path class="cls-16" d="M62.302 14.302l5.76 6.96h11.76v-6.96h-17.52"/><path class="cls-12" d="M80.062 14.782l-.48-.48M80.062 18.622l-4.56-4.32M78.382 21.262l-6.96-6.96M74.542 21.262l-6.96-6.96M70.462 21.262l-6.96-6.96M78.622 21.262l1.44-1.2M74.542 21.262l5.52-5.28M70.702 21.262l6.96-6.96M67.582 20.302l6-6M65.662 18.142l3.84-3.84M63.742 15.982l1.92-1.68"/><path class="cls-16" d="M62.302 14.302l5.76 6.96h11.76v-6.96h-17.52"/><path class="cls-12" d="M80.062 14.782l-.48-.48M80.062 18.622l-4.56-4.32M78.382 21.262l-6.96-6.96M74.542 21.262l-6.96-6.96M70.462 21.262l-6.96-6.96M78.622 21.262l1.44-1.2M74.542 21.262l5.52-5.28M70.702 21.262l6.96-6.96M67.582 20.302l6-6M65.662 18.142l3.84-3.84M63.742 15.982l1.92-1.68"/><path class="cls-13" d="M79.822 14.302h-10.56M79.822 21.262h-11.76M79.822 21.262h-11.76M79.822 14.302h-10.56"/><path class="cls-16" d="M234.382 14.302v6.96h-118.8v-6.96h118.8"/><path class="cls-12" d="M234.622 16.942l-2.64-2.64M234.622 21.022l-6.72-6.72M230.782 21.262l-6.96-6.96M226.702 21.262l-6.96-6.96M222.862 21.262l-6.96-6.96M218.782 21.262l-6.96-6.96M214.702 21.262l-6.96-6.96M210.862 21.262l-6.96-6.96M206.782 21.262l-6.96-6.96M202.702 21.262l-6.96-6.96M198.862 21.262l-6.96-6.96M194.782 21.262l-6.96-6.96M190.702 21.262l-6.96-6.96M186.622 21.262l-6.96-6.96M182.782 21.262l-6.96-6.96M178.702 21.262l-6.96-6.96M174.622 21.262l-6.96-6.96M170.782 21.262l-6.96-6.96M166.702 21.262l-6.96-6.96M162.622 21.262l-6.96-6.96M158.542 21.262l-6.96-6.96M154.702 21.262l-6.96-6.96M150.622 21.262l-6.96-6.96M146.542 21.262l-6.96-6.96M142.702 21.262l-6.96-6.96M138.622 21.262l-6.96-6.96M134.542 21.262l-6.96-6.96M130.702 21.262l-6.96-6.96M126.622 21.262l-6.96-6.96M122.542 21.262l-6.72-6.96M118.462 21.262l-2.64-2.88M231.022 21.262l3.6-3.6M226.942 21.262l6.96-6.96M222.862 21.262l6.96-6.96M219.022 21.262l6.96-6.96M214.942 21.262l6.96-6.96M210.862 21.262l6.96-6.96M207.022 21.262l6.96-6.96M202.942 21.262l6.96-6.96M198.862 21.262l6.96-6.96M194.782 21.262l6.96-6.96M190.942 21.262l6.96-6.96M186.862 21.262l6.96-6.96M182.782 21.262l6.96-6.96M178.942 21.262l6.96-6.96M174.862 21.262l6.96-6.96M170.782 21.262l6.96-6.96M166.942 21.262l6.96-6.96M162.862 21.262l6.96-6.96M158.782 21.262l6.96-6.96M154.702 21.262l6.96-6.96M150.862 21.262l6.96-6.96M146.782 21.262l6.96-6.96M142.702 21.262l6.96-6.96M138.862 21.262l6.96-6.96M134.782 21.262l6.96-6.96M130.702 21.262l6.96-6.96M126.862 21.262l6.96-6.96M122.782 21.262l6.96-6.96M118.702 21.262l6.96-6.96M115.822 20.302l5.76-6M115.822 16.222l1.92-1.92"/><path class="cls-16" d="M234.382 21.262v-6.96h-118.8v6.96h118.8"/><path class="cls-12" d="M234.622 16.942l-2.64-2.64M234.622 21.022l-6.72-6.72M230.782 21.262l-6.96-6.96M226.702 21.262l-6.96-6.96M222.862 21.262l-6.96-6.96M218.782 21.262l-6.96-6.96M214.702 21.262l-6.96-6.96M210.862 21.262l-6.96-6.96M206.782 21.262l-6.96-6.96M202.702 21.262l-6.96-6.96M198.862 21.262l-6.96-6.96M194.782 21.262l-6.96-6.96M190.702 21.262l-6.96-6.96M186.622 21.262l-6.96-6.96M182.782 21.262l-6.96-6.96M178.702 21.262l-6.96-6.96M174.622 21.262l-6.96-6.96M170.782 21.262l-6.96-6.96M166.702 21.262l-6.96-6.96M162.622 21.262l-6.96-6.96M158.542 21.262l-6.96-6.96M154.702 21.262l-6.96-6.96M150.622 21.262l-6.96-6.96M146.542 21.262l-6.96-6.96M142.702 21.262l-6.96-6.96M138.622 21.262l-6.96-6.96M134.542 21.262l-6.96-6.96M130.702 21.262l-6.96-6.96M126.622 21.262l-6.96-6.96M122.542 21.262l-6.72-6.96M118.462 21.262l-2.64-2.88M231.022 21.262l3.6-3.6M226.942 21.262l6.96-6.96M222.862 21.262l6.96-6.96M219.022 21.262l6.96-6.96M214.942 21.262l6.96-6.96M210.862 21.262l6.96-6.96M207.022 21.262l6.96-6.96M202.942 21.262l6.96-6.96M198.862 21.262l6.96-6.96M194.782 21.262l6.96-6.96M190.942 21.262l6.96-6.96M186.862 21.262l6.96-6.96M182.782 21.262l6.96-6.96M178.942 21.262l6.96-6.96M174.862 21.262l6.96-6.96M170.782 21.262l6.96-6.96M166.942 21.262l6.96-6.96M162.862 21.262l6.96-6.96M158.782 21.262l6.96-6.96M154.702 21.262l6.96-6.96M150.862 21.262l6.96-6.96M146.782 21.262l6.96-6.96M142.702 21.262l6.96-6.96M138.862 21.262l6.96-6.96M134.782 21.262l6.96-6.96M130.702 21.262l6.96-6.96M126.862 21.262l6.96-6.96M122.782 21.262l6.96-6.96M118.702 21.262l6.96-6.96M115.822 20.302l5.76-6M115.822 16.222l1.92-1.92"/><path class="cls-13" d="M234.382 14.302h-118.8M234.382 21.262h-118.8M234.382 21.262h-118.8M234.382 14.302h-118.8M234.382 16.222v-1.92"/><path class="cls-3" d="M109.582 13.582h6v1.68h-6zM79.822 13.582h2.4v1.68h-2.4z"/><path class="cls-3" d="M82.222 13.582h27.36v1.68h-27.36zM109.582 15.262h-27.36M109.822 21.262h-27.84M82.462 21.262h-.48"/><path class="cls-16" d="M115.582 21.262h-5.76v-6h5.76"/><path class="cls-12" d="M115.822 18.382l-3.36-3.12M114.622 21.262l-4.56-4.56M110.542 21.262l-.48-.72M114.622 21.262l1.2-.96M110.782 21.262l5.04-5.04M110.062 18.142l2.64-2.88"/><path class="cls-16" d="M79.822 21.262h2.16v-6h-2.16"/><path class="cls-12" d="M82.222 16.942l-1.68-1.68M82.222 20.782l-2.16-2.16M80.062 20.062l2.16-2.16M80.062 15.982l.48-.72"/><path class="cls-13" d="M109.822 21.262v-6M81.982 21.262v-6M109.822 21.262v-6M115.582 21.262h-5.76M81.982 21.262v-6M79.822 21.262h2.16M115.582 14.302v.96M79.822 14.302v.96M115.582 21.262h-5.76M79.822 21.262h2.16M109.822 15.262h5.76M81.982 15.262h-2.16"/><path class="cls-16" d="M232.942 105.022h-7.2v232.08h7.2v-232.08"/><path class="cls-12" d="M233.182 107.662l-2.88-2.64M233.182 111.742l-6.72-6.72M233.182 115.822l-7.2-7.2M233.182 119.662l-7.2-7.2M233.182 123.742l-7.2-7.2M233.182 127.822l-7.2-7.2M233.182 131.662l-7.2-7.2M233.182 135.742l-7.2-7.2M233.182 139.822l-7.2-7.2M233.182 143.662l-7.2-7.2M233.182 147.742l-7.2-7.2M233.182 151.822l-7.2-7.2M233.182 155.902l-7.2-7.2M233.182 159.742l-7.2-7.2M233.182 163.822l-7.2-7.2M233.182 167.902l-7.2-7.2M233.182 171.742l-7.2-7.2M233.182 175.822l-7.2-7.2M233.182 179.902l-7.2-7.2M233.182 183.742l-7.2-7.2M233.182 187.822l-7.2-7.2M233.182 191.902l-7.2-7.2M233.182 195.982l-7.2-7.2M233.182 199.822l-7.2-7.2M233.182 203.902l-7.2-7.2M233.182 207.982l-7.2-7.2M233.182 211.822l-7.2-7.2M233.182 215.902l-7.2-7.2M233.182 219.982l-7.2-7.2M233.182 224.062l-7.2-7.2M233.182 227.902l-7.2-7.2M233.182 231.982l-7.2-7.2M233.182 236.062l-7.2-7.2M233.182 239.902l-7.2-7.2M233.182 243.982l-7.2-7.2M233.182 248.062l-7.2-7.2M233.182 251.902l-7.2-7.2M233.182 255.982l-7.2-7.2M233.182 260.062l-7.2-7.2M233.182 264.142l-7.2-7.2M233.182 267.982l-7.2-7.2M233.182 272.062l-7.2-7.2M233.182 276.142l-7.2-7.2M233.182 279.982l-7.2-7.2M233.182 284.062l-7.2-7.2M233.182 288.142l-7.2-7.2M233.182 291.982l-7.2-7.2M233.182 296.062l-7.2-7.2M233.182 300.142l-7.2-7.2M233.182 304.222l-7.2-7.2M233.182 308.062l-7.2-7.2M233.182 312.142l-7.2-7.2M233.182 316.222l-7.2-7.2M233.182 320.062l-7.2-7.2M233.182 324.142l-7.2-7.2M233.182 328.222l-7.2-7.2M233.182 332.302l-7.2-7.2M233.182 336.142l-7.2-7.2M230.062 337.102l-4.08-4.08M231.742 337.102l1.44-1.2M227.902 337.102l5.28-5.28M225.982 334.942l7.2-7.2M225.982 331.102l7.2-7.2M225.982 327.022l7.2-7.2M225.982 322.942l7.2-7.2M225.982 319.102l7.2-7.2M225.982 315.022l7.2-7.2M225.982 310.942l7.2-7.2M225.982 307.102l7.2-7.2M225.982 303.022l7.2-7.2M225.982 298.942l7.2-7.2M225.982 294.862l7.2-7.2M225.982 291.022l7.2-7.2M225.982 286.942l7.2-7.2M225.982 282.862l7.2-7.2M225.982 279.022l7.2-7.2M225.982 274.942l7.2-7.2M225.982 270.862l7.2-7.2M225.982 267.022l7.2-7.2M225.982 262.942l7.2-7.2M225.982 258.862l7.2-7.2M225.982 254.782l7.2-7.2M225.982 250.942l7.2-7.2M225.982 246.862l7.2-7.2M225.982 242.782l7.2-7.2M225.982 238.942l7.2-7.2M225.982 234.862l7.2-7.2M225.982 230.782l7.2-7.2M225.982 226.702l7.2-7.2M225.982 222.862l7.2-7.2M225.982 218.782l7.2-7.2M225.982 214.702l7.2-7.2M225.982 210.862l7.2-7.2M225.982 206.782l7.2-7.2M225.982 202.702l7.2-7.2M225.982 198.862l7.2-7.2M225.982 194.782l7.2-7.2M225.982 190.702l7.2-7.2M225.982 186.622l7.2-7.2M225.982 182.782l7.2-7.2M225.982 178.702l7.2-7.2M225.982 174.622l7.2-7.2M225.982 170.782l7.2-7.2M225.982 166.702l7.2-7.2M225.982 162.622l7.2-7.2M225.982 158.782l7.2-7.2M225.982 154.702l7.2-7.2M225.982 150.622l7.2-7.2M225.982 146.542l7.2-7.2M225.982 142.702l7.2-7.2M225.982 138.622l7.2-7.2M225.982 134.542l7.2-7.2M225.982 130.702l7.2-7.2M225.982 126.622l7.2-7.2M225.982 122.542l7.2-7.2M225.982 118.462l7.2-7.2M225.982 114.622l7.2-7.2M225.982 110.542l5.52-5.52M225.982 106.462l1.44-1.44"/><path class="cls-16" d="M232.942 105.022h-7.2v232.08h7.2v-232.08"/><path class="cls-12" d="M233.182 107.662l-2.88-2.64M233.182 111.742l-6.72-6.72M233.182 115.822l-7.2-7.2M233.182 119.662l-7.2-7.2M233.182 123.742l-7.2-7.2M233.182 127.822l-7.2-7.2M233.182 131.662l-7.2-7.2M233.182 135.742l-7.2-7.2M233.182 139.822l-7.2-7.2M233.182 143.662l-7.2-7.2M233.182 147.742l-7.2-7.2M233.182 151.822l-7.2-7.2M233.182 155.902l-7.2-7.2M233.182 159.742l-7.2-7.2M233.182 163.822l-7.2-7.2M233.182 167.902l-7.2-7.2M233.182 171.742l-7.2-7.2M233.182 175.822l-7.2-7.2M233.182 179.902l-7.2-7.2M233.182 183.742l-7.2-7.2M233.182 187.822l-7.2-7.2M233.182 191.902l-7.2-7.2M233.182 195.982l-7.2-7.2M233.182 199.822l-7.2-7.2M233.182 203.902l-7.2-7.2M233.182 207.982l-7.2-7.2M233.182 211.822l-7.2-7.2M233.182 215.902l-7.2-7.2M233.182 219.982l-7.2-7.2M233.182 224.062l-7.2-7.2M233.182 227.902l-7.2-7.2M233.182 231.982l-7.2-7.2M233.182 236.062l-7.2-7.2M233.182 239.902l-7.2-7.2M233.182 243.982l-7.2-7.2M233.182 248.062l-7.2-7.2M233.182 251.902l-7.2-7.2M233.182 255.982l-7.2-7.2M233.182 260.062l-7.2-7.2M233.182 264.142l-7.2-7.2M233.182 267.982l-7.2-7.2M233.182 272.062l-7.2-7.2M233.182 276.142l-7.2-7.2M233.182 279.982l-7.2-7.2M233.182 284.062l-7.2-7.2M233.182 288.142l-7.2-7.2M233.182 291.982l-7.2-7.2M233.182 296.062l-7.2-7.2M233.182 300.142l-7.2-7.2M233.182 304.222l-7.2-7.2M233.182 308.062l-7.2-7.2M233.182 312.142l-7.2-7.2M233.182 316.222l-7.2-7.2M233.182 320.062l-7.2-7.2M233.182 324.142l-7.2-7.2M233.182 328.222l-7.2-7.2M233.182 332.302l-7.2-7.2M233.182 336.142l-7.2-7.2M230.062 337.102l-4.08-4.08M231.742 337.102l1.44-1.2M227.902 337.102l5.28-5.28M225.982 334.942l7.2-7.2M225.982 331.102l7.2-7.2M225.982 327.022l7.2-7.2M225.982 322.942l7.2-7.2M225.982 319.102l7.2-7.2M225.982 315.022l7.2-7.2M225.982 310.942l7.2-7.2M225.982 307.102l7.2-7.2M225.982 303.022l7.2-7.2M225.982 298.942l7.2-7.2M225.982 294.862l7.2-7.2M225.982 291.022l7.2-7.2M225.982 286.942l7.2-7.2M225.982 282.862l7.2-7.2M225.982 279.022l7.2-7.2M225.982 274.942l7.2-7.2M225.982 270.862l7.2-7.2M225.982 267.022l7.2-7.2M225.982 262.942l7.2-7.2M225.982 258.862l7.2-7.2M225.982 254.782l7.2-7.2M225.982 250.942l7.2-7.2M225.982 246.862l7.2-7.2M225.982 242.782l7.2-7.2M225.982 238.942l7.2-7.2M225.982 234.862l7.2-7.2M225.982 230.782l7.2-7.2M225.982 226.702l7.2-7.2M225.982 222.862l7.2-7.2M225.982 218.782l7.2-7.2M225.982 214.702l7.2-7.2M225.982 210.862l7.2-7.2M225.982 206.782l7.2-7.2M225.982 202.702l7.2-7.2M225.982 198.862l7.2-7.2M225.982 194.782l7.2-7.2M225.982 190.702l7.2-7.2M225.982 186.622l7.2-7.2M225.982 182.782l7.2-7.2M225.982 178.702l7.2-7.2M225.982 174.622l7.2-7.2M225.982 170.782l7.2-7.2M225.982 166.702l7.2-7.2M225.982 162.622l7.2-7.2M225.982 158.782l7.2-7.2M225.982 154.702l7.2-7.2M225.982 150.622l7.2-7.2M225.982 146.542l7.2-7.2M225.982 142.702l7.2-7.2M225.982 138.622l7.2-7.2M225.982 134.542l7.2-7.2M225.982 130.702l7.2-7.2M225.982 126.622l7.2-7.2M225.982 122.542l7.2-7.2M225.982 118.462l7.2-7.2M225.982 114.622l7.2-7.2M225.982 110.542l5.52-5.52M225.982 106.462l1.44-1.44"/><path class="cls-13" d="M232.942 337.102v-232.08M225.742 337.102v-232.08M225.742 337.102v-232.08M232.942 337.102v-232.08M232.942 337.102h-7.2"/><path class="cls-16" d="M234.382 21.262h32.88l6.96-5.04h-39.84v5.04"/><path class="cls-12" d="M273.982 16.462v-.24M271.822 18.142l-1.92-1.92M269.422 19.822l-3.6-3.6M266.782 21.262l-5.04-5.04M262.942 21.262l-5.04-5.04M258.862 21.262l-5.04-5.04M254.782 21.262l-5.04-5.04M250.942 21.262l-5.04-5.04M246.862 21.262l-5.04-5.04M242.782 21.262l-5.04-5.04M238.942 21.262l-4.32-4.32M234.862 21.262l-.24-.24M267.022 21.262l5.04-5.04M262.942 21.262l5.04-5.04M259.102 21.262l5.04-5.04M255.022 21.262l5.04-5.04M250.942 21.262l5.04-5.04M247.102 21.262l5.04-5.04M243.022 21.262l5.04-5.04M238.942 21.262l5.04-5.04M235.102 21.262l5.04-5.04M234.622 17.662l1.44-1.44"/><path class="cls-16" d="M234.382 21.262h32.88l6.96-5.04h-39.84v5.04"/><path class="cls-12" d="M273.982 16.462v-.24M271.822 18.142l-1.92-1.92M269.422 19.822l-3.6-3.6M266.782 21.262l-5.04-5.04M262.942 21.262l-5.04-5.04M258.862 21.262l-5.04-5.04M254.782 21.262l-5.04-5.04M250.942 21.262l-5.04-5.04M246.862 21.262l-5.04-5.04M242.782 21.262l-5.04-5.04M238.942 21.262l-4.32-4.32M234.862 21.262l-.24-.24M267.022 21.262l5.04-5.04M262.942 21.262l5.04-5.04M259.102 21.262l5.04-5.04M255.022 21.262l5.04-5.04M250.942 21.262l5.04-5.04M247.102 21.262l5.04-5.04M243.022 21.262l5.04-5.04M238.942 21.262l5.04-5.04M235.102 21.262l5.04-5.04M234.622 17.662l1.44-1.44"/><path class="cls-13" d="M274.222 16.222h-39.84M267.262 21.262h-32.88M267.262 21.262h-32.88M274.222 16.222h-39.84M234.382 21.262"/><path class="cls-3" d="M227.902 63.742v34.08M220.222 63.742v34.08M212.542 63.742v34.08M204.862 63.742v34.08M197.182 63.742v34.08M189.742 63.742v34.08M182.062 63.742v34.08M174.382 63.742v34.08M109.342 56.782h122.4v5.52h-122.4zM185.422 62.302l7.92 35.52M166.702 63.742v34.08M159.022 63.742v34.08M151.342 63.742v34.08M143.662 63.742v34.08M135.982 63.742v34.08M128.302 63.742v34.08M120.862 63.742v34.08M113.182 63.742v34.08"/><path class="cls-3" d="M107.902 55.342h125.28v8.4h-125.28zM189.624 80.832l3.828 3.827M193.452 77.005l-3.828 3.827M193.342 84.622v-7.68M113.089 80.832l3.827 3.827M116.916 77.005l-3.827 3.827M117.022 84.622v-7.68"/><path class="cls-16" d="M.142 63.742l7.44-6.96v-45.36l-7.44-7.2v59.52"/><path class="cls-12" d="M7.822 14.542l-7.44-7.44M7.822 18.622l-7.44-7.44M7.822 22.702l-7.44-7.44M7.822 26.542l-7.44-7.44M7.822 30.622l-7.44-7.44M7.822 34.702l-7.44-7.44M7.822 38.782l-7.44-7.44M7.822 42.622l-7.44-7.44M7.822 46.702l-7.44-7.44M7.822 50.782l-7.44-7.44M7.822 54.622l-7.44-7.44M6.622 57.742l-6.24-6.48M4.702 59.662l-4.32-4.32M2.542 61.582l-2.16-2.4M.382 63.502v-.24M.382 63.502l7.44-7.44M.382 59.662l7.44-7.44M.382 55.582l7.44-7.44M.382 51.502l7.44-7.44M.382 47.422l7.44-7.44M.382 43.582l7.44-7.44M.382 39.502l7.44-7.44M.382 35.422l7.44-7.44M.382 31.582l7.44-7.44M.382 27.502l7.44-7.44M.382 23.422l7.44-7.44M.382 19.582l7.44-7.44M.382 15.502l5.52-5.76M.382 11.422l3.6-3.6M.382 7.342l1.44-1.44"/><path class="cls-16" d="M.142 63.742l7.44-6.96v-45.36l-7.44-7.2v59.52"/><path class="cls-12" d="M7.822 14.542l-7.44-7.44M7.822 18.622l-7.44-7.44M7.822 22.702l-7.44-7.44M7.822 26.542l-7.44-7.44M7.822 30.622l-7.44-7.44M7.822 34.702l-7.44-7.44M7.822 38.782l-7.44-7.44M7.822 42.622l-7.44-7.44M7.822 46.702l-7.44-7.44M7.822 50.782l-7.44-7.44M7.822 54.622l-7.44-7.44M6.622 57.742l-6.24-6.48M4.702 59.662l-4.32-4.32M2.542 61.582l-2.16-2.4M.382 63.502v-.24M.382 63.502l7.44-7.44M.382 59.662l7.44-7.44M.382 55.582l7.44-7.44M.382 51.502l7.44-7.44M.382 47.422l7.44-7.44M.382 43.582l7.44-7.44M.382 39.502l7.44-7.44M.382 35.422l7.44-7.44M.382 31.582l7.44-7.44M.382 27.502l7.44-7.44M.382 23.422l7.44-7.44M.382 19.582l7.44-7.44M.382 15.502l5.52-5.76M.382 11.422l3.6-3.6M.382 7.342l1.44-1.44"/><path class="cls-13" d="M.142 4.222v59.52M7.582 11.422v45.36M7.582 11.422v45.36M.142 4.222v59.52"/><path class="cls-16" d="M.142 4.222l7.44 7.2h54.72l6.96-7.2H.142"/><path class="cls-12" d="M67.342 6.142l-1.92-1.92M65.422 8.302l-4.08-4.08M63.502 10.222l-6-6M60.622 11.422l-7.2-7.2M56.542 11.422l-7.2-7.2M52.702 11.422l-7.2-7.2M48.622 11.422l-7.2-7.2M44.542 11.422l-7.2-7.2M40.462 11.422l-7.2-7.2M36.622 11.422l-7.2-7.2M32.542 11.422l-7.2-7.2M28.462 11.422l-7.2-7.2M24.622 11.422l-7.2-7.2M20.542 11.422l-7.2-7.2M16.462 11.422l-7.2-7.2M12.622 11.422l-7.2-7.2M8.542 11.422l-7.2-7.2M60.382 11.422l7.2-7.2M56.302 11.422l7.2-7.2M52.462 11.422l7.2-7.2M48.382 11.422l7.2-7.2M44.302 11.422l7.2-7.2M40.462 11.422l7.2-7.2M36.382 11.422l7.2-7.2M32.302 11.422l7.2-7.2M28.462 11.422l7.2-7.2M24.382 11.422l7.2-7.2M20.302 11.422l7.2-7.2M16.222 11.422l7.2-7.2M12.382 11.422l7.2-7.2M8.302 11.422l7.2-7.2M5.902 9.742l5.52-5.52M3.982 7.822l3.6-3.6M1.822 5.902l1.68-1.68"/><path class="cls-16" d="M.142 4.222l7.44 7.2h54.72l6.96-7.2H.142"/><path class="cls-12" d="M67.342 6.142l-1.92-1.92M65.422 8.302l-4.08-4.08M63.502 10.222l-6-6M60.622 11.422l-7.2-7.2M56.542 11.422l-7.2-7.2M52.702 11.422l-7.2-7.2M48.622 11.422l-7.2-7.2M44.542 11.422l-7.2-7.2M40.462 11.422l-7.2-7.2M36.622 11.422l-7.2-7.2M32.542 11.422l-7.2-7.2M28.462 11.422l-7.2-7.2M24.622 11.422l-7.2-7.2M20.542 11.422l-7.2-7.2M16.462 11.422l-7.2-7.2M12.622 11.422l-7.2-7.2M8.542 11.422l-7.2-7.2M60.382 11.422l7.2-7.2M56.302 11.422l7.2-7.2M52.462 11.422l7.2-7.2M48.382 11.422l7.2-7.2M44.302 11.422l7.2-7.2M40.462 11.422l7.2-7.2M36.382 11.422l7.2-7.2M32.302 11.422l7.2-7.2M28.462 11.422l7.2-7.2M24.382 11.422l7.2-7.2M20.302 11.422l7.2-7.2M16.222 11.422l7.2-7.2M12.382 11.422l7.2-7.2M8.302 11.422l7.2-7.2M5.902 9.742l5.52-5.52M3.982 7.822l3.6-3.6M1.822 5.902l1.68-1.68"/><path class="cls-13" d="M69.262 4.222H.142M62.302 11.422H7.582M62.302 11.422H7.582M69.262 4.222H.142"/><path class="cls-16" d="M69.262 4.222l-6.96 7.2v2.88h6.96V4.222"/><path class="cls-12" d="M69.502 8.062l-2.16-1.92M69.502 12.142l-4.08-3.84M67.582 14.302l-4.08-4.08M63.502 14.302l-.96-1.2M65.662 14.302l3.84-3.84M62.542 13.342l6.96-6.96"/><path class="cls-16" d="M69.262 4.222l-6.96 7.2v2.88h6.96V4.222"/><path class="cls-12" d="M69.502 8.062l-2.16-1.92M69.502 12.142l-4.08-3.84M67.582 14.302l-4.08-4.08M63.502 14.302l-.96-1.2M65.662 14.302l3.84-3.84M62.542 13.342l6.96-6.96"/><path class="cls-13" d="M69.262 14.302V4.222M62.302 14.302v-2.88M62.302 14.302v-2.88M69.262 14.302V4.222"/><path class="cls-16" d="M331.822 21.262v79.44l5.04 4.32v-83.76h-5.04"/><path class="cls-12" d="M332.062 24.382l3.12-3.12M332.062 28.702l5.04-5.04M332.062 33.022l5.04-5.04M332.062 37.102l5.04-5.04M332.062 41.422l5.04-5.04M332.062 45.742l5.04-5.04M332.062 49.822l5.04-5.04M332.062 54.142l5.04-5.04M332.062 58.462l5.04-5.04M332.062 62.782l5.04-5.04M332.062 66.862l5.04-5.04M332.062 71.182l5.04-5.04M332.062 75.502l5.04-5.04M332.062 79.582l5.04-5.04M332.062 83.902l5.04-5.04M332.062 88.222l5.04-5.04M332.062 92.302l5.04-5.04M332.062 96.622l5.04-5.04M332.062 100.702l5.04-4.8M334.462 102.862l2.64-2.64M336.622 104.782l.48-.48"/><path class="cls-16" d="M331.822 21.262v79.44l5.04 4.32v-83.76h-5.04"/><path class="cls-12" d="M332.062 24.382l3.12-3.12M332.062 28.702l5.04-5.04M332.062 33.022l5.04-5.04M332.062 37.102l5.04-5.04M332.062 41.422l5.04-5.04M332.062 45.742l5.04-5.04M332.062 49.822l5.04-5.04M332.062 54.142l5.04-5.04M332.062 58.462l5.04-5.04M332.062 62.782l5.04-5.04M332.062 66.862l5.04-5.04M332.062 71.182l5.04-5.04M332.062 75.502l5.04-5.04M332.062 79.582l5.04-5.04M332.062 83.902l5.04-5.04M332.062 88.222l5.04-5.04M332.062 92.302l5.04-5.04M332.062 96.622l5.04-5.04M332.062 100.702l5.04-4.8M334.462 102.862l2.64-2.64M336.622 104.782l.48-.48"/><path class="cls-13" d="M336.862 105.022v-83.76M331.822 100.702v-79.44M336.862 21.262h-5.04M331.822 100.702v-79.44M336.862 105.022v-83.76"/><path class="cls-16" d="M336.862 105.022h-4.32v23.04h4.32v-23.04"/><path class="cls-12" d="M332.782 108.622l3.6-3.6M332.782 112.942l4.32-4.32M332.782 117.262l4.32-4.32M332.782 121.342l4.32-4.32M332.782 125.662l4.32-4.32M334.462 128.062l2.64-2.4"/><path class="cls-16" d="M336.862 105.022h-4.32v23.04h4.32v-23.04"/><path class="cls-12" d="M332.782 108.622l3.6-3.6M332.782 112.942l4.32-4.32M332.782 117.262l4.32-4.32M332.782 121.342l4.32-4.32M332.782 125.662l4.32-4.32M334.462 128.062l2.64-2.4"/><path class="cls-13" d="M336.862 128.062v-23.04M332.542 128.062v-23.04M332.542 128.062v-23.04M336.862 128.062v-23.04"/><path class="cls-16" d="M336.862 200.062h-4.32v-46.8h4.32v46.8"/><path class="cls-12" d="M332.782 155.422l2.16-2.16M332.782 159.742l4.32-4.32M332.782 164.062l4.32-4.32M332.782 168.142l4.32-4.32M332.782 172.462l4.32-4.32M332.782 176.782l4.32-4.32M332.782 180.862l4.32-4.32M332.782 185.182l4.32-4.32M332.782 189.502l4.32-4.32M332.782 193.582l4.32-4.32M332.782 197.902l4.32-4.32M334.702 200.062l2.4-2.16"/><path class="cls-16" d="M332.542 200.062h4.32v-46.8h-4.32v46.8"/><path class="cls-12" d="M332.782 155.422l2.16-2.16M332.782 159.742l4.32-4.32M332.782 164.062l4.32-4.32M332.782 168.142l4.32-4.32M332.782 172.462l4.32-4.32M332.782 176.782l4.32-4.32M332.782 180.862l4.32-4.32M332.782 185.182l4.32-4.32M332.782 189.502l4.32-4.32M332.782 193.582l4.32-4.32M332.782 197.902l4.32-4.32M334.702 200.062l2.4-2.16"/><path class="cls-13" d="M336.862 174.622v-21.36M336.862 200.062v-21.36M332.542 200.062v-46.8M332.542 200.062v-46.8M336.862 174.622v-21.36M336.862 200.062v-21.36"/><path class="cls-16" d="M336.862 332.062h-4.32v-106.8h4.32v106.8"/><path class="cls-12" d="M332.782 227.662l2.4-2.4M332.782 231.982l4.32-4.32M332.782 236.302l4.32-4.32M332.782 240.382l4.32-4.32M332.782 244.702l4.32-4.32M332.782 249.022l4.32-4.32M332.782 253.102l4.32-4.32M332.782 257.422l4.32-4.32M332.782 261.742l4.32-4.32M332.782 266.062l4.32-4.32M332.782 270.142l4.32-4.32M332.782 274.462l4.32-4.32M332.782 278.782l4.32-4.32M332.782 282.862l4.32-4.32M332.782 287.182l4.32-4.32M332.782 291.502l4.32-4.32M332.782 295.582l4.32-4.32M332.782 299.902l4.32-4.32M332.782 304.222l4.32-4.32M332.782 308.542l4.32-4.32M332.782 312.622l4.32-4.32M332.782 316.942l4.32-4.32M332.782 321.262l4.32-4.32M332.782 325.342l4.32-4.32M332.782 329.662l4.32-4.32M334.462 332.062l2.64-2.4"/><path class="cls-16" d="M332.542 332.062h4.32v-106.8h-4.32v106.8"/><path class="cls-12" d="M332.782 227.662l2.4-2.4M332.782 231.982l4.32-4.32M332.782 236.302l4.32-4.32M332.782 240.382l4.32-4.32M332.782 244.702l4.32-4.32M332.782 249.022l4.32-4.32M332.782 253.102l4.32-4.32M332.782 257.422l4.32-4.32M332.782 261.742l4.32-4.32M332.782 266.062l4.32-4.32M332.782 270.142l4.32-4.32M332.782 274.462l4.32-4.32M332.782 278.782l4.32-4.32M332.782 282.862l4.32-4.32M332.782 287.182l4.32-4.32M332.782 291.502l4.32-4.32M332.782 295.582l4.32-4.32M332.782 299.902l4.32-4.32M332.782 304.222l4.32-4.32M332.782 308.542l4.32-4.32M332.782 312.622l4.32-4.32M332.782 316.942l4.32-4.32M332.782 321.262l4.32-4.32M332.782 325.342l4.32-4.32M332.782 329.662l4.32-4.32M334.462 332.062l2.64-2.4"/><path class="cls-13" d="M336.862 332.062v-106.8M332.542 248.542v-23.28M332.542 332.062v-79.2M332.542 248.542v-23.28M336.862 332.062v-106.8M332.542 332.062v-79.2M336.862 332.062h-4.32"/><path class="cls-3" d="M336.862 153.262v-25.2M332.542 153.262v-25.2M336.862 152.062h-4.32M336.862 129.262h-4.32"/><path class="cls-13" d="M336.862 153.262h-4.32M336.862 128.062h-4.32"/><path class="cls-12" d="M359.42 151.983c0-12.442-10.237-22.678-22.678-22.678M336.862 152.062h22.56"/><path class="cls-3" d="M336.862 225.262v-25.2M332.542 225.262v-25.2M336.862 224.062h-4.32M336.862 201.262h-4.32"/><path class="cls-13" d="M336.862 225.262h-4.32M336.862 200.062h-4.32"/><path class="cls-12" d="M336.742 223.983a22.696 22.696 0 0 0 16.037-6.644 22.684 22.684 0 0 0 6.64-16.034M336.862 201.262h22.56"/><path class="cls-16" d="M302.302 100.702v4.32h-28.08v-4.32h28.08"/><path class="cls-12" d="M274.462 103.342l2.4-2.64M276.862 105.022l4.32-4.32M281.182 105.022l4.32-4.32M285.262 105.022l4.32-4.32M289.582 105.022l4.32-4.32M293.902 105.022l4.32-4.32M297.982 105.022l4.32-4.32M302.302 105.022h.24"/><path class="cls-16" d="M302.302 105.022v-4.32h-28.08v4.32h28.08"/><path class="cls-12" d="M274.462 103.342l2.4-2.64M276.862 105.022l4.32-4.32M281.182 105.022l4.32-4.32M285.262 105.022l4.32-4.32M289.582 105.022l4.32-4.32M293.902 105.022l4.32-4.32M297.982 105.022l4.32-4.32M302.302 105.022h.24"/><path class="cls-13" d="M302.302 100.702h-28.08M302.302 105.022h-28.08M274.222 100.702v4.32M302.302 105.022h-28.08M302.302 100.702h-28.08"/><path class="cls-16" d="M327.502 105.022h9.36l-5.04-4.32h-4.32v4.32"/><path class="cls-12" d="M327.742 100.942l.24-.24M327.742 105.022l4.32-4.32M332.062 105.022l2.4-2.16M336.382 105.022l.24-.24"/><path class="cls-16" d="M327.502 105.022h9.36l-5.04-4.32h-4.32v4.32"/><path class="cls-12" d="M327.742 100.942l.24-.24M327.742 105.022l4.32-4.32M332.062 105.022l2.4-2.16M336.382 105.022l.24-.24"/><path class="cls-13" d="M331.822 100.702h-4.32M332.542 105.022h-5.04M332.542 105.022h-5.04M331.822 100.702h-4.32"/><path class="cls-3" d="M327.502 100.702h-25.2M327.502 105.022h-25.2M326.302 100.702v4.32M303.502 100.702v4.32"/><path class="cls-13" d="M327.502 100.702v4.32M302.302 100.702v4.32"/><path class="cls-12" d="M326.254 77.998c-12.44 0-22.678 10.236-22.678 22.677M326.302 100.702v-22.8"/><path class="cls-16" d="M422.302 178.702v-4.08h-85.44v4.08h85.44"/><path class="cls-12" d="M337.102 176.542l1.92-1.92M339.262 178.702l4.08-4.08M343.342 178.702l4.08-4.08M347.662 178.702l4.08-4.08M351.982 178.702l4.08-4.08M356.062 178.702l4.08-4.08M360.382 178.702l4.08-4.08M364.702 178.702l4.08-4.08M369.022 178.702l4.08-4.08M373.102 178.702l4.08-4.08M377.422 178.702l4.08-4.08M381.742 178.702l4.08-4.08M385.822 178.702l4.08-4.08M390.142 178.702l4.08-4.08M394.462 178.702l4.08-4.08M398.542 178.702l4.08-4.08M402.862 178.702l4.08-4.08M407.182 178.702l4.08-4.08M411.502 178.702l4.08-4.08M415.582 178.702l4.08-4.08M419.902 178.702l2.64-2.4"/><path class="cls-16" d="M422.302 178.702v-4.08h-85.44v4.08h85.44"/><path class="cls-12" d="M337.102 176.542l1.92-1.92M339.262 178.702l4.08-4.08M343.342 178.702l4.08-4.08M347.662 178.702l4.08-4.08M351.982 178.702l4.08-4.08M356.062 178.702l4.08-4.08M360.382 178.702l4.08-4.08M364.702 178.702l4.08-4.08M369.022 178.702l4.08-4.08M373.102 178.702l4.08-4.08M377.422 178.702l4.08-4.08M381.742 178.702l4.08-4.08M385.822 178.702l4.08-4.08M390.142 178.702l4.08-4.08M394.462 178.702l4.08-4.08M398.542 178.702l4.08-4.08M402.862 178.702l4.08-4.08M407.182 178.702l4.08-4.08M411.502 178.702l4.08-4.08M415.582 178.702l4.08-4.08M419.902 178.702l2.64-2.4"/><path class="cls-13" d="M336.862 178.702h85.44M336.862 174.622h85.44M336.862 174.622h85.44M336.862 178.702h85.44M422.302 174.622v4.08"/><path class="cls-16" d="M232.942 248.542v4.32h27.12v-4.32h-27.12"/><path class="cls-12" d="M233.182 250.702l2.16-2.16M235.342 252.862l4.32-4.32M239.422 252.862l4.32-4.32M243.742 252.862l4.32-4.32M248.062 252.862l4.32-4.32M252.142 252.862l4.32-4.32M256.462 252.862l3.84-3.6"/><path class="cls-16" d="M232.942 248.542v4.32h27.12v-4.32h-27.12"/><path class="cls-12" d="M233.182 250.702l2.16-2.16M235.342 252.862l4.32-4.32M239.422 252.862l4.32-4.32M243.742 252.862l4.32-4.32M248.062 252.862l4.32-4.32M252.142 252.862l4.32-4.32M256.462 252.862l3.84-3.6"/><path class="cls-13" d="M260.062 248.542h-27.12M260.062 252.862h-27.12M260.062 252.862h-27.12M260.062 248.542h-27.12"/><path class="cls-16" d="M305.182 252.862h27.36v-4.32h-27.36v4.32"/><path class="cls-12" d="M305.422 250.702l2.16-2.16M307.582 252.862l4.32-4.32M311.662 252.862l4.32-4.32M315.982 252.862l4.32-4.32M320.302 252.862l4.32-4.32M324.382 252.862l4.32-4.32M328.702 252.862l4.08-3.84"/><path class="cls-16" d="M305.182 252.862h27.36v-4.32h-27.36v4.32"/><path class="cls-12" d="M305.422 250.702l2.16-2.16M307.582 252.862l4.32-4.32M311.662 252.862l4.32-4.32M315.982 252.862l4.32-4.32M320.302 252.862l4.32-4.32M324.382 252.862l4.32-4.32M328.702 252.862l4.08-3.84"/><path class="cls-13" d="M332.542 248.542h-27.36M332.542 252.862h-27.36M332.542 252.862h-27.36M332.542 248.542h-27.36M232.942 252.862v-4.32"/><path class="cls-3" d="M303.742 248.542v4.32M261.262 248.542v4.32"/><path class="cls-13" d="M305.182 248.542v4.32M260.062 248.542v4.32"/><path class="cls-12" d="M303.862 227.242c-11.664 0-21.262 9.597-21.262 21.259M282.6 248.5c0-11.66-9.595-21.258-21.26-21.258M303.742 248.542v-21.36M261.262 248.542v-21.36"/><path class="cls-3" d="M313.582 305.422h.72v17.04h-.72zM314.302 321.742h15.12v.72h-15.12zM314.302 305.422h15.12v.48h-15.12zM313.582 330.862h.72v1.2h-.72zM329.422 305.422h.72v17.04h-.72zM313.582 288.382h.72v17.04h-.72zM314.302 304.702h15.12v.72h-15.12zM314.302 288.382h15.12v.48h-15.12zM329.422 288.382h.72v17.04h-.72zM313.582 271.342h.72v17.04h-.72zM314.302 287.662h15.12v.72h-15.12zM314.302 271.342h15.12v.48h-15.12zM329.422 271.342h.72v17.04h-.72zM313.582 254.302h.72v17.04h-.72z"/><path class="cls-3" d="M314.302 270.862h15.12v.48h-15.12zM314.302 254.302h15.12v.48h-15.12zM329.422 254.302h.72v17.04h-.72zM313.582 253.102h.72v1.2h-.72zM313.582 322.462h.72v8.4h-.72zM314.302 330.382h15.12v.48h-15.12zM314.302 322.462h15.12v.48h-15.12zM329.422 322.462h.72v8.4h-.72z"/><path class="cls-15" d="M329.422 256.222h2.64v10.08h-2.64z"/><path class="cls-3" d="M329.422 256.222h2.64v10.08h-2.64zM329.422 255.982v10.56-10.56zM329.422 256.942h-8.64"/><path class="cls-3" d="M329.422 265.582l-1.68-.24-1.68-.48-1.44-.72-1.2-1.2-1.2-1.2-.72-1.44-.48-1.68-.24-1.68M339.262 346.702l-8.64 40.8h-96.96l-8.4-40.8"/><path class="cls-3" d="M340.942 346.702l-8.88 42.48h-99.84l-8.88-42.48"/><path class="cls-12" d="M385.356 336.97a19.07 19.07 0 0 1 3.209-10.543 19.287 19.287 0 0 1 2.364-2.878 18.919 18.919 0 0 1 2.878-2.362 18.835 18.835 0 0 1 1.596-.957 18.84 18.84 0 0 1 5.244-1.882 19.068 19.068 0 0 1 3.703-.37M404.302 317.902v18.96M385.342 336.862v-1.44M385.102 333.982v-.72M385.102 333.262l-.24-.72"/><path class="cls-7" d="M384.622 331.582l-.72-1.92"/><path class="cls-12" d="M383.422 328.462l-.24-.48M383.182 327.982l-.48-.72"/><path class="cls-11" d="M382.222 326.542l-1.2-1.68"/><path class="cls-12" d="M380.062 323.902l-.24-.24M379.822 323.662l-.72-.72M378.142 321.982l-1.2-.72"/><path class="cls-9" d="M376.942 321.262l-1.68-.96"/><path class="cls-12" d="M375.262 320.302l-.72-.48M373.342 319.342l-1.44-.48M370.462 318.622l-.48-.24M369.982 318.382l-.96-.24M367.582 318.142l-1.2-.24"/><path class="cls-4" d="M366.382 317.902v18.96"/><path class="cls-12" d="M366.382 336.382v.48M381.715 16.225a19.07 19.07 0 0 0 .367 3.702c.123.609.274 1.211.457 1.806a18.936 18.936 0 0 0 2.385 5.035 18.91 18.91 0 0 0 5.24 5.24 19.064 19.064 0 0 0 6.842 2.84 19.133 19.133 0 0 0 3.7.37M400.702 35.182v-18.96M381.742 16.222l-.24 1.44M381.262 19.102v.72M381.262 19.822l-.24.72"/><path class="cls-8" d="M380.782 21.742l-.48 1.68"/><path class="cls-12" d="M379.822 24.862l-.24.24M379.582 25.102l-.48.96M378.142 27.262l-.72.96"/><path class="cls-14" d="M377.422 28.222l-1.2 1.44"/><path class="cls-12" d="M376.222 29.662l-.96.72M374.302 31.342l-.96.72"/><path class="cls-14" d="M373.342 32.062l-1.68.96"/><path class="cls-12" d="M371.662 33.022l-.96.48M369.262 33.982l-.96.48"/><path class="cls-6" d="M368.302 34.462l-1.92.48"/><path class="cls-12" d="M366.382 34.942l-1.2.24M363.742 35.182h-.96"/><path class="cls-4" d="M362.782 35.182v-18.96"/><path class="cls-12" d="M362.782 16.702v-.48M312.223 316.959c-11.042 0-20.126 9.084-20.126 20.126M312.142 316.942v20.16"/><path class="cls-4" d="M272.062 316.942l3.84.48 3.84.96 3.36 1.92 3.12 2.64 2.4 2.88 1.92 3.6 1.2 3.84.24 3.84"/><path class="cls-10" d="M272.062 316.942v20.16"/><path class="cls-12" d="M252.622 339.262h59.28v3.6h-59.28z"/><path class="cls-3" d="M296.782 176.542v1.44M296.782 177.982l-.24 1.2M296.542 179.182v.24M296.062 180.622v.24M295.582 182.302l-.48.96M295.102 183.262l-.72 1.2M294.382 184.462l-.24.24M293.182 185.902l-.24.24M291.982 187.102l-.48.24M291.502 187.342l-.96.96M290.542 188.302l-.72.48M288.622 189.262l-.48.24M286.942 189.982h-.24M286.702 189.982l-1.44.48M285.262 190.462h-1.2M282.862 190.702h-.24M282.622 190.702h-.24M280.942 190.702l-1.2-.24M279.742 190.462l-1.2-.48M278.542 189.982h-.24M276.862 189.502l-.24-.24M275.422 188.782l-.72-.48M274.702 188.302l-1.2-.96M273.502 187.342l-.24-.24M272.062 186.142v-.24M271.102 184.702l-.24-.24M270.862 184.462l-.72-1.2M270.142 183.262l-.48-.96M269.182 180.862v-.24M268.702 179.422v-.24M268.702 179.182l-.24-1.2M268.462 177.982v-1.44M268.462 175.102v-.24M268.702 173.422l.24-.96M268.942 172.462l.48-1.44M269.422 171.022l.24-.24M270.382 169.582v-.24M271.342 168.142l.24-.72M271.582 167.422l.96-.96M272.542 166.462l.72-.48M274.222 165.022l.24-.24M275.662 164.062h.24M275.902 164.062l1.2-.72M277.102 163.342l1.2-.24M279.742 162.622h.24M281.422 162.382h1.2M282.622 162.382h1.44M285.502 162.622h.24M287.182 163.102l.96.24M288.142 163.342l1.2.72M289.342 164.062l.48.24M291.022 165.022l.24.24M292.222 166.222l.48.24M292.702 166.462l.96.96M293.662 167.422l.48.96M294.862 169.342l.24.24M295.582 171.022l.48 1.44M296.062 172.462l.48 1.2M296.782 175.102v.24"/></g><g id="Mbel"><path class="cls-1" d="M271.342 151.342h22.56v51.12h-22.56zM261.413 200.967v-12.756M269.916 200.967h-8.503M261.413 188.211h8.503M261.413 183.245v-12.756M269.916 183.245h-8.503M261.413 170.489h8.503M261.413 165.521v-12.756M269.916 165.521h-8.503M261.413 152.765h8.503M303.931 200.967v-12.756M295.428 200.967h8.503M303.931 188.211h-8.503M303.931 183.245v-12.756M295.428 183.245h8.503M303.931 170.489h-8.503M303.931 165.521v-12.756M295.428 165.521h8.503M303.931 152.765h-8.503M363.982 57.742h56.64v45.36h-56.64zM338.062 159.262h56.64v15.36h-56.64zM400.382 130.688a79.255 79.255 0 0 1 10.983 4.79 2.384 2.384 0 0 1 1.257 2.317 17.615 17.615 0 0 1-3.357 8.864 2.378 2.378 0 0 1-2.477.903 79.31 79.31 0 0 1-11.4-3.684l-.072-.029.01-.077c.086-.686.237-1.363.458-2.02a123.826 123.826 0 0 1 3.487-9.21c.272-.637.603-1.245.994-1.815l.046-.065.071.026"/><path class="cls-1" d="M401.527 130.629c.293-.174.617-.285.953-.325a8.844 8.844 0 0 1 4.467.62 34.966 34.966 0 0 1 5.438 2.858 16.36 16.36 0 0 1 3.334 2.846c.561.63.823 1.473.71 2.31a22.1 22.1 0 0 1-3.554 9.387 2.89 2.89 0 0 1-2.064 1.26c-1.457.17-2.93.146-4.383-.077-2.025-.31-4.022-.8-5.966-1.461a8.824 8.824 0 0 1-3.756-2.494 2.363 2.363 0 0 1-.497-.874M392.302 182.062h28.32v56.64h-28.32zM358.462 281.422h7.44v11.28h-7.44zM338.542 264.382h19.92v45.36h-19.92z"/><path class="cls-2" d="M405.022 273.982h15.6v56.88h-15.6z"/></g><g id="Text"><path d="M276.453 122.623h2.103v.576h-2.103v1.823h2.103v.576h-2.775v-5.333h2.775v.576h-2.103v1.782zM281.48 122.92v-.04c0-.345-.279-.56-.702-.56-.409 0-.664.208-.664.527s.16.44.823.624c.471.128.72.248.895.424.185.184.296.448.296.72 0 .64-.527 1.07-1.31 1.07-.84 0-1.312-.39-1.376-1.134h.6c.04.415.312.64.776.64.415 0 .687-.217.687-.545 0-.32-.208-.48-.84-.64-.8-.215-1.159-.55-1.159-1.11 0-.64.52-1.072 1.295-1.072.784 0 1.256.4 1.287 1.095h-.607zM285.025 122.92v-.04c0-.345-.28-.56-.703-.56-.409 0-.665.208-.665.527s.16.44.824.624c.472.128.72.248.895.424.185.184.296.448.296.72 0 .64-.527 1.07-1.31 1.07-.84 0-1.312-.39-1.376-1.134h.6c.04.415.312.64.776.64.415 0 .687-.217.687-.545 0-.32-.208-.48-.84-.64-.8-.215-1.159-.55-1.159-1.11 0-.64.52-1.072 1.295-1.072.784 0 1.256.4 1.287 1.095h-.607zM287.166 123.95c.032.312.09.473.24.672.24.328.592.504.992.504.456 0 .887-.248 1.103-.632l.536.2c-.303.616-.935.992-1.64.992-1.094 0-1.878-.8-1.878-1.92 0-1.134.776-1.942 1.855-1.942 1.072 0 1.871.808 1.871 1.887 0 .048 0 .152-.008.24h-3.07zm2.432-.447c-.025-.288-.08-.448-.208-.632a1.268 1.268 0 0 0-1.016-.504c-.408 0-.775.193-.991.512-.112.176-.16.328-.208.624h2.423zM291.92 121.912v.52c.32-.432.639-.608 1.095-.608.336 0 .64.112.855.304.233.224.313.48.313.983v2.487h-.609v-2.35c0-.329-.04-.505-.135-.633-.113-.151-.328-.248-.575-.248a.916.916 0 0 0-.705.312c-.175.192-.239.368-.239.672v2.247h-.608v-3.686h.608zM276.07 131.016v-.608l1.806-1.183v5.373h-.632v-4.366l-1.174.784zM279.468 129.936v-.591h2.958l-2.11 5.253h-.689l1.888-4.662h-2.047zM283.603 134.254a.406.406 0 0 1-.415.408.403.403 0 0 1-.416-.416c0-.24.175-.416.416-.416.239 0 .415.176.415.424zM287.332 129.872h-1.719v1.432c.272-.104.512-.152.784-.152.935 0 1.64.735 1.64 1.735 0 1.023-.753 1.767-1.8 1.767-.751 0-1.319-.392-1.591-1.096l.576-.215c.128.231.183.327.271.407.168.168.464.272.76.272.64 0 1.128-.495 1.128-1.151 0-.68-.48-1.135-1.184-1.135-.416 0-.84.191-1.183.543v-3.014h2.318v.607zM291.285 130.912v.512c.28-.424.592-.6 1.048-.6.504 0 .823.216.991.671.273-.471.617-.671 1.168-.671.424 0 .744.136.936.392.176.231.224.44.224 1.023v2.359h-.608v-2.215c0-.448-.016-.552-.104-.704-.112-.191-.352-.312-.64-.312-.535 0-.831.36-.831 1.016v2.215h-.608v-2.207c0-.36-.032-.544-.12-.703-.104-.208-.328-.32-.6-.32-.535 0-.856.383-.856 1.023v2.207h-.607v-3.686h.607zM298.877 132.095v.408h-1.951l1.184-1.615c.336-.456.407-.592.407-.768 0-.256-.216-.44-.528-.44-.351 0-.496.177-.503.592h-.44c.024-.647.36-.991.976-.991.56 0 .95.335.95.807 0 .272-.103.52-.383.88l-.848 1.127h1.136z"/><g><path d="M248.069 358.736c1.086 0 1.703.511 1.703 1.415 0 .343-.105.648-.304.872-.128.151-.256.231-.544.343.296.064.44.12.607.248.289.232.44.592.44 1.024 0 .495-.216.927-.575 1.16-.312.2-.656.27-1.327.27h-1.503v-5.332h1.503zm-.832 2.398l.68-.008c.423 0 .679-.055.871-.208a.937.937 0 0 0 .327-.735c0-.344-.168-.648-.423-.768-.192-.095-.415-.128-.904-.128h-.551v1.847zm0 2.39h.671c.56 0 .776-.038 1.008-.175.256-.144.384-.4.384-.751 0-.64-.376-.92-1.224-.92h-.84v1.847zM253.958 360.383h.609v3.686h-.609v-.711c-.367.55-.783.798-1.343.798-1.015 0-1.735-.798-1.735-1.918 0-1.127.736-1.943 1.751-1.943.56 0 .968.216 1.327.695v-.607zm-2.135.896a1.684 1.684 0 0 0-.303.975c0 .783.511 1.375 1.183 1.375.696 0 1.264-.647 1.264-1.44 0-.8-.512-1.35-1.248-1.35-.4 0-.679.136-.896.44zM255.925 364.069v-5.333h.607v5.333h-.607zM258.491 364.069h-.608v-5.333h.608v3.262l1.471-1.615h.768l-1.648 1.799 1.64 1.887h-.76l-1.47-1.647v1.647zM264.92 362.238c0 1.08-.832 1.918-1.888 1.918-1.095 0-1.863-.798-1.863-1.934 0-1.144.768-1.927 1.888-1.927 1.087 0 1.862.808 1.862 1.943zm-3.127-.008c0 .815.504 1.367 1.255 1.367.728 0 1.248-.567 1.248-1.367 0-.824-.496-1.375-1.24-1.375-.759 0-1.263.551-1.263 1.375zM266.632 360.383v.52c.32-.432.64-.608 1.096-.608.336 0 .64.111.855.304.233.223.313.48.313.983v2.487h-.609v-2.351c0-.328-.04-.504-.135-.632-.112-.151-.329-.248-.576-.248a.917.917 0 0 0-.704.313c-.175.191-.24.367-.24.671v2.247h-.607v-3.686h.607zM248.86 368.343h-1.72v1.432c.272-.104.513-.153.784-.153.936 0 1.64.737 1.64 1.736 0 1.023-.752 1.767-1.8 1.767-.751 0-1.318-.392-1.59-1.095l.575-.216c.128.231.184.327.272.407.168.168.464.272.76.272.64 0 1.126-.496 1.126-1.151 0-.68-.48-1.136-1.182-1.136-.416 0-.84.193-1.184.544v-3.014h2.319v.607zM251.424 372.725a.406.406 0 0 1-.415.408c-.24 0-.416-.176-.416-.416s.176-.416.416-.416.415.176.415.424zM255.726 371.462c0 .6-.112.967-.376 1.247-.28.296-.703.447-1.207.447-.52 0-.951-.159-1.232-.463-.28-.296-.351-.6-.351-1.408v-1.758c0-.696.08-1.024.32-1.312.263-.32.703-.495 1.246-.495.488 0 .888.136 1.184.4.304.28.416.599.416 1.223v2.12zm-2.534-.137c0 .617.023.728.199.928.168.193.456.312.76.312.328 0 .631-.136.783-.352.12-.176.168-.4.168-.79v-2.04c0-.416-.072-.624-.272-.815a1 1 0 0 0-.68-.248c-.343 0-.639.135-.791.383-.136.192-.167.376-.167.84v1.782zM259.056 369.383v.512c.28-.424.59-.6 1.047-.6.504 0 .823.216.991.671.272-.472.616-.67 1.168-.67.424 0 .743.135.936.39.175.232.223.44.223 1.024v2.359h-.607v-2.215c0-.448-.017-.552-.105-.703-.111-.193-.351-.313-.64-.313-.535 0-.83.36-.83 1.016v2.215h-.609v-2.207c0-.36-.031-.543-.119-.704-.105-.208-.328-.32-.6-.32-.536 0-.855.384-.855 1.024v2.207h-.609v-3.686h.609zM266.647 370.567v.407h-1.951l1.183-1.615c.336-.455.407-.592.407-.768 0-.256-.215-.44-.527-.44-.352 0-.496.176-.504.592h-.44c.024-.647.36-.99.976-.99.56 0 .951.334.951.806 0 .272-.103.52-.383.88l-.848 1.128h1.136z"/></g><g><path d="M33.835 42.335v.607h-2.55V37.61h.671v4.726h1.88zM35.484 38.225c0 .216-.177.384-.393.384s-.384-.168-.384-.392.168-.392.393-.392c.216 0 .384.176.384.4zm-.09 4.717h-.607v-3.686h.608v3.686zM37.447 42.942h-.607v-3.15h-.504v-.536h.504v-.496c0-.727.376-1.159 1.016-1.159.03 0 .103 0 .168.008v.544c-.44.048-.56.176-.577.607v.496h.577v.536h-.577v3.15zM39.831 42.19c.01.184.057.224.28.224h.28v.528h-.568c-.431-.008-.6-.168-.6-.576v-2.574h-.51v-.536h.51v-1.16h.608v1.16h.56v.536h-.56v2.399z"/></g><g><path d="M370.442 124.126v.575h-3.815l3.015-4.757h-2.679v-.576h3.79l-3.014 4.758h2.703zM372.282 119.984c0 .216-.176.384-.392.384s-.384-.168-.384-.392.168-.392.393-.392c.215 0 .383.176.383.4zm-.088 4.717h-.608v-3.686h.608v3.686zM374.155 121.015v.512c.28-.424.591-.6 1.047-.6.504 0 .824.216.992.672.272-.472.616-.672 1.168-.672.423 0 .743.136.935.392.176.232.224.44.224 1.023v2.36h-.608v-2.215c0-.448-.016-.552-.104-.704-.112-.192-.352-.312-.64-.312-.535 0-.83.36-.83 1.016v2.214h-.61v-2.207c0-.359-.03-.543-.118-.703-.105-.208-.329-.32-.6-.32-.536 0-.856.384-.856 1.023v2.207h-.608v-3.686h.608zM380.477 121.015v.512c.28-.424.59-.6 1.047-.6.504 0 .823.216.99.672.273-.472.617-.672 1.169-.672.424 0 .743.136.935.392.176.232.224.44.224 1.023v2.36h-.607v-2.215c0-.448-.017-.552-.105-.704-.111-.192-.351-.312-.64-.312-.535 0-.83.36-.83 1.016v2.214h-.609v-2.207c0-.359-.031-.543-.12-.703-.104-.208-.327-.32-.599-.32-.536 0-.855.384-.855 1.023v2.207h-.609v-3.686h.609zM386.574 123.054c.032.312.088.472.24.672.24.328.591.504.99.504.457 0 .889-.248 1.104-.632l.537.2c-.304.615-.936.991-1.64.991-1.095 0-1.879-.799-1.879-1.919 0-1.135.775-1.943 1.855-1.943 1.072 0 1.872.808 1.872 1.888 0 .048 0 .152-.008.24h-3.07zm2.43-.447c-.023-.288-.079-.448-.207-.632a1.268 1.268 0 0 0-1.016-.504c-.408 0-.775.192-.99.512-.113.176-.16.328-.209.624h2.422zM391.326 121.015v.624c.113-.264.193-.376.336-.487.185-.144.44-.225.704-.225h.144v.616c-.064-.008-.128-.008-.168-.008a.945.945 0 0 0-.799.424c-.16.232-.217.447-.217.871v1.871h-.607v-3.686h.607zM367.411 130.12v-.608l1.807-1.184v5.373h-.632v-4.365l-1.175.783zM371.978 130.583c.223-.08.327-.104.52-.104.887 0 1.574.696 1.574 1.6 0 .943-.775 1.718-1.718 1.718-.952 0-1.688-.751-1.688-1.719 0-.391.104-.687.408-1.175l1.527-2.455h.744l-1.367 2.135zm-.68 1.495c0 .624.472 1.12 1.071 1.12s1.08-.488 1.08-1.096c0-.6-.472-1.08-1.064-1.08-.607 0-1.087.465-1.087 1.056zM375.911 133.358a.406.406 0 0 1-.415.407.403.403 0 0 1-.416-.415c0-.24.176-.416.416-.416s.415.176.415.424zM376.842 132.502v-.496l2.751-3.71v3.63h.623v.576h-.623v1.2h-.616v-1.2h-2.135zm2.135-2.615l-1.495 2.04h1.495v-2.04zM384.307 130.015v.512c.28-.424.59-.6 1.047-.6.504 0 .823.216.99.672.273-.472.617-.672 1.169-.672.424 0 .743.136.935.392.176.232.224.44.224 1.024v2.358h-.607v-2.214c0-.448-.017-.552-.105-.704-.111-.192-.351-.312-.64-.312-.535 0-.83.36-.83 1.016v2.214h-.609v-2.207c0-.359-.031-.543-.119-.703-.105-.208-.328-.32-.6-.32-.536 0-.855.384-.855 1.023v2.207h-.609v-3.686h.609zM391.898 131.199v.408h-1.951l1.183-1.616c.336-.455.407-.591.407-.767 0-.256-.215-.44-.527-.44-.352 0-.496.176-.504.592h-.44c.024-.648.36-.992.976-.992.56 0 .951.336.951.808 0 .272-.103.52-.383.88l-.848 1.127h1.136z"/></g><g><path d="M370.06 256.933v.576h-3.815l3.015-4.758h-2.679v-.575h3.79l-3.014 4.757h2.703zM371.9 252.791c0 .216-.176.384-.392.384s-.384-.168-.384-.392.168-.392.393-.392c.216 0 .384.176.384.4zm-.088 4.718h-.608v-3.687h.608v3.687zM373.773 253.822v.512c.28-.424.591-.6 1.048-.6.503 0 .823.216.99.672.273-.472.617-.671 1.169-.671.424 0 .743.135.935.391.176.232.224.44.224 1.024v2.359h-.608v-2.215c0-.448-.016-.552-.104-.704-.111-.192-.352-.312-.64-.312-.535 0-.83.36-.83 1.016v2.215h-.61V255.3c0-.359-.03-.543-.118-.703-.105-.208-.328-.32-.6-.32-.536 0-.856.384-.856 1.023v2.208h-.608v-3.687h.608zM380.095 253.822v.512c.28-.424.59-.6 1.047-.6.504 0 .823.216.991.672.273-.472.616-.671 1.168-.671.424 0 .743.135.936.391.175.232.223.44.223 1.024v2.359h-.607v-2.215c0-.448-.017-.552-.105-.704-.111-.192-.351-.312-.64-.312-.535 0-.83.36-.83 1.016v2.215h-.609V255.3c0-.359-.031-.543-.119-.703-.104-.208-.328-.32-.6-.32-.536 0-.855.384-.855 1.023v2.208h-.608v-3.687h.608zM386.193 255.862c.03.311.088.471.239.67.24.329.592.505.991.505.456 0 .888-.248 1.104-.632l.536.2c-.304.615-.936.991-1.64.991-1.095 0-1.879-.799-1.879-1.919 0-1.135.776-1.942 1.856-1.942 1.07 0 1.87.807 1.87 1.887 0 .048 0 .152-.007.24h-3.07zm2.43-.448c-.024-.288-.08-.448-.208-.632a1.268 1.268 0 0 0-1.015-.504c-.409 0-.776.192-.992.512-.112.176-.16.328-.208.624h2.422zM390.945 253.822v.624c.112-.264.192-.375.336-.487.184-.144.44-.224.704-.224h.143v.615c-.063-.007-.128-.007-.168-.007a.945.945 0 0 0-.799.423c-.16.232-.216.448-.216.871v1.872h-.608v-3.687h.608zM367.03 262.926v-.607l1.806-1.184v5.374h-.632v-4.366l-1.174.783zM371.596 263.39c.224-.08.327-.104.52-.104.887 0 1.575.696 1.575 1.6 0 .943-.776 1.718-1.72 1.718-.951 0-1.687-.751-1.687-1.719 0-.391.104-.687.409-1.175l1.526-2.454h.744l-1.367 2.134zm-.68 1.495c0 .624.472 1.12 1.072 1.12s1.079-.488 1.079-1.096c0-.6-.472-1.08-1.064-1.08-.607 0-1.087.465-1.087 1.056zM375.53 266.165a.406.406 0 0 1-.416.407.403.403 0 0 1-.416-.415c0-.24.176-.416.416-.416s.416.176.416.424zM376.46 265.31v-.497l2.751-3.71v3.63h.623v.576h-.623v1.2h-.616v-1.2h-2.135zm2.135-2.615l-1.495 2.039h1.495v-2.04zM383.925 262.822v.512c.28-.424.59-.6 1.047-.6.504 0 .823.216.991.672.273-.472.616-.671 1.168-.671.424 0 .743.135.936.391.175.232.223.44.223 1.024v2.359h-.607v-2.215c0-.448-.017-.552-.105-.704-.111-.192-.351-.312-.64-.312-.534 0-.83.36-.83 1.016v2.215h-.609V264.3c0-.359-.031-.543-.119-.703-.104-.208-.328-.32-.6-.32-.536 0-.855.384-.855 1.023v2.208h-.608v-3.687h.608zM391.516 264.006v.408h-1.951l1.183-1.615c.336-.456.408-.592.408-.768 0-.256-.216-.44-.528-.44-.351 0-.496.176-.504.592h-.44c.024-.648.36-.991.976-.991.56 0 .952.335.952.807 0 .272-.104.52-.384.88l-.848 1.127h1.136z"/></g><g><path d="M307.59 50.968c1.086 0 1.702.512 1.702 1.416 0 .343-.104.647-.303.871-.128.152-.256.232-.544.344.295.064.439.12.607.248.288.232.44.592.44 1.023 0 .496-.216.928-.576 1.16-.311.2-.655.271-1.327.271h-1.503v-5.333h1.503zm-.833 2.399l.68-.008c.424 0 .68-.056.872-.208a.937.937 0 0 0 .327-.735c0-.344-.168-.648-.424-.768-.191-.096-.415-.128-.903-.128h-.552v1.847zm0 2.39h.672c.56 0 .775-.039 1.008-.175.256-.144.384-.4.384-.752 0-.64-.376-.92-1.224-.92h-.84v1.848zM313.479 52.615h.608v3.686h-.608v-.71c-.367.55-.783.798-1.343.798-1.016 0-1.735-.799-1.735-1.919 0-1.127.736-1.942 1.75-1.942.56 0 .968.215 1.328.695v-.608zm-2.135.896a1.686 1.686 0 0 0-.304.976c0 .783.512 1.375 1.184 1.375.695 0 1.264-.648 1.264-1.44 0-.8-.512-1.351-1.249-1.351-.399 0-.678.136-.895.44zM318.259 50.968h.607v5.333h-.607v-.631c-.368.504-.76.72-1.32.72-1.015 0-1.735-.792-1.735-1.912 0-1.119.737-1.95 1.736-1.95.544 0 .959.2 1.319.647v-2.207zm-2.415 3.519c0 .807.488 1.375 1.184 1.375.711 0 1.231-.592 1.231-1.392 0-.831-.487-1.399-1.191-1.399-.728 0-1.224.576-1.224 1.416zM305.734 64.102v-.496l2.75-3.71v3.63h.624v.576h-.623v1.2h-.617v-1.2h-2.134zm2.134-2.614l-1.495 2.039h1.495v-2.04zM310.916 64.958a.406.406 0 0 1-.415.407.403.403 0 0 1-.416-.415c0-.24.176-.416.416-.416s.415.176.415.424zM312.139 60.64v-.591h2.958l-2.11 5.252h-.688l1.887-4.661h-2.047zM319.242 61.615v.512c.28-.424.591-.6 1.047-.6.504 0 .824.216.992.672.272-.472.616-.671 1.167-.671.424 0 .744.135.936.391.176.232.224.44.224 1.024V65.3H323v-2.214c0-.448-.016-.552-.104-.704-.112-.192-.352-.312-.64-.312-.535 0-.831.36-.831 1.016V65.3h-.608v-2.207c0-.359-.032-.543-.12-.703-.104-.208-.328-.32-.6-.32-.535 0-.855.384-.855 1.023v2.208h-.608v-3.687h.608zM326.833 62.799v.408h-1.95l1.183-1.615c.336-.456.407-.592.407-.768 0-.256-.216-.44-.527-.44-.352 0-.497.176-.504.592h-.44c.024-.648.36-.991.976-.991.56 0 .95.335.95.807 0 .272-.103.52-.383.88l-.848 1.127h1.136z"/></g><g><path d="M277.116 285.858h-.67v-5.333h.67v2.454l2.072-2.454h.807l-2.222 2.638 2.222 2.695h-.855l-2.024-2.463v2.463zM284.134 284.027c0 1.08-.831 1.919-1.887 1.919-1.095 0-1.863-.8-1.863-1.936 0-1.143.768-1.926 1.888-1.926 1.087 0 1.862.807 1.862 1.943zm-3.126-.008c0 .815.504 1.367 1.255 1.367.727 0 1.248-.568 1.248-1.367 0-.824-.496-1.376-1.24-1.376-.76 0-1.263.552-1.263 1.376zM288.147 285.402c-.416.376-.825.544-1.36.544-1.055 0-1.807-.8-1.807-1.92 0-1.143.76-1.942 1.839-1.942.528 0 .96.175 1.343.551l-.391.392c-.28-.256-.592-.384-.936-.384-.727 0-1.231.56-1.231 1.36 0 .815.504 1.383 1.223 1.383.36 0 .648-.12.944-.4l.376.416zM289.688 282.683c.336-.415.672-.6 1.112-.6.32 0 .655.129.855.337.2.2.288.487.288.96v2.478h-.608v-2.447c0-.504-.248-.784-.687-.784a.94.94 0 0 0-.72.328c-.184.208-.24.392-.24.744v2.159h-.608v-5.333h.608v2.158zM293.672 284.21c.031.312.088.472.24.672.24.328.591.504.99.504.457 0 .888-.248 1.104-.632l.536.2c-.303.616-.935.992-1.64.992-1.094 0-1.878-.8-1.878-1.92 0-1.135.775-1.942 1.855-1.942 1.071 0 1.871.807 1.871 1.887 0 .048 0 .152-.008.24h-3.07zm2.43-.447c-.024-.288-.08-.448-.207-.632a1.268 1.268 0 0 0-1.016-.504c-.408 0-.775.193-.991.512-.112.176-.16.328-.208.624h2.422zM298.424 282.172v.52c.32-.433.64-.608 1.096-.608.336 0 .64.112.855.303.233.225.313.48.313.984v2.487h-.609v-2.35c0-.33-.04-.505-.135-.633-.112-.152-.329-.248-.576-.248a.916.916 0 0 0-.704.312c-.175.192-.24.368-.24.672v2.247h-.607v-3.686h.607zM276.67 291.276v-.608l1.806-1.183v5.373h-.632v-4.366l-1.175.784zM283.345 293.25c0 .6-.112.968-.376 1.247-.28.296-.703.449-1.207.449-.52 0-.951-.16-1.232-.464-.28-.296-.351-.6-.351-1.408v-1.758c0-.696.08-1.024.32-1.312.263-.32.703-.495 1.247-.495.488 0 .887.136 1.183.4.304.28.416.599.416 1.223v2.119zm-2.534-.136c0 .616.023.728.199.928.168.192.456.312.76.312.328 0 .632-.136.783-.352.12-.176.168-.4.168-.791v-2.04c0-.415-.071-.623-.272-.815a1 1 0 0 0-.68-.248c-.343 0-.639.136-.79.384-.137.192-.168.376-.168.84v1.782zM285.317 294.514a.406.406 0 0 1-.415.407.403.403 0 0 1-.416-.415c0-.24.175-.416.416-.416.239 0 .415.176.415.424zM289.618 293.25c0 .6-.112.968-.376 1.247-.279.296-.703.449-1.207.449-.52 0-.95-.16-1.231-.464-.28-.296-.352-.6-.352-1.408v-1.758c0-.696.08-1.024.32-1.312.263-.32.704-.495 1.248-.495.487 0 .886.136 1.182.4.304.28.416.599.416 1.223v2.119zm-2.534-.136c0 .616.024.728.2.928.167.192.455.312.76.312.327 0 .631-.136.782-.352.12-.176.168-.4.168-.791v-2.04c0-.415-.07-.623-.271-.815a1 1 0 0 0-.68-.248c-.344 0-.64.136-.79.384-.138.192-.169.376-.169.84v1.782zM292.947 291.172v.511c.28-.424.592-.6 1.048-.6.504 0 .824.217.992.672.272-.472.616-.671 1.168-.671.423 0 .743.135.935.391.176.232.224.44.224 1.024v2.359h-.608v-2.215c0-.448-.016-.552-.104-.704-.112-.192-.352-.312-.64-.312-.535 0-.83.36-.83 1.016v2.215h-.61v-2.207c0-.36-.03-.544-.118-.704-.105-.208-.329-.32-.6-.32-.536 0-.857.384-.857 1.024v2.207h-.607v-3.686h.607zM300.54 292.355v.408h-1.952l1.184-1.615c.336-.456.407-.592.407-.768 0-.256-.216-.44-.527-.44-.352 0-.496.176-.504.592h-.44c.024-.647.36-.991.976-.991.56 0 .951.335.951.807 0 .272-.104.52-.384.88l-.847 1.127h1.135z"/></g></g></svg>